<?xml version="1.0" encoding="utf-8" standalone="no"?>
<!DOCTYPE svg PUBLIC "-//W3C//DTD SVG 1.1//EN"
  "http://www.w3.org/Graphics/SVG/1.1/DTD/svg11.dtd">
<svg xmlns:xlink="http://www.w3.org/1999/xlink" width="1332pt" height="699.84pt" viewBox="0 0 1332 699.84" xmlns="http://www.w3.org/2000/svg" version="1.1">
 <metadata>
  <rdf:RDF xmlns:dc="http://purl.org/dc/elements/1.1/" xmlns:cc="http://creativecommons.org/ns#" xmlns:rdf="http://www.w3.org/1999/02/22-rdf-syntax-ns#">
   <cc:Work>
    <dc:type rdf:resource="http://purl.org/dc/dcmitype/StillImage"/>
    <dc:date>2024-02-05T21:26:34.984587</dc:date>
    <dc:format>image/svg+xml</dc:format>
    <dc:creator>
     <cc:Agent>
      <dc:title>Matplotlib v3.5.1, https://matplotlib.org/</dc:title>
     </cc:Agent>
    </dc:creator>
   </cc:Work>
  </rdf:RDF>
 </metadata>
 <defs>
  <style type="text/css">*{stroke-linejoin: round; stroke-linecap: butt}</style>
 </defs>
 <g id="figure_1">
  <g id="patch_1">
   <path d="M 0 699.84 
L 1332 699.84 
L 1332 0 
L 0 0 
z
" style="fill: #ffffff"/>
  </g>
  <g id="patch_2">
   <path d="M 597.96936 253.34208 
L 767.33064 253.34208 
L 767.33064 83.9808 
L 597.96936 83.9808 
z
" style="fill: #ffffff"/>
  </g>
  <g id="pane3d_1">
   <g id="patch_3">
    <path d="M 610.757305 211.583016 
L 666.68593 164.702533 
L 665.908469 97.092496 
L 607.30337 139.859827 
" style="fill: #f2f2f2; opacity: 0.5; stroke: #f2f2f2; stroke-linejoin: miter"/>
   </g>
  </g>
  <g id="pane3d_2">
   <g id="patch_4">
    <path d="M 666.68593 164.702533 
L 756.431419 190.788003 
L 759.634119 120.849216 
L 665.908469 97.092496 
" style="fill: #e6e6e6; opacity: 0.5; stroke: #e6e6e6; stroke-linejoin: miter"/>
   </g>
  </g>
  <g id="pane3d_3">
   <g id="patch_5">
    <path d="M 610.757305 211.583016 
L 705.891906 242.653977 
L 756.431419 190.788003 
L 666.68593 164.702533 
" style="fill: #ececec; opacity: 0.5; stroke: #ececec; stroke-linejoin: miter"/>
   </g>
  </g>
  <g id="axis3d_1">
   <g id="line2d_1">
    <path d="M 610.757305 211.583016 
L 705.891906 242.653977 
" style="fill: none; stroke: #000000; stroke-width: 0.8; stroke-linecap: square"/>
   </g>
   <g id="Line3DCollection_1">
    <path d="M 616.513517 213.462995 
L 672.138637 166.287419 
L 671.591719 98.533034 
" style="fill: none; stroke: #b0b0b0; stroke-width: 0.8"/>
    <path d="M 636.557336 220.009306 
L 691.102854 171.799569 
L 691.369102 103.546024 
" style="fill: none; stroke: #b0b0b0; stroke-width: 0.8"/>
    <path d="M 657.062288 226.706223 
L 710.466858 177.42792 
L 711.581621 108.669308 
" style="fill: none; stroke: #b0b0b0; stroke-width: 0.8"/>
    <path d="M 678.044473 233.559005 
L 730.243424 183.176187 
L 732.243795 113.906567 
" style="fill: none; stroke: #b0b0b0; stroke-width: 0.8"/>
    <path d="M 699.520748 240.573156 
L 750.445881 189.048244 
L 753.370798 119.261647 
" style="fill: none; stroke: #b0b0b0; stroke-width: 0.8"/>
   </g>
   <g id="xtick_1">
    <g id="line2d_2">
     <path d="M 616.997897 213.052193 
L 615.542678 214.286362 
" style="fill: none; stroke: #000000; stroke-width: 0.8; stroke-linecap: square"/>
    </g>
    <g id="text_1">
     <!-- 1.00 -->
     <g transform="translate(597.835624 236.805516)scale(0.1 -0.1)">
      <defs>
       <path id="DejaVuSans-31" d="M 794 531 
L 1825 531 
L 1825 4091 
L 703 3866 
L 703 4441 
L 1819 4666 
L 2450 4666 
L 2450 531 
L 3481 531 
L 3481 0 
L 794 0 
L 794 531 
z
" transform="scale(0.015625)"/>
       <path id="DejaVuSans-2e" d="M 684 794 
L 1344 794 
L 1344 0 
L 684 0 
L 684 794 
z
" transform="scale(0.015625)"/>
       <path id="DejaVuSans-30" d="M 2034 4250 
Q 1547 4250 1301 3770 
Q 1056 3291 1056 2328 
Q 1056 1369 1301 889 
Q 1547 409 2034 409 
Q 2525 409 2770 889 
Q 3016 1369 3016 2328 
Q 3016 3291 2770 3770 
Q 2525 4250 2034 4250 
z
M 2034 4750 
Q 2819 4750 3233 4129 
Q 3647 3509 3647 2328 
Q 3647 1150 3233 529 
Q 2819 -91 2034 -91 
Q 1250 -91 836 529 
Q 422 1150 422 2328 
Q 422 3509 836 4129 
Q 1250 4750 2034 4750 
z
" transform="scale(0.015625)"/>
      </defs>
      <use xlink:href="#DejaVuSans-31"/>
      <use xlink:href="#DejaVuSans-2e" x="63.623047"/>
      <use xlink:href="#DejaVuSans-30" x="95.410156"/>
      <use xlink:href="#DejaVuSans-30" x="159.033203"/>
     </g>
    </g>
   </g>
   <g id="xtick_2">
    <g id="line2d_3">
     <path d="M 637.032754 219.589111 
L 635.604436 220.85152 
" style="fill: none; stroke: #000000; stroke-width: 0.8; stroke-linecap: square"/>
    </g>
    <g id="text_2">
     <!-- 1.25 -->
     <g transform="translate(617.911792 243.570689)scale(0.1 -0.1)">
      <defs>
       <path id="DejaVuSans-32" d="M 1228 531 
L 3431 531 
L 3431 0 
L 469 0 
L 469 531 
Q 828 903 1448 1529 
Q 2069 2156 2228 2338 
Q 2531 2678 2651 2914 
Q 2772 3150 2772 3378 
Q 2772 3750 2511 3984 
Q 2250 4219 1831 4219 
Q 1534 4219 1204 4116 
Q 875 4013 500 3803 
L 500 4441 
Q 881 4594 1212 4672 
Q 1544 4750 1819 4750 
Q 2544 4750 2975 4387 
Q 3406 4025 3406 3419 
Q 3406 3131 3298 2873 
Q 3191 2616 2906 2266 
Q 2828 2175 2409 1742 
Q 1991 1309 1228 531 
z
" transform="scale(0.015625)"/>
       <path id="DejaVuSans-35" d="M 691 4666 
L 3169 4666 
L 3169 4134 
L 1269 4134 
L 1269 2991 
Q 1406 3038 1543 3061 
Q 1681 3084 1819 3084 
Q 2600 3084 3056 2656 
Q 3513 2228 3513 1497 
Q 3513 744 3044 326 
Q 2575 -91 1722 -91 
Q 1428 -91 1123 -41 
Q 819 9 494 109 
L 494 744 
Q 775 591 1075 516 
Q 1375 441 1709 441 
Q 2250 441 2565 725 
Q 2881 1009 2881 1497 
Q 2881 1984 2565 2268 
Q 2250 2553 1709 2553 
Q 1456 2553 1204 2497 
Q 953 2441 691 2322 
L 691 4666 
z
" transform="scale(0.015625)"/>
      </defs>
      <use xlink:href="#DejaVuSans-31"/>
      <use xlink:href="#DejaVuSans-2e" x="63.623047"/>
      <use xlink:href="#DejaVuSans-32" x="95.410156"/>
      <use xlink:href="#DejaVuSans-35" x="159.033203"/>
     </g>
    </g>
   </g>
   <g id="xtick_3">
    <g id="line2d_4">
     <path d="M 657.528201 226.276309 
L 656.128417 227.56794 
" style="fill: none; stroke: #000000; stroke-width: 0.8; stroke-linecap: square"/>
    </g>
    <g id="text_3">
     <!-- 1.50 -->
     <g transform="translate(638.452605 250.492436)scale(0.1 -0.1)">
      <use xlink:href="#DejaVuSans-31"/>
      <use xlink:href="#DejaVuSans-2e" x="63.623047"/>
      <use xlink:href="#DejaVuSans-35" x="95.410156"/>
      <use xlink:href="#DejaVuSans-30" x="159.033203"/>
     </g>
    </g>
   </g>
   <g id="xtick_4">
    <g id="line2d_5">
     <path d="M 678.500308 233.11903 
L 677.13078 234.440909 
" style="fill: none; stroke: #000000; stroke-width: 0.8; stroke-linecap: square"/>
    </g>
    <g id="text_4">
     <!-- 1.75 -->
     <g transform="translate(659.474382 257.576256)scale(0.1 -0.1)">
      <defs>
       <path id="DejaVuSans-37" d="M 525 4666 
L 3525 4666 
L 3525 4397 
L 1831 0 
L 1172 0 
L 2766 4134 
L 525 4134 
L 525 4666 
z
" transform="scale(0.015625)"/>
      </defs>
      <use xlink:href="#DejaVuSans-31"/>
      <use xlink:href="#DejaVuSans-2e" x="63.623047"/>
      <use xlink:href="#DejaVuSans-37" x="95.410156"/>
      <use xlink:href="#DejaVuSans-35" x="159.033203"/>
     </g>
    </g>
   </g>
   <g id="xtick_5">
    <g id="line2d_6">
     <path d="M 699.965898 240.122764 
L 698.628448 241.475965 
" style="fill: none; stroke: #000000; stroke-width: 0.8; stroke-linecap: square"/>
    </g>
    <g id="text_5">
     <!-- 2.00 -->
     <g transform="translate(680.994215 264.827909)scale(0.1 -0.1)">
      <use xlink:href="#DejaVuSans-32"/>
      <use xlink:href="#DejaVuSans-2e" x="63.623047"/>
      <use xlink:href="#DejaVuSans-30" x="95.410156"/>
      <use xlink:href="#DejaVuSans-30" x="159.033203"/>
     </g>
    </g>
   </g>
  </g>
  <g id="axis3d_2">
   <g id="line2d_7">
    <path d="M 756.431419 190.788003 
L 705.891906 242.653977 
" style="fill: none; stroke: #000000; stroke-width: 0.8; stroke-linecap: square"/>
   </g>
   <g id="Line3DCollection_2">
    <path d="M 611.404308 136.86715 
L 614.657155 208.314084 
L 709.430481 239.022529 
" style="fill: none; stroke: #b0b0b0; stroke-width: 0.8"/>
    <path d="M 624.921028 127.003263 
L 627.525754 197.527369 
L 721.091482 227.055473 
" style="fill: none; stroke: #b0b0b0; stroke-width: 0.8"/>
    <path d="M 637.913768 117.521753 
L 639.916746 187.140994 
L 732.297309 215.555538 
" style="fill: none; stroke: #b0b0b0; stroke-width: 0.8"/>
    <path d="M 650.412418 108.400808 
L 651.856236 177.133077 
L 743.074101 204.495898 
" style="fill: none; stroke: #b0b0b0; stroke-width: 0.8"/>
    <path d="M 662.444636 99.620243 
L 663.368459 167.483303 
L 753.446036 193.851741 
" style="fill: none; stroke: #b0b0b0; stroke-width: 0.8"/>
   </g>
   <g id="xtick_6">
    <g id="line2d_8">
     <path d="M 708.631826 238.763748 
L 711.029856 239.540758 
" style="fill: none; stroke: #000000; stroke-width: 0.8; stroke-linecap: square"/>
    </g>
    <g id="text_6">
     <!-- 1.00 -->
     <g transform="translate(711.181833 260.047856)scale(0.1 -0.1)">
      <use xlink:href="#DejaVuSans-31"/>
      <use xlink:href="#DejaVuSans-2e" x="63.623047"/>
      <use xlink:href="#DejaVuSans-30" x="95.410156"/>
      <use xlink:href="#DejaVuSans-30" x="159.033203"/>
     </g>
    </g>
   </g>
   <g id="xtick_7">
    <g id="line2d_9">
     <path d="M 720.303799 226.80689 
L 722.668845 227.553268 
" style="fill: none; stroke: #000000; stroke-width: 0.8; stroke-linecap: square"/>
    </g>
    <g id="text_7">
     <!-- 1.25 -->
     <g transform="translate(722.596887 247.802248)scale(0.1 -0.1)">
      <use xlink:href="#DejaVuSans-31"/>
      <use xlink:href="#DejaVuSans-2e" x="63.623047"/>
      <use xlink:href="#DejaVuSans-32" x="95.410156"/>
      <use xlink:href="#DejaVuSans-35" x="159.033203"/>
     </g>
    </g>
   </g>
   <g id="xtick_8">
    <g id="line2d_10">
     <path d="M 731.520357 215.316562 
L 733.853143 216.034084 
" style="fill: none; stroke: #000000; stroke-width: 0.8; stroke-linecap: square"/>
    </g>
    <g id="text_8">
     <!-- 1.50 -->
     <g transform="translate(733.565965 236.035066)scale(0.1 -0.1)">
      <use xlink:href="#DejaVuSans-31"/>
      <use xlink:href="#DejaVuSans-2e" x="63.623047"/>
      <use xlink:href="#DejaVuSans-35" x="95.410156"/>
      <use xlink:href="#DejaVuSans-30" x="159.033203"/>
     </g>
    </g>
   </g>
   <g id="xtick_9">
    <g id="line2d_11">
     <path d="M 742.307644 204.265982 
L 744.608883 204.95629 
" style="fill: none; stroke: #000000; stroke-width: 0.8; stroke-linecap: square"/>
    </g>
    <g id="text_9">
     <!-- 1.75 -->
     <g transform="translate(744.1147 224.71881)scale(0.1 -0.1)">
      <use xlink:href="#DejaVuSans-31"/>
      <use xlink:href="#DejaVuSans-2e" x="63.623047"/>
      <use xlink:href="#DejaVuSans-37" x="95.410156"/>
      <use xlink:href="#DejaVuSans-35" x="159.033203"/>
     </g>
    </g>
   </g>
   <g id="xtick_10">
    <g id="line2d_12">
     <path d="M 752.689841 193.63038 
L 754.960234 194.294993 
" style="fill: none; stroke: #000000; stroke-width: 0.8; stroke-linecap: square"/>
    </g>
    <g id="text_10">
     <!-- 2.00 -->
     <g transform="translate(754.2668 213.828048)scale(0.1 -0.1)">
      <use xlink:href="#DejaVuSans-32"/>
      <use xlink:href="#DejaVuSans-2e" x="63.623047"/>
      <use xlink:href="#DejaVuSans-30" x="95.410156"/>
      <use xlink:href="#DejaVuSans-30" x="159.033203"/>
     </g>
    </g>
   </g>
  </g>
  <g id="axis3d_3">
   <g id="line2d_13">
    <path d="M 756.431419 190.788003 
L 759.634119 120.849216 
" style="fill: none; stroke: #000000; stroke-width: 0.8; stroke-linecap: square"/>
   </g>
   <g id="Line3DCollection_3">
    <path d="M 756.605078 186.99575 
L 666.64369 161.029224 
L 610.570322 207.700205 
" style="fill: none; stroke: #b0b0b0; stroke-width: 0.8"/>
    <path d="M 757.2309 173.329396 
L 666.491547 147.798495 
L 609.8962 193.701617 
" style="fill: none; stroke: #b0b0b0; stroke-width: 0.8"/>
    <path d="M 757.867748 159.422259 
L 666.336853 134.345866 
L 609.209744 179.446923 
" style="fill: none; stroke: #b0b0b0; stroke-width: 0.8"/>
    <path d="M 758.515916 145.267918 
L 666.179542 120.665705 
L 608.510614 164.929031 
" style="fill: none; stroke: #b0b0b0; stroke-width: 0.8"/>
    <path d="M 759.175709 130.859723 
L 666.019548 106.752192 
L 607.798455 150.140581 
" style="fill: none; stroke: #b0b0b0; stroke-width: 0.8"/>
   </g>
   <g id="xtick_11">
    <g id="line2d_14">
     <path d="M 755.849968 186.777794 
L 758.117097 187.43218 
" style="fill: none; stroke: #000000; stroke-width: 0.8; stroke-linecap: square"/>
    </g>
    <g id="text_11">
     <!-- 0.25 -->
     <g transform="translate(763.732925 192.005235)scale(0.1 -0.1)">
      <use xlink:href="#DejaVuSans-30"/>
      <use xlink:href="#DejaVuSans-2e" x="63.623047"/>
      <use xlink:href="#DejaVuSans-32" x="95.410156"/>
      <use xlink:href="#DejaVuSans-35" x="159.033203"/>
     </g>
    </g>
   </g>
   <g id="xtick_12">
    <g id="line2d_15">
     <path d="M 756.468948 173.11501 
L 758.756635 173.758685 
" style="fill: none; stroke: #000000; stroke-width: 0.8; stroke-linecap: square"/>
    </g>
    <g id="text_12">
     <!-- 0.50 -->
     <g transform="translate(764.514473 178.381369)scale(0.1 -0.1)">
      <use xlink:href="#DejaVuSans-30"/>
      <use xlink:href="#DejaVuSans-2e" x="63.623047"/>
      <use xlink:href="#DejaVuSans-35" x="95.410156"/>
      <use xlink:href="#DejaVuSans-30" x="159.033203"/>
     </g>
    </g>
   </g>
   <g id="xtick_13">
    <g id="line2d_16">
     <path d="M 757.098829 159.211601 
L 759.40745 159.844086 
" style="fill: none; stroke: #000000; stroke-width: 0.8; stroke-linecap: square"/>
    </g>
    <g id="text_13">
     <!-- 0.75 -->
     <g transform="translate(765.309724 164.518618)scale(0.1 -0.1)">
      <use xlink:href="#DejaVuSans-30"/>
      <use xlink:href="#DejaVuSans-2e" x="63.623047"/>
      <use xlink:href="#DejaVuSans-37" x="95.410156"/>
      <use xlink:href="#DejaVuSans-35" x="159.033203"/>
     </g>
    </g>
   </g>
   <g id="xtick_14">
    <g id="line2d_17">
     <path d="M 757.739903 145.061156 
L 760.069843 145.681948 
" style="fill: none; stroke: #000000; stroke-width: 0.8; stroke-linecap: square"/>
    </g>
    <g id="text_14">
     <!-- 1.00 -->
     <g transform="translate(766.119043 150.410646)scale(0.1 -0.1)">
      <use xlink:href="#DejaVuSans-31"/>
      <use xlink:href="#DejaVuSans-2e" x="63.623047"/>
      <use xlink:href="#DejaVuSans-30" x="95.410156"/>
      <use xlink:href="#DejaVuSans-30" x="159.033203"/>
     </g>
    </g>
   </g>
   <g id="xtick_15">
    <g id="line2d_18">
     <path d="M 758.392469 130.657031 
L 760.744125 131.265608 
" style="fill: none; stroke: #000000; stroke-width: 0.8; stroke-linecap: square"/>
    </g>
    <g id="text_15">
     <!-- 1.25 -->
     <g transform="translate(766.942806 136.050887)scale(0.1 -0.1)">
      <use xlink:href="#DejaVuSans-31"/>
      <use xlink:href="#DejaVuSans-2e" x="63.623047"/>
      <use xlink:href="#DejaVuSans-32" x="95.410156"/>
      <use xlink:href="#DejaVuSans-35" x="159.033203"/>
     </g>
    </g>
   </g>
  </g>
  <g id="axes_1">
   <g id="line2d_19">
    <path d="M 647.140626 186.282432 
L 650.425659 183.860624 
L 654.235754 181.292958 
L 657.153372 179.586463 
L 659.423797 178.51311 
L 661.480796 177.782845 
L 673.976518 174.081559 
L 677.01137 173.538254 
L 681.008422 173.080056 
L 689.300015 172.397945 
L 692.716103 172.314682 
L 695.757428 172.468326 
L 700.899562 172.999796 
L 706.792513 173.783085 
L 710.143486 174.448971 
L 712.919462 175.225918 
L 715.826946 176.278703 
L 720.054889 178.079023 
L 722.803533 179.467122 
L 724.869866 180.761826 
L 726.560875 182.08339 
L 728.007996 183.489545 
L 729.294711 185.046788 
L 730.391072 186.732499 
L 731.168938 188.342336 
L 731.618869 189.78464 
L 731.812184 191.158916 
L 731.779976 192.555798 
L 731.530089 193.959337 
L 731.037108 195.447833 
L 730.325672 196.901042 
L 729.399092 198.311163 
L 728.161 199.77463 
L 726.645244 201.208565 
L 724.854405 202.602835 
L 722.684904 203.99986 
L 720.269064 205.280764 
L 717.621363 206.435327 
L 714.570363 207.524327 
L 711.078821 208.534079 
L 707.124471 209.439282 
L 703.151121 210.121103 
L 699.251775 210.568124 
L 695.260244 210.806269 
L 690.963985 210.843781 
L 686.1298 210.657759 
L 681.244709 210.244874 
L 676.849292 209.656582 
L 672.773087 208.887212 
L 668.817489 207.914823 
L 664.789554 206.691239 
L 660.928358 205.290737 
L 657.258283 203.730859 
L 653.994365 202.109326 
L 651.143561 200.444432 
L 648.69695 198.758755 
L 646.48715 196.974339 
L 644.392419 194.998815 
L 642.559713 192.962307 
L 641.083774 190.999537 
L 639.932508 189.121243 
L 639.01971 187.206228 
L 638.392347 185.387501 
L 637.985314 183.544365 
L 637.79389 181.689185 
L 637.812931 179.707918 
L 638.051719 177.750911 
L 638.506414 175.827641 
L 639.179798 173.940654 
L 640.07723 172.088798 
L 641.202035 170.271037 
L 642.64917 168.372624 
L 644.337709 166.526266 
L 646.368292 164.641396 
L 648.612641 162.85718 
L 651.199804 161.091642 
L 653.994888 159.455954 
L 657.167941 157.866101 
L 660.561953 156.413428 
L 664.347702 155.038426 
L 668.304306 153.839179 
L 672.378005 152.835616 
L 676.529022 152.035017 
L 680.946517 151.407399 
L 685.61991 150.972218 
L 690.310097 150.758538 
L 694.965425 150.772771 
L 699.316673 151.009695 
L 703.529907 151.46429 
L 707.575715 152.123932 
L 711.433051 152.970309 
L 715.075635 153.987737 
L 718.308332 155.108708 
L 721.126079 156.309534 
L 723.538941 157.565768 
L 725.685798 158.927504 
L 727.558854 160.380153 
L 729.071625 161.820638 
L 730.327777 163.314348 
L 731.263425 164.759463 
L 731.909301 166.143194 
L 732.318873 167.550863 
L 732.481034 168.881291 
L 732.428954 170.22098 
L 732.164435 171.561499 
L 731.649792 172.988002 
L 730.901221 174.393048 
L 729.922587 175.76612 
L 728.626379 177.185888 
L 727.068508 178.551762 
L 725.249373 179.857967 
L 723.037871 181.172066 
L 720.401184 182.467086 
L 717.486312 183.64578 
L 714.320557 184.690628 
L 710.733374 185.632275 
L 706.916068 186.397409 
L 702.890215 186.980917 
L 698.461663 187.394201 
L 693.887356 187.593215 
L 689.224865 187.567072 
L 684.76464 187.32562 
L 680.315668 186.870801 
L 675.910219 186.207134 
L 671.352794 185.292954 
L 667.137126 184.228508 
L 663.074918 182.979122 
L 659.406298 181.629326 
L 655.94604 180.123626 
L 652.721614 178.47136 
L 649.91237 176.788698 
L 647.347379 175.001834 
L 645.041045 173.124496 
L 643.119635 171.286258 
L 641.45144 169.388514 
L 640.125858 167.563135 
L 639.03676 165.700353 
L 638.187492 163.807859 
L 637.579123 161.894199 
L 637.210871 159.968753 
L 637.080651 158.041164 
L 637.186939 156.120765 
L 637.52775 154.216157 
L 638.101046 152.335012 
L 638.9041 150.48423 
L 639.932875 148.670324 
L 641.272292 146.78355 
L 642.85159 144.954713 
L 644.777128 143.085417 
L 646.939402 141.302583 
L 649.46591 139.519364 
L 652.218093 137.850791 
L 655.351483 136.218752 
L 658.703472 134.72333 
L 662.447022 133.302883 
L 666.380591 132.050641 
L 670.459981 130.980986 
L 674.851535 130.065774 
L 679.317493 129.364024 
L 684.048247 128.849412 
L 688.804132 128.551267 
L 693.542984 128.468672 
L 698.204014 128.612275 
L 702.520603 128.968498 
L 706.6733 129.530489 
L 710.826635 130.319227 
L 714.752839 131.292119 
L 718.247581 132.384001 
L 721.29824 133.571636 
L 723.910326 134.830789 
L 726.112207 136.128517 
L 728.041609 137.511732 
L 729.690783 138.964847 
L 730.977243 140.391587 
L 731.929062 141.778142 
L 732.577393 143.112985 
L 732.983612 144.473145 
L 733.150836 145.844715 
L 733.081674 147.217035 
L 732.77614 148.582929 
L 732.231854 149.93773 
L 731.445067 151.27727 
L 730.412504 152.595577 
L 729.040071 153.967336 
L 727.395835 155.286153 
L 725.371798 156.60607 
L 723.081279 157.828007 
L 720.371923 159.016782 
L 717.197011 160.162718 
L 713.523177 161.241897 
L 709.763765 162.111279 
L 706.017122 162.750089 
L 701.899676 163.216779 
L 697.15348 163.523332 
L 691.999159 163.626059 
L 687.225719 163.504553 
L 682.687685 163.168889 
L 678.43343 162.638144 
L 673.777141 161.822332 
L 668.506527 160.660225 
L 664.056963 159.465764 
L 660.461624 158.279235 
L 657.285572 157.000563 
L 654.133143 155.490822 
L 650.147735 153.310552 
L 646.611266 151.156088 
L 644.772444 149.78431 
L 643.179777 148.307425 
L 641.605566 146.513272 
L 639.524775 143.747302 
L 637.806972 141.180368 
L 637.087359 139.750871 
L 636.689545 138.493143 
L 636.512705 137.157249 
L 636.546466 135.496651 
L 637.039555 129.479198 
L 637.539834 128.219823 
L 638.426998 126.66599 
L 639.825786 124.724315 
L 641.832851 122.353284 
L 642.67828 121.447511 
L 642.67828 121.447511 
" clip-path="url(#pb8609c71dc)" style="fill: none; stroke: #1f77b4; stroke-width: 1.5; stroke-linecap: square"/>
   </g>
  </g>
  <g id="axes_2">
   <g id="patch_6">
    <path d="M 166.5 345.72096 
L 1198.8 345.72096 
L 1198.8 268.73856 
L 166.5 268.73856 
z
" style="fill: #ffffff"/>
   </g>
   <g id="matplotlib.axis_1">
    <g id="xtick_16">
     <g id="line2d_20">
      <defs>
       <path id="m1c8910451a" d="M 0 0 
L 0 3.5 
" style="stroke: #000000; stroke-width: 0.8"/>
      </defs>
      <g>
       <use xlink:href="#m1c8910451a" x="213.422727" y="345.72096" style="stroke: #000000; stroke-width: 0.8"/>
      </g>
     </g>
     <g id="text_16">
      <!-- 0 -->
      <g transform="translate(210.241477 360.319397)scale(0.1 -0.1)">
       <use xlink:href="#DejaVuSans-30"/>
      </g>
     </g>
    </g>
    <g id="xtick_17">
     <g id="line2d_21">
      <g>
       <use xlink:href="#m1c8910451a" x="330.758879" y="345.72096" style="stroke: #000000; stroke-width: 0.8"/>
      </g>
     </g>
     <g id="text_17">
      <!-- 5 -->
      <g transform="translate(327.577629 360.319397)scale(0.1 -0.1)">
       <use xlink:href="#DejaVuSans-35"/>
      </g>
     </g>
    </g>
    <g id="xtick_18">
     <g id="line2d_22">
      <g>
       <use xlink:href="#m1c8910451a" x="448.095032" y="345.72096" style="stroke: #000000; stroke-width: 0.8"/>
      </g>
     </g>
     <g id="text_18">
      <!-- 10 -->
      <g transform="translate(441.732532 360.319397)scale(0.1 -0.1)">
       <use xlink:href="#DejaVuSans-31"/>
       <use xlink:href="#DejaVuSans-30" x="63.623047"/>
      </g>
     </g>
    </g>
    <g id="xtick_19">
     <g id="line2d_23">
      <g>
       <use xlink:href="#m1c8910451a" x="565.431184" y="345.72096" style="stroke: #000000; stroke-width: 0.8"/>
      </g>
     </g>
     <g id="text_19">
      <!-- 15 -->
      <g transform="translate(559.068684 360.319397)scale(0.1 -0.1)">
       <use xlink:href="#DejaVuSans-31"/>
       <use xlink:href="#DejaVuSans-35" x="63.623047"/>
      </g>
     </g>
    </g>
    <g id="xtick_20">
     <g id="line2d_24">
      <g>
       <use xlink:href="#m1c8910451a" x="682.767336" y="345.72096" style="stroke: #000000; stroke-width: 0.8"/>
      </g>
     </g>
     <g id="text_20">
      <!-- 20 -->
      <g transform="translate(676.404836 360.319397)scale(0.1 -0.1)">
       <use xlink:href="#DejaVuSans-32"/>
       <use xlink:href="#DejaVuSans-30" x="63.623047"/>
      </g>
     </g>
    </g>
    <g id="xtick_21">
     <g id="line2d_25">
      <g>
       <use xlink:href="#m1c8910451a" x="800.103488" y="345.72096" style="stroke: #000000; stroke-width: 0.8"/>
      </g>
     </g>
     <g id="text_21">
      <!-- 25 -->
      <g transform="translate(793.740988 360.319397)scale(0.1 -0.1)">
       <use xlink:href="#DejaVuSans-32"/>
       <use xlink:href="#DejaVuSans-35" x="63.623047"/>
      </g>
     </g>
    </g>
    <g id="xtick_22">
     <g id="line2d_26">
      <g>
       <use xlink:href="#m1c8910451a" x="917.439641" y="345.72096" style="stroke: #000000; stroke-width: 0.8"/>
      </g>
     </g>
     <g id="text_22">
      <!-- 30 -->
      <g transform="translate(911.077141 360.319397)scale(0.1 -0.1)">
       <defs>
        <path id="DejaVuSans-33" d="M 2597 2516 
Q 3050 2419 3304 2112 
Q 3559 1806 3559 1356 
Q 3559 666 3084 287 
Q 2609 -91 1734 -91 
Q 1441 -91 1130 -33 
Q 819 25 488 141 
L 488 750 
Q 750 597 1062 519 
Q 1375 441 1716 441 
Q 2309 441 2620 675 
Q 2931 909 2931 1356 
Q 2931 1769 2642 2001 
Q 2353 2234 1838 2234 
L 1294 2234 
L 1294 2753 
L 1863 2753 
Q 2328 2753 2575 2939 
Q 2822 3125 2822 3475 
Q 2822 3834 2567 4026 
Q 2313 4219 1838 4219 
Q 1578 4219 1281 4162 
Q 984 4106 628 3988 
L 628 4550 
Q 988 4650 1302 4700 
Q 1616 4750 1894 4750 
Q 2613 4750 3031 4423 
Q 3450 4097 3450 3541 
Q 3450 3153 3228 2886 
Q 3006 2619 2597 2516 
z
" transform="scale(0.015625)"/>
       </defs>
       <use xlink:href="#DejaVuSans-33"/>
       <use xlink:href="#DejaVuSans-30" x="63.623047"/>
      </g>
     </g>
    </g>
    <g id="xtick_23">
     <g id="line2d_27">
      <g>
       <use xlink:href="#m1c8910451a" x="1034.775793" y="345.72096" style="stroke: #000000; stroke-width: 0.8"/>
      </g>
     </g>
     <g id="text_23">
      <!-- 35 -->
      <g transform="translate(1028.413293 360.319397)scale(0.1 -0.1)">
       <use xlink:href="#DejaVuSans-33"/>
       <use xlink:href="#DejaVuSans-35" x="63.623047"/>
      </g>
     </g>
    </g>
    <g id="xtick_24">
     <g id="line2d_28">
      <g>
       <use xlink:href="#m1c8910451a" x="1152.111945" y="345.72096" style="stroke: #000000; stroke-width: 0.8"/>
      </g>
     </g>
     <g id="text_24">
      <!-- 40 -->
      <g transform="translate(1145.749445 360.319397)scale(0.1 -0.1)">
       <defs>
        <path id="DejaVuSans-34" d="M 2419 4116 
L 825 1625 
L 2419 1625 
L 2419 4116 
z
M 2253 4666 
L 3047 4666 
L 3047 1625 
L 3713 1625 
L 3713 1100 
L 3047 1100 
L 3047 0 
L 2419 0 
L 2419 1100 
L 313 1100 
L 313 1709 
L 2253 4666 
z
" transform="scale(0.015625)"/>
       </defs>
       <use xlink:href="#DejaVuSans-34"/>
       <use xlink:href="#DejaVuSans-30" x="63.623047"/>
      </g>
     </g>
    </g>
   </g>
   <g id="matplotlib.axis_2">
    <g id="ytick_1">
     <g id="line2d_29">
      <defs>
       <path id="m2aca55366e" d="M 0 0 
L -3.5 0 
" style="stroke: #000000; stroke-width: 0.8"/>
      </defs>
      <g>
       <use xlink:href="#m2aca55366e" x="166.5" y="342.22176" style="stroke: #000000; stroke-width: 0.8"/>
      </g>
     </g>
     <g id="text_25">
      <!-- 0.0 -->
      <g transform="translate(143.596875 346.020979)scale(0.1 -0.1)">
       <use xlink:href="#DejaVuSans-30"/>
       <use xlink:href="#DejaVuSans-2e" x="63.623047"/>
       <use xlink:href="#DejaVuSans-30" x="95.410156"/>
      </g>
     </g>
    </g>
    <g id="ytick_2">
     <g id="line2d_30">
      <g>
       <use xlink:href="#m2aca55366e" x="166.5" y="298.514277" style="stroke: #000000; stroke-width: 0.8"/>
      </g>
     </g>
     <g id="text_26">
      <!-- 0.2 -->
      <g transform="translate(143.596875 302.313496)scale(0.1 -0.1)">
       <use xlink:href="#DejaVuSans-30"/>
       <use xlink:href="#DejaVuSans-2e" x="63.623047"/>
       <use xlink:href="#DejaVuSans-32" x="95.410156"/>
      </g>
     </g>
    </g>
    <g id="text_27">
     <!-- velocity [m/s] -->
     <g transform="translate(137.517188 341.421947)rotate(-90)scale(0.1 -0.1)">
      <defs>
       <path id="DejaVuSans-76" d="M 191 3500 
L 800 3500 
L 1894 563 
L 2988 3500 
L 3597 3500 
L 2284 0 
L 1503 0 
L 191 3500 
z
" transform="scale(0.015625)"/>
       <path id="DejaVuSans-65" d="M 3597 1894 
L 3597 1613 
L 953 1613 
Q 991 1019 1311 708 
Q 1631 397 2203 397 
Q 2534 397 2845 478 
Q 3156 559 3463 722 
L 3463 178 
Q 3153 47 2828 -22 
Q 2503 -91 2169 -91 
Q 1331 -91 842 396 
Q 353 884 353 1716 
Q 353 2575 817 3079 
Q 1281 3584 2069 3584 
Q 2775 3584 3186 3129 
Q 3597 2675 3597 1894 
z
M 3022 2063 
Q 3016 2534 2758 2815 
Q 2500 3097 2075 3097 
Q 1594 3097 1305 2825 
Q 1016 2553 972 2059 
L 3022 2063 
z
" transform="scale(0.015625)"/>
       <path id="DejaVuSans-6c" d="M 603 4863 
L 1178 4863 
L 1178 0 
L 603 0 
L 603 4863 
z
" transform="scale(0.015625)"/>
       <path id="DejaVuSans-6f" d="M 1959 3097 
Q 1497 3097 1228 2736 
Q 959 2375 959 1747 
Q 959 1119 1226 758 
Q 1494 397 1959 397 
Q 2419 397 2687 759 
Q 2956 1122 2956 1747 
Q 2956 2369 2687 2733 
Q 2419 3097 1959 3097 
z
M 1959 3584 
Q 2709 3584 3137 3096 
Q 3566 2609 3566 1747 
Q 3566 888 3137 398 
Q 2709 -91 1959 -91 
Q 1206 -91 779 398 
Q 353 888 353 1747 
Q 353 2609 779 3096 
Q 1206 3584 1959 3584 
z
" transform="scale(0.015625)"/>
       <path id="DejaVuSans-63" d="M 3122 3366 
L 3122 2828 
Q 2878 2963 2633 3030 
Q 2388 3097 2138 3097 
Q 1578 3097 1268 2742 
Q 959 2388 959 1747 
Q 959 1106 1268 751 
Q 1578 397 2138 397 
Q 2388 397 2633 464 
Q 2878 531 3122 666 
L 3122 134 
Q 2881 22 2623 -34 
Q 2366 -91 2075 -91 
Q 1284 -91 818 406 
Q 353 903 353 1747 
Q 353 2603 823 3093 
Q 1294 3584 2113 3584 
Q 2378 3584 2631 3529 
Q 2884 3475 3122 3366 
z
" transform="scale(0.015625)"/>
       <path id="DejaVuSans-69" d="M 603 3500 
L 1178 3500 
L 1178 0 
L 603 0 
L 603 3500 
z
M 603 4863 
L 1178 4863 
L 1178 4134 
L 603 4134 
L 603 4863 
z
" transform="scale(0.015625)"/>
       <path id="DejaVuSans-74" d="M 1172 4494 
L 1172 3500 
L 2356 3500 
L 2356 3053 
L 1172 3053 
L 1172 1153 
Q 1172 725 1289 603 
Q 1406 481 1766 481 
L 2356 481 
L 2356 0 
L 1766 0 
Q 1100 0 847 248 
Q 594 497 594 1153 
L 594 3053 
L 172 3053 
L 172 3500 
L 594 3500 
L 594 4494 
L 1172 4494 
z
" transform="scale(0.015625)"/>
       <path id="DejaVuSans-79" d="M 2059 -325 
Q 1816 -950 1584 -1140 
Q 1353 -1331 966 -1331 
L 506 -1331 
L 506 -850 
L 844 -850 
Q 1081 -850 1212 -737 
Q 1344 -625 1503 -206 
L 1606 56 
L 191 3500 
L 800 3500 
L 1894 763 
L 2988 3500 
L 3597 3500 
L 2059 -325 
z
" transform="scale(0.015625)"/>
       <path id="DejaVuSans-20" transform="scale(0.015625)"/>
       <path id="DejaVuSans-5b" d="M 550 4863 
L 1875 4863 
L 1875 4416 
L 1125 4416 
L 1125 -397 
L 1875 -397 
L 1875 -844 
L 550 -844 
L 550 4863 
z
" transform="scale(0.015625)"/>
       <path id="DejaVuSans-6d" d="M 3328 2828 
Q 3544 3216 3844 3400 
Q 4144 3584 4550 3584 
Q 5097 3584 5394 3201 
Q 5691 2819 5691 2113 
L 5691 0 
L 5113 0 
L 5113 2094 
Q 5113 2597 4934 2840 
Q 4756 3084 4391 3084 
Q 3944 3084 3684 2787 
Q 3425 2491 3425 1978 
L 3425 0 
L 2847 0 
L 2847 2094 
Q 2847 2600 2669 2842 
Q 2491 3084 2119 3084 
Q 1678 3084 1418 2786 
Q 1159 2488 1159 1978 
L 1159 0 
L 581 0 
L 581 3500 
L 1159 3500 
L 1159 2956 
Q 1356 3278 1631 3431 
Q 1906 3584 2284 3584 
Q 2666 3584 2933 3390 
Q 3200 3197 3328 2828 
z
" transform="scale(0.015625)"/>
       <path id="DejaVuSans-2f" d="M 1625 4666 
L 2156 4666 
L 531 -594 
L 0 -594 
L 1625 4666 
z
" transform="scale(0.015625)"/>
       <path id="DejaVuSans-73" d="M 2834 3397 
L 2834 2853 
Q 2591 2978 2328 3040 
Q 2066 3103 1784 3103 
Q 1356 3103 1142 2972 
Q 928 2841 928 2578 
Q 928 2378 1081 2264 
Q 1234 2150 1697 2047 
L 1894 2003 
Q 2506 1872 2764 1633 
Q 3022 1394 3022 966 
Q 3022 478 2636 193 
Q 2250 -91 1575 -91 
Q 1294 -91 989 -36 
Q 684 19 347 128 
L 347 722 
Q 666 556 975 473 
Q 1284 391 1588 391 
Q 1994 391 2212 530 
Q 2431 669 2431 922 
Q 2431 1156 2273 1281 
Q 2116 1406 1581 1522 
L 1381 1569 
Q 847 1681 609 1914 
Q 372 2147 372 2553 
Q 372 3047 722 3315 
Q 1072 3584 1716 3584 
Q 2034 3584 2315 3537 
Q 2597 3491 2834 3397 
z
" transform="scale(0.015625)"/>
       <path id="DejaVuSans-5d" d="M 1947 4863 
L 1947 -844 
L 622 -844 
L 622 -397 
L 1369 -397 
L 1369 4416 
L 622 4416 
L 622 4863 
L 1947 4863 
z
" transform="scale(0.015625)"/>
      </defs>
      <use xlink:href="#DejaVuSans-76"/>
      <use xlink:href="#DejaVuSans-65" x="59.179688"/>
      <use xlink:href="#DejaVuSans-6c" x="120.703125"/>
      <use xlink:href="#DejaVuSans-6f" x="148.486328"/>
      <use xlink:href="#DejaVuSans-63" x="209.667969"/>
      <use xlink:href="#DejaVuSans-69" x="264.648438"/>
      <use xlink:href="#DejaVuSans-74" x="292.431641"/>
      <use xlink:href="#DejaVuSans-79" x="331.640625"/>
      <use xlink:href="#DejaVuSans-20" x="390.820312"/>
      <use xlink:href="#DejaVuSans-5b" x="422.607422"/>
      <use xlink:href="#DejaVuSans-6d" x="461.621094"/>
      <use xlink:href="#DejaVuSans-2f" x="559.033203"/>
      <use xlink:href="#DejaVuSans-73" x="592.724609"/>
      <use xlink:href="#DejaVuSans-5d" x="644.824219"/>
     </g>
    </g>
   </g>
   <g id="line2d_31">
    <path d="M 213.422727 342.22176 
L 213.6574 342.138821 
L 214.126744 341.499024 
L 214.596089 340.279871 
L 215.300106 337.501504 
L 216.004123 333.76765 
L 216.942812 327.649736 
L 218.585518 315.063137 
L 221.401586 293.195937 
L 222.574947 285.613684 
L 223.513636 280.628375 
L 224.452326 276.750553 
L 225.156342 274.617655 
L 225.860359 273.165119 
L 226.329704 272.573409 
L 226.799049 272.27738 
L 227.268393 272.268696 
L 227.737738 272.536019 
L 228.207082 273.065138 
L 228.911099 274.311921 
L 229.615116 276.041222 
L 230.553805 278.958949 
L 231.961839 284.202219 
L 234.543235 294.048851 
L 235.716596 297.55833 
L 236.655285 299.585166 
L 237.359302 300.574926 
L 237.828647 300.966268 
L 238.297992 301.137503 
L 238.767336 301.086815 
L 239.236681 300.814592 
L 239.706025 300.323505 
L 240.410042 299.189181 
L 241.114059 297.609157 
L 242.052748 294.917475 
L 245.103488 285.430232 
L 245.807505 284.266756 
L 246.511522 283.620276 
L 246.980867 283.44108 
L 247.450211 283.437771 
L 248.154228 283.714477 
L 248.858245 284.264219 
L 249.796934 285.300777 
L 251.439641 287.529074 
L 253.317019 290.008342 
L 254.490381 291.245567 
L 255.663742 292.147788 
L 256.602431 292.615618 
L 257.541121 292.866493 
L 258.47981 292.918917 
L 259.653171 292.741528 
L 260.826533 292.341825 
L 262.469239 291.512623 
L 266.928013 289.020642 
L 268.101374 288.675766 
L 269.274736 288.580531 
L 270.448097 288.750569 
L 271.621459 289.154286 
L 276.080233 290.98004 
L 277.253594 291.037564 
L 278.8963 290.877605 
L 285.467125 289.990634 
L 287.813848 289.995795 
L 290.864588 290.259271 
L 294.619345 290.573756 
L 296.966068 290.533868 
L 300.016808 290.223622 
L 303.067548 289.966431 
L 305.179598 290.008659 
L 314.331818 290.582298 
L 317.851903 290.403798 
L 325.126744 289.951568 
L 328.177484 290.039478 
L 331.697569 290.383138 
L 336.860359 290.898182 
L 338.97241 290.871732 
L 341.319133 290.598003 
L 348.12463 289.610547 
L 350.471353 289.59718 
L 352.818076 289.824353 
L 355.868816 290.378114 
L 359.858245 291.103067 
L 361.970296 291.251899 
L 363.847674 291.15439 
L 365.725053 290.827331 
L 368.306448 290.119079 
L 370.418499 289.599201 
L 372.061205 289.4174 
L 373.938584 289.430491 
L 376.285307 289.684116 
L 385.437526 290.961189 
L 388.018922 290.955001 
L 390.834989 290.720483 
L 400.456554 289.677586 
L 402.803277 289.810421 
L 407.027378 290.354209 
L 410.547463 290.705911 
L 413.363531 290.773276 
L 416.648943 290.616737 
L 426.035835 289.985582 
L 429.55592 290.101666 
L 436.830761 290.439889 
L 442.932241 290.404689 
L 453.02315 290.348994 
L 460.063319 290.287529 
L 468.980867 290.081559 
L 473.674313 290.313942 
L 481.418499 290.718727 
L 484.938584 290.656714 
L 488.69334 290.358667 
L 495.73351 289.721125 
L 498.314905 289.783294 
L 501.834989 290.117315 
L 508.640486 290.821268 
L 511.691226 290.88548 
L 514.741966 290.732482 
L 518.966068 290.267334 
L 523.894186 289.761525 
L 526.710254 289.714097 
L 529.526321 289.896359 
L 540.321247 290.856452 
L 543.60666 290.773331 
L 547.830761 290.413657 
L 553.932241 289.890787 
L 557.217653 289.847568 
L 560.97241 290.041986 
L 570.12463 290.604025 
L 574.583404 290.578197 
L 591.010465 290.197019 
L 602.74408 290.368594 
L 621.517865 290.347315 
L 631.374101 290.291787 
L 640.760994 290.291308 
L 653.66797 290.386028 
L 667.278964 290.16817 
L 675.02315 290.422896 
L 680.889958 290.511088 
L 686.287421 290.344647 
L 694.031607 290.12847 
L 699.42907 290.227563 
L 710.458668 290.516949 
L 715.856131 290.338619 
L 723.600317 290.108809 
L 729.232452 290.18973 
L 741.904757 290.471656 
L 770.300106 290.287719 
L 804.32759 290.256509 
L 848.211311 290.391806 
L 855.486152 290.482562 
L 861.822304 290.318416 
L 870.739852 290.070985 
L 875.433298 290.220825 
L 884.350846 290.538301 
L 889.748309 290.455801 
L 902.185941 290.143115 
L 922.133087 290.343044 
L 947.94704 290.310092 
L 957.568605 290.415334 
L 962.731395 290.183832 
L 966.486152 290.08562 
L 970.475581 290.234725 
L 978.689112 290.598482 
L 982.678541 290.496944 
L 988.076004 290.098854 
L 992.534778 289.849818 
L 995.350846 289.911819 
L 997.932241 290.191141 
L 1003.799049 290.885102 
L 1006.380444 290.920518 
L 1008.961839 290.734342 
L 1012.716596 290.206264 
L 1016.471353 289.725905 
L 1018.818076 289.63722 
L 1021.164799 289.784697 
L 1023.746195 290.188258 
L 1027.500951 290.805193 
L 1029.613002 290.873361 
L 1032.194397 290.718641 
L 1041.111945 289.964061 
L 1044.397357 290.030317 
L 1049.325476 290.399786 
L 1053.549577 290.631751 
L 1056.834989 290.580882 
L 1061.293763 290.241333 
L 1064.813848 290.088759 
L 1068.568605 290.173372 
L 1074.20074 290.315855 
L 1079.128858 290.12714 
L 1082.179598 290.129538 
L 1084.760994 290.371196 
L 1090.627801 291.103945 
L 1092.035835 290.945165 
L 1093.678541 290.530593 
L 1099.310677 288.840132 
L 1100.71871 288.829061 
L 1101.892072 289.027122 
L 1103.300106 289.500049 
L 1104.942812 290.303373 
L 1109.166913 292.526089 
L 1110.340275 292.854316 
L 1111.278964 292.928261 
L 1112.217653 292.794152 
L 1113.156342 292.419299 
L 1114.095032 291.780284 
L 1115.033721 290.87015 
L 1116.207082 289.383184 
L 1119.961839 284.189348 
L 1120.431184 283.914395 
L 1120.900529 283.851693 
L 1121.369873 284.020898 
L 1121.839218 284.410516 
L 1122.543235 285.351776 
L 1123.481924 287.125949 
L 1124.889958 290.428019 
L 1127.002008 295.35827 
L 1127.940698 297.063173 
L 1128.644715 298.020395 
L 1129.348732 298.653199 
L 1130.052748 298.928236 
L 1130.522093 298.900758 
L 1130.991438 298.699074 
L 1131.695455 298.065522 
L 1132.399471 297.038014 
L 1133.103488 295.633146 
L 1134.042178 293.230718 
L 1135.215539 289.555485 
L 1138.735624 277.800253 
L 1139.674313 275.664187 
L 1140.37833 274.65562 
L 1140.847674 274.323742 
L 1141.317019 274.297194 
L 1141.786364 274.601291 
L 1142.255708 275.258169 
L 1142.725053 276.286231 
L 1143.42907 278.553774 
L 1144.133087 281.71314 
L 1145.071776 287.301751 
L 1146.010465 294.358116 
L 1147.183827 304.862206 
L 1150.469239 335.600816 
L 1151.173256 339.845913 
L 1151.6426 341.588181 
L 1151.877273 342.056208 
L 1151.877273 342.056208 
" clip-path="url(#p1d06cb2912)" style="fill: none; stroke: #1f77b4; stroke-width: 1.5; stroke-linecap: square"/>
   </g>
   <g id="patch_7">
    <path d="M 166.5 345.72096 
L 166.5 268.73856 
" style="fill: none; stroke: #000000; stroke-width: 0.8; stroke-linejoin: miter; stroke-linecap: square"/>
   </g>
   <g id="patch_8">
    <path d="M 1198.8 345.72096 
L 1198.8 268.73856 
" style="fill: none; stroke: #000000; stroke-width: 0.8; stroke-linejoin: miter; stroke-linecap: square"/>
   </g>
   <g id="patch_9">
    <path d="M 166.5 345.72096 
L 1198.8 345.72096 
" style="fill: none; stroke: #000000; stroke-width: 0.8; stroke-linejoin: miter; stroke-linecap: square"/>
   </g>
   <g id="patch_10">
    <path d="M 166.5 268.73856 
L 1198.8 268.73856 
" style="fill: none; stroke: #000000; stroke-width: 0.8; stroke-linejoin: miter; stroke-linecap: square"/>
   </g>
  </g>
  <g id="axes_3">
   <g id="patch_11">
    <path d="M 166.5 438.09984 
L 1198.8 438.09984 
L 1198.8 361.11744 
L 166.5 361.11744 
z
" style="fill: #ffffff"/>
   </g>
   <g id="matplotlib.axis_3">
    <g id="xtick_25">
     <g id="line2d_32">
      <g>
       <use xlink:href="#m1c8910451a" x="213.422727" y="438.09984" style="stroke: #000000; stroke-width: 0.8"/>
      </g>
     </g>
     <g id="text_28">
      <!-- 0 -->
      <g transform="translate(210.241477 452.698278)scale(0.1 -0.1)">
       <use xlink:href="#DejaVuSans-30"/>
      </g>
     </g>
    </g>
    <g id="xtick_26">
     <g id="line2d_33">
      <g>
       <use xlink:href="#m1c8910451a" x="330.758879" y="438.09984" style="stroke: #000000; stroke-width: 0.8"/>
      </g>
     </g>
     <g id="text_29">
      <!-- 5 -->
      <g transform="translate(327.577629 452.698278)scale(0.1 -0.1)">
       <use xlink:href="#DejaVuSans-35"/>
      </g>
     </g>
    </g>
    <g id="xtick_27">
     <g id="line2d_34">
      <g>
       <use xlink:href="#m1c8910451a" x="448.095032" y="438.09984" style="stroke: #000000; stroke-width: 0.8"/>
      </g>
     </g>
     <g id="text_30">
      <!-- 10 -->
      <g transform="translate(441.732532 452.698278)scale(0.1 -0.1)">
       <use xlink:href="#DejaVuSans-31"/>
       <use xlink:href="#DejaVuSans-30" x="63.623047"/>
      </g>
     </g>
    </g>
    <g id="xtick_28">
     <g id="line2d_35">
      <g>
       <use xlink:href="#m1c8910451a" x="565.431184" y="438.09984" style="stroke: #000000; stroke-width: 0.8"/>
      </g>
     </g>
     <g id="text_31">
      <!-- 15 -->
      <g transform="translate(559.068684 452.698278)scale(0.1 -0.1)">
       <use xlink:href="#DejaVuSans-31"/>
       <use xlink:href="#DejaVuSans-35" x="63.623047"/>
      </g>
     </g>
    </g>
    <g id="xtick_29">
     <g id="line2d_36">
      <g>
       <use xlink:href="#m1c8910451a" x="682.767336" y="438.09984" style="stroke: #000000; stroke-width: 0.8"/>
      </g>
     </g>
     <g id="text_32">
      <!-- 20 -->
      <g transform="translate(676.404836 452.698278)scale(0.1 -0.1)">
       <use xlink:href="#DejaVuSans-32"/>
       <use xlink:href="#DejaVuSans-30" x="63.623047"/>
      </g>
     </g>
    </g>
    <g id="xtick_30">
     <g id="line2d_37">
      <g>
       <use xlink:href="#m1c8910451a" x="800.103488" y="438.09984" style="stroke: #000000; stroke-width: 0.8"/>
      </g>
     </g>
     <g id="text_33">
      <!-- 25 -->
      <g transform="translate(793.740988 452.698278)scale(0.1 -0.1)">
       <use xlink:href="#DejaVuSans-32"/>
       <use xlink:href="#DejaVuSans-35" x="63.623047"/>
      </g>
     </g>
    </g>
    <g id="xtick_31">
     <g id="line2d_38">
      <g>
       <use xlink:href="#m1c8910451a" x="917.439641" y="438.09984" style="stroke: #000000; stroke-width: 0.8"/>
      </g>
     </g>
     <g id="text_34">
      <!-- 30 -->
      <g transform="translate(911.077141 452.698278)scale(0.1 -0.1)">
       <use xlink:href="#DejaVuSans-33"/>
       <use xlink:href="#DejaVuSans-30" x="63.623047"/>
      </g>
     </g>
    </g>
    <g id="xtick_32">
     <g id="line2d_39">
      <g>
       <use xlink:href="#m1c8910451a" x="1034.775793" y="438.09984" style="stroke: #000000; stroke-width: 0.8"/>
      </g>
     </g>
     <g id="text_35">
      <!-- 35 -->
      <g transform="translate(1028.413293 452.698278)scale(0.1 -0.1)">
       <use xlink:href="#DejaVuSans-33"/>
       <use xlink:href="#DejaVuSans-35" x="63.623047"/>
      </g>
     </g>
    </g>
    <g id="xtick_33">
     <g id="line2d_40">
      <g>
       <use xlink:href="#m1c8910451a" x="1152.111945" y="438.09984" style="stroke: #000000; stroke-width: 0.8"/>
      </g>
     </g>
     <g id="text_36">
      <!-- 40 -->
      <g transform="translate(1145.749445 452.698278)scale(0.1 -0.1)">
       <use xlink:href="#DejaVuSans-34"/>
       <use xlink:href="#DejaVuSans-30" x="63.623047"/>
      </g>
     </g>
    </g>
   </g>
   <g id="matplotlib.axis_4">
    <g id="ytick_3">
     <g id="line2d_41">
      <g>
       <use xlink:href="#m2aca55366e" x="166.5" y="434.60064" style="stroke: #000000; stroke-width: 0.8"/>
      </g>
     </g>
     <g id="text_37">
      <!-- 0.0 -->
      <g transform="translate(143.596875 438.399859)scale(0.1 -0.1)">
       <use xlink:href="#DejaVuSans-30"/>
       <use xlink:href="#DejaVuSans-2e" x="63.623047"/>
       <use xlink:href="#DejaVuSans-30" x="95.410156"/>
      </g>
     </g>
    </g>
    <g id="ytick_4">
     <g id="line2d_42">
      <g>
       <use xlink:href="#m2aca55366e" x="166.5" y="402.058608" style="stroke: #000000; stroke-width: 0.8"/>
      </g>
     </g>
     <g id="text_38">
      <!-- 0.5 -->
      <g transform="translate(143.596875 405.857827)scale(0.1 -0.1)">
       <use xlink:href="#DejaVuSans-30"/>
       <use xlink:href="#DejaVuSans-2e" x="63.623047"/>
       <use xlink:href="#DejaVuSans-35" x="95.410156"/>
      </g>
     </g>
    </g>
    <g id="ytick_5">
     <g id="line2d_43">
      <g>
       <use xlink:href="#m2aca55366e" x="166.5" y="369.516576" style="stroke: #000000; stroke-width: 0.8"/>
      </g>
     </g>
     <g id="text_39">
      <!-- 1.0 -->
      <g transform="translate(143.596875 373.315795)scale(0.1 -0.1)">
       <use xlink:href="#DejaVuSans-31"/>
       <use xlink:href="#DejaVuSans-2e" x="63.623047"/>
       <use xlink:href="#DejaVuSans-30" x="95.410156"/>
      </g>
     </g>
    </g>
    <g id="text_40">
     <!-- acceleration [m/s^2] -->
     <g transform="translate(137.517188 452.431296)rotate(-90)scale(0.1 -0.1)">
      <defs>
       <path id="DejaVuSans-61" d="M 2194 1759 
Q 1497 1759 1228 1600 
Q 959 1441 959 1056 
Q 959 750 1161 570 
Q 1363 391 1709 391 
Q 2188 391 2477 730 
Q 2766 1069 2766 1631 
L 2766 1759 
L 2194 1759 
z
M 3341 1997 
L 3341 0 
L 2766 0 
L 2766 531 
Q 2569 213 2275 61 
Q 1981 -91 1556 -91 
Q 1019 -91 701 211 
Q 384 513 384 1019 
Q 384 1609 779 1909 
Q 1175 2209 1959 2209 
L 2766 2209 
L 2766 2266 
Q 2766 2663 2505 2880 
Q 2244 3097 1772 3097 
Q 1472 3097 1187 3025 
Q 903 2953 641 2809 
L 641 3341 
Q 956 3463 1253 3523 
Q 1550 3584 1831 3584 
Q 2591 3584 2966 3190 
Q 3341 2797 3341 1997 
z
" transform="scale(0.015625)"/>
       <path id="DejaVuSans-72" d="M 2631 2963 
Q 2534 3019 2420 3045 
Q 2306 3072 2169 3072 
Q 1681 3072 1420 2755 
Q 1159 2438 1159 1844 
L 1159 0 
L 581 0 
L 581 3500 
L 1159 3500 
L 1159 2956 
Q 1341 3275 1631 3429 
Q 1922 3584 2338 3584 
Q 2397 3584 2469 3576 
Q 2541 3569 2628 3553 
L 2631 2963 
z
" transform="scale(0.015625)"/>
       <path id="DejaVuSans-6e" d="M 3513 2113 
L 3513 0 
L 2938 0 
L 2938 2094 
Q 2938 2591 2744 2837 
Q 2550 3084 2163 3084 
Q 1697 3084 1428 2787 
Q 1159 2491 1159 1978 
L 1159 0 
L 581 0 
L 581 3500 
L 1159 3500 
L 1159 2956 
Q 1366 3272 1645 3428 
Q 1925 3584 2291 3584 
Q 2894 3584 3203 3211 
Q 3513 2838 3513 2113 
z
" transform="scale(0.015625)"/>
       <path id="DejaVuSans-5e" d="M 2988 4666 
L 4684 2925 
L 4056 2925 
L 2681 4159 
L 1306 2925 
L 678 2925 
L 2375 4666 
L 2988 4666 
z
" transform="scale(0.015625)"/>
      </defs>
      <use xlink:href="#DejaVuSans-61"/>
      <use xlink:href="#DejaVuSans-63" x="61.279297"/>
      <use xlink:href="#DejaVuSans-63" x="116.259766"/>
      <use xlink:href="#DejaVuSans-65" x="171.240234"/>
      <use xlink:href="#DejaVuSans-6c" x="232.763672"/>
      <use xlink:href="#DejaVuSans-65" x="260.546875"/>
      <use xlink:href="#DejaVuSans-72" x="322.070312"/>
      <use xlink:href="#DejaVuSans-61" x="363.183594"/>
      <use xlink:href="#DejaVuSans-74" x="424.462891"/>
      <use xlink:href="#DejaVuSans-69" x="463.671875"/>
      <use xlink:href="#DejaVuSans-6f" x="491.455078"/>
      <use xlink:href="#DejaVuSans-6e" x="552.636719"/>
      <use xlink:href="#DejaVuSans-20" x="616.015625"/>
      <use xlink:href="#DejaVuSans-5b" x="647.802734"/>
      <use xlink:href="#DejaVuSans-6d" x="686.816406"/>
      <use xlink:href="#DejaVuSans-2f" x="784.228516"/>
      <use xlink:href="#DejaVuSans-73" x="817.919922"/>
      <use xlink:href="#DejaVuSans-5e" x="870.019531"/>
      <use xlink:href="#DejaVuSans-32" x="953.808594"/>
      <use xlink:href="#DejaVuSans-5d" x="1017.431641"/>
     </g>
    </g>
   </g>
   <g id="line2d_44">
    <path d="M 213.422727 434.60064 
L 214.361416 416.407565 
L 215.300106 401.937288 
L 216.238795 391.077351 
L 216.942812 385.198463 
L 217.646829 381.15829 
L 218.116173 379.432349 
L 218.585518 378.438426 
L 218.82019 378.203899 
L 219.054863 378.137585 
L 219.289535 378.234244 
L 219.758879 378.894838 
L 220.228224 380.141106 
L 220.932241 383.006353 
L 221.636258 386.919508 
L 222.574947 393.465274 
L 223.982981 405.211558 
L 225.860359 421.165364 
L 226.329704 424.003032 
L 226.564376 424.912703 
L 226.799049 425.355579 
L 227.033721 425.285977 
L 227.268393 424.739048 
L 227.737738 422.621996 
L 229.145772 413.844417 
L 230.084461 408.59176 
L 231.02315 404.636259 
L 231.727167 402.69917 
L 232.196512 401.940259 
L 232.665856 401.623273 
L 232.900529 401.632959 
L 233.369873 401.9905 
L 233.839218 402.797172 
L 234.308562 404.045686 
L 235.012579 406.715516 
L 235.716596 410.272358 
L 236.655285 416.180368 
L 238.532664 428.740925 
L 238.767336 429.240153 
L 239.002008 428.984934 
L 239.471353 426.725288 
L 241.818076 411.571291 
L 242.287421 409.818559 
L 242.756765 408.851241 
L 242.991438 408.708139 
L 243.22611 408.817121 
L 243.460782 409.197169 
L 243.930127 410.845881 
L 244.399471 413.797158 
L 245.807505 425.479271 
L 246.27685 427.569452 
L 246.511522 427.954096 
L 246.746195 427.867204 
L 246.980867 427.389575 
L 247.450211 425.747313 
L 249.092918 419.31308 
L 249.796934 417.325126 
L 250.500951 415.924744 
L 251.204968 415.097745 
L 251.674313 414.847898 
L 252.143658 414.823625 
L 252.613002 415.009647 
L 253.082347 415.389435 
L 253.786364 416.283878 
L 254.725053 417.984682 
L 255.898414 420.705399 
L 259.418499 429.405713 
L 260.122516 430.40824 
L 260.59186 430.748154 
L 261.061205 430.820106 
L 261.765222 430.572332 
L 263.407928 429.76361 
L 264.111945 429.701918 
L 264.815962 429.89248 
L 265.519979 430.320756 
L 267.162685 431.467978 
L 267.63203 431.357012 
L 268.101374 430.852566 
L 268.805391 429.479473 
L 269.74408 426.974612 
L 272.560148 418.953522 
L 273.264165 417.588598 
L 273.73351 416.98385 
L 274.202854 416.684947 
L 274.672199 416.748561 
L 275.141543 417.234788 
L 275.610888 418.207037 
L 276.314905 420.555851 
L 277.488266 424.323775 
L 278.661628 427.361255 
L 279.600317 429.257104 
L 280.539006 430.691129 
L 281.477696 431.696655 
L 282.416385 432.327113 
L 283.355074 432.634145 
L 284.059091 432.660988 
L 284.763108 432.50648 
L 285.701797 432.02726 
L 286.640486 431.287538 
L 288.04852 429.84877 
L 292.507294 424.955227 
L 293.680655 424.075706 
L 294.619345 423.602078 
L 295.558034 423.361387 
L 296.496723 423.369862 
L 297.435412 423.632893 
L 298.374101 424.143711 
L 299.547463 425.098319 
L 300.955497 426.605603 
L 304.240909 430.330599 
L 305.179598 430.959554 
L 305.883615 431.161329 
L 306.587632 431.081816 
L 307.291649 430.670204 
L 309.873044 428.566076 
L 311.750423 427.340741 
L 313.393129 426.545419 
L 315.035835 426.025456 
L 316.678541 425.774504 
L 318.321247 425.768291 
L 320.198626 426.01035 
L 322.545349 426.573101 
L 328.646829 428.192666 
L 330.758879 428.457311 
L 332.87093 428.481602 
L 334.748309 428.292333 
L 336.625687 427.895256 
L 338.503066 427.27941 
L 340.145772 426.738837 
L 341.788478 426.436332 
L 343.431184 426.361663 
L 345.308562 426.497254 
L 348.593975 427.008926 
L 351.879387 427.434869 
L 354.930127 427.584519 
L 361.031607 427.59575 
L 364.317019 427.402494 
L 367.837104 427.180311 
L 369.714482 427.299115 
L 371.59186 427.397778 
L 373.938584 427.273211 
L 379.570719 426.875486 
L 382.621459 426.939776 
L 386.610888 427.280838 
L 394.120402 427.959847 
L 396.936469 427.978099 
L 399.04852 427.783423 
L 400.925899 427.397037 
L 403.976638 426.682361 
L 406.088689 426.454418 
L 408.20074 426.473318 
L 410.547463 426.735628 
L 414.067548 427.391083 
L 418.056977 428.081703 
L 420.4037 428.272065 
L 422.515751 428.226634 
L 424.627801 427.947287 
L 426.974524 427.400782 
L 430.729281 426.479473 
L 432.137315 426.369892 
L 434.249366 426.541984 
L 438.004123 427.0599 
L 444.574947 428.012414 
L 447.391015 428.158643 
L 449.97241 428.05763 
L 452.553805 427.727079 
L 456.07389 427.021452 
L 459.593975 426.375142 
L 461.471353 426.274114 
L 462.879387 426.415288 
L 464.287421 426.791834 
L 467.103488 427.501016 
L 469.684884 427.910035 
L 472.266279 428.081801 
L 475.082347 428.034724 
L 478.602431 427.730055 
L 488.223996 426.728516 
L 490.805391 426.750233 
L 493.152114 426.974314 
L 499.488266 427.790351 
L 502.539006 427.774754 
L 507.467125 427.490248 
L 514.741966 427.094089 
L 518.731395 427.115209 
L 530.699683 427.40918 
L 537.739852 427.335507 
L 554.401586 427.39479 
L 563.553805 427.003801 
L 567.543235 427.146559 
L 580.215539 427.81101 
L 583.735624 427.635732 
L 593.826533 426.929671 
L 597.58129 427.034647 
L 603.213425 427.45441 
L 608.376216 427.764623 
L 611.8963 427.762566 
L 615.651057 427.532467 
L 623.160571 426.983881 
L 626.915328 427.019919 
L 631.843446 427.325288 
L 638.648943 427.736511 
L 642.4037 427.734114 
L 646.627801 427.496074 
L 653.433298 427.066402 
L 657.6574 427.083814 
L 664.462896 427.389095 
L 670.564376 427.562569 
L 675.961839 427.481759 
L 685.348732 427.295002 
L 703.183827 427.334907 
L 711.397357 427.315033 
L 724.773679 427.430432 
L 737.680655 427.261068 
L 752.465011 427.484915 
L 767.484038 427.252145 
L 782.268393 427.444107 
L 797.522093 427.307742 
L 816.061205 427.418483 
L 831.080233 427.268762 
L 853.608774 427.396193 
L 878.484038 427.221078 
L 884.585518 427.438167 
L 892.564376 427.709932 
L 896.553805 427.617911 
L 900.543235 427.297875 
L 905.471353 426.874997 
L 908.522093 426.884916 
L 912.042178 427.127151 
L 921.194397 427.880851 
L 924.245137 427.836994 
L 927.53055 427.562808 
L 934.101374 426.934296 
L 937.152114 426.950513 
L 941.141543 427.214636 
L 948.416385 427.733665 
L 951.936469 427.713703 
L 955.691226 427.446664 
L 962.027378 426.936919 
L 964.139429 427.027904 
L 968.832875 427.42573 
L 973.526321 427.547639 
L 980.56649 427.478331 
L 1001.452326 427.135216 
L 1005.911099 427.447707 
L 1012.012579 427.85301 
L 1015.297992 427.852682 
L 1017.644715 427.631103 
L 1019.991438 427.168268 
L 1024.450211 426.177633 
L 1025.623573 426.157128 
L 1026.796934 426.367913 
L 1030.082347 427.327852 
L 1032.663742 427.839378 
L 1035.245137 428.113817 
L 1037.59186 428.143265 
L 1039.938584 427.958882 
L 1042.754651 427.506502 
L 1048.621459 426.476876 
L 1050.73351 426.369812 
L 1052.610888 426.495373 
L 1054.488266 426.865232 
L 1056.365645 427.495158 
L 1058.243023 428.372358 
L 1059.416385 428.876512 
L 1060.589746 429.142359 
L 1061.763108 429.181144 
L 1062.936469 429.011429 
L 1064.344503 428.572907 
L 1066.221882 427.705459 
L 1070.680655 425.501274 
L 1072.088689 425.096123 
L 1073.262051 424.956348 
L 1074.435412 425.024982 
L 1075.608774 425.316537 
L 1076.782135 425.831651 
L 1078.190169 426.721808 
L 1079.832875 428.051791 
L 1083.118288 430.84898 
L 1084.291649 431.50298 
L 1085.230338 431.746785 
L 1085.934355 431.734226 
L 1086.638372 431.528156 
L 1087.342389 431.084278 
L 1088.046406 430.334237 
L 1088.750423 429.197315 
L 1089.45444 427.593199 
L 1090.627801 424.720662 
L 1091.56649 423.021718 
L 1092.270507 422.118784 
L 1092.974524 421.532364 
L 1093.678541 421.252274 
L 1094.382558 421.261674 
L 1095.086575 421.537882 
L 1095.790592 422.053014 
L 1096.729281 423.054514 
L 1097.902643 424.683912 
L 1101.188055 429.601895 
L 1101.892072 430.270359 
L 1102.596089 430.650587 
L 1103.300106 430.749691 
L 1104.238795 430.59855 
L 1106.116173 430.224835 
L 1108.697569 430.052925 
L 1109.401586 429.619639 
L 1110.105603 428.820884 
L 1110.809619 427.658205 
L 1111.748309 425.653958 
L 1113.391015 421.483855 
L 1115.033721 417.51347 
L 1115.97241 415.864642 
L 1116.676427 415.152882 
L 1117.145772 415.006749 
L 1117.615116 415.175322 
L 1118.084461 415.704617 
L 1118.553805 416.640408 
L 1119.02315 418.024932 
L 1119.727167 421.00179 
L 1121.135201 428.042787 
L 1121.369873 428.037146 
L 1121.604545 427.501951 
L 1122.308562 424.458396 
L 1123.247252 420.406735 
L 1123.951268 418.313316 
L 1124.420613 417.45608 
L 1124.889958 417.03551 
L 1125.359302 417.041481 
L 1125.828647 417.454542 
L 1126.297992 418.247244 
L 1127.002008 420.06778 
L 1127.940698 423.395228 
L 1129.114059 427.750703 
L 1129.583404 428.623191 
L 1129.818076 428.618171 
L 1130.052748 428.284157 
L 1130.522093 426.808442 
L 1131.22611 423.489049 
L 1133.572833 411.71103 
L 1134.511522 408.340648 
L 1135.215539 406.664399 
L 1135.684884 406.01559 
L 1136.154228 405.77379 
L 1136.623573 405.960921 
L 1137.092918 406.593322 
L 1137.562262 407.680818 
L 1138.266279 410.166581 
L 1138.970296 413.634227 
L 1140.143658 421.047715 
L 1140.847674 425.137907 
L 1141.082347 425.860629 
L 1141.317019 425.960242 
L 1141.551691 425.344681 
L 1142.021036 422.318452 
L 1142.725053 415.317666 
L 1144.367759 395.593912 
L 1145.775793 379.395843 
L 1146.714482 370.873688 
L 1147.418499 366.538789 
L 1147.887844 364.950351 
L 1148.122516 364.61664 
L 1148.357188 364.622912 
L 1148.59186 364.994914 
L 1148.826533 365.759223 
L 1149.295877 368.575284 
L 1149.765222 373.300757 
L 1150.234567 380.179365 
L 1150.938584 395.103194 
L 1151.6426 416.390178 
L 1151.877273 425.072507 
L 1151.877273 425.072507 
" clip-path="url(#pba253e84a2)" style="fill: none; stroke: #1f77b4; stroke-width: 1.5; stroke-linecap: square"/>
   </g>
   <g id="patch_12">
    <path d="M 166.5 438.09984 
L 166.5 361.11744 
" style="fill: none; stroke: #000000; stroke-width: 0.8; stroke-linejoin: miter; stroke-linecap: square"/>
   </g>
   <g id="patch_13">
    <path d="M 1198.8 438.09984 
L 1198.8 361.11744 
" style="fill: none; stroke: #000000; stroke-width: 0.8; stroke-linejoin: miter; stroke-linecap: square"/>
   </g>
   <g id="patch_14">
    <path d="M 166.5 438.09984 
L 1198.8 438.09984 
" style="fill: none; stroke: #000000; stroke-width: 0.8; stroke-linejoin: miter; stroke-linecap: square"/>
   </g>
   <g id="patch_15">
    <path d="M 166.5 361.11744 
L 1198.8 361.11744 
" style="fill: none; stroke: #000000; stroke-width: 0.8; stroke-linejoin: miter; stroke-linecap: square"/>
   </g>
  </g>
  <g id="axes_4">
   <g id="patch_16">
    <path d="M 166.5 530.47872 
L 1198.8 530.47872 
L 1198.8 453.49632 
L 166.5 453.49632 
z
" style="fill: #ffffff"/>
   </g>
   <g id="matplotlib.axis_5">
    <g id="xtick_34">
     <g id="line2d_45">
      <g>
       <use xlink:href="#m1c8910451a" x="213.422727" y="530.47872" style="stroke: #000000; stroke-width: 0.8"/>
      </g>
     </g>
     <g id="text_41">
      <!-- 0 -->
      <g transform="translate(210.241477 545.077157)scale(0.1 -0.1)">
       <use xlink:href="#DejaVuSans-30"/>
      </g>
     </g>
    </g>
    <g id="xtick_35">
     <g id="line2d_46">
      <g>
       <use xlink:href="#m1c8910451a" x="330.758879" y="530.47872" style="stroke: #000000; stroke-width: 0.8"/>
      </g>
     </g>
     <g id="text_42">
      <!-- 5 -->
      <g transform="translate(327.577629 545.077157)scale(0.1 -0.1)">
       <use xlink:href="#DejaVuSans-35"/>
      </g>
     </g>
    </g>
    <g id="xtick_36">
     <g id="line2d_47">
      <g>
       <use xlink:href="#m1c8910451a" x="448.095032" y="530.47872" style="stroke: #000000; stroke-width: 0.8"/>
      </g>
     </g>
     <g id="text_43">
      <!-- 10 -->
      <g transform="translate(441.732532 545.077157)scale(0.1 -0.1)">
       <use xlink:href="#DejaVuSans-31"/>
       <use xlink:href="#DejaVuSans-30" x="63.623047"/>
      </g>
     </g>
    </g>
    <g id="xtick_37">
     <g id="line2d_48">
      <g>
       <use xlink:href="#m1c8910451a" x="565.431184" y="530.47872" style="stroke: #000000; stroke-width: 0.8"/>
      </g>
     </g>
     <g id="text_44">
      <!-- 15 -->
      <g transform="translate(559.068684 545.077157)scale(0.1 -0.1)">
       <use xlink:href="#DejaVuSans-31"/>
       <use xlink:href="#DejaVuSans-35" x="63.623047"/>
      </g>
     </g>
    </g>
    <g id="xtick_38">
     <g id="line2d_49">
      <g>
       <use xlink:href="#m1c8910451a" x="682.767336" y="530.47872" style="stroke: #000000; stroke-width: 0.8"/>
      </g>
     </g>
     <g id="text_45">
      <!-- 20 -->
      <g transform="translate(676.404836 545.077157)scale(0.1 -0.1)">
       <use xlink:href="#DejaVuSans-32"/>
       <use xlink:href="#DejaVuSans-30" x="63.623047"/>
      </g>
     </g>
    </g>
    <g id="xtick_39">
     <g id="line2d_50">
      <g>
       <use xlink:href="#m1c8910451a" x="800.103488" y="530.47872" style="stroke: #000000; stroke-width: 0.8"/>
      </g>
     </g>
     <g id="text_46">
      <!-- 25 -->
      <g transform="translate(793.740988 545.077157)scale(0.1 -0.1)">
       <use xlink:href="#DejaVuSans-32"/>
       <use xlink:href="#DejaVuSans-35" x="63.623047"/>
      </g>
     </g>
    </g>
    <g id="xtick_40">
     <g id="line2d_51">
      <g>
       <use xlink:href="#m1c8910451a" x="917.439641" y="530.47872" style="stroke: #000000; stroke-width: 0.8"/>
      </g>
     </g>
     <g id="text_47">
      <!-- 30 -->
      <g transform="translate(911.077141 545.077157)scale(0.1 -0.1)">
       <use xlink:href="#DejaVuSans-33"/>
       <use xlink:href="#DejaVuSans-30" x="63.623047"/>
      </g>
     </g>
    </g>
    <g id="xtick_41">
     <g id="line2d_52">
      <g>
       <use xlink:href="#m1c8910451a" x="1034.775793" y="530.47872" style="stroke: #000000; stroke-width: 0.8"/>
      </g>
     </g>
     <g id="text_48">
      <!-- 35 -->
      <g transform="translate(1028.413293 545.077157)scale(0.1 -0.1)">
       <use xlink:href="#DejaVuSans-33"/>
       <use xlink:href="#DejaVuSans-35" x="63.623047"/>
      </g>
     </g>
    </g>
    <g id="xtick_42">
     <g id="line2d_53">
      <g>
       <use xlink:href="#m1c8910451a" x="1152.111945" y="530.47872" style="stroke: #000000; stroke-width: 0.8"/>
      </g>
     </g>
     <g id="text_49">
      <!-- 40 -->
      <g transform="translate(1145.749445 545.077157)scale(0.1 -0.1)">
       <use xlink:href="#DejaVuSans-34"/>
       <use xlink:href="#DejaVuSans-30" x="63.623047"/>
      </g>
     </g>
    </g>
   </g>
   <g id="matplotlib.axis_6">
    <g id="ytick_6">
     <g id="line2d_54">
      <g>
       <use xlink:href="#m2aca55366e" x="166.5" y="512.983675" style="stroke: #000000; stroke-width: 0.8"/>
      </g>
     </g>
     <g id="text_50">
      <!-- 0.5 -->
      <g transform="translate(143.596875 516.782893)scale(0.1 -0.1)">
       <use xlink:href="#DejaVuSans-30"/>
       <use xlink:href="#DejaVuSans-2e" x="63.623047"/>
       <use xlink:href="#DejaVuSans-35" x="95.410156"/>
      </g>
     </g>
    </g>
    <g id="ytick_7">
     <g id="line2d_55">
      <g>
       <use xlink:href="#m2aca55366e" x="166.5" y="482.676319" style="stroke: #000000; stroke-width: 0.8"/>
      </g>
     </g>
     <g id="text_51">
      <!-- 1.0 -->
      <g transform="translate(143.596875 486.475538)scale(0.1 -0.1)">
       <use xlink:href="#DejaVuSans-31"/>
       <use xlink:href="#DejaVuSans-2e" x="63.623047"/>
       <use xlink:href="#DejaVuSans-30" x="95.410156"/>
      </g>
     </g>
    </g>
    <g id="text_52">
     <!-- omega [rad/s] -->
     <g transform="translate(137.517188 527.305489)rotate(-90)scale(0.1 -0.1)">
      <defs>
       <path id="DejaVuSans-67" d="M 2906 1791 
Q 2906 2416 2648 2759 
Q 2391 3103 1925 3103 
Q 1463 3103 1205 2759 
Q 947 2416 947 1791 
Q 947 1169 1205 825 
Q 1463 481 1925 481 
Q 2391 481 2648 825 
Q 2906 1169 2906 1791 
z
M 3481 434 
Q 3481 -459 3084 -895 
Q 2688 -1331 1869 -1331 
Q 1566 -1331 1297 -1286 
Q 1028 -1241 775 -1147 
L 775 -588 
Q 1028 -725 1275 -790 
Q 1522 -856 1778 -856 
Q 2344 -856 2625 -561 
Q 2906 -266 2906 331 
L 2906 616 
Q 2728 306 2450 153 
Q 2172 0 1784 0 
Q 1141 0 747 490 
Q 353 981 353 1791 
Q 353 2603 747 3093 
Q 1141 3584 1784 3584 
Q 2172 3584 2450 3431 
Q 2728 3278 2906 2969 
L 2906 3500 
L 3481 3500 
L 3481 434 
z
" transform="scale(0.015625)"/>
       <path id="DejaVuSans-64" d="M 2906 2969 
L 2906 4863 
L 3481 4863 
L 3481 0 
L 2906 0 
L 2906 525 
Q 2725 213 2448 61 
Q 2172 -91 1784 -91 
Q 1150 -91 751 415 
Q 353 922 353 1747 
Q 353 2572 751 3078 
Q 1150 3584 1784 3584 
Q 2172 3584 2448 3432 
Q 2725 3281 2906 2969 
z
M 947 1747 
Q 947 1113 1208 752 
Q 1469 391 1925 391 
Q 2381 391 2643 752 
Q 2906 1113 2906 1747 
Q 2906 2381 2643 2742 
Q 2381 3103 1925 3103 
Q 1469 3103 1208 2742 
Q 947 2381 947 1747 
z
" transform="scale(0.015625)"/>
      </defs>
      <use xlink:href="#DejaVuSans-6f"/>
      <use xlink:href="#DejaVuSans-6d" x="61.181641"/>
      <use xlink:href="#DejaVuSans-65" x="158.59375"/>
      <use xlink:href="#DejaVuSans-67" x="220.117188"/>
      <use xlink:href="#DejaVuSans-61" x="283.59375"/>
      <use xlink:href="#DejaVuSans-20" x="344.873047"/>
      <use xlink:href="#DejaVuSans-5b" x="376.660156"/>
      <use xlink:href="#DejaVuSans-72" x="415.673828"/>
      <use xlink:href="#DejaVuSans-61" x="456.787109"/>
      <use xlink:href="#DejaVuSans-64" x="518.066406"/>
      <use xlink:href="#DejaVuSans-2f" x="581.542969"/>
      <use xlink:href="#DejaVuSans-73" x="615.234375"/>
      <use xlink:href="#DejaVuSans-5d" x="667.333984"/>
     </g>
    </g>
   </g>
   <g id="line2d_56">
    <path d="M 213.422727 495.830982 
L 215.300106 513.36178 
L 216.004123 518.532401 
L 216.473467 521.031478 
L 216.942812 522.508497 
L 217.177484 522.820252 
L 217.412156 522.847449 
L 217.646829 522.606946 
L 218.116173 521.442487 
L 218.82019 518.538227 
L 221.401586 506.385653 
L 222.340275 503.387826 
L 223.044292 501.862101 
L 223.513636 501.195167 
L 223.982981 500.804083 
L 224.452326 500.680851 
L 224.92167 500.814339 
L 225.391015 501.19072 
L 226.095032 502.17465 
L 226.799049 503.604264 
L 227.737738 506.073545 
L 229.145772 510.54629 
L 231.02315 516.468124 
L 231.727167 518.148024 
L 232.431184 519.26845 
L 232.900529 519.637861 
L 233.369873 519.681497 
L 233.839218 519.403016 
L 234.308562 518.827841 
L 235.012579 517.506549 
L 236.185941 514.559593 
L 237.828647 510.369269 
L 238.767336 508.635523 
L 239.471353 507.859393 
L 239.940698 507.627793 
L 240.410042 507.629567 
L 240.879387 507.850301 
L 241.583404 508.50001 
L 242.522093 509.465297 
L 242.991438 509.609464 
L 243.22611 509.487324 
L 243.460782 509.184253 
L 243.930127 507.872618 
L 244.399471 505.366993 
L 244.634144 503.588662 
L 244.868816 503.385138 
L 246.980867 510.317265 
L 248.388901 514.447454 
L 249.32759 516.545659 
L 250.031607 517.683371 
L 250.735624 518.424647 
L 251.439641 518.778914 
L 252.143658 518.780661 
L 252.847674 518.483018 
L 253.786364 517.73053 
L 254.959725 516.434853 
L 258.010465 512.913011 
L 259.183827 511.971775 
L 260.122516 511.488219 
L 261.061205 511.262775 
L 261.999894 511.292069 
L 262.938584 511.554733 
L 264.111945 512.153638 
L 265.754651 513.318616 
L 269.274736 515.916917 
L 270.917442 516.817895 
L 272.090803 517.251996 
L 273.029493 517.373926 
L 273.73351 517.238717 
L 274.437526 516.802092 
L 274.906871 516.282257 
L 275.610888 515.054305 
L 276.080233 514.039438 
L 277.957611 512.886924 
L 279.130973 512.421599 
L 280.304334 512.21714 
L 281.477696 512.278394 
L 282.651057 512.577984 
L 284.059091 513.180934 
L 286.405814 514.48507 
L 288.752537 515.701694 
L 290.160571 516.200343 
L 291.333932 516.421181 
L 292.507294 516.441525 
L 293.680655 516.25741 
L 295.088689 515.790075 
L 296.731395 514.993572 
L 300.016808 513.311914 
L 301.190169 512.953754 
L 302.363531 512.84259 
L 303.30222 512.960086 
L 304.475581 513.363503 
L 305.883615 514.124516 
L 307.760994 515.116844 
L 309.169027 515.688821 
L 310.577061 515.990308 
L 311.985095 516.030065 
L 313.393129 515.84862 
L 315.270507 515.369298 
L 320.198626 513.962951 
L 322.076004 513.741882 
L 323.71871 513.770823 
L 325.596089 514.0406 
L 328.177484 514.681173 
L 331.228224 515.422973 
L 332.87093 515.617603 
L 334.513636 515.58107 
L 336.156342 515.30509 
L 341.319133 514.183706 
L 343.431184 514.123208 
L 345.777907 514.289566 
L 354.22611 515.115035 
L 357.042178 515.014586 
L 361.735624 514.548173 
L 364.786364 514.379242 
L 367.367759 514.475125 
L 374.877273 514.963274 
L 378.63203 514.864969 
L 387.549577 514.519308 
L 391.773679 514.652894 
L 399.517865 514.962637 
L 403.037949 514.824734 
L 410.312791 514.457701 
L 413.832875 514.553035 
L 424.158457 515.037984 
L 427.209197 514.826115 
L 433.545349 514.273118 
L 436.126744 514.425585 
L 444.105603 515.101368 
L 447.156342 515.027182 
L 451.380444 514.656254 
L 455.369873 514.361344 
L 457.951268 514.378969 
L 460.767336 514.62655 
L 464.991438 515.03784 
L 467.572833 515.023082 
L 472.266279 514.71705 
L 476.725053 514.509521 
L 480.47981 514.559507 
L 491.274736 514.895851 
L 502.069662 514.595318 
L 517.323362 514.807973 
L 528.35296 514.579633 
L 538.443869 514.924471 
L 543.137315 514.729994 
L 549.473467 514.474406 
L 552.993552 514.582138 
L 560.97241 514.991168 
L 565.431184 514.792553 
L 572.002008 514.512665 
L 576.460782 514.56595 
L 589.133087 514.916078 
L 602.040063 514.548649 
L 609.080233 514.902834 
L 613.069662 514.971042 
L 616.824419 514.8013 
L 622.691226 514.48182 
L 626.680655 514.567943 
L 637.475581 514.922614 
L 642.638372 514.78089 
L 651.086575 514.509937 
L 655.310677 514.652541 
L 662.82019 514.922705 
L 667.513636 514.8319 
L 677.369873 514.543742 
L 682.063319 514.731202 
L 686.991438 514.869174 
L 693.092918 514.784937 
L 703.653171 514.606539 
L 710.223996 514.768876 
L 716.090803 514.868172 
L 724.069662 514.661094 
L 730.640486 514.623275 
L 748.944926 514.745612 
L 760.209197 514.662107 
L 781.095032 514.701664 
L 789.07389 514.645427 
L 806.439641 514.733539 
L 813.949154 514.578966 
L 819.815962 514.712284 
L 828.498837 514.931816 
L 832.957611 514.784197 
L 840.936469 514.425853 
L 844.691226 514.632793 
L 851.027378 514.996262 
L 854.782135 514.968959 
L 859.944926 514.671633 
L 864.873044 514.44762 
L 868.393129 514.516502 
L 879.422727 514.968984 
L 883.881501 514.789005 
L 891.625687 514.43361 
L 895.145772 514.540781 
L 899.839218 514.95732 
L 902.655285 515.105209 
L 905.471353 514.988355 
L 914.154228 514.430451 
L 917.674313 514.53561 
L 926.826533 514.976639 
L 930.111945 514.793287 
L 934.570719 514.516326 
L 937.856131 514.613083 
L 945.130973 514.896836 
L 949.120402 514.770562 
L 956.629915 514.464941 
L 959.680655 514.613542 
L 966.720825 515.102139 
L 969.771564 514.915095 
L 976.811734 514.384659 
L 980.097146 514.424134 
L 984.086575 514.723093 
L 989.249366 515.090618 
L 992.065433 515.058395 
L 995.350846 514.771741 
L 999.340275 514.432574 
L 1002.391015 514.385075 
L 1005.911099 514.56371 
L 1013.889958 515.064191 
L 1017.17537 514.967817 
L 1021.399471 514.574983 
L 1025.154228 514.279355 
L 1027.266279 514.308316 
L 1029.847674 514.645446 
L 1033.367759 515.066051 
L 1035.949154 515.124874 
L 1038.765222 514.944897 
L 1046.274736 514.307632 
L 1048.856131 514.416232 
L 1051.672199 514.787195 
L 1056.130973 515.433587 
L 1057.773679 515.405315 
L 1059.181712 515.143406 
L 1064.344503 513.842966 
L 1065.987209 513.794441 
L 1067.629915 513.970424 
L 1069.741966 514.439993 
L 1074.435412 515.591919 
L 1076.078118 515.748989 
L 1077.720825 515.690632 
L 1079.363531 515.413929 
L 1081.475581 514.802157 
L 1086.4037 513.233694 
L 1088.281078 512.961388 
L 1089.45444 512.888512 
L 1089.923784 513.186436 
L 1092.974524 515.635561 
L 1093.913214 516.077635 
L 1094.851903 516.296734 
L 1095.790592 516.30207 
L 1096.963953 516.056799 
L 1098.371987 515.509747 
L 1102.596089 513.687627 
L 1104.004123 513.378223 
L 1105.412156 513.293496 
L 1106.82019 513.420431 
L 1108.462896 513.783519 
L 1110.809619 514.562128 
L 1115.97241 516.424561 
L 1116.676427 516.39952 
L 1117.380444 516.11985 
L 1117.849789 515.732122 
L 1118.319133 515.134735 
L 1119.02315 513.74771 
L 1119.727167 511.640358 
L 1120.431184 508.684091 
L 1120.900529 506.760608 
L 1122.543235 509.162695 
L 1123.716596 510.542868 
L 1124.889958 511.596893 
L 1126.063319 512.372291 
L 1128.410042 513.550425 
L 1129.818076 514.39029 
L 1131.22611 515.501143 
L 1133.338161 517.229347 
L 1134.042178 517.518378 
L 1134.511522 517.534093 
L 1134.980867 517.36796 
L 1135.450211 516.991428 
L 1135.919556 516.385282 
L 1136.623573 515.033423 
L 1137.32759 513.182553 
L 1138.266279 510.099627 
L 1141.317019 499.358218 
L 1142.021036 497.746547 
L 1142.490381 497.048843 
L 1142.959725 496.711743 
L 1143.42907 496.784132 
L 1143.898414 497.312456 
L 1144.367759 498.339782 
L 1144.837104 499.904461 
L 1145.541121 503.325363 
L 1146.245137 508.079052 
L 1147.183827 516.308818 
L 1148.122516 524.93771 
L 1148.357188 526.352555 
L 1148.59186 526.97952 
L 1148.826533 526.552951 
L 1149.061205 524.970856 
L 1149.53055 518.808433 
L 1150.234567 504.53185 
L 1151.173256 479.4476 
L 1151.877273 456.99552 
L 1151.877273 456.99552 
" clip-path="url(#p519ef605c3)" style="fill: none; stroke: #1f77b4; stroke-width: 1.5; stroke-linecap: square"/>
   </g>
   <g id="patch_17">
    <path d="M 166.5 530.47872 
L 166.5 453.49632 
" style="fill: none; stroke: #000000; stroke-width: 0.8; stroke-linejoin: miter; stroke-linecap: square"/>
   </g>
   <g id="patch_18">
    <path d="M 1198.8 530.47872 
L 1198.8 453.49632 
" style="fill: none; stroke: #000000; stroke-width: 0.8; stroke-linejoin: miter; stroke-linecap: square"/>
   </g>
   <g id="patch_19">
    <path d="M 166.5 530.47872 
L 1198.8 530.47872 
" style="fill: none; stroke: #000000; stroke-width: 0.8; stroke-linejoin: miter; stroke-linecap: square"/>
   </g>
   <g id="patch_20">
    <path d="M 166.5 453.49632 
L 1198.8 453.49632 
" style="fill: none; stroke: #000000; stroke-width: 0.8; stroke-linejoin: miter; stroke-linecap: square"/>
   </g>
  </g>
  <g id="axes_5">
   <g id="patch_21">
    <path d="M 166.5 622.8576 
L 1198.8 622.8576 
L 1198.8 545.8752 
L 166.5 545.8752 
z
" style="fill: #ffffff"/>
   </g>
   <g id="matplotlib.axis_7">
    <g id="xtick_43">
     <g id="line2d_57">
      <g>
       <use xlink:href="#m1c8910451a" x="213.422727" y="622.8576" style="stroke: #000000; stroke-width: 0.8"/>
      </g>
     </g>
     <g id="text_53">
      <!-- 0 -->
      <g transform="translate(210.241477 637.456038)scale(0.1 -0.1)">
       <use xlink:href="#DejaVuSans-30"/>
      </g>
     </g>
    </g>
    <g id="xtick_44">
     <g id="line2d_58">
      <g>
       <use xlink:href="#m1c8910451a" x="330.758879" y="622.8576" style="stroke: #000000; stroke-width: 0.8"/>
      </g>
     </g>
     <g id="text_54">
      <!-- 5 -->
      <g transform="translate(327.577629 637.456038)scale(0.1 -0.1)">
       <use xlink:href="#DejaVuSans-35"/>
      </g>
     </g>
    </g>
    <g id="xtick_45">
     <g id="line2d_59">
      <g>
       <use xlink:href="#m1c8910451a" x="448.095032" y="622.8576" style="stroke: #000000; stroke-width: 0.8"/>
      </g>
     </g>
     <g id="text_55">
      <!-- 10 -->
      <g transform="translate(441.732532 637.456038)scale(0.1 -0.1)">
       <use xlink:href="#DejaVuSans-31"/>
       <use xlink:href="#DejaVuSans-30" x="63.623047"/>
      </g>
     </g>
    </g>
    <g id="xtick_46">
     <g id="line2d_60">
      <g>
       <use xlink:href="#m1c8910451a" x="565.431184" y="622.8576" style="stroke: #000000; stroke-width: 0.8"/>
      </g>
     </g>
     <g id="text_56">
      <!-- 15 -->
      <g transform="translate(559.068684 637.456038)scale(0.1 -0.1)">
       <use xlink:href="#DejaVuSans-31"/>
       <use xlink:href="#DejaVuSans-35" x="63.623047"/>
      </g>
     </g>
    </g>
    <g id="xtick_47">
     <g id="line2d_61">
      <g>
       <use xlink:href="#m1c8910451a" x="682.767336" y="622.8576" style="stroke: #000000; stroke-width: 0.8"/>
      </g>
     </g>
     <g id="text_57">
      <!-- 20 -->
      <g transform="translate(676.404836 637.456038)scale(0.1 -0.1)">
       <use xlink:href="#DejaVuSans-32"/>
       <use xlink:href="#DejaVuSans-30" x="63.623047"/>
      </g>
     </g>
    </g>
    <g id="xtick_48">
     <g id="line2d_62">
      <g>
       <use xlink:href="#m1c8910451a" x="800.103488" y="622.8576" style="stroke: #000000; stroke-width: 0.8"/>
      </g>
     </g>
     <g id="text_58">
      <!-- 25 -->
      <g transform="translate(793.740988 637.456038)scale(0.1 -0.1)">
       <use xlink:href="#DejaVuSans-32"/>
       <use xlink:href="#DejaVuSans-35" x="63.623047"/>
      </g>
     </g>
    </g>
    <g id="xtick_49">
     <g id="line2d_63">
      <g>
       <use xlink:href="#m1c8910451a" x="917.439641" y="622.8576" style="stroke: #000000; stroke-width: 0.8"/>
      </g>
     </g>
     <g id="text_59">
      <!-- 30 -->
      <g transform="translate(911.077141 637.456038)scale(0.1 -0.1)">
       <use xlink:href="#DejaVuSans-33"/>
       <use xlink:href="#DejaVuSans-30" x="63.623047"/>
      </g>
     </g>
    </g>
    <g id="xtick_50">
     <g id="line2d_64">
      <g>
       <use xlink:href="#m1c8910451a" x="1034.775793" y="622.8576" style="stroke: #000000; stroke-width: 0.8"/>
      </g>
     </g>
     <g id="text_60">
      <!-- 35 -->
      <g transform="translate(1028.413293 637.456038)scale(0.1 -0.1)">
       <use xlink:href="#DejaVuSans-33"/>
       <use xlink:href="#DejaVuSans-35" x="63.623047"/>
      </g>
     </g>
    </g>
    <g id="xtick_51">
     <g id="line2d_65">
      <g>
       <use xlink:href="#m1c8910451a" x="1152.111945" y="622.8576" style="stroke: #000000; stroke-width: 0.8"/>
      </g>
     </g>
     <g id="text_61">
      <!-- 40 -->
      <g transform="translate(1145.749445 637.456038)scale(0.1 -0.1)">
       <use xlink:href="#DejaVuSans-34"/>
       <use xlink:href="#DejaVuSans-30" x="63.623047"/>
      </g>
     </g>
    </g>
   </g>
   <g id="matplotlib.axis_8">
    <g id="ytick_8">
     <g id="line2d_66">
      <g>
       <use xlink:href="#m2aca55366e" x="166.5" y="614.304668" style="stroke: #000000; stroke-width: 0.8"/>
      </g>
     </g>
     <g id="text_62">
      <!-- 1000 -->
      <g transform="translate(125.670312 618.103887)scale(0.1 -0.1)">
       <defs>
        <path id="DejaVuSans-2212" d="M 678 2272 
L 4684 2272 
L 4684 1741 
L 678 1741 
L 678 2272 
z
" transform="scale(0.015625)"/>
       </defs>
       <use xlink:href="#DejaVuSans-2212"/>
       <use xlink:href="#DejaVuSans-31" x="83.789062"/>
       <use xlink:href="#DejaVuSans-30" x="147.412109"/>
       <use xlink:href="#DejaVuSans-30" x="211.035156"/>
       <use xlink:href="#DejaVuSans-30" x="274.658203"/>
      </g>
     </g>
    </g>
    <g id="ytick_9">
     <g id="line2d_67">
      <g>
       <use xlink:href="#m2aca55366e" x="166.5" y="581.757088" style="stroke: #000000; stroke-width: 0.8"/>
      </g>
     </g>
     <g id="text_63">
      <!-- 500 -->
      <g transform="translate(132.032813 585.556307)scale(0.1 -0.1)">
       <use xlink:href="#DejaVuSans-2212"/>
       <use xlink:href="#DejaVuSans-35" x="83.789062"/>
       <use xlink:href="#DejaVuSans-30" x="147.412109"/>
       <use xlink:href="#DejaVuSans-30" x="211.035156"/>
      </g>
     </g>
    </g>
    <g id="ytick_10">
     <g id="line2d_68">
      <g>
       <use xlink:href="#m2aca55366e" x="166.5" y="549.209507" style="stroke: #000000; stroke-width: 0.8"/>
      </g>
     </g>
     <g id="text_64">
      <!-- 0 -->
      <g transform="translate(153.1375 553.008726)scale(0.1 -0.1)">
       <use xlink:href="#DejaVuSans-30"/>
      </g>
     </g>
    </g>
    <g id="text_65">
     <!-- yaw [deg] -->
     <g transform="translate(119.590625 609.394525)rotate(-90)scale(0.1 -0.1)">
      <defs>
       <path id="DejaVuSans-77" d="M 269 3500 
L 844 3500 
L 1563 769 
L 2278 3500 
L 2956 3500 
L 3675 769 
L 4391 3500 
L 4966 3500 
L 4050 0 
L 3372 0 
L 2619 2869 
L 1863 0 
L 1184 0 
L 269 3500 
z
" transform="scale(0.015625)"/>
      </defs>
      <use xlink:href="#DejaVuSans-79"/>
      <use xlink:href="#DejaVuSans-61" x="59.179688"/>
      <use xlink:href="#DejaVuSans-77" x="120.458984"/>
      <use xlink:href="#DejaVuSans-20" x="202.246094"/>
      <use xlink:href="#DejaVuSans-5b" x="234.033203"/>
      <use xlink:href="#DejaVuSans-64" x="273.046875"/>
      <use xlink:href="#DejaVuSans-65" x="336.523438"/>
      <use xlink:href="#DejaVuSans-67" x="398.046875"/>
      <use xlink:href="#DejaVuSans-5d" x="461.523438"/>
     </g>
    </g>
   </g>
   <g id="line2d_69">
    <path d="M 213.422727 549.3744 
L 218.116173 549.478874 
L 222.574947 549.83596 
L 231.727167 550.61161 
L 243.930127 551.504596 
L 251.908985 552.094945 
L 262.234567 552.866276 
L 273.498837 553.697209 
L 285.232452 554.603343 
L 331.932241 558.089334 
L 385.906871 562.127044 
L 593.357188 577.662089 
L 1150.703911 619.353955 
L 1151.877273 619.3584 
L 1151.877273 619.3584 
" clip-path="url(#p47a859a420)" style="fill: none; stroke: #1f77b4; stroke-width: 1.5; stroke-linecap: square"/>
   </g>
   <g id="patch_22">
    <path d="M 166.5 622.8576 
L 166.5 545.8752 
" style="fill: none; stroke: #000000; stroke-width: 0.8; stroke-linejoin: miter; stroke-linecap: square"/>
   </g>
   <g id="patch_23">
    <path d="M 1198.8 622.8576 
L 1198.8 545.8752 
" style="fill: none; stroke: #000000; stroke-width: 0.8; stroke-linejoin: miter; stroke-linecap: square"/>
   </g>
   <g id="patch_24">
    <path d="M 166.5 622.8576 
L 1198.8 622.8576 
" style="fill: none; stroke: #000000; stroke-width: 0.8; stroke-linejoin: miter; stroke-linecap: square"/>
   </g>
   <g id="patch_25">
    <path d="M 166.5 545.8752 
L 1198.8 545.8752 
" style="fill: none; stroke: #000000; stroke-width: 0.8; stroke-linejoin: miter; stroke-linecap: square"/>
   </g>
  </g>
 </g>
 <defs>
  <clipPath id="pb8609c71dc">
   <rect x="597.96936" y="83.9808" width="169.36128" height="169.36128"/>
  </clipPath>
  <clipPath id="p1d06cb2912">
   <rect x="166.5" y="268.73856" width="1032.3" height="76.9824"/>
  </clipPath>
  <clipPath id="pba253e84a2">
   <rect x="166.5" y="361.11744" width="1032.3" height="76.9824"/>
  </clipPath>
  <clipPath id="p519ef605c3">
   <rect x="166.5" y="453.49632" width="1032.3" height="76.9824"/>
  </clipPath>
  <clipPath id="p47a859a420">
   <rect x="166.5" y="545.8752" width="1032.3" height="76.9824"/>
  </clipPath>
 </defs>
</svg>
