<?xml version="1.0" encoding="utf-8" standalone="no"?>
<!DOCTYPE svg PUBLIC "-//W3C//DTD SVG 1.1//EN"
  "http://www.w3.org/Graphics/SVG/1.1/DTD/svg11.dtd">
<svg xmlns:xlink="http://www.w3.org/1999/xlink" width="1332pt" height="699.84pt" viewBox="0 0 1332 699.84" xmlns="http://www.w3.org/2000/svg" version="1.1">
 <metadata>
  <rdf:RDF xmlns:dc="http://purl.org/dc/elements/1.1/" xmlns:cc="http://creativecommons.org/ns#" xmlns:rdf="http://www.w3.org/1999/02/22-rdf-syntax-ns#">
   <cc:Work>
    <dc:type rdf:resource="http://purl.org/dc/dcmitype/StillImage"/>
    <dc:date>2024-02-05T21:25:58.605608</dc:date>
    <dc:format>image/svg+xml</dc:format>
    <dc:creator>
     <cc:Agent>
      <dc:title>Matplotlib v3.5.1, https://matplotlib.org/</dc:title>
     </cc:Agent>
    </dc:creator>
   </cc:Work>
  </rdf:RDF>
 </metadata>
 <defs>
  <style type="text/css">*{stroke-linejoin: round; stroke-linecap: butt}</style>
 </defs>
 <g id="figure_1">
  <g id="patch_1">
   <path d="M 0 699.84 
L 1332 699.84 
L 1332 0 
L 0 0 
z
" style="fill: #ffffff"/>
  </g>
  <g id="patch_2">
   <path d="M 597.96936 253.34208 
L 767.33064 253.34208 
L 767.33064 83.9808 
L 597.96936 83.9808 
z
" style="fill: #ffffff"/>
  </g>
  <g id="pane3d_1">
   <g id="patch_3">
    <path d="M 609.118997 204.763547 
L 680.615954 169.945725 
L 680.459243 100.20781 
L 606.143457 130.636584 
" style="fill: #f2f2f2; opacity: 0.5; stroke: #f2f2f2; stroke-linejoin: miter"/>
   </g>
  </g>
  <g id="pane3d_2">
   <g id="patch_4">
    <path d="M 680.615954 169.945725 
L 760.066582 200.445728 
L 762.987028 126.853517 
L 680.459243 100.20781 
" style="fill: #e6e6e6; opacity: 0.5; stroke: #e6e6e6; stroke-linejoin: miter"/>
   </g>
  </g>
  <g id="pane3d_3">
   <g id="patch_5">
    <path d="M 609.118997 204.763547 
L 689.956973 240.497527 
L 760.066582 200.445728 
L 680.615954 169.945725 
" style="fill: #ececec; opacity: 0.5; stroke: #ececec; stroke-linejoin: miter"/>
   </g>
  </g>
  <g id="axis3d_1">
   <g id="line2d_1">
    <path d="M 609.118997 204.763547 
L 689.956973 240.497527 
" style="fill: none; stroke: #000000; stroke-width: 0.8; stroke-linecap: square"/>
   </g>
   <g id="Line3DCollection_1">
    <path d="M 613.939061 206.89423 
L 685.378035 171.773823 
L 685.394032 101.801103 
" style="fill: none; stroke: #b0b0b0; stroke-width: 0.8"/>
    <path d="M 630.738 214.320108 
L 701.95027 178.135675 
L 702.578937 107.349585 
" style="fill: none; stroke: #b0b0b0; stroke-width: 0.8"/>
    <path d="M 648.070091 221.981662 
L 719.008465 184.684082 
L 720.286675 113.066874 
" style="fill: none; stroke: #b0b0b0; stroke-width: 0.8"/>
    <path d="M 665.961124 229.890295 
L 736.574315 191.42737 
L 738.541474 118.960793 
" style="fill: none; stroke: #b0b0b0; stroke-width: 0.8"/>
    <path d="M 684.43858 238.058152 
L 754.670824 198.37437 
L 757.369084 125.039654 
" style="fill: none; stroke: #b0b0b0; stroke-width: 0.8"/>
   </g>
   <g id="xtick_1">
    <g id="line2d_2">
     <path d="M 614.555769 206.591047 
L 612.70328 207.501757 
" style="fill: none; stroke: #000000; stroke-width: 0.8; stroke-linecap: square"/>
    </g>
    <g id="text_1">
     <!-- 1.00 -->
     <g transform="translate(593.047527 228.845407)scale(0.1 -0.1)">
      <defs>
       <path id="DejaVuSans-31" d="M 794 531 
L 1825 531 
L 1825 4091 
L 703 3866 
L 703 4441 
L 1819 4666 
L 2450 4666 
L 2450 531 
L 3481 531 
L 3481 0 
L 794 0 
L 794 531 
z
" transform="scale(0.015625)"/>
       <path id="DejaVuSans-2e" d="M 684 794 
L 1344 794 
L 1344 0 
L 684 0 
L 684 794 
z
" transform="scale(0.015625)"/>
       <path id="DejaVuSans-30" d="M 2034 4250 
Q 1547 4250 1301 3770 
Q 1056 3291 1056 2328 
Q 1056 1369 1301 889 
Q 1547 409 2034 409 
Q 2525 409 2770 889 
Q 3016 1369 3016 2328 
Q 3016 3291 2770 3770 
Q 2525 4250 2034 4250 
z
M 2034 4750 
Q 2819 4750 3233 4129 
Q 3647 3509 3647 2328 
Q 3647 1150 3233 529 
Q 2819 -91 2034 -91 
Q 1250 -91 836 529 
Q 422 1150 422 2328 
Q 422 3509 836 4129 
Q 1250 4750 2034 4750 
z
" transform="scale(0.015625)"/>
      </defs>
      <use xlink:href="#DejaVuSans-31"/>
      <use xlink:href="#DejaVuSans-2e" x="63.623047"/>
      <use xlink:href="#DejaVuSans-30" x="95.410156"/>
      <use xlink:href="#DejaVuSans-30" x="159.033203"/>
     </g>
    </g>
   </g>
   <g id="xtick_2">
    <g id="line2d_3">
     <path d="M 631.353454 214.007382 
L 629.504694 214.946776 
" style="fill: none; stroke: #000000; stroke-width: 0.8; stroke-linecap: square"/>
    </g>
    <g id="text_2">
     <!-- 1.25 -->
     <g transform="translate(609.786758 236.5381)scale(0.1 -0.1)">
      <defs>
       <path id="DejaVuSans-32" d="M 1228 531 
L 3431 531 
L 3431 0 
L 469 0 
L 469 531 
Q 828 903 1448 1529 
Q 2069 2156 2228 2338 
Q 2531 2678 2651 2914 
Q 2772 3150 2772 3378 
Q 2772 3750 2511 3984 
Q 2250 4219 1831 4219 
Q 1534 4219 1204 4116 
Q 875 4013 500 3803 
L 500 4441 
Q 881 4594 1212 4672 
Q 1544 4750 1819 4750 
Q 2544 4750 2975 4387 
Q 3406 4025 3406 3419 
Q 3406 3131 3298 2873 
Q 3191 2616 2906 2266 
Q 2828 2175 2409 1742 
Q 1991 1309 1228 531 
z
" transform="scale(0.015625)"/>
       <path id="DejaVuSans-35" d="M 691 4666 
L 3169 4666 
L 3169 4134 
L 1269 4134 
L 1269 2991 
Q 1406 3038 1543 3061 
Q 1681 3084 1819 3084 
Q 2600 3084 3056 2656 
Q 3513 2228 3513 1497 
Q 3513 744 3044 326 
Q 2575 -91 1722 -91 
Q 1428 -91 1123 -41 
Q 819 9 494 109 
L 494 744 
Q 775 591 1075 516 
Q 1375 441 1709 441 
Q 2250 441 2565 725 
Q 2881 1009 2881 1497 
Q 2881 1984 2565 2268 
Q 2250 2553 1709 2553 
Q 1456 2553 1204 2497 
Q 953 2441 691 2322 
L 691 4666 
z
" transform="scale(0.015625)"/>
      </defs>
      <use xlink:href="#DejaVuSans-31"/>
      <use xlink:href="#DejaVuSans-2e" x="63.623047"/>
      <use xlink:href="#DejaVuSans-32" x="95.410156"/>
      <use xlink:href="#DejaVuSans-35" x="159.033203"/>
     </g>
    </g>
   </g>
   <g id="xtick_3">
    <g id="line2d_4">
     <path d="M 648.683901 221.658937 
L 646.840042 222.62839 
" style="fill: none; stroke: #000000; stroke-width: 0.8; stroke-linecap: square"/>
    </g>
    <g id="text_3">
     <!-- 1.50 -->
     <g transform="translate(627.060252 244.476321)scale(0.1 -0.1)">
      <use xlink:href="#DejaVuSans-31"/>
      <use xlink:href="#DejaVuSans-2e" x="63.623047"/>
      <use xlink:href="#DejaVuSans-35" x="95.410156"/>
      <use xlink:href="#DejaVuSans-30" x="159.033203"/>
     </g>
    </g>
   </g>
   <g id="xtick_4">
    <g id="line2d_5">
     <path d="M 666.572863 229.557081 
L 664.735186 230.558061 
" style="fill: none; stroke: #000000; stroke-width: 0.8; stroke-linecap: square"/>
    </g>
    <g id="text_4">
     <!-- 1.75 -->
     <g transform="translate(644.894003 252.672013)scale(0.1 -0.1)">
      <defs>
       <path id="DejaVuSans-37" d="M 525 4666 
L 3525 4666 
L 3525 4397 
L 1831 0 
L 1172 0 
L 2766 4134 
L 525 4134 
L 525 4666 
z
" transform="scale(0.015625)"/>
      </defs>
      <use xlink:href="#DejaVuSans-31"/>
      <use xlink:href="#DejaVuSans-2e" x="63.623047"/>
      <use xlink:href="#DejaVuSans-37" x="95.410156"/>
      <use xlink:href="#DejaVuSans-35" x="159.033203"/>
     </g>
    </g>
   </g>
   <g id="xtick_5">
    <g id="line2d_6">
     <path d="M 685.047782 237.713931 
L 683.217688 238.748001 
" style="fill: none; stroke: #000000; stroke-width: 0.8; stroke-linecap: square"/>
    </g>
    <g id="text_5">
     <!-- 2.00 -->
     <g transform="translate(663.315717 261.13791)scale(0.1 -0.1)">
      <use xlink:href="#DejaVuSans-32"/>
      <use xlink:href="#DejaVuSans-2e" x="63.623047"/>
      <use xlink:href="#DejaVuSans-30" x="95.410156"/>
      <use xlink:href="#DejaVuSans-30" x="159.033203"/>
     </g>
    </g>
   </g>
  </g>
  <g id="axis3d_2">
   <g id="line2d_7">
    <path d="M 760.066582 200.445728 
L 689.956973 240.497527 
" style="fill: none; stroke: #000000; stroke-width: 0.8; stroke-linecap: square"/>
   </g>
   <g id="Line3DCollection_2">
    <path d="M 611.329216 128.513263 
L 614.094694 202.340466 
L 694.861329 237.695796 
" style="fill: none; stroke: #b0b0b0; stroke-width: 0.8"/>
    <path d="M 628.348304 121.544757 
L 630.438442 194.381334 
L 710.944098 228.508127 
" style="fill: none; stroke: #b0b0b0; stroke-width: 0.8"/>
    <path d="M 644.780236 114.816663 
L 646.238812 186.686818 
L 726.453448 219.648039 
" style="fill: none; stroke: #b0b0b0; stroke-width: 0.8"/>
    <path d="M 660.654883 108.316752 
L 661.522461 179.243937 
L 741.419508 211.098317 
" style="fill: none; stroke: #b0b0b0; stroke-width: 0.8"/>
    <path d="M 676.000122 102.033607 
L 676.314329 172.040545 
L 755.870335 202.842935 
" style="fill: none; stroke: #b0b0b0; stroke-width: 0.8"/>
   </g>
   <g id="xtick_6">
    <g id="line2d_8">
     <path d="M 694.167094 237.391897 
L 696.252304 238.304691 
" style="fill: none; stroke: #000000; stroke-width: 0.8; stroke-linecap: square"/>
    </g>
    <g id="text_6">
     <!-- 1.00 -->
     <g transform="translate(695.047885 260.089471)scale(0.1 -0.1)">
      <use xlink:href="#DejaVuSans-31"/>
      <use xlink:href="#DejaVuSans-2e" x="63.623047"/>
      <use xlink:href="#DejaVuSans-30" x="95.410156"/>
      <use xlink:href="#DejaVuSans-30" x="159.033203"/>
     </g>
    </g>
   </g>
   <g id="xtick_7">
    <g id="line2d_9">
     <path d="M 710.252977 228.215157 
L 712.328791 229.095106 
" style="fill: none; stroke: #000000; stroke-width: 0.8; stroke-linecap: square"/>
    </g>
    <g id="text_7">
     <!-- 1.25 -->
     <g transform="translate(710.99604 250.591067)scale(0.1 -0.1)">
      <use xlink:href="#DejaVuSans-31"/>
      <use xlink:href="#DejaVuSans-2e" x="63.623047"/>
      <use xlink:href="#DejaVuSans-32" x="95.410156"/>
      <use xlink:href="#DejaVuSans-35" x="159.033203"/>
     </g>
    </g>
   </g>
   <g id="xtick_8">
    <g id="line2d_10">
     <path d="M 725.76566 219.365418 
L 727.831417 220.214264 
" style="fill: none; stroke: #000000; stroke-width: 0.8; stroke-linecap: square"/>
    </g>
    <g id="text_8">
     <!-- 1.50 -->
     <g transform="translate(726.373082 241.432806)scale(0.1 -0.1)">
      <use xlink:href="#DejaVuSans-31"/>
      <use xlink:href="#DejaVuSans-2e" x="63.623047"/>
      <use xlink:href="#DejaVuSans-35" x="95.410156"/>
      <use xlink:href="#DejaVuSans-30" x="159.033203"/>
     </g>
    </g>
   </g>
   <g id="xtick_9">
    <g id="line2d_11">
     <path d="M 740.735247 210.825507 
L 742.790371 211.64487 
" style="fill: none; stroke: #000000; stroke-width: 0.8; stroke-linecap: square"/>
    </g>
    <g id="text_9">
     <!-- 1.75 -->
     <g transform="translate(741.209151 232.596739)scale(0.1 -0.1)">
      <use xlink:href="#DejaVuSans-31"/>
      <use xlink:href="#DejaVuSans-2e" x="63.623047"/>
      <use xlink:href="#DejaVuSans-37" x="95.410156"/>
      <use xlink:href="#DejaVuSans-35" x="159.033203"/>
     </g>
    </g>
   </g>
   <g id="xtick_10">
    <g id="line2d_12">
     <path d="M 755.189766 202.579433 
L 757.233758 203.370824 
" style="fill: none; stroke: #000000; stroke-width: 0.8; stroke-linecap: square"/>
    </g>
    <g id="text_10">
     <!-- 2.00 -->
     <g transform="translate(755.5323 224.066156)scale(0.1 -0.1)">
      <use xlink:href="#DejaVuSans-32"/>
      <use xlink:href="#DejaVuSans-2e" x="63.623047"/>
      <use xlink:href="#DejaVuSans-30" x="95.410156"/>
      <use xlink:href="#DejaVuSans-30" x="159.033203"/>
     </g>
    </g>
   </g>
  </g>
  <g id="axis3d_3">
   <g id="line2d_13">
    <path d="M 760.066582 200.445728 
L 762.987028 126.853517 
" style="fill: none; stroke: #000000; stroke-width: 0.8; stroke-linecap: square"/>
   </g>
   <g id="Line3DCollection_3">
    <path d="M 760.220226 196.574055 
L 680.60769 166.268039 
L 608.962507 200.865063 
" style="fill: none; stroke: #b0b0b0; stroke-width: 0.8"/>
    <path d="M 760.795188 182.085608 
L 680.576783 152.514199 
L 608.376845 186.274983 
" style="fill: none; stroke: #b0b0b0; stroke-width: 0.8"/>
    <path d="M 761.379001 167.374148 
L 680.545432 138.562647 
L 607.782084 171.458221 
" style="fill: none; stroke: #b0b0b0; stroke-width: 0.8"/>
    <path d="M 761.971869 152.434485 
L 680.513627 124.409089 
L 607.178009 156.409452 
" style="fill: none; stroke: #b0b0b0; stroke-width: 0.8"/>
    <path d="M 762.574005 137.261268 
L 680.481358 110.049105 
L 606.564401 141.123184 
" style="fill: none; stroke: #b0b0b0; stroke-width: 0.8"/>
   </g>
   <g id="xtick_11">
    <g id="line2d_14">
     <path d="M 759.539309 196.314851 
L 761.584342 197.093331 
" style="fill: none; stroke: #000000; stroke-width: 0.8; stroke-linecap: square"/>
    </g>
    <g id="text_11">
     <!-- 0.25 -->
     <g transform="translate(768.603667 203.618838)scale(0.1 -0.1)">
      <use xlink:href="#DejaVuSans-30"/>
      <use xlink:href="#DejaVuSans-2e" x="63.623047"/>
      <use xlink:href="#DejaVuSans-32" x="95.410156"/>
      <use xlink:href="#DejaVuSans-35" x="159.033203"/>
     </g>
    </g>
   </g>
   <g id="xtick_12">
    <g id="line2d_15">
     <path d="M 760.108751 181.832563 
L 762.170381 182.592554 
" style="fill: none; stroke: #000000; stroke-width: 0.8; stroke-linecap: square"/>
    </g>
    <g id="text_12">
     <!-- 0.50 -->
     <g transform="translate(769.326815 189.143549)scale(0.1 -0.1)">
      <use xlink:href="#DejaVuSans-30"/>
      <use xlink:href="#DejaVuSans-2e" x="63.623047"/>
      <use xlink:href="#DejaVuSans-35" x="95.410156"/>
      <use xlink:href="#DejaVuSans-30" x="159.033203"/>
     </g>
    </g>
   </g>
   <g id="xtick_13">
    <g id="line2d_16">
     <path d="M 760.686952 167.127482 
L 762.765451 167.868321 
" style="fill: none; stroke: #000000; stroke-width: 0.8; stroke-linecap: square"/>
    </g>
    <g id="text_13">
     <!-- 0.75 -->
     <g transform="translate(770.061082 174.445717)scale(0.1 -0.1)">
      <use xlink:href="#DejaVuSans-30"/>
      <use xlink:href="#DejaVuSans-2e" x="63.623047"/>
      <use xlink:href="#DejaVuSans-37" x="95.410156"/>
      <use xlink:href="#DejaVuSans-35" x="159.033203"/>
     </g>
    </g>
   </g>
   <g id="xtick_14">
    <g id="line2d_17">
     <path d="M 761.274118 152.194427 
L 763.369762 152.915425 
" style="fill: none; stroke: #000000; stroke-width: 0.8; stroke-linecap: square"/>
    </g>
    <g id="text_14">
     <!-- 1.00 -->
     <g transform="translate(770.806724 159.520171)scale(0.1 -0.1)">
      <use xlink:href="#DejaVuSans-31"/>
      <use xlink:href="#DejaVuSans-2e" x="63.623047"/>
      <use xlink:href="#DejaVuSans-30" x="95.410156"/>
      <use xlink:href="#DejaVuSans-30" x="159.033203"/>
     </g>
    </g>
   </g>
   <g id="xtick_15">
    <g id="line2d_18">
     <path d="M 761.870458 137.028055 
L 763.983531 137.728499 
" style="fill: none; stroke: #000000; stroke-width: 0.8; stroke-linecap: square"/>
    </g>
    <g id="text_15">
     <!-- 1.25 -->
     <g transform="translate(771.564009 144.361578)scale(0.1 -0.1)">
      <use xlink:href="#DejaVuSans-31"/>
      <use xlink:href="#DejaVuSans-2e" x="63.623047"/>
      <use xlink:href="#DejaVuSans-32" x="95.410156"/>
      <use xlink:href="#DejaVuSans-35" x="159.033203"/>
     </g>
    </g>
   </g>
  </g>
  <g id="axes_1">
   <g id="line2d_19">
    <path d="M 654.216441 185.937061 
L 658.891158 184.036662 
L 664.886068 181.791534 
L 669.535805 180.249106 
L 673.37674 179.200404 
L 676.281248 178.637975 
L 679.20368 178.326454 
L 683.491856 178.142785 
L 700.127703 177.702091 
L 703.314585 177.957573 
L 706.602211 178.474807 
L 710.401322 179.311696 
L 716.099962 180.814869 
L 720.21749 182.100077 
L 722.765641 183.109889 
L 724.729062 184.121184 
L 726.401548 185.235238 
L 727.817648 186.427842 
L 729.143506 187.832337 
L 730.214926 189.273142 
L 731.040521 190.72654 
L 731.604881 192.179141 
L 731.857953 193.467433 
L 731.860066 194.595579 
L 731.635038 195.728718 
L 731.168448 196.868424 
L 730.454597 198.011909 
L 729.497355 199.151786 
L 728.122863 200.434843 
L 726.480949 201.674724 
L 724.364734 202.986067 
L 722.013723 204.178631 
L 719.445969 205.239671 
L 716.306697 206.277187 
L 712.83447 207.180149 
L 709.026384 207.951592 
L 704.490059 208.634986 
L 700.123457 209.080475 
L 695.612847 209.328392 
L 691.028015 209.356535 
L 686.414417 209.156027 
L 681.809018 208.7285 
L 677.242565 208.085753 
L 672.296743 207.153569 
L 667.46976 206.012243 
L 662.818099 204.674068 
L 658.809278 203.276972 
L 655.432153 201.866937 
L 652.310922 200.316066 
L 649.470776 198.636888 
L 646.925487 196.849527 
L 644.678934 194.978362 
L 642.729872 193.045921 
L 641.248053 191.288613 
L 640.007456 189.501257 
L 639.017229 187.689579 
L 638.289569 185.858452 
L 637.878962 184.243769 
L 637.688338 182.62076 
L 637.723725 180.993254 
L 637.986267 179.36642 
L 638.469303 177.747535 
L 639.272745 175.919243 
L 640.32254 174.127751 
L 641.598788 172.385736 
L 643.085352 170.703823 
L 644.994579 168.893511 
L 647.144975 167.176884 
L 649.532553 165.557252 
L 652.157165 164.034923 
L 655.349318 162.457497 
L 658.817861 161.003742 
L 662.532048 159.682066 
L 666.845041 158.395696 
L 671.321141 157.303533 
L 675.886302 156.42219 
L 680.496515 155.758345 
L 685.12838 155.30981 
L 690.177439 155.057892 
L 695.187028 155.039209 
L 700.113257 155.236537 
L 704.901213 155.639865 
L 709.483027 156.255493 
L 713.439516 157.013038 
L 717.107725 157.953215 
L 720.153404 158.956262 
L 722.896676 160.084317 
L 725.321591 161.318095 
L 727.421351 162.640087 
L 729.025996 163.892909 
L 730.348141 165.195036 
L 731.2726 166.38649 
L 731.946384 167.60382 
L 732.318845 168.685804 
L 732.47956 169.779452 
L 732.422565 170.880447 
L 732.146481 171.983482 
L 731.652922 173.082341 
L 730.826418 174.324164 
L 729.726385 175.540247 
L 728.361898 176.718714 
L 726.524773 177.984573 
L 724.384758 179.171429 
L 721.957734 180.265685 
L 718.935313 181.362065 
L 715.57652 182.32521 
L 711.896666 183.146849 
L 707.923704 183.817726 
L 703.264729 184.369335 
L 698.371773 184.711206 
L 693.319909 184.826975 
L 688.645586 184.721973 
L 683.943187 184.407911 
L 679.260873 183.88305 
L 674.644994 183.153236 
L 670.138317 182.230863 
L 665.778791 181.131166 
L 661.599616 179.865579 
L 657.634031 178.440216 
L 653.921225 176.86197 
L 650.83205 175.318753 
L 648.016012 173.668831 
L 645.503207 171.923743 
L 643.542632 170.303375 
L 641.846656 168.628162 
L 640.41375 166.907898 
L 639.242128 165.15236 
L 638.331613 163.371265 
L 637.683668 161.574106 
L 637.33425 159.995576 
L 637.190222 158.417451 
L 637.253657 156.845036 
L 637.525676 155.283126 
L 638.005405 153.736004 
L 638.690041 152.207603 
L 639.717572 150.489738 
L 640.997913 148.810169 
L 642.519449 147.177517 
L 644.501823 145.408196 
L 646.748934 143.722519 
L 649.238237 142.1316 
L 651.951774 140.642937 
L 655.215138 139.113025 
L 658.721969 137.717404 
L 662.830753 136.34173 
L 667.160813 135.137748 
L 671.660673 134.110392 
L 676.700425 133.19874 
L 681.818608 132.516732 
L 686.962876 132.07322 
L 692.084812 131.86786 
L 697.139836 131.890384 
L 702.083548 132.125309 
L 706.863111 132.564192 
L 711.410468 133.210877 
L 715.310208 133.98724 
L 718.894032 134.93274 
L 721.837221 135.926543 
L 724.456046 137.030704 
L 726.745278 138.225307 
L 728.711967 139.491764 
L 730.352465 140.815558 
L 731.533277 142.048037 
L 732.326563 143.173091 
L 732.855519 144.324608 
L 733.084218 145.352671 
L 733.083074 146.397003 
L 732.849705 147.451402 
L 732.389584 148.50641 
L 731.710191 149.551602 
L 730.676283 150.720432 
L 729.381026 151.847141 
L 727.628567 153.047272 
L 725.579388 154.161558 
L 723.242736 155.181875 
L 720.303954 156.207194 
L 716.987246 157.128264 
L 712.908474 158.021352 
L 708.434257 158.767656 
L 703.669405 159.325615 
L 699.192263 159.627898 
L 694.649348 159.709811 
L 689.574936 159.556408 
L 684.394599 159.177808 
L 678.650769 158.533115 
L 673.396045 157.735935 
L 668.748997 156.831916 
L 664.338711 155.74455 
L 660.621971 154.604831 
L 657.147633 153.319725 
L 653.55162 151.7421 
L 649.878422 149.862303 
L 646.472133 147.87422 
L 643.366492 145.804616 
L 641.384061 144.240885 
L 639.934855 142.813011 
L 638.949246 141.538259 
L 638.210735 140.220639 
L 637.704156 138.872209 
L 637.355643 137.285195 
L 637.140876 135.061455 
L 636.939093 129.86986 
L 637.188038 128.851817 
L 637.697605 127.761249 
L 638.497318 126.593667 
L 639.822898 125.113191 
L 641.748878 123.357181 
L 644.397529 121.290273 
L 647.581443 119.110435 
L 647.781849 118.98459 
L 647.781849 118.98459 
" clip-path="url(#p113e9bb3a6)" style="fill: none; stroke: #1f77b4; stroke-width: 1.5; stroke-linecap: square"/>
   </g>
  </g>
  <g id="axes_2">
   <g id="patch_6">
    <path d="M 166.5 345.72096 
L 1198.8 345.72096 
L 1198.8 268.73856 
L 166.5 268.73856 
z
" style="fill: #ffffff"/>
   </g>
   <g id="matplotlib.axis_1">
    <g id="xtick_16">
     <g id="line2d_20">
      <defs>
       <path id="md494bb3612" d="M 0 0 
L 0 3.5 
" style="stroke: #000000; stroke-width: 0.8"/>
      </defs>
      <g>
       <use xlink:href="#md494bb3612" x="213.422727" y="345.72096" style="stroke: #000000; stroke-width: 0.8"/>
      </g>
     </g>
     <g id="text_16">
      <!-- 0.0 -->
      <g transform="translate(205.471165 360.319397)scale(0.1 -0.1)">
       <use xlink:href="#DejaVuSans-30"/>
       <use xlink:href="#DejaVuSans-2e" x="63.623047"/>
       <use xlink:href="#DejaVuSans-30" x="95.410156"/>
      </g>
     </g>
    </g>
    <g id="xtick_17">
     <g id="line2d_21">
      <g>
       <use xlink:href="#md494bb3612" x="330.729545" y="345.72096" style="stroke: #000000; stroke-width: 0.8"/>
      </g>
     </g>
     <g id="text_17">
      <!-- 2.5 -->
      <g transform="translate(322.777983 360.319397)scale(0.1 -0.1)">
       <use xlink:href="#DejaVuSans-32"/>
       <use xlink:href="#DejaVuSans-2e" x="63.623047"/>
       <use xlink:href="#DejaVuSans-35" x="95.410156"/>
      </g>
     </g>
    </g>
    <g id="xtick_18">
     <g id="line2d_22">
      <g>
       <use xlink:href="#md494bb3612" x="448.036364" y="345.72096" style="stroke: #000000; stroke-width: 0.8"/>
      </g>
     </g>
     <g id="text_18">
      <!-- 5.0 -->
      <g transform="translate(440.084801 360.319397)scale(0.1 -0.1)">
       <use xlink:href="#DejaVuSans-35"/>
       <use xlink:href="#DejaVuSans-2e" x="63.623047"/>
       <use xlink:href="#DejaVuSans-30" x="95.410156"/>
      </g>
     </g>
    </g>
    <g id="xtick_19">
     <g id="line2d_23">
      <g>
       <use xlink:href="#md494bb3612" x="565.343182" y="345.72096" style="stroke: #000000; stroke-width: 0.8"/>
      </g>
     </g>
     <g id="text_19">
      <!-- 7.5 -->
      <g transform="translate(557.391619 360.319397)scale(0.1 -0.1)">
       <use xlink:href="#DejaVuSans-37"/>
       <use xlink:href="#DejaVuSans-2e" x="63.623047"/>
       <use xlink:href="#DejaVuSans-35" x="95.410156"/>
      </g>
     </g>
    </g>
    <g id="xtick_20">
     <g id="line2d_24">
      <g>
       <use xlink:href="#md494bb3612" x="682.65" y="345.72096" style="stroke: #000000; stroke-width: 0.8"/>
      </g>
     </g>
     <g id="text_20">
      <!-- 10.0 -->
      <g transform="translate(671.517188 360.319397)scale(0.1 -0.1)">
       <use xlink:href="#DejaVuSans-31"/>
       <use xlink:href="#DejaVuSans-30" x="63.623047"/>
       <use xlink:href="#DejaVuSans-2e" x="127.246094"/>
       <use xlink:href="#DejaVuSans-30" x="159.033203"/>
      </g>
     </g>
    </g>
    <g id="xtick_21">
     <g id="line2d_25">
      <g>
       <use xlink:href="#md494bb3612" x="799.956818" y="345.72096" style="stroke: #000000; stroke-width: 0.8"/>
      </g>
     </g>
     <g id="text_21">
      <!-- 12.5 -->
      <g transform="translate(788.824006 360.319397)scale(0.1 -0.1)">
       <use xlink:href="#DejaVuSans-31"/>
       <use xlink:href="#DejaVuSans-32" x="63.623047"/>
       <use xlink:href="#DejaVuSans-2e" x="127.246094"/>
       <use xlink:href="#DejaVuSans-35" x="159.033203"/>
      </g>
     </g>
    </g>
    <g id="xtick_22">
     <g id="line2d_26">
      <g>
       <use xlink:href="#md494bb3612" x="917.263636" y="345.72096" style="stroke: #000000; stroke-width: 0.8"/>
      </g>
     </g>
     <g id="text_22">
      <!-- 15.0 -->
      <g transform="translate(906.130824 360.319397)scale(0.1 -0.1)">
       <use xlink:href="#DejaVuSans-31"/>
       <use xlink:href="#DejaVuSans-35" x="63.623047"/>
       <use xlink:href="#DejaVuSans-2e" x="127.246094"/>
       <use xlink:href="#DejaVuSans-30" x="159.033203"/>
      </g>
     </g>
    </g>
    <g id="xtick_23">
     <g id="line2d_27">
      <g>
       <use xlink:href="#md494bb3612" x="1034.570455" y="345.72096" style="stroke: #000000; stroke-width: 0.8"/>
      </g>
     </g>
     <g id="text_23">
      <!-- 17.5 -->
      <g transform="translate(1023.437642 360.319397)scale(0.1 -0.1)">
       <use xlink:href="#DejaVuSans-31"/>
       <use xlink:href="#DejaVuSans-37" x="63.623047"/>
       <use xlink:href="#DejaVuSans-2e" x="127.246094"/>
       <use xlink:href="#DejaVuSans-35" x="159.033203"/>
      </g>
     </g>
    </g>
    <g id="xtick_24">
     <g id="line2d_28">
      <g>
       <use xlink:href="#md494bb3612" x="1151.877273" y="345.72096" style="stroke: #000000; stroke-width: 0.8"/>
      </g>
     </g>
     <g id="text_24">
      <!-- 20.0 -->
      <g transform="translate(1140.74446 360.319397)scale(0.1 -0.1)">
       <use xlink:href="#DejaVuSans-32"/>
       <use xlink:href="#DejaVuSans-30" x="63.623047"/>
       <use xlink:href="#DejaVuSans-2e" x="127.246094"/>
       <use xlink:href="#DejaVuSans-30" x="159.033203"/>
      </g>
     </g>
    </g>
   </g>
   <g id="matplotlib.axis_2">
    <g id="ytick_1">
     <g id="line2d_29">
      <defs>
       <path id="m6c131d7422" d="M 0 0 
L -3.5 0 
" style="stroke: #000000; stroke-width: 0.8"/>
      </defs>
      <g>
       <use xlink:href="#m6c131d7422" x="166.5" y="342.22176" style="stroke: #000000; stroke-width: 0.8"/>
      </g>
     </g>
     <g id="text_25">
      <!-- 0.00 -->
      <g transform="translate(137.234375 346.020979)scale(0.1 -0.1)">
       <use xlink:href="#DejaVuSans-30"/>
       <use xlink:href="#DejaVuSans-2e" x="63.623047"/>
       <use xlink:href="#DejaVuSans-30" x="95.410156"/>
       <use xlink:href="#DejaVuSans-30" x="159.033203"/>
      </g>
     </g>
    </g>
    <g id="ytick_2">
     <g id="line2d_30">
      <g>
       <use xlink:href="#m6c131d7422" x="166.5" y="316.096833" style="stroke: #000000; stroke-width: 0.8"/>
      </g>
     </g>
     <g id="text_26">
      <!-- 0.25 -->
      <g transform="translate(137.234375 319.896051)scale(0.1 -0.1)">
       <use xlink:href="#DejaVuSans-30"/>
       <use xlink:href="#DejaVuSans-2e" x="63.623047"/>
       <use xlink:href="#DejaVuSans-32" x="95.410156"/>
       <use xlink:href="#DejaVuSans-35" x="159.033203"/>
      </g>
     </g>
    </g>
    <g id="ytick_3">
     <g id="line2d_31">
      <g>
       <use xlink:href="#m6c131d7422" x="166.5" y="289.971905" style="stroke: #000000; stroke-width: 0.8"/>
      </g>
     </g>
     <g id="text_27">
      <!-- 0.50 -->
      <g transform="translate(137.234375 293.771124)scale(0.1 -0.1)">
       <use xlink:href="#DejaVuSans-30"/>
       <use xlink:href="#DejaVuSans-2e" x="63.623047"/>
       <use xlink:href="#DejaVuSans-35" x="95.410156"/>
       <use xlink:href="#DejaVuSans-30" x="159.033203"/>
      </g>
     </g>
    </g>
    <g id="text_28">
     <!-- velocity [m/s] -->
     <g transform="translate(131.154687 341.421947)rotate(-90)scale(0.1 -0.1)">
      <defs>
       <path id="DejaVuSans-76" d="M 191 3500 
L 800 3500 
L 1894 563 
L 2988 3500 
L 3597 3500 
L 2284 0 
L 1503 0 
L 191 3500 
z
" transform="scale(0.015625)"/>
       <path id="DejaVuSans-65" d="M 3597 1894 
L 3597 1613 
L 953 1613 
Q 991 1019 1311 708 
Q 1631 397 2203 397 
Q 2534 397 2845 478 
Q 3156 559 3463 722 
L 3463 178 
Q 3153 47 2828 -22 
Q 2503 -91 2169 -91 
Q 1331 -91 842 396 
Q 353 884 353 1716 
Q 353 2575 817 3079 
Q 1281 3584 2069 3584 
Q 2775 3584 3186 3129 
Q 3597 2675 3597 1894 
z
M 3022 2063 
Q 3016 2534 2758 2815 
Q 2500 3097 2075 3097 
Q 1594 3097 1305 2825 
Q 1016 2553 972 2059 
L 3022 2063 
z
" transform="scale(0.015625)"/>
       <path id="DejaVuSans-6c" d="M 603 4863 
L 1178 4863 
L 1178 0 
L 603 0 
L 603 4863 
z
" transform="scale(0.015625)"/>
       <path id="DejaVuSans-6f" d="M 1959 3097 
Q 1497 3097 1228 2736 
Q 959 2375 959 1747 
Q 959 1119 1226 758 
Q 1494 397 1959 397 
Q 2419 397 2687 759 
Q 2956 1122 2956 1747 
Q 2956 2369 2687 2733 
Q 2419 3097 1959 3097 
z
M 1959 3584 
Q 2709 3584 3137 3096 
Q 3566 2609 3566 1747 
Q 3566 888 3137 398 
Q 2709 -91 1959 -91 
Q 1206 -91 779 398 
Q 353 888 353 1747 
Q 353 2609 779 3096 
Q 1206 3584 1959 3584 
z
" transform="scale(0.015625)"/>
       <path id="DejaVuSans-63" d="M 3122 3366 
L 3122 2828 
Q 2878 2963 2633 3030 
Q 2388 3097 2138 3097 
Q 1578 3097 1268 2742 
Q 959 2388 959 1747 
Q 959 1106 1268 751 
Q 1578 397 2138 397 
Q 2388 397 2633 464 
Q 2878 531 3122 666 
L 3122 134 
Q 2881 22 2623 -34 
Q 2366 -91 2075 -91 
Q 1284 -91 818 406 
Q 353 903 353 1747 
Q 353 2603 823 3093 
Q 1294 3584 2113 3584 
Q 2378 3584 2631 3529 
Q 2884 3475 3122 3366 
z
" transform="scale(0.015625)"/>
       <path id="DejaVuSans-69" d="M 603 3500 
L 1178 3500 
L 1178 0 
L 603 0 
L 603 3500 
z
M 603 4863 
L 1178 4863 
L 1178 4134 
L 603 4134 
L 603 4863 
z
" transform="scale(0.015625)"/>
       <path id="DejaVuSans-74" d="M 1172 4494 
L 1172 3500 
L 2356 3500 
L 2356 3053 
L 1172 3053 
L 1172 1153 
Q 1172 725 1289 603 
Q 1406 481 1766 481 
L 2356 481 
L 2356 0 
L 1766 0 
Q 1100 0 847 248 
Q 594 497 594 1153 
L 594 3053 
L 172 3053 
L 172 3500 
L 594 3500 
L 594 4494 
L 1172 4494 
z
" transform="scale(0.015625)"/>
       <path id="DejaVuSans-79" d="M 2059 -325 
Q 1816 -950 1584 -1140 
Q 1353 -1331 966 -1331 
L 506 -1331 
L 506 -850 
L 844 -850 
Q 1081 -850 1212 -737 
Q 1344 -625 1503 -206 
L 1606 56 
L 191 3500 
L 800 3500 
L 1894 763 
L 2988 3500 
L 3597 3500 
L 2059 -325 
z
" transform="scale(0.015625)"/>
       <path id="DejaVuSans-20" transform="scale(0.015625)"/>
       <path id="DejaVuSans-5b" d="M 550 4863 
L 1875 4863 
L 1875 4416 
L 1125 4416 
L 1125 -397 
L 1875 -397 
L 1875 -844 
L 550 -844 
L 550 4863 
z
" transform="scale(0.015625)"/>
       <path id="DejaVuSans-6d" d="M 3328 2828 
Q 3544 3216 3844 3400 
Q 4144 3584 4550 3584 
Q 5097 3584 5394 3201 
Q 5691 2819 5691 2113 
L 5691 0 
L 5113 0 
L 5113 2094 
Q 5113 2597 4934 2840 
Q 4756 3084 4391 3084 
Q 3944 3084 3684 2787 
Q 3425 2491 3425 1978 
L 3425 0 
L 2847 0 
L 2847 2094 
Q 2847 2600 2669 2842 
Q 2491 3084 2119 3084 
Q 1678 3084 1418 2786 
Q 1159 2488 1159 1978 
L 1159 0 
L 581 0 
L 581 3500 
L 1159 3500 
L 1159 2956 
Q 1356 3278 1631 3431 
Q 1906 3584 2284 3584 
Q 2666 3584 2933 3390 
Q 3200 3197 3328 2828 
z
" transform="scale(0.015625)"/>
       <path id="DejaVuSans-2f" d="M 1625 4666 
L 2156 4666 
L 531 -594 
L 0 -594 
L 1625 4666 
z
" transform="scale(0.015625)"/>
       <path id="DejaVuSans-73" d="M 2834 3397 
L 2834 2853 
Q 2591 2978 2328 3040 
Q 2066 3103 1784 3103 
Q 1356 3103 1142 2972 
Q 928 2841 928 2578 
Q 928 2378 1081 2264 
Q 1234 2150 1697 2047 
L 1894 2003 
Q 2506 1872 2764 1633 
Q 3022 1394 3022 966 
Q 3022 478 2636 193 
Q 2250 -91 1575 -91 
Q 1294 -91 989 -36 
Q 684 19 347 128 
L 347 722 
Q 666 556 975 473 
Q 1284 391 1588 391 
Q 1994 391 2212 530 
Q 2431 669 2431 922 
Q 2431 1156 2273 1281 
Q 2116 1406 1581 1522 
L 1381 1569 
Q 847 1681 609 1914 
Q 372 2147 372 2553 
Q 372 3047 722 3315 
Q 1072 3584 1716 3584 
Q 2034 3584 2315 3537 
Q 2597 3491 2834 3397 
z
" transform="scale(0.015625)"/>
       <path id="DejaVuSans-5d" d="M 1947 4863 
L 1947 -844 
L 622 -844 
L 622 -397 
L 1369 -397 
L 1369 4416 
L 622 4416 
L 622 4863 
L 1947 4863 
z
" transform="scale(0.015625)"/>
      </defs>
      <use xlink:href="#DejaVuSans-76"/>
      <use xlink:href="#DejaVuSans-65" x="59.179688"/>
      <use xlink:href="#DejaVuSans-6c" x="120.703125"/>
      <use xlink:href="#DejaVuSans-6f" x="148.486328"/>
      <use xlink:href="#DejaVuSans-63" x="209.667969"/>
      <use xlink:href="#DejaVuSans-69" x="264.648438"/>
      <use xlink:href="#DejaVuSans-74" x="292.431641"/>
      <use xlink:href="#DejaVuSans-79" x="331.640625"/>
      <use xlink:href="#DejaVuSans-20" x="390.820312"/>
      <use xlink:href="#DejaVuSans-5b" x="422.607422"/>
      <use xlink:href="#DejaVuSans-6d" x="461.621094"/>
      <use xlink:href="#DejaVuSans-2f" x="559.033203"/>
      <use xlink:href="#DejaVuSans-73" x="592.724609"/>
      <use xlink:href="#DejaVuSans-5d" x="644.824219"/>
     </g>
    </g>
   </g>
   <g id="line2d_32">
    <path d="M 213.422727 342.22176 
L 213.891955 342.108422 
L 214.361182 341.775264 
L 214.830409 341.232688 
L 215.768864 339.561641 
L 216.707318 337.18138 
L 217.645773 334.179957 
L 219.053455 328.709524 
L 220.930364 320.086274 
L 224.684182 301.010069 
L 227.030318 289.857872 
L 228.438 284.085985 
L 229.845682 279.280787 
L 230.784136 276.706902 
L 231.722591 274.688603 
L 232.661045 273.258889 
L 233.5995 272.439137 
L 234.068727 272.261171 
L 234.537955 272.23776 
L 235.007182 272.367699 
L 235.476409 272.648791 
L 236.414864 273.650405 
L 237.353318 275.203401 
L 238.291773 277.249714 
L 239.699455 281.067134 
L 242.045591 288.485264 
L 243.9225 294.059261 
L 244.860955 296.273658 
L 245.799409 297.951685 
L 246.737864 299.144305 
L 247.676318 299.92232 
L 248.614773 300.350543 
L 249.553227 300.485587 
L 250.491682 300.375228 
L 251.430136 300.05911 
L 252.837818 299.270221 
L 254.2455 298.186152 
L 256.122409 296.428142 
L 261.283909 291.356525 
L 262.691591 290.325601 
L 264.099273 289.586691 
L 265.506955 289.182547 
L 266.445409 289.106872 
L 267.853091 289.272126 
L 269.260773 289.726977 
L 271.137682 290.633535 
L 273.953045 292.057563 
L 275.360727 292.540232 
L 276.768409 292.777497 
L 278.645318 292.788531 
L 281.460682 292.504864 
L 285.683727 292.090573 
L 288.499091 292.035401 
L 291.314455 292.190444 
L 294.599045 292.602304 
L 302.106682 293.708768 
L 303.983591 293.738239 
L 305.8605 293.580367 
L 308.675864 293.076735 
L 315.714273 291.68948 
L 318.529636 291.404476 
L 321.345 291.36529 
L 324.160364 291.574097 
L 327.444955 292.080157 
L 337.298727 293.873679 
L 339.644864 293.947777 
L 341.991 293.785461 
L 344.806364 293.337942 
L 349.029409 292.374928 
L 353.252455 291.455088 
L 356.067818 291.085209 
L 358.413955 291.01431 
L 360.760091 291.193073 
L 363.106227 291.617094 
L 365.921591 292.375951 
L 370.144636 293.571918 
L 372.490773 293.941947 
L 374.836909 294.052855 
L 377.183045 293.943108 
L 379.998409 293.589201 
L 384.690682 292.721017 
L 389.382955 291.923897 
L 392.198318 291.650943 
L 395.013682 291.593336 
L 397.829045 291.745879 
L 403.929 292.401019 
L 409.0905 292.820297 
L 413.782773 292.980263 
L 418.944273 292.926927 
L 433.490318 292.622919 
L 443.344091 292.601336 
L 450.851727 292.286396 
L 456.951682 292.107354 
L 461.174727 292.20074 
L 470.090045 292.724813 
L 478.536136 293.145779 
L 483.228409 293.158294 
L 487.451455 292.940449 
L 492.612955 292.411703 
L 497.774455 291.918291 
L 501.528273 291.793056 
L 505.282091 291.887732 
L 509.505136 292.21744 
L 523.112727 293.49199 
L 526.397318 293.479573 
L 530.151136 293.225075 
L 535.312636 292.616459 
L 541.881818 291.863748 
L 545.635636 291.662551 
L 548.920227 291.696524 
L 552.674045 291.971863 
L 563.466273 292.98291 
L 568.158545 293.085728 
L 573.789273 292.982268 
L 588.804545 292.57639 
L 604.289045 292.38635 
L 614.612045 292.257831 
L 623.058136 292.447462 
L 646.050273 292.983861 
L 651.681 292.69222 
L 662.473227 292.078957 
L 667.634727 292.041737 
L 672.327 292.230867 
L 678.426955 292.726149 
L 684.057682 293.131623 
L 688.280727 293.174288 
L 692.973 292.990823 
L 708.926727 292.151417 
L 714.557455 292.25884 
L 731.449636 292.705942 
L 748.341818 292.740132 
L 770.3955 292.491655 
L 781.187727 292.519813 
L 792.449182 292.497448 
L 812.625955 292.711821 
L 827.641227 292.311249 
L 833.271955 292.478908 
L 843.125727 292.846705 
L 849.225682 292.751559 
L 864.240955 292.374912 
L 870.810136 292.528326 
L 881.602364 292.785817 
L 888.640773 292.7141 
L 904.125273 292.466906 
L 935.094273 292.536647 
L 942.601909 292.8123 
L 951.986455 293.202459 
L 955.740273 293.138561 
L 959.494091 292.852277 
L 971.694 291.62924 
L 975.447818 291.641852 
L 979.201636 291.897409 
L 983.424682 292.425765 
L 992.809227 293.722448 
L 995.624591 293.809348 
L 997.970727 293.656456 
L 1000.786091 293.252357 
L 1011.578318 291.409675 
L 1013.924455 291.334875 
L 1016.270591 291.461939 
L 1019.085955 291.871869 
L 1022.839773 292.715307 
L 1026.124364 293.427793 
L 1028.001273 293.655523 
L 1030.347409 293.699752 
L 1033.162773 293.4762 
L 1036.916591 292.896429 
L 1043.016545 291.931224 
L 1045.831909 291.713128 
L 1048.647273 291.722486 
L 1051.462636 291.959413 
L 1055.685682 292.590207 
L 1059.4395 293.089259 
L 1062.254864 293.242152 
L 1065.539455 293.182912 
L 1069.7625 292.857267 
L 1076.331682 292.349307 
L 1079.616273 292.319705 
L 1082.900864 292.502202 
L 1091.346955 293.150737 
L 1093.223864 292.95751 
L 1095.100773 292.557771 
L 1097.446909 291.813852 
L 1102.608409 290.047888 
L 1104.016091 289.796405 
L 1105.423773 289.745042 
L 1106.831455 289.934963 
L 1108.239136 290.392822 
L 1109.646818 291.126769 
L 1111.0545 292.123008 
L 1112.931409 293.789009 
L 1118.092909 298.737613 
L 1119.031364 299.317464 
L 1119.969818 299.650761 
L 1120.908273 299.652084 
L 1121.846727 299.264581 
L 1122.785182 298.498045 
L 1123.723636 297.37315 
L 1124.662091 295.919727 
L 1126.069773 293.217985 
L 1127.946682 288.954658 
L 1130.762045 282.381261 
L 1132.169727 279.636371 
L 1133.108182 278.20293 
L 1134.046636 277.18013 
L 1134.985091 276.641246 
L 1135.454318 276.574018 
L 1135.923545 276.651498 
L 1136.392773 276.880277 
L 1136.862 277.26621 
L 1137.800455 278.528893 
L 1138.738909 280.469241 
L 1139.677364 283.101014 
L 1140.615818 286.419815 
L 1141.554273 290.400744 
L 1142.961955 297.501991 
L 1144.838864 308.619075 
L 1148.592682 331.832195 
L 1149.531136 336.461163 
L 1150.469591 339.971502 
L 1150.938818 341.180405 
L 1151.408045 341.950627 
L 1151.877273 342.221624 
L 1151.877273 342.221624 
" clip-path="url(#p63f24f0798)" style="fill: none; stroke: #1f77b4; stroke-width: 1.5; stroke-linecap: square"/>
   </g>
   <g id="patch_7">
    <path d="M 166.5 345.72096 
L 166.5 268.73856 
" style="fill: none; stroke: #000000; stroke-width: 0.8; stroke-linejoin: miter; stroke-linecap: square"/>
   </g>
   <g id="patch_8">
    <path d="M 1198.8 345.72096 
L 1198.8 268.73856 
" style="fill: none; stroke: #000000; stroke-width: 0.8; stroke-linejoin: miter; stroke-linecap: square"/>
   </g>
   <g id="patch_9">
    <path d="M 166.5 345.72096 
L 1198.8 345.72096 
" style="fill: none; stroke: #000000; stroke-width: 0.8; stroke-linejoin: miter; stroke-linecap: square"/>
   </g>
   <g id="patch_10">
    <path d="M 166.5 268.73856 
L 1198.8 268.73856 
" style="fill: none; stroke: #000000; stroke-width: 0.8; stroke-linejoin: miter; stroke-linecap: square"/>
   </g>
  </g>
  <g id="axes_3">
   <g id="patch_11">
    <path d="M 166.5 438.09984 
L 1198.8 438.09984 
L 1198.8 361.11744 
L 166.5 361.11744 
z
" style="fill: #ffffff"/>
   </g>
   <g id="matplotlib.axis_3">
    <g id="xtick_25">
     <g id="line2d_33">
      <g>
       <use xlink:href="#md494bb3612" x="213.422727" y="438.09984" style="stroke: #000000; stroke-width: 0.8"/>
      </g>
     </g>
     <g id="text_29">
      <!-- 0.0 -->
      <g transform="translate(205.471165 452.698278)scale(0.1 -0.1)">
       <use xlink:href="#DejaVuSans-30"/>
       <use xlink:href="#DejaVuSans-2e" x="63.623047"/>
       <use xlink:href="#DejaVuSans-30" x="95.410156"/>
      </g>
     </g>
    </g>
    <g id="xtick_26">
     <g id="line2d_34">
      <g>
       <use xlink:href="#md494bb3612" x="330.729545" y="438.09984" style="stroke: #000000; stroke-width: 0.8"/>
      </g>
     </g>
     <g id="text_30">
      <!-- 2.5 -->
      <g transform="translate(322.777983 452.698278)scale(0.1 -0.1)">
       <use xlink:href="#DejaVuSans-32"/>
       <use xlink:href="#DejaVuSans-2e" x="63.623047"/>
       <use xlink:href="#DejaVuSans-35" x="95.410156"/>
      </g>
     </g>
    </g>
    <g id="xtick_27">
     <g id="line2d_35">
      <g>
       <use xlink:href="#md494bb3612" x="448.036364" y="438.09984" style="stroke: #000000; stroke-width: 0.8"/>
      </g>
     </g>
     <g id="text_31">
      <!-- 5.0 -->
      <g transform="translate(440.084801 452.698278)scale(0.1 -0.1)">
       <use xlink:href="#DejaVuSans-35"/>
       <use xlink:href="#DejaVuSans-2e" x="63.623047"/>
       <use xlink:href="#DejaVuSans-30" x="95.410156"/>
      </g>
     </g>
    </g>
    <g id="xtick_28">
     <g id="line2d_36">
      <g>
       <use xlink:href="#md494bb3612" x="565.343182" y="438.09984" style="stroke: #000000; stroke-width: 0.8"/>
      </g>
     </g>
     <g id="text_32">
      <!-- 7.5 -->
      <g transform="translate(557.391619 452.698278)scale(0.1 -0.1)">
       <use xlink:href="#DejaVuSans-37"/>
       <use xlink:href="#DejaVuSans-2e" x="63.623047"/>
       <use xlink:href="#DejaVuSans-35" x="95.410156"/>
      </g>
     </g>
    </g>
    <g id="xtick_29">
     <g id="line2d_37">
      <g>
       <use xlink:href="#md494bb3612" x="682.65" y="438.09984" style="stroke: #000000; stroke-width: 0.8"/>
      </g>
     </g>
     <g id="text_33">
      <!-- 10.0 -->
      <g transform="translate(671.517188 452.698278)scale(0.1 -0.1)">
       <use xlink:href="#DejaVuSans-31"/>
       <use xlink:href="#DejaVuSans-30" x="63.623047"/>
       <use xlink:href="#DejaVuSans-2e" x="127.246094"/>
       <use xlink:href="#DejaVuSans-30" x="159.033203"/>
      </g>
     </g>
    </g>
    <g id="xtick_30">
     <g id="line2d_38">
      <g>
       <use xlink:href="#md494bb3612" x="799.956818" y="438.09984" style="stroke: #000000; stroke-width: 0.8"/>
      </g>
     </g>
     <g id="text_34">
      <!-- 12.5 -->
      <g transform="translate(788.824006 452.698278)scale(0.1 -0.1)">
       <use xlink:href="#DejaVuSans-31"/>
       <use xlink:href="#DejaVuSans-32" x="63.623047"/>
       <use xlink:href="#DejaVuSans-2e" x="127.246094"/>
       <use xlink:href="#DejaVuSans-35" x="159.033203"/>
      </g>
     </g>
    </g>
    <g id="xtick_31">
     <g id="line2d_39">
      <g>
       <use xlink:href="#md494bb3612" x="917.263636" y="438.09984" style="stroke: #000000; stroke-width: 0.8"/>
      </g>
     </g>
     <g id="text_35">
      <!-- 15.0 -->
      <g transform="translate(906.130824 452.698278)scale(0.1 -0.1)">
       <use xlink:href="#DejaVuSans-31"/>
       <use xlink:href="#DejaVuSans-35" x="63.623047"/>
       <use xlink:href="#DejaVuSans-2e" x="127.246094"/>
       <use xlink:href="#DejaVuSans-30" x="159.033203"/>
      </g>
     </g>
    </g>
    <g id="xtick_32">
     <g id="line2d_40">
      <g>
       <use xlink:href="#md494bb3612" x="1034.570455" y="438.09984" style="stroke: #000000; stroke-width: 0.8"/>
      </g>
     </g>
     <g id="text_36">
      <!-- 17.5 -->
      <g transform="translate(1023.437642 452.698278)scale(0.1 -0.1)">
       <use xlink:href="#DejaVuSans-31"/>
       <use xlink:href="#DejaVuSans-37" x="63.623047"/>
       <use xlink:href="#DejaVuSans-2e" x="127.246094"/>
       <use xlink:href="#DejaVuSans-35" x="159.033203"/>
      </g>
     </g>
    </g>
    <g id="xtick_33">
     <g id="line2d_41">
      <g>
       <use xlink:href="#md494bb3612" x="1151.877273" y="438.09984" style="stroke: #000000; stroke-width: 0.8"/>
      </g>
     </g>
     <g id="text_37">
      <!-- 20.0 -->
      <g transform="translate(1140.74446 452.698278)scale(0.1 -0.1)">
       <use xlink:href="#DejaVuSans-32"/>
       <use xlink:href="#DejaVuSans-30" x="63.623047"/>
       <use xlink:href="#DejaVuSans-2e" x="127.246094"/>
       <use xlink:href="#DejaVuSans-30" x="159.033203"/>
      </g>
     </g>
    </g>
   </g>
   <g id="matplotlib.axis_4">
    <g id="ytick_4">
     <g id="line2d_42">
      <g>
       <use xlink:href="#m6c131d7422" x="166.5" y="434.60064" style="stroke: #000000; stroke-width: 0.8"/>
      </g>
     </g>
     <g id="text_38">
      <!-- 0 -->
      <g transform="translate(153.1375 438.399859)scale(0.1 -0.1)">
       <use xlink:href="#DejaVuSans-30"/>
      </g>
     </g>
    </g>
    <g id="ytick_5">
     <g id="line2d_43">
      <g>
       <use xlink:href="#m6c131d7422" x="166.5" y="386.099308" style="stroke: #000000; stroke-width: 0.8"/>
      </g>
     </g>
     <g id="text_39">
      <!-- 2 -->
      <g transform="translate(153.1375 389.898527)scale(0.1 -0.1)">
       <use xlink:href="#DejaVuSans-32"/>
      </g>
     </g>
    </g>
    <g id="text_40">
     <!-- acceleration [m/s^2] -->
     <g transform="translate(147.057812 452.431296)rotate(-90)scale(0.1 -0.1)">
      <defs>
       <path id="DejaVuSans-61" d="M 2194 1759 
Q 1497 1759 1228 1600 
Q 959 1441 959 1056 
Q 959 750 1161 570 
Q 1363 391 1709 391 
Q 2188 391 2477 730 
Q 2766 1069 2766 1631 
L 2766 1759 
L 2194 1759 
z
M 3341 1997 
L 3341 0 
L 2766 0 
L 2766 531 
Q 2569 213 2275 61 
Q 1981 -91 1556 -91 
Q 1019 -91 701 211 
Q 384 513 384 1019 
Q 384 1609 779 1909 
Q 1175 2209 1959 2209 
L 2766 2209 
L 2766 2266 
Q 2766 2663 2505 2880 
Q 2244 3097 1772 3097 
Q 1472 3097 1187 3025 
Q 903 2953 641 2809 
L 641 3341 
Q 956 3463 1253 3523 
Q 1550 3584 1831 3584 
Q 2591 3584 2966 3190 
Q 3341 2797 3341 1997 
z
" transform="scale(0.015625)"/>
       <path id="DejaVuSans-72" d="M 2631 2963 
Q 2534 3019 2420 3045 
Q 2306 3072 2169 3072 
Q 1681 3072 1420 2755 
Q 1159 2438 1159 1844 
L 1159 0 
L 581 0 
L 581 3500 
L 1159 3500 
L 1159 2956 
Q 1341 3275 1631 3429 
Q 1922 3584 2338 3584 
Q 2397 3584 2469 3576 
Q 2541 3569 2628 3553 
L 2631 2963 
z
" transform="scale(0.015625)"/>
       <path id="DejaVuSans-6e" d="M 3513 2113 
L 3513 0 
L 2938 0 
L 2938 2094 
Q 2938 2591 2744 2837 
Q 2550 3084 2163 3084 
Q 1697 3084 1428 2787 
Q 1159 2491 1159 1978 
L 1159 0 
L 581 0 
L 581 3500 
L 1159 3500 
L 1159 2956 
Q 1366 3272 1645 3428 
Q 1925 3584 2291 3584 
Q 2894 3584 3203 3211 
Q 3513 2838 3513 2113 
z
" transform="scale(0.015625)"/>
       <path id="DejaVuSans-5e" d="M 2988 4666 
L 4684 2925 
L 4056 2925 
L 2681 4159 
L 1306 2925 
L 678 2925 
L 2375 4666 
L 2988 4666 
z
" transform="scale(0.015625)"/>
      </defs>
      <use xlink:href="#DejaVuSans-61"/>
      <use xlink:href="#DejaVuSans-63" x="61.279297"/>
      <use xlink:href="#DejaVuSans-63" x="116.259766"/>
      <use xlink:href="#DejaVuSans-65" x="171.240234"/>
      <use xlink:href="#DejaVuSans-6c" x="232.763672"/>
      <use xlink:href="#DejaVuSans-65" x="260.546875"/>
      <use xlink:href="#DejaVuSans-72" x="322.070312"/>
      <use xlink:href="#DejaVuSans-61" x="363.183594"/>
      <use xlink:href="#DejaVuSans-74" x="424.462891"/>
      <use xlink:href="#DejaVuSans-69" x="463.671875"/>
      <use xlink:href="#DejaVuSans-6f" x="491.455078"/>
      <use xlink:href="#DejaVuSans-6e" x="552.636719"/>
      <use xlink:href="#DejaVuSans-20" x="616.015625"/>
      <use xlink:href="#DejaVuSans-5b" x="647.802734"/>
      <use xlink:href="#DejaVuSans-6d" x="686.816406"/>
      <use xlink:href="#DejaVuSans-2f" x="784.228516"/>
      <use xlink:href="#DejaVuSans-73" x="817.919922"/>
      <use xlink:href="#DejaVuSans-5e" x="870.019531"/>
      <use xlink:href="#DejaVuSans-32" x="953.808594"/>
      <use xlink:href="#DejaVuSans-5d" x="1017.431641"/>
     </g>
    </g>
   </g>
   <g id="line2d_44">
    <path d="M 213.422727 434.60064 
L 214.830409 419.660753 
L 216.238091 406.938929 
L 217.645773 396.514457 
L 218.584227 390.87008 
L 219.522682 386.28259 
L 220.461136 382.756157 
L 221.399591 380.288299 
L 221.868818 379.448575 
L 222.338045 378.8692 
L 222.807273 378.547678 
L 223.2765 378.480954 
L 223.745727 378.665387 
L 224.214955 379.09671 
L 224.684182 379.769999 
L 225.622636 381.81918 
L 226.561091 384.758323 
L 227.499545 388.518043 
L 228.907227 395.495628 
L 230.784136 406.563164 
L 232.191818 414.985651 
L 233.130273 419.346344 
L 233.5995 420.572022 
L 234.068727 420.854338 
L 234.537955 420.128912 
L 235.007182 418.542639 
L 235.945636 413.76966 
L 238.761 397.299135 
L 239.699455 392.977451 
L 240.637909 389.815835 
L 241.107136 388.764663 
L 241.576364 388.117127 
L 242.045591 387.911641 
L 242.514818 388.187172 
L 242.984045 388.983261 
L 243.453273 390.339941 
L 243.9225 392.297507 
L 244.391727 394.896003 
L 246.737864 410.604457 
L 248.145545 418.551323 
L 249.084 422.992904 
L 250.022455 426.448825 
L 250.491682 427.636018 
L 250.960909 428.337959 
L 251.430136 428.510283 
L 251.899364 428.220908 
L 252.837818 426.859454 
L 254.2455 424.502136 
L 255.183955 423.271243 
L 256.122409 422.456139 
L 257.060864 422.091918 
L 257.530091 422.080451 
L 258.468545 422.389375 
L 259.407 423.112789 
L 260.345455 424.193899 
L 263.160818 428.073148 
L 263.630045 428.350124 
L 264.099273 428.333557 
L 264.5685 427.986823 
L 265.037727 427.327217 
L 265.976182 425.296875 
L 267.383864 421.299561 
L 270.199227 413.004469 
L 271.137682 410.746866 
L 272.076136 408.983339 
L 273.014591 407.863354 
L 273.483818 407.593567 
L 273.953045 407.544457 
L 274.422273 407.737185 
L 274.8915 408.193534 
L 275.360727 408.935895 
L 276.299182 411.287993 
L 278.645318 417.437047 
L 280.522227 421.721607 
L 281.929909 424.506462 
L 283.337591 426.885775 
L 284.745273 428.828272 
L 286.152955 430.304598 
L 287.091409 431.015846 
L 288.029864 431.500727 
L 288.968318 431.757989 
L 289.906773 431.795718 
L 290.845227 431.629993 
L 291.783682 431.277877 
L 293.191364 430.428655 
L 294.599045 429.227856 
L 296.006727 427.72443 
L 297.883636 425.373417 
L 302.106682 419.876468 
L 303.514364 418.48863 
L 304.452818 417.84064 
L 305.391273 417.487156 
L 306.329727 417.495978 
L 306.798955 417.658729 
L 308.206636 418.628528 
L 313.837364 422.655409 
L 316.1835 424.093144 
L 318.060409 425.046151 
L 319.937318 425.774462 
L 321.814227 426.24604 
L 323.691136 426.451824 
L 325.568045 426.409726 
L 327.444955 426.158528 
L 329.791091 425.62273 
L 333.075682 424.615764 
L 339.175636 422.67516 
L 341.521773 422.173428 
L 343.867909 421.89588 
L 346.214045 421.866273 
L 348.560182 422.081359 
L 351.375545 422.610477 
L 358.883182 424.282079 
L 361.229318 424.439334 
L 363.575455 424.352092 
L 369.206182 423.995182 
L 374.836909 423.961129 
L 381.875318 423.858681 
L 392.198318 423.891664 
L 395.482909 423.547145 
L 401.113636 422.855068 
L 405.336682 422.774719 
L 409.0905 422.932088 
L 412.844318 423.333148 
L 417.067364 424.040957 
L 425.044227 425.492914 
L 427.390364 425.669067 
L 429.267273 425.61058 
L 431.144182 425.307043 
L 433.021091 424.711986 
L 436.774909 423.509148 
L 439.590273 422.813034 
L 442.405636 422.348891 
L 444.751773 422.163978 
L 447.097909 422.171169 
L 449.913273 422.423266 
L 452.728636 422.899406 
L 457.890136 424.062508 
L 461.174727 424.700857 
L 463.520864 424.954548 
L 466.805455 425.031361 
L 470.559273 424.884207 
L 474.313091 424.516411 
L 479.474591 423.769424 
L 486.043773 422.826221 
L 489.328364 422.600439 
L 491.6745 422.642315 
L 494.020636 422.913439 
L 501.059045 424.122483 
L 504.343636 424.389106 
L 508.097455 424.463427 
L 512.789727 424.311265 
L 527.805 423.632952 
L 533.904955 423.661216 
L 546.574091 423.855323 
L 551.266364 423.578294 
L 556.897091 423.223381 
L 561.589364 423.269834 
L 566.750864 423.508537 
L 572.381591 424.004616 
L 582.235364 424.95813 
L 585.050727 424.985448 
L 587.396864 424.807531 
L 590.212227 424.316176 
L 595.842955 423.3719 
L 600.066 422.905915 
L 603.819818 422.734563 
L 607.573636 422.809605 
L 611.796682 423.153193 
L 618.365864 423.976361 
L 623.058136 424.480108 
L 626.811955 424.662037 
L 630.565773 424.635123 
L 634.788818 424.386171 
L 641.358 423.734574 
L 646.5195 423.289943 
L 649.804091 423.207836 
L 653.557909 423.382249 
L 665.757818 423.952618 
L 672.327 424.035459 
L 679.834636 423.886132 
L 689.688409 423.70371 
L 696.257591 423.828248 
L 708.4575 424.145591 
L 712.211318 423.980323 
L 724.411227 423.17082 
L 728.634273 423.258683 
L 732.857318 423.580138 
L 743.649545 424.593741 
L 746.464909 424.533147 
L 754.911 424.065652 
L 769.457045 423.188695 
L 773.210864 423.197824 
L 776.495455 423.437726 
L 782.126182 423.989731 
L 786.818455 424.245716 
L 791.510727 424.285614 
L 796.672227 424.103287 
L 808.402909 423.573623 
L 817.787455 423.682085 
L 832.802727 423.911887 
L 851.571818 423.87253 
L 864.710182 424.035798 
L 869.402455 423.811903 
L 877.379318 423.291162 
L 881.602364 423.293146 
L 885.356182 423.513623 
L 890.048455 424.038067 
L 896.617636 424.81701 
L 899.433 424.896832 
L 901.309909 424.759635 
L 915.386727 422.902285 
L 919.140545 422.70563 
L 922.894364 422.741391 
L 926.178955 422.987757 
L 929.463545 423.446468 
L 932.748136 424.123518 
L 936.032727 424.801033 
L 938.848091 425.149269 
L 941.663455 425.266839 
L 944.478818 425.158577 
L 947.763409 424.780688 
L 951.517227 424.107411 
L 958.555636 422.77548 
L 960.901773 422.561653 
L 962.778682 422.572929 
L 964.655591 422.788111 
L 970.755545 423.580038 
L 974.978591 423.913496 
L 979.201636 424.028635 
L 984.832364 423.938172 
L 993.278455 423.811885 
L 1004.070682 423.942631 
L 1010.639864 424.15718 
L 1013.455227 423.978546 
L 1015.801364 423.614766 
L 1019.555182 422.756986 
L 1022.370545 422.217112 
L 1024.247455 422.122546 
L 1025.655136 422.282576 
L 1027.062818 422.685609 
L 1030.816636 423.847622 
L 1034.101227 424.651417 
L 1037.385818 425.230268 
L 1040.201182 425.497277 
L 1042.547318 425.490761 
L 1044.424227 425.289712 
L 1046.301136 424.891062 
L 1048.647273 424.125781 
L 1051.931864 422.732366 
L 1054.747227 421.588101 
L 1056.624136 421.086193 
L 1058.031818 420.961356 
L 1059.908727 421.078343 
L 1061.785636 421.392268 
L 1064.131773 422.042392 
L 1066.477909 422.94123 
L 1069.293273 424.263553 
L 1075.862455 427.480732 
L 1077.739364 428.110208 
L 1079.147045 428.390905 
L 1080.554727 428.460729 
L 1081.962409 428.281098 
L 1083.370091 427.816379 
L 1084.777773 427.028943 
L 1086.185455 425.872891 
L 1087.593136 424.290692 
L 1089.000818 422.213809 
L 1090.877727 419.186543 
L 1092.285409 417.430868 
L 1093.223864 416.537056 
L 1094.162318 415.875306 
L 1095.100773 415.452356 
L 1096.039227 415.272485 
L 1096.977682 415.337177 
L 1097.916136 415.644715 
L 1098.854591 416.189664 
L 1099.793045 416.962215 
L 1101.200727 418.513059 
L 1102.608409 420.459773 
L 1106.831455 426.786876 
L 1107.769909 427.526109 
L 1108.239136 427.672828 
L 1108.708364 427.657999 
L 1109.177591 427.489789 
L 1110.116045 426.786793 
L 1113.400636 423.494376 
L 1114.339091 423.041279 
L 1114.808318 422.973509 
L 1115.277545 423.026363 
L 1115.746773 423.208227 
L 1116.685227 423.973053 
L 1117.623682 425.212826 
L 1118.562136 426.555869 
L 1119.031364 426.938067 
L 1119.500591 426.815249 
L 1119.969818 425.96821 
L 1120.439045 424.327987 
L 1124.192864 406.493039 
L 1125.131318 403.464486 
L 1126.069773 401.25774 
L 1126.539 400.477854 
L 1127.008227 399.919694 
L 1127.477455 399.58659 
L 1127.946682 399.480877 
L 1128.415909 399.603839 
L 1128.885136 399.955619 
L 1129.354364 400.535083 
L 1129.823591 401.339638 
L 1130.762045 403.604645 
L 1131.7005 406.687265 
L 1133.108182 412.544007 
L 1134.515864 418.811579 
L 1134.985091 420.479678 
L 1135.454318 421.559327 
L 1135.923545 421.768266 
L 1136.392773 420.953187 
L 1136.862 419.189055 
L 1137.800455 413.687002 
L 1139.208136 403.063949 
L 1142.0235 381.031711 
L 1143.431182 372.133349 
L 1144.369636 367.787115 
L 1144.838864 366.232452 
L 1145.308091 365.157839 
L 1145.777318 364.61664 
L 1146.246545 364.664365 
L 1146.715773 365.358743 
L 1147.185 366.759792 
L 1147.654227 368.929875 
L 1148.123455 371.933758 
L 1148.592682 375.838668 
L 1149.531136 386.633061 
L 1150.469591 401.901936 
L 1151.408045 422.276652 
L 1151.877273 434.587983 
L 1151.877273 434.587983 
" clip-path="url(#pe20d8a5553)" style="fill: none; stroke: #1f77b4; stroke-width: 1.5; stroke-linecap: square"/>
   </g>
   <g id="patch_12">
    <path d="M 166.5 438.09984 
L 166.5 361.11744 
" style="fill: none; stroke: #000000; stroke-width: 0.8; stroke-linejoin: miter; stroke-linecap: square"/>
   </g>
   <g id="patch_13">
    <path d="M 1198.8 438.09984 
L 1198.8 361.11744 
" style="fill: none; stroke: #000000; stroke-width: 0.8; stroke-linejoin: miter; stroke-linecap: square"/>
   </g>
   <g id="patch_14">
    <path d="M 166.5 438.09984 
L 1198.8 438.09984 
" style="fill: none; stroke: #000000; stroke-width: 0.8; stroke-linejoin: miter; stroke-linecap: square"/>
   </g>
   <g id="patch_15">
    <path d="M 166.5 361.11744 
L 1198.8 361.11744 
" style="fill: none; stroke: #000000; stroke-width: 0.8; stroke-linejoin: miter; stroke-linecap: square"/>
   </g>
  </g>
  <g id="axes_4">
   <g id="patch_16">
    <path d="M 166.5 530.47872 
L 1198.8 530.47872 
L 1198.8 453.49632 
L 166.5 453.49632 
z
" style="fill: #ffffff"/>
   </g>
   <g id="matplotlib.axis_5">
    <g id="xtick_34">
     <g id="line2d_45">
      <g>
       <use xlink:href="#md494bb3612" x="213.422727" y="530.47872" style="stroke: #000000; stroke-width: 0.8"/>
      </g>
     </g>
     <g id="text_41">
      <!-- 0.0 -->
      <g transform="translate(205.471165 545.077157)scale(0.1 -0.1)">
       <use xlink:href="#DejaVuSans-30"/>
       <use xlink:href="#DejaVuSans-2e" x="63.623047"/>
       <use xlink:href="#DejaVuSans-30" x="95.410156"/>
      </g>
     </g>
    </g>
    <g id="xtick_35">
     <g id="line2d_46">
      <g>
       <use xlink:href="#md494bb3612" x="330.729545" y="530.47872" style="stroke: #000000; stroke-width: 0.8"/>
      </g>
     </g>
     <g id="text_42">
      <!-- 2.5 -->
      <g transform="translate(322.777983 545.077157)scale(0.1 -0.1)">
       <use xlink:href="#DejaVuSans-32"/>
       <use xlink:href="#DejaVuSans-2e" x="63.623047"/>
       <use xlink:href="#DejaVuSans-35" x="95.410156"/>
      </g>
     </g>
    </g>
    <g id="xtick_36">
     <g id="line2d_47">
      <g>
       <use xlink:href="#md494bb3612" x="448.036364" y="530.47872" style="stroke: #000000; stroke-width: 0.8"/>
      </g>
     </g>
     <g id="text_43">
      <!-- 5.0 -->
      <g transform="translate(440.084801 545.077157)scale(0.1 -0.1)">
       <use xlink:href="#DejaVuSans-35"/>
       <use xlink:href="#DejaVuSans-2e" x="63.623047"/>
       <use xlink:href="#DejaVuSans-30" x="95.410156"/>
      </g>
     </g>
    </g>
    <g id="xtick_37">
     <g id="line2d_48">
      <g>
       <use xlink:href="#md494bb3612" x="565.343182" y="530.47872" style="stroke: #000000; stroke-width: 0.8"/>
      </g>
     </g>
     <g id="text_44">
      <!-- 7.5 -->
      <g transform="translate(557.391619 545.077157)scale(0.1 -0.1)">
       <use xlink:href="#DejaVuSans-37"/>
       <use xlink:href="#DejaVuSans-2e" x="63.623047"/>
       <use xlink:href="#DejaVuSans-35" x="95.410156"/>
      </g>
     </g>
    </g>
    <g id="xtick_38">
     <g id="line2d_49">
      <g>
       <use xlink:href="#md494bb3612" x="682.65" y="530.47872" style="stroke: #000000; stroke-width: 0.8"/>
      </g>
     </g>
     <g id="text_45">
      <!-- 10.0 -->
      <g transform="translate(671.517188 545.077157)scale(0.1 -0.1)">
       <use xlink:href="#DejaVuSans-31"/>
       <use xlink:href="#DejaVuSans-30" x="63.623047"/>
       <use xlink:href="#DejaVuSans-2e" x="127.246094"/>
       <use xlink:href="#DejaVuSans-30" x="159.033203"/>
      </g>
     </g>
    </g>
    <g id="xtick_39">
     <g id="line2d_50">
      <g>
       <use xlink:href="#md494bb3612" x="799.956818" y="530.47872" style="stroke: #000000; stroke-width: 0.8"/>
      </g>
     </g>
     <g id="text_46">
      <!-- 12.5 -->
      <g transform="translate(788.824006 545.077157)scale(0.1 -0.1)">
       <use xlink:href="#DejaVuSans-31"/>
       <use xlink:href="#DejaVuSans-32" x="63.623047"/>
       <use xlink:href="#DejaVuSans-2e" x="127.246094"/>
       <use xlink:href="#DejaVuSans-35" x="159.033203"/>
      </g>
     </g>
    </g>
    <g id="xtick_40">
     <g id="line2d_51">
      <g>
       <use xlink:href="#md494bb3612" x="917.263636" y="530.47872" style="stroke: #000000; stroke-width: 0.8"/>
      </g>
     </g>
     <g id="text_47">
      <!-- 15.0 -->
      <g transform="translate(906.130824 545.077157)scale(0.1 -0.1)">
       <use xlink:href="#DejaVuSans-31"/>
       <use xlink:href="#DejaVuSans-35" x="63.623047"/>
       <use xlink:href="#DejaVuSans-2e" x="127.246094"/>
       <use xlink:href="#DejaVuSans-30" x="159.033203"/>
      </g>
     </g>
    </g>
    <g id="xtick_41">
     <g id="line2d_52">
      <g>
       <use xlink:href="#md494bb3612" x="1034.570455" y="530.47872" style="stroke: #000000; stroke-width: 0.8"/>
      </g>
     </g>
     <g id="text_48">
      <!-- 17.5 -->
      <g transform="translate(1023.437642 545.077157)scale(0.1 -0.1)">
       <use xlink:href="#DejaVuSans-31"/>
       <use xlink:href="#DejaVuSans-37" x="63.623047"/>
       <use xlink:href="#DejaVuSans-2e" x="127.246094"/>
       <use xlink:href="#DejaVuSans-35" x="159.033203"/>
      </g>
     </g>
    </g>
    <g id="xtick_42">
     <g id="line2d_53">
      <g>
       <use xlink:href="#md494bb3612" x="1151.877273" y="530.47872" style="stroke: #000000; stroke-width: 0.8"/>
      </g>
     </g>
     <g id="text_49">
      <!-- 20.0 -->
      <g transform="translate(1140.74446 545.077157)scale(0.1 -0.1)">
       <use xlink:href="#DejaVuSans-32"/>
       <use xlink:href="#DejaVuSans-30" x="63.623047"/>
       <use xlink:href="#DejaVuSans-2e" x="127.246094"/>
       <use xlink:href="#DejaVuSans-30" x="159.033203"/>
      </g>
     </g>
    </g>
   </g>
   <g id="matplotlib.axis_6">
    <g id="ytick_6">
     <g id="line2d_54">
      <g>
       <use xlink:href="#m6c131d7422" x="166.5" y="506.911945" style="stroke: #000000; stroke-width: 0.8"/>
      </g>
     </g>
     <g id="text_50">
      <!-- 2 -->
      <g transform="translate(153.1375 510.711163)scale(0.1 -0.1)">
       <use xlink:href="#DejaVuSans-32"/>
      </g>
     </g>
    </g>
    <g id="ytick_7">
     <g id="line2d_55">
      <g>
       <use xlink:href="#m6c131d7422" x="166.5" y="478.159222" style="stroke: #000000; stroke-width: 0.8"/>
      </g>
     </g>
     <g id="text_51">
      <!-- 4 -->
      <g transform="translate(153.1375 481.958441)scale(0.1 -0.1)">
       <defs>
        <path id="DejaVuSans-34" d="M 2419 4116 
L 825 1625 
L 2419 1625 
L 2419 4116 
z
M 2253 4666 
L 3047 4666 
L 3047 1625 
L 3713 1625 
L 3713 1100 
L 3047 1100 
L 3047 0 
L 2419 0 
L 2419 1100 
L 313 1100 
L 313 1709 
L 2253 4666 
z
" transform="scale(0.015625)"/>
       </defs>
       <use xlink:href="#DejaVuSans-34"/>
      </g>
     </g>
    </g>
    <g id="text_52">
     <!-- omega [rad/s] -->
     <g transform="translate(147.057812 527.305489)rotate(-90)scale(0.1 -0.1)">
      <defs>
       <path id="DejaVuSans-67" d="M 2906 1791 
Q 2906 2416 2648 2759 
Q 2391 3103 1925 3103 
Q 1463 3103 1205 2759 
Q 947 2416 947 1791 
Q 947 1169 1205 825 
Q 1463 481 1925 481 
Q 2391 481 2648 825 
Q 2906 1169 2906 1791 
z
M 3481 434 
Q 3481 -459 3084 -895 
Q 2688 -1331 1869 -1331 
Q 1566 -1331 1297 -1286 
Q 1028 -1241 775 -1147 
L 775 -588 
Q 1028 -725 1275 -790 
Q 1522 -856 1778 -856 
Q 2344 -856 2625 -561 
Q 2906 -266 2906 331 
L 2906 616 
Q 2728 306 2450 153 
Q 2172 0 1784 0 
Q 1141 0 747 490 
Q 353 981 353 1791 
Q 353 2603 747 3093 
Q 1141 3584 1784 3584 
Q 2172 3584 2450 3431 
Q 2728 3278 2906 2969 
L 2906 3500 
L 3481 3500 
L 3481 434 
z
" transform="scale(0.015625)"/>
       <path id="DejaVuSans-64" d="M 2906 2969 
L 2906 4863 
L 3481 4863 
L 3481 0 
L 2906 0 
L 2906 525 
Q 2725 213 2448 61 
Q 2172 -91 1784 -91 
Q 1150 -91 751 415 
Q 353 922 353 1747 
Q 353 2572 751 3078 
Q 1150 3584 1784 3584 
Q 2172 3584 2448 3432 
Q 2725 3281 2906 2969 
z
M 947 1747 
Q 947 1113 1208 752 
Q 1469 391 1925 391 
Q 2381 391 2643 752 
Q 2906 1113 2906 1747 
Q 2906 2381 2643 2742 
Q 2381 3103 1925 3103 
Q 1469 3103 1208 2742 
Q 947 2381 947 1747 
z
" transform="scale(0.015625)"/>
      </defs>
      <use xlink:href="#DejaVuSans-6f"/>
      <use xlink:href="#DejaVuSans-6d" x="61.181641"/>
      <use xlink:href="#DejaVuSans-65" x="158.59375"/>
      <use xlink:href="#DejaVuSans-67" x="220.117188"/>
      <use xlink:href="#DejaVuSans-61" x="283.59375"/>
      <use xlink:href="#DejaVuSans-20" x="344.873047"/>
      <use xlink:href="#DejaVuSans-5b" x="376.660156"/>
      <use xlink:href="#DejaVuSans-72" x="415.673828"/>
      <use xlink:href="#DejaVuSans-61" x="456.787109"/>
      <use xlink:href="#DejaVuSans-64" x="518.066406"/>
      <use xlink:href="#DejaVuSans-2f" x="581.542969"/>
      <use xlink:href="#DejaVuSans-73" x="615.234375"/>
      <use xlink:href="#DejaVuSans-5d" x="667.333984"/>
     </g>
    </g>
   </g>
   <g id="line2d_56">
    <path d="M 213.422727 503.525177 
L 218.115 519.003988 
L 219.053455 521.330829 
L 219.991909 522.98372 
L 220.461136 523.491515 
L 220.930364 523.763889 
L 221.399591 523.799154 
L 221.868818 523.610445 
L 222.338045 523.223318 
L 223.2765 521.986969 
L 224.684182 519.453786 
L 228.438 512.282118 
L 229.845682 510.154973 
L 230.784136 509.039131 
L 231.722591 508.219044 
L 232.661045 507.742462 
L 233.5995 507.657008 
L 234.537955 508.007616 
L 235.476409 508.833314 
L 236.414864 510.163625 
L 237.353318 512.014113 
L 238.291773 514.378618 
L 239.699455 518.761968 
L 241.107136 523.401662 
L 241.576364 524.552593 
L 242.045591 525.134161 
L 242.514818 524.870897 
L 242.984045 523.630083 
L 243.453273 521.483675 
L 244.860955 512.644032 
L 249.553227 516.720865 
L 251.430136 518.014069 
L 252.837818 518.764871 
L 254.2455 519.314596 
L 255.653182 519.669464 
L 257.530091 519.873919 
L 259.407 519.840049 
L 265.037727 519.536322 
L 266.445409 519.782193 
L 267.853091 520.296892 
L 269.260773 521.108851 
L 271.137682 522.54729 
L 272.545364 523.553328 
L 273.483818 523.853699 
L 273.953045 523.787003 
L 274.422273 523.523818 
L 274.8915 523.030527 
L 275.360727 522.282761 
L 275.829955 521.267107 
L 276.299182 520.815223 
L 280.053 520.288326 
L 282.399136 520.168975 
L 284.745273 520.265572 
L 287.560636 520.640669 
L 292.722136 521.670465 
L 296.945182 522.377527 
L 301.168227 522.848888 
L 303.514364 522.963789 
L 304.922045 522.887673 
L 306.329727 522.594959 
L 308.206636 521.99897 
L 311.022 521.471442 
L 313.368136 521.220577 
L 315.714273 521.161323 
L 318.529636 521.326806 
L 321.814227 521.758318 
L 328.383409 522.69032 
L 331.198773 522.817798 
L 334.014136 522.683087 
L 337.298727 522.260388 
L 341.052545 521.791934 
L 344.806364 521.567964 
L 348.560182 521.593769 
L 353.252455 521.886493 
L 362.637 522.54401 
L 365.921591 522.547391 
L 368.736955 522.355986 
L 372.96 521.972671 
L 378.1215 521.736924 
L 382.813773 521.74331 
L 388.913727 521.993889 
L 399.705955 522.488922 
L 403.459773 522.420473 
L 411.436636 521.956627 
L 417.067364 521.744852 
L 421.759636 521.800543 
L 426.921136 522.103101 
L 433.021091 522.43671 
L 436.774909 522.449247 
L 441.936409 522.231028 
L 451.320955 521.788712 
L 455.544 521.821158 
L 460.236273 522.079213 
L 465.867 522.376019 
L 470.559273 522.333828 
L 486.982227 521.930645 
L 502.466727 522.274336 
L 519.828136 521.924521 
L 537.658773 522.300233 
L 547.512545 521.987753 
L 554.550955 521.861349 
L 561.120136 521.981786 
L 576.135409 522.410919 
L 581.296909 522.254197 
L 593.027591 521.768342 
L 598.658318 521.937771 
L 610.858227 522.401634 
L 616.488955 522.312052 
L 631.504227 521.880916 
L 638.542636 521.975737 
L 654.965591 522.353996 
L 662.473227 522.099755 
L 670.919318 521.856799 
L 676.550045 521.926164 
L 691.565318 522.307516 
L 700.480636 522.151672 
L 712.211318 521.964667 
L 722.534318 522.087452 
L 736.141909 522.228782 
L 750.218727 522.063134 
L 763.357091 522.035973 
L 792.449182 522.132748 
L 808.402909 521.954901 
L 816.379773 522.177227 
L 824.825864 522.372367 
L 830.456591 522.28144 
L 845.941091 521.824282 
L 852.9795 522.094322 
L 861.894818 522.424151 
L 867.525545 522.385419 
L 874.563955 522.073988 
L 883.010045 521.748325 
L 888.171545 521.786719 
L 893.333045 522.062746 
L 902.248364 522.635393 
L 906.002182 522.556076 
L 911.163682 522.16729 
L 918.202091 521.633133 
L 921.955909 521.573844 
L 925.709727 521.748547 
L 930.871227 522.265831 
L 934.625045 522.56424 
L 937.909636 522.603959 
L 942.132682 522.413104 
L 953.394136 521.720856 
L 957.147955 521.788993 
L 962.309455 522.150565 
L 967.001727 522.384331 
L 971.224773 522.356727 
L 977.324727 522.057584 
L 983.424682 521.804747 
L 987.647727 521.847889 
L 992.34 522.135259 
L 998.439955 522.507102 
L 1002.193773 522.497263 
L 1006.416818 522.250364 
L 1016.270591 521.526049 
L 1019.555182 521.572196 
L 1023.309 521.880209 
L 1030.816636 522.572444 
L 1034.570455 522.71079 
L 1037.855045 522.606986 
L 1041.608864 522.261161 
L 1050.054955 521.375923 
L 1052.870318 521.354628 
L 1055.685682 521.559106 
L 1060.847182 522.257482 
L 1064.601 522.677082 
L 1067.416364 522.780673 
L 1070.231727 522.674242 
L 1073.985545 522.277324 
L 1081.023955 521.441524 
L 1084.308545 521.29939 
L 1089.470045 521.203156 
L 1092.754636 522.452528 
L 1094.631545 522.90947 
L 1096.039227 523.041344 
L 1097.446909 522.96651 
L 1098.854591 522.689601 
L 1100.7315 522.063009 
L 1106.831455 519.712371 
L 1108.239136 519.518122 
L 1109.646818 519.57508 
L 1111.0545 519.901646 
L 1112.462182 520.467017 
L 1114.808318 521.552211 
L 1115.746773 521.758709 
L 1116.216 521.73645 
L 1116.685227 521.598503 
L 1117.154455 521.32083 
L 1117.623682 520.881528 
L 1118.092909 520.262581 
L 1119.031364 518.439557 
L 1119.969818 515.811362 
L 1120.439045 514.201514 
L 1120.908273 514.216664 
L 1124.662091 521.247765 
L 1125.600545 522.520918 
L 1126.539 523.294689 
L 1127.008227 523.44124 
L 1127.477455 523.408415 
L 1127.946682 523.191992 
L 1128.415909 522.796946 
L 1129.354364 521.528393 
L 1130.292818 519.757384 
L 1131.7005 516.528725 
L 1134.985091 508.743351 
L 1135.923545 506.991188 
L 1136.862 505.658393 
L 1137.800455 504.854244 
L 1138.269682 504.68208 
L 1138.738909 504.678335 
L 1139.208136 504.852954 
L 1139.677364 505.214568 
L 1140.146591 505.770377 
L 1141.085045 507.485741 
L 1142.0235 510.025064 
L 1142.961955 513.38381 
L 1143.900409 517.502021 
L 1145.777318 526.236936 
L 1146.246545 526.97952 
L 1146.715773 525.983496 
L 1147.185 523.312645 
L 1148.123455 514.770775 
L 1149.061909 503.42352 
L 1150.000364 489.728938 
L 1151.408045 465.546502 
L 1151.877273 456.99552 
L 1151.877273 456.99552 
" clip-path="url(#p09e3fc9217)" style="fill: none; stroke: #1f77b4; stroke-width: 1.5; stroke-linecap: square"/>
   </g>
   <g id="patch_17">
    <path d="M 166.5 530.47872 
L 166.5 453.49632 
" style="fill: none; stroke: #000000; stroke-width: 0.8; stroke-linejoin: miter; stroke-linecap: square"/>
   </g>
   <g id="patch_18">
    <path d="M 1198.8 530.47872 
L 1198.8 453.49632 
" style="fill: none; stroke: #000000; stroke-width: 0.8; stroke-linejoin: miter; stroke-linecap: square"/>
   </g>
   <g id="patch_19">
    <path d="M 166.5 530.47872 
L 1198.8 530.47872 
" style="fill: none; stroke: #000000; stroke-width: 0.8; stroke-linejoin: miter; stroke-linecap: square"/>
   </g>
   <g id="patch_20">
    <path d="M 166.5 453.49632 
L 1198.8 453.49632 
" style="fill: none; stroke: #000000; stroke-width: 0.8; stroke-linejoin: miter; stroke-linecap: square"/>
   </g>
  </g>
  <g id="axes_5">
   <g id="patch_21">
    <path d="M 166.5 622.8576 
L 1198.8 622.8576 
L 1198.8 545.8752 
L 166.5 545.8752 
z
" style="fill: #ffffff"/>
   </g>
   <g id="matplotlib.axis_7">
    <g id="xtick_43">
     <g id="line2d_57">
      <g>
       <use xlink:href="#md494bb3612" x="213.422727" y="622.8576" style="stroke: #000000; stroke-width: 0.8"/>
      </g>
     </g>
     <g id="text_53">
      <!-- 0.0 -->
      <g transform="translate(205.471165 637.456038)scale(0.1 -0.1)">
       <use xlink:href="#DejaVuSans-30"/>
       <use xlink:href="#DejaVuSans-2e" x="63.623047"/>
       <use xlink:href="#DejaVuSans-30" x="95.410156"/>
      </g>
     </g>
    </g>
    <g id="xtick_44">
     <g id="line2d_58">
      <g>
       <use xlink:href="#md494bb3612" x="330.729545" y="622.8576" style="stroke: #000000; stroke-width: 0.8"/>
      </g>
     </g>
     <g id="text_54">
      <!-- 2.5 -->
      <g transform="translate(322.777983 637.456038)scale(0.1 -0.1)">
       <use xlink:href="#DejaVuSans-32"/>
       <use xlink:href="#DejaVuSans-2e" x="63.623047"/>
       <use xlink:href="#DejaVuSans-35" x="95.410156"/>
      </g>
     </g>
    </g>
    <g id="xtick_45">
     <g id="line2d_59">
      <g>
       <use xlink:href="#md494bb3612" x="448.036364" y="622.8576" style="stroke: #000000; stroke-width: 0.8"/>
      </g>
     </g>
     <g id="text_55">
      <!-- 5.0 -->
      <g transform="translate(440.084801 637.456038)scale(0.1 -0.1)">
       <use xlink:href="#DejaVuSans-35"/>
       <use xlink:href="#DejaVuSans-2e" x="63.623047"/>
       <use xlink:href="#DejaVuSans-30" x="95.410156"/>
      </g>
     </g>
    </g>
    <g id="xtick_46">
     <g id="line2d_60">
      <g>
       <use xlink:href="#md494bb3612" x="565.343182" y="622.8576" style="stroke: #000000; stroke-width: 0.8"/>
      </g>
     </g>
     <g id="text_56">
      <!-- 7.5 -->
      <g transform="translate(557.391619 637.456038)scale(0.1 -0.1)">
       <use xlink:href="#DejaVuSans-37"/>
       <use xlink:href="#DejaVuSans-2e" x="63.623047"/>
       <use xlink:href="#DejaVuSans-35" x="95.410156"/>
      </g>
     </g>
    </g>
    <g id="xtick_47">
     <g id="line2d_61">
      <g>
       <use xlink:href="#md494bb3612" x="682.65" y="622.8576" style="stroke: #000000; stroke-width: 0.8"/>
      </g>
     </g>
     <g id="text_57">
      <!-- 10.0 -->
      <g transform="translate(671.517188 637.456038)scale(0.1 -0.1)">
       <use xlink:href="#DejaVuSans-31"/>
       <use xlink:href="#DejaVuSans-30" x="63.623047"/>
       <use xlink:href="#DejaVuSans-2e" x="127.246094"/>
       <use xlink:href="#DejaVuSans-30" x="159.033203"/>
      </g>
     </g>
    </g>
    <g id="xtick_48">
     <g id="line2d_62">
      <g>
       <use xlink:href="#md494bb3612" x="799.956818" y="622.8576" style="stroke: #000000; stroke-width: 0.8"/>
      </g>
     </g>
     <g id="text_58">
      <!-- 12.5 -->
      <g transform="translate(788.824006 637.456038)scale(0.1 -0.1)">
       <use xlink:href="#DejaVuSans-31"/>
       <use xlink:href="#DejaVuSans-32" x="63.623047"/>
       <use xlink:href="#DejaVuSans-2e" x="127.246094"/>
       <use xlink:href="#DejaVuSans-35" x="159.033203"/>
      </g>
     </g>
    </g>
    <g id="xtick_49">
     <g id="line2d_63">
      <g>
       <use xlink:href="#md494bb3612" x="917.263636" y="622.8576" style="stroke: #000000; stroke-width: 0.8"/>
      </g>
     </g>
     <g id="text_59">
      <!-- 15.0 -->
      <g transform="translate(906.130824 637.456038)scale(0.1 -0.1)">
       <use xlink:href="#DejaVuSans-31"/>
       <use xlink:href="#DejaVuSans-35" x="63.623047"/>
       <use xlink:href="#DejaVuSans-2e" x="127.246094"/>
       <use xlink:href="#DejaVuSans-30" x="159.033203"/>
      </g>
     </g>
    </g>
    <g id="xtick_50">
     <g id="line2d_64">
      <g>
       <use xlink:href="#md494bb3612" x="1034.570455" y="622.8576" style="stroke: #000000; stroke-width: 0.8"/>
      </g>
     </g>
     <g id="text_60">
      <!-- 17.5 -->
      <g transform="translate(1023.437642 637.456038)scale(0.1 -0.1)">
       <use xlink:href="#DejaVuSans-31"/>
       <use xlink:href="#DejaVuSans-37" x="63.623047"/>
       <use xlink:href="#DejaVuSans-2e" x="127.246094"/>
       <use xlink:href="#DejaVuSans-35" x="159.033203"/>
      </g>
     </g>
    </g>
    <g id="xtick_51">
     <g id="line2d_65">
      <g>
       <use xlink:href="#md494bb3612" x="1151.877273" y="622.8576" style="stroke: #000000; stroke-width: 0.8"/>
      </g>
     </g>
     <g id="text_61">
      <!-- 20.0 -->
      <g transform="translate(1140.74446 637.456038)scale(0.1 -0.1)">
       <use xlink:href="#DejaVuSans-32"/>
       <use xlink:href="#DejaVuSans-30" x="63.623047"/>
       <use xlink:href="#DejaVuSans-2e" x="127.246094"/>
       <use xlink:href="#DejaVuSans-30" x="159.033203"/>
      </g>
     </g>
    </g>
   </g>
   <g id="matplotlib.axis_8">
    <g id="ytick_8">
     <g id="line2d_66">
      <g>
       <use xlink:href="#m6c131d7422" x="166.5" y="614.346912" style="stroke: #000000; stroke-width: 0.8"/>
      </g>
     </g>
     <g id="text_62">
      <!-- 1000 -->
      <g transform="translate(125.670312 618.146131)scale(0.1 -0.1)">
       <defs>
        <path id="DejaVuSans-2212" d="M 678 2272 
L 4684 2272 
L 4684 1741 
L 678 1741 
L 678 2272 
z
" transform="scale(0.015625)"/>
       </defs>
       <use xlink:href="#DejaVuSans-2212"/>
       <use xlink:href="#DejaVuSans-31" x="83.789062"/>
       <use xlink:href="#DejaVuSans-30" x="147.412109"/>
       <use xlink:href="#DejaVuSans-30" x="211.035156"/>
       <use xlink:href="#DejaVuSans-30" x="274.658203"/>
      </g>
     </g>
    </g>
    <g id="ytick_9">
     <g id="line2d_67">
      <g>
       <use xlink:href="#m6c131d7422" x="166.5" y="581.734506" style="stroke: #000000; stroke-width: 0.8"/>
      </g>
     </g>
     <g id="text_63">
      <!-- 500 -->
      <g transform="translate(132.032813 585.533725)scale(0.1 -0.1)">
       <use xlink:href="#DejaVuSans-2212"/>
       <use xlink:href="#DejaVuSans-35" x="83.789062"/>
       <use xlink:href="#DejaVuSans-30" x="147.412109"/>
       <use xlink:href="#DejaVuSans-30" x="211.035156"/>
      </g>
     </g>
    </g>
    <g id="ytick_10">
     <g id="line2d_68">
      <g>
       <use xlink:href="#m6c131d7422" x="166.5" y="549.1221" style="stroke: #000000; stroke-width: 0.8"/>
      </g>
     </g>
     <g id="text_64">
      <!-- 0 -->
      <g transform="translate(153.1375 552.921319)scale(0.1 -0.1)">
       <use xlink:href="#DejaVuSans-30"/>
      </g>
     </g>
    </g>
    <g id="text_65">
     <!-- yaw [deg] -->
     <g transform="translate(119.590625 609.394525)rotate(-90)scale(0.1 -0.1)">
      <defs>
       <path id="DejaVuSans-77" d="M 269 3500 
L 844 3500 
L 1563 769 
L 2278 3500 
L 2956 3500 
L 3675 769 
L 4391 3500 
L 4966 3500 
L 4050 0 
L 3372 0 
L 2619 2869 
L 1863 0 
L 1184 0 
L 269 3500 
z
" transform="scale(0.015625)"/>
      </defs>
      <use xlink:href="#DejaVuSans-79"/>
      <use xlink:href="#DejaVuSans-61" x="59.179688"/>
      <use xlink:href="#DejaVuSans-77" x="120.458984"/>
      <use xlink:href="#DejaVuSans-20" x="202.246094"/>
      <use xlink:href="#DejaVuSans-5b" x="234.033203"/>
      <use xlink:href="#DejaVuSans-64" x="273.046875"/>
      <use xlink:href="#DejaVuSans-65" x="336.523438"/>
      <use xlink:href="#DejaVuSans-67" x="398.046875"/>
      <use xlink:href="#DejaVuSans-5d" x="461.523438"/>
     </g>
    </g>
   </g>
   <g id="line2d_69">
    <path d="M 213.422727 549.3744 
L 219.522682 549.469317 
L 224.214955 549.768283 
L 233.130273 550.638144 
L 240.168682 551.188687 
L 255.183955 552.231349 
L 268.791545 553.308168 
L 284.276045 554.422195 
L 300.699 555.679779 
L 317.121955 556.908931 
L 338.237182 558.473183 
L 1139.677364 618.754022 
L 1145.777318 619.233684 
L 1150.469591 619.3562 
L 1151.877273 619.3584 
L 1151.877273 619.3584 
" clip-path="url(#p71a2f7421a)" style="fill: none; stroke: #1f77b4; stroke-width: 1.5; stroke-linecap: square"/>
   </g>
   <g id="patch_22">
    <path d="M 166.5 622.8576 
L 166.5 545.8752 
" style="fill: none; stroke: #000000; stroke-width: 0.8; stroke-linejoin: miter; stroke-linecap: square"/>
   </g>
   <g id="patch_23">
    <path d="M 1198.8 622.8576 
L 1198.8 545.8752 
" style="fill: none; stroke: #000000; stroke-width: 0.8; stroke-linejoin: miter; stroke-linecap: square"/>
   </g>
   <g id="patch_24">
    <path d="M 166.5 622.8576 
L 1198.8 622.8576 
" style="fill: none; stroke: #000000; stroke-width: 0.8; stroke-linejoin: miter; stroke-linecap: square"/>
   </g>
   <g id="patch_25">
    <path d="M 166.5 545.8752 
L 1198.8 545.8752 
" style="fill: none; stroke: #000000; stroke-width: 0.8; stroke-linejoin: miter; stroke-linecap: square"/>
   </g>
  </g>
 </g>
 <defs>
  <clipPath id="p113e9bb3a6">
   <rect x="597.96936" y="83.9808" width="169.36128" height="169.36128"/>
  </clipPath>
  <clipPath id="p63f24f0798">
   <rect x="166.5" y="268.73856" width="1032.3" height="76.9824"/>
  </clipPath>
  <clipPath id="pe20d8a5553">
   <rect x="166.5" y="361.11744" width="1032.3" height="76.9824"/>
  </clipPath>
  <clipPath id="p09e3fc9217">
   <rect x="166.5" y="453.49632" width="1032.3" height="76.9824"/>
  </clipPath>
  <clipPath id="p71a2f7421a">
   <rect x="166.5" y="545.8752" width="1032.3" height="76.9824"/>
  </clipPath>
 </defs>
</svg>
