<?xml version="1.0" encoding="utf-8" standalone="no"?>
<!DOCTYPE svg PUBLIC "-//W3C//DTD SVG 1.1//EN"
  "http://www.w3.org/Graphics/SVG/1.1/DTD/svg11.dtd">
<svg xmlns:xlink="http://www.w3.org/1999/xlink" width="460.8pt" height="345.6pt" viewBox="0 0 460.8 345.6" xmlns="http://www.w3.org/2000/svg" version="1.1">
 <metadata>
  <rdf:RDF xmlns:dc="http://purl.org/dc/elements/1.1/" xmlns:cc="http://creativecommons.org/ns#" xmlns:rdf="http://www.w3.org/1999/02/22-rdf-syntax-ns#">
   <cc:Work>
    <dc:type rdf:resource="http://purl.org/dc/dcmitype/StillImage"/>
    <dc:date>2024-02-09T17:23:04.367690</dc:date>
    <dc:format>image/svg+xml</dc:format>
    <dc:creator>
     <cc:Agent>
      <dc:title>Matplotlib v3.8.2, https://matplotlib.org/</dc:title>
     </cc:Agent>
    </dc:creator>
   </cc:Work>
  </rdf:RDF>
 </metadata>
 <defs>
  <style type="text/css">*{stroke-linejoin: round; stroke-linecap: butt}</style>
 </defs>
 <g id="figure_1">
  <g id="patch_1">
   <path d="M 0 345.6 
L 460.8 345.6 
L 460.8 0 
L 0 0 
z
" style="fill: #ffffff"/>
  </g>
  <g id="patch_2">
   <path d="M 103.104 307.584 
L 369.216 307.584 
L 369.216 41.472 
L 103.104 41.472 
z
" style="fill: #ffffff"/>
  </g>
  <g id="pane3d_1">
   <g id="patch_3">
    <path d="M 350.613618 182.955109 
L 208.853046 122.061292 
L 206.697023 41.374254 
L 358.625445 103.772873 
" style="fill: #f2f2f2; opacity: 0.5; stroke: #f2f2f2; stroke-linejoin: miter"/>
   </g>
  </g>
  <g id="pane3d_2">
   <g id="patch_4">
    <path d="M 125.81158 235.308483 
L 208.853046 122.061292 
L 206.697023 41.374254 
L 117.330264 157.654014 
" style="fill: #e6e6e6; opacity: 0.5; stroke: #e6e6e6; stroke-linejoin: miter"/>
   </g>
  </g>
  <g id="pane3d_3">
   <g id="patch_5">
    <path d="M 273.752635 304.163342 
L 350.613618 182.955109 
L 208.853046 122.061292 
L 125.81158 235.308483 
" style="fill: #ececec; opacity: 0.5; stroke: #ececec; stroke-linejoin: miter"/>
   </g>
  </g>
  <g id="grid3d_1">
   <g id="Line3DCollection_1">
    <path d="M 285.342902 285.885723 
L 138.311668 218.26158 
L 130.832302 140.085807 
" style="fill: none; stroke: #b0b0b0; stroke-width: 0.8"/>
    <path d="M 295.894814 269.245568 
L 149.698727 202.732561 
L 143.116682 124.101958 
" style="fill: none; stroke: #b0b0b0; stroke-width: 0.8"/>
    <path d="M 306.271108 252.882359 
L 160.902628 187.453323 
L 155.189153 108.393835 
" style="fill: none; stroke: #b0b0b0; stroke-width: 0.8"/>
    <path d="M 316.476132 236.789241 
L 171.927754 172.417888 
L 167.055152 92.954364 
" style="fill: none; stroke: #b0b0b0; stroke-width: 0.8"/>
    <path d="M 326.514092 220.95958 
L 182.77835 157.620468 
L 178.71993 77.776713 
" style="fill: none; stroke: #b0b0b0; stroke-width: 0.8"/>
    <path d="M 336.389056 205.386959 
L 193.458527 143.055454 
L 190.188562 62.854276 
" style="fill: none; stroke: #b0b0b0; stroke-width: 0.8"/>
    <path d="M 346.104962 190.065168 
L 203.97227 128.717414 
L 201.465955 48.18067 
" style="fill: none; stroke: #b0b0b0; stroke-width: 0.8"/>
   </g>
  </g>
  <g id="grid3d_2">
   <g id="Line3DCollection_2">
    <path d="M 338.56969 95.535761 
L 331.938044 174.932942 
L 254.227517 295.075944 
" style="fill: none; stroke: #b0b0b0; stroke-width: 0.8"/>
    <path d="M 315.436564 86.03474 
L 310.382567 165.673701 
L 231.704836 284.593417 
" style="fill: none; stroke: #b0b0b0; stroke-width: 0.8"/>
    <path d="M 292.547358 76.633899 
L 289.03927 156.505603 
L 209.417936 274.220628 
" style="fill: none; stroke: #b0b0b0; stroke-width: 0.8"/>
    <path d="M 269.898234 67.331663 
L 267.905037 147.427309 
L 187.363134 263.955862 
" style="fill: none; stroke: #b0b0b0; stroke-width: 0.8"/>
    <path d="M 247.485434 58.126488 
L 246.976811 138.437507 
L 165.536823 253.797441 
" style="fill: none; stroke: #b0b0b0; stroke-width: 0.8"/>
    <path d="M 225.305279 49.016862 
L 226.251594 129.534907 
L 143.935471 243.743721 
" style="fill: none; stroke: #b0b0b0; stroke-width: 0.8"/>
   </g>
  </g>
  <g id="grid3d_3">
   <g id="Line3DCollection_3">
    <path d="M 125.628299 233.630374 
L 208.806255 120.310208 
L 350.787094 181.240609 
" style="fill: none; stroke: #b0b0b0; stroke-width: 0.8"/>
    <path d="M 124.3513 221.938242 
L 208.480491 108.118786 
L 351.995365 169.299072 
" style="fill: none; stroke: #b0b0b0; stroke-width: 0.8"/>
    <path d="M 123.045401 209.981498 
L 208.147795 95.667991 
L 353.230222 157.094772 
" style="fill: none; stroke: #b0b0b0; stroke-width: 0.8"/>
    <path d="M 121.709609 197.751056 
L 207.807946 82.949456 
L 354.492553 144.618942 
" style="fill: none; stroke: #b0b0b0; stroke-width: 0.8"/>
    <path d="M 120.342885 185.23741 
L 207.460709 69.954452 
L 355.783285 131.862417 
" style="fill: none; stroke: #b0b0b0; stroke-width: 0.8"/>
    <path d="M 118.944144 172.430607 
L 207.105841 56.673864 
L 357.103389 118.815617 
" style="fill: none; stroke: #b0b0b0; stroke-width: 0.8"/>
    <path d="M 117.512246 159.320225 
L 206.743088 43.098175 
L 358.453876 105.468519 
" style="fill: none; stroke: #b0b0b0; stroke-width: 0.8"/>
   </g>
  </g>
  <g id="axis3d_1">
   <g id="line2d_1">
    <path d="M 350.613618 182.955109 
L 273.752635 304.163342 
" style="fill: none; stroke: #000000; stroke-width: 0.8; stroke-linecap: square"/>
   </g>
   <g id="xtick_1">
    <g id="line2d_2">
     <path d="M 284.125467 285.325787 
L 287.779836 287.006543 
" style="fill: none; stroke: #000000; stroke-width: 0.8; stroke-linecap: square"/>
    </g>
    <g id="text_1">
     <!-- 1.0 -->
     <g transform="translate(289.716131 305.11413) scale(0.1 -0.1)">
      <defs>
       <path id="DejaVuSans-31" d="M 794 531 
L 1825 531 
L 1825 4091 
L 703 3866 
L 703 4441 
L 1819 4666 
L 2450 4666 
L 2450 531 
L 3481 531 
L 3481 0 
L 794 0 
L 794 531 
z
" transform="scale(0.015625)"/>
       <path id="DejaVuSans-2e" d="M 684 794 
L 1344 794 
L 1344 0 
L 684 0 
L 684 794 
z
" transform="scale(0.015625)"/>
       <path id="DejaVuSans-30" d="M 2034 4250 
Q 1547 4250 1301 3770 
Q 1056 3291 1056 2328 
Q 1056 1369 1301 889 
Q 1547 409 2034 409 
Q 2525 409 2770 889 
Q 3016 1369 3016 2328 
Q 3016 3291 2770 3770 
Q 2525 4250 2034 4250 
z
M 2034 4750 
Q 2819 4750 3233 4129 
Q 3647 3509 3647 2328 
Q 3647 1150 3233 529 
Q 2819 -91 2034 -91 
Q 1250 -91 836 529 
Q 422 1150 422 2328 
Q 422 3509 836 4129 
Q 1250 4750 2034 4750 
z
" transform="scale(0.015625)"/>
      </defs>
      <use xlink:href="#DejaVuSans-31"/>
      <use xlink:href="#DejaVuSans-2e" x="63.623047"/>
      <use xlink:href="#DejaVuSans-30" x="95.410156"/>
     </g>
    </g>
   </g>
   <g id="xtick_2">
    <g id="line2d_3">
     <path d="M 294.684638 268.694989 
L 298.317202 270.347651 
" style="fill: none; stroke: #000000; stroke-width: 0.8; stroke-linecap: square"/>
    </g>
    <g id="text_2">
     <!-- 1.2 -->
     <g transform="translate(300.133949 288.425517) scale(0.1 -0.1)">
      <defs>
       <path id="DejaVuSans-32" d="M 1228 531 
L 3431 531 
L 3431 0 
L 469 0 
L 469 531 
Q 828 903 1448 1529 
Q 2069 2156 2228 2338 
Q 2531 2678 2651 2914 
Q 2772 3150 2772 3378 
Q 2772 3750 2511 3984 
Q 2250 4219 1831 4219 
Q 1534 4219 1204 4116 
Q 875 4013 500 3803 
L 500 4441 
Q 881 4594 1212 4672 
Q 1544 4750 1819 4750 
Q 2544 4750 2975 4387 
Q 3406 4025 3406 3419 
Q 3406 3131 3298 2873 
Q 3191 2616 2906 2266 
Q 2828 2175 2409 1742 
Q 1991 1309 1228 531 
z
" transform="scale(0.015625)"/>
      </defs>
      <use xlink:href="#DejaVuSans-31"/>
      <use xlink:href="#DejaVuSans-2e" x="63.623047"/>
      <use xlink:href="#DejaVuSans-32" x="95.410156"/>
     </g>
    </g>
   </g>
   <g id="xtick_3">
    <g id="line2d_4">
     <path d="M 305.068119 252.340905 
L 308.679094 253.966172 
" style="fill: none; stroke: #000000; stroke-width: 0.8; stroke-linecap: square"/>
    </g>
    <g id="text_3">
     <!-- 1.4 -->
     <g transform="translate(310.378884 272.013849) scale(0.1 -0.1)">
      <defs>
       <path id="DejaVuSans-34" d="M 2419 4116 
L 825 1625 
L 2419 1625 
L 2419 4116 
z
M 2253 4666 
L 3047 4666 
L 3047 1625 
L 3713 1625 
L 3713 1100 
L 3047 1100 
L 3047 0 
L 2419 0 
L 2419 1100 
L 313 1100 
L 313 1709 
L 2253 4666 
z
" transform="scale(0.015625)"/>
      </defs>
      <use xlink:href="#DejaVuSans-31"/>
      <use xlink:href="#DejaVuSans-2e" x="63.623047"/>
      <use xlink:href="#DejaVuSans-34" x="95.410156"/>
     </g>
    </g>
   </g>
   <g id="xtick_4">
    <g id="line2d_5">
     <path d="M 315.280258 236.256685 
L 318.869859 237.855233 
" style="fill: none; stroke: #000000; stroke-width: 0.8; stroke-linecap: square"/>
    </g>
    <g id="text_4">
     <!-- 1.6 -->
     <g transform="translate(320.455206 255.872288) scale(0.1 -0.1)">
      <defs>
       <path id="DejaVuSans-36" d="M 2113 2584 
Q 1688 2584 1439 2293 
Q 1191 2003 1191 1497 
Q 1191 994 1439 701 
Q 1688 409 2113 409 
Q 2538 409 2786 701 
Q 3034 994 3034 1497 
Q 3034 2003 2786 2293 
Q 2538 2584 2113 2584 
z
M 3366 4563 
L 3366 3988 
Q 3128 4100 2886 4159 
Q 2644 4219 2406 4219 
Q 1781 4219 1451 3797 
Q 1122 3375 1075 2522 
Q 1259 2794 1537 2939 
Q 1816 3084 2150 3084 
Q 2853 3084 3261 2657 
Q 3669 2231 3669 1497 
Q 3669 778 3244 343 
Q 2819 -91 2113 -91 
Q 1303 -91 875 529 
Q 447 1150 447 2328 
Q 447 3434 972 4092 
Q 1497 4750 2381 4750 
Q 2619 4750 2861 4703 
Q 3103 4656 3366 4563 
z
" transform="scale(0.015625)"/>
      </defs>
      <use xlink:href="#DejaVuSans-31"/>
      <use xlink:href="#DejaVuSans-2e" x="63.623047"/>
      <use xlink:href="#DejaVuSans-36" x="95.410156"/>
     </g>
    </g>
   </g>
   <g id="xtick_5">
    <g id="line2d_6">
     <path d="M 325.325262 220.435706 
L 328.893701 222.008187 
" style="fill: none; stroke: #000000; stroke-width: 0.8; stroke-linecap: square"/>
    </g>
    <g id="text_5">
     <!-- 1.8 -->
     <g transform="translate(330.367042 239.99422) scale(0.1 -0.1)">
      <defs>
       <path id="DejaVuSans-38" d="M 2034 2216 
Q 1584 2216 1326 1975 
Q 1069 1734 1069 1313 
Q 1069 891 1326 650 
Q 1584 409 2034 409 
Q 2484 409 2743 651 
Q 3003 894 3003 1313 
Q 3003 1734 2745 1975 
Q 2488 2216 2034 2216 
z
M 1403 2484 
Q 997 2584 770 2862 
Q 544 3141 544 3541 
Q 544 4100 942 4425 
Q 1341 4750 2034 4750 
Q 2731 4750 3128 4425 
Q 3525 4100 3525 3541 
Q 3525 3141 3298 2862 
Q 3072 2584 2669 2484 
Q 3125 2378 3379 2068 
Q 3634 1759 3634 1313 
Q 3634 634 3220 271 
Q 2806 -91 2034 -91 
Q 1263 -91 848 271 
Q 434 634 434 1313 
Q 434 1759 690 2068 
Q 947 2378 1403 2484 
z
M 1172 3481 
Q 1172 3119 1398 2916 
Q 1625 2713 2034 2713 
Q 2441 2713 2670 2916 
Q 2900 3119 2900 3481 
Q 2900 3844 2670 4047 
Q 2441 4250 2034 4250 
Q 1625 4250 1398 4047 
Q 1172 3844 1172 3481 
z
" transform="scale(0.015625)"/>
      </defs>
      <use xlink:href="#DejaVuSans-31"/>
      <use xlink:href="#DejaVuSans-2e" x="63.623047"/>
      <use xlink:href="#DejaVuSans-38" x="95.410156"/>
     </g>
    </g>
   </g>
   <g id="xtick_6">
    <g id="line2d_7">
     <path d="M 335.2072 204.871556 
L 338.75469 206.418604 
" style="fill: none; stroke: #000000; stroke-width: 0.8; stroke-linecap: square"/>
    </g>
    <g id="text_6">
     <!-- 2.0 -->
     <g transform="translate(340.118389 224.373247) scale(0.1 -0.1)">
      <use xlink:href="#DejaVuSans-32"/>
      <use xlink:href="#DejaVuSans-2e" x="63.623047"/>
      <use xlink:href="#DejaVuSans-30" x="95.410156"/>
     </g>
    </g>
   </g>
   <g id="xtick_7">
    <g id="line2d_8">
     <path d="M 344.930011 189.558032 
L 348.456761 191.080258 
" style="fill: none; stroke: #000000; stroke-width: 0.8; stroke-linecap: square"/>
    </g>
    <g id="text_7">
     <!-- 2.2 -->
     <g transform="translate(349.713112 209.003174) scale(0.1 -0.1)">
      <use xlink:href="#DejaVuSans-32"/>
      <use xlink:href="#DejaVuSans-2e" x="63.623047"/>
      <use xlink:href="#DejaVuSans-32" x="95.410156"/>
     </g>
    </g>
   </g>
  </g>
  <g id="axis3d_2">
   <g id="line2d_9">
    <path d="M 125.81158 235.308483 
L 273.752635 304.163342 
" style="fill: none; stroke: #000000; stroke-width: 0.8; stroke-linecap: square"/>
   </g>
   <g id="xtick_8">
    <g id="line2d_10">
     <path d="M 254.88876 294.05364 
L 252.902992 297.123703 
" style="fill: none; stroke: #000000; stroke-width: 0.8; stroke-linecap: square"/>
    </g>
    <g id="text_8">
     <!-- 1.0 -->
     <g transform="translate(239.332719 319.100974) scale(0.1 -0.1)">
      <use xlink:href="#DejaVuSans-31"/>
      <use xlink:href="#DejaVuSans-2e" x="63.623047"/>
      <use xlink:href="#DejaVuSans-30" x="95.410156"/>
     </g>
    </g>
   </g>
   <g id="xtick_9">
    <g id="line2d_11">
     <path d="M 232.374098 283.581841 
L 230.364258 286.619672 
" style="fill: none; stroke: #000000; stroke-width: 0.8; stroke-linecap: square"/>
    </g>
    <g id="text_9">
     <!-- 1.2 -->
     <g transform="translate(216.860005 308.538326) scale(0.1 -0.1)">
      <use xlink:href="#DejaVuSans-31"/>
      <use xlink:href="#DejaVuSans-2e" x="63.623047"/>
      <use xlink:href="#DejaVuSans-32" x="95.410156"/>
     </g>
    </g>
   </g>
   <g id="xtick_10">
    <g id="line2d_12">
     <path d="M 210.095014 273.219612 
L 208.061713 276.225716 
" style="fill: none; stroke: #000000; stroke-width: 0.8; stroke-linecap: square"/>
    </g>
    <g id="text_10">
     <!-- 1.4 -->
     <g transform="translate(194.622408 298.08619) scale(0.1 -0.1)">
      <use xlink:href="#DejaVuSans-31"/>
      <use xlink:href="#DejaVuSans-2e" x="63.623047"/>
      <use xlink:href="#DejaVuSans-34" x="95.410156"/>
     </g>
    </g>
   </g>
   <g id="xtick_11">
    <g id="line2d_13">
     <path d="M 188.047829 262.965241 
L 185.991665 265.940113 
" style="fill: none; stroke: #000000; stroke-width: 0.8; stroke-linecap: square"/>
    </g>
    <g id="text_11">
     <!-- 1.6 -->
     <g transform="translate(172.61626 287.742838) scale(0.1 -0.1)">
      <use xlink:href="#DejaVuSans-31"/>
      <use xlink:href="#DejaVuSans-2e" x="63.623047"/>
      <use xlink:href="#DejaVuSans-36" x="95.410156"/>
     </g>
    </g>
   </g>
   <g id="xtick_12">
    <g id="line2d_14">
     <path d="M 166.228942 252.817054 
L 164.150495 255.761177 
" style="fill: none; stroke: #000000; stroke-width: 0.8; stroke-linecap: square"/>
    </g>
    <g id="text_12">
     <!-- 1.8 -->
     <g transform="translate(150.837964 277.506583) scale(0.1 -0.1)">
      <use xlink:href="#DejaVuSans-31"/>
      <use xlink:href="#DejaVuSans-2e" x="63.623047"/>
      <use xlink:href="#DejaVuSans-38" x="95.410156"/>
     </g>
    </g>
   </g>
   <g id="xtick_13">
    <g id="line2d_15">
     <path d="M 144.634824 242.773409 
L 142.534663 245.687259 
" style="fill: none; stroke: #000000; stroke-width: 0.8; stroke-linecap: square"/>
    </g>
    <g id="text_13">
     <!-- 2.0 -->
     <g transform="translate(129.284001 267.375768) scale(0.1 -0.1)">
      <use xlink:href="#DejaVuSans-32"/>
      <use xlink:href="#DejaVuSans-2e" x="63.623047"/>
      <use xlink:href="#DejaVuSans-30" x="95.410156"/>
     </g>
    </g>
   </g>
  </g>
  <g id="axis3d_3">
   <g id="line2d_16">
    <path d="M 125.81158 235.308483 
L 117.330264 157.654014 
" style="fill: none; stroke: #000000; stroke-width: 0.8; stroke-linecap: square"/>
   </g>
   <g id="xtick_14">
    <g id="line2d_17">
     <path d="M 126.334861 232.667767 
L 124.213058 235.558473 
" style="fill: none; stroke: #000000; stroke-width: 0.8; stroke-linecap: square"/>
    </g>
    <g id="text_14">
     <!-- 0.2 -->
     <g transform="translate(98.429117 245.707332) scale(0.1 -0.1)">
      <use xlink:href="#DejaVuSans-30"/>
      <use xlink:href="#DejaVuSans-2e" x="63.623047"/>
      <use xlink:href="#DejaVuSans-32" x="95.410156"/>
     </g>
    </g>
   </g>
   <g id="xtick_15">
    <g id="line2d_18">
     <path d="M 125.066408 220.970764 
L 122.918919 223.87613 
" style="fill: none; stroke: #000000; stroke-width: 0.8; stroke-linecap: square"/>
    </g>
    <g id="text_15">
     <!-- 0.4 -->
     <g transform="translate(96.933252 234.038003) scale(0.1 -0.1)">
      <use xlink:href="#DejaVuSans-30"/>
      <use xlink:href="#DejaVuSans-2e" x="63.623047"/>
      <use xlink:href="#DejaVuSans-34" x="95.410156"/>
     </g>
    </g>
   </g>
   <g id="xtick_16">
    <g id="line2d_19">
     <path d="M 123.769262 209.009173 
L 121.59546 211.929126 
" style="fill: none; stroke: #000000; stroke-width: 0.8; stroke-linecap: square"/>
    </g>
    <g id="text_16">
     <!-- 0.6 -->
     <g transform="translate(95.403453 222.103952) scale(0.1 -0.1)">
      <use xlink:href="#DejaVuSans-30"/>
      <use xlink:href="#DejaVuSans-2e" x="63.623047"/>
      <use xlink:href="#DejaVuSans-36" x="95.410156"/>
     </g>
    </g>
   </g>
   <g id="xtick_17">
    <g id="line2d_20">
     <path d="M 122.44244 196.773916 
L 120.241676 199.708364 
" style="fill: none; stroke: #000000; stroke-width: 0.8; stroke-linecap: square"/>
    </g>
    <g id="text_17">
     <!-- 0.8 -->
     <g transform="translate(93.838552 209.896067) scale(0.1 -0.1)">
      <use xlink:href="#DejaVuSans-30"/>
      <use xlink:href="#DejaVuSans-2e" x="63.623047"/>
      <use xlink:href="#DejaVuSans-38" x="95.410156"/>
     </g>
    </g>
   </g>
   <g id="xtick_18">
    <g id="line2d_21">
     <path d="M 121.084909 184.25549 
L 118.856511 187.204327 
" style="fill: none; stroke: #000000; stroke-width: 0.8; stroke-linecap: square"/>
    </g>
    <g id="text_18">
     <!-- 1.0 -->
     <g transform="translate(92.237327 197.404814) scale(0.1 -0.1)">
      <use xlink:href="#DejaVuSans-31"/>
      <use xlink:href="#DejaVuSans-2e" x="63.623047"/>
      <use xlink:href="#DejaVuSans-30" x="95.410156"/>
     </g>
    </g>
   </g>
   <g id="xtick_19">
    <g id="line2d_22">
     <path d="M 119.695593 171.443951 
L 117.438862 174.40705 
" style="fill: none; stroke: #000000; stroke-width: 0.8; stroke-linecap: square"/>
    </g>
    <g id="text_19">
     <!-- 1.2 -->
     <g transform="translate(90.598498 184.620211) scale(0.1 -0.1)">
      <use xlink:href="#DejaVuSans-31"/>
      <use xlink:href="#DejaVuSans-2e" x="63.623047"/>
      <use xlink:href="#DejaVuSans-32" x="95.410156"/>
     </g>
    </g>
   </g>
   <g id="xtick_20">
    <g id="line2d_23">
     <path d="M 118.273361 158.328882 
L 115.987572 161.306094 
" style="fill: none; stroke: #000000; stroke-width: 0.8; stroke-linecap: square"/>
    </g>
    <g id="text_20">
     <!-- 1.4 -->
     <g transform="translate(88.920724 171.531801) scale(0.1 -0.1)">
      <use xlink:href="#DejaVuSans-31"/>
      <use xlink:href="#DejaVuSans-2e" x="63.623047"/>
      <use xlink:href="#DejaVuSans-34" x="95.410156"/>
     </g>
    </g>
   </g>
  </g>
  <g id="axes_1">
   <g id="line2d_24">
    <path d="M 205.998446 247.448778 
L 205.482264 247.985808 
L 205.286757 247.956243 
L 204.072097 247.159503 
L 203.477711 245.469689 
L 202.421371 243.511457 
L 201.686642 242.777227 
L 199.863556 241.204029 
L 198.742134 239.966354 
L 198.005985 237.953431 
L 194.521611 234.903511 
L 191.45456 230.243471 
L 187.807312 223.889043 
L 183.136101 216.766783 
L 181.418658 211.821547 
L 181.957342 208.932971 
L 180.957004 210.732186 
L 180.801955 216.000414 
L 179.733586 221.939523 
L 177.202265 223.836699 
L 175.442105 223.737334 
L 173.154986 219.611261 
L 172.987624 215.141154 
L 174.24524 201.358173 
L 174.909882 197.627942 
L 178.313769 193.110371 
L 179.242651 192.212234 
L 179.082595 190.928259 
L 179.256953 190.271992 
L 178.315613 188.690688 
L 178.532173 185.28171 
L 178.551645 182.759201 
L 179.165627 179.286013 
L 180.806979 175.796405 
L 182.862989 173.251074 
L 186.090185 171.209493 
L 186.836832 169.601842 
L 188.188589 168.159402 
L 189.434523 166.585092 
L 190.573073 164.960418 
L 193.700192 162.779252 
L 196.231695 160.080539 
L 200.190353 158.652809 
L 201.750702 157.297693 
L 202.562791 155.370912 
L 206.153206 156.583755 
L 208.924625 156.321222 
L 211.655452 155.873794 
L 213.384244 154.907727 
L 219.783505 153.923914 
L 225.871777 153.314353 
L 228.519482 153.420355 
L 231.721075 153.716848 
L 235.458182 153.94454 
L 238.9782 154.841651 
L 241.766996 156.423227 
L 245.388518 156.668473 
L 255.274545 157.895612 
L 261.586708 159.368658 
L 266.858132 160.183159 
L 270.295765 161.714704 
L 273.922632 162.2162 
L 276.802092 163.050424 
L 279.803105 163.159088 
L 279.97419 164.171334 
L 282.606538 163.564581 
L 286.487657 165.456713 
L 288.516554 166.881669 
L 292.854831 166.01783 
L 293.598336 167.591296 
L 296.5491 170.534339 
L 298.043632 172.255505 
L 299.873268 173.187637 
L 299.419158 173.661959 
L 299.310596 175.022736 
L 297.211255 177.062887 
L 297.214233 178.999669 
L 298.531062 181.640573 
L 301.106094 181.992565 
L 301.196566 183.814723 
L 300.373203 185.561853 
L 300.780857 187.700086 
L 299.592857 189.407193 
L 299.759052 191.517595 
L 301.023976 194.632189 
L 302.064281 197.987962 
L 305.311294 202.190313 
L 305.589242 205.267117 
L 304.891153 209.534695 
L 301.735447 215.324068 
L 299.562261 218.007874 
L 298.072907 220.989174 
L 295.756374 223.208732 
L 295.532539 224.890421 
L 295.005255 226.318982 
L 294.395569 227.464558 
L 292.850425 228.82462 
L 289.993399 234.668309 
L 286.781357 237.222051 
L 284.823691 238.429978 
L 281.616376 238.760109 
L 278.001916 240.011879 
L 275.694426 240.500465 
L 274.30433 239.594832 
L 270.979311 241.453935 
L 268.73152 243.111059 
L 265.446164 242.943857 
L 263.618713 242.315962 
L 260.880288 241.853761 
L 259.538885 240.446637 
L 256.148884 240.494773 
L 249.152492 239.592008 
L 247.273622 238.861042 
L 245.563157 238.688432 
L 244.548342 237.614931 
L 241.650412 236.391919 
L 239.670499 233.589178 
L 236.487002 232.608302 
L 234.000001 232.906692 
L 231.71411 235.060976 
L 227.257994 234.845356 
L 223.483219 235.719434 
L 218.912044 235.990856 
L 213.490015 234.324942 
L 207.774714 231.377652 
L 202.123944 231.26847 
L 199.695967 228.59026 
L 196.796999 229.647398 
L 194.479065 227.143119 
L 195.575838 225.553775 
L 198.72853 223.969779 
L 194.667892 222.024953 
L 188.534501 217.224045 
L 183.0027 214.553422 
L 175.92062 214.002371 
L 173.975135 213.046186 
L 170.421907 215.395537 
L 168.512865 210.799158 
L 167.805603 205.458113 
L 170.367737 202.732478 
L 172.434804 197.076667 
L 173.838233 194.570259 
L 171.008103 194.656023 
L 170.967245 193.348132 
L 166.648577 193.955341 
L 164.311519 193.038253 
L 165.477161 187.840684 
L 163.965994 184.204302 
L 165.994371 168.568118 
L 171.353416 161.466314 
L 170.466622 158.576839 
L 169.325198 158.015126 
L 173.099436 153.933322 
L 175.829553 152.810983 
L 178.745674 149.766426 
L 183.343495 147.486576 
L 186.062132 146.674928 
L 186.707828 144.498702 
L 188.070551 143.489539 
L 195.902314 137.272747 
L 197.459506 133.736744 
L 196.822875 130.815606 
L 198.9811 130.760522 
L 201.699567 130.231662 
L 205.4514 129.968641 
L 211.96512 131.490251 
L 215.040406 130.443273 
L 212.954006 130.605354 
L 215.359806 132.185639 
L 217.767589 130.827921 
L 218.289072 131.569567 
L 222.473779 131.803512 
L 228.270405 129.627377 
L 232.856803 128.548625 
L 238.115795 127.482944 
L 242.745729 124.896012 
L 246.159284 124.330116 
L 247.407892 122.000061 
L 250.183287 123.556598 
L 252.788089 126.555041 
L 255.847073 129.030925 
L 259.781094 130.389473 
L 263.725483 134.037087 
L 266.809738 135.146953 
L 269.226898 137.312039 
L 271.599359 137.604692 
L 271.792064 137.043489 
L 273.561674 137.698451 
L 275.924113 137.549272 
L 278.215469 138.742953 
L 281.239761 141.256397 
L 284.654236 142.400412 
L 288.231668 144.993508 
L 290.241949 142.803105 
L 293.330396 143.135873 
L 295.741841 143.918045 
L 296.356313 146.026236 
L 297.523212 148.975064 
L 297.339325 151.607713 
L 300.307809 153.746743 
L 304.733602 152.29229 
L 305.658767 148.410724 
L 309.205027 142.440899 
L 315.358865 136.438269 
L 320.445801 134.83137 
L 316.605095 143.178009 
L 314.513598 148.458318 
L 313.047121 153.550715 
L 309.826378 162.790497 
L 309.157607 170.030937 
L 310.90006 173.399927 
L 311.286663 176.801259 
L 309.228792 180.240447 
L 310.242985 182.33646 
L 310.76028 186.136702 
L 307.216523 188.835693 
L 303.088571 190.830859 
L 300.671395 193.734673 
L 296.63845 196.348668 
L 296.562324 198.193778 
L 297.830612 200.454702 
L 296.000454 204.152948 
L 294.688015 207.56285 
L 292.536023 210.356918 
L 288.082435 211.664023 
L 282.924495 210.424915 
L 274.241623 210.114583 
L 271.284491 211.132508 
L 267.819383 211.881537 
L 267.094544 212.882589 
L 264.644449 214.569918 
L 262.024032 215.460275 
L 260.033341 216.812519 
L 256.020605 217.138915 
L 256.24611 217.001891 
L 254.177641 216.444806 
L 251.127013 214.619363 
L 247.07994 214.107229 
L 242.587992 212.71897 
L 238.348604 212.211495 
L 234.052074 213.567058 
L 230.17863 213.42893 
L 226.71964 214.493618 
L 216.893822 216.433753 
L 214.090897 216.021004 
L 209.958059 215.284556 
L 205.394277 216.065767 
L 204.224213 214.691273 
L 203.423156 211.237757 
L 201.822957 207.637977 
L 200.426951 204.065214 
L 198.190321 201.020081 
L 195.113074 198.096921 
L 191.858023 197.112032 
L 188.719408 195.66988 
L 185.956413 197.649452 
L 185.298448 197.41696 
L 183.138554 196.878552 
L 181.755186 194.952858 
L 179.55918 192.805391 
L 178.399694 188.835773 
L 175.981773 186.349997 
L 172.649121 183.860907 
L 166.366538 184.551391 
L 163.321411 182.347446 
L 162.35696 179.933299 
L 162.73697 175.44307 
L 165.821633 170.32031 
L 168.847075 165.843119 
L 171.114263 161.124808 
L 171.657363 157.619798 
L 168.537684 158.053351 
L 167.482553 157.13761 
L 165.562641 156.808069 
L 164.278965 156.30038 
L 165.415326 152.754621 
L 167.922108 148.40599 
L 177.778255 132.700283 
L 178.545106 129.702282 
L 176.344581 126.442453 
L 175.253865 123.512116 
L 175.736162 120.752813 
L 178.982593 119.683593 
L 181.464103 116.920781 
L 185.139292 115.895851 
L 188.79046 114.660087 
L 190.109491 113.177517 
L 189.105332 110.172333 
L 194.847995 107.983112 
L 198.022725 107.044943 
L 192.923143 102.764235 
L 192.238819 100.379654 
L 196.671001 101.536445 
L 203.817327 100.488135 
L 209.503761 100.910442 
L 216.099815 101.858128 
L 221.762639 102.557977 
L 223.775614 98.95118 
L 226.052415 98.226696 
L 230.364186 98.19944 
L 234.458548 100.311087 
L 236.45957 102.136375 
L 239.337664 102.170856 
L 243.64189 101.875693 
L 247.240607 102.036155 
L 254.457364 102.042189 
L 255.30089 103.114822 
L 260.02546 104.853641 
L 265.170655 106.242593 
L 266.731184 104.877788 
L 268.847029 106.519937 
L 269.54956 109.153733 
L 272.49253 111.385733 
L 279.120396 112.903903 
L 282.968346 113.016159 
L 285.029353 112.332072 
L 287.044813 112.241984 
L 294.587339 112.485269 
L 294.432119 114.066601 
L 295.482535 117.163774 
L 299.846801 118.305349 
L 304.984414 118.008714 
L 307.414207 117.264214 
L 306.461817 120.245884 
L 307.652031 127.446258 
L 309.136365 129.341372 
L 306.857142 133.043602 
L 308.760645 133.447838 
L 313.158053 134.55794 
L 313.692518 137.460811 
L 317.241195 138.920515 
L 319.481294 137.240782 
L 321.511099 141.745101 
L 319.363976 147.436815 
L 318.327577 152.126422 
L 315.738574 155.203921 
L 314.582483 157.397866 
L 313.205298 158.953863 
L 310.965698 160.513684 
L 309.612319 162.374608 
L 308.906624 166.035522 
L 304.267195 169.03986 
L 301.052253 172.869696 
L 298.556997 176.886062 
L 294.38977 179.710946 
L 290.822724 180.336117 
L 286.675119 181.50859 
L 285.562671 180.157173 
L 281.587026 180.820175 
L 281.950066 183.418845 
L 282.985848 185.646002 
L 279.316342 184.58178 
L 276.498921 186.240396 
L 270.300207 185.825412 
L 266.238215 187.661244 
L 261.652715 187.858089 
L 257.965093 188.876054 
L 255.377275 188.744084 
L 250.71366 189.764798 
L 245.018457 188.421459 
L 240.63208 187.737354 
L 235.638956 186.375017 
L 230.80437 185.902758 
L 226.247715 185.112493 
L 222.449873 185.126094 
L 218.088379 187.055578 
L 218.088379 187.055578 
" clip-path="url(#p0ee3a6ad11)" style="fill: none; stroke: #1f77b4; stroke-width: 1.5; stroke-linecap: square"/>
   </g>
   <g id="line2d_25">
    <path d="M 210.37964 249.763731 
L 205.332624 246.868621 
L 200.587588 243.643717 
L 198.341972 241.91631 
L 196.187788 240.117266 
L 194.129856 238.250538 
L 192.172735 236.320222 
L 190.320721 234.330546 
L 188.577832 232.285863 
L 186.947804 230.190629 
L 185.434083 228.0494 
L 184.039818 225.866812 
L 182.767862 223.647571 
L 181.62076 221.396443 
L 180.600752 219.118235 
L 179.70977 216.817789 
L 178.949437 214.499966 
L 178.321065 212.169635 
L 177.82566 209.831662 
L 177.463919 207.490899 
L 177.236237 205.15217 
L 177.142705 202.820264 
L 177.183118 200.499922 
L 177.356978 198.195829 
L 177.663498 195.912601 
L 178.101608 193.654782 
L 178.669962 191.426828 
L 179.366944 189.233105 
L 180.190674 187.077876 
L 181.139015 184.965298 
L 182.209584 182.899412 
L 183.399754 180.884137 
L 184.706668 178.923265 
L 186.127243 177.020452 
L 187.658181 175.179218 
L 189.295975 173.402936 
L 191.036923 171.694832 
L 192.87713 170.057978 
L 194.812522 168.495289 
L 196.838853 167.009519 
L 198.951716 165.603258 
L 201.146547 164.278929 
L 205.763159 161.884908 
L 210.649471 159.843396 
L 215.764396 158.167511 
L 221.065264 156.867493 
L 226.508115 155.950666 
L 232.047987 155.421407 
L 237.639203 155.281135 
L 243.235665 155.528301 
L 248.791144 156.158392 
L 254.259572 157.163954 
L 259.595344 158.534609 
L 264.753619 160.257101 
L 269.690628 162.315347 
L 274.363988 164.690502 
L 278.733019 167.361042 
L 282.759069 170.302868 
L 286.40584 173.489427 
L 288.076377 175.165546 
L 289.639715 176.891851 
L 291.092125 178.664401 
L 292.430087 180.47913 
L 293.650296 182.331858 
L 294.749679 184.218297 
L 295.725397 186.134056 
L 296.57486 188.074653 
L 297.295733 190.035519 
L 297.885946 192.012008 
L 298.3437 193.999411 
L 298.667479 195.992957 
L 298.856055 197.987831 
L 298.908494 199.979177 
L 298.824163 201.962118 
L 298.602738 203.931756 
L 298.244205 205.883194 
L 297.748867 207.811541 
L 297.11735 209.711927 
L 296.350598 211.579513 
L 295.449882 213.409506 
L 294.416799 215.197171 
L 293.25327 216.937843 
L 291.961542 218.62694 
L 290.544184 220.259978 
L 289.004083 221.832579 
L 287.344445 223.34049 
L 285.568782 224.77959 
L 283.680914 226.145908 
L 281.684954 227.435629 
L 279.585305 228.645111 
L 277.38665 229.770894 
L 275.093936 230.809713 
L 272.71237 231.758505 
L 270.247402 232.614424 
L 267.704711 233.374845 
L 265.090191 234.037379 
L 262.409938 234.599874 
L 256.877514 235.417396 
L 251.159556 235.815283 
L 245.310268 235.785639 
L 239.38532 235.324916 
L 233.441217 234.433961 
L 227.534644 233.118007 
L 221.721818 231.386603 
L 216.05785 229.25348 
L 210.596121 226.73637 
L 205.387702 223.856763 
L 202.893674 222.288699 
L 200.480803 220.639626 
L 198.154588 218.913156 
L 195.920289 217.113074 
L 193.782921 215.243328 
L 191.747234 213.308017 
L 189.81771 211.31138 
L 187.99855 209.257779 
L 186.293667 207.15169 
L 184.706677 204.997691 
L 183.240897 202.800443 
L 181.899336 200.564686 
L 180.684693 198.295218 
L 179.599354 195.996886 
L 178.645389 193.674575 
L 177.824552 191.33319 
L 177.138278 188.97765 
L 176.587688 186.612872 
L 176.173588 184.243762 
L 175.896472 181.875202 
L 175.756523 179.512037 
L 175.753621 177.159072 
L 175.887341 174.821051 
L 176.156966 172.502658 
L 176.561485 170.208499 
L 177.099605 167.943099 
L 177.769753 165.71089 
L 178.570086 163.516206 
L 179.498498 161.363272 
L 180.552625 159.256198 
L 181.729858 157.198974 
L 183.027344 155.195463 
L 184.442004 153.249392 
L 185.970531 151.364351 
L 187.609409 149.543785 
L 189.354914 147.790992 
L 191.203128 146.109112 
L 193.149946 144.501133 
L 195.191086 142.969879 
L 197.322096 141.51801 
L 199.538367 140.148018 
L 201.835141 138.862227 
L 206.650466 136.551667 
L 211.72736 134.601413 
L 217.023312 133.023685 
L 222.494302 131.827798 
L 228.095101 131.020121 
L 233.779556 130.604059 
L 239.50089 130.580037 
L 245.211991 130.945502 
L 250.865709 131.694928 
L 256.415154 132.819836 
L 261.814002 134.308823 
L 267.016801 136.147608 
L 271.979286 138.319081 
L 276.658699 140.803381 
L 281.014115 143.577978 
L 285.006772 146.617782 
L 288.600407 149.895269 
L 290.237025 151.613914 
L 291.761591 153.380632 
L 293.170423 155.19137 
L 294.46006 157.041954 
L 295.627267 158.928096 
L 296.669048 160.845406 
L 297.582657 162.789393 
L 298.365605 164.755479 
L 299.015668 166.739004 
L 299.530901 168.735235 
L 299.909639 170.73938 
L 300.150512 172.746592 
L 300.252447 174.751984 
L 300.214679 176.750635 
L 300.036753 178.737608 
L 299.718534 180.707953 
L 299.260208 182.656727 
L 298.662287 184.578999 
L 297.925615 186.46987 
L 297.051365 188.324476 
L 296.041047 190.13801 
L 294.896502 191.90573 
L 293.619906 193.622973 
L 292.213765 195.285168 
L 290.680917 196.88785 
L 289.024524 198.426672 
L 287.248067 199.897417 
L 285.355344 201.296014 
L 283.35046 202.618547 
L 281.237819 203.861271 
L 279.022114 205.020619 
L 276.708318 206.093217 
L 274.301673 207.075896 
L 271.807675 207.965696 
L 269.232062 208.759886 
L 266.580799 209.455963 
L 263.860061 210.051667 
L 261.07622 210.544987 
L 258.235823 210.934167 
L 252.412337 211.394398 
L 246.444835 211.42364 
L 240.390174 211.017561 
L 234.306175 210.176281 
L 228.250962 208.90437 
L 222.282284 207.21079 
L 216.456858 205.108767 
L 210.829726 202.615611 
L 208.107112 201.228827 
L 205.453645 199.752481 
L 202.87547 198.189773 
L 200.37852 196.544106 
L 197.968502 194.819073 
L 195.650886 193.018452 
L 193.430886 191.146184 
L 191.313455 189.206371 
L 189.303267 187.203255 
L 187.404714 185.141212 
L 185.621894 183.024732 
L 183.958603 180.858413 
L 182.418329 178.646945 
L 181.00425 176.395093 
L 179.719223 174.10769 
L 178.565785 171.789621 
L 177.546152 169.44581 
L 176.662213 167.081209 
L 175.915534 164.700783 
L 175.307357 162.3095 
L 174.838599 159.912318 
L 174.509858 157.514174 
L 174.321415 155.119973 
L 174.273234 152.734577 
L 174.364973 150.362794 
L 174.595983 148.009369 
L 174.965317 145.678975 
L 175.471736 143.3762 
L 176.113713 141.105546 
L 176.889443 138.871411 
L 177.796851 136.678091 
L 178.833596 134.529764 
L 179.997083 132.43049 
L 181.284469 130.384201 
L 182.692673 128.394696 
L 184.218385 126.465634 
L 185.858074 124.60053 
L 187.607998 122.802751 
L 189.464211 121.075511 
L 191.422578 119.421865 
L 193.478778 117.844707 
L 195.628315 116.346768 
L 197.866532 114.930608 
L 200.188614 113.598619 
L 202.589602 112.353019 
L 207.607787 110.128979 
L 212.878858 108.272683 
L 218.35886 106.795436 
L 224.002407 105.705603 
L 229.762984 105.008587 
L 235.593236 104.706805 
L 241.445272 104.799681 
L 247.270954 105.283648 
L 253.022207 106.152161 
L 258.651313 107.395714 
L 264.111225 109.001879 
L 269.355881 110.955346 
L 274.340525 113.237986 
L 279.022034 115.828923 
L 283.359249 118.704628 
L 287.31332 121.839027 
L 289.13525 123.494427 
L 290.848042 125.203639 
L 292.447641 126.962753 
L 293.930201 128.767727 
L 295.292093 130.614397 
L 296.529918 132.498482 
L 297.640517 134.415591 
L 298.62098 136.361232 
L 299.468658 138.330818 
L 300.181169 140.319677 
L 300.756411 142.32306 
L 301.192569 144.336154 
L 301.488122 146.354084 
L 301.641855 148.371933 
L 301.652859 150.384744 
L 301.520548 152.387536 
L 301.244655 154.375317 
L 300.825244 156.343089 
L 300.26271 158.285867 
L 299.557789 160.198689 
L 298.711551 162.076627 
L 297.725413 163.914803 
L 296.601131 165.708398 
L 295.340806 167.452671 
L 293.946878 169.142967 
L 292.422128 170.774731 
L 290.769672 172.343527 
L 288.992958 173.845042 
L 287.095758 175.275107 
L 285.082165 176.629704 
L 282.956582 177.904984 
L 280.723712 179.097275 
L 278.388551 180.203095 
L 275.956376 181.219163 
L 273.432729 182.142413 
L 270.823407 182.969999 
L 268.134445 183.699308 
L 265.372101 184.32797 
L 262.542842 184.853861 
L 259.65332 185.275116 
L 256.710361 185.590134 
L 250.692166 185.896397 
L 244.545528 185.765288 
L 238.329165 185.193925 
L 232.102564 184.183941 
L 225.925292 182.741466 
L 219.856299 180.877045 
L 213.953248 178.605488 
L 211.081457 177.322778 
L 208.271861 175.945664 
L 208.271861 175.945664 
" clip-path="url(#p0ee3a6ad11)" style="fill: none; stroke: #ff7f0e; stroke-width: 1.5; stroke-linecap: square"/>
   </g>
   <g id="text_21">
    <!-- Trajectory with: 40seconds, 10pieces, Mellinger -->
    <g transform="translate(93.628125 35.472) scale(0.12 -0.12)">
     <defs>
      <path id="DejaVuSans-54" d="M -19 4666 
L 3928 4666 
L 3928 4134 
L 2272 4134 
L 2272 0 
L 1638 0 
L 1638 4134 
L -19 4134 
L -19 4666 
z
" transform="scale(0.015625)"/>
      <path id="DejaVuSans-72" d="M 2631 2963 
Q 2534 3019 2420 3045 
Q 2306 3072 2169 3072 
Q 1681 3072 1420 2755 
Q 1159 2438 1159 1844 
L 1159 0 
L 581 0 
L 581 3500 
L 1159 3500 
L 1159 2956 
Q 1341 3275 1631 3429 
Q 1922 3584 2338 3584 
Q 2397 3584 2469 3576 
Q 2541 3569 2628 3553 
L 2631 2963 
z
" transform="scale(0.015625)"/>
      <path id="DejaVuSans-61" d="M 2194 1759 
Q 1497 1759 1228 1600 
Q 959 1441 959 1056 
Q 959 750 1161 570 
Q 1363 391 1709 391 
Q 2188 391 2477 730 
Q 2766 1069 2766 1631 
L 2766 1759 
L 2194 1759 
z
M 3341 1997 
L 3341 0 
L 2766 0 
L 2766 531 
Q 2569 213 2275 61 
Q 1981 -91 1556 -91 
Q 1019 -91 701 211 
Q 384 513 384 1019 
Q 384 1609 779 1909 
Q 1175 2209 1959 2209 
L 2766 2209 
L 2766 2266 
Q 2766 2663 2505 2880 
Q 2244 3097 1772 3097 
Q 1472 3097 1187 3025 
Q 903 2953 641 2809 
L 641 3341 
Q 956 3463 1253 3523 
Q 1550 3584 1831 3584 
Q 2591 3584 2966 3190 
Q 3341 2797 3341 1997 
z
" transform="scale(0.015625)"/>
      <path id="DejaVuSans-6a" d="M 603 3500 
L 1178 3500 
L 1178 -63 
Q 1178 -731 923 -1031 
Q 669 -1331 103 -1331 
L -116 -1331 
L -116 -844 
L 38 -844 
Q 366 -844 484 -692 
Q 603 -541 603 -63 
L 603 3500 
z
M 603 4863 
L 1178 4863 
L 1178 4134 
L 603 4134 
L 603 4863 
z
" transform="scale(0.015625)"/>
      <path id="DejaVuSans-65" d="M 3597 1894 
L 3597 1613 
L 953 1613 
Q 991 1019 1311 708 
Q 1631 397 2203 397 
Q 2534 397 2845 478 
Q 3156 559 3463 722 
L 3463 178 
Q 3153 47 2828 -22 
Q 2503 -91 2169 -91 
Q 1331 -91 842 396 
Q 353 884 353 1716 
Q 353 2575 817 3079 
Q 1281 3584 2069 3584 
Q 2775 3584 3186 3129 
Q 3597 2675 3597 1894 
z
M 3022 2063 
Q 3016 2534 2758 2815 
Q 2500 3097 2075 3097 
Q 1594 3097 1305 2825 
Q 1016 2553 972 2059 
L 3022 2063 
z
" transform="scale(0.015625)"/>
      <path id="DejaVuSans-63" d="M 3122 3366 
L 3122 2828 
Q 2878 2963 2633 3030 
Q 2388 3097 2138 3097 
Q 1578 3097 1268 2742 
Q 959 2388 959 1747 
Q 959 1106 1268 751 
Q 1578 397 2138 397 
Q 2388 397 2633 464 
Q 2878 531 3122 666 
L 3122 134 
Q 2881 22 2623 -34 
Q 2366 -91 2075 -91 
Q 1284 -91 818 406 
Q 353 903 353 1747 
Q 353 2603 823 3093 
Q 1294 3584 2113 3584 
Q 2378 3584 2631 3529 
Q 2884 3475 3122 3366 
z
" transform="scale(0.015625)"/>
      <path id="DejaVuSans-74" d="M 1172 4494 
L 1172 3500 
L 2356 3500 
L 2356 3053 
L 1172 3053 
L 1172 1153 
Q 1172 725 1289 603 
Q 1406 481 1766 481 
L 2356 481 
L 2356 0 
L 1766 0 
Q 1100 0 847 248 
Q 594 497 594 1153 
L 594 3053 
L 172 3053 
L 172 3500 
L 594 3500 
L 594 4494 
L 1172 4494 
z
" transform="scale(0.015625)"/>
      <path id="DejaVuSans-6f" d="M 1959 3097 
Q 1497 3097 1228 2736 
Q 959 2375 959 1747 
Q 959 1119 1226 758 
Q 1494 397 1959 397 
Q 2419 397 2687 759 
Q 2956 1122 2956 1747 
Q 2956 2369 2687 2733 
Q 2419 3097 1959 3097 
z
M 1959 3584 
Q 2709 3584 3137 3096 
Q 3566 2609 3566 1747 
Q 3566 888 3137 398 
Q 2709 -91 1959 -91 
Q 1206 -91 779 398 
Q 353 888 353 1747 
Q 353 2609 779 3096 
Q 1206 3584 1959 3584 
z
" transform="scale(0.015625)"/>
      <path id="DejaVuSans-79" d="M 2059 -325 
Q 1816 -950 1584 -1140 
Q 1353 -1331 966 -1331 
L 506 -1331 
L 506 -850 
L 844 -850 
Q 1081 -850 1212 -737 
Q 1344 -625 1503 -206 
L 1606 56 
L 191 3500 
L 800 3500 
L 1894 763 
L 2988 3500 
L 3597 3500 
L 2059 -325 
z
" transform="scale(0.015625)"/>
      <path id="DejaVuSans-20" transform="scale(0.015625)"/>
      <path id="DejaVuSans-77" d="M 269 3500 
L 844 3500 
L 1563 769 
L 2278 3500 
L 2956 3500 
L 3675 769 
L 4391 3500 
L 4966 3500 
L 4050 0 
L 3372 0 
L 2619 2869 
L 1863 0 
L 1184 0 
L 269 3500 
z
" transform="scale(0.015625)"/>
      <path id="DejaVuSans-69" d="M 603 3500 
L 1178 3500 
L 1178 0 
L 603 0 
L 603 3500 
z
M 603 4863 
L 1178 4863 
L 1178 4134 
L 603 4134 
L 603 4863 
z
" transform="scale(0.015625)"/>
      <path id="DejaVuSans-68" d="M 3513 2113 
L 3513 0 
L 2938 0 
L 2938 2094 
Q 2938 2591 2744 2837 
Q 2550 3084 2163 3084 
Q 1697 3084 1428 2787 
Q 1159 2491 1159 1978 
L 1159 0 
L 581 0 
L 581 4863 
L 1159 4863 
L 1159 2956 
Q 1366 3272 1645 3428 
Q 1925 3584 2291 3584 
Q 2894 3584 3203 3211 
Q 3513 2838 3513 2113 
z
" transform="scale(0.015625)"/>
      <path id="DejaVuSans-3a" d="M 750 794 
L 1409 794 
L 1409 0 
L 750 0 
L 750 794 
z
M 750 3309 
L 1409 3309 
L 1409 2516 
L 750 2516 
L 750 3309 
z
" transform="scale(0.015625)"/>
      <path id="DejaVuSans-73" d="M 2834 3397 
L 2834 2853 
Q 2591 2978 2328 3040 
Q 2066 3103 1784 3103 
Q 1356 3103 1142 2972 
Q 928 2841 928 2578 
Q 928 2378 1081 2264 
Q 1234 2150 1697 2047 
L 1894 2003 
Q 2506 1872 2764 1633 
Q 3022 1394 3022 966 
Q 3022 478 2636 193 
Q 2250 -91 1575 -91 
Q 1294 -91 989 -36 
Q 684 19 347 128 
L 347 722 
Q 666 556 975 473 
Q 1284 391 1588 391 
Q 1994 391 2212 530 
Q 2431 669 2431 922 
Q 2431 1156 2273 1281 
Q 2116 1406 1581 1522 
L 1381 1569 
Q 847 1681 609 1914 
Q 372 2147 372 2553 
Q 372 3047 722 3315 
Q 1072 3584 1716 3584 
Q 2034 3584 2315 3537 
Q 2597 3491 2834 3397 
z
" transform="scale(0.015625)"/>
      <path id="DejaVuSans-6e" d="M 3513 2113 
L 3513 0 
L 2938 0 
L 2938 2094 
Q 2938 2591 2744 2837 
Q 2550 3084 2163 3084 
Q 1697 3084 1428 2787 
Q 1159 2491 1159 1978 
L 1159 0 
L 581 0 
L 581 3500 
L 1159 3500 
L 1159 2956 
Q 1366 3272 1645 3428 
Q 1925 3584 2291 3584 
Q 2894 3584 3203 3211 
Q 3513 2838 3513 2113 
z
" transform="scale(0.015625)"/>
      <path id="DejaVuSans-64" d="M 2906 2969 
L 2906 4863 
L 3481 4863 
L 3481 0 
L 2906 0 
L 2906 525 
Q 2725 213 2448 61 
Q 2172 -91 1784 -91 
Q 1150 -91 751 415 
Q 353 922 353 1747 
Q 353 2572 751 3078 
Q 1150 3584 1784 3584 
Q 2172 3584 2448 3432 
Q 2725 3281 2906 2969 
z
M 947 1747 
Q 947 1113 1208 752 
Q 1469 391 1925 391 
Q 2381 391 2643 752 
Q 2906 1113 2906 1747 
Q 2906 2381 2643 2742 
Q 2381 3103 1925 3103 
Q 1469 3103 1208 2742 
Q 947 2381 947 1747 
z
" transform="scale(0.015625)"/>
      <path id="DejaVuSans-2c" d="M 750 794 
L 1409 794 
L 1409 256 
L 897 -744 
L 494 -744 
L 750 256 
L 750 794 
z
" transform="scale(0.015625)"/>
      <path id="DejaVuSans-70" d="M 1159 525 
L 1159 -1331 
L 581 -1331 
L 581 3500 
L 1159 3500 
L 1159 2969 
Q 1341 3281 1617 3432 
Q 1894 3584 2278 3584 
Q 2916 3584 3314 3078 
Q 3713 2572 3713 1747 
Q 3713 922 3314 415 
Q 2916 -91 2278 -91 
Q 1894 -91 1617 61 
Q 1341 213 1159 525 
z
M 3116 1747 
Q 3116 2381 2855 2742 
Q 2594 3103 2138 3103 
Q 1681 3103 1420 2742 
Q 1159 2381 1159 1747 
Q 1159 1113 1420 752 
Q 1681 391 2138 391 
Q 2594 391 2855 752 
Q 3116 1113 3116 1747 
z
" transform="scale(0.015625)"/>
      <path id="DejaVuSans-4d" d="M 628 4666 
L 1569 4666 
L 2759 1491 
L 3956 4666 
L 4897 4666 
L 4897 0 
L 4281 0 
L 4281 4097 
L 3078 897 
L 2444 897 
L 1241 4097 
L 1241 0 
L 628 0 
L 628 4666 
z
" transform="scale(0.015625)"/>
      <path id="DejaVuSans-6c" d="M 603 4863 
L 1178 4863 
L 1178 0 
L 603 0 
L 603 4863 
z
" transform="scale(0.015625)"/>
      <path id="DejaVuSans-67" d="M 2906 1791 
Q 2906 2416 2648 2759 
Q 2391 3103 1925 3103 
Q 1463 3103 1205 2759 
Q 947 2416 947 1791 
Q 947 1169 1205 825 
Q 1463 481 1925 481 
Q 2391 481 2648 825 
Q 2906 1169 2906 1791 
z
M 3481 434 
Q 3481 -459 3084 -895 
Q 2688 -1331 1869 -1331 
Q 1566 -1331 1297 -1286 
Q 1028 -1241 775 -1147 
L 775 -588 
Q 1028 -725 1275 -790 
Q 1522 -856 1778 -856 
Q 2344 -856 2625 -561 
Q 2906 -266 2906 331 
L 2906 616 
Q 2728 306 2450 153 
Q 2172 0 1784 0 
Q 1141 0 747 490 
Q 353 981 353 1791 
Q 353 2603 747 3093 
Q 1141 3584 1784 3584 
Q 2172 3584 2450 3431 
Q 2728 3278 2906 2969 
L 2906 3500 
L 3481 3500 
L 3481 434 
z
" transform="scale(0.015625)"/>
     </defs>
     <use xlink:href="#DejaVuSans-54"/>
     <use xlink:href="#DejaVuSans-72" x="46.333984"/>
     <use xlink:href="#DejaVuSans-61" x="87.447266"/>
     <use xlink:href="#DejaVuSans-6a" x="148.726562"/>
     <use xlink:href="#DejaVuSans-65" x="176.509766"/>
     <use xlink:href="#DejaVuSans-63" x="238.033203"/>
     <use xlink:href="#DejaVuSans-74" x="293.013672"/>
     <use xlink:href="#DejaVuSans-6f" x="332.222656"/>
     <use xlink:href="#DejaVuSans-72" x="393.404297"/>
     <use xlink:href="#DejaVuSans-79" x="434.517578"/>
     <use xlink:href="#DejaVuSans-20" x="493.697266"/>
     <use xlink:href="#DejaVuSans-77" x="525.484375"/>
     <use xlink:href="#DejaVuSans-69" x="607.271484"/>
     <use xlink:href="#DejaVuSans-74" x="635.054688"/>
     <use xlink:href="#DejaVuSans-68" x="674.263672"/>
     <use xlink:href="#DejaVuSans-3a" x="737.642578"/>
     <use xlink:href="#DejaVuSans-20" x="771.333984"/>
     <use xlink:href="#DejaVuSans-34" x="803.121094"/>
     <use xlink:href="#DejaVuSans-30" x="866.744141"/>
     <use xlink:href="#DejaVuSans-73" x="930.367188"/>
     <use xlink:href="#DejaVuSans-65" x="982.466797"/>
     <use xlink:href="#DejaVuSans-63" x="1043.990234"/>
     <use xlink:href="#DejaVuSans-6f" x="1098.970703"/>
     <use xlink:href="#DejaVuSans-6e" x="1160.152344"/>
     <use xlink:href="#DejaVuSans-64" x="1223.53125"/>
     <use xlink:href="#DejaVuSans-73" x="1287.007812"/>
     <use xlink:href="#DejaVuSans-2c" x="1339.107422"/>
     <use xlink:href="#DejaVuSans-20" x="1370.894531"/>
     <use xlink:href="#DejaVuSans-31" x="1402.681641"/>
     <use xlink:href="#DejaVuSans-30" x="1466.304688"/>
     <use xlink:href="#DejaVuSans-70" x="1529.927734"/>
     <use xlink:href="#DejaVuSans-69" x="1593.404297"/>
     <use xlink:href="#DejaVuSans-65" x="1621.1875"/>
     <use xlink:href="#DejaVuSans-63" x="1682.710938"/>
     <use xlink:href="#DejaVuSans-65" x="1737.691406"/>
     <use xlink:href="#DejaVuSans-73" x="1799.214844"/>
     <use xlink:href="#DejaVuSans-2c" x="1851.314453"/>
     <use xlink:href="#DejaVuSans-20" x="1883.101562"/>
     <use xlink:href="#DejaVuSans-4d" x="1914.888672"/>
     <use xlink:href="#DejaVuSans-65" x="2001.167969"/>
     <use xlink:href="#DejaVuSans-6c" x="2062.691406"/>
     <use xlink:href="#DejaVuSans-6c" x="2090.474609"/>
     <use xlink:href="#DejaVuSans-69" x="2118.257812"/>
     <use xlink:href="#DejaVuSans-6e" x="2146.041016"/>
     <use xlink:href="#DejaVuSans-67" x="2209.419922"/>
     <use xlink:href="#DejaVuSans-65" x="2272.896484"/>
     <use xlink:href="#DejaVuSans-72" x="2334.419922"/>
    </g>
   </g>
   <g id="legend_1">
    <g id="patch_6">
     <path d="M 211.183187 78.82825 
L 362.216 78.82825 
Q 364.216 78.82825 364.216 76.82825 
L 364.216 48.472 
Q 364.216 46.472 362.216 46.472 
L 211.183187 46.472 
Q 209.183187 46.472 209.183187 48.472 
L 209.183187 76.82825 
Q 209.183187 78.82825 211.183187 78.82825 
z
" style="fill: #ffffff; opacity: 0.8; stroke: #cccccc; stroke-linejoin: miter"/>
    </g>
    <g id="line2d_26">
     <path d="M 213.183187 54.570437 
L 223.183187 54.570437 
L 233.183187 54.570437 
" style="fill: none; stroke: #1f77b4; stroke-width: 1.5; stroke-linecap: square"/>
    </g>
    <g id="text_22">
     <!-- 3D input trajectory -->
     <g transform="translate(241.183187 58.070437) scale(0.1 -0.1)">
      <defs>
       <path id="DejaVuSans-33" d="M 2597 2516 
Q 3050 2419 3304 2112 
Q 3559 1806 3559 1356 
Q 3559 666 3084 287 
Q 2609 -91 1734 -91 
Q 1441 -91 1130 -33 
Q 819 25 488 141 
L 488 750 
Q 750 597 1062 519 
Q 1375 441 1716 441 
Q 2309 441 2620 675 
Q 2931 909 2931 1356 
Q 2931 1769 2642 2001 
Q 2353 2234 1838 2234 
L 1294 2234 
L 1294 2753 
L 1863 2753 
Q 2328 2753 2575 2939 
Q 2822 3125 2822 3475 
Q 2822 3834 2567 4026 
Q 2313 4219 1838 4219 
Q 1578 4219 1281 4162 
Q 984 4106 628 3988 
L 628 4550 
Q 988 4650 1302 4700 
Q 1616 4750 1894 4750 
Q 2613 4750 3031 4423 
Q 3450 4097 3450 3541 
Q 3450 3153 3228 2886 
Q 3006 2619 2597 2516 
z
" transform="scale(0.015625)"/>
       <path id="DejaVuSans-44" d="M 1259 4147 
L 1259 519 
L 2022 519 
Q 2988 519 3436 956 
Q 3884 1394 3884 2338 
Q 3884 3275 3436 3711 
Q 2988 4147 2022 4147 
L 1259 4147 
z
M 628 4666 
L 1925 4666 
Q 3281 4666 3915 4102 
Q 4550 3538 4550 2338 
Q 4550 1131 3912 565 
Q 3275 0 1925 0 
L 628 0 
L 628 4666 
z
" transform="scale(0.015625)"/>
       <path id="DejaVuSans-75" d="M 544 1381 
L 544 3500 
L 1119 3500 
L 1119 1403 
Q 1119 906 1312 657 
Q 1506 409 1894 409 
Q 2359 409 2629 706 
Q 2900 1003 2900 1516 
L 2900 3500 
L 3475 3500 
L 3475 0 
L 2900 0 
L 2900 538 
Q 2691 219 2414 64 
Q 2138 -91 1772 -91 
Q 1169 -91 856 284 
Q 544 659 544 1381 
z
M 1991 3584 
L 1991 3584 
z
" transform="scale(0.015625)"/>
      </defs>
      <use xlink:href="#DejaVuSans-33"/>
      <use xlink:href="#DejaVuSans-44" x="63.623047"/>
      <use xlink:href="#DejaVuSans-20" x="140.625"/>
      <use xlink:href="#DejaVuSans-69" x="172.412109"/>
      <use xlink:href="#DejaVuSans-6e" x="200.195312"/>
      <use xlink:href="#DejaVuSans-70" x="263.574219"/>
      <use xlink:href="#DejaVuSans-75" x="327.050781"/>
      <use xlink:href="#DejaVuSans-74" x="390.429688"/>
      <use xlink:href="#DejaVuSans-20" x="429.638672"/>
      <use xlink:href="#DejaVuSans-74" x="461.425781"/>
      <use xlink:href="#DejaVuSans-72" x="500.634766"/>
      <use xlink:href="#DejaVuSans-61" x="541.748047"/>
      <use xlink:href="#DejaVuSans-6a" x="603.027344"/>
      <use xlink:href="#DejaVuSans-65" x="630.810547"/>
      <use xlink:href="#DejaVuSans-63" x="692.333984"/>
      <use xlink:href="#DejaVuSans-74" x="747.314453"/>
      <use xlink:href="#DejaVuSans-6f" x="786.523438"/>
      <use xlink:href="#DejaVuSans-72" x="847.705078"/>
      <use xlink:href="#DejaVuSans-79" x="888.818359"/>
     </g>
    </g>
    <g id="line2d_27">
     <path d="M 213.183187 69.248562 
L 223.183187 69.248562 
L 233.183187 69.248562 
" style="fill: none; stroke: #ff7f0e; stroke-width: 1.5; stroke-linecap: square"/>
    </g>
    <g id="text_23">
     <!-- 3D measured trajectory -->
     <g transform="translate(241.183187 72.748562) scale(0.1 -0.1)">
      <defs>
       <path id="DejaVuSans-6d" d="M 3328 2828 
Q 3544 3216 3844 3400 
Q 4144 3584 4550 3584 
Q 5097 3584 5394 3201 
Q 5691 2819 5691 2113 
L 5691 0 
L 5113 0 
L 5113 2094 
Q 5113 2597 4934 2840 
Q 4756 3084 4391 3084 
Q 3944 3084 3684 2787 
Q 3425 2491 3425 1978 
L 3425 0 
L 2847 0 
L 2847 2094 
Q 2847 2600 2669 2842 
Q 2491 3084 2119 3084 
Q 1678 3084 1418 2786 
Q 1159 2488 1159 1978 
L 1159 0 
L 581 0 
L 581 3500 
L 1159 3500 
L 1159 2956 
Q 1356 3278 1631 3431 
Q 1906 3584 2284 3584 
Q 2666 3584 2933 3390 
Q 3200 3197 3328 2828 
z
" transform="scale(0.015625)"/>
      </defs>
      <use xlink:href="#DejaVuSans-33"/>
      <use xlink:href="#DejaVuSans-44" x="63.623047"/>
      <use xlink:href="#DejaVuSans-20" x="140.625"/>
      <use xlink:href="#DejaVuSans-6d" x="172.412109"/>
      <use xlink:href="#DejaVuSans-65" x="269.824219"/>
      <use xlink:href="#DejaVuSans-61" x="331.347656"/>
      <use xlink:href="#DejaVuSans-73" x="392.626953"/>
      <use xlink:href="#DejaVuSans-75" x="444.726562"/>
      <use xlink:href="#DejaVuSans-72" x="508.105469"/>
      <use xlink:href="#DejaVuSans-65" x="546.96875"/>
      <use xlink:href="#DejaVuSans-64" x="608.492188"/>
      <use xlink:href="#DejaVuSans-20" x="671.96875"/>
      <use xlink:href="#DejaVuSans-74" x="703.755859"/>
      <use xlink:href="#DejaVuSans-72" x="742.964844"/>
      <use xlink:href="#DejaVuSans-61" x="784.078125"/>
      <use xlink:href="#DejaVuSans-6a" x="845.357422"/>
      <use xlink:href="#DejaVuSans-65" x="873.140625"/>
      <use xlink:href="#DejaVuSans-63" x="934.664062"/>
      <use xlink:href="#DejaVuSans-74" x="989.644531"/>
      <use xlink:href="#DejaVuSans-6f" x="1028.853516"/>
      <use xlink:href="#DejaVuSans-72" x="1090.035156"/>
      <use xlink:href="#DejaVuSans-79" x="1131.148438"/>
     </g>
    </g>
   </g>
  </g>
 </g>
 <defs>
  <clipPath id="p0ee3a6ad11">
   <rect x="103.104" y="41.472" width="266.112" height="266.112"/>
  </clipPath>
 </defs>
</svg>
