<?xml version="1.0" encoding="utf-8" standalone="no"?>
<!DOCTYPE svg PUBLIC "-//W3C//DTD SVG 1.1//EN"
  "http://www.w3.org/Graphics/SVG/1.1/DTD/svg11.dtd">
<svg xmlns:xlink="http://www.w3.org/1999/xlink" width="460.8pt" height="345.6pt" viewBox="0 0 460.8 345.6" xmlns="http://www.w3.org/2000/svg" version="1.1">
 <metadata>
  <rdf:RDF xmlns:dc="http://purl.org/dc/elements/1.1/" xmlns:cc="http://creativecommons.org/ns#" xmlns:rdf="http://www.w3.org/1999/02/22-rdf-syntax-ns#">
   <cc:Work>
    <dc:type rdf:resource="http://purl.org/dc/dcmitype/StillImage"/>
    <dc:date>2024-02-09T17:21:50.831449</dc:date>
    <dc:format>image/svg+xml</dc:format>
    <dc:creator>
     <cc:Agent>
      <dc:title>Matplotlib v3.8.2, https://matplotlib.org/</dc:title>
     </cc:Agent>
    </dc:creator>
   </cc:Work>
  </rdf:RDF>
 </metadata>
 <defs>
  <style type="text/css">*{stroke-linejoin: round; stroke-linecap: butt}</style>
 </defs>
 <g id="figure_1">
  <g id="patch_1">
   <path d="M 0 345.6 
L 460.8 345.6 
L 460.8 0 
L 0 0 
z
" style="fill: #ffffff"/>
  </g>
  <g id="patch_2">
   <path d="M 103.104 307.584 
L 369.216 307.584 
L 369.216 41.472 
L 103.104 41.472 
z
" style="fill: #ffffff"/>
  </g>
  <g id="pane3d_1">
   <g id="patch_3">
    <path d="M 345.695647 125.223325 
L 192.926545 66.240035 
L 188.557335 53.962297 
L 355.588132 118.443055 
" style="fill: #f2f2f2; opacity: 0.5; stroke: #f2f2f2; stroke-linejoin: miter"/>
   </g>
  </g>
  <g id="pane3d_2">
   <g id="patch_4">
    <path d="M 133.68733 218.996551 
L 192.926545 66.240035 
L 188.557335 53.962297 
L 123.769564 220.97533 
" style="fill: #e6e6e6; opacity: 0.5; stroke: #e6e6e6; stroke-linejoin: miter"/>
   </g>
  </g>
  <g id="pane3d_3">
   <g id="patch_5">
    <path d="M 286.71491 278.214776 
L 345.695647 125.223325 
L 192.926545 66.240035 
L 133.68733 218.996551 
" style="fill: #ececec; opacity: 0.5; stroke: #ececec; stroke-linejoin: miter"/>
   </g>
  </g>
  <g id="grid3d_1">
   <g id="Line3DCollection_1">
    <path d="M 294.106036 259.04277 
L 141.110837 199.854012 
L 131.8897 200.042852 
" style="fill: none; stroke: #b0b0b0; stroke-width: 0.8"/>
    <path d="M 302.913799 236.196116 
L 149.957192 177.042462 
L 141.565713 175.099559 
" style="fill: none; stroke: #b0b0b0; stroke-width: 0.8"/>
    <path d="M 311.716338 213.363014 
L 158.798302 154.244434 
L 151.235455 150.172434 
" style="fill: none; stroke: #b0b0b0; stroke-width: 0.8"/>
    <path d="M 320.513656 190.543455 
L 167.634174 131.459916 
L 160.898931 125.26146 
" style="fill: none; stroke: #b0b0b0; stroke-width: 0.8"/>
    <path d="M 329.305758 167.737424 
L 176.464811 108.688896 
L 170.556148 100.366622 
" style="fill: none; stroke: #b0b0b0; stroke-width: 0.8"/>
    <path d="M 338.092649 144.94491 
L 185.290218 85.931362 
L 180.207111 75.487904 
" style="fill: none; stroke: #b0b0b0; stroke-width: 0.8"/>
   </g>
  </g>
  <g id="grid3d_2">
   <g id="Line3DCollection_2">
    <path d="M 332.835451 109.659585 
L 324.88696 117.189208 
L 265.870989 270.148648 
" style="fill: none; stroke: #b0b0b0; stroke-width: 0.8"/>
    <path d="M 311.685442 101.494811 
L 305.543649 109.720864 
L 246.494932 262.65055 
" style="fill: none; stroke: #b0b0b0; stroke-width: 0.8"/>
    <path d="M 290.539927 93.331773 
L 286.204096 102.253972 
L 227.122647 255.153913 
" style="fill: none; stroke: #b0b0b0; stroke-width: 0.8"/>
    <path d="M 269.398904 85.170468 
L 266.868301 94.788531 
L 207.754134 247.658735 
" style="fill: none; stroke: #b0b0b0; stroke-width: 0.8"/>
    <path d="M 248.262371 77.010897 
L 247.536263 87.32454 
L 188.389392 240.165016 
" style="fill: none; stroke: #b0b0b0; stroke-width: 0.8"/>
    <path d="M 227.130328 68.853059 
L 228.20798 79.861998 
L 169.028419 232.672755 
" style="fill: none; stroke: #b0b0b0; stroke-width: 0.8"/>
    <path d="M 206.002772 60.696954 
L 208.883452 72.400907 
L 149.671214 225.181953 
" style="fill: none; stroke: #b0b0b0; stroke-width: 0.8"/>
   </g>
  </g>
  <g id="grid3d_3">
   <g id="Line3DCollection_3">
    <path d="M 133.343177 219.065216 
L 192.774903 65.813913 
L 346.03896 124.988019 
" style="fill: none; stroke: #b0b0b0; stroke-width: 0.8"/>
    <path d="M 131.890132 219.355125 
L 192.13468 64.014849 
L 347.488431 123.994558 
" style="fill: none; stroke: #b0b0b0; stroke-width: 0.8"/>
    <path d="M 130.396856 219.653062 
L 191.476767 62.166074 
L 348.977983 122.973625 
" style="fill: none; stroke: #b0b0b0; stroke-width: 0.8"/>
    <path d="M 128.861654 219.959363 
L 190.800421 60.265501 
L 350.509304 121.924064 
" style="fill: none; stroke: #b0b0b0; stroke-width: 0.8"/>
    <path d="M 127.282736 220.274387 
L 190.104855 58.310921 
L 352.084174 120.844655 
" style="fill: none; stroke: #b0b0b0; stroke-width: 0.8"/>
    <path d="M 125.658207 220.59851 
L 189.389239 56.299999 
L 353.704478 119.734105 
" style="fill: none; stroke: #b0b0b0; stroke-width: 0.8"/>
    <path d="M 123.986061 220.932135 
L 188.652694 54.230262 
L 355.372211 118.591047 
" style="fill: none; stroke: #b0b0b0; stroke-width: 0.8"/>
   </g>
  </g>
  <g id="axis3d_1">
   <g id="line2d_1">
    <path d="M 345.695647 125.223325 
L 286.71491 278.214776 
" style="fill: none; stroke: #000000; stroke-width: 0.8; stroke-linecap: square"/>
   </g>
   <g id="xtick_1">
    <g id="line2d_2">
     <path d="M 292.88114 258.568899 
L 296.555872 259.990531 
" style="fill: none; stroke: #000000; stroke-width: 0.8; stroke-linecap: square"/>
    </g>
    <g id="text_1">
     <!-- 1.0 -->
     <g transform="translate(298.386792 271.090241) scale(0.1 -0.1)">
      <defs>
       <path id="DejaVuSans-31" d="M 794 531 
L 1825 531 
L 1825 4091 
L 703 3866 
L 703 4441 
L 1819 4666 
L 2450 4666 
L 2450 531 
L 3481 531 
L 3481 0 
L 794 0 
L 794 531 
z
" transform="scale(0.015625)"/>
       <path id="DejaVuSans-2e" d="M 684 794 
L 1344 794 
L 1344 0 
L 684 0 
L 684 794 
z
" transform="scale(0.015625)"/>
       <path id="DejaVuSans-30" d="M 2034 4250 
Q 1547 4250 1301 3770 
Q 1056 3291 1056 2328 
Q 1056 1369 1301 889 
Q 1547 409 2034 409 
Q 2525 409 2770 889 
Q 3016 1369 3016 2328 
Q 3016 3291 2770 3770 
Q 2525 4250 2034 4250 
z
M 2034 4750 
Q 2819 4750 3233 4129 
Q 3647 3509 3647 2328 
Q 3647 1150 3233 529 
Q 2819 -91 2034 -91 
Q 1250 -91 836 529 
Q 422 1150 422 2328 
Q 422 3509 836 4129 
Q 1250 4750 2034 4750 
z
" transform="scale(0.015625)"/>
      </defs>
      <use xlink:href="#DejaVuSans-31"/>
      <use xlink:href="#DejaVuSans-2e" x="63.623047"/>
      <use xlink:href="#DejaVuSans-30" x="95.410156"/>
     </g>
    </g>
   </g>
   <g id="xtick_2">
    <g id="line2d_3">
     <path d="M 301.689213 235.722525 
L 305.363017 237.143314 
" style="fill: none; stroke: #000000; stroke-width: 0.8; stroke-linecap: square"/>
    </g>
    <g id="text_2">
     <!-- 1.2 -->
     <g transform="translate(307.129442 248.401824) scale(0.1 -0.1)">
      <defs>
       <path id="DejaVuSans-32" d="M 1228 531 
L 3431 531 
L 3431 0 
L 469 0 
L 469 531 
Q 828 903 1448 1529 
Q 2069 2156 2228 2338 
Q 2531 2678 2651 2914 
Q 2772 3150 2772 3378 
Q 2772 3750 2511 3984 
Q 2250 4219 1831 4219 
Q 1534 4219 1204 4116 
Q 875 4013 500 3803 
L 500 4441 
Q 881 4594 1212 4672 
Q 1544 4750 1819 4750 
Q 2544 4750 2975 4387 
Q 3406 4025 3406 3419 
Q 3406 3131 3298 2873 
Q 3191 2616 2906 2266 
Q 2828 2175 2409 1742 
Q 1991 1309 1228 531 
z
" transform="scale(0.015625)"/>
      </defs>
      <use xlink:href="#DejaVuSans-31"/>
      <use xlink:href="#DejaVuSans-2e" x="63.623047"/>
      <use xlink:href="#DejaVuSans-32" x="95.410156"/>
     </g>
    </g>
   </g>
   <g id="xtick_3">
    <g id="line2d_4">
     <path d="M 310.49206 212.889705 
L 314.164937 214.309651 
" style="fill: none; stroke: #000000; stroke-width: 0.8; stroke-linecap: square"/>
    </g>
    <g id="text_3">
     <!-- 1.4 -->
     <g transform="translate(315.866943 225.726773) scale(0.1 -0.1)">
      <defs>
       <path id="DejaVuSans-34" d="M 2419 4116 
L 825 1625 
L 2419 1625 
L 2419 4116 
z
M 2253 4666 
L 3047 4666 
L 3047 1625 
L 3713 1625 
L 3713 1100 
L 3047 1100 
L 3047 0 
L 2419 0 
L 2419 1100 
L 313 1100 
L 313 1709 
L 2253 4666 
z
" transform="scale(0.015625)"/>
      </defs>
      <use xlink:href="#DejaVuSans-31"/>
      <use xlink:href="#DejaVuSans-2e" x="63.623047"/>
      <use xlink:href="#DejaVuSans-34" x="95.410156"/>
     </g>
    </g>
   </g>
   <g id="xtick_4">
    <g id="line2d_5">
     <path d="M 319.289687 190.070426 
L 322.961637 191.489529 
" style="fill: none; stroke: #000000; stroke-width: 0.8; stroke-linecap: square"/>
    </g>
    <g id="text_4">
     <!-- 1.6 -->
     <g transform="translate(324.599298 203.065076) scale(0.1 -0.1)">
      <defs>
       <path id="DejaVuSans-36" d="M 2113 2584 
Q 1688 2584 1439 2293 
Q 1191 2003 1191 1497 
Q 1191 994 1439 701 
Q 1688 409 2113 409 
Q 2538 409 2786 701 
Q 3034 994 3034 1497 
Q 3034 2003 2786 2293 
Q 2538 2584 2113 2584 
z
M 3366 4563 
L 3366 3988 
Q 3128 4100 2886 4159 
Q 2644 4219 2406 4219 
Q 1781 4219 1451 3797 
Q 1122 3375 1075 2522 
Q 1259 2794 1537 2939 
Q 1816 3084 2150 3084 
Q 2853 3084 3261 2657 
Q 3669 2231 3669 1497 
Q 3669 778 3244 343 
Q 2819 -91 2113 -91 
Q 1303 -91 875 529 
Q 447 1150 447 2328 
Q 447 3434 972 4092 
Q 1497 4750 2381 4750 
Q 2619 4750 2861 4703 
Q 3103 4656 3366 4563 
z
" transform="scale(0.015625)"/>
      </defs>
      <use xlink:href="#DejaVuSans-31"/>
      <use xlink:href="#DejaVuSans-2e" x="63.623047"/>
      <use xlink:href="#DejaVuSans-36" x="95.410156"/>
     </g>
    </g>
   </g>
   <g id="xtick_5">
    <g id="line2d_6">
     <path d="M 328.082098 167.264676 
L 331.753122 168.682938 
" style="fill: none; stroke: #000000; stroke-width: 0.8; stroke-linecap: square"/>
    </g>
    <g id="text_5">
     <!-- 1.8 -->
     <g transform="translate(333.326511 180.416721) scale(0.1 -0.1)">
      <defs>
       <path id="DejaVuSans-38" d="M 2034 2216 
Q 1584 2216 1326 1975 
Q 1069 1734 1069 1313 
Q 1069 891 1326 650 
Q 1584 409 2034 409 
Q 2484 409 2743 651 
Q 3003 894 3003 1313 
Q 3003 1734 2745 1975 
Q 2488 2216 2034 2216 
z
M 1403 2484 
Q 997 2584 770 2862 
Q 544 3141 544 3541 
Q 544 4100 942 4425 
Q 1341 4750 2034 4750 
Q 2731 4750 3128 4425 
Q 3525 4100 3525 3541 
Q 3525 3141 3298 2862 
Q 3072 2584 2669 2484 
Q 3125 2378 3379 2068 
Q 3634 1759 3634 1313 
Q 3634 634 3220 271 
Q 2806 -91 2034 -91 
Q 1263 -91 848 271 
Q 434 634 434 1313 
Q 434 1759 690 2068 
Q 947 2378 1403 2484 
z
M 1172 3481 
Q 1172 3119 1398 2916 
Q 1625 2713 2034 2713 
Q 2441 2713 2670 2916 
Q 2900 3119 2900 3481 
Q 2900 3844 2670 4047 
Q 2441 4250 2034 4250 
Q 1625 4250 1398 4047 
Q 1172 3844 1172 3481 
z
" transform="scale(0.015625)"/>
      </defs>
      <use xlink:href="#DejaVuSans-31"/>
      <use xlink:href="#DejaVuSans-2e" x="63.623047"/>
      <use xlink:href="#DejaVuSans-38" x="95.410156"/>
     </g>
    </g>
   </g>
   <g id="xtick_6">
    <g id="line2d_7">
     <path d="M 336.869298 144.472442 
L 340.539396 145.889864 
" style="fill: none; stroke: #000000; stroke-width: 0.8; stroke-linecap: square"/>
    </g>
    <g id="text_6">
     <!-- 2.0 -->
     <g transform="translate(342.048588 157.781696) scale(0.1 -0.1)">
      <use xlink:href="#DejaVuSans-32"/>
      <use xlink:href="#DejaVuSans-2e" x="63.623047"/>
      <use xlink:href="#DejaVuSans-30" x="95.410156"/>
     </g>
    </g>
   </g>
  </g>
  <g id="axis3d_2">
   <g id="line2d_8">
    <path d="M 133.68733 218.996551 
L 286.71491 278.214776 
" style="fill: none; stroke: #000000; stroke-width: 0.8; stroke-linecap: square"/>
   </g>
   <g id="xtick_7">
    <g id="line2d_9">
     <path d="M 266.344049 268.922556 
L 264.924824 272.600947 
" style="fill: none; stroke: #000000; stroke-width: 0.8; stroke-linecap: square"/>
    </g>
    <g id="text_7">
     <!-- 1.0 -->
     <g transform="translate(252.862636 289.866342) scale(0.1 -0.1)">
      <use xlink:href="#DejaVuSans-31"/>
      <use xlink:href="#DejaVuSans-2e" x="63.623047"/>
      <use xlink:href="#DejaVuSans-30" x="95.410156"/>
     </g>
    </g>
   </g>
   <g id="xtick_8">
    <g id="line2d_10">
     <path d="M 246.968254 261.424698 
L 245.548242 265.102372 
" style="fill: none; stroke: #000000; stroke-width: 0.8; stroke-linecap: square"/>
    </g>
    <g id="text_8">
     <!-- 1.2 -->
     <g transform="translate(233.620491 282.418704) scale(0.1 -0.1)">
      <use xlink:href="#DejaVuSans-31"/>
      <use xlink:href="#DejaVuSans-2e" x="63.623047"/>
      <use xlink:href="#DejaVuSans-32" x="95.410156"/>
     </g>
    </g>
   </g>
   <g id="xtick_9">
    <g id="line2d_11">
     <path d="M 227.596232 253.928299 
L 226.175433 257.605257 
" style="fill: none; stroke: #000000; stroke-width: 0.8; stroke-linecap: square"/>
    </g>
    <g id="text_9">
     <!-- 1.4 -->
     <g transform="translate(214.382067 274.972507) scale(0.1 -0.1)">
      <use xlink:href="#DejaVuSans-31"/>
      <use xlink:href="#DejaVuSans-2e" x="63.623047"/>
      <use xlink:href="#DejaVuSans-34" x="95.410156"/>
     </g>
    </g>
   </g>
   <g id="xtick_10">
    <g id="line2d_12">
     <path d="M 208.227981 246.433359 
L 206.806396 250.109602 
" style="fill: none; stroke: #000000; stroke-width: 0.8; stroke-linecap: square"/>
    </g>
    <g id="text_10">
     <!-- 1.6 -->
     <g transform="translate(195.147363 267.527749) scale(0.1 -0.1)">
      <use xlink:href="#DejaVuSans-31"/>
      <use xlink:href="#DejaVuSans-2e" x="63.623047"/>
      <use xlink:href="#DejaVuSans-36" x="95.410156"/>
     </g>
    </g>
   </g>
   <g id="xtick_11">
    <g id="line2d_13">
     <path d="M 188.863501 238.939879 
L 187.441129 242.615406 
" style="fill: none; stroke: #000000; stroke-width: 0.8; stroke-linecap: square"/>
    </g>
    <g id="text_11">
     <!-- 1.8 -->
     <g transform="translate(175.916377 260.084431) scale(0.1 -0.1)">
      <use xlink:href="#DejaVuSans-31"/>
      <use xlink:href="#DejaVuSans-2e" x="63.623047"/>
      <use xlink:href="#DejaVuSans-38" x="95.410156"/>
     </g>
    </g>
   </g>
   <g id="xtick_12">
    <g id="line2d_14">
     <path d="M 169.502789 231.447857 
L 168.079632 235.122669 
" style="fill: none; stroke: #000000; stroke-width: 0.8; stroke-linecap: square"/>
    </g>
    <g id="text_12">
     <!-- 2.0 -->
     <g transform="translate(156.689108 252.642551) scale(0.1 -0.1)">
      <use xlink:href="#DejaVuSans-32"/>
      <use xlink:href="#DejaVuSans-2e" x="63.623047"/>
      <use xlink:href="#DejaVuSans-30" x="95.410156"/>
     </g>
    </g>
   </g>
   <g id="xtick_13">
    <g id="line2d_15">
     <path d="M 150.145846 223.957293 
L 148.721903 227.63139 
" style="fill: none; stroke: #000000; stroke-width: 0.8; stroke-linecap: square"/>
    </g>
    <g id="text_13">
     <!-- 2.2 -->
     <g transform="translate(137.465556 245.20211) scale(0.1 -0.1)">
      <use xlink:href="#DejaVuSans-32"/>
      <use xlink:href="#DejaVuSans-2e" x="63.623047"/>
      <use xlink:href="#DejaVuSans-32" x="95.410156"/>
     </g>
    </g>
   </g>
  </g>
  <g id="axis3d_3">
   <g id="line2d_16">
    <path d="M 133.68733 218.996551 
L 123.769564 220.97533 
" style="fill: none; stroke: #000000; stroke-width: 0.8; stroke-linecap: square"/>
   </g>
   <g id="xtick_14">
    <g id="line2d_17">
     <path d="M 133.819572 217.836779 
L 132.390342 221.522207 
" style="fill: none; stroke: #000000; stroke-width: 0.8; stroke-linecap: square"/>
    </g>
    <g id="text_14">
     <!-- 0.2 -->
     <g transform="translate(107.720303 234.479828) scale(0.1 -0.1)">
      <use xlink:href="#DejaVuSans-30"/>
      <use xlink:href="#DejaVuSans-2e" x="63.623047"/>
      <use xlink:href="#DejaVuSans-32" x="95.410156"/>
     </g>
    </g>
   </g>
   <g id="xtick_15">
    <g id="line2d_18">
     <path d="M 132.373056 218.10991 
L 130.924239 221.845677 
" style="fill: none; stroke: #000000; stroke-width: 0.8; stroke-linecap: square"/>
    </g>
    <g id="text_15">
     <!-- 0.4 -->
     <g transform="translate(106.025785 234.876507) scale(0.1 -0.1)">
      <use xlink:href="#DejaVuSans-30"/>
      <use xlink:href="#DejaVuSans-2e" x="63.623047"/>
      <use xlink:href="#DejaVuSans-34" x="95.410156"/>
     </g>
    </g>
   </g>
   <g id="xtick_16">
    <g id="line2d_19">
     <path d="M 130.886489 218.390603 
L 129.417542 222.178103 
" style="fill: none; stroke: #000000; stroke-width: 0.8; stroke-linecap: square"/>
    </g>
    <g id="text_16">
     <!-- 0.6 -->
     <g transform="translate(104.284346 235.28417) scale(0.1 -0.1)">
      <use xlink:href="#DejaVuSans-30"/>
      <use xlink:href="#DejaVuSans-2e" x="63.623047"/>
      <use xlink:href="#DejaVuSans-36" x="95.410156"/>
     </g>
    </g>
   </g>
   <g id="xtick_17">
    <g id="line2d_20">
     <path d="M 129.358186 218.679177 
L 127.86854 222.519863 
" style="fill: none; stroke: #000000; stroke-width: 0.8; stroke-linecap: square"/>
    </g>
    <g id="text_17">
     <!-- 0.8 -->
     <g transform="translate(102.494009 235.703279) scale(0.1 -0.1)">
      <use xlink:href="#DejaVuSans-30"/>
      <use xlink:href="#DejaVuSans-2e" x="63.623047"/>
      <use xlink:href="#DejaVuSans-38" x="95.410156"/>
     </g>
    </g>
   </g>
   <g id="xtick_18">
    <g id="line2d_21">
     <path d="M 127.786364 218.975968 
L 126.275428 222.871355 
" style="fill: none; stroke: #000000; stroke-width: 0.8; stroke-linecap: square"/>
    </g>
    <g id="text_18">
     <!-- 1.0 -->
     <g transform="translate(100.652684 236.134325) scale(0.1 -0.1)">
      <use xlink:href="#DejaVuSans-31"/>
      <use xlink:href="#DejaVuSans-2e" x="63.623047"/>
      <use xlink:href="#DejaVuSans-30" x="95.410156"/>
     </g>
    </g>
   </g>
   <g id="xtick_19">
    <g id="line2d_22">
     <path d="M 126.169137 219.281333 
L 124.636294 223.233001 
" style="fill: none; stroke: #000000; stroke-width: 0.8; stroke-linecap: square"/>
    </g>
    <g id="text_19">
     <!-- 1.2 -->
     <g transform="translate(98.758162 236.577823) scale(0.1 -0.1)">
      <use xlink:href="#DejaVuSans-31"/>
      <use xlink:href="#DejaVuSans-2e" x="63.623047"/>
      <use xlink:href="#DejaVuSans-32" x="95.410156"/>
     </g>
    </g>
   </g>
   <g id="xtick_20">
    <g id="line2d_23">
     <path d="M 124.504508 219.595648 
L 122.949113 223.605247 
" style="fill: none; stroke: #000000; stroke-width: 0.8; stroke-linecap: square"/>
    </g>
    <g id="text_20">
     <!-- 1.4 -->
     <g transform="translate(96.808105 237.034322) scale(0.1 -0.1)">
      <use xlink:href="#DejaVuSans-31"/>
      <use xlink:href="#DejaVuSans-2e" x="63.623047"/>
      <use xlink:href="#DejaVuSans-34" x="95.410156"/>
     </g>
    </g>
   </g>
  </g>
  <g id="axes_1">
   <g id="line2d_24">
    <path d="M 216.965153 236.648481 
L 216.355873 236.405107 
L 216.736566 234.923219 
L 216.06768 232.367888 
L 214.43832 229.562555 
L 212.164677 226.625748 
L 209.087111 223.663089 
L 207.800435 219.749807 
L 206.761573 217.061519 
L 205.381372 214.336051 
L 206.30764 211.824166 
L 207.632078 210.465777 
L 207.148514 210.000164 
L 205.506042 209.255586 
L 203.628399 210.626221 
L 200.842076 211.599852 
L 198.506059 212.058992 
L 196.457168 210.785688 
L 195.594369 209.609641 
L 195.187779 207.168978 
L 194.014427 204.106674 
L 195.129786 200.589471 
L 195.635559 197.180756 
L 195.661477 191.290811 
L 196.064067 185.248588 
L 193.496247 180.854903 
L 192.185053 177.06556 
L 191.815062 172.199941 
L 191.794496 166.613285 
L 189.455548 161.450749 
L 186.717811 157.119077 
L 184.485286 152.494845 
L 179.561055 144.278156 
L 174.352651 138.94146 
L 175.642173 136.441348 
L 179.404277 134.256209 
L 185.091707 132.791387 
L 191.947929 132.035185 
L 197.515834 130.62092 
L 203.16482 129.436885 
L 207.831538 127.431724 
L 212.829815 124.525616 
L 214.311477 124.423329 
L 215.883929 121.660568 
L 217.651759 118.865535 
L 220.281726 117.177333 
L 223.231173 115.979252 
L 225.126692 115.045516 
L 226.292063 115.016509 
L 226.926926 114.384387 
L 227.179436 114.981609 
L 228.907046 115.113104 
L 230.833564 114.970175 
L 232.670112 114.08641 
L 234.522956 113.721746 
L 236.042365 113.547018 
L 238.208885 113.524295 
L 241.140679 112.729908 
L 244.149116 112.294706 
L 247.406355 112.877692 
L 250.777614 113.256351 
L 254.665402 113.517079 
L 258.912865 113.952219 
L 263.123863 113.279364 
L 267.120284 113.040462 
L 270.184977 112.709381 
L 272.84015 112.534822 
L 274.989652 112.901258 
L 276.033081 113.207207 
L 278.190697 113.707993 
L 280.210635 114.470632 
L 281.738953 115.409657 
L 283.524652 118.104778 
L 285.713651 118.123111 
L 286.941256 117.458545 
L 289.806419 117.202304 
L 294.720449 114.781596 
L 296.934289 116.2932 
L 300.087237 119.591952 
L 303.741658 122.682666 
L 305.633872 127.861195 
L 306.030837 133.459773 
L 306.024555 141.498057 
L 305.356825 143.813858 
L 304.40177 147.69178 
L 304.040265 151.754245 
L 303.422222 154.255787 
L 303.89027 155.194039 
L 303.757283 158.023277 
L 303.654508 162.592899 
L 304.447796 167.814552 
L 305.686178 174.203169 
L 305.96694 179.857002 
L 305.52088 183.256511 
L 305.472173 186.573984 
L 304.847368 190.231518 
L 303.374035 193.711594 
L 301.764989 197.047328 
L 300.727048 201.043359 
L 299.489544 204.542176 
L 297.787895 206.842526 
L 295.78906 208.928471 
L 294.335542 211.372982 
L 290.261621 216.658899 
L 288.863383 221.624552 
L 286.72768 226.736223 
L 286.196475 229.883828 
L 285.574672 232.472595 
L 283.299577 234.566007 
L 280.980509 236.428688 
L 277.614564 239.48754 
L 274.910536 240.076495 
L 272.423254 239.702142 
L 270.597718 237.168391 
L 268.107728 235.128605 
L 264.46383 234.895631 
L 262.217443 236.310103 
L 259.160322 237.612876 
L 256.845876 238.460143 
L 253.31447 239.168717 
L 250.401034 241.325873 
L 246.884602 242.397303 
L 246.997757 245.292266 
L 244.837113 246.026188 
L 242.647685 245.461299 
L 242.763202 244.05841 
L 242.609934 243.525959 
L 238.366432 243.114569 
L 235.276093 242.125589 
L 233.046538 242.122281 
L 229.36088 242.610256 
L 225.571177 243.266516 
L 220.611651 242.867573 
L 216.557146 241.029511 
L 212.815017 237.666847 
L 209.612649 235.431445 
L 206.529979 232.704499 
L 204.813483 228.777231 
L 202.040122 226.766407 
L 200.882654 225.225997 
L 198.246785 223.839076 
L 196.986712 221.071193 
L 195.771022 217.627201 
L 194.790793 216.670068 
L 194.615526 213.237177 
L 193.109155 210.997728 
L 191.775154 209.250286 
L 190.764591 208.343256 
L 187.445377 206.952266 
L 185.867123 205.471355 
L 183.686298 201.513569 
L 182.683332 197.498961 
L 181.184804 194.524592 
L 180.066445 190.250679 
L 178.771194 186.229323 
L 178.628374 181.922702 
L 178.680903 173.854485 
L 179.579137 164.455708 
L 178.610476 157.131529 
L 181.438371 152.982065 
L 183.51986 149.713132 
L 186.043471 146.757547 
L 191.456791 142.777346 
L 193.452448 140.895585 
L 195.080658 140.20987 
L 197.30682 138.699177 
L 198.692281 136.340267 
L 200.9136 136.071423 
L 203.635816 134.2831 
L 205.509168 132.156308 
L 206.888471 130.83082 
L 208.927708 127.924939 
L 212.025377 126.657036 
L 212.83795 124.071136 
L 216.777231 120.105898 
L 219.917386 117.968116 
L 220.95609 116.584079 
L 223.671796 114.951315 
L 226.185538 114.509746 
L 228.941484 114.291126 
L 231.377491 112.637547 
L 232.877169 112.354558 
L 235.659403 110.8731 
L 239.750869 110.531517 
L 243.192279 110.031195 
L 247.157038 109.334109 
L 250.393529 106.805458 
L 254.50662 102.619197 
L 255.971414 101.654507 
L 259.02968 102.259139 
L 262.589944 103.85897 
L 265.642385 105.925756 
L 269.505324 107.691949 
L 272.850377 110.086208 
L 276.614369 111.071423 
L 278.011982 113.540977 
L 279.527173 114.846482 
L 280.926703 117.64756 
L 283.101032 118.820929 
L 284.050862 120.616844 
L 286.46702 122.170139 
L 289.241026 119.268617 
L 291.614198 116.457259 
L 294.099915 113.718348 
L 296.269041 116.001287 
L 297.640369 121.191664 
L 299.537894 125.917371 
L 302.633926 129.278033 
L 305.948241 132.002899 
L 308.627088 133.20637 
L 309.785389 134.502537 
L 310.051954 137.465888 
L 310.10175 139.518304 
L 311.246352 141.791637 
L 311.966796 145.543893 
L 312.338688 149.18425 
L 312.533666 153.473749 
L 313.655504 157.708988 
L 313.455556 163.151771 
L 312.787047 168.278406 
L 310.753377 170.959975 
L 305.807272 185.591698 
L 305.207361 189.430214 
L 304.840231 193.869007 
L 303.927183 197.842797 
L 303.879212 200.487157 
L 302.219886 202.978987 
L 298.849292 206.503074 
L 295.790436 209.966631 
L 292.247415 212.923144 
L 291.275863 216.149102 
L 290.355587 220.213277 
L 290.358088 224.694797 
L 288.278487 228.735726 
L 286.526852 229.850036 
L 283.453269 232.265751 
L 281.411135 232.801125 
L 279.391162 232.460906 
L 278.401419 234.002846 
L 277.503319 234.145779 
L 275.567508 236.378174 
L 272.150273 237.282453 
L 268.256396 238.975251 
L 265.335343 242.085167 
L 263.224596 241.674859 
L 261.405927 241.896236 
L 260.398642 239.552676 
L 257.534886 238.287651 
L 255.372468 238.042319 
L 252.224778 239.222904 
L 249.8268 242.424122 
L 248.065323 245.236635 
L 244.279351 246.413905 
L 242.220048 246.6049 
L 238.922384 247.126333 
L 234.527986 245.423118 
L 230.083186 243.890294 
L 226.290463 241.626146 
L 223.86148 239.717804 
L 219.776965 237.878526 
L 215.701881 237.203781 
L 213.03771 234.955933 
L 210.0157 232.701069 
L 208.817603 231.112882 
L 206.296771 228.876433 
L 205.541412 229.589265 
L 204.48919 229.604756 
L 202.88639 229.331957 
L 201.766472 225.667542 
L 198.962161 225.48489 
L 195.401941 225.556069 
L 192.519643 226.188982 
L 189.614487 228.614291 
L 184.848365 229.4229 
L 181.981958 226.561249 
L 179.963704 222.091063 
L 178.21669 215.805335 
L 178.284239 209.177777 
L 177.216239 204.66569 
L 177.898402 201.391021 
L 178.881131 198.955151 
L 180.037098 198.05912 
L 180.660563 192.585937 
L 179.37067 187.531705 
L 183.429629 170.372889 
L 185.089984 164.452605 
L 188.044772 157.971165 
L 189.606619 152.676567 
L 191.554182 149.153918 
L 192.605466 146.960017 
L 193.902459 144.896325 
L 194.837406 142.765825 
L 195.474544 140.864768 
L 196.405897 139.292027 
L 198.633881 136.27223 
L 201.950542 132.837528 
L 205.230401 130.608693 
L 206.838273 128.328765 
L 208.144079 126.07552 
L 209.275349 125.266549 
L 209.803977 122.635942 
L 211.060613 120.405996 
L 212.566191 118.972397 
L 213.361492 117.830666 
L 215.162751 117.140081 
L 218.127228 114.507865 
L 220.442107 111.527984 
L 224.410367 109.191073 
L 226.753439 106.215544 
L 230.169733 104.362032 
L 232.575691 102.152786 
L 235.112399 102.623888 
L 238.225835 101.274633 
L 243.182183 101.18537 
L 248.597712 101.864827 
L 252.118688 102.137151 
L 254.310722 102.152785 
L 259.927928 102.566316 
L 262.041109 103.979774 
L 264.188675 102.649664 
L 267.597461 102.385944 
L 270.154346 103.420697 
L 272.77065 105.086794 
L 275.812694 106.506528 
L 277.775161 108.68116 
L 280.105536 111.583938 
L 282.334872 113.812595 
L 283.953651 117.773806 
L 288.217373 120.303163 
L 289.158612 120.252905 
L 291.158733 121.598774 
L 291.996124 122.648406 
L 293.374591 123.159123 
L 296.069348 121.632717 
L 296.4221 119.675595 
L 298.70327 117.24186 
L 300.019448 117.957075 
L 301.804195 120.448714 
L 303.980396 125.403295 
L 307.970636 128.487397 
L 310.342509 132.186925 
L 314.396329 140.360112 
L 313.602327 145.686168 
L 314.124389 149.208053 
L 313.468649 152.47441 
L 313.54623 155.62913 
L 314.324835 157.238229 
L 314.017417 162.904346 
L 312.582204 167.144519 
L 310.616269 171.978979 
L 311.212354 176.586562 
L 314.032497 177.4091 
L 316.828391 176.659231 
L 319.494336 177.871756 
L 318.127962 181.915051 
L 313.355451 188.817485 
L 308.599711 195.416551 
L 304.759696 200.938623 
L 301.437239 206.709754 
L 298.679907 209.726084 
L 296.455651 211.845111 
L 295.462174 213.259004 
L 294.253747 215.686678 
L 289.66419 218.770242 
L 286.830118 223.197226 
L 284.983452 226.341959 
L 282.261571 229.171988 
L 279.374298 230.858602 
L 277.340424 233.650007 
L 275.16217 235.331325 
L 275.015075 234.677502 
L 272.354114 235.394337 
L 269.922812 234.648718 
L 267.176142 236.686422 
L 263.321462 237.44297 
L 261.352869 239.238219 
L 257.813975 238.981983 
L 255.923836 243.754689 
L 252.875641 244.977231 
L 253.615877 248.545996 
L 251.303011 249.589151 
L 247.200571 248.041475 
L 245.068961 246.125338 
L 240.251187 246.852963 
L 240.251187 246.852963 
" clip-path="url(#p35d0ac4834)" style="fill: none; stroke: #1f77b4; stroke-width: 1.5; stroke-linecap: square"/>
   </g>
   <g id="line2d_25">
    <path d="M 224.795318 232.359157 
L 222.528572 231.417266 
L 220.315177 230.349904 
L 218.160082 229.159393 
L 216.068107 227.848327 
L 214.043932 226.41957 
L 212.092088 224.876251 
L 210.216946 223.221752 
L 208.422706 221.459708 
L 206.713392 219.593992 
L 205.092836 217.62871 
L 203.564676 215.568189 
L 202.132343 213.416972 
L 200.799058 211.179803 
L 199.56782 208.86162 
L 198.441401 206.467541 
L 197.422343 204.002856 
L 196.512947 201.473012 
L 195.715271 198.883602 
L 195.031127 196.240353 
L 194.462071 193.549113 
L 194.009407 190.815839 
L 193.674178 188.04658 
L 193.457167 185.247468 
L 193.358895 182.424702 
L 193.379619 179.584536 
L 193.51933 176.733261 
L 193.777757 173.877197 
L 194.154365 171.022673 
L 194.648355 168.176018 
L 195.258668 165.343543 
L 195.983988 162.53153 
L 196.822742 159.746216 
L 197.773105 156.99378 
L 198.833006 154.28033 
L 200.000129 151.611887 
L 201.27192 148.994375 
L 202.645592 146.433607 
L 204.118135 143.935268 
L 205.686314 141.504911 
L 207.346687 139.147934 
L 209.095603 136.869579 
L 210.929215 134.674911 
L 212.84349 132.568812 
L 214.834211 130.555972 
L 216.896996 128.640871 
L 219.027299 126.827777 
L 221.220423 125.120733 
L 223.471534 123.523548 
L 225.775665 122.03979 
L 228.127733 120.672775 
L 230.522545 119.425564 
L 232.954815 118.300954 
L 235.419168 117.301469 
L 237.910161 116.429362 
L 240.422288 115.686601 
L 242.949994 115.074871 
L 245.487689 114.595566 
L 248.029758 114.24979 
L 250.570574 114.038352 
L 253.104511 113.961763 
L 255.625956 114.020237 
L 258.129322 114.21369 
L 260.609058 114.541739 
L 263.059664 115.003703 
L 265.475702 115.598607 
L 267.851807 116.325178 
L 270.182701 117.181855 
L 272.463202 118.166787 
L 274.688239 119.277838 
L 276.852859 120.512594 
L 278.952241 121.868363 
L 280.981706 123.342188 
L 282.936727 124.930846 
L 284.81294 126.630862 
L 286.606151 128.438508 
L 288.312349 130.34982 
L 289.927713 132.360601 
L 291.448621 134.46643 
L 292.871657 136.662676 
L 294.193621 138.944503 
L 295.411535 141.306882 
L 296.522647 143.744606 
L 297.524444 146.252295 
L 298.41465 148.824412 
L 299.191238 151.455272 
L 299.852428 154.13906 
L 300.396699 156.869837 
L 300.822784 159.641556 
L 301.12968 162.448078 
L 301.316648 165.283181 
L 301.383213 168.140575 
L 301.329167 171.013919 
L 301.154571 173.89683 
L 300.859752 176.782901 
L 300.445306 179.665715 
L 299.912093 182.538855 
L 299.26124 185.395924 
L 298.494133 188.230556 
L 297.61242 191.036432 
L 296.618003 193.807289 
L 295.513038 196.536943 
L 294.299925 199.219294 
L 292.981308 201.848345 
L 291.560069 204.418213 
L 290.039317 206.923146 
L 288.422385 209.357528 
L 286.712825 211.715901 
L 284.914394 213.992971 
L 283.031051 216.183622 
L 281.066945 218.282929 
L 279.02641 220.286165 
L 276.913949 222.188816 
L 274.734232 223.98659 
L 272.492079 225.675425 
L 270.192451 227.251501 
L 267.840443 228.711247 
L 265.441266 230.051348 
L 263.000241 231.268756 
L 260.522786 232.360695 
L 258.014399 233.324665 
L 255.480655 234.158454 
L 252.927184 234.860136 
L 250.359665 235.42808 
L 247.78381 235.860954 
L 245.205352 236.157724 
L 242.630033 236.317662 
L 240.063591 236.340342 
L 237.511746 236.225647 
L 234.980187 235.973766 
L 232.47456 235.585191 
L 230.000457 235.060723 
L 227.563402 234.401465 
L 225.168835 233.608821 
L 222.822107 232.684493 
L 220.528461 231.630477 
L 218.293027 230.449061 
L 216.120804 229.142815 
L 214.016652 227.71459 
L 211.985281 226.16751 
L 210.031241 224.504963 
L 208.15891 222.730598 
L 206.372485 220.848313 
L 204.675973 218.862247 
L 203.073183 216.776772 
L 201.567713 214.596484 
L 200.162948 212.326188 
L 198.862049 209.970894 
L 197.667945 207.5358 
L 196.583329 205.026285 
L 195.610651 202.447894 
L 194.752113 199.806325 
L 194.009661 197.10742 
L 193.384985 194.357148 
L 192.879515 191.561596 
L 192.494412 188.72695 
L 192.230573 185.859486 
L 192.088626 182.965553 
L 192.068924 180.051561 
L 192.171554 177.123965 
L 192.396327 174.189253 
L 192.742785 171.253927 
L 193.210199 168.324495 
L 193.797571 165.407451 
L 194.503637 162.509264 
L 195.326871 159.636361 
L 196.265483 156.795115 
L 197.317431 153.99183 
L 198.480417 151.232726 
L 199.751901 148.523929 
L 201.129098 145.871453 
L 202.608992 143.281187 
L 204.188334 140.758885 
L 205.863658 138.310153 
L 207.631284 135.940434 
L 209.487326 133.654996 
L 211.427701 131.458923 
L 213.448138 129.357104 
L 215.544191 127.354217 
L 217.711241 125.454726 
L 219.944514 123.662865 
L 222.239087 121.982632 
L 224.5899 120.417779 
L 226.991767 118.971804 
L 229.439388 117.647944 
L 231.92736 116.449165 
L 234.45019 115.37816 
L 237.002303 114.437339 
L 239.578062 113.628824 
L 242.171772 112.954448 
L 244.777698 112.415747 
L 247.390076 112.013956 
L 250.003123 111.750011 
L 252.611057 111.624541 
L 255.2081 111.637871 
L 257.7885 111.790019 
L 260.346535 112.080696 
L 262.876533 112.509307 
L 265.372882 113.074952 
L 267.830038 113.776428 
L 270.242544 114.612229 
L 272.605039 115.580555 
L 274.91227 116.67931 
L 277.159101 117.906108 
L 279.340529 119.258281 
L 281.451694 120.732881 
L 283.487887 122.326688 
L 285.444562 124.036215 
L 287.317348 125.85772 
L 289.102055 127.78721 
L 290.794689 129.82045 
L 292.391452 131.952974 
L 293.888762 134.180094 
L 295.283251 136.496907 
L 296.571777 138.898313 
L 297.751432 141.379018 
L 298.819547 143.933551 
L 299.773697 146.556273 
L 300.611711 149.241391 
L 301.331671 151.98297 
L 301.931921 154.774945 
L 302.411069 157.611139 
L 302.76799 160.485268 
L 303.001831 163.390963 
L 303.112009 166.321779 
L 303.098217 169.271214 
L 302.960423 172.232718 
L 302.698869 175.199709 
L 302.314073 178.165591 
L 301.806827 181.123766 
L 301.178194 184.067646 
L 300.42951 186.990673 
L 299.562377 189.886331 
L 298.578661 192.74816 
L 297.480489 195.569769 
L 296.270246 198.344857 
L 294.950564 201.067218 
L 293.524323 203.730762 
L 291.994641 206.329525 
L 290.364867 208.857683 
L 288.638578 211.309567 
L 286.819566 213.679672 
L 284.911831 215.962675 
L 282.919576 218.153441 
L 280.847191 220.247038 
L 278.699251 222.238749 
L 276.4805 224.12408 
L 274.195842 225.898771 
L 271.850332 227.558809 
L 269.449163 229.10043 
L 266.997656 230.520137 
L 264.501246 231.814699 
L 261.96547 232.981163 
L 259.395959 234.016864 
L 256.798418 234.919422 
L 254.178621 235.686755 
L 251.542393 236.317084 
L 248.895597 236.808932 
L 246.244126 237.16113 
L 243.593883 237.372822 
L 240.950771 237.443464 
L 238.320682 237.372828 
L 235.709479 237.160998 
L 233.122987 236.808377 
L 230.566977 236.31568 
L 228.047156 235.683934 
L 225.569149 234.914479 
L 223.138494 234.008962 
L 220.760623 232.969334 
L 218.440852 231.797844 
L 216.18437 230.497039 
L 213.996227 229.069754 
L 211.881321 227.519106 
L 209.844388 225.848489 
L 207.889994 224.061567 
L 206.02252 222.162261 
L 204.246154 220.154746 
L 202.564885 218.043439 
L 200.982489 215.83299 
L 199.502522 213.528268 
L 198.128315 211.134358 
L 196.862963 208.656541 
L 195.70932 206.100288 
L 194.66999 203.471245 
L 193.747325 200.775223 
L 192.943418 198.018181 
L 192.260098 195.206216 
L 191.698924 192.345549 
L 191.261188 189.442511 
L 190.947903 186.503526 
L 190.759809 183.535103 
L 190.697366 180.543813 
L 190.760757 177.536284 
L 190.949883 174.519178 
L 191.264367 171.499182 
L 191.703553 168.482987 
L 192.26651 165.477281 
L 192.952029 162.488728 
L 193.758631 159.523956 
L 194.684567 156.58954 
L 195.727825 153.69199 
L 196.886129 150.837736 
L 198.156951 148.033113 
L 199.537511 145.284347 
L 201.024785 142.597543 
L 202.615514 139.978667 
L 204.306207 137.433539 
L 206.093151 134.967815 
L 207.972421 132.586978 
L 209.939885 130.296323 
L 211.991215 128.100948 
L 214.121896 126.00574 
L 216.327237 124.015368 
L 218.602381 122.134267 
L 220.942313 120.366634 
L 223.341876 118.716417 
L 225.795777 117.187303 
L 228.298604 115.782713 
L 230.844834 114.505796 
L 233.428844 113.359417 
L 236.044929 112.346155 
L 238.68731 111.468296 
L 241.350147 110.727826 
L 244.027553 110.126429 
L 246.713608 109.665484 
L 249.402367 109.346056 
L 252.087881 109.168902 
L 254.764203 109.134464 
L 257.425405 109.242866 
L 260.065589 109.493921 
L 262.678901 109.887122 
L 265.259543 110.421653 
L 267.801789 111.096379 
L 270.299992 111.909861 
L 272.748601 112.860348 
L 275.142173 113.945787 
L 277.475381 115.163827 
L 279.743032 116.51182 
L 281.940072 117.986832 
L 284.061602 119.585645 
L 286.102887 121.304765 
L 288.059367 123.140431 
L 289.926667 125.088623 
L 291.700605 127.145067 
L 293.377207 129.30525 
L 294.952707 131.564424 
L 296.423565 133.917621 
L 297.786467 136.359662 
L 299.038338 138.885166 
L 300.176346 141.488565 
L 301.197911 144.164116 
L 302.100706 146.905912 
L 302.882669 149.707893 
L 303.542003 152.563865 
L 304.077181 155.467508 
L 304.486952 158.412394 
L 304.770341 161.391997 
L 304.926652 164.399712 
L 304.955473 167.428865 
L 304.856673 170.472731 
L 304.630403 173.524549 
L 304.277099 176.577533 
L 303.79748 179.624893 
L 303.192544 182.659844 
L 302.463569 185.675626 
L 301.61211 188.665517 
L 300.639995 191.622846 
L 299.549321 194.541012 
L 298.342451 197.413497 
L 297.022007 200.233878 
L 295.590866 202.995845 
L 294.052154 205.693215 
L 292.409236 208.319943 
L 290.665715 210.870138 
L 288.825417 213.338076 
L 286.892387 215.718212 
L 284.870879 218.005194 
L 282.765348 220.193872 
L 280.580437 222.279316 
L 278.320971 224.256819 
L 275.991942 226.121913 
L 273.5985 227.87038 
L 271.145944 229.498258 
L 268.639706 231.00185 
L 266.08534 232.377737 
L 263.488513 233.622782 
L 260.854987 234.734138 
L 258.190611 235.709255 
L 255.501305 236.545884 
L 252.793047 237.242087 
L 250.071862 237.796236 
L 247.343806 238.20702 
L 244.614952 238.473448 
L 241.891379 238.594848 
L 239.179157 238.570876 
L 236.484333 238.401507 
L 233.812917 238.087046 
L 231.170871 237.628116 
L 228.564093 237.025668 
L 225.998404 236.280971 
L 223.479536 235.395611 
L 223.479536 235.395611 
" clip-path="url(#p35d0ac4834)" style="fill: none; stroke: #ff7f0e; stroke-width: 1.5; stroke-linecap: square"/>
   </g>
   <g id="text_21">
    <!-- Trajectory with: 40seconds, 30pieces, Mellinger -->
    <g transform="translate(93.628125 35.472) scale(0.12 -0.12)">
     <defs>
      <path id="DejaVuSans-54" d="M -19 4666 
L 3928 4666 
L 3928 4134 
L 2272 4134 
L 2272 0 
L 1638 0 
L 1638 4134 
L -19 4134 
L -19 4666 
z
" transform="scale(0.015625)"/>
      <path id="DejaVuSans-72" d="M 2631 2963 
Q 2534 3019 2420 3045 
Q 2306 3072 2169 3072 
Q 1681 3072 1420 2755 
Q 1159 2438 1159 1844 
L 1159 0 
L 581 0 
L 581 3500 
L 1159 3500 
L 1159 2956 
Q 1341 3275 1631 3429 
Q 1922 3584 2338 3584 
Q 2397 3584 2469 3576 
Q 2541 3569 2628 3553 
L 2631 2963 
z
" transform="scale(0.015625)"/>
      <path id="DejaVuSans-61" d="M 2194 1759 
Q 1497 1759 1228 1600 
Q 959 1441 959 1056 
Q 959 750 1161 570 
Q 1363 391 1709 391 
Q 2188 391 2477 730 
Q 2766 1069 2766 1631 
L 2766 1759 
L 2194 1759 
z
M 3341 1997 
L 3341 0 
L 2766 0 
L 2766 531 
Q 2569 213 2275 61 
Q 1981 -91 1556 -91 
Q 1019 -91 701 211 
Q 384 513 384 1019 
Q 384 1609 779 1909 
Q 1175 2209 1959 2209 
L 2766 2209 
L 2766 2266 
Q 2766 2663 2505 2880 
Q 2244 3097 1772 3097 
Q 1472 3097 1187 3025 
Q 903 2953 641 2809 
L 641 3341 
Q 956 3463 1253 3523 
Q 1550 3584 1831 3584 
Q 2591 3584 2966 3190 
Q 3341 2797 3341 1997 
z
" transform="scale(0.015625)"/>
      <path id="DejaVuSans-6a" d="M 603 3500 
L 1178 3500 
L 1178 -63 
Q 1178 -731 923 -1031 
Q 669 -1331 103 -1331 
L -116 -1331 
L -116 -844 
L 38 -844 
Q 366 -844 484 -692 
Q 603 -541 603 -63 
L 603 3500 
z
M 603 4863 
L 1178 4863 
L 1178 4134 
L 603 4134 
L 603 4863 
z
" transform="scale(0.015625)"/>
      <path id="DejaVuSans-65" d="M 3597 1894 
L 3597 1613 
L 953 1613 
Q 991 1019 1311 708 
Q 1631 397 2203 397 
Q 2534 397 2845 478 
Q 3156 559 3463 722 
L 3463 178 
Q 3153 47 2828 -22 
Q 2503 -91 2169 -91 
Q 1331 -91 842 396 
Q 353 884 353 1716 
Q 353 2575 817 3079 
Q 1281 3584 2069 3584 
Q 2775 3584 3186 3129 
Q 3597 2675 3597 1894 
z
M 3022 2063 
Q 3016 2534 2758 2815 
Q 2500 3097 2075 3097 
Q 1594 3097 1305 2825 
Q 1016 2553 972 2059 
L 3022 2063 
z
" transform="scale(0.015625)"/>
      <path id="DejaVuSans-63" d="M 3122 3366 
L 3122 2828 
Q 2878 2963 2633 3030 
Q 2388 3097 2138 3097 
Q 1578 3097 1268 2742 
Q 959 2388 959 1747 
Q 959 1106 1268 751 
Q 1578 397 2138 397 
Q 2388 397 2633 464 
Q 2878 531 3122 666 
L 3122 134 
Q 2881 22 2623 -34 
Q 2366 -91 2075 -91 
Q 1284 -91 818 406 
Q 353 903 353 1747 
Q 353 2603 823 3093 
Q 1294 3584 2113 3584 
Q 2378 3584 2631 3529 
Q 2884 3475 3122 3366 
z
" transform="scale(0.015625)"/>
      <path id="DejaVuSans-74" d="M 1172 4494 
L 1172 3500 
L 2356 3500 
L 2356 3053 
L 1172 3053 
L 1172 1153 
Q 1172 725 1289 603 
Q 1406 481 1766 481 
L 2356 481 
L 2356 0 
L 1766 0 
Q 1100 0 847 248 
Q 594 497 594 1153 
L 594 3053 
L 172 3053 
L 172 3500 
L 594 3500 
L 594 4494 
L 1172 4494 
z
" transform="scale(0.015625)"/>
      <path id="DejaVuSans-6f" d="M 1959 3097 
Q 1497 3097 1228 2736 
Q 959 2375 959 1747 
Q 959 1119 1226 758 
Q 1494 397 1959 397 
Q 2419 397 2687 759 
Q 2956 1122 2956 1747 
Q 2956 2369 2687 2733 
Q 2419 3097 1959 3097 
z
M 1959 3584 
Q 2709 3584 3137 3096 
Q 3566 2609 3566 1747 
Q 3566 888 3137 398 
Q 2709 -91 1959 -91 
Q 1206 -91 779 398 
Q 353 888 353 1747 
Q 353 2609 779 3096 
Q 1206 3584 1959 3584 
z
" transform="scale(0.015625)"/>
      <path id="DejaVuSans-79" d="M 2059 -325 
Q 1816 -950 1584 -1140 
Q 1353 -1331 966 -1331 
L 506 -1331 
L 506 -850 
L 844 -850 
Q 1081 -850 1212 -737 
Q 1344 -625 1503 -206 
L 1606 56 
L 191 3500 
L 800 3500 
L 1894 763 
L 2988 3500 
L 3597 3500 
L 2059 -325 
z
" transform="scale(0.015625)"/>
      <path id="DejaVuSans-20" transform="scale(0.015625)"/>
      <path id="DejaVuSans-77" d="M 269 3500 
L 844 3500 
L 1563 769 
L 2278 3500 
L 2956 3500 
L 3675 769 
L 4391 3500 
L 4966 3500 
L 4050 0 
L 3372 0 
L 2619 2869 
L 1863 0 
L 1184 0 
L 269 3500 
z
" transform="scale(0.015625)"/>
      <path id="DejaVuSans-69" d="M 603 3500 
L 1178 3500 
L 1178 0 
L 603 0 
L 603 3500 
z
M 603 4863 
L 1178 4863 
L 1178 4134 
L 603 4134 
L 603 4863 
z
" transform="scale(0.015625)"/>
      <path id="DejaVuSans-68" d="M 3513 2113 
L 3513 0 
L 2938 0 
L 2938 2094 
Q 2938 2591 2744 2837 
Q 2550 3084 2163 3084 
Q 1697 3084 1428 2787 
Q 1159 2491 1159 1978 
L 1159 0 
L 581 0 
L 581 4863 
L 1159 4863 
L 1159 2956 
Q 1366 3272 1645 3428 
Q 1925 3584 2291 3584 
Q 2894 3584 3203 3211 
Q 3513 2838 3513 2113 
z
" transform="scale(0.015625)"/>
      <path id="DejaVuSans-3a" d="M 750 794 
L 1409 794 
L 1409 0 
L 750 0 
L 750 794 
z
M 750 3309 
L 1409 3309 
L 1409 2516 
L 750 2516 
L 750 3309 
z
" transform="scale(0.015625)"/>
      <path id="DejaVuSans-73" d="M 2834 3397 
L 2834 2853 
Q 2591 2978 2328 3040 
Q 2066 3103 1784 3103 
Q 1356 3103 1142 2972 
Q 928 2841 928 2578 
Q 928 2378 1081 2264 
Q 1234 2150 1697 2047 
L 1894 2003 
Q 2506 1872 2764 1633 
Q 3022 1394 3022 966 
Q 3022 478 2636 193 
Q 2250 -91 1575 -91 
Q 1294 -91 989 -36 
Q 684 19 347 128 
L 347 722 
Q 666 556 975 473 
Q 1284 391 1588 391 
Q 1994 391 2212 530 
Q 2431 669 2431 922 
Q 2431 1156 2273 1281 
Q 2116 1406 1581 1522 
L 1381 1569 
Q 847 1681 609 1914 
Q 372 2147 372 2553 
Q 372 3047 722 3315 
Q 1072 3584 1716 3584 
Q 2034 3584 2315 3537 
Q 2597 3491 2834 3397 
z
" transform="scale(0.015625)"/>
      <path id="DejaVuSans-6e" d="M 3513 2113 
L 3513 0 
L 2938 0 
L 2938 2094 
Q 2938 2591 2744 2837 
Q 2550 3084 2163 3084 
Q 1697 3084 1428 2787 
Q 1159 2491 1159 1978 
L 1159 0 
L 581 0 
L 581 3500 
L 1159 3500 
L 1159 2956 
Q 1366 3272 1645 3428 
Q 1925 3584 2291 3584 
Q 2894 3584 3203 3211 
Q 3513 2838 3513 2113 
z
" transform="scale(0.015625)"/>
      <path id="DejaVuSans-64" d="M 2906 2969 
L 2906 4863 
L 3481 4863 
L 3481 0 
L 2906 0 
L 2906 525 
Q 2725 213 2448 61 
Q 2172 -91 1784 -91 
Q 1150 -91 751 415 
Q 353 922 353 1747 
Q 353 2572 751 3078 
Q 1150 3584 1784 3584 
Q 2172 3584 2448 3432 
Q 2725 3281 2906 2969 
z
M 947 1747 
Q 947 1113 1208 752 
Q 1469 391 1925 391 
Q 2381 391 2643 752 
Q 2906 1113 2906 1747 
Q 2906 2381 2643 2742 
Q 2381 3103 1925 3103 
Q 1469 3103 1208 2742 
Q 947 2381 947 1747 
z
" transform="scale(0.015625)"/>
      <path id="DejaVuSans-2c" d="M 750 794 
L 1409 794 
L 1409 256 
L 897 -744 
L 494 -744 
L 750 256 
L 750 794 
z
" transform="scale(0.015625)"/>
      <path id="DejaVuSans-33" d="M 2597 2516 
Q 3050 2419 3304 2112 
Q 3559 1806 3559 1356 
Q 3559 666 3084 287 
Q 2609 -91 1734 -91 
Q 1441 -91 1130 -33 
Q 819 25 488 141 
L 488 750 
Q 750 597 1062 519 
Q 1375 441 1716 441 
Q 2309 441 2620 675 
Q 2931 909 2931 1356 
Q 2931 1769 2642 2001 
Q 2353 2234 1838 2234 
L 1294 2234 
L 1294 2753 
L 1863 2753 
Q 2328 2753 2575 2939 
Q 2822 3125 2822 3475 
Q 2822 3834 2567 4026 
Q 2313 4219 1838 4219 
Q 1578 4219 1281 4162 
Q 984 4106 628 3988 
L 628 4550 
Q 988 4650 1302 4700 
Q 1616 4750 1894 4750 
Q 2613 4750 3031 4423 
Q 3450 4097 3450 3541 
Q 3450 3153 3228 2886 
Q 3006 2619 2597 2516 
z
" transform="scale(0.015625)"/>
      <path id="DejaVuSans-70" d="M 1159 525 
L 1159 -1331 
L 581 -1331 
L 581 3500 
L 1159 3500 
L 1159 2969 
Q 1341 3281 1617 3432 
Q 1894 3584 2278 3584 
Q 2916 3584 3314 3078 
Q 3713 2572 3713 1747 
Q 3713 922 3314 415 
Q 2916 -91 2278 -91 
Q 1894 -91 1617 61 
Q 1341 213 1159 525 
z
M 3116 1747 
Q 3116 2381 2855 2742 
Q 2594 3103 2138 3103 
Q 1681 3103 1420 2742 
Q 1159 2381 1159 1747 
Q 1159 1113 1420 752 
Q 1681 391 2138 391 
Q 2594 391 2855 752 
Q 3116 1113 3116 1747 
z
" transform="scale(0.015625)"/>
      <path id="DejaVuSans-4d" d="M 628 4666 
L 1569 4666 
L 2759 1491 
L 3956 4666 
L 4897 4666 
L 4897 0 
L 4281 0 
L 4281 4097 
L 3078 897 
L 2444 897 
L 1241 4097 
L 1241 0 
L 628 0 
L 628 4666 
z
" transform="scale(0.015625)"/>
      <path id="DejaVuSans-6c" d="M 603 4863 
L 1178 4863 
L 1178 0 
L 603 0 
L 603 4863 
z
" transform="scale(0.015625)"/>
      <path id="DejaVuSans-67" d="M 2906 1791 
Q 2906 2416 2648 2759 
Q 2391 3103 1925 3103 
Q 1463 3103 1205 2759 
Q 947 2416 947 1791 
Q 947 1169 1205 825 
Q 1463 481 1925 481 
Q 2391 481 2648 825 
Q 2906 1169 2906 1791 
z
M 3481 434 
Q 3481 -459 3084 -895 
Q 2688 -1331 1869 -1331 
Q 1566 -1331 1297 -1286 
Q 1028 -1241 775 -1147 
L 775 -588 
Q 1028 -725 1275 -790 
Q 1522 -856 1778 -856 
Q 2344 -856 2625 -561 
Q 2906 -266 2906 331 
L 2906 616 
Q 2728 306 2450 153 
Q 2172 0 1784 0 
Q 1141 0 747 490 
Q 353 981 353 1791 
Q 353 2603 747 3093 
Q 1141 3584 1784 3584 
Q 2172 3584 2450 3431 
Q 2728 3278 2906 2969 
L 2906 3500 
L 3481 3500 
L 3481 434 
z
" transform="scale(0.015625)"/>
     </defs>
     <use xlink:href="#DejaVuSans-54"/>
     <use xlink:href="#DejaVuSans-72" x="46.333984"/>
     <use xlink:href="#DejaVuSans-61" x="87.447266"/>
     <use xlink:href="#DejaVuSans-6a" x="148.726562"/>
     <use xlink:href="#DejaVuSans-65" x="176.509766"/>
     <use xlink:href="#DejaVuSans-63" x="238.033203"/>
     <use xlink:href="#DejaVuSans-74" x="293.013672"/>
     <use xlink:href="#DejaVuSans-6f" x="332.222656"/>
     <use xlink:href="#DejaVuSans-72" x="393.404297"/>
     <use xlink:href="#DejaVuSans-79" x="434.517578"/>
     <use xlink:href="#DejaVuSans-20" x="493.697266"/>
     <use xlink:href="#DejaVuSans-77" x="525.484375"/>
     <use xlink:href="#DejaVuSans-69" x="607.271484"/>
     <use xlink:href="#DejaVuSans-74" x="635.054688"/>
     <use xlink:href="#DejaVuSans-68" x="674.263672"/>
     <use xlink:href="#DejaVuSans-3a" x="737.642578"/>
     <use xlink:href="#DejaVuSans-20" x="771.333984"/>
     <use xlink:href="#DejaVuSans-34" x="803.121094"/>
     <use xlink:href="#DejaVuSans-30" x="866.744141"/>
     <use xlink:href="#DejaVuSans-73" x="930.367188"/>
     <use xlink:href="#DejaVuSans-65" x="982.466797"/>
     <use xlink:href="#DejaVuSans-63" x="1043.990234"/>
     <use xlink:href="#DejaVuSans-6f" x="1098.970703"/>
     <use xlink:href="#DejaVuSans-6e" x="1160.152344"/>
     <use xlink:href="#DejaVuSans-64" x="1223.53125"/>
     <use xlink:href="#DejaVuSans-73" x="1287.007812"/>
     <use xlink:href="#DejaVuSans-2c" x="1339.107422"/>
     <use xlink:href="#DejaVuSans-20" x="1370.894531"/>
     <use xlink:href="#DejaVuSans-33" x="1402.681641"/>
     <use xlink:href="#DejaVuSans-30" x="1466.304688"/>
     <use xlink:href="#DejaVuSans-70" x="1529.927734"/>
     <use xlink:href="#DejaVuSans-69" x="1593.404297"/>
     <use xlink:href="#DejaVuSans-65" x="1621.1875"/>
     <use xlink:href="#DejaVuSans-63" x="1682.710938"/>
     <use xlink:href="#DejaVuSans-65" x="1737.691406"/>
     <use xlink:href="#DejaVuSans-73" x="1799.214844"/>
     <use xlink:href="#DejaVuSans-2c" x="1851.314453"/>
     <use xlink:href="#DejaVuSans-20" x="1883.101562"/>
     <use xlink:href="#DejaVuSans-4d" x="1914.888672"/>
     <use xlink:href="#DejaVuSans-65" x="2001.167969"/>
     <use xlink:href="#DejaVuSans-6c" x="2062.691406"/>
     <use xlink:href="#DejaVuSans-6c" x="2090.474609"/>
     <use xlink:href="#DejaVuSans-69" x="2118.257812"/>
     <use xlink:href="#DejaVuSans-6e" x="2146.041016"/>
     <use xlink:href="#DejaVuSans-67" x="2209.419922"/>
     <use xlink:href="#DejaVuSans-65" x="2272.896484"/>
     <use xlink:href="#DejaVuSans-72" x="2334.419922"/>
    </g>
   </g>
   <g id="legend_1">
    <g id="patch_6">
     <path d="M 211.183187 78.82825 
L 362.216 78.82825 
Q 364.216 78.82825 364.216 76.82825 
L 364.216 48.472 
Q 364.216 46.472 362.216 46.472 
L 211.183187 46.472 
Q 209.183187 46.472 209.183187 48.472 
L 209.183187 76.82825 
Q 209.183187 78.82825 211.183187 78.82825 
z
" style="fill: #ffffff; opacity: 0.8; stroke: #cccccc; stroke-linejoin: miter"/>
    </g>
    <g id="line2d_26">
     <path d="M 213.183187 54.570437 
L 223.183187 54.570437 
L 233.183187 54.570437 
" style="fill: none; stroke: #1f77b4; stroke-width: 1.5; stroke-linecap: square"/>
    </g>
    <g id="text_22">
     <!-- 3D input trajectory -->
     <g transform="translate(241.183187 58.070437) scale(0.1 -0.1)">
      <defs>
       <path id="DejaVuSans-44" d="M 1259 4147 
L 1259 519 
L 2022 519 
Q 2988 519 3436 956 
Q 3884 1394 3884 2338 
Q 3884 3275 3436 3711 
Q 2988 4147 2022 4147 
L 1259 4147 
z
M 628 4666 
L 1925 4666 
Q 3281 4666 3915 4102 
Q 4550 3538 4550 2338 
Q 4550 1131 3912 565 
Q 3275 0 1925 0 
L 628 0 
L 628 4666 
z
" transform="scale(0.015625)"/>
       <path id="DejaVuSans-75" d="M 544 1381 
L 544 3500 
L 1119 3500 
L 1119 1403 
Q 1119 906 1312 657 
Q 1506 409 1894 409 
Q 2359 409 2629 706 
Q 2900 1003 2900 1516 
L 2900 3500 
L 3475 3500 
L 3475 0 
L 2900 0 
L 2900 538 
Q 2691 219 2414 64 
Q 2138 -91 1772 -91 
Q 1169 -91 856 284 
Q 544 659 544 1381 
z
M 1991 3584 
L 1991 3584 
z
" transform="scale(0.015625)"/>
      </defs>
      <use xlink:href="#DejaVuSans-33"/>
      <use xlink:href="#DejaVuSans-44" x="63.623047"/>
      <use xlink:href="#DejaVuSans-20" x="140.625"/>
      <use xlink:href="#DejaVuSans-69" x="172.412109"/>
      <use xlink:href="#DejaVuSans-6e" x="200.195312"/>
      <use xlink:href="#DejaVuSans-70" x="263.574219"/>
      <use xlink:href="#DejaVuSans-75" x="327.050781"/>
      <use xlink:href="#DejaVuSans-74" x="390.429688"/>
      <use xlink:href="#DejaVuSans-20" x="429.638672"/>
      <use xlink:href="#DejaVuSans-74" x="461.425781"/>
      <use xlink:href="#DejaVuSans-72" x="500.634766"/>
      <use xlink:href="#DejaVuSans-61" x="541.748047"/>
      <use xlink:href="#DejaVuSans-6a" x="603.027344"/>
      <use xlink:href="#DejaVuSans-65" x="630.810547"/>
      <use xlink:href="#DejaVuSans-63" x="692.333984"/>
      <use xlink:href="#DejaVuSans-74" x="747.314453"/>
      <use xlink:href="#DejaVuSans-6f" x="786.523438"/>
      <use xlink:href="#DejaVuSans-72" x="847.705078"/>
      <use xlink:href="#DejaVuSans-79" x="888.818359"/>
     </g>
    </g>
    <g id="line2d_27">
     <path d="M 213.183187 69.248562 
L 223.183187 69.248562 
L 233.183187 69.248562 
" style="fill: none; stroke: #ff7f0e; stroke-width: 1.5; stroke-linecap: square"/>
    </g>
    <g id="text_23">
     <!-- 3D measured trajectory -->
     <g transform="translate(241.183187 72.748562) scale(0.1 -0.1)">
      <defs>
       <path id="DejaVuSans-6d" d="M 3328 2828 
Q 3544 3216 3844 3400 
Q 4144 3584 4550 3584 
Q 5097 3584 5394 3201 
Q 5691 2819 5691 2113 
L 5691 0 
L 5113 0 
L 5113 2094 
Q 5113 2597 4934 2840 
Q 4756 3084 4391 3084 
Q 3944 3084 3684 2787 
Q 3425 2491 3425 1978 
L 3425 0 
L 2847 0 
L 2847 2094 
Q 2847 2600 2669 2842 
Q 2491 3084 2119 3084 
Q 1678 3084 1418 2786 
Q 1159 2488 1159 1978 
L 1159 0 
L 581 0 
L 581 3500 
L 1159 3500 
L 1159 2956 
Q 1356 3278 1631 3431 
Q 1906 3584 2284 3584 
Q 2666 3584 2933 3390 
Q 3200 3197 3328 2828 
z
" transform="scale(0.015625)"/>
      </defs>
      <use xlink:href="#DejaVuSans-33"/>
      <use xlink:href="#DejaVuSans-44" x="63.623047"/>
      <use xlink:href="#DejaVuSans-20" x="140.625"/>
      <use xlink:href="#DejaVuSans-6d" x="172.412109"/>
      <use xlink:href="#DejaVuSans-65" x="269.824219"/>
      <use xlink:href="#DejaVuSans-61" x="331.347656"/>
      <use xlink:href="#DejaVuSans-73" x="392.626953"/>
      <use xlink:href="#DejaVuSans-75" x="444.726562"/>
      <use xlink:href="#DejaVuSans-72" x="508.105469"/>
      <use xlink:href="#DejaVuSans-65" x="546.96875"/>
      <use xlink:href="#DejaVuSans-64" x="608.492188"/>
      <use xlink:href="#DejaVuSans-20" x="671.96875"/>
      <use xlink:href="#DejaVuSans-74" x="703.755859"/>
      <use xlink:href="#DejaVuSans-72" x="742.964844"/>
      <use xlink:href="#DejaVuSans-61" x="784.078125"/>
      <use xlink:href="#DejaVuSans-6a" x="845.357422"/>
      <use xlink:href="#DejaVuSans-65" x="873.140625"/>
      <use xlink:href="#DejaVuSans-63" x="934.664062"/>
      <use xlink:href="#DejaVuSans-74" x="989.644531"/>
      <use xlink:href="#DejaVuSans-6f" x="1028.853516"/>
      <use xlink:href="#DejaVuSans-72" x="1090.035156"/>
      <use xlink:href="#DejaVuSans-79" x="1131.148438"/>
     </g>
    </g>
   </g>
  </g>
 </g>
 <defs>
  <clipPath id="p35d0ac4834">
   <rect x="103.104" y="41.472" width="266.112" height="266.112"/>
  </clipPath>
 </defs>
</svg>
