<?xml version="1.0" encoding="utf-8" standalone="no"?>
<!DOCTYPE svg PUBLIC "-//W3C//DTD SVG 1.1//EN"
  "http://www.w3.org/Graphics/SVG/1.1/DTD/svg11.dtd">
<svg xmlns:xlink="http://www.w3.org/1999/xlink" width="460.8pt" height="345.6pt" viewBox="0 0 460.8 345.6" xmlns="http://www.w3.org/2000/svg" version="1.1">
 <metadata>
  <rdf:RDF xmlns:dc="http://purl.org/dc/elements/1.1/" xmlns:cc="http://creativecommons.org/ns#" xmlns:rdf="http://www.w3.org/1999/02/22-rdf-syntax-ns#">
   <cc:Work>
    <dc:type rdf:resource="http://purl.org/dc/dcmitype/StillImage"/>
    <dc:date>2024-02-09T17:17:31.372295</dc:date>
    <dc:format>image/svg+xml</dc:format>
    <dc:creator>
     <cc:Agent>
      <dc:title>Matplotlib v3.8.2, https://matplotlib.org/</dc:title>
     </cc:Agent>
    </dc:creator>
   </cc:Work>
  </rdf:RDF>
 </metadata>
 <defs>
  <style type="text/css">*{stroke-linejoin: round; stroke-linecap: butt}</style>
 </defs>
 <g id="figure_1">
  <g id="patch_1">
   <path d="M 0 345.6 
L 460.8 345.6 
L 460.8 0 
L 0 0 
z
" style="fill: #ffffff"/>
  </g>
  <g id="patch_2">
   <path d="M 103.104 307.584 
L 369.216 307.584 
L 369.216 41.472 
L 103.104 41.472 
z
" style="fill: #ffffff"/>
  </g>
  <g id="pane3d_1">
   <g id="patch_3">
    <path d="M 339.832999 114.38945 
L 181.568147 72.639792 
L 176.143361 59.827627 
L 349.171104 105.461834 
" style="fill: #f2f2f2; opacity: 0.5; stroke: #f2f2f2; stroke-linejoin: miter"/>
   </g>
  </g>
  <g id="pane3d_2">
   <g id="patch_4">
    <path d="M 139.458356 230.946514 
L 181.568147 72.639792 
L 176.143361 59.827627 
L 130.077057 232.899459 
" style="fill: #e6e6e6; opacity: 0.5; stroke: #e6e6e6; stroke-linejoin: miter"/>
   </g>
  </g>
  <g id="pane3d_3">
   <g id="patch_5">
    <path d="M 298.164931 272.947127 
L 339.832999 114.38945 
L 181.568147 72.639792 
L 139.458356 230.946514 
" style="fill: #ececec; opacity: 0.5; stroke: #ececec; stroke-linejoin: miter"/>
   </g>
  </g>
  <g id="grid3d_1">
   <g id="Line3DCollection_1">
    <path d="M 304.516561 248.777548 
L 145.877306 206.815238 
L 137.100778 206.511227 
" style="fill: none; stroke: #b0b0b0; stroke-width: 0.8"/>
    <path d="M 310.297366 226.780103 
L 151.719386 184.852638 
L 143.492757 182.496461 
" style="fill: none; stroke: #b0b0b0; stroke-width: 0.8"/>
    <path d="M 316.07337 204.800927 
L 157.556617 162.908264 
L 149.878936 158.503485 
" style="fill: none; stroke: #b0b0b0; stroke-width: 0.8"/>
    <path d="M 321.844579 182.839999 
L 163.389007 140.982094 
L 156.259323 134.532271 
" style="fill: none; stroke: #b0b0b0; stroke-width: 0.8"/>
    <path d="M 327.610998 160.897295 
L 169.21656 119.074106 
L 162.633925 110.582789 
" style="fill: none; stroke: #b0b0b0; stroke-width: 0.8"/>
    <path d="M 333.372635 138.972793 
L 175.039283 97.184276 
L 169.002751 86.655009 
" style="fill: none; stroke: #b0b0b0; stroke-width: 0.8"/>
   </g>
  </g>
  <g id="grid3d_2">
   <g id="Line3DCollection_2">
    <path d="M 330.40417 100.512257 
L 322.668407 109.861496 
L 280.952395 268.391947 
" style="fill: none; stroke: #b0b0b0; stroke-width: 0.8"/>
    <path d="M 305.271489 93.883782 
L 299.681151 103.797547 
L 257.900946 262.291538 
" style="fill: none; stroke: #b0b0b0; stroke-width: 0.8"/>
    <path d="M 280.145117 87.256972 
L 276.699174 97.73499 
L 234.854806 256.192534 
" style="fill: none; stroke: #b0b0b0; stroke-width: 0.8"/>
    <path d="M 255.025052 80.631825 
L 253.722473 91.673825 
L 211.813974 250.094935 
" style="fill: none; stroke: #b0b0b0; stroke-width: 0.8"/>
    <path d="M 229.911291 74.00834 
L 230.751047 85.614051 
L 188.778446 243.99874 
" style="fill: none; stroke: #b0b0b0; stroke-width: 0.8"/>
    <path d="M 204.803833 67.386518 
L 207.784894 79.555669 
L 165.748223 237.903948 
" style="fill: none; stroke: #b0b0b0; stroke-width: 0.8"/>
    <path d="M 179.702675 60.766357 
L 184.824012 73.498677 
L 142.723301 231.81056 
" style="fill: none; stroke: #b0b0b0; stroke-width: 0.8"/>
   </g>
  </g>
  <g id="grid3d_3">
   <g id="Line3DCollection_3">
    <path d="M 138.876314 231.06768 
L 181.23149 71.844681 
L 340.412474 113.835448 
" style="fill: none; stroke: #b0b0b0; stroke-width: 0.8"/>
    <path d="M 137.538857 231.346104 
L 180.457939 70.017723 
L 341.743973 112.562479 
" style="fill: none; stroke: #b0b0b0; stroke-width: 0.8"/>
    <path d="M 136.16546 231.63201 
L 179.663667 68.141824 
L 343.111172 111.255381 
" style="fill: none; stroke: #b0b0b0; stroke-width: 0.8"/>
    <path d="M 134.754654 231.925704 
L 178.847827 66.214988 
L 344.515525 109.912761 
" style="fill: none; stroke: #b0b0b0; stroke-width: 0.8"/>
    <path d="M 133.30489 232.227507 
L 178.00953 64.235113 
L 345.958567 108.533153 
" style="fill: none; stroke: #b0b0b0; stroke-width: 0.8"/>
    <path d="M 131.814531 232.537761 
L 177.147836 62.199978 
L 347.44192 107.115006 
" style="fill: none; stroke: #b0b0b0; stroke-width: 0.8"/>
    <path d="M 130.281849 232.856826 
L 176.261751 60.107238 
L 348.967296 105.656683 
" style="fill: none; stroke: #b0b0b0; stroke-width: 0.8"/>
   </g>
  </g>
  <g id="axis3d_1">
   <g id="line2d_1">
    <path d="M 339.832999 114.38945 
L 298.164931 272.947127 
" style="fill: none; stroke: #000000; stroke-width: 0.8; stroke-linecap: square"/>
   </g>
   <g id="xtick_1">
    <g id="line2d_2">
     <path d="M 303.246448 248.441585 
L 307.056834 249.449486 
" style="fill: none; stroke: #000000; stroke-width: 0.8; stroke-linecap: square"/>
    </g>
    <g id="text_1">
     <!-- 1.0 -->
     <g transform="translate(309.189592 259.563231) scale(0.1 -0.1)">
      <defs>
       <path id="DejaVuSans-31" d="M 794 531 
L 1825 531 
L 1825 4091 
L 703 3866 
L 703 4441 
L 1819 4666 
L 2450 4666 
L 2450 531 
L 3481 531 
L 3481 0 
L 794 0 
L 794 531 
z
" transform="scale(0.015625)"/>
       <path id="DejaVuSans-2e" d="M 684 794 
L 1344 794 
L 1344 0 
L 684 0 
L 684 794 
z
" transform="scale(0.015625)"/>
       <path id="DejaVuSans-30" d="M 2034 4250 
Q 1547 4250 1301 3770 
Q 1056 3291 1056 2328 
Q 1056 1369 1301 889 
Q 1547 409 2034 409 
Q 2525 409 2770 889 
Q 3016 1369 3016 2328 
Q 3016 3291 2770 3770 
Q 2525 4250 2034 4250 
z
M 2034 4750 
Q 2819 4750 3233 4129 
Q 3647 3509 3647 2328 
Q 3647 1150 3233 529 
Q 2819 -91 2034 -91 
Q 1250 -91 836 529 
Q 422 1150 422 2328 
Q 422 3509 836 4129 
Q 1250 4750 2034 4750 
z
" transform="scale(0.015625)"/>
      </defs>
      <use xlink:href="#DejaVuSans-31"/>
      <use xlink:href="#DejaVuSans-2e" x="63.623047"/>
      <use xlink:href="#DejaVuSans-30" x="95.410156"/>
     </g>
    </g>
   </g>
   <g id="xtick_2">
    <g id="line2d_3">
     <path d="M 309.027745 226.444419 
L 312.836658 227.451482 
" style="fill: none; stroke: #000000; stroke-width: 0.8; stroke-linecap: square"/>
    </g>
    <g id="text_2">
     <!-- 1.2 -->
     <g transform="translate(314.92483 237.718047) scale(0.1 -0.1)">
      <defs>
       <path id="DejaVuSans-32" d="M 1228 531 
L 3431 531 
L 3431 0 
L 469 0 
L 469 531 
Q 828 903 1448 1529 
Q 2069 2156 2228 2338 
Q 2531 2678 2651 2914 
Q 2772 3150 2772 3378 
Q 2772 3750 2511 3984 
Q 2250 4219 1831 4219 
Q 1534 4219 1204 4116 
Q 875 4013 500 3803 
L 500 4441 
Q 881 4594 1212 4672 
Q 1544 4750 1819 4750 
Q 2544 4750 2975 4387 
Q 3406 4025 3406 3419 
Q 3406 3131 3298 2873 
Q 3191 2616 2906 2266 
Q 2828 2175 2409 1742 
Q 1991 1309 1228 531 
z
" transform="scale(0.015625)"/>
      </defs>
      <use xlink:href="#DejaVuSans-31"/>
      <use xlink:href="#DejaVuSans-2e" x="63.623047"/>
      <use xlink:href="#DejaVuSans-32" x="95.410156"/>
     </g>
    </g>
   </g>
   <g id="xtick_3">
    <g id="line2d_4">
     <path d="M 314.804239 204.465522 
L 318.61168 205.47175 
" style="fill: none; stroke: #000000; stroke-width: 0.8; stroke-linecap: square"/>
    </g>
    <g id="text_3">
     <!-- 1.4 -->
     <g transform="translate(320.655338 215.89088) scale(0.1 -0.1)">
      <defs>
       <path id="DejaVuSans-34" d="M 2419 4116 
L 825 1625 
L 2419 1625 
L 2419 4116 
z
M 2253 4666 
L 3047 4666 
L 3047 1625 
L 3713 1625 
L 3713 1100 
L 3047 1100 
L 3047 0 
L 2419 0 
L 2419 1100 
L 313 1100 
L 313 1709 
L 2253 4666 
z
" transform="scale(0.015625)"/>
      </defs>
      <use xlink:href="#DejaVuSans-31"/>
      <use xlink:href="#DejaVuSans-2e" x="63.623047"/>
      <use xlink:href="#DejaVuSans-34" x="95.410156"/>
     </g>
    </g>
   </g>
   <g id="xtick_4">
    <g id="line2d_5">
     <path d="M 320.575938 182.504873 
L 324.381909 183.510265 
" style="fill: none; stroke: #000000; stroke-width: 0.8; stroke-linecap: square"/>
    </g>
    <g id="text_4">
     <!-- 1.6 -->
     <g transform="translate(326.381122 194.081708) scale(0.1 -0.1)">
      <defs>
       <path id="DejaVuSans-36" d="M 2113 2584 
Q 1688 2584 1439 2293 
Q 1191 2003 1191 1497 
Q 1191 994 1439 701 
Q 1688 409 2113 409 
Q 2538 409 2786 701 
Q 3034 994 3034 1497 
Q 3034 2003 2786 2293 
Q 2538 2584 2113 2584 
z
M 3366 4563 
L 3366 3988 
Q 3128 4100 2886 4159 
Q 2644 4219 2406 4219 
Q 1781 4219 1451 3797 
Q 1122 3375 1075 2522 
Q 1259 2794 1537 2939 
Q 1816 3084 2150 3084 
Q 2853 3084 3261 2657 
Q 3669 2231 3669 1497 
Q 3669 778 3244 343 
Q 2819 -91 2113 -91 
Q 1303 -91 875 529 
Q 447 1150 447 2328 
Q 447 3434 972 4092 
Q 1497 4750 2381 4750 
Q 2619 4750 2861 4703 
Q 3103 4656 3366 4563 
z
" transform="scale(0.015625)"/>
      </defs>
      <use xlink:href="#DejaVuSans-31"/>
      <use xlink:href="#DejaVuSans-2e" x="63.623047"/>
      <use xlink:href="#DejaVuSans-36" x="95.410156"/>
     </g>
    </g>
   </g>
   <g id="xtick_5">
    <g id="line2d_6">
     <path d="M 326.342848 160.562447 
L 330.147348 161.567005 
" style="fill: none; stroke: #000000; stroke-width: 0.8; stroke-linecap: square"/>
    </g>
    <g id="text_5">
     <!-- 1.8 -->
     <g transform="translate(332.102187 172.290508) scale(0.1 -0.1)">
      <defs>
       <path id="DejaVuSans-38" d="M 2034 2216 
Q 1584 2216 1326 1975 
Q 1069 1734 1069 1313 
Q 1069 891 1326 650 
Q 1584 409 2034 409 
Q 2484 409 2743 651 
Q 3003 894 3003 1313 
Q 3003 1734 2745 1975 
Q 2488 2216 2034 2216 
z
M 1403 2484 
Q 997 2584 770 2862 
Q 544 3141 544 3541 
Q 544 4100 942 4425 
Q 1341 4750 2034 4750 
Q 2731 4750 3128 4425 
Q 3525 4100 3525 3541 
Q 3525 3141 3298 2862 
Q 3072 2584 2669 2484 
Q 3125 2378 3379 2068 
Q 3634 1759 3634 1313 
Q 3634 634 3220 271 
Q 2806 -91 2034 -91 
Q 1263 -91 848 271 
Q 434 634 434 1313 
Q 434 1759 690 2068 
Q 947 2378 1403 2484 
z
M 1172 3481 
Q 1172 3119 1398 2916 
Q 1625 2713 2034 2713 
Q 2441 2713 2670 2916 
Q 2900 3119 2900 3481 
Q 2900 3844 2670 4047 
Q 2441 4250 2034 4250 
Q 1625 4250 1398 4047 
Q 1172 3844 1172 3481 
z
" transform="scale(0.015625)"/>
      </defs>
      <use xlink:href="#DejaVuSans-31"/>
      <use xlink:href="#DejaVuSans-2e" x="63.623047"/>
      <use xlink:href="#DejaVuSans-38" x="95.410156"/>
     </g>
    </g>
   </g>
   <g id="xtick_6">
    <g id="line2d_7">
     <path d="M 332.104973 138.638223 
L 335.908005 139.641947 
" style="fill: none; stroke: #000000; stroke-width: 0.8; stroke-linecap: square"/>
    </g>
    <g id="text_6">
     <!-- 2.0 -->
     <g transform="translate(337.818539 150.517258) scale(0.1 -0.1)">
      <use xlink:href="#DejaVuSans-32"/>
      <use xlink:href="#DejaVuSans-2e" x="63.623047"/>
      <use xlink:href="#DejaVuSans-30" x="95.410156"/>
     </g>
    </g>
   </g>
  </g>
  <g id="axis3d_2">
   <g id="line2d_8">
    <path d="M 139.458356 230.946514 
L 298.164931 272.947127 
" style="fill: none; stroke: #000000; stroke-width: 0.8; stroke-linecap: square"/>
   </g>
   <g id="xtick_7">
    <g id="line2d_9">
     <path d="M 281.287117 267.119927 
L 280.282903 270.93617 
" style="fill: none; stroke: #000000; stroke-width: 0.8; stroke-linecap: square"/>
    </g>
    <g id="text_7">
     <!-- 1.0 -->
     <g transform="translate(269.262201 288.682351) scale(0.1 -0.1)">
      <use xlink:href="#DejaVuSans-31"/>
      <use xlink:href="#DejaVuSans-2e" x="63.623047"/>
      <use xlink:href="#DejaVuSans-30" x="95.410156"/>
     </g>
    </g>
   </g>
   <g id="xtick_8">
    <g id="line2d_10">
     <path d="M 258.236183 261.019811 
L 257.230424 264.835176 
" style="fill: none; stroke: #000000; stroke-width: 0.8; stroke-linecap: square"/>
    </g>
    <g id="text_8">
     <!-- 1.2 -->
     <g transform="translate(246.368057 282.622007) scale(0.1 -0.1)">
      <use xlink:href="#DejaVuSans-31"/>
      <use xlink:href="#DejaVuSans-2e" x="63.623047"/>
      <use xlink:href="#DejaVuSans-32" x="95.410156"/>
     </g>
    </g>
   </g>
   <g id="xtick_9">
    <g id="line2d_11">
     <path d="M 235.190558 254.9211 
L 234.183255 258.735586 
" style="fill: none; stroke: #000000; stroke-width: 0.8; stroke-linecap: square"/>
    </g>
    <g id="text_9">
     <!-- 1.4 -->
     <g transform="translate(223.479149 276.563049) scale(0.1 -0.1)">
      <use xlink:href="#DejaVuSans-31"/>
      <use xlink:href="#DejaVuSans-2e" x="63.623047"/>
      <use xlink:href="#DejaVuSans-34" x="95.410156"/>
     </g>
    </g>
   </g>
   <g id="xtick_10">
    <g id="line2d_12">
     <path d="M 212.15024 248.823793 
L 211.141393 252.637401 
" style="fill: none; stroke: #000000; stroke-width: 0.8; stroke-linecap: square"/>
    </g>
    <g id="text_10">
     <!-- 1.6 -->
     <g transform="translate(200.595477 270.505477) scale(0.1 -0.1)">
      <use xlink:href="#DejaVuSans-31"/>
      <use xlink:href="#DejaVuSans-2e" x="63.623047"/>
      <use xlink:href="#DejaVuSans-36" x="95.410156"/>
     </g>
    </g>
   </g>
   <g id="xtick_11">
    <g id="line2d_13">
     <path d="M 189.115227 242.727891 
L 188.104837 246.540621 
" style="fill: none; stroke: #000000; stroke-width: 0.8; stroke-linecap: square"/>
    </g>
    <g id="text_11">
     <!-- 1.8 -->
     <g transform="translate(177.717038 264.44929) scale(0.1 -0.1)">
      <use xlink:href="#DejaVuSans-31"/>
      <use xlink:href="#DejaVuSans-2e" x="63.623047"/>
      <use xlink:href="#DejaVuSans-38" x="95.410156"/>
     </g>
    </g>
   </g>
   <g id="xtick_12">
    <g id="line2d_14">
     <path d="M 166.085517 236.633392 
L 165.073586 240.445244 
" style="fill: none; stroke: #000000; stroke-width: 0.8; stroke-linecap: square"/>
    </g>
    <g id="text_12">
     <!-- 2.0 -->
     <g transform="translate(154.84383 258.394488) scale(0.1 -0.1)">
      <use xlink:href="#DejaVuSans-32"/>
      <use xlink:href="#DejaVuSans-2e" x="63.623047"/>
      <use xlink:href="#DejaVuSans-30" x="95.410156"/>
     </g>
    </g>
   </g>
   <g id="xtick_13">
    <g id="line2d_15">
     <path d="M 143.061109 230.540296 
L 142.047636 234.35127 
" style="fill: none; stroke: #000000; stroke-width: 0.8; stroke-linecap: square"/>
    </g>
    <g id="text_13">
     <!-- 2.2 -->
     <g transform="translate(131.975853 252.341071) scale(0.1 -0.1)">
      <use xlink:href="#DejaVuSans-32"/>
      <use xlink:href="#DejaVuSans-2e" x="63.623047"/>
      <use xlink:href="#DejaVuSans-32" x="95.410156"/>
     </g>
    </g>
   </g>
  </g>
  <g id="axis3d_3">
   <g id="line2d_16">
    <path d="M 139.458356 230.946514 
L 130.077057 232.899459 
" style="fill: none; stroke: #000000; stroke-width: 0.8; stroke-linecap: square"/>
   </g>
   <g id="xtick_14">
    <g id="line2d_17">
     <path d="M 139.216169 229.790084 
L 138.196553 233.623058 
" style="fill: none; stroke: #000000; stroke-width: 0.8; stroke-linecap: square"/>
    </g>
    <g id="text_14">
     <!-- 0.2 -->
     <g transform="translate(114.16257 248.416566) scale(0.1 -0.1)">
      <use xlink:href="#DejaVuSans-30"/>
      <use xlink:href="#DejaVuSans-2e" x="63.623047"/>
      <use xlink:href="#DejaVuSans-32" x="95.410156"/>
     </g>
    </g>
   </g>
   <g id="xtick_15">
    <g id="line2d_18">
     <path d="M 137.883251 230.051563 
L 136.850018 233.935376 
" style="fill: none; stroke: #000000; stroke-width: 0.8; stroke-linecap: square"/>
    </g>
    <g id="text_15">
     <!-- 0.4 -->
     <g transform="translate(112.60259 248.824337) scale(0.1 -0.1)">
      <use xlink:href="#DejaVuSans-30"/>
      <use xlink:href="#DejaVuSans-2e" x="63.623047"/>
      <use xlink:href="#DejaVuSans-34" x="95.410156"/>
     </g>
    </g>
   </g>
   <g id="xtick_16">
    <g id="line2d_19">
     <path d="M 136.514515 230.320069 
L 135.467297 234.256088 
" style="fill: none; stroke: #000000; stroke-width: 0.8; stroke-linecap: square"/>
    </g>
    <g id="text_16">
     <!-- 0.6 -->
     <g transform="translate(111.000683 249.243067) scale(0.1 -0.1)">
      <use xlink:href="#DejaVuSans-30"/>
      <use xlink:href="#DejaVuSans-2e" x="63.623047"/>
      <use xlink:href="#DejaVuSans-36" x="95.410156"/>
     </g>
    </g>
   </g>
   <g id="xtick_17">
    <g id="line2d_20">
     <path d="M 135.108498 230.595888 
L 134.046912 234.585535 
" style="fill: none; stroke: #000000; stroke-width: 0.8; stroke-linecap: square"/>
    </g>
    <g id="text_17">
     <!-- 0.8 -->
     <g transform="translate(109.355134 249.673206) scale(0.1 -0.1)">
      <use xlink:href="#DejaVuSans-30"/>
      <use xlink:href="#DejaVuSans-2e" x="63.623047"/>
      <use xlink:href="#DejaVuSans-38" x="95.410156"/>
     </g>
    </g>
   </g>
   <g id="xtick_18">
    <g id="line2d_21">
     <path d="M 133.663657 230.879323 
L 132.587302 234.92408 
" style="fill: none; stroke: #000000; stroke-width: 0.8; stroke-linecap: square"/>
    </g>
    <g id="text_18">
     <!-- 1.0 -->
     <g transform="translate(107.664136 250.115224) scale(0.1 -0.1)">
      <use xlink:href="#DejaVuSans-31"/>
      <use xlink:href="#DejaVuSans-2e" x="63.623047"/>
      <use xlink:href="#DejaVuSans-30" x="95.410156"/>
     </g>
    </g>
   </g>
   <g id="xtick_19">
    <g id="line2d_22">
     <path d="M 132.178359 231.170695 
L 131.086819 235.272106 
" style="fill: none; stroke: #000000; stroke-width: 0.8; stroke-linecap: square"/>
    </g>
    <g id="text_19">
     <!-- 1.2 -->
     <g transform="translate(105.925779 250.569622) scale(0.1 -0.1)">
      <use xlink:href="#DejaVuSans-31"/>
      <use xlink:href="#DejaVuSans-2e" x="63.623047"/>
      <use xlink:href="#DejaVuSans-32" x="95.410156"/>
     </g>
    </g>
   </g>
   <g id="xtick_20">
    <g id="line2d_23">
     <path d="M 130.650883 231.470341 
L 129.543723 235.630015 
" style="fill: none; stroke: #000000; stroke-width: 0.8; stroke-linecap: square"/>
    </g>
    <g id="text_20">
     <!-- 1.4 -->
     <g transform="translate(104.138046 251.036926) scale(0.1 -0.1)">
      <use xlink:href="#DejaVuSans-31"/>
      <use xlink:href="#DejaVuSans-2e" x="63.623047"/>
      <use xlink:href="#DejaVuSans-34" x="95.410156"/>
     </g>
    </g>
   </g>
  </g>
  <g id="axes_1">
   <g id="line2d_24">
    <path d="M 227.917621 218.004617 
L 229.75924 221.466135 
L 230.954649 223.03505 
L 230.746445 224.34735 
L 230.917877 224.03359 
L 229.208657 224.529454 
L 226.397383 223.991622 
L 224.805326 226.934481 
L 221.429139 225.928939 
L 216.927499 224.123433 
L 212.075567 221.183626 
L 207.985611 215.599175 
L 199.896856 208.785995 
L 198.623227 205.98722 
L 196.941394 203.80903 
L 196.857842 205.883957 
L 195.859748 207.019864 
L 196.166547 208.56634 
L 194.757584 209.802558 
L 193.188235 210.829787 
L 191.973204 209.26842 
L 190.413848 206.262222 
L 188.947129 201.999289 
L 187.895472 197.680412 
L 187.337927 192.284707 
L 186.241346 188.740215 
L 185.326718 184.911163 
L 185.345569 180.884389 
L 185.638508 176.154016 
L 185.06237 172.839354 
L 184.441843 171.690605 
L 182.55256 169.033366 
L 180.543785 166.475131 
L 178.022183 163.639247 
L 176.934061 160.792049 
L 177.661794 158.13283 
L 178.758062 155.571912 
L 180.68252 152.865893 
L 181.212602 150.319727 
L 182.711162 147.857171 
L 185.656335 145.564448 
L 187.710472 143.076479 
L 189.682685 140.240708 
L 192.225408 136.810606 
L 194.343931 133.320227 
L 196.444093 130.45933 
L 197.705853 128.012351 
L 200.062775 123.86578 
L 201.594282 123.069065 
L 203.846699 122.459159 
L 206.626011 121.888971 
L 206.264883 120.067944 
L 205.702459 119.126763 
L 206.833814 117.446246 
L 208.65997 116.146253 
L 209.052216 115.163261 
L 210.630203 113.762184 
L 213.4017 112.08527 
L 216.457492 110.695616 
L 222.621401 109.71017 
L 229.946522 107.876377 
L 237.489269 107.676025 
L 244.089922 108.421457 
L 249.123271 109.417252 
L 252.953146 110.614953 
L 259.253015 110.114671 
L 260.274745 108.69873 
L 261.008908 108.883494 
L 261.964564 108.292552 
L 263.260814 108.27412 
L 265.263044 108.427759 
L 268.067531 109.172535 
L 271.291555 107.712966 
L 274.64677 108.888045 
L 277.554979 107.535189 
L 282.408521 107.238432 
L 284.301667 107.955881 
L 287.34405 109.954586 
L 288.557771 115.050501 
L 292.539764 113.890143 
L 295.462744 115.650335 
L 298.48555 119.828085 
L 300.056602 124.061517 
L 301.539942 138.200755 
L 301.042704 143.178379 
L 299.59186 145.695368 
L 301.041289 150.333823 
L 300.611749 153.297087 
L 302.027643 155.740064 
L 304.036436 158.790387 
L 307.178351 161.723178 
L 310.022192 165.018126 
L 311.885249 168.588556 
L 312.618958 171.782191 
L 311.62932 176.154106 
L 310.246842 180.25045 
L 308.334703 184.598638 
L 306.912161 189.089955 
L 305.316973 192.630646 
L 304.108906 195.829918 
L 303.644232 198.231664 
L 303.535856 201.23079 
L 303.08518 203.476128 
L 302.057009 206.326005 
L 301.026573 208.579338 
L 298.898154 210.308845 
L 298.16718 212.193091 
L 295.842269 213.393219 
L 292.092389 215.92086 
L 292.395474 218.86684 
L 292.314335 222.126264 
L 291.261565 223.192147 
L 289.215661 225.473853 
L 287.327068 230.063936 
L 287.74611 232.471723 
L 285.399864 232.759925 
L 282.853544 231.500599 
L 279.868193 232.193504 
L 277.301682 231.906714 
L 275.840079 232.844383 
L 272.890983 233.751551 
L 270.110529 233.846815 
L 267.300284 232.440184 
L 261.273287 234.222556 
L 256.637636 233.627125 
L 251.59852 232.855721 
L 246.748402 231.74899 
L 241.980082 231.635629 
L 237.178251 233.996402 
L 233.188062 232.711009 
L 229.413764 234.032296 
L 223.36446 229.933796 
L 221.010217 229.021122 
L 218.449015 226.439984 
L 215.488555 225.329585 
L 212.823787 228.070326 
L 211.162185 227.962372 
L 209.599189 228.486146 
L 207.41799 226.646666 
L 204.33605 225.578294 
L 201.358043 226.275994 
L 199.402188 224.199124 
L 195.152502 218.032478 
L 192.786411 216.465622 
L 190.47096 215.12503 
L 188.547875 211.465347 
L 187.470721 206.536368 
L 186.794621 202.045547 
L 184.535114 190.708611 
L 183.906133 184.185077 
L 173.336901 178.090565 
L 167.585014 172.48013 
L 164.289856 168.898139 
L 163.588237 166.104541 
L 165.92168 164.478038 
L 168.881429 163.732516 
L 172.749178 162.5531 
L 176.821959 161.758127 
L 185.021057 158.929672 
L 187.833082 157.529243 
L 189.808473 156.38313 
L 191.068798 153.588896 
L 187.255812 148.363052 
L 187.393587 144.986722 
L 190.0446 142.895954 
L 190.36658 136.768788 
L 191.575217 130.866593 
L 192.938336 126.939268 
L 194.291313 125.484712 
L 195.627719 123.357757 
L 197.110193 122.546408 
L 199.78955 122.056788 
L 202.693428 120.82858 
L 204.200187 119.90217 
L 206.029667 119.278309 
L 209.553165 120.064205 
L 212.107508 119.700063 
L 214.692409 119.580565 
L 217.9591 119.17816 
L 219.406089 117.784872 
L 221.851966 116.859247 
L 226.288139 113.937713 
L 225.882885 110.607222 
L 229.28878 110.254141 
L 232.585687 110.221654 
L 234.900626 109.988746 
L 237.527691 109.928391 
L 241.494496 110.162624 
L 245.732984 110.856697 
L 250.62134 110.407084 
L 255.615762 111.128104 
L 261.087657 113.520848 
L 265.258821 114.659852 
L 268.433416 116.336222 
L 271.240524 116.384659 
L 274.167166 116.215686 
L 275.77067 117.013171 
L 277.141 118.56782 
L 278.427084 120.413161 
L 282.301428 120.291226 
L 284.602684 120.679246 
L 287.640887 119.690774 
L 291.227799 117.459932 
L 294.414723 118.901698 
L 297.620461 121.636942 
L 299.758606 125.413296 
L 302.800202 134.920007 
L 304.556196 138.927471 
L 305.882135 142.411692 
L 308.9031 147.253582 
L 308.58551 150.266425 
L 309.923692 153.524796 
L 310.646114 155.630242 
L 312.673112 164.948914 
L 313.082819 169.889505 
L 314.334508 173.963154 
L 313.9707 176.812067 
L 314.253544 179.439826 
L 314.762288 181.370491 
L 312.159 184.792608 
L 311.440398 187.623153 
L 309.989081 189.584454 
L 309.296837 192.605732 
L 308.08012 196.18337 
L 305.608579 198.465494 
L 303.889814 202.019452 
L 303.354332 206.58016 
L 303.425181 210.100272 
L 303.023715 213.900852 
L 300.360722 220.127561 
L 299.779249 220.424138 
L 297.886346 220.304124 
L 295.086034 219.367211 
L 292.899397 218.377666 
L 291.345782 216.162852 
L 288.870385 214.486747 
L 287.551188 213.953858 
L 285.735758 215.270741 
L 283.33155 217.361729 
L 281.372877 220.53989 
L 278.565893 223.550073 
L 274.998334 225.699802 
L 272.2426 227.828381 
L 270.593552 230.839145 
L 267.510438 232.989268 
L 266.447979 235.989049 
L 265.390576 237.88222 
L 262.879229 237.920545 
L 260.564785 239.512389 
L 255.982601 239.970273 
L 250.815047 241.027968 
L 245.079497 239.18652 
L 239.155845 237.600587 
L 234.545579 235.30295 
L 232.150944 232.083167 
L 224.968257 229.365517 
L 215.583912 228.007234 
L 213.981336 228.688095 
L 213.948375 226.9854 
L 212.611781 226.519042 
L 212.958792 224.691981 
L 211.527396 222.55865 
L 207.554141 229.784512 
L 204.734086 234.407076 
L 201.745003 236.901917 
L 198.799053 238.45017 
L 194.053787 236.043529 
L 191.985437 232.547732 
L 189.399525 225.883593 
L 187.006045 218.997213 
L 184.131311 214.179539 
L 183.837377 207.107184 
L 184.030603 200.672478 
L 183.833926 195.40093 
L 184.500968 189.968778 
L 185.226303 185.1457 
L 179.150239 178.265197 
L 171.917403 173.938544 
L 170.438914 169.266641 
L 170.911585 167.05662 
L 172.69478 166.471482 
L 176.878675 166.151949 
L 180.422153 164.115362 
L 184.020639 163.455474 
L 187.329266 160.563375 
L 191.133104 158.806645 
L 192.550052 156.650434 
L 193.447382 153.79402 
L 194.262128 149.69198 
L 193.330476 146.143424 
L 191.412498 146.988915 
L 186.27304 142.404561 
L 185.442975 139.662017 
L 183.609677 137.414677 
L 185.294157 134.950414 
L 187.49245 133.254295 
L 192.17003 128.393501 
L 193.639535 125.960594 
L 194.7025 123.317939 
L 196.784404 121.85193 
L 199.489698 120.558848 
L 202.759518 118.827511 
L 202.174354 117.186784 
L 204.635971 116.098345 
L 203.841992 111.605403 
L 207.326921 110.337449 
L 210.99915 109.883612 
L 213.312356 107.564671 
L 218.103366 107.34204 
L 222.649045 101.522896 
L 229.489422 101.909356 
L 231.128882 102.593767 
L 232.568582 99.696381 
L 235.592907 100.049897 
L 241.129553 98.604367 
L 244.881489 96.02038 
L 248.90818 95.1219 
L 255.138883 97.704773 
L 269.80843 107.027011 
L 270.639375 110.030979 
L 276.000146 111.334938 
L 278.231999 113.258016 
L 279.402221 114.473863 
L 279.666588 114.297782 
L 279.311679 115.671092 
L 278.781085 116.112926 
L 283.007926 117.610174 
L 285.583298 116.87923 
L 286.406419 118.086285 
L 289.786405 116.443558 
L 296.263337 114.881405 
L 301.611484 115.408025 
L 303.395438 121.788089 
L 305.838924 127.904721 
L 307.399637 130.843492 
L 308.456047 134.482704 
L 308.060813 140.681122 
L 309.63865 147.561936 
L 313.443494 160.935732 
L 314.286362 166.876477 
L 316.138361 170.712156 
L 316.212771 174.492491 
L 314.802889 176.834872 
L 314.605194 178.858188 
L 314.991976 183.088398 
L 314.832253 186.322576 
L 313.298166 188.148151 
L 312.773611 192.033381 
L 310.899469 194.616347 
L 305.711176 199.058286 
L 304.178752 199.808879 
L 303.508176 201.380896 
L 302.982885 205.070238 
L 300.523209 206.900401 
L 298.863828 209.523137 
L 297.131193 211.751635 
L 293.338517 213.604652 
L 291.94898 213.328286 
L 290.501566 212.349772 
L 287.893775 213.258906 
L 286.372504 214.776379 
L 284.858809 215.262831 
L 278.958749 219.182299 
L 277.288149 222.289675 
L 275.502854 224.727265 
L 272.913341 227.176311 
L 271.383396 227.964777 
L 268.078429 228.973592 
L 266.382597 230.955335 
L 263.753908 232.30981 
L 263.753908 232.30981 
" clip-path="url(#pc7e0411506)" style="fill: none; stroke: #1f77b4; stroke-width: 1.5; stroke-linecap: square"/>
   </g>
   <g id="line2d_25">
    <path d="M 229.658857 229.101864 
L 226.94459 228.322474 
L 224.267833 227.421732 
L 221.634563 226.401586 
L 219.050661 225.264254 
L 216.5219 224.012213 
L 214.053931 222.6482 
L 211.652272 221.1752 
L 209.322291 219.596443 
L 207.0692 217.915398 
L 204.89804 216.135758 
L 202.813669 214.261443 
L 200.820754 212.296579 
L 198.923758 210.245498 
L 197.12693 208.112725 
L 195.434298 205.902967 
L 193.849657 203.621103 
L 192.376562 201.272175 
L 191.018321 198.861372 
L 189.777986 196.394025 
L 188.658346 193.875588 
L 187.661924 191.311634 
L 186.790966 188.707832 
L 186.047441 186.069946 
L 185.433035 183.403811 
L 184.949145 180.71533 
L 184.596882 178.010453 
L 184.37706 175.295169 
L 184.290203 172.575489 
L 184.336536 169.857436 
L 184.51599 167.147028 
L 184.828203 164.450268 
L 185.272514 161.773128 
L 185.847972 159.121539 
L 186.553334 156.501374 
L 187.387069 153.918437 
L 188.347362 151.378451 
L 189.432117 148.887045 
L 190.638962 146.449739 
L 191.965255 144.071935 
L 193.408088 141.758904 
L 194.964296 139.515775 
L 196.630462 137.347522 
L 198.402927 135.258953 
L 200.277793 133.254704 
L 202.250939 131.339222 
L 204.318022 129.516761 
L 206.474495 127.791367 
L 208.715608 126.166877 
L 211.036428 124.646901 
L 213.43184 123.234823 
L 215.896567 121.933787 
L 218.425175 120.746694 
L 221.01209 119.676193 
L 223.651606 118.724678 
L 226.337899 117.894278 
L 229.065042 117.18686 
L 231.827014 116.604016 
L 234.617718 116.147066 
L 237.430988 115.817052 
L 240.260608 115.614736 
L 243.100324 115.540599 
L 245.943856 115.59484 
L 248.784915 115.777373 
L 251.617212 116.087832 
L 254.434478 116.525565 
L 257.230473 117.089642 
L 259.998999 117.778851 
L 262.733919 118.591707 
L 265.429166 119.526447 
L 268.078756 120.581043 
L 270.676805 121.753196 
L 273.217538 123.040352 
L 275.695306 124.439697 
L 278.104591 125.94817 
L 280.440029 127.562467 
L 282.696412 129.279048 
L 284.868705 131.094146 
L 286.952055 133.003772 
L 288.941803 135.003728 
L 290.833496 137.089612 
L 292.622892 139.25683 
L 294.305974 141.500605 
L 295.878957 143.815987 
L 297.338298 146.197865 
L 298.680702 148.640978 
L 299.903132 151.139924 
L 301.002814 153.689175 
L 301.977243 156.283087 
L 302.824193 158.915915 
L 303.541714 161.581821 
L 304.128147 164.274891 
L 304.582118 166.989148 
L 304.90255 169.71856 
L 305.088658 172.457061 
L 305.139957 175.198558 
L 305.056259 177.936949 
L 304.837679 180.666132 
L 304.484628 183.380023 
L 303.997818 186.072568 
L 303.37826 188.737754 
L 302.627259 191.369627 
L 301.746415 193.962301 
L 300.737617 196.509975 
L 299.603039 199.006943 
L 298.34514 201.447608 
L 296.966651 203.826494 
L 295.470579 206.138261 
L 293.860189 208.377713 
L 292.139007 210.539813 
L 290.310807 212.619692 
L 288.379605 214.612663 
L 286.349648 216.514227 
L 284.225407 218.320089 
L 282.011565 220.026165 
L 279.713009 221.628588 
L 277.334818 223.123724 
L 274.882251 224.508173 
L 272.360736 225.778784 
L 269.775859 226.932656 
L 267.133349 227.967147 
L 264.439069 228.879882 
L 261.699 229.668755 
L 258.919226 230.331938 
L 256.105925 230.86788 
L 253.265353 231.275317 
L 250.403828 231.553269 
L 247.52772 231.701046 
L 244.643433 231.718249 
L 241.757391 231.60477 
L 238.876026 231.360794 
L 236.005762 230.986797 
L 233.152999 230.483545 
L 230.324102 229.852096 
L 227.525384 229.093792 
L 224.763093 228.21026 
L 222.043396 227.203407 
L 219.372368 226.075416 
L 216.755978 224.828743 
L 214.200072 223.466108 
L 211.710365 221.99049 
L 209.292424 220.405123 
L 206.951658 218.713486 
L 204.693303 216.919295 
L 202.522414 215.026498 
L 200.443852 213.039261 
L 198.462271 210.961962 
L 196.582112 208.799184 
L 194.807589 206.555697 
L 193.14268 204.236453 
L 191.591123 201.846575 
L 190.156401 199.391343 
L 188.841737 196.876183 
L 187.650089 194.306655 
L 186.584139 191.688442 
L 185.646292 189.027335 
L 184.838668 186.32922 
L 184.163095 183.600069 
L 183.62111 180.84592 
L 183.213952 178.072869 
L 182.942562 175.287055 
L 182.807578 172.494645 
L 182.809335 169.701822 
L 182.947865 166.914769 
L 183.222897 164.139657 
L 183.633856 161.382634 
L 184.179866 158.649804 
L 184.859752 155.947221 
L 185.672041 153.280871 
L 186.614967 150.656662 
L 187.686475 148.080406 
L 188.884224 145.557814 
L 190.205593 143.094476 
L 191.647688 140.69585 
L 193.207348 138.367256 
L 194.88115 136.113855 
L 196.665419 133.940647 
L 198.556234 131.852451 
L 200.549439 129.853902 
L 202.640651 127.949437 
L 204.825269 126.143285 
L 207.098486 124.43946 
L 209.455296 122.841749 
L 211.89051 121.353708 
L 214.398762 119.978648 
L 216.974526 118.719636 
L 219.612124 117.579481 
L 222.30574 116.560729 
L 225.049434 115.665662 
L 227.837152 114.896288 
L 230.662743 114.254339 
L 233.519968 113.741266 
L 236.402518 113.358237 
L 239.304025 113.106131 
L 242.218078 112.985542 
L 245.138234 112.996773 
L 248.058035 113.139835 
L 250.971022 113.414449 
L 253.870746 113.820047 
L 256.750786 114.355771 
L 259.604761 115.020474 
L 262.426345 115.812726 
L 265.20928 116.730814 
L 267.947389 117.772747 
L 270.634592 118.93626 
L 273.264919 120.218816 
L 275.832519 121.617616 
L 278.33168 123.129604 
L 280.756835 124.751469 
L 283.102578 126.479659 
L 285.363677 128.310381 
L 287.535081 130.239617 
L 289.611935 132.263126 
L 291.589591 134.376458 
L 293.463616 136.57496 
L 295.229804 138.853789 
L 296.884184 141.207919 
L 298.42303 143.632157 
L 299.842869 146.121149 
L 301.140491 148.669394 
L 302.312951 151.271258 
L 303.357581 153.920981 
L 304.271995 156.612697 
L 305.054092 159.340438 
L 305.702065 162.098157 
L 306.214401 164.879731 
L 306.589889 167.678984 
L 306.827618 170.489694 
L 306.926985 173.305608 
L 306.887692 176.12046 
L 306.70975 178.927979 
L 306.393476 181.721907 
L 305.939497 184.496012 
L 305.348746 187.2441 
L 304.622459 189.960032 
L 303.762178 192.637735 
L 302.769741 195.271217 
L 301.647282 197.854581 
L 300.397229 200.382037 
L 299.022291 202.847913 
L 297.525462 205.246674 
L 295.910006 207.57293 
L 294.179456 209.821446 
L 292.337603 211.98716 
L 290.388489 214.06519 
L 288.336397 216.050847 
L 286.185845 217.939645 
L 283.94157 219.72731 
L 281.608524 221.409793 
L 279.19186 222.983276 
L 276.69692 224.444183 
L 274.129223 225.789187 
L 271.494456 227.015218 
L 268.798458 228.11947 
L 266.047207 229.099408 
L 263.246809 229.952773 
L 260.403482 230.677588 
L 257.523545 231.272162 
L 254.613399 231.735094 
L 251.679518 232.065278 
L 248.728431 232.261903 
L 245.766708 232.324456 
L 242.800947 232.252726 
L 239.837757 232.046799 
L 236.883743 231.707061 
L 233.945494 231.234202 
L 231.029563 230.629203 
L 228.142459 229.893346 
L 225.290627 229.028204 
L 222.480435 228.03564 
L 219.718161 226.917801 
L 217.009976 225.677115 
L 214.361935 224.316287 
L 211.779957 222.83829 
L 209.269816 221.246357 
L 206.837128 219.543981 
L 204.487336 217.734898 
L 202.2257 215.823085 
L 200.057285 213.81275 
L 197.986946 211.708319 
L 196.019324 209.514432 
L 194.158829 207.235926 
L 192.409634 204.87783 
L 190.775664 202.44535 
L 189.260587 199.943859 
L 187.867809 197.378883 
L 186.600463 194.756093 
L 185.461401 192.081287 
L 184.453193 189.36038 
L 183.578115 186.599391 
L 182.83815 183.804427 
L 182.23498 180.981674 
L 181.76998 178.137378 
L 181.444223 175.277834 
L 181.258468 172.409373 
L 181.213166 169.538343 
L 181.308457 166.671103 
L 181.544165 163.813999 
L 181.919806 160.973359 
L 182.434584 158.155474 
L 183.087396 155.366584 
L 183.876829 152.612867 
L 184.801172 149.900422 
L 185.858412 147.235258 
L 187.046242 144.62328 
L 188.362065 142.070277 
L 189.803002 139.581906 
L 191.365896 137.163684 
L 193.047318 134.820971 
L 194.843579 132.558963 
L 196.750735 130.382677 
L 198.764594 128.296942 
L 200.880731 126.306389 
L 203.09449 124.415436 
L 205.401003 122.628285 
L 207.795193 120.948908 
L 210.271789 119.381042 
L 212.825336 117.928177 
L 215.450211 116.593549 
L 218.140629 115.380135 
L 220.890658 114.290647 
L 223.694237 113.327522 
L 226.545182 112.49292 
L 229.437202 111.788718 
L 232.363915 111.216506 
L 235.318859 110.777583 
L 238.29551 110.472955 
L 241.287289 110.303333 
L 244.287587 110.269128 
L 247.289767 110.370457 
L 250.287191 110.607133 
L 253.273225 110.978673 
L 256.241258 111.484298 
L 259.184715 112.12293 
L 262.097074 112.893198 
L 264.971876 113.793441 
L 267.802743 114.821709 
L 270.58339 115.97577 
L 273.30764 117.253111 
L 275.969435 118.650948 
L 278.562854 120.166228 
L 281.082122 121.795638 
L 283.521624 123.535609 
L 285.87592 125.382328 
L 288.139751 127.331743 
L 290.308057 129.379572 
L 292.375987 131.521313 
L 294.338905 133.752253 
L 296.192408 136.067481 
L 297.932329 138.461893 
L 299.55475 140.930208 
L 301.056011 143.466978 
L 302.432718 146.066599 
L 303.681749 148.723324 
L 304.800263 151.431276 
L 305.785706 154.184459 
L 306.635818 156.976774 
L 307.348636 159.802028 
L 307.9225 162.653955 
L 308.356057 165.52622 
L 308.648267 168.412441 
L 308.798398 171.306201 
L 308.806037 174.201059 
L 308.671085 177.090569 
L 308.393761 179.968289 
L 307.974599 182.827803 
L 307.414451 185.662725 
L 306.714482 188.466724 
L 305.876167 191.233531 
L 304.901293 193.956954 
L 303.791951 196.630894 
L 302.550532 199.249359 
L 301.179726 201.806474 
L 299.682509 204.296499 
L 298.062143 206.713836 
L 296.322168 209.053048 
L 294.466392 211.308868 
L 292.498882 213.47621 
L 290.42396 215.550183 
L 288.246189 217.5261 
L 285.970366 219.399493 
L 283.601507 221.166116 
L 281.144843 222.821961 
L 278.6058 224.363263 
L 275.989994 225.786514 
L 273.303217 227.088465 
L 270.551419 228.266136 
L 267.740702 229.316824 
L 264.877303 230.238108 
L 261.967577 231.027856 
L 259.017989 231.684227 
L 256.035095 232.205678 
L 253.02553 232.590969 
L 249.99599 232.83916 
L 246.95322 232.94962 
L 243.903997 232.922025 
L 240.855117 232.756359 
L 237.813375 232.452916 
L 234.785554 232.012296 
L 231.778411 231.435409 
L 228.798656 230.723466 
L 228.798656 230.723466 
" clip-path="url(#pc7e0411506)" style="fill: none; stroke: #ff7f0e; stroke-width: 1.5; stroke-linecap: square"/>
   </g>
   <g id="text_21">
    <!-- Trajectory with: 40seconds, 30pieces, PID -->
    <g transform="translate(111.259688 35.472) scale(0.12 -0.12)">
     <defs>
      <path id="DejaVuSans-54" d="M -19 4666 
L 3928 4666 
L 3928 4134 
L 2272 4134 
L 2272 0 
L 1638 0 
L 1638 4134 
L -19 4134 
L -19 4666 
z
" transform="scale(0.015625)"/>
      <path id="DejaVuSans-72" d="M 2631 2963 
Q 2534 3019 2420 3045 
Q 2306 3072 2169 3072 
Q 1681 3072 1420 2755 
Q 1159 2438 1159 1844 
L 1159 0 
L 581 0 
L 581 3500 
L 1159 3500 
L 1159 2956 
Q 1341 3275 1631 3429 
Q 1922 3584 2338 3584 
Q 2397 3584 2469 3576 
Q 2541 3569 2628 3553 
L 2631 2963 
z
" transform="scale(0.015625)"/>
      <path id="DejaVuSans-61" d="M 2194 1759 
Q 1497 1759 1228 1600 
Q 959 1441 959 1056 
Q 959 750 1161 570 
Q 1363 391 1709 391 
Q 2188 391 2477 730 
Q 2766 1069 2766 1631 
L 2766 1759 
L 2194 1759 
z
M 3341 1997 
L 3341 0 
L 2766 0 
L 2766 531 
Q 2569 213 2275 61 
Q 1981 -91 1556 -91 
Q 1019 -91 701 211 
Q 384 513 384 1019 
Q 384 1609 779 1909 
Q 1175 2209 1959 2209 
L 2766 2209 
L 2766 2266 
Q 2766 2663 2505 2880 
Q 2244 3097 1772 3097 
Q 1472 3097 1187 3025 
Q 903 2953 641 2809 
L 641 3341 
Q 956 3463 1253 3523 
Q 1550 3584 1831 3584 
Q 2591 3584 2966 3190 
Q 3341 2797 3341 1997 
z
" transform="scale(0.015625)"/>
      <path id="DejaVuSans-6a" d="M 603 3500 
L 1178 3500 
L 1178 -63 
Q 1178 -731 923 -1031 
Q 669 -1331 103 -1331 
L -116 -1331 
L -116 -844 
L 38 -844 
Q 366 -844 484 -692 
Q 603 -541 603 -63 
L 603 3500 
z
M 603 4863 
L 1178 4863 
L 1178 4134 
L 603 4134 
L 603 4863 
z
" transform="scale(0.015625)"/>
      <path id="DejaVuSans-65" d="M 3597 1894 
L 3597 1613 
L 953 1613 
Q 991 1019 1311 708 
Q 1631 397 2203 397 
Q 2534 397 2845 478 
Q 3156 559 3463 722 
L 3463 178 
Q 3153 47 2828 -22 
Q 2503 -91 2169 -91 
Q 1331 -91 842 396 
Q 353 884 353 1716 
Q 353 2575 817 3079 
Q 1281 3584 2069 3584 
Q 2775 3584 3186 3129 
Q 3597 2675 3597 1894 
z
M 3022 2063 
Q 3016 2534 2758 2815 
Q 2500 3097 2075 3097 
Q 1594 3097 1305 2825 
Q 1016 2553 972 2059 
L 3022 2063 
z
" transform="scale(0.015625)"/>
      <path id="DejaVuSans-63" d="M 3122 3366 
L 3122 2828 
Q 2878 2963 2633 3030 
Q 2388 3097 2138 3097 
Q 1578 3097 1268 2742 
Q 959 2388 959 1747 
Q 959 1106 1268 751 
Q 1578 397 2138 397 
Q 2388 397 2633 464 
Q 2878 531 3122 666 
L 3122 134 
Q 2881 22 2623 -34 
Q 2366 -91 2075 -91 
Q 1284 -91 818 406 
Q 353 903 353 1747 
Q 353 2603 823 3093 
Q 1294 3584 2113 3584 
Q 2378 3584 2631 3529 
Q 2884 3475 3122 3366 
z
" transform="scale(0.015625)"/>
      <path id="DejaVuSans-74" d="M 1172 4494 
L 1172 3500 
L 2356 3500 
L 2356 3053 
L 1172 3053 
L 1172 1153 
Q 1172 725 1289 603 
Q 1406 481 1766 481 
L 2356 481 
L 2356 0 
L 1766 0 
Q 1100 0 847 248 
Q 594 497 594 1153 
L 594 3053 
L 172 3053 
L 172 3500 
L 594 3500 
L 594 4494 
L 1172 4494 
z
" transform="scale(0.015625)"/>
      <path id="DejaVuSans-6f" d="M 1959 3097 
Q 1497 3097 1228 2736 
Q 959 2375 959 1747 
Q 959 1119 1226 758 
Q 1494 397 1959 397 
Q 2419 397 2687 759 
Q 2956 1122 2956 1747 
Q 2956 2369 2687 2733 
Q 2419 3097 1959 3097 
z
M 1959 3584 
Q 2709 3584 3137 3096 
Q 3566 2609 3566 1747 
Q 3566 888 3137 398 
Q 2709 -91 1959 -91 
Q 1206 -91 779 398 
Q 353 888 353 1747 
Q 353 2609 779 3096 
Q 1206 3584 1959 3584 
z
" transform="scale(0.015625)"/>
      <path id="DejaVuSans-79" d="M 2059 -325 
Q 1816 -950 1584 -1140 
Q 1353 -1331 966 -1331 
L 506 -1331 
L 506 -850 
L 844 -850 
Q 1081 -850 1212 -737 
Q 1344 -625 1503 -206 
L 1606 56 
L 191 3500 
L 800 3500 
L 1894 763 
L 2988 3500 
L 3597 3500 
L 2059 -325 
z
" transform="scale(0.015625)"/>
      <path id="DejaVuSans-20" transform="scale(0.015625)"/>
      <path id="DejaVuSans-77" d="M 269 3500 
L 844 3500 
L 1563 769 
L 2278 3500 
L 2956 3500 
L 3675 769 
L 4391 3500 
L 4966 3500 
L 4050 0 
L 3372 0 
L 2619 2869 
L 1863 0 
L 1184 0 
L 269 3500 
z
" transform="scale(0.015625)"/>
      <path id="DejaVuSans-69" d="M 603 3500 
L 1178 3500 
L 1178 0 
L 603 0 
L 603 3500 
z
M 603 4863 
L 1178 4863 
L 1178 4134 
L 603 4134 
L 603 4863 
z
" transform="scale(0.015625)"/>
      <path id="DejaVuSans-68" d="M 3513 2113 
L 3513 0 
L 2938 0 
L 2938 2094 
Q 2938 2591 2744 2837 
Q 2550 3084 2163 3084 
Q 1697 3084 1428 2787 
Q 1159 2491 1159 1978 
L 1159 0 
L 581 0 
L 581 4863 
L 1159 4863 
L 1159 2956 
Q 1366 3272 1645 3428 
Q 1925 3584 2291 3584 
Q 2894 3584 3203 3211 
Q 3513 2838 3513 2113 
z
" transform="scale(0.015625)"/>
      <path id="DejaVuSans-3a" d="M 750 794 
L 1409 794 
L 1409 0 
L 750 0 
L 750 794 
z
M 750 3309 
L 1409 3309 
L 1409 2516 
L 750 2516 
L 750 3309 
z
" transform="scale(0.015625)"/>
      <path id="DejaVuSans-73" d="M 2834 3397 
L 2834 2853 
Q 2591 2978 2328 3040 
Q 2066 3103 1784 3103 
Q 1356 3103 1142 2972 
Q 928 2841 928 2578 
Q 928 2378 1081 2264 
Q 1234 2150 1697 2047 
L 1894 2003 
Q 2506 1872 2764 1633 
Q 3022 1394 3022 966 
Q 3022 478 2636 193 
Q 2250 -91 1575 -91 
Q 1294 -91 989 -36 
Q 684 19 347 128 
L 347 722 
Q 666 556 975 473 
Q 1284 391 1588 391 
Q 1994 391 2212 530 
Q 2431 669 2431 922 
Q 2431 1156 2273 1281 
Q 2116 1406 1581 1522 
L 1381 1569 
Q 847 1681 609 1914 
Q 372 2147 372 2553 
Q 372 3047 722 3315 
Q 1072 3584 1716 3584 
Q 2034 3584 2315 3537 
Q 2597 3491 2834 3397 
z
" transform="scale(0.015625)"/>
      <path id="DejaVuSans-6e" d="M 3513 2113 
L 3513 0 
L 2938 0 
L 2938 2094 
Q 2938 2591 2744 2837 
Q 2550 3084 2163 3084 
Q 1697 3084 1428 2787 
Q 1159 2491 1159 1978 
L 1159 0 
L 581 0 
L 581 3500 
L 1159 3500 
L 1159 2956 
Q 1366 3272 1645 3428 
Q 1925 3584 2291 3584 
Q 2894 3584 3203 3211 
Q 3513 2838 3513 2113 
z
" transform="scale(0.015625)"/>
      <path id="DejaVuSans-64" d="M 2906 2969 
L 2906 4863 
L 3481 4863 
L 3481 0 
L 2906 0 
L 2906 525 
Q 2725 213 2448 61 
Q 2172 -91 1784 -91 
Q 1150 -91 751 415 
Q 353 922 353 1747 
Q 353 2572 751 3078 
Q 1150 3584 1784 3584 
Q 2172 3584 2448 3432 
Q 2725 3281 2906 2969 
z
M 947 1747 
Q 947 1113 1208 752 
Q 1469 391 1925 391 
Q 2381 391 2643 752 
Q 2906 1113 2906 1747 
Q 2906 2381 2643 2742 
Q 2381 3103 1925 3103 
Q 1469 3103 1208 2742 
Q 947 2381 947 1747 
z
" transform="scale(0.015625)"/>
      <path id="DejaVuSans-2c" d="M 750 794 
L 1409 794 
L 1409 256 
L 897 -744 
L 494 -744 
L 750 256 
L 750 794 
z
" transform="scale(0.015625)"/>
      <path id="DejaVuSans-33" d="M 2597 2516 
Q 3050 2419 3304 2112 
Q 3559 1806 3559 1356 
Q 3559 666 3084 287 
Q 2609 -91 1734 -91 
Q 1441 -91 1130 -33 
Q 819 25 488 141 
L 488 750 
Q 750 597 1062 519 
Q 1375 441 1716 441 
Q 2309 441 2620 675 
Q 2931 909 2931 1356 
Q 2931 1769 2642 2001 
Q 2353 2234 1838 2234 
L 1294 2234 
L 1294 2753 
L 1863 2753 
Q 2328 2753 2575 2939 
Q 2822 3125 2822 3475 
Q 2822 3834 2567 4026 
Q 2313 4219 1838 4219 
Q 1578 4219 1281 4162 
Q 984 4106 628 3988 
L 628 4550 
Q 988 4650 1302 4700 
Q 1616 4750 1894 4750 
Q 2613 4750 3031 4423 
Q 3450 4097 3450 3541 
Q 3450 3153 3228 2886 
Q 3006 2619 2597 2516 
z
" transform="scale(0.015625)"/>
      <path id="DejaVuSans-70" d="M 1159 525 
L 1159 -1331 
L 581 -1331 
L 581 3500 
L 1159 3500 
L 1159 2969 
Q 1341 3281 1617 3432 
Q 1894 3584 2278 3584 
Q 2916 3584 3314 3078 
Q 3713 2572 3713 1747 
Q 3713 922 3314 415 
Q 2916 -91 2278 -91 
Q 1894 -91 1617 61 
Q 1341 213 1159 525 
z
M 3116 1747 
Q 3116 2381 2855 2742 
Q 2594 3103 2138 3103 
Q 1681 3103 1420 2742 
Q 1159 2381 1159 1747 
Q 1159 1113 1420 752 
Q 1681 391 2138 391 
Q 2594 391 2855 752 
Q 3116 1113 3116 1747 
z
" transform="scale(0.015625)"/>
      <path id="DejaVuSans-50" d="M 1259 4147 
L 1259 2394 
L 2053 2394 
Q 2494 2394 2734 2622 
Q 2975 2850 2975 3272 
Q 2975 3691 2734 3919 
Q 2494 4147 2053 4147 
L 1259 4147 
z
M 628 4666 
L 2053 4666 
Q 2838 4666 3239 4311 
Q 3641 3956 3641 3272 
Q 3641 2581 3239 2228 
Q 2838 1875 2053 1875 
L 1259 1875 
L 1259 0 
L 628 0 
L 628 4666 
z
" transform="scale(0.015625)"/>
      <path id="DejaVuSans-49" d="M 628 4666 
L 1259 4666 
L 1259 0 
L 628 0 
L 628 4666 
z
" transform="scale(0.015625)"/>
      <path id="DejaVuSans-44" d="M 1259 4147 
L 1259 519 
L 2022 519 
Q 2988 519 3436 956 
Q 3884 1394 3884 2338 
Q 3884 3275 3436 3711 
Q 2988 4147 2022 4147 
L 1259 4147 
z
M 628 4666 
L 1925 4666 
Q 3281 4666 3915 4102 
Q 4550 3538 4550 2338 
Q 4550 1131 3912 565 
Q 3275 0 1925 0 
L 628 0 
L 628 4666 
z
" transform="scale(0.015625)"/>
     </defs>
     <use xlink:href="#DejaVuSans-54"/>
     <use xlink:href="#DejaVuSans-72" x="46.333984"/>
     <use xlink:href="#DejaVuSans-61" x="87.447266"/>
     <use xlink:href="#DejaVuSans-6a" x="148.726562"/>
     <use xlink:href="#DejaVuSans-65" x="176.509766"/>
     <use xlink:href="#DejaVuSans-63" x="238.033203"/>
     <use xlink:href="#DejaVuSans-74" x="293.013672"/>
     <use xlink:href="#DejaVuSans-6f" x="332.222656"/>
     <use xlink:href="#DejaVuSans-72" x="393.404297"/>
     <use xlink:href="#DejaVuSans-79" x="434.517578"/>
     <use xlink:href="#DejaVuSans-20" x="493.697266"/>
     <use xlink:href="#DejaVuSans-77" x="525.484375"/>
     <use xlink:href="#DejaVuSans-69" x="607.271484"/>
     <use xlink:href="#DejaVuSans-74" x="635.054688"/>
     <use xlink:href="#DejaVuSans-68" x="674.263672"/>
     <use xlink:href="#DejaVuSans-3a" x="737.642578"/>
     <use xlink:href="#DejaVuSans-20" x="771.333984"/>
     <use xlink:href="#DejaVuSans-34" x="803.121094"/>
     <use xlink:href="#DejaVuSans-30" x="866.744141"/>
     <use xlink:href="#DejaVuSans-73" x="930.367188"/>
     <use xlink:href="#DejaVuSans-65" x="982.466797"/>
     <use xlink:href="#DejaVuSans-63" x="1043.990234"/>
     <use xlink:href="#DejaVuSans-6f" x="1098.970703"/>
     <use xlink:href="#DejaVuSans-6e" x="1160.152344"/>
     <use xlink:href="#DejaVuSans-64" x="1223.53125"/>
     <use xlink:href="#DejaVuSans-73" x="1287.007812"/>
     <use xlink:href="#DejaVuSans-2c" x="1339.107422"/>
     <use xlink:href="#DejaVuSans-20" x="1370.894531"/>
     <use xlink:href="#DejaVuSans-33" x="1402.681641"/>
     <use xlink:href="#DejaVuSans-30" x="1466.304688"/>
     <use xlink:href="#DejaVuSans-70" x="1529.927734"/>
     <use xlink:href="#DejaVuSans-69" x="1593.404297"/>
     <use xlink:href="#DejaVuSans-65" x="1621.1875"/>
     <use xlink:href="#DejaVuSans-63" x="1682.710938"/>
     <use xlink:href="#DejaVuSans-65" x="1737.691406"/>
     <use xlink:href="#DejaVuSans-73" x="1799.214844"/>
     <use xlink:href="#DejaVuSans-2c" x="1851.314453"/>
     <use xlink:href="#DejaVuSans-20" x="1883.101562"/>
     <use xlink:href="#DejaVuSans-50" x="1914.888672"/>
     <use xlink:href="#DejaVuSans-49" x="1975.191406"/>
     <use xlink:href="#DejaVuSans-44" x="2004.683594"/>
    </g>
   </g>
   <g id="legend_1">
    <g id="patch_6">
     <path d="M 211.183187 78.82825 
L 362.216 78.82825 
Q 364.216 78.82825 364.216 76.82825 
L 364.216 48.472 
Q 364.216 46.472 362.216 46.472 
L 211.183187 46.472 
Q 209.183187 46.472 209.183187 48.472 
L 209.183187 76.82825 
Q 209.183187 78.82825 211.183187 78.82825 
z
" style="fill: #ffffff; opacity: 0.8; stroke: #cccccc; stroke-linejoin: miter"/>
    </g>
    <g id="line2d_26">
     <path d="M 213.183187 54.570437 
L 223.183187 54.570437 
L 233.183187 54.570437 
" style="fill: none; stroke: #1f77b4; stroke-width: 1.5; stroke-linecap: square"/>
    </g>
    <g id="text_22">
     <!-- 3D input trajectory -->
     <g transform="translate(241.183187 58.070437) scale(0.1 -0.1)">
      <defs>
       <path id="DejaVuSans-75" d="M 544 1381 
L 544 3500 
L 1119 3500 
L 1119 1403 
Q 1119 906 1312 657 
Q 1506 409 1894 409 
Q 2359 409 2629 706 
Q 2900 1003 2900 1516 
L 2900 3500 
L 3475 3500 
L 3475 0 
L 2900 0 
L 2900 538 
Q 2691 219 2414 64 
Q 2138 -91 1772 -91 
Q 1169 -91 856 284 
Q 544 659 544 1381 
z
M 1991 3584 
L 1991 3584 
z
" transform="scale(0.015625)"/>
      </defs>
      <use xlink:href="#DejaVuSans-33"/>
      <use xlink:href="#DejaVuSans-44" x="63.623047"/>
      <use xlink:href="#DejaVuSans-20" x="140.625"/>
      <use xlink:href="#DejaVuSans-69" x="172.412109"/>
      <use xlink:href="#DejaVuSans-6e" x="200.195312"/>
      <use xlink:href="#DejaVuSans-70" x="263.574219"/>
      <use xlink:href="#DejaVuSans-75" x="327.050781"/>
      <use xlink:href="#DejaVuSans-74" x="390.429688"/>
      <use xlink:href="#DejaVuSans-20" x="429.638672"/>
      <use xlink:href="#DejaVuSans-74" x="461.425781"/>
      <use xlink:href="#DejaVuSans-72" x="500.634766"/>
      <use xlink:href="#DejaVuSans-61" x="541.748047"/>
      <use xlink:href="#DejaVuSans-6a" x="603.027344"/>
      <use xlink:href="#DejaVuSans-65" x="630.810547"/>
      <use xlink:href="#DejaVuSans-63" x="692.333984"/>
      <use xlink:href="#DejaVuSans-74" x="747.314453"/>
      <use xlink:href="#DejaVuSans-6f" x="786.523438"/>
      <use xlink:href="#DejaVuSans-72" x="847.705078"/>
      <use xlink:href="#DejaVuSans-79" x="888.818359"/>
     </g>
    </g>
    <g id="line2d_27">
     <path d="M 213.183187 69.248562 
L 223.183187 69.248562 
L 233.183187 69.248562 
" style="fill: none; stroke: #ff7f0e; stroke-width: 1.5; stroke-linecap: square"/>
    </g>
    <g id="text_23">
     <!-- 3D measured trajectory -->
     <g transform="translate(241.183187 72.748562) scale(0.1 -0.1)">
      <defs>
       <path id="DejaVuSans-6d" d="M 3328 2828 
Q 3544 3216 3844 3400 
Q 4144 3584 4550 3584 
Q 5097 3584 5394 3201 
Q 5691 2819 5691 2113 
L 5691 0 
L 5113 0 
L 5113 2094 
Q 5113 2597 4934 2840 
Q 4756 3084 4391 3084 
Q 3944 3084 3684 2787 
Q 3425 2491 3425 1978 
L 3425 0 
L 2847 0 
L 2847 2094 
Q 2847 2600 2669 2842 
Q 2491 3084 2119 3084 
Q 1678 3084 1418 2786 
Q 1159 2488 1159 1978 
L 1159 0 
L 581 0 
L 581 3500 
L 1159 3500 
L 1159 2956 
Q 1356 3278 1631 3431 
Q 1906 3584 2284 3584 
Q 2666 3584 2933 3390 
Q 3200 3197 3328 2828 
z
" transform="scale(0.015625)"/>
      </defs>
      <use xlink:href="#DejaVuSans-33"/>
      <use xlink:href="#DejaVuSans-44" x="63.623047"/>
      <use xlink:href="#DejaVuSans-20" x="140.625"/>
      <use xlink:href="#DejaVuSans-6d" x="172.412109"/>
      <use xlink:href="#DejaVuSans-65" x="269.824219"/>
      <use xlink:href="#DejaVuSans-61" x="331.347656"/>
      <use xlink:href="#DejaVuSans-73" x="392.626953"/>
      <use xlink:href="#DejaVuSans-75" x="444.726562"/>
      <use xlink:href="#DejaVuSans-72" x="508.105469"/>
      <use xlink:href="#DejaVuSans-65" x="546.96875"/>
      <use xlink:href="#DejaVuSans-64" x="608.492188"/>
      <use xlink:href="#DejaVuSans-20" x="671.96875"/>
      <use xlink:href="#DejaVuSans-74" x="703.755859"/>
      <use xlink:href="#DejaVuSans-72" x="742.964844"/>
      <use xlink:href="#DejaVuSans-61" x="784.078125"/>
      <use xlink:href="#DejaVuSans-6a" x="845.357422"/>
      <use xlink:href="#DejaVuSans-65" x="873.140625"/>
      <use xlink:href="#DejaVuSans-63" x="934.664062"/>
      <use xlink:href="#DejaVuSans-74" x="989.644531"/>
      <use xlink:href="#DejaVuSans-6f" x="1028.853516"/>
      <use xlink:href="#DejaVuSans-72" x="1090.035156"/>
      <use xlink:href="#DejaVuSans-79" x="1131.148438"/>
     </g>
    </g>
   </g>
  </g>
 </g>
 <defs>
  <clipPath id="pc7e0411506">
   <rect x="103.104" y="41.472" width="266.112" height="266.112"/>
  </clipPath>
 </defs>
</svg>
