<?xml version="1.0" encoding="utf-8" standalone="no"?>
<!DOCTYPE svg PUBLIC "-//W3C//DTD SVG 1.1//EN"
  "http://www.w3.org/Graphics/SVG/1.1/DTD/svg11.dtd">
<svg xmlns:xlink="http://www.w3.org/1999/xlink" width="460.8pt" height="345.6pt" viewBox="0 0 460.8 345.6" xmlns="http://www.w3.org/2000/svg" version="1.1">
 <metadata>
  <rdf:RDF xmlns:dc="http://purl.org/dc/elements/1.1/" xmlns:cc="http://creativecommons.org/ns#" xmlns:rdf="http://www.w3.org/1999/02/22-rdf-syntax-ns#">
   <cc:Work>
    <dc:type rdf:resource="http://purl.org/dc/dcmitype/StillImage"/>
    <dc:date>2024-02-09T17:21:37.279358</dc:date>
    <dc:format>image/svg+xml</dc:format>
    <dc:creator>
     <cc:Agent>
      <dc:title>Matplotlib v3.8.2, https://matplotlib.org/</dc:title>
     </cc:Agent>
    </dc:creator>
   </cc:Work>
  </rdf:RDF>
 </metadata>
 <defs>
  <style type="text/css">*{stroke-linejoin: round; stroke-linecap: butt}</style>
 </defs>
 <g id="figure_1">
  <g id="patch_1">
   <path d="M 0 345.6 
L 460.8 345.6 
L 460.8 0 
L 0 0 
z
" style="fill: #ffffff"/>
  </g>
  <g id="patch_2">
   <path d="M 103.104 307.584 
L 369.216 307.584 
L 369.216 41.472 
L 103.104 41.472 
z
" style="fill: #ffffff"/>
  </g>
  <g id="pane3d_1">
   <g id="patch_3">
    <path d="M 342.403806 182.539 
L 190.358803 148.610502 
L 187.50168 53.900512 
L 348.510462 87.142786 
" style="fill: #f2f2f2; opacity: 0.5; stroke: #f2f2f2; stroke-linejoin: miter"/>
   </g>
  </g>
  <g id="pane3d_2">
   <g id="patch_4">
    <path d="M 131.401126 254.413304 
L 190.358803 148.610502 
L 187.50168 53.900512 
L 124.573941 157.907422 
" style="fill: #e6e6e6; opacity: 0.5; stroke: #e6e6e6; stroke-linejoin: miter"/>
   </g>
  </g>
  <g id="pane3d_3">
   <g id="patch_5">
    <path d="M 294.873657 294.375646 
L 342.403806 182.539 
L 190.358803 148.610502 
L 131.401126 254.413304 
" style="fill: #ececec; opacity: 0.5; stroke: #ececec; stroke-linejoin: miter"/>
   </g>
  </g>
  <g id="grid3d_1">
   <g id="Line3DCollection_1">
    <path d="M 301.264746 279.337657 
L 139.313254 240.214555 
L 133.054548 143.890683 
" style="fill: none; stroke: #b0b0b0; stroke-width: 0.8"/>
    <path d="M 308.708342 261.823155 
L 148.534461 223.66659 
L 142.924279 127.578001 
" style="fill: none; stroke: #b0b0b0; stroke-width: 0.8"/>
    <path d="M 315.966621 244.744698 
L 157.532402 207.519288 
L 152.540533 111.684264 
" style="fill: none; stroke: #b0b0b0; stroke-width: 0.8"/>
    <path d="M 323.046418 228.086203 
L 166.31509 191.758271 
L 161.912953 96.193537 
" style="fill: none; stroke: #b0b0b0; stroke-width: 0.8"/>
    <path d="M 329.954237 211.832367 
L 174.890155 176.369843 
L 171.050696 81.090685 
" style="fill: none; stroke: #b0b0b0; stroke-width: 0.8"/>
    <path d="M 336.696268 195.968623 
L 183.264876 161.340944 
L 179.962466 66.361318 
" style="fill: none; stroke: #b0b0b0; stroke-width: 0.8"/>
   </g>
  </g>
  <g id="grid3d_2">
   <g id="Line3DCollection_2">
    <path d="M 326.055394 82.506657 
L 321.227325 177.813516 
L 272.061091 288.798908 
" style="fill: none; stroke: #b0b0b0; stroke-width: 0.8"/>
    <path d="M 305.332882 78.228236 
L 301.676574 173.45081 
L 251.01266 283.653428 
" style="fill: none; stroke: #b0b0b0; stroke-width: 0.8"/>
    <path d="M 284.758513 73.9804 
L 282.257824 169.11756 
L 230.118499 278.545661 
" style="fill: none; stroke: #b0b0b0; stroke-width: 0.8"/>
    <path d="M 264.330707 69.762825 
L 262.969742 164.813469 
L 209.376917 273.475193 
" style="fill: none; stroke: #b0b0b0; stroke-width: 0.8"/>
    <path d="M 244.047902 65.575186 
L 243.811015 160.538242 
L 188.78625 268.441618 
" style="fill: none; stroke: #b0b0b0; stroke-width: 0.8"/>
    <path d="M 223.908559 61.417167 
L 224.780346 156.291591 
L 168.344855 263.444534 
" style="fill: none; stroke: #b0b0b0; stroke-width: 0.8"/>
    <path d="M 203.911163 57.288455 
L 205.876454 152.073231 
L 148.051117 258.483545 
" style="fill: none; stroke: #b0b0b0; stroke-width: 0.8"/>
   </g>
  </g>
  <g id="grid3d_3">
   <g id="Line3DCollection_3">
    <path d="M 131.157664 250.97184 
L 190.256436 145.217172 
L 342.62227 179.12622 
" style="fill: none; stroke: #b0b0b0; stroke-width: 0.8"/>
    <path d="M 130.135062 236.516821 
L 189.826859 130.977229 
L 343.539311 164.800505 
" style="fill: none; stroke: #b0b0b0; stroke-width: 0.8"/>
    <path d="M 129.093019 221.786988 
L 189.38976 116.487963 
L 344.47285 150.217068 
" style="fill: none; stroke: #b0b0b0; stroke-width: 0.8"/>
    <path d="M 128.030975 206.774428 
L 188.944941 101.742769 
L 345.423335 135.368891 
" style="fill: none; stroke: #b0b0b0; stroke-width: 0.8"/>
    <path d="M 126.948348 191.470922 
L 188.492194 86.734804 
L 346.391233 120.248699 
" style="fill: none; stroke: #b0b0b0; stroke-width: 0.8"/>
    <path d="M 125.844534 175.867928 
L 188.031307 71.456981 
L 347.377026 104.848948 
" style="fill: none; stroke: #b0b0b0; stroke-width: 0.8"/>
    <path d="M 124.718905 159.95657 
L 187.562058 55.901957 
L 348.381216 89.161814 
" style="fill: none; stroke: #b0b0b0; stroke-width: 0.8"/>
   </g>
  </g>
  <g id="axis3d_1">
   <g id="line2d_1">
    <path d="M 342.403806 182.539 
L 294.873657 294.375646 
" style="fill: none; stroke: #000000; stroke-width: 0.8; stroke-linecap: square"/>
   </g>
   <g id="xtick_1">
    <g id="line2d_2">
     <path d="M 299.931906 279.015678 
L 303.93228 279.982061 
" style="fill: none; stroke: #000000; stroke-width: 0.8; stroke-linecap: square"/>
    </g>
    <g id="text_1">
     <!-- 1.0 -->
     <g transform="translate(306.796895 297.79351) scale(0.1 -0.1)">
      <defs>
       <path id="DejaVuSans-31" d="M 794 531 
L 1825 531 
L 1825 4091 
L 703 3866 
L 703 4441 
L 1819 4666 
L 2450 4666 
L 2450 531 
L 3481 531 
L 3481 0 
L 794 0 
L 794 531 
z
" transform="scale(0.015625)"/>
       <path id="DejaVuSans-2e" d="M 684 794 
L 1344 794 
L 1344 0 
L 684 0 
L 684 794 
z
" transform="scale(0.015625)"/>
       <path id="DejaVuSans-30" d="M 2034 4250 
Q 1547 4250 1301 3770 
Q 1056 3291 1056 2328 
Q 1056 1369 1301 889 
Q 1547 409 2034 409 
Q 2525 409 2770 889 
Q 3016 1369 3016 2328 
Q 3016 3291 2770 3770 
Q 2525 4250 2034 4250 
z
M 2034 4750 
Q 2819 4750 3233 4129 
Q 3647 3509 3647 2328 
Q 3647 1150 3233 529 
Q 2819 -91 2034 -91 
Q 1250 -91 836 529 
Q 422 1150 422 2328 
Q 422 3509 836 4129 
Q 1250 4750 2034 4750 
z
" transform="scale(0.015625)"/>
      </defs>
      <use xlink:href="#DejaVuSans-31"/>
      <use xlink:href="#DejaVuSans-2e" x="63.623047"/>
      <use xlink:href="#DejaVuSans-30" x="95.410156"/>
     </g>
    </g>
   </g>
   <g id="xtick_2">
    <g id="line2d_3">
     <path d="M 307.390596 261.509242 
L 311.345645 262.451412 
" style="fill: none; stroke: #000000; stroke-width: 0.8; stroke-linecap: square"/>
    </g>
    <g id="text_2">
     <!-- 1.2 -->
     <g transform="translate(314.051876 280.187417) scale(0.1 -0.1)">
      <defs>
       <path id="DejaVuSans-32" d="M 1228 531 
L 3431 531 
L 3431 0 
L 469 0 
L 469 531 
Q 828 903 1448 1529 
Q 2069 2156 2228 2338 
Q 2531 2678 2651 2914 
Q 2772 3150 2772 3378 
Q 2772 3750 2511 3984 
Q 2250 4219 1831 4219 
Q 1534 4219 1204 4116 
Q 875 4013 500 3803 
L 500 4441 
Q 881 4594 1212 4672 
Q 1544 4750 1819 4750 
Q 2544 4750 2975 4387 
Q 3406 4025 3406 3419 
Q 3406 3131 3298 2873 
Q 3191 2616 2906 2266 
Q 2828 2175 2409 1742 
Q 1991 1309 1228 531 
z
" transform="scale(0.015625)"/>
      </defs>
      <use xlink:href="#DejaVuSans-31"/>
      <use xlink:href="#DejaVuSans-2e" x="63.623047"/>
      <use xlink:href="#DejaVuSans-32" x="95.410156"/>
     </g>
    </g>
   </g>
   <g id="xtick_3">
    <g id="line2d_4">
     <path d="M 314.663635 244.438551 
L 318.574362 245.357408 
" style="fill: none; stroke: #000000; stroke-width: 0.8; stroke-linecap: square"/>
    </g>
    <g id="text_3">
     <!-- 1.4 -->
     <g transform="translate(321.126692 263.01854) scale(0.1 -0.1)">
      <defs>
       <path id="DejaVuSans-34" d="M 2419 4116 
L 825 1625 
L 2419 1625 
L 2419 4116 
z
M 2253 4666 
L 3047 4666 
L 3047 1625 
L 3713 1625 
L 3713 1100 
L 3047 1100 
L 3047 0 
L 2419 0 
L 2419 1100 
L 313 1100 
L 313 1709 
L 2253 4666 
z
" transform="scale(0.015625)"/>
      </defs>
      <use xlink:href="#DejaVuSans-31"/>
      <use xlink:href="#DejaVuSans-2e" x="63.623047"/>
      <use xlink:href="#DejaVuSans-34" x="95.410156"/>
     </g>
    </g>
   </g>
   <g id="xtick_4">
    <g id="line2d_5">
     <path d="M 321.757868 227.787537 
L 325.625245 228.683936 
" style="fill: none; stroke: #000000; stroke-width: 0.8; stroke-linecap: square"/>
    </g>
    <g id="text_4">
     <!-- 1.6 -->
     <g transform="translate(328.027973 246.270792) scale(0.1 -0.1)">
      <defs>
       <path id="DejaVuSans-36" d="M 2113 2584 
Q 1688 2584 1439 2293 
Q 1191 2003 1191 1497 
Q 1191 994 1439 701 
Q 1688 409 2113 409 
Q 2538 409 2786 701 
Q 3034 994 3034 1497 
Q 3034 2003 2786 2293 
Q 2538 2584 2113 2584 
z
M 3366 4563 
L 3366 3988 
Q 3128 4100 2886 4159 
Q 2644 4219 2406 4219 
Q 1781 4219 1451 3797 
Q 1122 3375 1075 2522 
Q 1259 2794 1537 2939 
Q 1816 3084 2150 3084 
Q 2853 3084 3261 2657 
Q 3669 2231 3669 1497 
Q 3669 778 3244 343 
Q 2819 -91 2113 -91 
Q 1303 -91 875 529 
Q 447 1150 447 2328 
Q 447 3434 972 4092 
Q 1497 4750 2381 4750 
Q 2619 4750 2861 4703 
Q 3103 4656 3366 4563 
z
" transform="scale(0.015625)"/>
      </defs>
      <use xlink:href="#DejaVuSans-31"/>
      <use xlink:href="#DejaVuSans-2e" x="63.623047"/>
      <use xlink:href="#DejaVuSans-36" x="95.410156"/>
     </g>
    </g>
   </g>
   <g id="xtick_5">
    <g id="line2d_6">
     <path d="M 328.679811 211.540911 
L 332.504776 212.415665 
" style="fill: none; stroke: #000000; stroke-width: 0.8; stroke-linecap: square"/>
    </g>
    <g id="text_5">
     <!-- 1.8 -->
     <g transform="translate(334.762026 229.928866) scale(0.1 -0.1)">
      <defs>
       <path id="DejaVuSans-38" d="M 2034 2216 
Q 1584 2216 1326 1975 
Q 1069 1734 1069 1313 
Q 1069 891 1326 650 
Q 1584 409 2034 409 
Q 2484 409 2743 651 
Q 3003 894 3003 1313 
Q 3003 1734 2745 1975 
Q 2488 2216 2034 2216 
z
M 1403 2484 
Q 997 2584 770 2862 
Q 544 3141 544 3541 
Q 544 4100 942 4425 
Q 1341 4750 2034 4750 
Q 2731 4750 3128 4425 
Q 3525 4100 3525 3541 
Q 3525 3141 3298 2862 
Q 3072 2584 2669 2484 
Q 3125 2378 3379 2068 
Q 3634 1759 3634 1313 
Q 3634 634 3220 271 
Q 2806 -91 2034 -91 
Q 1263 -91 848 271 
Q 434 634 434 1313 
Q 434 1759 690 2068 
Q 947 2378 1403 2484 
z
M 1172 3481 
Q 1172 3119 1398 2916 
Q 1625 2713 2034 2713 
Q 2441 2713 2670 2916 
Q 2900 3119 2900 3481 
Q 2900 3844 2670 4047 
Q 2441 4250 2034 4250 
Q 1625 4250 1398 4047 
Q 1172 3844 1172 3481 
z
" transform="scale(0.015625)"/>
      </defs>
      <use xlink:href="#DejaVuSans-31"/>
      <use xlink:href="#DejaVuSans-2e" x="63.623047"/>
      <use xlink:href="#DejaVuSans-38" x="95.410156"/>
     </g>
    </g>
   </g>
   <g id="xtick_6">
    <g id="line2d_7">
     <path d="M 335.435663 195.684119 
L 339.219126 196.538002 
" style="fill: none; stroke: #000000; stroke-width: 0.8; stroke-linecap: square"/>
    </g>
    <g id="text_6">
     <!-- 2.0 -->
     <g transform="translate(341.334856 213.978188) scale(0.1 -0.1)">
      <use xlink:href="#DejaVuSans-32"/>
      <use xlink:href="#DejaVuSans-2e" x="63.623047"/>
      <use xlink:href="#DejaVuSans-30" x="95.410156"/>
     </g>
    </g>
   </g>
  </g>
  <g id="axis3d_2">
   <g id="line2d_8">
    <path d="M 131.401126 254.413304 
L 294.873657 294.375646 
" style="fill: none; stroke: #000000; stroke-width: 0.8; stroke-linecap: square"/>
   </g>
   <g id="xtick_7">
    <g id="line2d_9">
     <path d="M 272.488021 287.835179 
L 271.205464 290.730357 
" style="fill: none; stroke: #000000; stroke-width: 0.8; stroke-linecap: square"/>
    </g>
    <g id="text_7">
     <!-- 1.0 -->
     <g transform="translate(259.505964 313.985865) scale(0.1 -0.1)">
      <use xlink:href="#DejaVuSans-31"/>
      <use xlink:href="#DejaVuSans-2e" x="63.623047"/>
      <use xlink:href="#DejaVuSans-30" x="95.410156"/>
     </g>
    </g>
   </g>
   <g id="xtick_8">
    <g id="line2d_10">
     <path d="M 251.452467 282.696773 
L 250.131232 285.570686 
" style="fill: none; stroke: #000000; stroke-width: 0.8; stroke-linecap: square"/>
    </g>
    <g id="text_8">
     <!-- 1.2 -->
     <g transform="translate(238.430203 308.764728) scale(0.1 -0.1)">
      <use xlink:href="#DejaVuSans-31"/>
      <use xlink:href="#DejaVuSans-2e" x="63.623047"/>
      <use xlink:href="#DejaVuSans-32" x="95.410156"/>
     </g>
    </g>
   </g>
   <g id="xtick_9">
    <g id="line2d_11">
     <path d="M 230.570984 277.596002 
L 229.211669 280.448883 
" style="fill: none; stroke: #000000; stroke-width: 0.8; stroke-linecap: square"/>
    </g>
    <g id="text_9">
     <!-- 1.4 -->
     <g transform="translate(217.509236 303.581938) scale(0.1 -0.1)">
      <use xlink:href="#DejaVuSans-31"/>
      <use xlink:href="#DejaVuSans-2e" x="63.623047"/>
      <use xlink:href="#DejaVuSans-34" x="95.410156"/>
     </g>
    </g>
   </g>
   <g id="xtick_10">
    <g id="line2d_12">
     <path d="M 209.841883 272.532455 
L 208.44508 275.364533 
" style="fill: none; stroke: #000000; stroke-width: 0.8; stroke-linecap: square"/>
    </g>
    <g id="text_10">
     <!-- 1.6 -->
     <g transform="translate(196.741363 298.437074) scale(0.1 -0.1)">
      <use xlink:href="#DejaVuSans-31"/>
      <use xlink:href="#DejaVuSans-2e" x="63.623047"/>
      <use xlink:href="#DejaVuSans-36" x="95.410156"/>
     </g>
    </g>
   </g>
   <g id="xtick_11">
    <g id="line2d_13">
     <path d="M 189.263504 267.505724 
L 187.829793 270.317226 
" style="fill: none; stroke: #000000; stroke-width: 0.8; stroke-linecap: square"/>
    </g>
    <g id="text_11">
     <!-- 1.8 -->
     <g transform="translate(176.124911 293.329722) scale(0.1 -0.1)">
      <use xlink:href="#DejaVuSans-31"/>
      <use xlink:href="#DejaVuSans-2e" x="63.623047"/>
      <use xlink:href="#DejaVuSans-38" x="95.410156"/>
     </g>
    </g>
   </g>
   <g id="xtick_12">
    <g id="line2d_14">
     <path d="M 168.834208 262.51541 
L 167.36416 265.30656 
" style="fill: none; stroke: #000000; stroke-width: 0.8; stroke-linecap: square"/>
    </g>
    <g id="text_12">
     <!-- 2.0 -->
     <g transform="translate(155.658229 288.259472) scale(0.1 -0.1)">
      <use xlink:href="#DejaVuSans-32"/>
      <use xlink:href="#DejaVuSans-2e" x="63.623047"/>
      <use xlink:href="#DejaVuSans-30" x="95.410156"/>
     </g>
    </g>
   </g>
   <g id="xtick_13">
    <g id="line2d_15">
     <path d="M 148.552381 257.561119 
L 147.046558 260.332137 
" style="fill: none; stroke: #000000; stroke-width: 0.8; stroke-linecap: square"/>
    </g>
    <g id="text_13">
     <!-- 2.2 -->
     <g transform="translate(135.33969 283.225923) scale(0.1 -0.1)">
      <use xlink:href="#DejaVuSans-32"/>
      <use xlink:href="#DejaVuSans-2e" x="63.623047"/>
      <use xlink:href="#DejaVuSans-32" x="95.410156"/>
     </g>
    </g>
   </g>
  </g>
  <g id="axis3d_3">
   <g id="line2d_16">
    <path d="M 131.401126 254.413304 
L 124.573941 157.907422 
" style="fill: none; stroke: #000000; stroke-width: 0.8; stroke-linecap: square"/>
   </g>
   <g id="xtick_14">
    <g id="line2d_17">
     <path d="M 131.669938 250.055148 
L 130.131042 252.808934 
" style="fill: none; stroke: #000000; stroke-width: 0.8; stroke-linecap: square"/>
    </g>
    <g id="text_14">
     <!-- 0.2 -->
     <g transform="translate(104.596543 264.89292) scale(0.1 -0.1)">
      <use xlink:href="#DejaVuSans-30"/>
      <use xlink:href="#DejaVuSans-2e" x="63.623047"/>
      <use xlink:href="#DejaVuSans-32" x="95.410156"/>
     </g>
    </g>
   </g>
   <g id="xtick_15">
    <g id="line2d_18">
     <path d="M 130.652852 235.601331 
L 129.097367 238.351545 
" style="fill: none; stroke: #000000; stroke-width: 0.8; stroke-linecap: square"/>
    </g>
    <g id="text_15">
     <!-- 0.4 -->
     <g transform="translate(103.39309 250.429936) scale(0.1 -0.1)">
      <use xlink:href="#DejaVuSans-30"/>
      <use xlink:href="#DejaVuSans-2e" x="63.623047"/>
      <use xlink:href="#DejaVuSans-34" x="95.410156"/>
     </g>
    </g>
   </g>
   <g id="xtick_16">
    <g id="line2d_19">
     <path d="M 129.616442 220.87291 
L 128.044013 223.618917 
" style="fill: none; stroke: #000000; stroke-width: 0.8; stroke-linecap: square"/>
    </g>
    <g id="text_16">
     <!-- 0.6 -->
     <g transform="translate(102.166649 235.690684) scale(0.1 -0.1)">
      <use xlink:href="#DejaVuSans-30"/>
      <use xlink:href="#DejaVuSans-2e" x="63.623047"/>
      <use xlink:href="#DejaVuSans-36" x="95.410156"/>
     </g>
    </g>
   </g>
   <g id="xtick_17">
    <g id="line2d_20">
     <path d="M 128.560154 205.861985 
L 126.970412 208.603116 
" style="fill: none; stroke: #000000; stroke-width: 0.8; stroke-linecap: square"/>
    </g>
    <g id="text_17">
     <!-- 0.8 -->
     <g transform="translate(100.916556 220.667172) scale(0.1 -0.1)">
      <use xlink:href="#DejaVuSans-30"/>
      <use xlink:href="#DejaVuSans-2e" x="63.623047"/>
      <use xlink:href="#DejaVuSans-38" x="95.410156"/>
     </g>
    </g>
   </g>
   <g id="xtick_18">
    <g id="line2d_21">
     <path d="M 127.483408 190.560349 
L 125.875976 193.295898 
" style="fill: none; stroke: #000000; stroke-width: 0.8; stroke-linecap: square"/>
    </g>
    <g id="text_18">
     <!-- 1.0 -->
     <g transform="translate(99.642118 205.351096) scale(0.1 -0.1)">
      <use xlink:href="#DejaVuSans-31"/>
      <use xlink:href="#DejaVuSans-2e" x="63.623047"/>
      <use xlink:href="#DejaVuSans-30" x="95.410156"/>
     </g>
    </g>
   </g>
   <g id="xtick_19">
    <g id="line2d_22">
     <path d="M 126.385606 174.959474 
L 124.760092 177.688696 
" style="fill: none; stroke: #000000; stroke-width: 0.8; stroke-linecap: square"/>
    </g>
    <g id="text_19">
     <!-- 1.2 -->
     <g transform="translate(98.342618 189.733826) scale(0.1 -0.1)">
      <use xlink:href="#DejaVuSans-31"/>
      <use xlink:href="#DejaVuSans-2e" x="63.623047"/>
      <use xlink:href="#DejaVuSans-32" x="95.410156"/>
     </g>
    </g>
   </g>
   <g id="xtick_20">
    <g id="line2d_23">
     <path d="M 125.266123 159.050496 
L 123.622122 161.772605 
" style="fill: none; stroke: #000000; stroke-width: 0.8; stroke-linecap: square"/>
    </g>
    <g id="text_20">
     <!-- 1.4 -->
     <g transform="translate(97.017309 173.80639) scale(0.1 -0.1)">
      <use xlink:href="#DejaVuSans-31"/>
      <use xlink:href="#DejaVuSans-2e" x="63.623047"/>
      <use xlink:href="#DejaVuSans-34" x="95.410156"/>
     </g>
    </g>
   </g>
  </g>
  <g id="axes_1">
   <g id="line2d_24">
    <path d="M 218.769032 259.693824 
L 218.121183 259.720623 
L 218.460489 260.003113 
L 217.666952 259.327301 
L 215.872823 257.291751 
L 213.408098 255.134616 
L 210.109801 253.270246 
L 208.656278 250.79946 
L 206.023601 244.547827 
L 206.923371 242.026115 
L 208.263238 240.35057 
L 207.753273 239.784161 
L 206.040724 238.890869 
L 204.148985 238.800735 
L 198.907919 238.403546 
L 196.765908 237.261438 
L 195.841933 236.988175 
L 195.368174 235.471193 
L 194.078021 234.555043 
L 195.140083 233.044242 
L 195.585059 230.922284 
L 195.516261 224.897626 
L 195.817124 219.62662 
L 193.12205 216.042293 
L 191.721027 213.218285 
L 191.267576 209.141777 
L 191.156488 204.579808 
L 188.733273 199.553202 
L 183.668876 189.897406 
L 178.68245 182.486666 
L 173.457482 178.396969 
L 174.650775 179.809108 
L 178.306297 181.179713 
L 183.889802 182.514483 
L 190.67416 182.452065 
L 201.756813 179.493395 
L 206.328114 178.033777 
L 209.502215 176.592698 
L 211.195305 175.631978 
L 212.658379 175.227715 
L 214.124638 174.012604 
L 215.778438 172.81721 
L 218.317953 171.373641 
L 221.186974 169.574784 
L 223.019 168.875962 
L 224.163267 168.744399 
L 224.767265 167.944832 
L 225.041117 167.361688 
L 228.630597 166.696568 
L 230.403079 165.366035 
L 235.810665 165.591388 
L 238.652777 164.714338 
L 241.582113 164.134681 
L 244.797916 164.09214 
L 248.116527 163.723151 
L 251.934055 162.882041 
L 256.113256 162.837499 
L 260.200927 162.282724 
L 267.078125 161.700284 
L 271.781449 160.98095 
L 272.813415 160.495625 
L 276.964364 160.374605 
L 278.511638 160.554014 
L 280.42359 162.160158 
L 282.56965 162.23161 
L 283.730509 161.850464 
L 286.511937 161.123946 
L 288.828945 159.69394 
L 291.142852 158.449785 
L 293.408749 159.397539 
L 296.713565 161.002207 
L 300.503607 162.417247 
L 302.728066 165.294574 
L 303.535882 169.261979 
L 304.104566 173.425544 
L 303.60349 174.290193 
L 302.945353 176.922157 
L 302.885133 179.509306 
L 302.432787 179.907129 
L 302.953146 179.702796 
L 303.267467 184.574766 
L 304.451232 187.998951 
L 306.179458 192.338887 
L 306.903226 196.535834 
L 306.721961 199.188414 
L 306.945925 202.333656 
L 306.596769 204.864751 
L 303.995713 209.829551 
L 303.248029 212.863629 
L 302.242746 214.838088 
L 298.776124 217.187545 
L 297.469262 218.975449 
L 295.6209 220.50007 
L 293.670743 222.57588 
L 292.594035 226.547834 
L 290.753082 230.178484 
L 289.954946 233.608237 
L 287.730388 234.202559 
L 285.44565 235.029748 
L 282.159494 237.638437 
L 279.380399 237.555931 
L 276.765007 236.846067 
L 274.700649 234.231411 
L 271.991737 232.893799 
L 270.005683 233.02158 
L 268.198949 232.847997 
L 265.950362 233.834766 
L 262.850518 234.877829 
L 260.492068 235.397735 
L 256.857327 235.522982 
L 253.939128 237.031998 
L 250.331502 237.783826 
L 250.592555 239.126519 
L 248.373719 239.043472 
L 246.062127 238.38732 
L 246.115072 236.659742 
L 245.928935 234.875309 
L 241.490844 235.258937 
L 238.226889 236.138853 
L 235.902589 237.070832 
L 228.150906 239.356005 
L 222.96472 238.781956 
L 218.683565 236.240915 
L 214.690274 232.682145 
L 211.295704 231.052615 
L 208.013174 229.673158 
L 206.135698 226.228642 
L 203.21762 224.586361 
L 201.997128 222.392081 
L 199.245424 221.237197 
L 197.890492 218.79275 
L 196.559629 216.695607 
L 195.538796 215.501214 
L 195.293826 212.673821 
L 193.699226 211.412024 
L 192.299873 210.101249 
L 188.922484 208.630486 
L 187.838157 207.817629 
L 186.20864 206.304148 
L 183.933127 202.932401 
L 182.861335 199.756068 
L 181.31934 196.524544 
L 178.8277 187.858987 
L 178.641789 184.485079 
L 178.628052 177.650092 
L 179.435514 170.402679 
L 178.38493 165.536948 
L 185.585583 160.883304 
L 188.381002 159.961068 
L 190.869692 158.642931 
L 192.794765 158.202955 
L 194.376306 158.624079 
L 196.546142 157.449323 
L 197.859764 156.169226 
L 200.048285 155.558492 
L 202.686621 154.495007 
L 205.802194 152.195178 
L 207.736353 149.761212 
L 210.744412 148.445452 
L 211.479332 145.74457 
L 213.301173 144.016758 
L 215.219755 142.77267 
L 218.221297 141.077243 
L 219.191898 140.01931 
L 221.787709 138.436384 
L 224.222243 137.582388 
L 226.896731 137.115994 
L 229.209634 135.143305 
L 230.653915 135.436397 
L 233.298979 134.670966 
L 237.256123 134.291461 
L 240.574052 133.786218 
L 244.388087 132.105757 
L 247.410221 130.420917 
L 252.560943 126.471762 
L 255.542713 127.26003 
L 259.058799 128.06226 
L 262.11745 129.894072 
L 265.943819 130.46187 
L 269.313937 132.064617 
L 273.014969 132.570532 
L 274.50302 133.079383 
L 276.048906 133.847887 
L 277.577767 135.917356 
L 280.800992 138.222459 
L 283.23383 137.903796 
L 285.74281 135.675127 
L 287.85134 132.821521 
L 290.058559 129.486859 
L 292.301351 130.225401 
L 293.979175 133.262343 
L 296.156412 136.690294 
L 299.393319 137.879791 
L 302.804836 138.621043 
L 305.473023 137.530504 
L 306.689882 137.821251 
L 307.379491 141.233151 
L 308.665197 142.326874 
L 309.652148 144.445167 
L 310.806255 148.866989 
L 312.248925 151.913672 
L 312.487851 155.899632 
L 312.235448 159.582435 
L 310.424399 161.316111 
L 309.36583 163.999544 
L 308.096076 167.860884 
L 306.623831 171.269025 
L 306.31286 173.65921 
L 306.269541 175.870208 
L 305.645502 178.054841 
L 305.807376 180.242102 
L 304.346661 183.259656 
L 301.194332 185.239831 
L 298.345817 187.35972 
L 294.964067 189.470226 
L 294.20023 191.263572 
L 293.551545 194.010183 
L 293.865079 196.530685 
L 292.024987 199.364232 
L 290.304412 199.849505 
L 287.293839 199.613949 
L 285.236721 200.099406 
L 283.142666 199.950154 
L 282.22685 200.87676 
L 281.309202 200.551189 
L 279.464342 202.023832 
L 276.006921 202.528576 
L 272.106326 203.908705 
L 269.289746 206.956578 
L 267.089697 206.837792 
L 265.222718 206.425315 
L 264.047396 204.171649 
L 261.029243 203.500202 
L 255.610746 204.125954 
L 253.303186 206.321366 
L 251.627218 208.639481 
L 247.771619 210.193127 
L 245.65051 210.873977 
L 242.2616 210.43347 
L 232.983134 207.448146 
L 226.401554 204.121854 
L 217.900816 203.002271 
L 215.087967 201.266716 
L 211.910657 199.858306 
L 210.645412 197.56407 
L 208.808048 195.607055 
L 208.024383 193.377391 
L 207.271113 193.707374 
L 206.200517 193.030457 
L 204.554364 192.531206 
L 203.333314 188.58751 
L 200.471957 187.67308 
L 196.847323 186.782587 
L 193.901562 188.044924 
L 190.974368 189.73048 
L 186.120928 189.422991 
L 183.147162 187.272569 
L 181.010608 184.923198 
L 179.13846 181.28346 
L 179.127162 176.792535 
L 177.986806 174.02448 
L 178.62998 172.268754 
L 179.602703 170.147696 
L 180.754183 169.73092 
L 181.318988 165.683964 
L 179.949038 162.867802 
L 181.597268 157.805339 
L 183.772236 151.855437 
L 185.367035 146.230112 
L 188.21926 140.316895 
L 189.697386 135.358202 
L 193.758642 131.663658 
L 195.229966 128.530012 
L 196.110784 127.472514 
L 198.224276 125.658748 
L 201.3805 123.798434 
L 204.520143 122.640968 
L 207.248582 119.161272 
L 208.332063 118.106829 
L 208.781501 116.013354 
L 209.949556 113.700024 
L 211.366087 112.940169 
L 212.108715 111.708439 
L 213.827557 111.492757 
L 216.610902 110.075824 
L 218.753838 108.040235 
L 222.501744 106.270357 
L 224.654314 104.662618 
L 227.870916 103.409872 
L 230.101075 101.676632 
L 232.551215 101.392214 
L 235.482496 100.485512 
L 240.224338 100.27294 
L 245.437095 99.824768 
L 248.818077 99.156758 
L 250.916301 99.086215 
L 253.841242 99.406111 
L 256.310149 99.061218 
L 258.402506 99.918999 
L 260.388218 98.550605 
L 263.634005 98.186493 
L 266.132818 98.557284 
L 268.724927 99.296525 
L 271.711315 99.515348 
L 276.109928 101.694781 
L 278.381355 102.95953 
L 280.181373 105.808445 
L 284.44588 107.478773 
L 285.344135 107.01323 
L 287.369158 108.667237 
L 288.227184 108.053037 
L 289.5681 106.832554 
L 292.061306 105.673213 
L 292.234737 102.112395 
L 294.235731 98.830877 
L 295.536558 98.56458 
L 297.413309 99.567046 
L 299.854903 102.713936 
L 303.932326 105.14696 
L 309.122816 109.682884 
L 311.025505 112.062807 
L 310.67281 115.934255 
L 311.450629 118.099539 
L 311.070505 120.53986 
L 311.394039 122.745681 
L 312.266736 123.118397 
L 312.407106 126.733144 
L 311.338454 129.973435 
L 309.780496 133.270811 
L 310.718092 135.878501 
L 313.574289 136.609302 
L 316.276422 136.062434 
L 319.001353 136.477033 
L 317.965967 138.495013 
L 313.76459 141.938018 
L 309.530152 145.255843 
L 306.119205 148.732692 
L 303.235974 152.907234 
L 300.692149 154.848991 
L 297.702619 156.41784 
L 296.652338 157.481343 
L 294.273889 157.67237 
L 292.22391 158.158314 
L 288.021484 163.686385 
L 285.457749 165.924043 
L 282.639807 167.120752 
L 280.751887 168.79303 
L 278.641026 169.69269 
L 278.431374 167.50844 
L 275.768733 167.847175 
L 273.254633 167.786034 
L 270.585868 169.641534 
L 266.709128 170.868005 
L 264.810211 173.002484 
L 261.186355 172.967377 
L 259.514232 176.30534 
L 256.460174 177.162685 
L 257.397567 177.657941 
L 255.07589 176.954206 
L 250.79452 176.02733 
L 248.519454 175.178711 
L 243.621089 175.777916 
L 243.621089 175.777916 
" clip-path="url(#p793d734b53)" style="fill: none; stroke: #1f77b4; stroke-width: 1.5; stroke-linecap: square"/>
   </g>
   <g id="line2d_25">
    <path d="M 226.802086 257.913207 
L 222.049766 256.125395 
L 217.534931 253.970396 
L 213.300431 251.466285 
L 211.300824 250.08992 
L 209.385879 248.634617 
L 207.559974 247.103562 
L 205.827236 245.50012 
L 204.19153 243.82782 
L 202.656454 242.090344 
L 201.225331 240.291516 
L 199.901199 238.435287 
L 198.686812 236.525722 
L 197.58463 234.566991 
L 196.596824 232.563352 
L 195.725264 230.51914 
L 194.971528 228.438755 
L 194.336897 226.326646 
L 193.822356 224.187303 
L 193.4286 222.025241 
L 193.156031 219.84499 
L 193.004768 217.651082 
L 192.974648 215.448041 
L 193.065231 213.240373 
L 193.275806 211.032552 
L 193.605399 208.829012 
L 194.052779 206.634138 
L 194.616465 204.452256 
L 195.294734 202.287624 
L 196.085627 200.144425 
L 197.996338 195.938626 
L 200.328584 191.866518 
L 203.059161 187.958096 
L 206.161971 184.241513 
L 209.608311 180.742926 
L 213.367171 177.486368 
L 217.405514 174.493642 
L 221.688559 171.784238 
L 226.180055 169.375265 
L 230.842536 167.281402 
L 235.63758 165.514855 
L 240.526048 164.085332 
L 245.468322 163.000024 
L 250.424533 162.263589 
L 255.354785 161.87815 
L 260.219374 161.843286 
L 264.979011 162.156042 
L 269.595038 162.810929 
L 274.029656 163.799941 
L 278.246148 165.112568 
L 282.209113 166.735824 
L 285.884707 168.654277 
L 289.240889 170.850095 
L 292.247674 173.303104 
L 294.87739 175.990855 
L 296.0429 177.415145 
L 297.10495 178.88872 
L 298.060852 180.408179 
L 298.908111 181.969999 
L 299.644436 183.570541 
L 300.267745 185.206055 
L 300.776179 186.872685 
L 301.168101 188.566475 
L 301.442114 190.283377 
L 301.597057 192.019256 
L 301.632024 193.769898 
L 301.54636 195.53102 
L 301.339675 197.298274 
L 301.011845 199.067262 
L 300.563019 200.833539 
L 299.993625 202.592628 
L 299.304372 204.340026 
L 298.496253 206.071218 
L 297.57055 207.781686 
L 296.528835 209.466922 
L 295.372969 211.122439 
L 292.72768 214.326542 
L 289.655365 217.358977 
L 286.181251 220.18586 
L 282.334976 222.774843 
L 278.150371 225.095531 
L 273.665181 227.119876 
L 268.92071 228.822563 
L 263.961408 230.181369 
L 258.834389 231.177479 
L 253.588898 231.795769 
L 248.275735 232.025036 
L 242.946643 231.858165 
L 237.653674 231.292242 
L 232.448545 230.3286 
L 227.381998 228.972801 
L 222.503183 227.234547 
L 217.859059 225.127534 
L 213.493848 222.669246 
L 211.428783 221.31481 
L 209.448537 219.880693 
L 207.557657 218.370023 
L 205.760434 216.786105 
L 204.060897 215.132415 
L 202.462802 213.412585 
L 200.969624 211.63039 
L 199.584554 209.789736 
L 198.310488 207.89465 
L 197.150028 205.949263 
L 196.105475 203.957799 
L 195.178829 201.924563 
L 194.371788 199.853926 
L 193.685747 197.750313 
L 193.1218 195.618193 
L 192.680741 193.462061 
L 192.363069 191.286432 
L 192.168988 189.095826 
L 192.098414 186.894757 
L 192.15098 184.687721 
L 192.326041 182.479187 
L 192.622682 180.273588 
L 193.039723 178.075306 
L 193.575727 175.88867 
L 194.229009 173.71794 
L 194.997643 171.567305 
L 195.879469 169.44087 
L 196.872108 167.342652 
L 199.179232 163.246447 
L 201.895842 159.308789 
L 204.995781 155.557964 
L 208.450211 152.020281 
L 212.227904 148.719949 
L 216.295543 145.678971 
L 220.618004 142.917055 
L 225.158635 140.451554 
L 229.879518 138.29741 
L 234.741731 136.467117 
L 239.705595 134.970694 
L 244.730907 133.815665 
L 249.777178 133.007047 
L 254.803853 132.547344 
L 259.770539 132.436543 
L 264.63722 132.672118 
L 269.364482 133.249032 
L 273.913735 134.159753 
L 278.247442 135.394263 
L 282.329352 136.940086 
L 286.124743 138.782311 
L 289.600666 140.90364 
L 292.726208 143.284433 
L 295.472748 145.902779 
L 296.695641 147.293586 
L 297.814229 148.734578 
L 298.825698 150.222419 
L 299.727432 151.753648 
L 300.517016 153.324687 
L 301.192248 154.931848 
L 301.751143 156.57133 
L 302.191946 158.239234 
L 302.513137 159.931564 
L 302.713439 161.644237 
L 302.791827 163.373086 
L 302.747532 165.113871 
L 302.580051 166.862288 
L 302.289151 168.613974 
L 301.874876 170.364518 
L 301.33755 172.109473 
L 300.677785 173.844361 
L 299.896481 175.564688 
L 298.994832 177.265954 
L 297.974325 178.94366 
L 296.836745 180.593328 
L 295.584175 182.210503 
L 292.74387 185.329782 
L 289.475957 188.266909 
L 285.807602 190.988547 
L 281.770416 193.463024 
L 277.400224 195.660741 
L 272.736748 197.554568 
L 267.82323 199.120221 
L 262.70598 200.336611 
L 257.43387 201.186153 
L 252.057771 201.65503 
L 246.629945 201.733407 
L 241.203412 201.415579 
L 235.83129 200.700066 
L 230.566139 199.589633 
L 225.459306 198.09125 
L 220.560298 196.215982 
L 215.916183 193.978822 
L 213.703618 192.730237 
L 211.571048 191.398464 
L 209.523437 189.98637 
L 207.565504 188.497018 
L 205.701712 186.933655 
L 203.936258 185.299698 
L 202.273062 183.598722 
L 200.715761 181.834452 
L 199.2677 180.010746 
L 197.931925 178.131585 
L 196.711183 176.201058 
L 195.607914 174.223351 
L 194.62425 172.202733 
L 193.762016 170.143542 
L 193.022726 168.050175 
L 192.407585 165.927073 
L 191.917493 163.77871 
L 191.553046 161.609578 
L 191.314538 159.424179 
L 191.201969 157.227012 
L 191.215048 155.022561 
L 191.353197 152.815285 
L 191.615563 150.609607 
L 192.001018 148.409905 
L 192.508174 146.220503 
L 193.135383 144.045661 
L 193.880752 141.889567 
L 194.742149 139.756329 
L 195.717212 137.649968 
L 196.803358 135.57441 
L 199.297521 131.530902 
L 202.199924 127.6551 
L 205.482928 123.974426 
L 209.116282 120.514283 
L 213.067423 117.297946 
L 217.301771 114.346457 
L 221.783022 111.678558 
L 226.473418 109.310627 
L 231.33402 107.256637 
L 236.324962 105.528125 
L 241.405695 104.134167 
L 246.535229 103.081363 
L 251.672359 102.373829 
L 256.775894 102.013193 
L 261.804876 101.998596 
L 266.718805 102.32669 
L 271.477862 102.991649 
L 276.043131 103.985182 
L 280.376837 105.296543 
L 284.442577 106.912561 
L 288.205574 108.817664 
L 291.632924 110.993929 
L 294.693866 113.421126 
L 297.360044 116.076796 
L 298.536963 117.482702 
L 299.605789 118.936337 
L 300.56378 120.434311 
L 301.408396 121.97311 
L 302.137306 123.549109 
L 302.748402 125.158571 
L 303.239803 126.797658 
L 303.609865 128.462433 
L 303.857189 130.148866 
L 303.980628 131.852846 
L 303.979295 133.570182 
L 303.852571 135.296617 
L 303.600109 137.027833 
L 303.221842 138.759458 
L 302.717989 140.48708 
L 302.089059 142.206254 
L 301.335855 143.912514 
L 300.459478 145.601382 
L 299.46133 147.268379 
L 298.343114 148.909038 
L 297.106838 150.518915 
L 295.754812 152.093601 
L 292.714266 155.120019 
L 289.245964 157.954202 
L 285.379073 160.563436 
L 281.147246 162.916792 
L 276.588355 164.985536 
L 271.744154 166.743517 
L 266.65986 168.167542 
L 261.383678 169.237708 
L 255.96626 169.937703 
L 250.460107 170.255055 
L 244.918943 170.181322 
L 239.397046 169.712226 
L 233.948576 168.847723 
L 228.626896 167.592003 
L 226.029896 166.819889 
L 226.029896 166.819889 
" clip-path="url(#p793d734b53)" style="fill: none; stroke: #ff7f0e; stroke-width: 1.5; stroke-linecap: square"/>
   </g>
   <g id="text_21">
    <!-- Trajectory with: 40seconds, 30pieces, Mellinger -->
    <g transform="translate(93.628125 35.472) scale(0.12 -0.12)">
     <defs>
      <path id="DejaVuSans-54" d="M -19 4666 
L 3928 4666 
L 3928 4134 
L 2272 4134 
L 2272 0 
L 1638 0 
L 1638 4134 
L -19 4134 
L -19 4666 
z
" transform="scale(0.015625)"/>
      <path id="DejaVuSans-72" d="M 2631 2963 
Q 2534 3019 2420 3045 
Q 2306 3072 2169 3072 
Q 1681 3072 1420 2755 
Q 1159 2438 1159 1844 
L 1159 0 
L 581 0 
L 581 3500 
L 1159 3500 
L 1159 2956 
Q 1341 3275 1631 3429 
Q 1922 3584 2338 3584 
Q 2397 3584 2469 3576 
Q 2541 3569 2628 3553 
L 2631 2963 
z
" transform="scale(0.015625)"/>
      <path id="DejaVuSans-61" d="M 2194 1759 
Q 1497 1759 1228 1600 
Q 959 1441 959 1056 
Q 959 750 1161 570 
Q 1363 391 1709 391 
Q 2188 391 2477 730 
Q 2766 1069 2766 1631 
L 2766 1759 
L 2194 1759 
z
M 3341 1997 
L 3341 0 
L 2766 0 
L 2766 531 
Q 2569 213 2275 61 
Q 1981 -91 1556 -91 
Q 1019 -91 701 211 
Q 384 513 384 1019 
Q 384 1609 779 1909 
Q 1175 2209 1959 2209 
L 2766 2209 
L 2766 2266 
Q 2766 2663 2505 2880 
Q 2244 3097 1772 3097 
Q 1472 3097 1187 3025 
Q 903 2953 641 2809 
L 641 3341 
Q 956 3463 1253 3523 
Q 1550 3584 1831 3584 
Q 2591 3584 2966 3190 
Q 3341 2797 3341 1997 
z
" transform="scale(0.015625)"/>
      <path id="DejaVuSans-6a" d="M 603 3500 
L 1178 3500 
L 1178 -63 
Q 1178 -731 923 -1031 
Q 669 -1331 103 -1331 
L -116 -1331 
L -116 -844 
L 38 -844 
Q 366 -844 484 -692 
Q 603 -541 603 -63 
L 603 3500 
z
M 603 4863 
L 1178 4863 
L 1178 4134 
L 603 4134 
L 603 4863 
z
" transform="scale(0.015625)"/>
      <path id="DejaVuSans-65" d="M 3597 1894 
L 3597 1613 
L 953 1613 
Q 991 1019 1311 708 
Q 1631 397 2203 397 
Q 2534 397 2845 478 
Q 3156 559 3463 722 
L 3463 178 
Q 3153 47 2828 -22 
Q 2503 -91 2169 -91 
Q 1331 -91 842 396 
Q 353 884 353 1716 
Q 353 2575 817 3079 
Q 1281 3584 2069 3584 
Q 2775 3584 3186 3129 
Q 3597 2675 3597 1894 
z
M 3022 2063 
Q 3016 2534 2758 2815 
Q 2500 3097 2075 3097 
Q 1594 3097 1305 2825 
Q 1016 2553 972 2059 
L 3022 2063 
z
" transform="scale(0.015625)"/>
      <path id="DejaVuSans-63" d="M 3122 3366 
L 3122 2828 
Q 2878 2963 2633 3030 
Q 2388 3097 2138 3097 
Q 1578 3097 1268 2742 
Q 959 2388 959 1747 
Q 959 1106 1268 751 
Q 1578 397 2138 397 
Q 2388 397 2633 464 
Q 2878 531 3122 666 
L 3122 134 
Q 2881 22 2623 -34 
Q 2366 -91 2075 -91 
Q 1284 -91 818 406 
Q 353 903 353 1747 
Q 353 2603 823 3093 
Q 1294 3584 2113 3584 
Q 2378 3584 2631 3529 
Q 2884 3475 3122 3366 
z
" transform="scale(0.015625)"/>
      <path id="DejaVuSans-74" d="M 1172 4494 
L 1172 3500 
L 2356 3500 
L 2356 3053 
L 1172 3053 
L 1172 1153 
Q 1172 725 1289 603 
Q 1406 481 1766 481 
L 2356 481 
L 2356 0 
L 1766 0 
Q 1100 0 847 248 
Q 594 497 594 1153 
L 594 3053 
L 172 3053 
L 172 3500 
L 594 3500 
L 594 4494 
L 1172 4494 
z
" transform="scale(0.015625)"/>
      <path id="DejaVuSans-6f" d="M 1959 3097 
Q 1497 3097 1228 2736 
Q 959 2375 959 1747 
Q 959 1119 1226 758 
Q 1494 397 1959 397 
Q 2419 397 2687 759 
Q 2956 1122 2956 1747 
Q 2956 2369 2687 2733 
Q 2419 3097 1959 3097 
z
M 1959 3584 
Q 2709 3584 3137 3096 
Q 3566 2609 3566 1747 
Q 3566 888 3137 398 
Q 2709 -91 1959 -91 
Q 1206 -91 779 398 
Q 353 888 353 1747 
Q 353 2609 779 3096 
Q 1206 3584 1959 3584 
z
" transform="scale(0.015625)"/>
      <path id="DejaVuSans-79" d="M 2059 -325 
Q 1816 -950 1584 -1140 
Q 1353 -1331 966 -1331 
L 506 -1331 
L 506 -850 
L 844 -850 
Q 1081 -850 1212 -737 
Q 1344 -625 1503 -206 
L 1606 56 
L 191 3500 
L 800 3500 
L 1894 763 
L 2988 3500 
L 3597 3500 
L 2059 -325 
z
" transform="scale(0.015625)"/>
      <path id="DejaVuSans-20" transform="scale(0.015625)"/>
      <path id="DejaVuSans-77" d="M 269 3500 
L 844 3500 
L 1563 769 
L 2278 3500 
L 2956 3500 
L 3675 769 
L 4391 3500 
L 4966 3500 
L 4050 0 
L 3372 0 
L 2619 2869 
L 1863 0 
L 1184 0 
L 269 3500 
z
" transform="scale(0.015625)"/>
      <path id="DejaVuSans-69" d="M 603 3500 
L 1178 3500 
L 1178 0 
L 603 0 
L 603 3500 
z
M 603 4863 
L 1178 4863 
L 1178 4134 
L 603 4134 
L 603 4863 
z
" transform="scale(0.015625)"/>
      <path id="DejaVuSans-68" d="M 3513 2113 
L 3513 0 
L 2938 0 
L 2938 2094 
Q 2938 2591 2744 2837 
Q 2550 3084 2163 3084 
Q 1697 3084 1428 2787 
Q 1159 2491 1159 1978 
L 1159 0 
L 581 0 
L 581 4863 
L 1159 4863 
L 1159 2956 
Q 1366 3272 1645 3428 
Q 1925 3584 2291 3584 
Q 2894 3584 3203 3211 
Q 3513 2838 3513 2113 
z
" transform="scale(0.015625)"/>
      <path id="DejaVuSans-3a" d="M 750 794 
L 1409 794 
L 1409 0 
L 750 0 
L 750 794 
z
M 750 3309 
L 1409 3309 
L 1409 2516 
L 750 2516 
L 750 3309 
z
" transform="scale(0.015625)"/>
      <path id="DejaVuSans-73" d="M 2834 3397 
L 2834 2853 
Q 2591 2978 2328 3040 
Q 2066 3103 1784 3103 
Q 1356 3103 1142 2972 
Q 928 2841 928 2578 
Q 928 2378 1081 2264 
Q 1234 2150 1697 2047 
L 1894 2003 
Q 2506 1872 2764 1633 
Q 3022 1394 3022 966 
Q 3022 478 2636 193 
Q 2250 -91 1575 -91 
Q 1294 -91 989 -36 
Q 684 19 347 128 
L 347 722 
Q 666 556 975 473 
Q 1284 391 1588 391 
Q 1994 391 2212 530 
Q 2431 669 2431 922 
Q 2431 1156 2273 1281 
Q 2116 1406 1581 1522 
L 1381 1569 
Q 847 1681 609 1914 
Q 372 2147 372 2553 
Q 372 3047 722 3315 
Q 1072 3584 1716 3584 
Q 2034 3584 2315 3537 
Q 2597 3491 2834 3397 
z
" transform="scale(0.015625)"/>
      <path id="DejaVuSans-6e" d="M 3513 2113 
L 3513 0 
L 2938 0 
L 2938 2094 
Q 2938 2591 2744 2837 
Q 2550 3084 2163 3084 
Q 1697 3084 1428 2787 
Q 1159 2491 1159 1978 
L 1159 0 
L 581 0 
L 581 3500 
L 1159 3500 
L 1159 2956 
Q 1366 3272 1645 3428 
Q 1925 3584 2291 3584 
Q 2894 3584 3203 3211 
Q 3513 2838 3513 2113 
z
" transform="scale(0.015625)"/>
      <path id="DejaVuSans-64" d="M 2906 2969 
L 2906 4863 
L 3481 4863 
L 3481 0 
L 2906 0 
L 2906 525 
Q 2725 213 2448 61 
Q 2172 -91 1784 -91 
Q 1150 -91 751 415 
Q 353 922 353 1747 
Q 353 2572 751 3078 
Q 1150 3584 1784 3584 
Q 2172 3584 2448 3432 
Q 2725 3281 2906 2969 
z
M 947 1747 
Q 947 1113 1208 752 
Q 1469 391 1925 391 
Q 2381 391 2643 752 
Q 2906 1113 2906 1747 
Q 2906 2381 2643 2742 
Q 2381 3103 1925 3103 
Q 1469 3103 1208 2742 
Q 947 2381 947 1747 
z
" transform="scale(0.015625)"/>
      <path id="DejaVuSans-2c" d="M 750 794 
L 1409 794 
L 1409 256 
L 897 -744 
L 494 -744 
L 750 256 
L 750 794 
z
" transform="scale(0.015625)"/>
      <path id="DejaVuSans-33" d="M 2597 2516 
Q 3050 2419 3304 2112 
Q 3559 1806 3559 1356 
Q 3559 666 3084 287 
Q 2609 -91 1734 -91 
Q 1441 -91 1130 -33 
Q 819 25 488 141 
L 488 750 
Q 750 597 1062 519 
Q 1375 441 1716 441 
Q 2309 441 2620 675 
Q 2931 909 2931 1356 
Q 2931 1769 2642 2001 
Q 2353 2234 1838 2234 
L 1294 2234 
L 1294 2753 
L 1863 2753 
Q 2328 2753 2575 2939 
Q 2822 3125 2822 3475 
Q 2822 3834 2567 4026 
Q 2313 4219 1838 4219 
Q 1578 4219 1281 4162 
Q 984 4106 628 3988 
L 628 4550 
Q 988 4650 1302 4700 
Q 1616 4750 1894 4750 
Q 2613 4750 3031 4423 
Q 3450 4097 3450 3541 
Q 3450 3153 3228 2886 
Q 3006 2619 2597 2516 
z
" transform="scale(0.015625)"/>
      <path id="DejaVuSans-70" d="M 1159 525 
L 1159 -1331 
L 581 -1331 
L 581 3500 
L 1159 3500 
L 1159 2969 
Q 1341 3281 1617 3432 
Q 1894 3584 2278 3584 
Q 2916 3584 3314 3078 
Q 3713 2572 3713 1747 
Q 3713 922 3314 415 
Q 2916 -91 2278 -91 
Q 1894 -91 1617 61 
Q 1341 213 1159 525 
z
M 3116 1747 
Q 3116 2381 2855 2742 
Q 2594 3103 2138 3103 
Q 1681 3103 1420 2742 
Q 1159 2381 1159 1747 
Q 1159 1113 1420 752 
Q 1681 391 2138 391 
Q 2594 391 2855 752 
Q 3116 1113 3116 1747 
z
" transform="scale(0.015625)"/>
      <path id="DejaVuSans-4d" d="M 628 4666 
L 1569 4666 
L 2759 1491 
L 3956 4666 
L 4897 4666 
L 4897 0 
L 4281 0 
L 4281 4097 
L 3078 897 
L 2444 897 
L 1241 4097 
L 1241 0 
L 628 0 
L 628 4666 
z
" transform="scale(0.015625)"/>
      <path id="DejaVuSans-6c" d="M 603 4863 
L 1178 4863 
L 1178 0 
L 603 0 
L 603 4863 
z
" transform="scale(0.015625)"/>
      <path id="DejaVuSans-67" d="M 2906 1791 
Q 2906 2416 2648 2759 
Q 2391 3103 1925 3103 
Q 1463 3103 1205 2759 
Q 947 2416 947 1791 
Q 947 1169 1205 825 
Q 1463 481 1925 481 
Q 2391 481 2648 825 
Q 2906 1169 2906 1791 
z
M 3481 434 
Q 3481 -459 3084 -895 
Q 2688 -1331 1869 -1331 
Q 1566 -1331 1297 -1286 
Q 1028 -1241 775 -1147 
L 775 -588 
Q 1028 -725 1275 -790 
Q 1522 -856 1778 -856 
Q 2344 -856 2625 -561 
Q 2906 -266 2906 331 
L 2906 616 
Q 2728 306 2450 153 
Q 2172 0 1784 0 
Q 1141 0 747 490 
Q 353 981 353 1791 
Q 353 2603 747 3093 
Q 1141 3584 1784 3584 
Q 2172 3584 2450 3431 
Q 2728 3278 2906 2969 
L 2906 3500 
L 3481 3500 
L 3481 434 
z
" transform="scale(0.015625)"/>
     </defs>
     <use xlink:href="#DejaVuSans-54"/>
     <use xlink:href="#DejaVuSans-72" x="46.333984"/>
     <use xlink:href="#DejaVuSans-61" x="87.447266"/>
     <use xlink:href="#DejaVuSans-6a" x="148.726562"/>
     <use xlink:href="#DejaVuSans-65" x="176.509766"/>
     <use xlink:href="#DejaVuSans-63" x="238.033203"/>
     <use xlink:href="#DejaVuSans-74" x="293.013672"/>
     <use xlink:href="#DejaVuSans-6f" x="332.222656"/>
     <use xlink:href="#DejaVuSans-72" x="393.404297"/>
     <use xlink:href="#DejaVuSans-79" x="434.517578"/>
     <use xlink:href="#DejaVuSans-20" x="493.697266"/>
     <use xlink:href="#DejaVuSans-77" x="525.484375"/>
     <use xlink:href="#DejaVuSans-69" x="607.271484"/>
     <use xlink:href="#DejaVuSans-74" x="635.054688"/>
     <use xlink:href="#DejaVuSans-68" x="674.263672"/>
     <use xlink:href="#DejaVuSans-3a" x="737.642578"/>
     <use xlink:href="#DejaVuSans-20" x="771.333984"/>
     <use xlink:href="#DejaVuSans-34" x="803.121094"/>
     <use xlink:href="#DejaVuSans-30" x="866.744141"/>
     <use xlink:href="#DejaVuSans-73" x="930.367188"/>
     <use xlink:href="#DejaVuSans-65" x="982.466797"/>
     <use xlink:href="#DejaVuSans-63" x="1043.990234"/>
     <use xlink:href="#DejaVuSans-6f" x="1098.970703"/>
     <use xlink:href="#DejaVuSans-6e" x="1160.152344"/>
     <use xlink:href="#DejaVuSans-64" x="1223.53125"/>
     <use xlink:href="#DejaVuSans-73" x="1287.007812"/>
     <use xlink:href="#DejaVuSans-2c" x="1339.107422"/>
     <use xlink:href="#DejaVuSans-20" x="1370.894531"/>
     <use xlink:href="#DejaVuSans-33" x="1402.681641"/>
     <use xlink:href="#DejaVuSans-30" x="1466.304688"/>
     <use xlink:href="#DejaVuSans-70" x="1529.927734"/>
     <use xlink:href="#DejaVuSans-69" x="1593.404297"/>
     <use xlink:href="#DejaVuSans-65" x="1621.1875"/>
     <use xlink:href="#DejaVuSans-63" x="1682.710938"/>
     <use xlink:href="#DejaVuSans-65" x="1737.691406"/>
     <use xlink:href="#DejaVuSans-73" x="1799.214844"/>
     <use xlink:href="#DejaVuSans-2c" x="1851.314453"/>
     <use xlink:href="#DejaVuSans-20" x="1883.101562"/>
     <use xlink:href="#DejaVuSans-4d" x="1914.888672"/>
     <use xlink:href="#DejaVuSans-65" x="2001.167969"/>
     <use xlink:href="#DejaVuSans-6c" x="2062.691406"/>
     <use xlink:href="#DejaVuSans-6c" x="2090.474609"/>
     <use xlink:href="#DejaVuSans-69" x="2118.257812"/>
     <use xlink:href="#DejaVuSans-6e" x="2146.041016"/>
     <use xlink:href="#DejaVuSans-67" x="2209.419922"/>
     <use xlink:href="#DejaVuSans-65" x="2272.896484"/>
     <use xlink:href="#DejaVuSans-72" x="2334.419922"/>
    </g>
   </g>
   <g id="legend_1">
    <g id="patch_6">
     <path d="M 211.183187 78.82825 
L 362.216 78.82825 
Q 364.216 78.82825 364.216 76.82825 
L 364.216 48.472 
Q 364.216 46.472 362.216 46.472 
L 211.183187 46.472 
Q 209.183187 46.472 209.183187 48.472 
L 209.183187 76.82825 
Q 209.183187 78.82825 211.183187 78.82825 
z
" style="fill: #ffffff; opacity: 0.8; stroke: #cccccc; stroke-linejoin: miter"/>
    </g>
    <g id="line2d_26">
     <path d="M 213.183187 54.570437 
L 223.183187 54.570437 
L 233.183187 54.570437 
" style="fill: none; stroke: #1f77b4; stroke-width: 1.5; stroke-linecap: square"/>
    </g>
    <g id="text_22">
     <!-- 3D input trajectory -->
     <g transform="translate(241.183187 58.070437) scale(0.1 -0.1)">
      <defs>
       <path id="DejaVuSans-44" d="M 1259 4147 
L 1259 519 
L 2022 519 
Q 2988 519 3436 956 
Q 3884 1394 3884 2338 
Q 3884 3275 3436 3711 
Q 2988 4147 2022 4147 
L 1259 4147 
z
M 628 4666 
L 1925 4666 
Q 3281 4666 3915 4102 
Q 4550 3538 4550 2338 
Q 4550 1131 3912 565 
Q 3275 0 1925 0 
L 628 0 
L 628 4666 
z
" transform="scale(0.015625)"/>
       <path id="DejaVuSans-75" d="M 544 1381 
L 544 3500 
L 1119 3500 
L 1119 1403 
Q 1119 906 1312 657 
Q 1506 409 1894 409 
Q 2359 409 2629 706 
Q 2900 1003 2900 1516 
L 2900 3500 
L 3475 3500 
L 3475 0 
L 2900 0 
L 2900 538 
Q 2691 219 2414 64 
Q 2138 -91 1772 -91 
Q 1169 -91 856 284 
Q 544 659 544 1381 
z
M 1991 3584 
L 1991 3584 
z
" transform="scale(0.015625)"/>
      </defs>
      <use xlink:href="#DejaVuSans-33"/>
      <use xlink:href="#DejaVuSans-44" x="63.623047"/>
      <use xlink:href="#DejaVuSans-20" x="140.625"/>
      <use xlink:href="#DejaVuSans-69" x="172.412109"/>
      <use xlink:href="#DejaVuSans-6e" x="200.195312"/>
      <use xlink:href="#DejaVuSans-70" x="263.574219"/>
      <use xlink:href="#DejaVuSans-75" x="327.050781"/>
      <use xlink:href="#DejaVuSans-74" x="390.429688"/>
      <use xlink:href="#DejaVuSans-20" x="429.638672"/>
      <use xlink:href="#DejaVuSans-74" x="461.425781"/>
      <use xlink:href="#DejaVuSans-72" x="500.634766"/>
      <use xlink:href="#DejaVuSans-61" x="541.748047"/>
      <use xlink:href="#DejaVuSans-6a" x="603.027344"/>
      <use xlink:href="#DejaVuSans-65" x="630.810547"/>
      <use xlink:href="#DejaVuSans-63" x="692.333984"/>
      <use xlink:href="#DejaVuSans-74" x="747.314453"/>
      <use xlink:href="#DejaVuSans-6f" x="786.523438"/>
      <use xlink:href="#DejaVuSans-72" x="847.705078"/>
      <use xlink:href="#DejaVuSans-79" x="888.818359"/>
     </g>
    </g>
    <g id="line2d_27">
     <path d="M 213.183187 69.248562 
L 223.183187 69.248562 
L 233.183187 69.248562 
" style="fill: none; stroke: #ff7f0e; stroke-width: 1.5; stroke-linecap: square"/>
    </g>
    <g id="text_23">
     <!-- 3D measured trajectory -->
     <g transform="translate(241.183187 72.748562) scale(0.1 -0.1)">
      <defs>
       <path id="DejaVuSans-6d" d="M 3328 2828 
Q 3544 3216 3844 3400 
Q 4144 3584 4550 3584 
Q 5097 3584 5394 3201 
Q 5691 2819 5691 2113 
L 5691 0 
L 5113 0 
L 5113 2094 
Q 5113 2597 4934 2840 
Q 4756 3084 4391 3084 
Q 3944 3084 3684 2787 
Q 3425 2491 3425 1978 
L 3425 0 
L 2847 0 
L 2847 2094 
Q 2847 2600 2669 2842 
Q 2491 3084 2119 3084 
Q 1678 3084 1418 2786 
Q 1159 2488 1159 1978 
L 1159 0 
L 581 0 
L 581 3500 
L 1159 3500 
L 1159 2956 
Q 1356 3278 1631 3431 
Q 1906 3584 2284 3584 
Q 2666 3584 2933 3390 
Q 3200 3197 3328 2828 
z
" transform="scale(0.015625)"/>
      </defs>
      <use xlink:href="#DejaVuSans-33"/>
      <use xlink:href="#DejaVuSans-44" x="63.623047"/>
      <use xlink:href="#DejaVuSans-20" x="140.625"/>
      <use xlink:href="#DejaVuSans-6d" x="172.412109"/>
      <use xlink:href="#DejaVuSans-65" x="269.824219"/>
      <use xlink:href="#DejaVuSans-61" x="331.347656"/>
      <use xlink:href="#DejaVuSans-73" x="392.626953"/>
      <use xlink:href="#DejaVuSans-75" x="444.726562"/>
      <use xlink:href="#DejaVuSans-72" x="508.105469"/>
      <use xlink:href="#DejaVuSans-65" x="546.96875"/>
      <use xlink:href="#DejaVuSans-64" x="608.492188"/>
      <use xlink:href="#DejaVuSans-20" x="671.96875"/>
      <use xlink:href="#DejaVuSans-74" x="703.755859"/>
      <use xlink:href="#DejaVuSans-72" x="742.964844"/>
      <use xlink:href="#DejaVuSans-61" x="784.078125"/>
      <use xlink:href="#DejaVuSans-6a" x="845.357422"/>
      <use xlink:href="#DejaVuSans-65" x="873.140625"/>
      <use xlink:href="#DejaVuSans-63" x="934.664062"/>
      <use xlink:href="#DejaVuSans-74" x="989.644531"/>
      <use xlink:href="#DejaVuSans-6f" x="1028.853516"/>
      <use xlink:href="#DejaVuSans-72" x="1090.035156"/>
      <use xlink:href="#DejaVuSans-79" x="1131.148438"/>
     </g>
    </g>
   </g>
  </g>
 </g>
 <defs>
  <clipPath id="p793d734b53">
   <rect x="103.104" y="41.472" width="266.112" height="266.112"/>
  </clipPath>
 </defs>
</svg>
