<?xml version="1.0" encoding="utf-8" standalone="no"?>
<!DOCTYPE svg PUBLIC "-//W3C//DTD SVG 1.1//EN"
  "http://www.w3.org/Graphics/SVG/1.1/DTD/svg11.dtd">
<svg xmlns:xlink="http://www.w3.org/1999/xlink" width="460.8pt" height="345.6pt" viewBox="0 0 460.8 345.6" xmlns="http://www.w3.org/2000/svg" version="1.1">
 <metadata>
  <rdf:RDF xmlns:dc="http://purl.org/dc/elements/1.1/" xmlns:cc="http://creativecommons.org/ns#" xmlns:rdf="http://www.w3.org/1999/02/22-rdf-syntax-ns#">
   <cc:Work>
    <dc:type rdf:resource="http://purl.org/dc/dcmitype/StillImage"/>
    <dc:date>2024-02-09T17:23:16.369729</dc:date>
    <dc:format>image/svg+xml</dc:format>
    <dc:creator>
     <cc:Agent>
      <dc:title>Matplotlib v3.8.2, https://matplotlib.org/</dc:title>
     </cc:Agent>
    </dc:creator>
   </cc:Work>
  </rdf:RDF>
 </metadata>
 <defs>
  <style type="text/css">*{stroke-linejoin: round; stroke-linecap: butt}</style>
 </defs>
 <g id="figure_1">
  <g id="patch_1">
   <path d="M 0 345.6 
L 460.8 345.6 
L 460.8 0 
L 0 0 
z
" style="fill: #ffffff"/>
  </g>
  <g id="patch_2">
   <path d="M 103.104 307.584 
L 369.216 307.584 
L 369.216 41.472 
L 103.104 41.472 
z
" style="fill: #ffffff"/>
  </g>
  <g id="pane3d_1">
   <g id="patch_3">
    <path d="M 351.134306 138.94893 
L 207.671609 59.668779 
L 204.673493 49.043365 
L 361.543036 135.731469 
" style="fill: #f2f2f2; opacity: 0.5; stroke: #f2f2f2; stroke-linejoin: miter"/>
   </g>
  </g>
  <g id="pane3d_2">
   <g id="patch_4">
    <path d="M 128.369462 203.126291 
L 207.671609 59.668779 
L 204.673493 49.043365 
L 117.959079 205.906688 
" style="fill: #e6e6e6; opacity: 0.5; stroke: #e6e6e6; stroke-linejoin: miter"/>
   </g>
  </g>
  <g id="pane3d_3">
   <g id="patch_5">
    <path d="M 271.849056 282.433333 
L 351.134306 138.94893 
L 207.671609 59.668779 
L 128.369462 203.126291 
" style="fill: #ececec; opacity: 0.5; stroke: #ececec; stroke-linejoin: miter"/>
   </g>
  </g>
  <g id="grid3d_1">
   <g id="Line3DCollection_1">
    <path d="M 283.185948 261.91669 
L 139.70877 182.613494 
L 130.358425 183.476707 
" style="fill: none; stroke: #b0b0b0; stroke-width: 0.8"/>
    <path d="M 293.689975 242.907301 
L 150.215036 163.607668 
L 141.846804 162.694634 
" style="fill: none; stroke: #b0b0b0; stroke-width: 0.8"/>
    <path d="M 304.193531 223.898766 
L 160.72083 144.602695 
L 153.334619 141.913581 
" style="fill: none; stroke: #b0b0b0; stroke-width: 0.8"/>
    <path d="M 314.696615 204.891085 
L 171.226152 125.598577 
L 164.821869 121.13355 
" style="fill: none; stroke: #b0b0b0; stroke-width: 0.8"/>
    <path d="M 325.199228 185.884259 
L 181.731003 106.595312 
L 176.308555 100.354539 
" style="fill: none; stroke: #b0b0b0; stroke-width: 0.8"/>
    <path d="M 335.701368 166.878286 
L 192.235381 87.592901 
L 187.794677 79.576549 
" style="fill: none; stroke: #b0b0b0; stroke-width: 0.8"/>
    <path d="M 346.203037 147.873166 
L 202.739288 68.591343 
L 199.280235 58.799579 
" style="fill: none; stroke: #b0b0b0; stroke-width: 0.8"/>
   </g>
  </g>
  <g id="grid3d_2">
   <g id="Line3DCollection_2">
    <path d="M 341.458878 124.632708 
L 332.76678 128.798694 
L 253.479365 272.279653 
" style="fill: none; stroke: #b0b0b0; stroke-width: 0.8"/>
    <path d="M 318.063208 111.703963 
L 311.37073 116.974839 
L 232.080796 260.451788 
" style="fill: none; stroke: #b0b0b0; stroke-width: 0.8"/>
    <path d="M 294.668252 98.775613 
L 289.975278 105.151315 
L 210.682824 248.624254 
" style="fill: none; stroke: #b0b0b0; stroke-width: 0.8"/>
    <path d="M 271.274012 85.847658 
L 268.580425 93.328122 
L 189.285451 236.797051 
" style="fill: none; stroke: #b0b0b0; stroke-width: 0.8"/>
    <path d="M 247.880486 72.920099 
L 247.186169 81.505259 
L 167.888676 224.970178 
" style="fill: none; stroke: #b0b0b0; stroke-width: 0.8"/>
    <path d="M 224.487675 59.992934 
L 225.792511 69.682726 
L 146.492499 213.143635 
" style="fill: none; stroke: #b0b0b0; stroke-width: 0.8"/>
   </g>
  </g>
  <g id="grid3d_3">
   <g id="Line3DCollection_3">
    <path d="M 128.148326 203.185352 
L 207.607922 59.443072 
L 351.355409 138.880585 
" style="fill: none; stroke: #b0b0b0; stroke-width: 0.8"/>
    <path d="M 126.602941 203.598092 
L 207.162857 57.865746 
L 352.900557 138.402961 
" style="fill: none; stroke: #b0b0b0; stroke-width: 0.8"/>
    <path d="M 125.014159 204.022423 
L 206.705295 56.244134 
L 354.489092 137.911926 
" style="fill: none; stroke: #b0b0b0; stroke-width: 0.8"/>
    <path d="M 123.380126 204.458839 
L 206.234704 54.576344 
L 356.122868 137.406907 
" style="fill: none; stroke: #b0b0b0; stroke-width: 0.8"/>
    <path d="M 121.69888 204.907865 
L 205.750518 52.860374 
L 357.803846 136.887297 
" style="fill: none; stroke: #b0b0b0; stroke-width: 0.8"/>
    <path d="M 119.968345 205.370055 
L 205.25214 51.094107 
L 359.534101 136.352455 
" style="fill: none; stroke: #b0b0b0; stroke-width: 0.8"/>
    <path d="M 118.186321 205.845996 
L 204.738936 49.275298 
L 361.315832 135.801701 
" style="fill: none; stroke: #b0b0b0; stroke-width: 0.8"/>
   </g>
  </g>
  <g id="axis3d_1">
   <g id="line2d_1">
    <path d="M 351.134306 138.94893 
L 271.849056 282.433333 
" style="fill: none; stroke: #000000; stroke-width: 0.8; stroke-linecap: square"/>
   </g>
   <g id="xtick_1">
    <g id="line2d_2">
     <path d="M 282.038024 261.282205 
L 285.481801 263.185662 
" style="fill: none; stroke: #000000; stroke-width: 0.8; stroke-linecap: square"/>
    </g>
    <g id="text_1">
     <!-- 1.0 -->
     <g transform="translate(286.750562 275.4259) scale(0.1 -0.1)">
      <defs>
       <path id="DejaVuSans-31" d="M 794 531 
L 1825 531 
L 1825 4091 
L 703 3866 
L 703 4441 
L 1819 4666 
L 2450 4666 
L 2450 531 
L 3481 531 
L 3481 0 
L 794 0 
L 794 531 
z
" transform="scale(0.015625)"/>
       <path id="DejaVuSans-2e" d="M 684 794 
L 1344 794 
L 1344 0 
L 684 0 
L 684 794 
z
" transform="scale(0.015625)"/>
       <path id="DejaVuSans-30" d="M 2034 4250 
Q 1547 4250 1301 3770 
Q 1056 3291 1056 2328 
Q 1056 1369 1301 889 
Q 1547 409 2034 409 
Q 2525 409 2770 889 
Q 3016 1369 3016 2328 
Q 3016 3291 2770 3770 
Q 2525 4250 2034 4250 
z
M 2034 4750 
Q 2819 4750 3233 4129 
Q 3647 3509 3647 2328 
Q 3647 1150 3233 529 
Q 2819 -91 2034 -91 
Q 1250 -91 836 529 
Q 422 1150 422 2328 
Q 422 3509 836 4129 
Q 1250 4750 2034 4750 
z
" transform="scale(0.015625)"/>
      </defs>
      <use xlink:href="#DejaVuSans-31"/>
      <use xlink:href="#DejaVuSans-2e" x="63.623047"/>
      <use xlink:href="#DejaVuSans-30" x="95.410156"/>
     </g>
    </g>
   </g>
   <g id="xtick_2">
    <g id="line2d_3">
     <path d="M 292.542069 242.272845 
L 295.985793 244.176216 
" style="fill: none; stroke: #000000; stroke-width: 0.8; stroke-linecap: square"/>
    </g>
    <g id="text_2">
     <!-- 1.2 -->
     <g transform="translate(297.180441 256.550104) scale(0.1 -0.1)">
      <defs>
       <path id="DejaVuSans-32" d="M 1228 531 
L 3431 531 
L 3431 0 
L 469 0 
L 469 531 
Q 828 903 1448 1529 
Q 2069 2156 2228 2338 
Q 2531 2678 2651 2914 
Q 2772 3150 2772 3378 
Q 2772 3750 2511 3984 
Q 2250 4219 1831 4219 
Q 1534 4219 1204 4116 
Q 875 4013 500 3803 
L 500 4441 
Q 881 4594 1212 4672 
Q 1544 4750 1819 4750 
Q 2544 4750 2975 4387 
Q 3406 4025 3406 3419 
Q 3406 3131 3298 2873 
Q 3191 2616 2906 2266 
Q 2828 2175 2409 1742 
Q 1991 1309 1228 531 
z
" transform="scale(0.015625)"/>
      </defs>
      <use xlink:href="#DejaVuSans-31"/>
      <use xlink:href="#DejaVuSans-2e" x="63.623047"/>
      <use xlink:href="#DejaVuSans-32" x="95.410156"/>
     </g>
    </g>
   </g>
   <g id="xtick_3">
    <g id="line2d_4">
     <path d="M 303.045643 223.264339 
L 306.489313 225.167624 
" style="fill: none; stroke: #000000; stroke-width: 0.8; stroke-linecap: square"/>
    </g>
    <g id="text_3">
     <!-- 1.4 -->
     <g transform="translate(307.609854 237.675149) scale(0.1 -0.1)">
      <defs>
       <path id="DejaVuSans-34" d="M 2419 4116 
L 825 1625 
L 2419 1625 
L 2419 4116 
z
M 2253 4666 
L 3047 4666 
L 3047 1625 
L 3713 1625 
L 3713 1100 
L 3047 1100 
L 3047 0 
L 2419 0 
L 2419 1100 
L 313 1100 
L 313 1709 
L 2253 4666 
z
" transform="scale(0.015625)"/>
      </defs>
      <use xlink:href="#DejaVuSans-31"/>
      <use xlink:href="#DejaVuSans-2e" x="63.623047"/>
      <use xlink:href="#DejaVuSans-34" x="95.410156"/>
     </g>
    </g>
   </g>
   <g id="xtick_4">
    <g id="line2d_5">
     <path d="M 313.548745 204.256686 
L 316.992361 206.159886 
" style="fill: none; stroke: #000000; stroke-width: 0.8; stroke-linecap: square"/>
    </g>
    <g id="text_4">
     <!-- 1.6 -->
     <g transform="translate(318.038802 218.801037) scale(0.1 -0.1)">
      <defs>
       <path id="DejaVuSans-36" d="M 2113 2584 
Q 1688 2584 1439 2293 
Q 1191 2003 1191 1497 
Q 1191 994 1439 701 
Q 1688 409 2113 409 
Q 2538 409 2786 701 
Q 3034 994 3034 1497 
Q 3034 2003 2786 2293 
Q 2538 2584 2113 2584 
z
M 3366 4563 
L 3366 3988 
Q 3128 4100 2886 4159 
Q 2644 4219 2406 4219 
Q 1781 4219 1451 3797 
Q 1122 3375 1075 2522 
Q 1259 2794 1537 2939 
Q 1816 3084 2150 3084 
Q 2853 3084 3261 2657 
Q 3669 2231 3669 1497 
Q 3669 778 3244 343 
Q 2819 -91 2113 -91 
Q 1303 -91 875 529 
Q 447 1150 447 2328 
Q 447 3434 972 4092 
Q 1497 4750 2381 4750 
Q 2619 4750 2861 4703 
Q 3103 4656 3366 4563 
z
" transform="scale(0.015625)"/>
      </defs>
      <use xlink:href="#DejaVuSans-31"/>
      <use xlink:href="#DejaVuSans-2e" x="63.623047"/>
      <use xlink:href="#DejaVuSans-36" x="95.410156"/>
     </g>
    </g>
   </g>
   <g id="xtick_5">
    <g id="line2d_6">
     <path d="M 324.051375 185.249888 
L 327.494938 187.153003 
" style="fill: none; stroke: #000000; stroke-width: 0.8; stroke-linecap: square"/>
    </g>
    <g id="text_5">
     <!-- 1.8 -->
     <g transform="translate(328.467285 199.927767) scale(0.1 -0.1)">
      <defs>
       <path id="DejaVuSans-38" d="M 2034 2216 
Q 1584 2216 1326 1975 
Q 1069 1734 1069 1313 
Q 1069 891 1326 650 
Q 1584 409 2034 409 
Q 2484 409 2743 651 
Q 3003 894 3003 1313 
Q 3003 1734 2745 1975 
Q 2488 2216 2034 2216 
z
M 1403 2484 
Q 997 2584 770 2862 
Q 544 3141 544 3541 
Q 544 4100 942 4425 
Q 1341 4750 2034 4750 
Q 2731 4750 3128 4425 
Q 3525 4100 3525 3541 
Q 3525 3141 3298 2862 
Q 3072 2584 2669 2484 
Q 3125 2378 3379 2068 
Q 3634 1759 3634 1313 
Q 3634 634 3220 271 
Q 2806 -91 2034 -91 
Q 1263 -91 848 271 
Q 434 634 434 1313 
Q 434 1759 690 2068 
Q 947 2378 1403 2484 
z
M 1172 3481 
Q 1172 3119 1398 2916 
Q 1625 2713 2034 2713 
Q 2441 2713 2670 2916 
Q 2900 3119 2900 3481 
Q 2900 3844 2670 4047 
Q 2441 4250 2034 4250 
Q 1625 4250 1398 4047 
Q 1172 3844 1172 3481 
z
" transform="scale(0.015625)"/>
      </defs>
      <use xlink:href="#DejaVuSans-31"/>
      <use xlink:href="#DejaVuSans-2e" x="63.623047"/>
      <use xlink:href="#DejaVuSans-38" x="95.410156"/>
     </g>
    </g>
   </g>
   <g id="xtick_6">
    <g id="line2d_7">
     <path d="M 334.553533 166.243944 
L 337.997042 168.146972 
" style="fill: none; stroke: #000000; stroke-width: 0.8; stroke-linecap: square"/>
    </g>
    <g id="text_6">
     <!-- 2.0 -->
     <g transform="translate(338.895303 181.055339) scale(0.1 -0.1)">
      <use xlink:href="#DejaVuSans-32"/>
      <use xlink:href="#DejaVuSans-2e" x="63.623047"/>
      <use xlink:href="#DejaVuSans-30" x="95.410156"/>
     </g>
    </g>
   </g>
   <g id="xtick_7">
    <g id="line2d_8">
     <path d="M 345.05522 147.238853 
L 348.498675 149.141796 
" style="fill: none; stroke: #000000; stroke-width: 0.8; stroke-linecap: square"/>
    </g>
    <g id="text_7">
     <!-- 2.2 -->
     <g transform="translate(349.322856 162.183753) scale(0.1 -0.1)">
      <use xlink:href="#DejaVuSans-32"/>
      <use xlink:href="#DejaVuSans-2e" x="63.623047"/>
      <use xlink:href="#DejaVuSans-32" x="95.410156"/>
     </g>
    </g>
   </g>
  </g>
  <g id="axis3d_2">
   <g id="line2d_9">
    <path d="M 128.369462 203.126291 
L 271.849056 282.433333 
" style="fill: none; stroke: #000000; stroke-width: 0.8; stroke-linecap: square"/>
   </g>
   <g id="xtick_8">
    <g id="line2d_10">
     <path d="M 254.113771 271.131612 
L 252.210548 274.575744 
" style="fill: none; stroke: #000000; stroke-width: 0.8; stroke-linecap: square"/>
    </g>
    <g id="text_8">
     <!-- 1.0 -->
     <g transform="translate(238.897605 291.004869) scale(0.1 -0.1)">
      <use xlink:href="#DejaVuSans-31"/>
      <use xlink:href="#DejaVuSans-2e" x="63.623047"/>
      <use xlink:href="#DejaVuSans-30" x="95.410156"/>
     </g>
    </g>
   </g>
   <g id="xtick_9">
    <g id="line2d_11">
     <path d="M 232.715222 259.30378 
L 230.811938 262.747815 
" style="fill: none; stroke: #000000; stroke-width: 0.8; stroke-linecap: square"/>
    </g>
    <g id="text_9">
     <!-- 1.2 -->
     <g transform="translate(217.649529 279.259983) scale(0.1 -0.1)">
      <use xlink:href="#DejaVuSans-31"/>
      <use xlink:href="#DejaVuSans-2e" x="63.623047"/>
      <use xlink:href="#DejaVuSans-32" x="95.410156"/>
     </g>
    </g>
   </g>
   <g id="xtick_10">
    <g id="line2d_12">
     <path d="M 211.317271 247.476278 
L 209.413926 250.920217 
" style="fill: none; stroke: #000000; stroke-width: 0.8; stroke-linecap: square"/>
    </g>
    <g id="text_10">
     <!-- 1.4 -->
     <g transform="translate(196.402043 267.515423) scale(0.1 -0.1)">
      <use xlink:href="#DejaVuSans-31"/>
      <use xlink:href="#DejaVuSans-2e" x="63.623047"/>
      <use xlink:href="#DejaVuSans-34" x="95.410156"/>
     </g>
    </g>
   </g>
   <g id="xtick_11">
    <g id="line2d_13">
     <path d="M 189.919918 235.649106 
L 188.016513 239.092949 
" style="fill: none; stroke: #000000; stroke-width: 0.8; stroke-linecap: square"/>
    </g>
    <g id="text_11">
     <!-- 1.6 -->
     <g transform="translate(175.155147 255.771189) scale(0.1 -0.1)">
      <use xlink:href="#DejaVuSans-31"/>
      <use xlink:href="#DejaVuSans-2e" x="63.623047"/>
      <use xlink:href="#DejaVuSans-36" x="95.410156"/>
     </g>
    </g>
   </g>
   <g id="xtick_12">
    <g id="line2d_14">
     <path d="M 168.523162 223.822265 
L 166.619697 227.266012 
" style="fill: none; stroke: #000000; stroke-width: 0.8; stroke-linecap: square"/>
    </g>
    <g id="text_12">
     <!-- 1.8 -->
     <g transform="translate(153.90884 244.02728) scale(0.1 -0.1)">
      <use xlink:href="#DejaVuSans-31"/>
      <use xlink:href="#DejaVuSans-2e" x="63.623047"/>
      <use xlink:href="#DejaVuSans-38" x="95.410156"/>
     </g>
    </g>
   </g>
   <g id="xtick_13">
    <g id="line2d_15">
     <path d="M 147.127005 211.995755 
L 145.22348 215.439405 
" style="fill: none; stroke: #000000; stroke-width: 0.8; stroke-linecap: square"/>
    </g>
    <g id="text_13">
     <!-- 2.0 -->
     <g transform="translate(132.663124 232.283698) scale(0.1 -0.1)">
      <use xlink:href="#DejaVuSans-32"/>
      <use xlink:href="#DejaVuSans-2e" x="63.623047"/>
      <use xlink:href="#DejaVuSans-30" x="95.410156"/>
     </g>
    </g>
   </g>
  </g>
  <g id="axis3d_3">
   <g id="line2d_16">
    <path d="M 128.369462 203.126291 
L 117.959079 205.906688 
" style="fill: none; stroke: #000000; stroke-width: 0.8; stroke-linecap: square"/>
   </g>
   <g id="xtick_14">
    <g id="line2d_17">
     <path d="M 128.78411 202.03522 
L 126.876753 205.485626 
" style="fill: none; stroke: #000000; stroke-width: 0.8; stroke-linecap: square"/>
    </g>
    <g id="text_14">
     <!-- 0.2 -->
     <g transform="translate(101.675171 216.119762) scale(0.1 -0.1)">
      <use xlink:href="#DejaVuSans-30"/>
      <use xlink:href="#DejaVuSans-2e" x="63.623047"/>
      <use xlink:href="#DejaVuSans-32" x="95.410156"/>
     </g>
    </g>
   </g>
   <g id="xtick_15">
    <g id="line2d_18">
     <path d="M 127.247531 202.432034 
L 125.313757 205.930218 
" style="fill: none; stroke: #000000; stroke-width: 0.8; stroke-linecap: square"/>
    </g>
    <g id="text_15">
     <!-- 0.4 -->
     <g transform="translate(99.873314 216.60639) scale(0.1 -0.1)">
      <use xlink:href="#DejaVuSans-30"/>
      <use xlink:href="#DejaVuSans-2e" x="63.623047"/>
      <use xlink:href="#DejaVuSans-34" x="95.410156"/>
     </g>
    </g>
   </g>
   <g id="xtick_16">
    <g id="line2d_19">
     <path d="M 125.667802 202.839992 
L 123.706869 206.387295 
" style="fill: none; stroke: #000000; stroke-width: 0.8; stroke-linecap: square"/>
    </g>
    <g id="text_16">
     <!-- 0.6 -->
     <g transform="translate(98.020858 217.106683) scale(0.1 -0.1)">
      <use xlink:href="#DejaVuSans-30"/>
      <use xlink:href="#DejaVuSans-2e" x="63.623047"/>
      <use xlink:href="#DejaVuSans-36" x="95.410156"/>
     </g>
    </g>
   </g>
   <g id="xtick_17">
    <g id="line2d_20">
     <path d="M 124.043079 203.259568 
L 122.054214 206.857391 
" style="fill: none; stroke: #000000; stroke-width: 0.8; stroke-linecap: square"/>
    </g>
    <g id="text_17">
     <!-- 0.8 -->
     <g transform="translate(96.11564 217.621226) scale(0.1 -0.1)">
      <use xlink:href="#DejaVuSans-30"/>
      <use xlink:href="#DejaVuSans-2e" x="63.623047"/>
      <use xlink:href="#DejaVuSans-38" x="95.410156"/>
     </g>
    </g>
   </g>
   <g id="xtick_18">
    <g id="line2d_21">
     <path d="M 122.371413 203.691268 
L 120.353808 207.341069 
" style="fill: none; stroke: #000000; stroke-width: 0.8; stroke-linecap: square"/>
    </g>
    <g id="text_18">
     <!-- 1.0 -->
     <g transform="translate(94.155373 218.150636) scale(0.1 -0.1)">
      <use xlink:href="#DejaVuSans-31"/>
      <use xlink:href="#DejaVuSans-2e" x="63.623047"/>
      <use xlink:href="#DejaVuSans-30" x="95.410156"/>
     </g>
    </g>
   </g>
   <g id="xtick_19">
    <g id="line2d_22">
     <path d="M 120.650739 204.135624 
L 118.603551 207.838927 
" style="fill: none; stroke: #000000; stroke-width: 0.8; stroke-linecap: square"/>
    </g>
    <g id="text_19">
     <!-- 1.2 -->
     <g transform="translate(92.137637 218.695566) scale(0.1 -0.1)">
      <use xlink:href="#DejaVuSans-31"/>
      <use xlink:href="#DejaVuSans-2e" x="63.623047"/>
      <use xlink:href="#DejaVuSans-32" x="95.410156"/>
     </g>
    </g>
   </g>
   <g id="xtick_20">
    <g id="line2d_23">
     <path d="M 118.878869 204.5932 
L 116.801219 208.351598 
" style="fill: none; stroke: #000000; stroke-width: 0.8; stroke-linecap: square"/>
    </g>
    <g id="text_20">
     <!-- 1.4 -->
     <g transform="translate(90.059867 219.25671) scale(0.1 -0.1)">
      <use xlink:href="#DejaVuSans-31"/>
      <use xlink:href="#DejaVuSans-2e" x="63.623047"/>
      <use xlink:href="#DejaVuSans-34" x="95.410156"/>
     </g>
    </g>
   </g>
  </g>
  <g id="axes_1">
   <g id="line2d_24">
    <path d="M 206.997765 222.12217 
L 206.314427 222.541394 
L 205.114927 220.7692 
L 204.500483 217.960975 
L 203.434773 215.344159 
L 202.704592 214.315861 
L 200.898389 212.405992 
L 199.775893 210.444198 
L 199.017313 208.180662 
L 195.552584 204.998656 
L 192.451925 200.34434 
L 188.733483 194.467595 
L 183.974246 188.503367 
L 182.169418 185.10223 
L 182.612389 181.386231 
L 181.647496 181.361128 
L 181.619638 185.261972 
L 180.761204 193.346089 
L 178.334488 195.683652 
L 176.588906 194.62841 
L 174.208825 190.073594 
L 173.883796 184.192261 
L 174.668053 168.051318 
L 175.201674 163.423747 
L 179.344469 156.817255 
L 179.137492 154.787664 
L 179.291094 153.993994 
L 178.292527 151.574208 
L 178.401623 147.515709 
L 178.345298 144.778201 
L 178.846226 140.195741 
L 180.401485 136.885268 
L 182.397499 133.923055 
L 185.595753 131.61084 
L 186.308429 129.963295 
L 187.649387 129.424923 
L 188.871961 127.954657 
L 189.978519 125.749849 
L 193.08812 122.87729 
L 195.598545 120.297936 
L 199.589208 119.014543 
L 201.147541 117.531407 
L 201.940773 115.885317 
L 205.607263 116.666562 
L 211.192364 116.405444 
L 212.936439 115.273372 
L 219.433953 114.074198 
L 222.619251 113.125742 
L 225.621618 112.518074 
L 228.320551 113.733493 
L 231.581025 114.587202 
L 238.965126 116.070228 
L 241.79902 118.186523 
L 245.47636 119.33001 
L 247.930435 119.502543 
L 255.507986 120.420171 
L 261.896946 122.439374 
L 267.231083 123.516086 
L 270.687956 125.849054 
L 274.344857 127.388614 
L 275.554498 127.694977 
L 275.782381 128.305131 
L 277.235688 129.308583 
L 280.271685 129.213552 
L 280.41568 131.249663 
L 283.091504 130.423853 
L 286.959487 133.677843 
L 288.968501 135.74326 
L 293.355432 135.94211 
L 294.049658 138.780269 
L 296.921391 143.554175 
L 298.359941 146.605347 
L 300.164867 148.111118 
L 299.697833 148.396371 
L 299.550222 149.774309 
L 297.385165 151.955875 
L 297.333158 154.076785 
L 298.558532 158.237672 
L 301.113268 159.374426 
L 301.134635 162.333394 
L 300.248004 165.084319 
L 300.583352 167.9326 
L 299.330676 171.104627 
L 299.424134 174.113644 
L 300.594456 177.104985 
L 301.521291 181.039847 
L 304.592981 186.448052 
L 304.743368 191.484629 
L 303.899665 197.420372 
L 300.610253 204.274915 
L 298.406585 206.650104 
L 296.863153 209.818283 
L 294.529873 212.608807 
L 294.266547 214.379601 
L 293.71681 215.658109 
L 293.096789 216.468778 
L 291.549453 218.28973 
L 289.794285 222.321746 
L 288.609724 225.663993 
L 283.487397 231.081251 
L 280.3676 231.540758 
L 276.834565 233.299259 
L 274.591012 233.603691 
L 273.258191 232.662522 
L 270.006095 234.689911 
L 267.803067 236.84742 
L 264.620561 237.415452 
L 262.860245 236.50526 
L 260.216026 235.491221 
L 258.928183 234.376808 
L 255.641255 234.744663 
L 251.263795 235.061893 
L 248.86406 234.454657 
L 247.044235 234.377655 
L 245.386074 234.462147 
L 244.404554 233.39399 
L 241.59446 232.567531 
L 239.672926 230.216908 
L 236.578245 229.248973 
L 234.162825 230.577967 
L 231.94966 232.797809 
L 227.624341 233.102866 
L 223.96561 233.681356 
L 219.533502 234.152659 
L 214.252518 232.394006 
L 208.653731 228.616794 
L 203.158768 228.779428 
L 200.747929 226.062971 
L 197.939845 226.50947 
L 195.633563 224.204466 
L 196.664878 222.11086 
L 199.709857 220.518578 
L 195.70889 218.854405 
L 192.505848 215.639232 
L 189.590099 212.922384 
L 184.107151 210.623532 
L 177.16234 211.126892 
L 175.206929 208.956646 
L 171.785008 210.651449 
L 169.775119 206.849314 
L 168.913312 202.175646 
L 171.346423 199.347742 
L 172.24517 194.692968 
L 173.159019 190.653894 
L 174.475079 188.461376 
L 171.676332 188.626891 
L 171.613137 188.514261 
L 167.364336 189.62123 
L 165.006509 188.064898 
L 165.965736 182.00688 
L 164.319054 177.461346 
L 165.792486 161.704125 
L 170.8792 151.085633 
L 169.870621 146.943737 
L 168.707351 146.788789 
L 170.705943 143.429904 
L 172.359703 141.092584 
L 175.08364 139.819674 
L 177.94102 136.488758 
L 182.519804 132.846751 
L 185.253234 131.716254 
L 185.847352 129.058632 
L 187.211494 128.39935 
L 189.491294 126.540077 
L 192.412392 123.368132 
L 195.027994 120.777994 
L 196.5439 117.201559 
L 195.833017 114.273905 
L 198.035942 113.80947 
L 200.805635 113.050704 
L 207.890648 114.405858 
L 211.335054 115.196537 
L 214.462819 113.339177 
L 212.333101 114.025074 
L 214.81519 115.945997 
L 217.263697 114.847459 
L 217.811234 116.846669 
L 222.090043 116.839475 
L 228.004471 115.079318 
L 232.693206 113.839636 
L 238.075777 112.060218 
L 242.82249 109.347759 
L 246.324469 109.419725 
L 247.614276 106.888826 
L 250.456462 108.532273 
L 253.106944 112.714797 
L 256.217784 116.172263 
L 260.227689 117.873788 
L 264.215345 121.978688 
L 267.342967 123.900403 
L 269.777253 126.045671 
L 272.182216 127.305865 
L 272.388843 126.513276 
L 274.176087 127.7528 
L 276.584453 127.557174 
L 278.88734 129.655256 
L 281.903842 133.247158 
L 285.3408 135.101256 
L 288.902913 138.552162 
L 291.006613 135.304838 
L 294.135786 135.442634 
L 295.477001 137.247952 
L 296.538945 137.998178 
L 297.090996 141.156952 
L 298.173344 145.445293 
L 297.900764 149.128474 
L 300.829097 151.78432 
L 305.343303 149.984664 
L 306.392457 146.527796 
L 310.190682 139.686205 
L 316.666791 132.713321 
L 321.915759 130.493452 
L 317.653541 141.252243 
L 315.291292 149.556819 
L 313.604428 156.223063 
L 310.010814 167.940919 
L 309.070071 177.176447 
L 310.677348 181.736909 
L 310.90957 187.432681 
L 308.734376 191.846704 
L 309.648771 195.346365 
L 310.027772 199.599921 
L 306.435586 202.2898 
L 302.304314 203.753306 
L 299.826772 207.200699 
L 295.763785 211.065096 
L 295.634927 213.295152 
L 296.810119 216.390076 
L 293.511669 225.830227 
L 291.332204 229.056577 
L 286.948227 230.609315 
L 281.929657 230.004748 
L 277.636268 229.668487 
L 273.450596 229.847999 
L 270.543939 231.208129 
L 267.149631 232.091264 
L 266.420925 234.427302 
L 264.009365 236.5376 
L 261.443915 237.958004 
L 259.492833 239.22903 
L 255.585915 239.212841 
L 255.805274 239.377423 
L 253.794575 239.185185 
L 250.83483 237.252613 
L 246.893471 236.745127 
L 242.517627 235.473879 
L 238.383244 234.96002 
L 234.19674 236.850082 
L 230.421195 236.833461 
L 227.058877 238.773186 
L 223.746512 238.732142 
L 220.957448 238.511693 
L 217.499196 238.840722 
L 214.766275 238.539233 
L 210.733313 237.980411 
L 206.300573 238.75328 
L 205.140766 237.609072 
L 204.301905 234.089546 
L 202.680149 230.812297 
L 201.248481 227.006458 
L 198.997823 223.750872 
L 195.917513 220.6137 
L 192.694583 219.21898 
L 189.588782 218.798377 
L 186.947365 222.758525 
L 186.317831 224.263921 
L 184.213445 225.927597 
L 180.550435 219.197182 
L 179.264539 213.009973 
L 176.793191 209.62505 
L 173.408926 206.12769 
L 167.2306 207.363686 
L 164.157342 205.984963 
L 163.104936 202.96833 
L 163.29316 197.05431 
L 169.003441 185.353858 
L 171.093468 179.45818 
L 171.511669 175.206506 
L 168.402731 175.805115 
L 165.399115 175.747103 
L 164.075118 174.158316 
L 165.074564 169.768675 
L 167.444498 165.433197 
L 174.478051 150.04278 
L 176.824412 144.536222 
L 177.502391 140.678763 
L 175.179221 138.362986 
L 173.9676 134.795255 
L 174.36203 131.233384 
L 177.647202 130.194246 
L 180.107657 127.593441 
L 187.52501 123.385587 
L 188.83564 121.44037 
L 187.730297 118.303469 
L 190.918128 117.159119 
L 193.577397 115.768388 
L 196.818809 114.418846 
L 191.458461 108.704778 
L 190.69042 105.699389 
L 195.292408 106.960046 
L 202.654991 106.603707 
L 208.538957 108.044018 
L 215.356335 108.997927 
L 221.202536 109.528103 
L 223.249078 105.663834 
L 225.599082 105.860701 
L 230.05354 105.910384 
L 234.288605 107.880528 
L 236.356822 109.794641 
L 239.324725 110.786453 
L 243.761969 111.174259 
L 247.470249 111.924179 
L 251.53879 111.304371 
L 254.910834 111.237417 
L 255.769323 113.097569 
L 257.770841 114.123971 
L 260.612215 116.255772 
L 265.883944 118.505732 
L 267.502549 117.701029 
L 269.652288 119.82908 
L 270.336432 122.42506 
L 273.313026 125.762668 
L 275.421251 127.060412 
L 280.059241 129.278297 
L 283.986074 130.410328 
L 286.102014 130.520488 
L 288.169544 130.231091 
L 295.896938 129.56481 
L 295.67548 132.726966 
L 296.641581 137.682791 
L 301.049546 139.795804 
L 306.286073 140.349696 
L 308.780611 140.103718 
L 307.693951 144.282172 
L 308.648351 152.873411 
L 310.089042 154.907119 
L 307.630408 160.424069 
L 309.539271 161.024067 
L 313.938223 162.65298 
L 314.3578 166.574866 
L 317.861204 169.292268 
L 320.181093 167.723323 
L 322.012967 174.285073 
L 319.616243 181.073274 
L 318.371949 187.354887 
L 315.65272 191.430134 
L 314.401122 194.703803 
L 312.964553 196.760044 
L 310.690438 197.689907 
L 309.259836 200.827784 
L 308.4239 205.37517 
L 303.717486 208.916314 
L 300.4098 213.428381 
L 297.813478 218.635108 
L 296.195447 221.446022 
L 293.578332 225.220277 
L 290.048991 225.874622 
L 285.940148 226.900228 
L 284.864722 226.413714 
L 282.997717 226.657706 
L 280.932408 227.511832 
L 281.236477 230.321439 
L 281.840129 234.008699 
L 282.183021 235.18667 
L 278.601496 234.09978 
L 275.805688 235.862171 
L 269.728886 235.578737 
L 265.721124 237.271158 
L 261.223405 237.419418 
L 257.599671 238.387104 
L 255.061061 239.258831 
L 250.486199 240.453687 
L 244.912452 239.154791 
L 240.614647 238.792082 
L 235.719405 238.592054 
L 230.976609 237.782506 
L 226.498839 235.791322 
L 222.772849 236.084995 
L 220.329051 236.834811 
L 218.510636 237.702366 
L 218.510636 237.702366 
" clip-path="url(#p11a7be92a7)" style="fill: none; stroke: #1f77b4; stroke-width: 1.5; stroke-linecap: square"/>
   </g>
   <g id="line2d_25">
    <path d="M 211.265714 222.292816 
L 208.763736 220.854145 
L 206.324737 219.312348 
L 203.954156 217.670808 
L 201.657287 215.933131 
L 199.439258 214.103138 
L 197.305027 212.184857 
L 195.259366 210.182513 
L 193.306854 208.100519 
L 191.451864 205.943469 
L 189.698552 203.716123 
L 188.050854 201.423399 
L 186.512469 199.070364 
L 185.086858 196.662221 
L 183.777231 194.204294 
L 182.586541 191.702024 
L 181.517481 189.16095 
L 180.572471 186.5867 
L 179.753659 183.984978 
L 179.062914 181.361552 
L 178.501819 178.722238 
L 178.071673 176.072893 
L 177.773481 173.419395 
L 177.607958 170.767637 
L 177.575525 168.123507 
L 177.676304 165.492882 
L 177.910127 162.881608 
L 178.276525 160.295493 
L 178.774737 157.74029 
L 179.40371 155.221685 
L 180.162098 152.745286 
L 181.04827 150.31661 
L 182.060306 147.94107 
L 183.196012 145.623961 
L 184.452913 143.370454 
L 185.828267 141.185578 
L 187.319067 139.074213 
L 188.922048 137.041077 
L 190.633697 135.090716 
L 192.450256 133.227496 
L 194.367733 131.455589 
L 196.381911 129.778967 
L 198.488357 128.201393 
L 200.682429 126.726409 
L 202.959292 125.357333 
L 205.313922 124.097248 
L 207.741124 122.948998 
L 210.235537 121.915178 
L 212.791649 120.998132 
L 215.40381 120.199943 
L 218.066241 119.522433 
L 220.773053 118.967156 
L 223.518251 118.535398 
L 226.295757 118.228167 
L 229.099416 118.046197 
L 231.923013 117.989946 
L 234.760287 118.059591 
L 237.604943 118.25503 
L 240.450667 118.575881 
L 243.291141 119.021486 
L 246.120055 119.590908 
L 248.931122 120.282934 
L 251.718094 121.09608 
L 254.474771 122.028592 
L 257.19502 123.07845 
L 259.872784 124.243373 
L 262.502099 125.520822 
L 265.077107 126.908011 
L 267.592065 128.401906 
L 270.041365 129.999235 
L 272.419539 131.696496 
L 274.721277 133.489964 
L 276.941433 135.375697 
L 279.075044 137.349549 
L 281.117335 139.407174 
L 283.06373 141.54404 
L 284.909867 143.755437 
L 286.651603 146.036487 
L 288.285026 148.382154 
L 289.806461 150.787259 
L 291.212482 153.246488 
L 292.499916 155.754403 
L 293.665853 158.305456 
L 294.707652 160.894003 
L 295.622946 163.514311 
L 296.409646 166.160577 
L 297.065951 168.826937 
L 297.590345 171.507477 
L 297.981609 174.196253 
L 298.238813 176.887298 
L 298.36133 179.574638 
L 298.348829 182.252303 
L 298.201279 184.914345 
L 297.918948 187.554846 
L 297.502405 190.167933 
L 296.952517 192.747792 
L 296.270447 195.28868 
L 295.457653 197.784939 
L 294.515881 200.231006 
L 293.447169 202.621428 
L 292.253834 204.950874 
L 290.938472 207.214144 
L 289.503952 209.406185 
L 287.953407 211.522098 
L 286.29023 213.557153 
L 284.518067 215.506796 
L 282.640806 217.36666 
L 280.662571 219.132579 
L 278.58771 220.80059 
L 276.420791 222.366947 
L 274.166586 223.82813 
L 271.830063 225.180849 
L 269.416376 226.422055 
L 266.930852 227.548943 
L 264.378981 228.558963 
L 261.7664 229.449824 
L 259.098886 230.219496 
L 256.382339 230.86622 
L 253.622771 231.388507 
L 250.826293 231.785147 
L 247.999098 232.055205 
L 245.147453 232.19803 
L 242.277679 232.213251 
L 239.396143 232.100781 
L 236.509237 231.860817 
L 233.623372 231.493839 
L 230.744955 231.00061 
L 227.880383 230.382172 
L 225.036022 229.639849 
L 222.218197 228.775237 
L 219.433177 227.790206 
L 216.687161 226.686894 
L 213.986262 225.467703 
L 211.336497 224.135294 
L 208.743771 222.692578 
L 206.213866 221.142716 
L 203.752425 219.489105 
L 201.364943 217.735376 
L 199.056753 215.885382 
L 196.833011 213.943193 
L 194.698692 211.913085 
L 192.65857 209.799531 
L 190.717216 207.60719 
L 188.87898 205.3409 
L 187.147987 203.005664 
L 185.528124 200.60664 
L 184.023034 198.14913 
L 182.636105 195.638568 
L 181.370466 193.080509 
L 180.228977 190.480615 
L 179.214221 187.844641 
L 178.328505 185.178429 
L 177.573848 182.487886 
L 176.951978 179.778979 
L 176.464331 177.057716 
L 176.112044 174.330135 
L 175.895953 171.602292 
L 175.816594 168.880244 
L 175.8742 166.17004 
L 176.068696 163.477702 
L 176.399708 160.809217 
L 176.866556 158.170521 
L 177.468258 155.567487 
L 178.203533 153.00591 
L 179.070803 150.491495 
L 180.068196 148.029846 
L 181.19355 145.626451 
L 182.444418 143.286671 
L 183.818075 141.01573 
L 185.311519 138.818699 
L 186.921486 136.700486 
L 188.644446 134.665829 
L 190.47662 132.719281 
L 192.413987 130.865202 
L 194.452285 129.107747 
L 196.587032 127.450859 
L 198.813527 125.898259 
L 201.126864 124.45344 
L 203.521942 123.119656 
L 205.993477 121.899914 
L 208.536013 120.796971 
L 211.143933 119.813327 
L 213.811474 118.951216 
L 216.532738 118.212603 
L 219.301705 117.599183 
L 222.112246 117.11237 
L 224.958138 116.753299 
L 227.833076 116.522823 
L 230.730689 116.421509 
L 233.644552 116.449637 
L 236.568202 116.607201 
L 239.495151 116.893906 
L 242.4189 117.309172 
L 245.332957 117.852134 
L 248.230846 118.521639 
L 251.106126 119.316258 
L 253.952401 120.23428 
L 256.763339 121.273721 
L 259.532683 122.432326 
L 262.254265 123.707574 
L 264.922021 125.096686 
L 267.530004 126.596627 
L 270.072396 128.204115 
L 272.543523 129.915629 
L 274.937867 131.727414 
L 277.250076 133.635491 
L 279.474981 135.635668 
L 281.607602 137.723542 
L 283.643163 139.894518 
L 285.5771 142.143812 
L 287.405075 144.466464 
L 289.122981 146.85735 
L 290.726955 149.311192 
L 292.213384 151.822568 
L 293.578915 154.38593 
L 294.820462 156.995607 
L 295.935213 159.645826 
L 296.920636 162.330721 
L 297.774485 165.044346 
L 298.494804 167.780688 
L 299.079936 170.533682 
L 299.52852 173.297222 
L 299.839499 176.065176 
L 300.012121 178.831401 
L 300.045941 181.589754 
L 299.940821 184.334107 
L 299.696933 187.058359 
L 299.314756 189.756452 
L 298.795078 192.422384 
L 298.138991 195.050222 
L 297.347891 197.634112 
L 296.423474 200.168298 
L 295.367735 202.647132 
L 294.182957 205.065083 
L 292.871716 207.416757 
L 291.436867 209.696901 
L 289.881541 211.900421 
L 288.209139 214.022391 
L 286.423322 216.058063 
L 284.528006 218.002877 
L 282.527351 219.852476 
L 280.425754 221.602711 
L 278.227837 223.249652 
L 275.938438 224.789596 
L 273.562601 226.219077 
L 271.105565 227.534872 
L 268.57275 228.734011 
L 265.969747 229.813779 
L 263.302306 230.771727 
L 260.576322 231.605676 
L 257.797824 232.313719 
L 254.97296 232.89423 
L 252.107981 233.345864 
L 249.209233 233.667564 
L 246.283139 233.858559 
L 243.336185 233.91837 
L 240.374906 233.846807 
L 237.405873 233.643972 
L 234.435675 233.310262 
L 231.470907 232.84636 
L 228.518157 232.253242 
L 225.583986 231.53217 
L 222.674918 230.684692 
L 219.797425 229.712636 
L 216.95791 228.618108 
L 214.162695 227.403487 
L 211.418006 226.07142 
L 208.729959 224.624816 
L 206.104549 223.06684 
L 203.547631 221.400905 
L 201.064914 219.630665 
L 198.661941 217.760008 
L 196.344083 215.793047 
L 194.116522 213.73411 
L 191.984244 211.58773 
L 189.952024 209.358639 
L 188.024416 207.051752 
L 186.205745 204.672161 
L 184.500095 202.225118 
L 182.911302 199.716032 
L 181.442942 197.150449 
L 180.098327 194.534042 
L 178.880494 191.872602 
L 177.7922 189.17202 
L 176.835917 186.438278 
L 176.013822 183.677434 
L 175.327799 180.895606 
L 174.779426 178.098966 
L 174.369979 175.293717 
L 174.100426 172.486086 
L 173.971423 169.682307 
L 173.983315 166.888609 
L 174.136135 164.1112 
L 174.429603 161.356255 
L 174.863125 158.629903 
L 175.435798 155.938209 
L 176.146408 153.287166 
L 176.993436 150.682679 
L 177.975056 148.130551 
L 179.089147 145.636473 
L 180.33329 143.206007 
L 181.704777 140.844578 
L 183.200616 138.55746 
L 184.817538 136.349763 
L 186.552005 134.226424 
L 188.400213 132.192195 
L 190.358108 130.25163 
L 192.421387 128.40908 
L 194.585516 126.668678 
L 196.84573 125.034333 
L 199.197052 123.509721 
L 201.6343 122.098274 
L 204.152099 120.803176 
L 206.744892 119.627354 
L 209.406954 118.573469 
L 212.132404 117.643917 
L 214.915217 116.840814 
L 217.749238 116.166001 
L 220.628198 115.621031 
L 223.545722 115.207172 
L 226.495348 114.925401 
L 229.470542 114.776402 
L 232.464707 114.760565 
L 235.471204 114.877983 
L 238.483361 115.128456 
L 241.494493 115.511486 
L 244.497913 116.026282 
L 247.486947 116.67176 
L 250.454953 117.446545 
L 253.39533 118.348975 
L 256.301537 119.377104 
L 259.167105 120.528705 
L 261.985653 121.801276 
L 264.7509 123.192047 
L 267.456684 124.697984 
L 270.096967 126.315794 
L 272.665859 128.041937 
L 275.157622 129.872628 
L 277.566689 131.803851 
L 279.887672 133.831363 
L 282.115377 135.950706 
L 284.244816 138.157217 
L 286.271214 140.446036 
L 288.190026 142.812118 
L 289.996942 145.250246 
L 291.687897 147.755038 
L 293.259084 150.320964 
L 294.706959 152.942354 
L 296.02825 155.613414 
L 297.219966 158.328235 
L 298.2794 161.08081 
L 299.204139 163.865044 
L 299.992068 166.674769 
L 300.641374 169.503758 
L 301.150552 172.34574 
L 301.518406 175.194408 
L 301.744055 178.043442 
L 301.826931 180.886516 
L 301.766786 183.717313 
L 301.563687 186.529542 
L 301.218019 189.316951 
L 300.730484 192.073339 
L 300.102099 194.792571 
L 299.334196 197.468592 
L 298.428416 200.095441 
L 297.386705 202.667262 
L 296.211317 205.178319 
L 294.904798 207.623009 
L 293.469991 209.995872 
L 291.910023 212.291608 
L 290.228301 214.505084 
L 288.428503 216.631346 
L 286.514574 218.665635 
L 284.49071 220.603391 
L 282.361357 222.440267 
L 280.131194 224.17214 
L 277.805129 225.795115 
L 275.388284 227.305541 
L 272.885985 228.700012 
L 270.30375 229.97538 
L 267.647276 231.128759 
L 264.922431 232.157534 
L 262.135234 233.059364 
L 259.291847 233.832191 
L 256.39856 234.474241 
L 253.461774 234.984029 
L 250.487992 235.360366 
L 247.483803 235.602356 
L 244.455863 235.709403 
L 241.410886 235.681209 
L 238.355627 235.517778 
L 235.296867 235.219414 
L 232.241396 234.786719 
L 229.196001 234.220596 
L 226.16745 233.522244 
L 223.162476 232.693156 
L 220.187762 231.735117 
L 217.249928 230.650197 
L 214.355514 229.440751 
L 211.510967 228.109411 
L 208.722626 226.659081 
L 208.722626 226.659081 
" clip-path="url(#p11a7be92a7)" style="fill: none; stroke: #ff7f0e; stroke-width: 1.5; stroke-linecap: square"/>
   </g>
   <g id="text_21">
    <!-- Trajectory with: 40seconds, 10pieces, Mellinger -->
    <g transform="translate(93.628125 35.472) scale(0.12 -0.12)">
     <defs>
      <path id="DejaVuSans-54" d="M -19 4666 
L 3928 4666 
L 3928 4134 
L 2272 4134 
L 2272 0 
L 1638 0 
L 1638 4134 
L -19 4134 
L -19 4666 
z
" transform="scale(0.015625)"/>
      <path id="DejaVuSans-72" d="M 2631 2963 
Q 2534 3019 2420 3045 
Q 2306 3072 2169 3072 
Q 1681 3072 1420 2755 
Q 1159 2438 1159 1844 
L 1159 0 
L 581 0 
L 581 3500 
L 1159 3500 
L 1159 2956 
Q 1341 3275 1631 3429 
Q 1922 3584 2338 3584 
Q 2397 3584 2469 3576 
Q 2541 3569 2628 3553 
L 2631 2963 
z
" transform="scale(0.015625)"/>
      <path id="DejaVuSans-61" d="M 2194 1759 
Q 1497 1759 1228 1600 
Q 959 1441 959 1056 
Q 959 750 1161 570 
Q 1363 391 1709 391 
Q 2188 391 2477 730 
Q 2766 1069 2766 1631 
L 2766 1759 
L 2194 1759 
z
M 3341 1997 
L 3341 0 
L 2766 0 
L 2766 531 
Q 2569 213 2275 61 
Q 1981 -91 1556 -91 
Q 1019 -91 701 211 
Q 384 513 384 1019 
Q 384 1609 779 1909 
Q 1175 2209 1959 2209 
L 2766 2209 
L 2766 2266 
Q 2766 2663 2505 2880 
Q 2244 3097 1772 3097 
Q 1472 3097 1187 3025 
Q 903 2953 641 2809 
L 641 3341 
Q 956 3463 1253 3523 
Q 1550 3584 1831 3584 
Q 2591 3584 2966 3190 
Q 3341 2797 3341 1997 
z
" transform="scale(0.015625)"/>
      <path id="DejaVuSans-6a" d="M 603 3500 
L 1178 3500 
L 1178 -63 
Q 1178 -731 923 -1031 
Q 669 -1331 103 -1331 
L -116 -1331 
L -116 -844 
L 38 -844 
Q 366 -844 484 -692 
Q 603 -541 603 -63 
L 603 3500 
z
M 603 4863 
L 1178 4863 
L 1178 4134 
L 603 4134 
L 603 4863 
z
" transform="scale(0.015625)"/>
      <path id="DejaVuSans-65" d="M 3597 1894 
L 3597 1613 
L 953 1613 
Q 991 1019 1311 708 
Q 1631 397 2203 397 
Q 2534 397 2845 478 
Q 3156 559 3463 722 
L 3463 178 
Q 3153 47 2828 -22 
Q 2503 -91 2169 -91 
Q 1331 -91 842 396 
Q 353 884 353 1716 
Q 353 2575 817 3079 
Q 1281 3584 2069 3584 
Q 2775 3584 3186 3129 
Q 3597 2675 3597 1894 
z
M 3022 2063 
Q 3016 2534 2758 2815 
Q 2500 3097 2075 3097 
Q 1594 3097 1305 2825 
Q 1016 2553 972 2059 
L 3022 2063 
z
" transform="scale(0.015625)"/>
      <path id="DejaVuSans-63" d="M 3122 3366 
L 3122 2828 
Q 2878 2963 2633 3030 
Q 2388 3097 2138 3097 
Q 1578 3097 1268 2742 
Q 959 2388 959 1747 
Q 959 1106 1268 751 
Q 1578 397 2138 397 
Q 2388 397 2633 464 
Q 2878 531 3122 666 
L 3122 134 
Q 2881 22 2623 -34 
Q 2366 -91 2075 -91 
Q 1284 -91 818 406 
Q 353 903 353 1747 
Q 353 2603 823 3093 
Q 1294 3584 2113 3584 
Q 2378 3584 2631 3529 
Q 2884 3475 3122 3366 
z
" transform="scale(0.015625)"/>
      <path id="DejaVuSans-74" d="M 1172 4494 
L 1172 3500 
L 2356 3500 
L 2356 3053 
L 1172 3053 
L 1172 1153 
Q 1172 725 1289 603 
Q 1406 481 1766 481 
L 2356 481 
L 2356 0 
L 1766 0 
Q 1100 0 847 248 
Q 594 497 594 1153 
L 594 3053 
L 172 3053 
L 172 3500 
L 594 3500 
L 594 4494 
L 1172 4494 
z
" transform="scale(0.015625)"/>
      <path id="DejaVuSans-6f" d="M 1959 3097 
Q 1497 3097 1228 2736 
Q 959 2375 959 1747 
Q 959 1119 1226 758 
Q 1494 397 1959 397 
Q 2419 397 2687 759 
Q 2956 1122 2956 1747 
Q 2956 2369 2687 2733 
Q 2419 3097 1959 3097 
z
M 1959 3584 
Q 2709 3584 3137 3096 
Q 3566 2609 3566 1747 
Q 3566 888 3137 398 
Q 2709 -91 1959 -91 
Q 1206 -91 779 398 
Q 353 888 353 1747 
Q 353 2609 779 3096 
Q 1206 3584 1959 3584 
z
" transform="scale(0.015625)"/>
      <path id="DejaVuSans-79" d="M 2059 -325 
Q 1816 -950 1584 -1140 
Q 1353 -1331 966 -1331 
L 506 -1331 
L 506 -850 
L 844 -850 
Q 1081 -850 1212 -737 
Q 1344 -625 1503 -206 
L 1606 56 
L 191 3500 
L 800 3500 
L 1894 763 
L 2988 3500 
L 3597 3500 
L 2059 -325 
z
" transform="scale(0.015625)"/>
      <path id="DejaVuSans-20" transform="scale(0.015625)"/>
      <path id="DejaVuSans-77" d="M 269 3500 
L 844 3500 
L 1563 769 
L 2278 3500 
L 2956 3500 
L 3675 769 
L 4391 3500 
L 4966 3500 
L 4050 0 
L 3372 0 
L 2619 2869 
L 1863 0 
L 1184 0 
L 269 3500 
z
" transform="scale(0.015625)"/>
      <path id="DejaVuSans-69" d="M 603 3500 
L 1178 3500 
L 1178 0 
L 603 0 
L 603 3500 
z
M 603 4863 
L 1178 4863 
L 1178 4134 
L 603 4134 
L 603 4863 
z
" transform="scale(0.015625)"/>
      <path id="DejaVuSans-68" d="M 3513 2113 
L 3513 0 
L 2938 0 
L 2938 2094 
Q 2938 2591 2744 2837 
Q 2550 3084 2163 3084 
Q 1697 3084 1428 2787 
Q 1159 2491 1159 1978 
L 1159 0 
L 581 0 
L 581 4863 
L 1159 4863 
L 1159 2956 
Q 1366 3272 1645 3428 
Q 1925 3584 2291 3584 
Q 2894 3584 3203 3211 
Q 3513 2838 3513 2113 
z
" transform="scale(0.015625)"/>
      <path id="DejaVuSans-3a" d="M 750 794 
L 1409 794 
L 1409 0 
L 750 0 
L 750 794 
z
M 750 3309 
L 1409 3309 
L 1409 2516 
L 750 2516 
L 750 3309 
z
" transform="scale(0.015625)"/>
      <path id="DejaVuSans-73" d="M 2834 3397 
L 2834 2853 
Q 2591 2978 2328 3040 
Q 2066 3103 1784 3103 
Q 1356 3103 1142 2972 
Q 928 2841 928 2578 
Q 928 2378 1081 2264 
Q 1234 2150 1697 2047 
L 1894 2003 
Q 2506 1872 2764 1633 
Q 3022 1394 3022 966 
Q 3022 478 2636 193 
Q 2250 -91 1575 -91 
Q 1294 -91 989 -36 
Q 684 19 347 128 
L 347 722 
Q 666 556 975 473 
Q 1284 391 1588 391 
Q 1994 391 2212 530 
Q 2431 669 2431 922 
Q 2431 1156 2273 1281 
Q 2116 1406 1581 1522 
L 1381 1569 
Q 847 1681 609 1914 
Q 372 2147 372 2553 
Q 372 3047 722 3315 
Q 1072 3584 1716 3584 
Q 2034 3584 2315 3537 
Q 2597 3491 2834 3397 
z
" transform="scale(0.015625)"/>
      <path id="DejaVuSans-6e" d="M 3513 2113 
L 3513 0 
L 2938 0 
L 2938 2094 
Q 2938 2591 2744 2837 
Q 2550 3084 2163 3084 
Q 1697 3084 1428 2787 
Q 1159 2491 1159 1978 
L 1159 0 
L 581 0 
L 581 3500 
L 1159 3500 
L 1159 2956 
Q 1366 3272 1645 3428 
Q 1925 3584 2291 3584 
Q 2894 3584 3203 3211 
Q 3513 2838 3513 2113 
z
" transform="scale(0.015625)"/>
      <path id="DejaVuSans-64" d="M 2906 2969 
L 2906 4863 
L 3481 4863 
L 3481 0 
L 2906 0 
L 2906 525 
Q 2725 213 2448 61 
Q 2172 -91 1784 -91 
Q 1150 -91 751 415 
Q 353 922 353 1747 
Q 353 2572 751 3078 
Q 1150 3584 1784 3584 
Q 2172 3584 2448 3432 
Q 2725 3281 2906 2969 
z
M 947 1747 
Q 947 1113 1208 752 
Q 1469 391 1925 391 
Q 2381 391 2643 752 
Q 2906 1113 2906 1747 
Q 2906 2381 2643 2742 
Q 2381 3103 1925 3103 
Q 1469 3103 1208 2742 
Q 947 2381 947 1747 
z
" transform="scale(0.015625)"/>
      <path id="DejaVuSans-2c" d="M 750 794 
L 1409 794 
L 1409 256 
L 897 -744 
L 494 -744 
L 750 256 
L 750 794 
z
" transform="scale(0.015625)"/>
      <path id="DejaVuSans-70" d="M 1159 525 
L 1159 -1331 
L 581 -1331 
L 581 3500 
L 1159 3500 
L 1159 2969 
Q 1341 3281 1617 3432 
Q 1894 3584 2278 3584 
Q 2916 3584 3314 3078 
Q 3713 2572 3713 1747 
Q 3713 922 3314 415 
Q 2916 -91 2278 -91 
Q 1894 -91 1617 61 
Q 1341 213 1159 525 
z
M 3116 1747 
Q 3116 2381 2855 2742 
Q 2594 3103 2138 3103 
Q 1681 3103 1420 2742 
Q 1159 2381 1159 1747 
Q 1159 1113 1420 752 
Q 1681 391 2138 391 
Q 2594 391 2855 752 
Q 3116 1113 3116 1747 
z
" transform="scale(0.015625)"/>
      <path id="DejaVuSans-4d" d="M 628 4666 
L 1569 4666 
L 2759 1491 
L 3956 4666 
L 4897 4666 
L 4897 0 
L 4281 0 
L 4281 4097 
L 3078 897 
L 2444 897 
L 1241 4097 
L 1241 0 
L 628 0 
L 628 4666 
z
" transform="scale(0.015625)"/>
      <path id="DejaVuSans-6c" d="M 603 4863 
L 1178 4863 
L 1178 0 
L 603 0 
L 603 4863 
z
" transform="scale(0.015625)"/>
      <path id="DejaVuSans-67" d="M 2906 1791 
Q 2906 2416 2648 2759 
Q 2391 3103 1925 3103 
Q 1463 3103 1205 2759 
Q 947 2416 947 1791 
Q 947 1169 1205 825 
Q 1463 481 1925 481 
Q 2391 481 2648 825 
Q 2906 1169 2906 1791 
z
M 3481 434 
Q 3481 -459 3084 -895 
Q 2688 -1331 1869 -1331 
Q 1566 -1331 1297 -1286 
Q 1028 -1241 775 -1147 
L 775 -588 
Q 1028 -725 1275 -790 
Q 1522 -856 1778 -856 
Q 2344 -856 2625 -561 
Q 2906 -266 2906 331 
L 2906 616 
Q 2728 306 2450 153 
Q 2172 0 1784 0 
Q 1141 0 747 490 
Q 353 981 353 1791 
Q 353 2603 747 3093 
Q 1141 3584 1784 3584 
Q 2172 3584 2450 3431 
Q 2728 3278 2906 2969 
L 2906 3500 
L 3481 3500 
L 3481 434 
z
" transform="scale(0.015625)"/>
     </defs>
     <use xlink:href="#DejaVuSans-54"/>
     <use xlink:href="#DejaVuSans-72" x="46.333984"/>
     <use xlink:href="#DejaVuSans-61" x="87.447266"/>
     <use xlink:href="#DejaVuSans-6a" x="148.726562"/>
     <use xlink:href="#DejaVuSans-65" x="176.509766"/>
     <use xlink:href="#DejaVuSans-63" x="238.033203"/>
     <use xlink:href="#DejaVuSans-74" x="293.013672"/>
     <use xlink:href="#DejaVuSans-6f" x="332.222656"/>
     <use xlink:href="#DejaVuSans-72" x="393.404297"/>
     <use xlink:href="#DejaVuSans-79" x="434.517578"/>
     <use xlink:href="#DejaVuSans-20" x="493.697266"/>
     <use xlink:href="#DejaVuSans-77" x="525.484375"/>
     <use xlink:href="#DejaVuSans-69" x="607.271484"/>
     <use xlink:href="#DejaVuSans-74" x="635.054688"/>
     <use xlink:href="#DejaVuSans-68" x="674.263672"/>
     <use xlink:href="#DejaVuSans-3a" x="737.642578"/>
     <use xlink:href="#DejaVuSans-20" x="771.333984"/>
     <use xlink:href="#DejaVuSans-34" x="803.121094"/>
     <use xlink:href="#DejaVuSans-30" x="866.744141"/>
     <use xlink:href="#DejaVuSans-73" x="930.367188"/>
     <use xlink:href="#DejaVuSans-65" x="982.466797"/>
     <use xlink:href="#DejaVuSans-63" x="1043.990234"/>
     <use xlink:href="#DejaVuSans-6f" x="1098.970703"/>
     <use xlink:href="#DejaVuSans-6e" x="1160.152344"/>
     <use xlink:href="#DejaVuSans-64" x="1223.53125"/>
     <use xlink:href="#DejaVuSans-73" x="1287.007812"/>
     <use xlink:href="#DejaVuSans-2c" x="1339.107422"/>
     <use xlink:href="#DejaVuSans-20" x="1370.894531"/>
     <use xlink:href="#DejaVuSans-31" x="1402.681641"/>
     <use xlink:href="#DejaVuSans-30" x="1466.304688"/>
     <use xlink:href="#DejaVuSans-70" x="1529.927734"/>
     <use xlink:href="#DejaVuSans-69" x="1593.404297"/>
     <use xlink:href="#DejaVuSans-65" x="1621.1875"/>
     <use xlink:href="#DejaVuSans-63" x="1682.710938"/>
     <use xlink:href="#DejaVuSans-65" x="1737.691406"/>
     <use xlink:href="#DejaVuSans-73" x="1799.214844"/>
     <use xlink:href="#DejaVuSans-2c" x="1851.314453"/>
     <use xlink:href="#DejaVuSans-20" x="1883.101562"/>
     <use xlink:href="#DejaVuSans-4d" x="1914.888672"/>
     <use xlink:href="#DejaVuSans-65" x="2001.167969"/>
     <use xlink:href="#DejaVuSans-6c" x="2062.691406"/>
     <use xlink:href="#DejaVuSans-6c" x="2090.474609"/>
     <use xlink:href="#DejaVuSans-69" x="2118.257812"/>
     <use xlink:href="#DejaVuSans-6e" x="2146.041016"/>
     <use xlink:href="#DejaVuSans-67" x="2209.419922"/>
     <use xlink:href="#DejaVuSans-65" x="2272.896484"/>
     <use xlink:href="#DejaVuSans-72" x="2334.419922"/>
    </g>
   </g>
   <g id="legend_1">
    <g id="patch_6">
     <path d="M 211.183187 78.82825 
L 362.216 78.82825 
Q 364.216 78.82825 364.216 76.82825 
L 364.216 48.472 
Q 364.216 46.472 362.216 46.472 
L 211.183187 46.472 
Q 209.183187 46.472 209.183187 48.472 
L 209.183187 76.82825 
Q 209.183187 78.82825 211.183187 78.82825 
z
" style="fill: #ffffff; opacity: 0.8; stroke: #cccccc; stroke-linejoin: miter"/>
    </g>
    <g id="line2d_26">
     <path d="M 213.183187 54.570437 
L 223.183187 54.570437 
L 233.183187 54.570437 
" style="fill: none; stroke: #1f77b4; stroke-width: 1.5; stroke-linecap: square"/>
    </g>
    <g id="text_22">
     <!-- 3D input trajectory -->
     <g transform="translate(241.183187 58.070437) scale(0.1 -0.1)">
      <defs>
       <path id="DejaVuSans-33" d="M 2597 2516 
Q 3050 2419 3304 2112 
Q 3559 1806 3559 1356 
Q 3559 666 3084 287 
Q 2609 -91 1734 -91 
Q 1441 -91 1130 -33 
Q 819 25 488 141 
L 488 750 
Q 750 597 1062 519 
Q 1375 441 1716 441 
Q 2309 441 2620 675 
Q 2931 909 2931 1356 
Q 2931 1769 2642 2001 
Q 2353 2234 1838 2234 
L 1294 2234 
L 1294 2753 
L 1863 2753 
Q 2328 2753 2575 2939 
Q 2822 3125 2822 3475 
Q 2822 3834 2567 4026 
Q 2313 4219 1838 4219 
Q 1578 4219 1281 4162 
Q 984 4106 628 3988 
L 628 4550 
Q 988 4650 1302 4700 
Q 1616 4750 1894 4750 
Q 2613 4750 3031 4423 
Q 3450 4097 3450 3541 
Q 3450 3153 3228 2886 
Q 3006 2619 2597 2516 
z
" transform="scale(0.015625)"/>
       <path id="DejaVuSans-44" d="M 1259 4147 
L 1259 519 
L 2022 519 
Q 2988 519 3436 956 
Q 3884 1394 3884 2338 
Q 3884 3275 3436 3711 
Q 2988 4147 2022 4147 
L 1259 4147 
z
M 628 4666 
L 1925 4666 
Q 3281 4666 3915 4102 
Q 4550 3538 4550 2338 
Q 4550 1131 3912 565 
Q 3275 0 1925 0 
L 628 0 
L 628 4666 
z
" transform="scale(0.015625)"/>
       <path id="DejaVuSans-75" d="M 544 1381 
L 544 3500 
L 1119 3500 
L 1119 1403 
Q 1119 906 1312 657 
Q 1506 409 1894 409 
Q 2359 409 2629 706 
Q 2900 1003 2900 1516 
L 2900 3500 
L 3475 3500 
L 3475 0 
L 2900 0 
L 2900 538 
Q 2691 219 2414 64 
Q 2138 -91 1772 -91 
Q 1169 -91 856 284 
Q 544 659 544 1381 
z
M 1991 3584 
L 1991 3584 
z
" transform="scale(0.015625)"/>
      </defs>
      <use xlink:href="#DejaVuSans-33"/>
      <use xlink:href="#DejaVuSans-44" x="63.623047"/>
      <use xlink:href="#DejaVuSans-20" x="140.625"/>
      <use xlink:href="#DejaVuSans-69" x="172.412109"/>
      <use xlink:href="#DejaVuSans-6e" x="200.195312"/>
      <use xlink:href="#DejaVuSans-70" x="263.574219"/>
      <use xlink:href="#DejaVuSans-75" x="327.050781"/>
      <use xlink:href="#DejaVuSans-74" x="390.429688"/>
      <use xlink:href="#DejaVuSans-20" x="429.638672"/>
      <use xlink:href="#DejaVuSans-74" x="461.425781"/>
      <use xlink:href="#DejaVuSans-72" x="500.634766"/>
      <use xlink:href="#DejaVuSans-61" x="541.748047"/>
      <use xlink:href="#DejaVuSans-6a" x="603.027344"/>
      <use xlink:href="#DejaVuSans-65" x="630.810547"/>
      <use xlink:href="#DejaVuSans-63" x="692.333984"/>
      <use xlink:href="#DejaVuSans-74" x="747.314453"/>
      <use xlink:href="#DejaVuSans-6f" x="786.523438"/>
      <use xlink:href="#DejaVuSans-72" x="847.705078"/>
      <use xlink:href="#DejaVuSans-79" x="888.818359"/>
     </g>
    </g>
    <g id="line2d_27">
     <path d="M 213.183187 69.248562 
L 223.183187 69.248562 
L 233.183187 69.248562 
" style="fill: none; stroke: #ff7f0e; stroke-width: 1.5; stroke-linecap: square"/>
    </g>
    <g id="text_23">
     <!-- 3D measured trajectory -->
     <g transform="translate(241.183187 72.748562) scale(0.1 -0.1)">
      <defs>
       <path id="DejaVuSans-6d" d="M 3328 2828 
Q 3544 3216 3844 3400 
Q 4144 3584 4550 3584 
Q 5097 3584 5394 3201 
Q 5691 2819 5691 2113 
L 5691 0 
L 5113 0 
L 5113 2094 
Q 5113 2597 4934 2840 
Q 4756 3084 4391 3084 
Q 3944 3084 3684 2787 
Q 3425 2491 3425 1978 
L 3425 0 
L 2847 0 
L 2847 2094 
Q 2847 2600 2669 2842 
Q 2491 3084 2119 3084 
Q 1678 3084 1418 2786 
Q 1159 2488 1159 1978 
L 1159 0 
L 581 0 
L 581 3500 
L 1159 3500 
L 1159 2956 
Q 1356 3278 1631 3431 
Q 1906 3584 2284 3584 
Q 2666 3584 2933 3390 
Q 3200 3197 3328 2828 
z
" transform="scale(0.015625)"/>
      </defs>
      <use xlink:href="#DejaVuSans-33"/>
      <use xlink:href="#DejaVuSans-44" x="63.623047"/>
      <use xlink:href="#DejaVuSans-20" x="140.625"/>
      <use xlink:href="#DejaVuSans-6d" x="172.412109"/>
      <use xlink:href="#DejaVuSans-65" x="269.824219"/>
      <use xlink:href="#DejaVuSans-61" x="331.347656"/>
      <use xlink:href="#DejaVuSans-73" x="392.626953"/>
      <use xlink:href="#DejaVuSans-75" x="444.726562"/>
      <use xlink:href="#DejaVuSans-72" x="508.105469"/>
      <use xlink:href="#DejaVuSans-65" x="546.96875"/>
      <use xlink:href="#DejaVuSans-64" x="608.492188"/>
      <use xlink:href="#DejaVuSans-20" x="671.96875"/>
      <use xlink:href="#DejaVuSans-74" x="703.755859"/>
      <use xlink:href="#DejaVuSans-72" x="742.964844"/>
      <use xlink:href="#DejaVuSans-61" x="784.078125"/>
      <use xlink:href="#DejaVuSans-6a" x="845.357422"/>
      <use xlink:href="#DejaVuSans-65" x="873.140625"/>
      <use xlink:href="#DejaVuSans-63" x="934.664062"/>
      <use xlink:href="#DejaVuSans-74" x="989.644531"/>
      <use xlink:href="#DejaVuSans-6f" x="1028.853516"/>
      <use xlink:href="#DejaVuSans-72" x="1090.035156"/>
      <use xlink:href="#DejaVuSans-79" x="1131.148438"/>
     </g>
    </g>
   </g>
  </g>
 </g>
 <defs>
  <clipPath id="p11a7be92a7">
   <rect x="103.104" y="41.472" width="266.112" height="266.112"/>
  </clipPath>
 </defs>
</svg>
