<?xml version="1.0" encoding="utf-8" standalone="no"?>
<!DOCTYPE svg PUBLIC "-//W3C//DTD SVG 1.1//EN"
  "http://www.w3.org/Graphics/SVG/1.1/DTD/svg11.dtd">
<svg xmlns:xlink="http://www.w3.org/1999/xlink" width="460.8pt" height="345.6pt" viewBox="0 0 460.8 345.6" xmlns="http://www.w3.org/2000/svg" version="1.1">
 <metadata>
  <rdf:RDF xmlns:dc="http://purl.org/dc/elements/1.1/" xmlns:cc="http://creativecommons.org/ns#" xmlns:rdf="http://www.w3.org/1999/02/22-rdf-syntax-ns#">
   <cc:Work>
    <dc:type rdf:resource="http://purl.org/dc/dcmitype/StillImage"/>
    <dc:date>2024-02-09T17:17:11.062025</dc:date>
    <dc:format>image/svg+xml</dc:format>
    <dc:creator>
     <cc:Agent>
      <dc:title>Matplotlib v3.8.2, https://matplotlib.org/</dc:title>
     </cc:Agent>
    </dc:creator>
   </cc:Work>
  </rdf:RDF>
 </metadata>
 <defs>
  <style type="text/css">*{stroke-linejoin: round; stroke-linecap: butt}</style>
 </defs>
 <g id="figure_1">
  <g id="patch_1">
   <path d="M 0 345.6 
L 460.8 345.6 
L 460.8 0 
L 0 0 
z
" style="fill: #ffffff"/>
  </g>
  <g id="patch_2">
   <path d="M 103.104 307.584 
L 369.216 307.584 
L 369.216 41.472 
L 103.104 41.472 
z
" style="fill: #ffffff"/>
  </g>
  <g id="pane3d_1">
   <g id="patch_3">
    <path d="M 335.97183 200.316341 
L 179.471373 185.564261 
L 177.325389 74.46449 
L 339.474503 87.235292 
" style="fill: #f2f2f2; opacity: 0.5; stroke: #f2f2f2; stroke-linejoin: miter"/>
   </g>
  </g>
  <g id="pane3d_2">
   <g id="patch_4">
    <path d="M 135.417436 258.506427 
L 179.471373 185.564261 
L 177.325389 74.46449 
L 131.285678 137.804834 
" style="fill: #e6e6e6; opacity: 0.5; stroke: #e6e6e6; stroke-linejoin: miter"/>
   </g>
  </g>
  <g id="pane3d_3">
   <g id="patch_5">
    <path d="M 308.183051 276.664606 
L 335.97183 200.316341 
L 179.471373 185.564261 
L 135.417436 258.506427 
" style="fill: #ececec; opacity: 0.5; stroke: #ececec; stroke-linejoin: miter"/>
   </g>
  </g>
  <g id="grid3d_1">
   <g id="Line3DCollection_1">
    <path d="M 312.79854 263.983781 
L 142.719999 246.415231 
L 138.941999 127.271449 
" style="fill: none; stroke: #b0b0b0; stroke-width: 0.8"/>
    <path d="M 316.871804 252.792695 
L 149.169429 235.736608 
L 145.695711 117.979851 
" style="fill: none; stroke: #b0b0b0; stroke-width: 0.8"/>
    <path d="M 320.825756 241.929413 
L 155.434227 225.36369 
L 152.248776 108.9643 
" style="fill: none; stroke: #b0b0b0; stroke-width: 0.8"/>
    <path d="M 324.665561 231.379742 
L 161.522209 215.283533 
L 158.610005 100.212672 
" style="fill: none; stroke: #b0b0b0; stroke-width: 0.8"/>
    <path d="M 328.396093 221.130293 
L 167.440756 205.483917 
L 164.7877 91.713546 
" style="fill: none; stroke: #b0b0b0; stroke-width: 0.8"/>
    <path d="M 332.021951 211.168432 
L 173.196845 195.95329 
L 170.78969 83.456149 
" style="fill: none; stroke: #b0b0b0; stroke-width: 0.8"/>
   </g>
  </g>
  <g id="grid3d_2">
   <g id="Line3DCollection_2">
    <path d="M 321.546739 85.823309 
L 318.680584 198.686429 
L 289.054475 274.654136 
" style="fill: none; stroke: #b0b0b0; stroke-width: 0.8"/>
    <path d="M 297.669837 83.942773 
L 295.646798 196.515214 
L 263.588726 271.97761 
" style="fill: none; stroke: #b0b0b0; stroke-width: 0.8"/>
    <path d="M 273.948668 82.074503 
L 272.758015 194.357666 
L 238.300876 269.319782 
" style="fill: none; stroke: #b0b0b0; stroke-width: 0.8"/>
    <path d="M 250.381713 80.218378 
L 250.012869 192.213658 
L 213.189068 266.680456 
" style="fill: none; stroke: #b0b0b0; stroke-width: 0.8"/>
    <path d="M 226.967474 78.374282 
L 227.410014 190.083063 
L 188.251471 264.059441 
" style="fill: none; stroke: #b0b0b0; stroke-width: 0.8"/>
    <path d="M 203.704471 76.542096 
L 204.948117 187.965755 
L 163.486277 261.456545 
" style="fill: none; stroke: #b0b0b0; stroke-width: 0.8"/>
    <path d="M 180.591244 74.721707 
L 182.625865 185.86161 
L 138.891704 258.871583 
" style="fill: none; stroke: #b0b0b0; stroke-width: 0.8"/>
   </g>
  </g>
  <g id="grid3d_3">
   <g id="Line3DCollection_3">
    <path d="M 135.148656 250.65452 
L 179.331268 178.310868 
L 336.200343 192.938968 
" style="fill: none; stroke: #b0b0b0; stroke-width: 0.8"/>
    <path d="M 134.537522 232.801376 
L 179.012968 161.832147 
L 336.71958 176.175795 
" style="fill: none; stroke: #b0b0b0; stroke-width: 0.8"/>
    <path d="M 133.919205 214.738405 
L 178.691297 145.178896 
L 337.244439 159.231146 
" style="fill: none; stroke: #b0b0b0; stroke-width: 0.8"/>
    <path d="M 133.293578 196.461884 
L 178.3662 128.348329 
L 337.775011 142.102058 
" style="fill: none; stroke: #b0b0b0; stroke-width: 0.8"/>
    <path d="M 132.660511 177.968005 
L 178.037624 111.337597 
L 338.311389 124.785502 
" style="fill: none; stroke: #b0b0b0; stroke-width: 0.8"/>
    <path d="M 132.01987 159.252866 
L 177.705511 94.143793 
L 338.85367 107.278384 
" style="fill: none; stroke: #b0b0b0; stroke-width: 0.8"/>
    <path d="M 131.371517 140.312474 
L 177.369805 76.763946 
L 339.401952 89.577541 
" style="fill: none; stroke: #b0b0b0; stroke-width: 0.8"/>
   </g>
  </g>
  <g id="axis3d_1">
   <g id="line2d_1">
    <path d="M 335.97183 200.316341 
L 308.183051 276.664606 
" style="fill: none; stroke: #000000; stroke-width: 0.8; stroke-linecap: square"/>
   </g>
   <g id="xtick_1">
    <g id="line2d_2">
     <path d="M 311.405671 263.839902 
L 315.585877 264.271703 
" style="fill: none; stroke: #000000; stroke-width: 0.8; stroke-linecap: square"/>
    </g>
    <g id="text_1">
     <!-- 1.0 -->
     <g transform="translate(319.046381 282.747938) scale(0.1 -0.1)">
      <defs>
       <path id="DejaVuSans-31" d="M 794 531 
L 1825 531 
L 1825 4091 
L 703 3866 
L 703 4441 
L 1819 4666 
L 2450 4666 
L 2450 531 
L 3481 531 
L 3481 0 
L 794 0 
L 794 531 
z
" transform="scale(0.015625)"/>
       <path id="DejaVuSans-2e" d="M 684 794 
L 1344 794 
L 1344 0 
L 684 0 
L 684 794 
z
" transform="scale(0.015625)"/>
       <path id="DejaVuSans-30" d="M 2034 4250 
Q 1547 4250 1301 3770 
Q 1056 3291 1056 2328 
Q 1056 1369 1301 889 
Q 1547 409 2034 409 
Q 2525 409 2770 889 
Q 3016 1369 3016 2328 
Q 3016 3291 2770 3770 
Q 2525 4250 2034 4250 
z
M 2034 4750 
Q 2819 4750 3233 4129 
Q 3647 3509 3647 2328 
Q 3647 1150 3233 529 
Q 2819 -91 2034 -91 
Q 1250 -91 836 529 
Q 422 1150 422 2328 
Q 422 3509 836 4129 
Q 1250 4750 2034 4750 
z
" transform="scale(0.015625)"/>
      </defs>
      <use xlink:href="#DejaVuSans-31"/>
      <use xlink:href="#DejaVuSans-2e" x="63.623047"/>
      <use xlink:href="#DejaVuSans-30" x="95.410156"/>
     </g>
    </g>
   </g>
   <g id="xtick_2">
    <g id="line2d_3">
     <path d="M 315.498867 252.653061 
L 319.61923 253.07212 
" style="fill: none; stroke: #000000; stroke-width: 0.8; stroke-linecap: square"/>
    </g>
    <g id="text_2">
     <!-- 1.2 -->
     <g transform="translate(322.904027 271.404316) scale(0.1 -0.1)">
      <defs>
       <path id="DejaVuSans-32" d="M 1228 531 
L 3431 531 
L 3431 0 
L 469 0 
L 469 531 
Q 828 903 1448 1529 
Q 2069 2156 2228 2338 
Q 2531 2678 2651 2914 
Q 2772 3150 2772 3378 
Q 2772 3750 2511 3984 
Q 2250 4219 1831 4219 
Q 1534 4219 1204 4116 
Q 875 4013 500 3803 
L 500 4441 
Q 881 4594 1212 4672 
Q 1544 4750 1819 4750 
Q 2544 4750 2975 4387 
Q 3406 4025 3406 3419 
Q 3406 3131 3298 2873 
Q 3191 2616 2906 2266 
Q 2828 2175 2409 1742 
Q 1991 1309 1228 531 
z
" transform="scale(0.015625)"/>
      </defs>
      <use xlink:href="#DejaVuSans-31"/>
      <use xlink:href="#DejaVuSans-2e" x="63.623047"/>
      <use xlink:href="#DejaVuSans-32" x="95.410156"/>
     </g>
    </g>
   </g>
   <g id="xtick_3">
    <g id="line2d_4">
     <path d="M 319.472189 241.793839 
L 323.534396 242.200713 
" style="fill: none; stroke: #000000; stroke-width: 0.8; stroke-linecap: square"/>
    </g>
    <g id="text_3">
     <!-- 1.4 -->
     <g transform="translate(326.648807 260.392579) scale(0.1 -0.1)">
      <defs>
       <path id="DejaVuSans-34" d="M 2419 4116 
L 825 1625 
L 2419 1625 
L 2419 4116 
z
M 2253 4666 
L 3047 4666 
L 3047 1625 
L 3713 1625 
L 3713 1100 
L 3047 1100 
L 3047 0 
L 2419 0 
L 2419 1100 
L 313 1100 
L 313 1709 
L 2253 4666 
z
" transform="scale(0.015625)"/>
      </defs>
      <use xlink:href="#DejaVuSans-31"/>
      <use xlink:href="#DejaVuSans-2e" x="63.623047"/>
      <use xlink:href="#DejaVuSans-34" x="95.410156"/>
     </g>
    </g>
   </g>
   <g id="xtick_4">
    <g id="line2d_5">
     <path d="M 323.330827 231.248053 
L 327.336494 231.643264 
" style="fill: none; stroke: #000000; stroke-width: 0.8; stroke-linecap: square"/>
    </g>
    <g id="text_4">
     <!-- 1.6 -->
     <g transform="translate(330.285604 249.698374) scale(0.1 -0.1)">
      <defs>
       <path id="DejaVuSans-36" d="M 2113 2584 
Q 1688 2584 1439 2293 
Q 1191 2003 1191 1497 
Q 1191 994 1439 701 
Q 1688 409 2113 409 
Q 2538 409 2786 701 
Q 3034 994 3034 1497 
Q 3034 2003 2786 2293 
Q 2538 2584 2113 2584 
z
M 3366 4563 
L 3366 3988 
Q 3128 4100 2886 4159 
Q 2644 4219 2406 4219 
Q 1781 4219 1451 3797 
Q 1122 3375 1075 2522 
Q 1259 2794 1537 2939 
Q 1816 3084 2150 3084 
Q 2853 3084 3261 2657 
Q 3669 2231 3669 1497 
Q 3669 778 3244 343 
Q 2819 -91 2113 -91 
Q 1303 -91 875 529 
Q 447 1150 447 2328 
Q 447 3434 972 4092 
Q 1497 4750 2381 4750 
Q 2619 4750 2861 4703 
Q 3103 4656 3366 4563 
z
" transform="scale(0.015625)"/>
      </defs>
      <use xlink:href="#DejaVuSans-31"/>
      <use xlink:href="#DejaVuSans-2e" x="63.623047"/>
      <use xlink:href="#DejaVuSans-36" x="95.410156"/>
     </g>
    </g>
   </g>
   <g id="xtick_5">
    <g id="line2d_6">
     <path d="M 327.079675 221.002325 
L 331.030353 221.386368 
" style="fill: none; stroke: #000000; stroke-width: 0.8; stroke-linecap: square"/>
    </g>
    <g id="text_5">
     <!-- 1.8 -->
     <g transform="translate(333.819023 239.308159) scale(0.1 -0.1)">
      <defs>
       <path id="DejaVuSans-38" d="M 2034 2216 
Q 1584 2216 1326 1975 
Q 1069 1734 1069 1313 
Q 1069 891 1326 650 
Q 1584 409 2034 409 
Q 2484 409 2743 651 
Q 3003 894 3003 1313 
Q 3003 1734 2745 1975 
Q 2488 2216 2034 2216 
z
M 1403 2484 
Q 997 2584 770 2862 
Q 544 3141 544 3541 
Q 544 4100 942 4425 
Q 1341 4750 2034 4750 
Q 2731 4750 3128 4425 
Q 3525 4100 3525 3541 
Q 3525 3141 3298 2862 
Q 3072 2584 2669 2484 
Q 3125 2378 3379 2068 
Q 3634 1759 3634 1313 
Q 3634 634 3220 271 
Q 2806 -91 2034 -91 
Q 1263 -91 848 271 
Q 434 634 434 1313 
Q 434 1759 690 2068 
Q 947 2378 1403 2484 
z
M 1172 3481 
Q 1172 3119 1398 2916 
Q 1625 2713 2034 2713 
Q 2441 2713 2670 2916 
Q 2900 3119 2900 3481 
Q 2900 3844 2670 4047 
Q 2441 4250 2034 4250 
Q 1625 4250 1398 4047 
Q 1172 3844 1172 3481 
z
" transform="scale(0.015625)"/>
      </defs>
      <use xlink:href="#DejaVuSans-31"/>
      <use xlink:href="#DejaVuSans-2e" x="63.623047"/>
      <use xlink:href="#DejaVuSans-38" x="95.410156"/>
     </g>
    </g>
   </g>
   <g id="xtick_6">
    <g id="line2d_7">
     <path d="M 330.723355 211.044029 
L 334.62053 211.417371 
" style="fill: none; stroke: #000000; stroke-width: 0.8; stroke-linecap: square"/>
    </g>
    <g id="text_6">
     <!-- 2.0 -->
     <g transform="translate(337.253408 229.209156) scale(0.1 -0.1)">
      <use xlink:href="#DejaVuSans-32"/>
      <use xlink:href="#DejaVuSans-2e" x="63.623047"/>
      <use xlink:href="#DejaVuSans-30" x="95.410156"/>
     </g>
    </g>
   </g>
  </g>
  <g id="axis3d_2">
   <g id="line2d_8">
    <path d="M 135.417436 258.506427 
L 308.183051 276.664606 
" style="fill: none; stroke: #000000; stroke-width: 0.8; stroke-linecap: square"/>
   </g>
   <g id="xtick_7">
    <g id="line2d_9">
     <path d="M 289.317436 273.979848 
L 288.527157 276.006293 
" style="fill: none; stroke: #000000; stroke-width: 0.8; stroke-linecap: square"/>
    </g>
    <g id="text_7">
     <!-- 1.0 -->
     <g transform="translate(278.196755 299.141891) scale(0.1 -0.1)">
      <use xlink:href="#DejaVuSans-31"/>
      <use xlink:href="#DejaVuSans-2e" x="63.623047"/>
      <use xlink:href="#DejaVuSans-30" x="95.410156"/>
     </g>
    </g>
   </g>
   <g id="xtick_8">
    <g id="line2d_10">
     <path d="M 263.873174 271.308039 
L 263.018323 273.320297 
" style="fill: none; stroke: #000000; stroke-width: 0.8; stroke-linecap: square"/>
    </g>
    <g id="text_8">
     <!-- 1.2 -->
     <g transform="translate(252.589674 296.389881) scale(0.1 -0.1)">
      <use xlink:href="#DejaVuSans-31"/>
      <use xlink:href="#DejaVuSans-2e" x="63.623047"/>
      <use xlink:href="#DejaVuSans-32" x="95.410156"/>
     </g>
    </g>
   </g>
   <g id="xtick_9">
    <g id="line2d_11">
     <path d="M 238.606506 268.654878 
L 237.688003 270.653097 
" style="fill: none; stroke: #000000; stroke-width: 0.8; stroke-linecap: square"/>
    </g>
    <g id="text_9">
     <!-- 1.4 -->
     <g transform="translate(227.162541 293.657211) scale(0.1 -0.1)">
      <use xlink:href="#DejaVuSans-31"/>
      <use xlink:href="#DejaVuSans-2e" x="63.623047"/>
      <use xlink:href="#DejaVuSans-34" x="95.410156"/>
     </g>
    </g>
   </g>
   <g id="xtick_10">
    <g id="line2d_12">
     <path d="M 213.515579 266.020171 
L 212.53433 268.004498 
" style="fill: none; stroke: #000000; stroke-width: 0.8; stroke-linecap: square"/>
    </g>
    <g id="text_10">
     <!-- 1.6 -->
     <g transform="translate(201.913466 290.943676) scale(0.1 -0.1)">
      <use xlink:href="#DejaVuSans-31"/>
      <use xlink:href="#DejaVuSans-2e" x="63.623047"/>
      <use xlink:href="#DejaVuSans-36" x="95.410156"/>
     </g>
    </g>
   </g>
   <g id="xtick_11">
    <g id="line2d_13">
     <path d="M 188.598565 263.403726 
L 187.555463 265.374305 
" style="fill: none; stroke: #000000; stroke-width: 0.8; stroke-linecap: square"/>
    </g>
    <g id="text_11">
     <!-- 1.8 -->
     <g transform="translate(176.840585 288.249078) scale(0.1 -0.1)">
      <use xlink:href="#DejaVuSans-31"/>
      <use xlink:href="#DejaVuSans-2e" x="63.623047"/>
      <use xlink:href="#DejaVuSans-38" x="95.410156"/>
     </g>
    </g>
   </g>
   <g id="xtick_12">
    <g id="line2d_14">
     <path d="M 163.853664 260.805354 
L 162.749584 262.762327 
" style="fill: none; stroke: #000000; stroke-width: 0.8; stroke-linecap: square"/>
    </g>
    <g id="text_12">
     <!-- 2.0 -->
     <g transform="translate(151.94206 285.573217) scale(0.1 -0.1)">
      <use xlink:href="#DejaVuSans-32"/>
      <use xlink:href="#DejaVuSans-2e" x="63.623047"/>
      <use xlink:href="#DejaVuSans-30" x="95.410156"/>
     </g>
    </g>
   </g>
   <g id="xtick_13">
    <g id="line2d_15">
     <path d="M 139.279097 258.224868 
L 138.114904 260.168376 
" style="fill: none; stroke: #000000; stroke-width: 0.8; stroke-linecap: square"/>
    </g>
    <g id="text_13">
     <!-- 2.2 -->
     <g transform="translate(127.21608 282.9159) scale(0.1 -0.1)">
      <use xlink:href="#DejaVuSans-32"/>
      <use xlink:href="#DejaVuSans-2e" x="63.623047"/>
      <use xlink:href="#DejaVuSans-32" x="95.410156"/>
     </g>
    </g>
   </g>
  </g>
  <g id="axis3d_3">
   <g id="line2d_16">
    <path d="M 135.417436 258.506427 
L 131.285678 137.804834 
" style="fill: none; stroke: #000000; stroke-width: 0.8; stroke-linecap: square"/>
   </g>
   <g id="xtick_14">
    <g id="line2d_17">
     <path d="M 135.5401 250.013578 
L 134.363728 251.939744 
" style="fill: none; stroke: #000000; stroke-width: 0.8; stroke-linecap: square"/>
    </g>
    <g id="text_14">
     <!-- 0.2 -->
     <g transform="translate(108.975369 263.483835) scale(0.1 -0.1)">
      <use xlink:href="#DejaVuSans-30"/>
      <use xlink:href="#DejaVuSans-2e" x="63.623047"/>
      <use xlink:href="#DejaVuSans-32" x="95.410156"/>
     </g>
    </g>
   </g>
   <g id="xtick_15">
    <g id="line2d_18">
     <path d="M 134.931783 232.172256 
L 133.746932 234.062916 
" style="fill: none; stroke: #000000; stroke-width: 0.8; stroke-linecap: square"/>
    </g>
    <g id="text_15">
     <!-- 0.4 -->
     <g transform="translate(108.252676 245.534457) scale(0.1 -0.1)">
      <use xlink:href="#DejaVuSans-30"/>
      <use xlink:href="#DejaVuSans-2e" x="63.623047"/>
      <use xlink:href="#DejaVuSans-34" x="95.410156"/>
     </g>
    </g>
   </g>
   <g id="xtick_16">
    <g id="line2d_19">
     <path d="M 134.316323 214.121427 
L 133.122874 215.975613 
" style="fill: none; stroke: #000000; stroke-width: 0.8; stroke-linecap: square"/>
    </g>
    <g id="text_16">
     <!-- 0.6 -->
     <g transform="translate(107.521427 227.372611) scale(0.1 -0.1)">
      <use xlink:href="#DejaVuSans-30"/>
      <use xlink:href="#DejaVuSans-2e" x="63.623047"/>
      <use xlink:href="#DejaVuSans-36" x="95.410156"/>
     </g>
    </g>
   </g>
   <g id="xtick_17">
    <g id="line2d_20">
     <path d="M 133.693594 195.857382 
L 132.491425 197.674095 
" style="fill: none; stroke: #000000; stroke-width: 0.8; stroke-linecap: square"/>
    </g>
    <g id="text_17">
     <!-- 0.8 -->
     <g transform="translate(106.781472 208.9945) scale(0.1 -0.1)">
      <use xlink:href="#DejaVuSans-30"/>
      <use xlink:href="#DejaVuSans-2e" x="63.623047"/>
      <use xlink:href="#DejaVuSans-38" x="95.410156"/>
     </g>
    </g>
   </g>
   <g id="xtick_18">
    <g id="line2d_21">
     <path d="M 133.063465 177.37632 
L 131.852453 179.154533 
" style="fill: none; stroke: #000000; stroke-width: 0.8; stroke-linecap: square"/>
    </g>
    <g id="text_18">
     <!-- 1.0 -->
     <g transform="translate(106.032652 190.39624) scale(0.1 -0.1)">
      <use xlink:href="#DejaVuSans-31"/>
      <use xlink:href="#DejaVuSans-2e" x="63.623047"/>
      <use xlink:href="#DejaVuSans-30" x="95.410156"/>
     </g>
    </g>
   </g>
   <g id="xtick_19">
    <g id="line2d_22">
     <path d="M 132.425803 158.674348 
L 131.205822 160.413009 
" style="fill: none; stroke: #000000; stroke-width: 0.8; stroke-linecap: square"/>
    </g>
    <g id="text_19">
     <!-- 1.2 -->
     <g transform="translate(105.274809 171.573851) scale(0.1 -0.1)">
      <use xlink:href="#DejaVuSans-31"/>
      <use xlink:href="#DejaVuSans-2e" x="63.623047"/>
      <use xlink:href="#DejaVuSans-32" x="95.410156"/>
     </g>
    </g>
   </g>
   <g id="xtick_20">
    <g id="line2d_23">
     <path d="M 131.780474 139.747484 
L 130.551395 141.445507 
" style="fill: none; stroke: #000000; stroke-width: 0.8; stroke-linecap: square"/>
    </g>
    <g id="text_20">
     <!-- 1.4 -->
     <g transform="translate(104.507777 152.523257) scale(0.1 -0.1)">
      <use xlink:href="#DejaVuSans-31"/>
      <use xlink:href="#DejaVuSans-2e" x="63.623047"/>
      <use xlink:href="#DejaVuSans-34" x="95.410156"/>
     </g>
    </g>
   </g>
  </g>
  <g id="axes_1">
   <g id="line2d_24">
    <path d="M 229.331506 245.179532 
L 230.175978 247.201317 
L 231.397376 248.921432 
L 232.722149 249.969334 
L 232.554193 250.780981 
L 232.722281 250.782574 
L 230.935814 250.458183 
L 227.940228 250.192352 
L 226.358828 252.179591 
L 222.745756 251.488975 
L 217.92189 250.295371 
L 212.718522 247.722484 
L 208.322229 240.758734 
L 203.278296 234.919926 
L 199.850983 228.734572 
L 198.507044 225.580916 
L 197.665194 224.79885 
L 196.720877 224.578338 
L 196.637631 227.149801 
L 195.610851 227.997205 
L 195.941009 229.469294 
L 194.479532 230.586469 
L 192.852516 231.218428 
L 191.541744 231.399235 
L 189.84385 231.400369 
L 187.081984 229.190947 
L 186.452175 226.486204 
L 184.262295 224.830589 
L 184.254788 222.632567 
L 184.550331 218.978316 
L 183.954561 216.562674 
L 183.330091 215.292491 
L 179.357652 211.602173 
L 176.787599 210.121394 
L 175.68245 208.536908 
L 176.419821 207.003924 
L 177.521648 205.714224 
L 179.46635 203.901914 
L 179.990911 202.578443 
L 181.506591 200.547168 
L 184.443205 199.570506 
L 186.48619 198.145541 
L 188.419315 197.314888 
L 190.928927 195.282329 
L 193.014464 192.742519 
L 196.290221 189.598634 
L 198.565495 187.213709 
L 202.276464 186.533761 
L 205.007338 186.230102 
L 204.617817 185.206141 
L 204.050238 184.482564 
L 205.130887 183.632298 
L 206.902252 182.785362 
L 207.278633 181.527423 
L 208.79796 180.712275 
L 211.478986 179.580882 
L 214.429546 179.334659 
L 220.41981 179.838282 
L 227.518595 179.00659 
L 234.872341 179.509802 
L 241.347244 179.275907 
L 250.101068 179.677495 
L 253.383174 178.931897 
L 256.220292 177.94375 
L 257.136284 176.166828 
L 257.855127 175.296116 
L 258.745219 173.670201 
L 259.99872 172.738623 
L 261.945717 171.735459 
L 264.71135 171.744758 
L 267.750801 170.156177 
L 271.075804 170.350446 
L 273.802905 168.710426 
L 278.485794 168.181215 
L 283.449091 169.009446 
L 284.973834 170.986326 
L 288.771651 170.643319 
L 291.746325 171.505328 
L 295.014897 173.79644 
L 296.871212 175.581542 
L 297.69181 176.962456 
L 299.365032 179.204461 
L 299.251358 180.806294 
L 297.985773 180.79179 
L 298.8301 180.852195 
L 299.727002 180.342715 
L 299.52139 181.075277 
L 301.131333 182.43804 
L 303.387086 184.07214 
L 306.786076 186.104476 
L 309.942081 188.654015 
L 312.148972 191.195805 
L 313.189742 193.338382 
L 312.619026 196.613472 
L 311.596695 198.91795 
L 310.050037 201.251775 
L 309.00313 203.584009 
L 307.674958 204.89915 
L 306.434545 207.025944 
L 306.584581 208.532554 
L 306.298535 208.96351 
L 305.464669 209.495047 
L 304.572976 209.667741 
L 302.502682 209.582212 
L 301.879155 209.377112 
L 299.567432 209.464772 
L 297.449156 210.025383 
L 295.879998 209.876397 
L 296.432909 211.393417 
L 296.629136 213.704499 
L 295.63371 214.761668 
L 293.685655 215.772674 
L 292.090233 218.559971 
L 292.739605 220.766049 
L 290.291228 220.148327 
L 287.517096 218.785575 
L 284.424675 217.853515 
L 281.68191 215.351863 
L 280.170575 212.581312 
L 277.137879 211.829561 
L 274.227638 210.798048 
L 271.191958 209.122466 
L 268.323847 209.084916 
L 254.848354 209.78974 
L 249.735715 210.640369 
L 244.756036 211.934911 
L 239.845388 214.495195 
L 235.613846 214.467698 
L 231.718739 214.808515 
L 228.560173 214.662391 
L 225.235714 213.51658 
L 222.745907 213.037242 
L 219.996702 211.090131 
L 216.886628 209.794627 
L 214.184919 211.336568 
L 212.462642 210.176277 
L 210.855784 209.708963 
L 208.555269 207.53767 
L 205.34463 205.646412 
L 202.260274 206.032599 
L 200.183987 205.164159 
L 197.955141 203.879393 
L 195.677823 201.845028 
L 190.800885 200.188122 
L 188.770612 198.561341 
L 187.615223 195.987033 
L 185.938341 191.239664 
L 185.048233 189.526491 
L 184.490845 187.701232 
L 183.811315 184.296157 
L 173.206123 177.951877 
L 167.547308 171.636475 
L 164.301198 168.814412 
L 163.602507 167.904641 
L 165.899155 168.368829 
L 168.80191 169.673445 
L 172.618824 170.559104 
L 176.635612 171.765694 
L 181.247099 172.087014 
L 184.756329 171.982617 
L 187.538815 171.600155 
L 189.493736 171.051643 
L 190.722042 169.486252 
L 186.89084 167.031491 
L 187.000882 165.331695 
L 189.61108 163.761903 
L 189.848617 161.62095 
L 190.949376 159.845478 
L 192.237587 158.044671 
L 194.821933 156.134805 
L 196.257865 155.610594 
L 198.86955 154.830139 
L 201.672348 154.33577 
L 203.113792 154.283071 
L 204.885069 153.657386 
L 207.189 153.736795 
L 210.805221 153.264989 
L 213.322821 152.373528 
L 216.491138 151.40465 
L 217.864632 149.975795 
L 220.216466 148.562471 
L 224.421632 146.530366 
L 223.927696 144.902482 
L 227.196468 144.757501 
L 230.367274 145.216931 
L 232.58738 145.244472 
L 235.115772 144.800195 
L 238.942476 145.27411 
L 243.052075 144.528477 
L 247.734256 143.507242 
L 252.574583 144.406275 
L 257.969053 146.279453 
L 262.050506 146.729131 
L 267.922625 147.886676 
L 270.728018 147.062267 
L 272.307293 146.157901 
L 273.708681 145.619812 
L 275.049636 145.318353 
L 278.760282 143.875317 
L 280.982636 142.650687 
L 283.81579 140.60488 
L 287.096668 138.780705 
L 290.243186 138.459041 
L 293.516331 139.167871 
L 295.856601 140.699414 
L 297.828167 142.298411 
L 299.483936 143.003109 
L 301.462798 143.146281 
L 303.017184 144.165301 
L 305.037057 144.02674 
L 306.324096 145.13442 
L 306.287254 147.316324 
L 307.909914 150.207252 
L 308.806747 151.509035 
L 310.062345 153.602919 
L 311.610221 155.940201 
L 312.43239 157.680903 
L 314.02788 159.350961 
L 313.94212 161.357343 
L 314.47953 163.233267 
L 315.190322 165.070704 
L 312.929309 167.759605 
L 312.472225 169.436302 
L 311.186494 170.248542 
L 310.730014 170.74013 
L 307.432374 170.198513 
L 305.986195 171.270862 
L 305.800595 172.182739 
L 306.14917 172.934069 
L 306.02806 173.273242 
L 304.616463 173.526394 
L 303.78927 174.023335 
L 303.196368 173.207496 
L 298.321861 172.557354 
L 296.007769 171.777528 
L 294.246636 170.490978 
L 291.603364 169.800898 
L 290.231929 169.984089 
L 288.493287 170.961919 
L 286.192283 171.448421 
L 284.423593 172.737879 
L 281.777428 174.461744 
L 278.277879 175.531578 
L 275.598285 176.544256 
L 274.0993 177.513073 
L 271.065661 178.218635 
L 270.157757 179.19431 
L 269.185222 179.921556 
L 266.595469 179.853035 
L 264.289013 179.164229 
L 259.582861 179.206276 
L 254.305413 180.422734 
L 248.283291 179.689683 
L 242.090878 179.228739 
L 237.234471 177.875137 
L 234.63355 176.86591 
L 230.910856 179.038656 
L 227.118537 179.399653 
L 220.642937 178.521639 
L 217.437218 176.995592 
L 215.831305 175.39323 
L 215.767028 173.09402 
L 214.391623 172.18752 
L 214.71317 170.033373 
L 213.198031 168.562757 
L 209.356369 168.685446 
L 206.62284 167.261382 
L 203.631868 166.743971 
L 193.508767 166.04563 
L 188.216296 161.619002 
L 185.219906 160.585849 
L 184.842541 158.250245 
L 184.968733 156.038386 
L 184.706265 154.57596 
L 185.990916 151.045397 
L 179.796937 151.377638 
L 172.455902 153.870638 
L 170.979122 152.084859 
L 171.487393 149.8982 
L 173.367712 145.895368 
L 177.583874 142.949025 
L 181.125628 140.051736 
L 184.698532 138.455167 
L 187.934684 136.855423 
L 191.656678 135.742926 
L 193.025449 134.509088 
L 193.865274 133.336707 
L 194.596753 132.011765 
L 193.654069 129.960815 
L 191.818829 129.407994 
L 186.85961 124.177368 
L 186.029597 123.158048 
L 184.240465 122.205171 
L 185.818752 122.339392 
L 187.898072 122.720658 
L 190.154776 122.152341 
L 192.344184 120.994426 
L 193.727738 119.90846 
L 194.712818 118.819695 
L 196.691431 117.994311 
L 199.259081 117.550114 
L 202.358238 116.711907 
L 201.782317 115.374776 
L 204.119534 114.412959 
L 203.275413 112.826126 
L 206.559683 112.533594 
L 210.051363 111.462141 
L 212.191346 110.601823 
L 216.725932 110.612535 
L 220.861343 108.717393 
L 227.327769 109.776414 
L 228.890989 111.486945 
L 230.135904 113.361314 
L 233.013489 112.156004 
L 238.190162 110.482688 
L 241.624138 107.616727 
L 245.3743 107.14116 
L 251.353462 108.020827 
L 256.345517 109.959592 
L 261.00012 109.688774 
L 270.431971 109.505108 
L 271.745363 109.755613 
L 275.13536 109.323955 
L 275.361392 108.309188 
L 275.090625 107.54276 
L 274.611612 107.491292 
L 278.67717 105.861139 
L 281.035249 103.543792 
L 281.848477 101.465739 
L 284.895288 98.733473 
L 290.862628 96.502728 
L 295.948299 97.09131 
L 298.130123 100.527284 
L 300.905995 102.702901 
L 302.655409 105.287906 
L 303.980873 107.919096 
L 304.113205 111.045311 
L 306.200526 114.485277 
L 308.673089 117.529307 
L 311.012385 120.758735 
L 312.340217 123.236125 
L 314.473444 124.657649 
L 314.877853 126.234047 
L 313.690982 126.837714 
L 313.660616 127.257871 
L 314.403485 128.776542 
L 314.527912 130.024527 
L 313.164452 130.412183 
L 312.962489 131.267553 
L 311.290755 130.926446 
L 308.846365 131.190732 
L 306.480921 131.073166 
L 305.023448 131.374724 
L 304.48772 132.026251 
L 304.256222 133.062979 
L 301.932132 132.86652 
L 300.461999 132.859538 
L 298.901619 133.401364 
L 295.254935 134.034581 
L 293.852408 134.247871 
L 292.328096 133.661478 
L 289.790796 134.073317 
L 288.368287 134.087664 
L 284.167636 135.679741 
L 281.257501 136.196664 
L 279.799624 137.996622 
L 278.163089 138.765474 
L 275.707347 139.264557 
L 274.210926 139.293079 
L 266.751817 139.226357 
L 266.751817 139.226357 
" clip-path="url(#p86979a9887)" style="fill: none; stroke: #1f77b4; stroke-width: 1.5; stroke-linecap: square"/>
   </g>
   <g id="line2d_25">
    <path d="M 231.616936 247.771386 
L 225.848129 246.523225 
L 220.261089 245.040168 
L 214.909975 243.332849 
L 209.845993 241.414201 
L 205.116801 239.299258 
L 200.765997 237.004926 
L 196.832689 234.549732 
L 193.35114 231.953563 
L 190.350508 229.237396 
L 187.854675 226.42302 
L 186.802053 224.98597 
L 185.882151 223.532772 
L 185.09644 222.06626 
L 184.446062 220.589269 
L 183.931824 219.104631 
L 183.554211 217.615164 
L 183.313387 216.123667 
L 183.209201 214.632912 
L 183.241194 213.14564 
L 183.408609 211.664555 
L 183.710393 210.192316 
L 184.145212 208.731532 
L 184.711456 207.284762 
L 185.407248 205.854504 
L 186.230455 204.443195 
L 187.178699 203.053206 
L 189.439604 200.346319 
L 192.166368 197.75136 
L 195.332094 195.284596 
L 198.906898 192.960971 
L 202.858229 190.794051 
L 207.151175 188.795982 
L 211.748763 186.977456 
L 216.612238 185.347698 
L 221.701341 183.914443 
L 226.974559 182.683937 
L 232.389382 181.660926 
L 237.902531 180.848664 
L 243.470193 180.248908 
L 249.048244 179.861928 
L 254.592467 179.686504 
L 260.058777 179.71994 
L 265.403445 179.958062 
L 270.583328 180.395229 
L 275.556106 181.024345 
L 280.280535 181.836867 
L 284.71671 182.822824 
L 288.826337 183.97084 
L 292.573026 185.268164 
L 295.922594 186.70071 
L 298.843386 188.253106 
L 301.306596 189.908759 
L 303.286611 191.649936 
L 304.76134 193.457855 
L 305.303367 194.380715 
L 305.712558 195.312802 
L 305.987291 196.251527 
L 306.126226 197.194262 
L 306.128315 198.138343 
L 305.992806 199.081075 
L 305.719259 200.019742 
L 305.307544 200.951607 
L 304.757855 201.873924 
L 304.070716 202.783943 
L 303.24698 203.678914 
L 301.194832 205.412779 
L 298.615055 207.053869 
L 295.526792 208.58106 
L 291.954666 209.974017 
L 287.928677 211.213451 
L 283.484007 212.281377 
L 278.660747 213.161372 
L 273.503526 213.838808 
L 268.06105 214.301074 
L 262.38557 214.537773 
L 256.53227 214.540881 
L 250.558592 214.304883 
L 244.523519 213.826854 
L 238.486816 213.106515 
L 232.508263 212.146232 
L 226.646883 210.950978 
L 220.96019 209.528253 
L 215.503466 207.887958 
L 210.329097 206.042243 
L 205.485961 204.005307 
L 201.018894 201.79319 
L 196.968238 199.423529 
L 193.369471 196.915307 
L 190.252931 194.288589 
L 187.643624 191.56426 
L 186.535513 190.172177 
L 185.561122 188.763762 
L 184.722046 187.341741 
L 184.019539 185.908842 
L 183.454522 184.467791 
L 183.027582 183.021304 
L 182.738982 181.572079 
L 182.588666 180.122791 
L 182.576261 178.676083 
L 182.701091 177.234567 
L 182.962181 175.80081 
L 183.358265 174.377336 
L 183.887796 172.966617 
L 184.548958 171.571071 
L 185.33967 170.193056 
L 186.2576 168.834867 
L 188.464582 166.186815 
L 191.146583 163.643897 
L 194.276897 161.221901 
L 197.825757 158.935346 
L 201.760663 156.797434 
L 206.046686 154.820004 
L 210.646779 153.013502 
L 215.522061 151.386968 
L 220.632092 149.948012 
L 225.935137 148.702817 
L 231.388417 147.65613 
L 236.948346 146.811267 
L 242.57076 146.170113 
L 248.21115 145.733126 
L 253.824873 145.499342 
L 259.367381 145.466381 
L 264.794444 145.63045 
L 270.062378 145.986355 
L 275.128281 146.527504 
L 279.95029 147.245923 
L 284.487831 148.132266 
L 288.701905 149.175843 
L 292.555373 150.364639 
L 296.01326 151.685353 
L 299.043078 153.123448 
L 301.615152 154.663203 
L 303.702961 156.287788 
L 305.283482 157.979354 
L 305.877355 158.844424 
L 306.33753 159.719136 
L 306.662264 160.601024 
L 306.850095 161.487577 
L 306.899851 162.376253 
L 306.81066 163.264475 
L 306.581958 164.149643 
L 306.213496 165.029139 
L 305.705351 165.90033 
L 305.057928 166.760579 
L 304.271967 167.607246 
L 302.289101 169.249327 
L 299.769552 170.805738 
L 296.731685 172.25611 
L 293.199433 173.58079 
L 289.202205 174.761083 
L 284.774712 175.779513 
L 279.956698 176.620059 
L 274.792587 177.268393 
L 269.331029 177.712091 
L 263.624374 177.940828 
L 257.728057 177.946541 
L 251.699933 177.723556 
L 245.599542 177.268685 
L 239.487356 176.581274 
L 233.423988 175.663216 
L 227.469414 174.518917 
L 221.682201 173.155226 
L 216.118768 171.581321 
L 210.832696 169.808562 
L 205.874103 167.850309 
L 201.289084 165.721717 
L 197.11924 163.439508 
L 193.40129 161.02173 
L 190.166778 158.487505 
L 187.441863 155.856771 
L 186.277177 154.511607 
L 185.247205 153.150034 
L 184.353665 151.774666 
L 183.597929 150.388119 
L 182.981033 148.993006 
L 182.503671 147.591934 
L 182.166208 146.187493 
L 181.968683 144.782254 
L 181.910814 143.378758 
L 181.992009 141.979515 
L 182.21137 140.586997 
L 182.567703 139.203633 
L 183.05953 137.831802 
L 183.685091 136.473835 
L 184.442361 135.132004 
L 185.329057 133.808523 
L 186.342647 132.505542 
L 188.739207 129.96935 
L 191.607227 127.539263 
L 194.918593 125.229943 
L 198.642217 123.054812 
L 202.744368 121.026015 
L 207.188979 119.154377 
L 211.937951 117.449387 
L 216.951437 115.919177 
L 222.188116 114.570514 
L 227.605454 113.408799 
L 233.159948 112.438065 
L 238.807366 111.660976 
L 244.502975 111.078836 
L 250.201762 110.69159 
L 255.85866 110.497831 
L 261.428768 110.494804 
L 266.867575 110.678413 
L 272.131196 111.043226 
L 277.176614 111.582489 
L 281.961931 112.288132 
L 286.446637 113.150788 
L 290.591894 114.159813 
L 294.360832 115.303312 
L 297.718861 116.568182 
L 300.634 117.940152 
L 303.077213 119.403845 
L 305.022757 120.942854 
L 306.448527 122.539826 
L 306.960671 123.354395 
L 307.336407 124.176575 
L 307.57415 125.003983 
L 307.672604 125.834199 
L 307.630772 126.664771 
L 307.447966 127.493225 
L 307.123817 128.317063 
L 306.658279 129.133775 
L 306.051637 129.940842 
L 305.304516 130.735742 
L 303.393052 132.278985 
L 300.935815 133.743549 
L 297.950369 135.109883 
L 294.459931 136.35908 
L 290.493295 137.473113 
L 286.084672 138.435078 
L 281.273438 139.229429 
L 276.103788 139.842202 
L 270.624294 140.261228 
L 264.887383 140.476317 
L 258.94873 140.479421 
L 252.866586 140.264764 
L 246.701043 139.828938 
L 240.513271 139.170953 
L 234.36472 138.292263 
L 231.324235 137.771268 
L 231.324235 137.771268 
" clip-path="url(#p86979a9887)" style="fill: none; stroke: #ff7f0e; stroke-width: 1.5; stroke-linecap: square"/>
   </g>
   <g id="text_21">
    <!-- Trajectory with: 40seconds, 30pieces, PID -->
    <g transform="translate(111.259688 35.472) scale(0.12 -0.12)">
     <defs>
      <path id="DejaVuSans-54" d="M -19 4666 
L 3928 4666 
L 3928 4134 
L 2272 4134 
L 2272 0 
L 1638 0 
L 1638 4134 
L -19 4134 
L -19 4666 
z
" transform="scale(0.015625)"/>
      <path id="DejaVuSans-72" d="M 2631 2963 
Q 2534 3019 2420 3045 
Q 2306 3072 2169 3072 
Q 1681 3072 1420 2755 
Q 1159 2438 1159 1844 
L 1159 0 
L 581 0 
L 581 3500 
L 1159 3500 
L 1159 2956 
Q 1341 3275 1631 3429 
Q 1922 3584 2338 3584 
Q 2397 3584 2469 3576 
Q 2541 3569 2628 3553 
L 2631 2963 
z
" transform="scale(0.015625)"/>
      <path id="DejaVuSans-61" d="M 2194 1759 
Q 1497 1759 1228 1600 
Q 959 1441 959 1056 
Q 959 750 1161 570 
Q 1363 391 1709 391 
Q 2188 391 2477 730 
Q 2766 1069 2766 1631 
L 2766 1759 
L 2194 1759 
z
M 3341 1997 
L 3341 0 
L 2766 0 
L 2766 531 
Q 2569 213 2275 61 
Q 1981 -91 1556 -91 
Q 1019 -91 701 211 
Q 384 513 384 1019 
Q 384 1609 779 1909 
Q 1175 2209 1959 2209 
L 2766 2209 
L 2766 2266 
Q 2766 2663 2505 2880 
Q 2244 3097 1772 3097 
Q 1472 3097 1187 3025 
Q 903 2953 641 2809 
L 641 3341 
Q 956 3463 1253 3523 
Q 1550 3584 1831 3584 
Q 2591 3584 2966 3190 
Q 3341 2797 3341 1997 
z
" transform="scale(0.015625)"/>
      <path id="DejaVuSans-6a" d="M 603 3500 
L 1178 3500 
L 1178 -63 
Q 1178 -731 923 -1031 
Q 669 -1331 103 -1331 
L -116 -1331 
L -116 -844 
L 38 -844 
Q 366 -844 484 -692 
Q 603 -541 603 -63 
L 603 3500 
z
M 603 4863 
L 1178 4863 
L 1178 4134 
L 603 4134 
L 603 4863 
z
" transform="scale(0.015625)"/>
      <path id="DejaVuSans-65" d="M 3597 1894 
L 3597 1613 
L 953 1613 
Q 991 1019 1311 708 
Q 1631 397 2203 397 
Q 2534 397 2845 478 
Q 3156 559 3463 722 
L 3463 178 
Q 3153 47 2828 -22 
Q 2503 -91 2169 -91 
Q 1331 -91 842 396 
Q 353 884 353 1716 
Q 353 2575 817 3079 
Q 1281 3584 2069 3584 
Q 2775 3584 3186 3129 
Q 3597 2675 3597 1894 
z
M 3022 2063 
Q 3016 2534 2758 2815 
Q 2500 3097 2075 3097 
Q 1594 3097 1305 2825 
Q 1016 2553 972 2059 
L 3022 2063 
z
" transform="scale(0.015625)"/>
      <path id="DejaVuSans-63" d="M 3122 3366 
L 3122 2828 
Q 2878 2963 2633 3030 
Q 2388 3097 2138 3097 
Q 1578 3097 1268 2742 
Q 959 2388 959 1747 
Q 959 1106 1268 751 
Q 1578 397 2138 397 
Q 2388 397 2633 464 
Q 2878 531 3122 666 
L 3122 134 
Q 2881 22 2623 -34 
Q 2366 -91 2075 -91 
Q 1284 -91 818 406 
Q 353 903 353 1747 
Q 353 2603 823 3093 
Q 1294 3584 2113 3584 
Q 2378 3584 2631 3529 
Q 2884 3475 3122 3366 
z
" transform="scale(0.015625)"/>
      <path id="DejaVuSans-74" d="M 1172 4494 
L 1172 3500 
L 2356 3500 
L 2356 3053 
L 1172 3053 
L 1172 1153 
Q 1172 725 1289 603 
Q 1406 481 1766 481 
L 2356 481 
L 2356 0 
L 1766 0 
Q 1100 0 847 248 
Q 594 497 594 1153 
L 594 3053 
L 172 3053 
L 172 3500 
L 594 3500 
L 594 4494 
L 1172 4494 
z
" transform="scale(0.015625)"/>
      <path id="DejaVuSans-6f" d="M 1959 3097 
Q 1497 3097 1228 2736 
Q 959 2375 959 1747 
Q 959 1119 1226 758 
Q 1494 397 1959 397 
Q 2419 397 2687 759 
Q 2956 1122 2956 1747 
Q 2956 2369 2687 2733 
Q 2419 3097 1959 3097 
z
M 1959 3584 
Q 2709 3584 3137 3096 
Q 3566 2609 3566 1747 
Q 3566 888 3137 398 
Q 2709 -91 1959 -91 
Q 1206 -91 779 398 
Q 353 888 353 1747 
Q 353 2609 779 3096 
Q 1206 3584 1959 3584 
z
" transform="scale(0.015625)"/>
      <path id="DejaVuSans-79" d="M 2059 -325 
Q 1816 -950 1584 -1140 
Q 1353 -1331 966 -1331 
L 506 -1331 
L 506 -850 
L 844 -850 
Q 1081 -850 1212 -737 
Q 1344 -625 1503 -206 
L 1606 56 
L 191 3500 
L 800 3500 
L 1894 763 
L 2988 3500 
L 3597 3500 
L 2059 -325 
z
" transform="scale(0.015625)"/>
      <path id="DejaVuSans-20" transform="scale(0.015625)"/>
      <path id="DejaVuSans-77" d="M 269 3500 
L 844 3500 
L 1563 769 
L 2278 3500 
L 2956 3500 
L 3675 769 
L 4391 3500 
L 4966 3500 
L 4050 0 
L 3372 0 
L 2619 2869 
L 1863 0 
L 1184 0 
L 269 3500 
z
" transform="scale(0.015625)"/>
      <path id="DejaVuSans-69" d="M 603 3500 
L 1178 3500 
L 1178 0 
L 603 0 
L 603 3500 
z
M 603 4863 
L 1178 4863 
L 1178 4134 
L 603 4134 
L 603 4863 
z
" transform="scale(0.015625)"/>
      <path id="DejaVuSans-68" d="M 3513 2113 
L 3513 0 
L 2938 0 
L 2938 2094 
Q 2938 2591 2744 2837 
Q 2550 3084 2163 3084 
Q 1697 3084 1428 2787 
Q 1159 2491 1159 1978 
L 1159 0 
L 581 0 
L 581 4863 
L 1159 4863 
L 1159 2956 
Q 1366 3272 1645 3428 
Q 1925 3584 2291 3584 
Q 2894 3584 3203 3211 
Q 3513 2838 3513 2113 
z
" transform="scale(0.015625)"/>
      <path id="DejaVuSans-3a" d="M 750 794 
L 1409 794 
L 1409 0 
L 750 0 
L 750 794 
z
M 750 3309 
L 1409 3309 
L 1409 2516 
L 750 2516 
L 750 3309 
z
" transform="scale(0.015625)"/>
      <path id="DejaVuSans-73" d="M 2834 3397 
L 2834 2853 
Q 2591 2978 2328 3040 
Q 2066 3103 1784 3103 
Q 1356 3103 1142 2972 
Q 928 2841 928 2578 
Q 928 2378 1081 2264 
Q 1234 2150 1697 2047 
L 1894 2003 
Q 2506 1872 2764 1633 
Q 3022 1394 3022 966 
Q 3022 478 2636 193 
Q 2250 -91 1575 -91 
Q 1294 -91 989 -36 
Q 684 19 347 128 
L 347 722 
Q 666 556 975 473 
Q 1284 391 1588 391 
Q 1994 391 2212 530 
Q 2431 669 2431 922 
Q 2431 1156 2273 1281 
Q 2116 1406 1581 1522 
L 1381 1569 
Q 847 1681 609 1914 
Q 372 2147 372 2553 
Q 372 3047 722 3315 
Q 1072 3584 1716 3584 
Q 2034 3584 2315 3537 
Q 2597 3491 2834 3397 
z
" transform="scale(0.015625)"/>
      <path id="DejaVuSans-6e" d="M 3513 2113 
L 3513 0 
L 2938 0 
L 2938 2094 
Q 2938 2591 2744 2837 
Q 2550 3084 2163 3084 
Q 1697 3084 1428 2787 
Q 1159 2491 1159 1978 
L 1159 0 
L 581 0 
L 581 3500 
L 1159 3500 
L 1159 2956 
Q 1366 3272 1645 3428 
Q 1925 3584 2291 3584 
Q 2894 3584 3203 3211 
Q 3513 2838 3513 2113 
z
" transform="scale(0.015625)"/>
      <path id="DejaVuSans-64" d="M 2906 2969 
L 2906 4863 
L 3481 4863 
L 3481 0 
L 2906 0 
L 2906 525 
Q 2725 213 2448 61 
Q 2172 -91 1784 -91 
Q 1150 -91 751 415 
Q 353 922 353 1747 
Q 353 2572 751 3078 
Q 1150 3584 1784 3584 
Q 2172 3584 2448 3432 
Q 2725 3281 2906 2969 
z
M 947 1747 
Q 947 1113 1208 752 
Q 1469 391 1925 391 
Q 2381 391 2643 752 
Q 2906 1113 2906 1747 
Q 2906 2381 2643 2742 
Q 2381 3103 1925 3103 
Q 1469 3103 1208 2742 
Q 947 2381 947 1747 
z
" transform="scale(0.015625)"/>
      <path id="DejaVuSans-2c" d="M 750 794 
L 1409 794 
L 1409 256 
L 897 -744 
L 494 -744 
L 750 256 
L 750 794 
z
" transform="scale(0.015625)"/>
      <path id="DejaVuSans-33" d="M 2597 2516 
Q 3050 2419 3304 2112 
Q 3559 1806 3559 1356 
Q 3559 666 3084 287 
Q 2609 -91 1734 -91 
Q 1441 -91 1130 -33 
Q 819 25 488 141 
L 488 750 
Q 750 597 1062 519 
Q 1375 441 1716 441 
Q 2309 441 2620 675 
Q 2931 909 2931 1356 
Q 2931 1769 2642 2001 
Q 2353 2234 1838 2234 
L 1294 2234 
L 1294 2753 
L 1863 2753 
Q 2328 2753 2575 2939 
Q 2822 3125 2822 3475 
Q 2822 3834 2567 4026 
Q 2313 4219 1838 4219 
Q 1578 4219 1281 4162 
Q 984 4106 628 3988 
L 628 4550 
Q 988 4650 1302 4700 
Q 1616 4750 1894 4750 
Q 2613 4750 3031 4423 
Q 3450 4097 3450 3541 
Q 3450 3153 3228 2886 
Q 3006 2619 2597 2516 
z
" transform="scale(0.015625)"/>
      <path id="DejaVuSans-70" d="M 1159 525 
L 1159 -1331 
L 581 -1331 
L 581 3500 
L 1159 3500 
L 1159 2969 
Q 1341 3281 1617 3432 
Q 1894 3584 2278 3584 
Q 2916 3584 3314 3078 
Q 3713 2572 3713 1747 
Q 3713 922 3314 415 
Q 2916 -91 2278 -91 
Q 1894 -91 1617 61 
Q 1341 213 1159 525 
z
M 3116 1747 
Q 3116 2381 2855 2742 
Q 2594 3103 2138 3103 
Q 1681 3103 1420 2742 
Q 1159 2381 1159 1747 
Q 1159 1113 1420 752 
Q 1681 391 2138 391 
Q 2594 391 2855 752 
Q 3116 1113 3116 1747 
z
" transform="scale(0.015625)"/>
      <path id="DejaVuSans-50" d="M 1259 4147 
L 1259 2394 
L 2053 2394 
Q 2494 2394 2734 2622 
Q 2975 2850 2975 3272 
Q 2975 3691 2734 3919 
Q 2494 4147 2053 4147 
L 1259 4147 
z
M 628 4666 
L 2053 4666 
Q 2838 4666 3239 4311 
Q 3641 3956 3641 3272 
Q 3641 2581 3239 2228 
Q 2838 1875 2053 1875 
L 1259 1875 
L 1259 0 
L 628 0 
L 628 4666 
z
" transform="scale(0.015625)"/>
      <path id="DejaVuSans-49" d="M 628 4666 
L 1259 4666 
L 1259 0 
L 628 0 
L 628 4666 
z
" transform="scale(0.015625)"/>
      <path id="DejaVuSans-44" d="M 1259 4147 
L 1259 519 
L 2022 519 
Q 2988 519 3436 956 
Q 3884 1394 3884 2338 
Q 3884 3275 3436 3711 
Q 2988 4147 2022 4147 
L 1259 4147 
z
M 628 4666 
L 1925 4666 
Q 3281 4666 3915 4102 
Q 4550 3538 4550 2338 
Q 4550 1131 3912 565 
Q 3275 0 1925 0 
L 628 0 
L 628 4666 
z
" transform="scale(0.015625)"/>
     </defs>
     <use xlink:href="#DejaVuSans-54"/>
     <use xlink:href="#DejaVuSans-72" x="46.333984"/>
     <use xlink:href="#DejaVuSans-61" x="87.447266"/>
     <use xlink:href="#DejaVuSans-6a" x="148.726562"/>
     <use xlink:href="#DejaVuSans-65" x="176.509766"/>
     <use xlink:href="#DejaVuSans-63" x="238.033203"/>
     <use xlink:href="#DejaVuSans-74" x="293.013672"/>
     <use xlink:href="#DejaVuSans-6f" x="332.222656"/>
     <use xlink:href="#DejaVuSans-72" x="393.404297"/>
     <use xlink:href="#DejaVuSans-79" x="434.517578"/>
     <use xlink:href="#DejaVuSans-20" x="493.697266"/>
     <use xlink:href="#DejaVuSans-77" x="525.484375"/>
     <use xlink:href="#DejaVuSans-69" x="607.271484"/>
     <use xlink:href="#DejaVuSans-74" x="635.054688"/>
     <use xlink:href="#DejaVuSans-68" x="674.263672"/>
     <use xlink:href="#DejaVuSans-3a" x="737.642578"/>
     <use xlink:href="#DejaVuSans-20" x="771.333984"/>
     <use xlink:href="#DejaVuSans-34" x="803.121094"/>
     <use xlink:href="#DejaVuSans-30" x="866.744141"/>
     <use xlink:href="#DejaVuSans-73" x="930.367188"/>
     <use xlink:href="#DejaVuSans-65" x="982.466797"/>
     <use xlink:href="#DejaVuSans-63" x="1043.990234"/>
     <use xlink:href="#DejaVuSans-6f" x="1098.970703"/>
     <use xlink:href="#DejaVuSans-6e" x="1160.152344"/>
     <use xlink:href="#DejaVuSans-64" x="1223.53125"/>
     <use xlink:href="#DejaVuSans-73" x="1287.007812"/>
     <use xlink:href="#DejaVuSans-2c" x="1339.107422"/>
     <use xlink:href="#DejaVuSans-20" x="1370.894531"/>
     <use xlink:href="#DejaVuSans-33" x="1402.681641"/>
     <use xlink:href="#DejaVuSans-30" x="1466.304688"/>
     <use xlink:href="#DejaVuSans-70" x="1529.927734"/>
     <use xlink:href="#DejaVuSans-69" x="1593.404297"/>
     <use xlink:href="#DejaVuSans-65" x="1621.1875"/>
     <use xlink:href="#DejaVuSans-63" x="1682.710938"/>
     <use xlink:href="#DejaVuSans-65" x="1737.691406"/>
     <use xlink:href="#DejaVuSans-73" x="1799.214844"/>
     <use xlink:href="#DejaVuSans-2c" x="1851.314453"/>
     <use xlink:href="#DejaVuSans-20" x="1883.101562"/>
     <use xlink:href="#DejaVuSans-50" x="1914.888672"/>
     <use xlink:href="#DejaVuSans-49" x="1975.191406"/>
     <use xlink:href="#DejaVuSans-44" x="2004.683594"/>
    </g>
   </g>
   <g id="legend_1">
    <g id="patch_6">
     <path d="M 211.183187 78.82825 
L 362.216 78.82825 
Q 364.216 78.82825 364.216 76.82825 
L 364.216 48.472 
Q 364.216 46.472 362.216 46.472 
L 211.183187 46.472 
Q 209.183187 46.472 209.183187 48.472 
L 209.183187 76.82825 
Q 209.183187 78.82825 211.183187 78.82825 
z
" style="fill: #ffffff; opacity: 0.8; stroke: #cccccc; stroke-linejoin: miter"/>
    </g>
    <g id="line2d_26">
     <path d="M 213.183187 54.570437 
L 223.183187 54.570437 
L 233.183187 54.570437 
" style="fill: none; stroke: #1f77b4; stroke-width: 1.5; stroke-linecap: square"/>
    </g>
    <g id="text_22">
     <!-- 3D input trajectory -->
     <g transform="translate(241.183187 58.070437) scale(0.1 -0.1)">
      <defs>
       <path id="DejaVuSans-75" d="M 544 1381 
L 544 3500 
L 1119 3500 
L 1119 1403 
Q 1119 906 1312 657 
Q 1506 409 1894 409 
Q 2359 409 2629 706 
Q 2900 1003 2900 1516 
L 2900 3500 
L 3475 3500 
L 3475 0 
L 2900 0 
L 2900 538 
Q 2691 219 2414 64 
Q 2138 -91 1772 -91 
Q 1169 -91 856 284 
Q 544 659 544 1381 
z
M 1991 3584 
L 1991 3584 
z
" transform="scale(0.015625)"/>
      </defs>
      <use xlink:href="#DejaVuSans-33"/>
      <use xlink:href="#DejaVuSans-44" x="63.623047"/>
      <use xlink:href="#DejaVuSans-20" x="140.625"/>
      <use xlink:href="#DejaVuSans-69" x="172.412109"/>
      <use xlink:href="#DejaVuSans-6e" x="200.195312"/>
      <use xlink:href="#DejaVuSans-70" x="263.574219"/>
      <use xlink:href="#DejaVuSans-75" x="327.050781"/>
      <use xlink:href="#DejaVuSans-74" x="390.429688"/>
      <use xlink:href="#DejaVuSans-20" x="429.638672"/>
      <use xlink:href="#DejaVuSans-74" x="461.425781"/>
      <use xlink:href="#DejaVuSans-72" x="500.634766"/>
      <use xlink:href="#DejaVuSans-61" x="541.748047"/>
      <use xlink:href="#DejaVuSans-6a" x="603.027344"/>
      <use xlink:href="#DejaVuSans-65" x="630.810547"/>
      <use xlink:href="#DejaVuSans-63" x="692.333984"/>
      <use xlink:href="#DejaVuSans-74" x="747.314453"/>
      <use xlink:href="#DejaVuSans-6f" x="786.523438"/>
      <use xlink:href="#DejaVuSans-72" x="847.705078"/>
      <use xlink:href="#DejaVuSans-79" x="888.818359"/>
     </g>
    </g>
    <g id="line2d_27">
     <path d="M 213.183187 69.248562 
L 223.183187 69.248562 
L 233.183187 69.248562 
" style="fill: none; stroke: #ff7f0e; stroke-width: 1.5; stroke-linecap: square"/>
    </g>
    <g id="text_23">
     <!-- 3D measured trajectory -->
     <g transform="translate(241.183187 72.748562) scale(0.1 -0.1)">
      <defs>
       <path id="DejaVuSans-6d" d="M 3328 2828 
Q 3544 3216 3844 3400 
Q 4144 3584 4550 3584 
Q 5097 3584 5394 3201 
Q 5691 2819 5691 2113 
L 5691 0 
L 5113 0 
L 5113 2094 
Q 5113 2597 4934 2840 
Q 4756 3084 4391 3084 
Q 3944 3084 3684 2787 
Q 3425 2491 3425 1978 
L 3425 0 
L 2847 0 
L 2847 2094 
Q 2847 2600 2669 2842 
Q 2491 3084 2119 3084 
Q 1678 3084 1418 2786 
Q 1159 2488 1159 1978 
L 1159 0 
L 581 0 
L 581 3500 
L 1159 3500 
L 1159 2956 
Q 1356 3278 1631 3431 
Q 1906 3584 2284 3584 
Q 2666 3584 2933 3390 
Q 3200 3197 3328 2828 
z
" transform="scale(0.015625)"/>
      </defs>
      <use xlink:href="#DejaVuSans-33"/>
      <use xlink:href="#DejaVuSans-44" x="63.623047"/>
      <use xlink:href="#DejaVuSans-20" x="140.625"/>
      <use xlink:href="#DejaVuSans-6d" x="172.412109"/>
      <use xlink:href="#DejaVuSans-65" x="269.824219"/>
      <use xlink:href="#DejaVuSans-61" x="331.347656"/>
      <use xlink:href="#DejaVuSans-73" x="392.626953"/>
      <use xlink:href="#DejaVuSans-75" x="444.726562"/>
      <use xlink:href="#DejaVuSans-72" x="508.105469"/>
      <use xlink:href="#DejaVuSans-65" x="546.96875"/>
      <use xlink:href="#DejaVuSans-64" x="608.492188"/>
      <use xlink:href="#DejaVuSans-20" x="671.96875"/>
      <use xlink:href="#DejaVuSans-74" x="703.755859"/>
      <use xlink:href="#DejaVuSans-72" x="742.964844"/>
      <use xlink:href="#DejaVuSans-61" x="784.078125"/>
      <use xlink:href="#DejaVuSans-6a" x="845.357422"/>
      <use xlink:href="#DejaVuSans-65" x="873.140625"/>
      <use xlink:href="#DejaVuSans-63" x="934.664062"/>
      <use xlink:href="#DejaVuSans-74" x="989.644531"/>
      <use xlink:href="#DejaVuSans-6f" x="1028.853516"/>
      <use xlink:href="#DejaVuSans-72" x="1090.035156"/>
      <use xlink:href="#DejaVuSans-79" x="1131.148438"/>
     </g>
    </g>
   </g>
  </g>
 </g>
 <defs>
  <clipPath id="p86979a9887">
   <rect x="103.104" y="41.472" width="266.112" height="266.112"/>
  </clipPath>
 </defs>
</svg>
