<?xml version="1.0" encoding="utf-8" standalone="no"?>
<!DOCTYPE svg PUBLIC "-//W3C//DTD SVG 1.1//EN"
  "http://www.w3.org/Graphics/SVG/1.1/DTD/svg11.dtd">
<svg xmlns:xlink="http://www.w3.org/1999/xlink" width="460.8pt" height="345.6pt" viewBox="0 0 460.8 345.6" xmlns="http://www.w3.org/2000/svg" version="1.1">
 <metadata>
  <rdf:RDF xmlns:dc="http://purl.org/dc/elements/1.1/" xmlns:cc="http://creativecommons.org/ns#" xmlns:rdf="http://www.w3.org/1999/02/22-rdf-syntax-ns#">
   <cc:Work>
    <dc:type rdf:resource="http://purl.org/dc/dcmitype/StillImage"/>
    <dc:date>2024-02-09T17:20:44.470506</dc:date>
    <dc:format>image/svg+xml</dc:format>
    <dc:creator>
     <cc:Agent>
      <dc:title>Matplotlib v3.8.2, https://matplotlib.org/</dc:title>
     </cc:Agent>
    </dc:creator>
   </cc:Work>
  </rdf:RDF>
 </metadata>
 <defs>
  <style type="text/css">*{stroke-linejoin: round; stroke-linecap: butt}</style>
 </defs>
 <g id="figure_1">
  <g id="patch_1">
   <path d="M 0 345.6 
L 460.8 345.6 
L 460.8 0 
L 0 0 
z
" style="fill: #ffffff"/>
  </g>
  <g id="patch_2">
   <path d="M 103.104 307.584 
L 369.216 307.584 
L 369.216 41.472 
L 103.104 41.472 
z
" style="fill: #ffffff"/>
  </g>
  <g id="pane3d_1">
   <g id="patch_3">
    <path d="M 347.238797 189.152934 
L 199.992783 145.887874 
L 197.698148 51.237443 
L 353.667765 93.635045 
" style="fill: #f2f2f2; opacity: 0.5; stroke: #f2f2f2; stroke-linejoin: miter"/>
   </g>
  </g>
  <g id="pane3d_2">
   <g id="patch_4">
    <path d="M 127.47817 247.120149 
L 199.992783 145.887874 
L 197.698148 51.237443 
L 120.443988 150.705461 
" style="fill: #e6e6e6; opacity: 0.5; stroke: #e6e6e6; stroke-linejoin: miter"/>
   </g>
  </g>
  <g id="pane3d_3">
   <g id="patch_5">
    <path d="M 284.328032 297.780933 
L 347.238797 189.152934 
L 199.992783 145.887874 
L 127.47817 247.120149 
" style="fill: #ececec; opacity: 0.5; stroke: #ececec; stroke-linejoin: miter"/>
   </g>
  </g>
  <g id="grid3d_1">
   <g id="Line3DCollection_1">
    <path d="M 289.359087 289.093811 
L 133.262442 239.045155 
L 126.632808 142.737092 
" style="fill: none; stroke: #b0b0b0; stroke-width: 0.8"/>
    <path d="M 300.714593 269.486263 
L 146.327468 220.806042 
L 140.594633 124.760648 
" style="fill: none; stroke: #b0b0b0; stroke-width: 0.8"/>
    <path d="M 311.756247 250.420642 
L 159.043965 203.053483 
L 154.161476 107.292761 
" style="fill: none; stroke: #b0b0b0; stroke-width: 0.8"/>
    <path d="M 322.496885 231.874786 
L 171.425697 185.768266 
L 167.349864 90.31215 
" style="fill: none; stroke: #b0b0b0; stroke-width: 0.8"/>
    <path d="M 332.94865 213.827726 
L 183.48571 168.932175 
L 180.175415 73.798708 
" style="fill: none; stroke: #b0b0b0; stroke-width: 0.8"/>
    <path d="M 343.123041 196.259607 
L 195.236383 152.527932 
L 192.652899 57.733416 
" style="fill: none; stroke: #b0b0b0; stroke-width: 0.8"/>
   </g>
  </g>
  <g id="grid3d_2">
   <g id="Line3DCollection_2">
    <path d="M 339.295629 89.728232 
L 333.695004 185.173383 
L 269.86441 293.109342 
" style="fill: none; stroke: #b0b0b0; stroke-width: 0.8"/>
    <path d="M 313.07908 82.601723 
L 308.97667 177.910435 
L 243.486408 284.589537 
" style="fill: none; stroke: #b0b0b0; stroke-width: 0.8"/>
    <path d="M 287.172111 75.559369 
L 284.533985 170.72848 
L 217.426778 276.172562 
" style="fill: none; stroke: #b0b0b0; stroke-width: 0.8"/>
    <path d="M 261.569273 68.599687 
L 260.362364 163.626171 
L 191.67979 267.856568 
" style="fill: none; stroke: #b0b0b0; stroke-width: 0.8"/>
    <path d="M 236.265239 61.721229 
L 236.457322 156.602191 
L 166.239854 259.639747 
" style="fill: none; stroke: #b0b0b0; stroke-width: 0.8"/>
    <path d="M 211.25481 54.922583 
L 212.814473 149.655251 
L 141.101507 251.520337 
" style="fill: none; stroke: #b0b0b0; stroke-width: 0.8"/>
   </g>
  </g>
  <g id="grid3d_3">
   <g id="Line3DCollection_3">
    <path d="M 127.345624 245.303398 
L 199.949347 144.096191 
L 347.360256 187.348356 
" style="fill: none; stroke: #b0b0b0; stroke-width: 0.8"/>
    <path d="M 126.273885 230.613498 
L 199.598411 129.620566 
L 348.341906 172.763571 
" style="fill: none; stroke: #b0b0b0; stroke-width: 0.8"/>
    <path d="M 125.181512 215.640789 
L 199.241232 114.887436 
L 349.341632 157.910227 
" style="fill: none; stroke: #b0b0b0; stroke-width: 0.8"/>
    <path d="M 124.067905 200.377027 
L 198.877642 99.889869 
L 350.359937 142.780839 
" style="fill: none; stroke: #b0b0b0; stroke-width: 0.8"/>
    <path d="M 122.932438 184.81364 
L 198.507467 84.620682 
L 351.397344 127.36764 
" style="fill: none; stroke: #b0b0b0; stroke-width: 0.8"/>
    <path d="M 121.774461 168.941719 
L 198.130526 69.072427 
L 352.454397 111.662566 
" style="fill: none; stroke: #b0b0b0; stroke-width: 0.8"/>
    <path d="M 120.593299 152.751998 
L 197.746633 53.237384 
L 353.531658 95.657249 
" style="fill: none; stroke: #b0b0b0; stroke-width: 0.8"/>
   </g>
  </g>
  <g id="axis3d_1">
   <g id="line2d_1">
    <path d="M 347.238797 189.152934 
L 284.328032 297.780933 
" style="fill: none; stroke: #000000; stroke-width: 0.8; stroke-linecap: square"/>
   </g>
   <g id="xtick_1">
    <g id="line2d_2">
     <path d="M 288.064375 288.678693 
L 291.950819 289.924788 
" style="fill: none; stroke: #000000; stroke-width: 0.8; stroke-linecap: square"/>
    </g>
    <g id="text_1">
     <!-- 1.0 -->
     <g transform="translate(294.563712 308.524981) scale(0.1 -0.1)">
      <defs>
       <path id="DejaVuSans-31" d="M 794 531 
L 1825 531 
L 1825 4091 
L 703 3866 
L 703 4441 
L 1819 4666 
L 2450 4666 
L 2450 531 
L 3481 531 
L 3481 0 
L 794 0 
L 794 531 
z
" transform="scale(0.015625)"/>
       <path id="DejaVuSans-2e" d="M 684 794 
L 1344 794 
L 1344 0 
L 684 0 
L 684 794 
z
" transform="scale(0.015625)"/>
       <path id="DejaVuSans-30" d="M 2034 4250 
Q 1547 4250 1301 3770 
Q 1056 3291 1056 2328 
Q 1056 1369 1301 889 
Q 1547 409 2034 409 
Q 2525 409 2770 889 
Q 3016 1369 3016 2328 
Q 3016 3291 2770 3770 
Q 2525 4250 2034 4250 
z
M 2034 4750 
Q 2819 4750 3233 4129 
Q 3647 3509 3647 2328 
Q 3647 1150 3233 529 
Q 2819 -91 2034 -91 
Q 1250 -91 836 529 
Q 422 1150 422 2328 
Q 422 3509 836 4129 
Q 1250 4750 2034 4750 
z
" transform="scale(0.015625)"/>
      </defs>
      <use xlink:href="#DejaVuSans-31"/>
      <use xlink:href="#DejaVuSans-2e" x="63.623047"/>
      <use xlink:href="#DejaVuSans-30" x="95.410156"/>
     </g>
    </g>
   </g>
   <g id="xtick_2">
    <g id="line2d_3">
     <path d="M 299.434696 269.082696 
L 303.276635 270.294108 
" style="fill: none; stroke: #000000; stroke-width: 0.8; stroke-linecap: square"/>
    </g>
    <g id="text_2">
     <!-- 1.2 -->
     <g transform="translate(305.713257 288.78986) scale(0.1 -0.1)">
      <defs>
       <path id="DejaVuSans-32" d="M 1228 531 
L 3431 531 
L 3431 0 
L 469 0 
L 469 531 
Q 828 903 1448 1529 
Q 2069 2156 2228 2338 
Q 2531 2678 2651 2914 
Q 2772 3150 2772 3378 
Q 2772 3750 2511 3984 
Q 2250 4219 1831 4219 
Q 1534 4219 1204 4116 
Q 875 4013 500 3803 
L 500 4441 
Q 881 4594 1212 4672 
Q 1544 4750 1819 4750 
Q 2544 4750 2975 4387 
Q 3406 4025 3406 3419 
Q 3406 3131 3298 2873 
Q 3191 2616 2906 2266 
Q 2828 2175 2409 1742 
Q 1991 1309 1228 531 
z
" transform="scale(0.015625)"/>
      </defs>
      <use xlink:href="#DejaVuSans-31"/>
      <use xlink:href="#DejaVuSans-2e" x="63.623047"/>
      <use xlink:href="#DejaVuSans-32" x="95.410156"/>
     </g>
    </g>
   </g>
   <g id="xtick_3">
    <g id="line2d_4">
     <path d="M 310.490847 250.02815 
L 314.289239 251.206306 
" style="fill: none; stroke: #000000; stroke-width: 0.8; stroke-linecap: square"/>
    </g>
    <g id="text_3">
     <!-- 1.4 -->
     <g transform="translate(316.555231 269.599151) scale(0.1 -0.1)">
      <defs>
       <path id="DejaVuSans-34" d="M 2419 4116 
L 825 1625 
L 2419 1625 
L 2419 4116 
z
M 2253 4666 
L 3047 4666 
L 3047 1625 
L 3713 1625 
L 3713 1100 
L 3047 1100 
L 3047 0 
L 2419 0 
L 2419 1100 
L 313 1100 
L 313 1709 
L 2253 4666 
z
" transform="scale(0.015625)"/>
      </defs>
      <use xlink:href="#DejaVuSans-31"/>
      <use xlink:href="#DejaVuSans-2e" x="63.623047"/>
      <use xlink:href="#DejaVuSans-34" x="95.410156"/>
     </g>
    </g>
   </g>
   <g id="xtick_4">
    <g id="line2d_5">
     <path d="M 321.245673 231.492919 
L 325.001447 232.639171 
" style="fill: none; stroke: #000000; stroke-width: 0.8; stroke-linecap: square"/>
    </g>
    <g id="text_4">
     <!-- 1.6 -->
     <g transform="translate(327.102188 250.930633) scale(0.1 -0.1)">
      <defs>
       <path id="DejaVuSans-36" d="M 2113 2584 
Q 1688 2584 1439 2293 
Q 1191 2003 1191 1497 
Q 1191 994 1439 701 
Q 1688 409 2113 409 
Q 2538 409 2786 701 
Q 3034 994 3034 1497 
Q 3034 2003 2786 2293 
Q 2538 2584 2113 2584 
z
M 3366 4563 
L 3366 3988 
Q 3128 4100 2886 4159 
Q 2644 4219 2406 4219 
Q 1781 4219 1451 3797 
Q 1122 3375 1075 2522 
Q 1259 2794 1537 2939 
Q 1816 3084 2150 3084 
Q 2853 3084 3261 2657 
Q 3669 2231 3669 1497 
Q 3669 778 3244 343 
Q 2819 -91 2113 -91 
Q 1303 -91 875 529 
Q 447 1150 447 2328 
Q 447 3434 972 4092 
Q 1497 4750 2381 4750 
Q 2619 4750 2861 4703 
Q 3103 4656 3366 4563 
z
" transform="scale(0.015625)"/>
      </defs>
      <use xlink:href="#DejaVuSans-31"/>
      <use xlink:href="#DejaVuSans-2e" x="63.623047"/>
      <use xlink:href="#DejaVuSans-36" x="95.410156"/>
     </g>
    </g>
   </g>
   <g id="xtick_5">
    <g id="line2d_6">
     <path d="M 331.711325 213.45606 
L 335.425386 214.571686 
" style="fill: none; stroke: #000000; stroke-width: 0.8; stroke-linecap: square"/>
    </g>
    <g id="text_5">
     <!-- 1.8 -->
     <g transform="translate(337.366008 232.763279) scale(0.1 -0.1)">
      <defs>
       <path id="DejaVuSans-38" d="M 2034 2216 
Q 1584 2216 1326 1975 
Q 1069 1734 1069 1313 
Q 1069 891 1326 650 
Q 1584 409 2034 409 
Q 2484 409 2743 651 
Q 3003 894 3003 1313 
Q 3003 1734 2745 1975 
Q 2488 2216 2034 2216 
z
M 1403 2484 
Q 997 2584 770 2862 
Q 544 3141 544 3541 
Q 544 4100 942 4425 
Q 1341 4750 2034 4750 
Q 2731 4750 3128 4425 
Q 3525 4100 3525 3541 
Q 3525 3141 3298 2862 
Q 3072 2584 2669 2484 
Q 3125 2378 3379 2068 
Q 3634 1759 3634 1313 
Q 3634 634 3220 271 
Q 2806 -91 2034 -91 
Q 1263 -91 848 271 
Q 434 634 434 1313 
Q 434 1759 690 2068 
Q 947 2378 1403 2484 
z
M 1172 3481 
Q 1172 3119 1398 2916 
Q 1625 2713 2034 2713 
Q 2441 2713 2670 2916 
Q 2900 3119 2900 3481 
Q 2900 3844 2670 4047 
Q 2441 4250 2034 4250 
Q 1625 4250 1398 4047 
Q 1172 3844 1172 3481 
z
" transform="scale(0.015625)"/>
      </defs>
      <use xlink:href="#DejaVuSans-31"/>
      <use xlink:href="#DejaVuSans-2e" x="63.623047"/>
      <use xlink:href="#DejaVuSans-38" x="95.410156"/>
     </g>
    </g>
   </g>
   <g id="xtick_6">
    <g id="line2d_7">
     <path d="M 341.899312 195.897737 
L 345.572536 196.983949 
" style="fill: none; stroke: #000000; stroke-width: 0.8; stroke-linecap: square"/>
    </g>
    <g id="text_6">
     <!-- 2.0 -->
     <g transform="translate(347.35794 215.077175) scale(0.1 -0.1)">
      <use xlink:href="#DejaVuSans-32"/>
      <use xlink:href="#DejaVuSans-2e" x="63.623047"/>
      <use xlink:href="#DejaVuSans-30" x="95.410156"/>
     </g>
    </g>
   </g>
  </g>
  <g id="axis3d_2">
   <g id="line2d_8">
    <path d="M 127.47817 247.120149 
L 284.328032 297.780933 
" style="fill: none; stroke: #000000; stroke-width: 0.8; stroke-linecap: square"/>
   </g>
   <g id="xtick_7">
    <g id="line2d_9">
     <path d="M 270.417237 292.174525 
L 268.756542 294.98272 
" style="fill: none; stroke: #000000; stroke-width: 0.8; stroke-linecap: square"/>
    </g>
    <g id="text_7">
     <!-- 1.0 -->
     <g transform="translate(256.012113 317.992481) scale(0.1 -0.1)">
      <use xlink:href="#DejaVuSans-31"/>
      <use xlink:href="#DejaVuSans-2e" x="63.623047"/>
      <use xlink:href="#DejaVuSans-30" x="95.410156"/>
     </g>
    </g>
   </g>
   <g id="xtick_8">
    <g id="line2d_10">
     <path d="M 244.053346 283.666033 
L 242.350274 286.44022 
" style="fill: none; stroke: #000000; stroke-width: 0.8; stroke-linecap: square"/>
    </g>
    <g id="text_8">
     <!-- 1.2 -->
     <g transform="translate(229.621242 309.35179) scale(0.1 -0.1)">
      <use xlink:href="#DejaVuSans-31"/>
      <use xlink:href="#DejaVuSans-2e" x="63.623047"/>
      <use xlink:href="#DejaVuSans-32" x="95.410156"/>
     </g>
    </g>
   </g>
   <g id="xtick_9">
    <g id="line2d_11">
     <path d="M 218.007448 275.260168 
L 216.263139 278.000961 
" style="fill: none; stroke: #000000; stroke-width: 0.8; stroke-linecap: square"/>
    </g>
    <g id="text_9">
     <!-- 1.4 -->
     <g transform="translate(203.549484 300.815579) scale(0.1 -0.1)">
      <use xlink:href="#DejaVuSans-31"/>
      <use xlink:href="#DejaVuSans-2e" x="63.623047"/>
      <use xlink:href="#DejaVuSans-34" x="95.410156"/>
     </g>
    </g>
   </g>
   <g id="xtick_10">
    <g id="line2d_12">
     <path d="M 192.273823 266.955083 
L 190.489388 269.663083 
" style="fill: none; stroke: #000000; stroke-width: 0.8; stroke-linecap: square"/>
    </g>
    <g id="text_10">
     <!-- 1.6 -->
     <g transform="translate(177.791085 292.381967) scale(0.1 -0.1)">
      <use xlink:href="#DejaVuSans-31"/>
      <use xlink:href="#DejaVuSans-2e" x="63.623047"/>
      <use xlink:href="#DejaVuSans-36" x="95.410156"/>
     </g>
    </g>
   </g>
   <g id="xtick_11">
    <g id="line2d_13">
     <path d="M 166.84689 258.748978 
L 165.023407 261.424769 
" style="fill: none; stroke: #000000; stroke-width: 0.8; stroke-linecap: square"/>
    </g>
    <g id="text_11">
     <!-- 1.8 -->
     <g transform="translate(152.340431 284.049113) scale(0.1 -0.1)">
      <use xlink:href="#DejaVuSans-31"/>
      <use xlink:href="#DejaVuSans-2e" x="63.623047"/>
      <use xlink:href="#DejaVuSans-38" x="95.410156"/>
     </g>
    </g>
   </g>
   <g id="xtick_12">
    <g id="line2d_14">
     <path d="M 141.721198 250.640093 
L 139.859716 253.284246 
" style="fill: none; stroke: #000000; stroke-width: 0.8; stroke-linecap: square"/>
    </g>
    <g id="text_12">
     <!-- 2.0 -->
     <g transform="translate(127.192038 275.815224) scale(0.1 -0.1)">
      <use xlink:href="#DejaVuSans-32"/>
      <use xlink:href="#DejaVuSans-2e" x="63.623047"/>
      <use xlink:href="#DejaVuSans-30" x="95.410156"/>
     </g>
    </g>
   </g>
  </g>
  <g id="axis3d_3">
   <g id="line2d_15">
    <path d="M 127.47817 247.120149 
L 120.443988 150.705461 
" style="fill: none; stroke: #000000; stroke-width: 0.8; stroke-linecap: square"/>
   </g>
   <g id="xtick_13">
    <g id="line2d_16">
     <path d="M 127.972917 244.428972 
L 126.088606 247.055641 
" style="fill: none; stroke: #000000; stroke-width: 0.8; stroke-linecap: square"/>
    </g>
    <g id="text_13">
     <!-- 0.2 -->
     <g transform="translate(100.252538 257.94399) scale(0.1 -0.1)">
      <use xlink:href="#DejaVuSans-30"/>
      <use xlink:href="#DejaVuSans-2e" x="63.623047"/>
      <use xlink:href="#DejaVuSans-32" x="95.410156"/>
     </g>
    </g>
   </g>
   <g id="xtick_14">
    <g id="line2d_17">
     <path d="M 126.907853 229.740307 
L 125.003467 232.363297 
" style="fill: none; stroke: #000000; stroke-width: 0.8; stroke-linecap: square"/>
    </g>
    <g id="text_14">
     <!-- 0.4 -->
     <g transform="translate(98.99359 243.247175) scale(0.1 -0.1)">
      <use xlink:href="#DejaVuSans-30"/>
      <use xlink:href="#DejaVuSans-2e" x="63.623047"/>
      <use xlink:href="#DejaVuSans-34" x="95.410156"/>
     </g>
    </g>
   </g>
   <g id="xtick_15">
    <g id="line2d_18">
     <path d="M 125.822297 214.769044 
L 123.89741 217.387726 
" style="fill: none; stroke: #000000; stroke-width: 0.8; stroke-linecap: square"/>
    </g>
    <g id="text_15">
     <!-- 0.6 -->
     <g transform="translate(97.710312 228.266346) scale(0.1 -0.1)">
      <use xlink:href="#DejaVuSans-30"/>
      <use xlink:href="#DejaVuSans-2e" x="63.623047"/>
      <use xlink:href="#DejaVuSans-36" x="95.410156"/>
     </g>
    </g>
   </g>
   <g id="xtick_16">
    <g id="line2d_19">
     <path d="M 124.715653 199.506948 
L 122.769824 202.120657 
" style="fill: none; stroke: #000000; stroke-width: 0.8; stroke-linecap: square"/>
    </g>
    <g id="text_16">
     <!-- 0.8 -->
     <g transform="translate(96.401994 212.99319) scale(0.1 -0.1)">
      <use xlink:href="#DejaVuSans-30"/>
      <use xlink:href="#DejaVuSans-2e" x="63.623047"/>
      <use xlink:href="#DejaVuSans-38" x="95.410156"/>
     </g>
    </g>
   </g>
   <g id="xtick_17">
    <g id="line2d_20">
     <path d="M 123.587301 183.945462 
L 121.620074 186.553496 
" style="fill: none; stroke: #000000; stroke-width: 0.8; stroke-linecap: square"/>
    </g>
    <g id="text_17">
     <!-- 1.0 -->
     <g transform="translate(95.067895 197.419066) scale(0.1 -0.1)">
      <use xlink:href="#DejaVuSans-31"/>
      <use xlink:href="#DejaVuSans-2e" x="63.623047"/>
      <use xlink:href="#DejaVuSans-30" x="95.410156"/>
     </g>
    </g>
   </g>
   <g id="xtick_18">
    <g id="line2d_21">
     <path d="M 122.436595 168.075687 
L 120.4475 170.677308 
" style="fill: none; stroke: #000000; stroke-width: 0.8; stroke-linecap: square"/>
    </g>
    <g id="text_18">
     <!-- 1.2 -->
     <g transform="translate(93.707244 181.534989) scale(0.1 -0.1)">
      <use xlink:href="#DejaVuSans-31"/>
      <use xlink:href="#DejaVuSans-2e" x="63.623047"/>
      <use xlink:href="#DejaVuSans-32" x="95.410156"/>
     </g>
    </g>
   </g>
   <g id="xtick_19">
    <g id="line2d_22">
     <path d="M 121.262864 151.888373 
L 119.251415 154.482798 
" style="fill: none; stroke: #000000; stroke-width: 0.8; stroke-linecap: square"/>
    </g>
    <g id="text_19">
     <!-- 1.4 -->
     <g transform="translate(92.319242 165.331614) scale(0.1 -0.1)">
      <use xlink:href="#DejaVuSans-31"/>
      <use xlink:href="#DejaVuSans-2e" x="63.623047"/>
      <use xlink:href="#DejaVuSans-34" x="95.410156"/>
     </g>
    </g>
   </g>
  </g>
  <g id="axes_1">
   <g id="line2d_23">
    <path d="M 203.411148 250.418488 
L 202.893659 249.259072 
L 202.154003 248.986136 
L 197.660943 248.420831 
L 193.458625 245.512512 
L 189.347084 240.666613 
L 182.788475 234.110946 
L 179.121032 231.034853 
L 178.283062 227.694126 
L 175.720953 225.385497 
L 168.063555 221.610008 
L 165.05541 217.185276 
L 164.332892 212.556684 
L 166.755255 207.504593 
L 169.938929 201.404577 
L 173.454808 194.178924 
L 174.805393 190.160139 
L 179.515455 180.50007 
L 182.795546 175.455219 
L 189.050443 171.638662 
L 195.353504 167.936993 
L 202.416915 164.717646 
L 209.715534 162.340915 
L 217.337674 161.033812 
L 229.027657 156.23457 
L 230.871331 156.220458 
L 234.298296 156.006873 
L 240.058821 157.386724 
L 248.556562 160.453845 
L 256.721176 163.072555 
L 264.561117 164.346164 
L 273.132872 163.500542 
L 277.378437 163.994027 
L 278.189238 165.203803 
L 284.2959 166.199966 
L 290.54409 164.755085 
L 295.649558 163.98926 
L 302.357543 166.211018 
L 308.301629 170.41548 
L 311.44967 173.376328 
L 313.104888 177.875106 
L 313.240035 181.318811 
L 311.676031 184.814054 
L 309.902868 189.588775 
L 309.57773 189.585745 
L 306.721757 188.307628 
L 303.551065 190.358656 
L 301.096515 197.026701 
L 300.984418 202.668932 
L 299.898575 209.081682 
L 294.03127 219.20518 
L 290.40349 223.435135 
L 285.691889 227.401969 
L 278.556765 230.566199 
L 271.966157 233.305456 
L 265.628216 235.771374 
L 257.548796 236.878536 
L 248.827987 238.446532 
L 242.899537 239.261904 
L 236.850951 239.237254 
L 232.817931 238.42229 
L 229.342078 236.393599 
L 226.028832 237.555604 
L 220.135336 238.06092 
L 212.152768 235.305013 
L 203.815008 230.928719 
L 187.909623 221.735514 
L 182.398731 216.672146 
L 178.062363 211.99296 
L 179.74903 209.199221 
L 182.775947 208.983369 
L 181.841436 204.952479 
L 182.660176 204.153189 
L 181.987753 200.681526 
L 175.44903 198.436197 
L 171.773488 194.493113 
L 165.830912 191.645958 
L 163.740588 186.27489 
L 164.465618 178.742258 
L 167.803228 170.445737 
L 173.938574 163.584422 
L 178.531029 157.186093 
L 184.545381 151.347849 
L 188.955872 148.95883 
L 191.562027 144.520879 
L 195.547191 140.769157 
L 199.103211 136.894805 
L 205.733868 134.141122 
L 214.015922 131.050823 
L 220.534744 127.848236 
L 226.826922 125.960309 
L 233.513367 124.750896 
L 240.589444 124.814841 
L 247.128632 125.740179 
L 252.914521 127.334832 
L 259.334503 128.696789 
L 264.28348 129.611626 
L 271.462839 132.328745 
L 276.419584 135.408633 
L 282.319267 136.839074 
L 282.890399 137.375951 
L 285.660366 137.421475 
L 288.061106 139.564366 
L 292.278638 141.969306 
L 299.890974 143.443829 
L 306.112366 147.555822 
L 310.519639 152.823271 
L 313.849905 158.22521 
L 316.561989 159.570092 
L 316.461964 163.205805 
L 316.043124 166.502567 
L 313.89456 171.517692 
L 311.827653 177.256937 
L 309.247985 182.329188 
L 304.802341 186.974531 
L 303.56037 190.473742 
L 299.751839 193.674609 
L 296.220925 196.220073 
L 281.959862 199.781146 
L 274.263588 201.155788 
L 268.651292 202.772473 
L 262.560653 204.706581 
L 252.344678 205.753892 
L 247.008503 204.496912 
L 244.70595 201.623258 
L 240.878999 202.715941 
L 228.658358 202.772847 
L 220.060959 200.342391 
L 213.662845 198.218242 
L 198.394546 190.546724 
L 192.690517 188.498693 
L 189.002034 184.219524 
L 183.581446 179.490189 
L 177.009555 174.607008 
L 175.696458 174.508755 
L 172.98011 170.592174 
L 172.515318 167.731902 
L 169.803534 161.962243 
L 167.384006 156.437203 
L 167.906895 150.015786 
L 169.975809 145.637493 
L 169.685054 139.822167 
L 174.620168 132.528519 
L 180.209212 126.458971 
L 186.484756 120.947032 
L 190.814979 116.786599 
L 194.13031 112.286119 
L 195.758893 108.589413 
L 195.448753 104.677187 
L 199.70981 101.770091 
L 204.270253 98.268022 
L 208.289967 97.06868 
L 211.4259 94.803394 
L 234.76509 92.467798 
L 243.547528 93.387285 
L 249.123407 94.602597 
L 256.822499 96.144969 
L 263.981495 97.089437 
L 269.770855 99.9207 
L 275.73678 103.424723 
L 280.623687 108.493573 
L 285.719719 109.971583 
L 285.323725 110.495683 
L 289.555501 111.828941 
L 297.757575 113.987291 
L 302.730951 115.519423 
L 303.220045 120.85993 
L 307.254078 123.966628 
L 308.850325 129.119979 
L 307.528765 135.003126 
L 307.208229 140.258259 
L 305.104695 147.304402 
L 303.083276 154.846226 
L 301.03971 161.348377 
L 296.318346 165.604625 
L 293.41775 167.738322 
L 288.73962 169.593812 
L 283.315816 171.281166 
L 278.93402 172.241568 
L 273.218277 172.646414 
L 267.579498 174.736807 
L 263.104603 175.87365 
L 258.38919 175.257201 
L 248.610133 173.272461 
L 239.304838 171.504266 
L 231.026452 170.973466 
L 231.026452 170.973466 
" clip-path="url(#pe3745af4a3)" style="fill: none; stroke: #1f77b4; stroke-width: 1.5; stroke-linecap: square"/>
   </g>
   <g id="line2d_24">
    <path d="M 209.901921 261.810046 
L 204.003265 259.230961 
L 198.450372 256.254854 
L 193.295456 252.908619 
L 188.585984 249.222722 
L 184.364203 245.230766 
L 180.666773 240.969 
L 177.524489 236.475836 
L 174.962112 231.791336 
L 172.998285 226.95672 
L 171.645541 222.013876 
L 170.910392 217.004897 
L 170.793484 211.971644 
L 171.28982 206.955344 
L 172.389029 201.996217 
L 174.075672 197.133155 
L 176.329586 192.403428 
L 179.12624 187.842436 
L 182.437105 183.483498 
L 186.230031 179.357675 
L 190.46962 175.493625 
L 195.117588 171.917491 
L 200.133123 168.652811 
L 205.473227 165.720448 
L 211.093037 163.138545 
L 216.946143 160.922492 
L 222.984876 159.084898 
L 229.160596 157.635581 
L 235.423961 156.581561 
L 241.725187 155.927052 
L 248.014303 155.673469 
L 254.241403 155.81942 
L 260.356896 156.360717 
L 266.311761 157.290376 
L 272.057809 158.598624 
L 277.547947 160.272912 
L 282.736466 162.297932 
L 287.57933 164.655637 
L 292.034484 167.325284 
L 296.062186 170.283475 
L 299.625335 173.504228 
L 302.689828 176.959065 
L 305.224925 180.617121 
L 307.203612 184.445287 
L 308.602976 188.408381 
L 309.404568 192.469355 
L 309.594763 196.589537 
L 309.165084 200.728916 
L 308.112516 204.846462 
L 306.439758 208.900489 
L 304.155442 212.849049 
L 301.274279 216.650367 
L 297.817137 220.263298 
L 293.811035 223.64781 
L 289.289052 226.765482 
L 284.290134 229.580004 
L 278.858806 232.057674 
L 273.044782 234.167876 
L 266.902476 235.883536 
L 260.490419 237.18153 
L 253.87059 238.04305 
L 247.107676 238.453898 
L 240.268269 238.404722 
L 233.420021 237.89117 
L 226.630774 236.913958 
L 219.967686 235.478865 
L 213.496365 233.596638 
L 207.280044 231.282816 
L 201.378801 228.557479 
L 195.848846 225.444935 
L 190.741888 221.973341 
L 186.104595 218.174273 
L 181.978146 214.082273 
L 178.39789 209.734353 
L 175.393099 205.169495 
L 172.986834 200.42815 
L 171.195889 195.551735 
L 170.03084 190.582157 
L 169.496158 185.561356 
L 169.590406 180.530878 
L 170.306478 175.531485 
L 171.631902 170.602805 
L 173.549164 165.783015 
L 176.036074 161.108575 
L 179.066134 156.613986 
L 182.608924 152.331605 
L 186.630486 148.291474 
L 191.093701 144.521195 
L 195.958663 141.04583 
L 201.183031 137.887819 
L 206.722372 135.066928 
L 212.530488 132.600205 
L 218.559723 130.501954 
L 224.761258 128.783721 
L 231.085387 127.45428 
L 237.481791 126.519634 
L 243.899793 125.983009 
L 250.288613 125.844857 
L 256.597619 126.102861 
L 262.776581 126.751931 
L 268.775923 127.784218 
L 274.546994 129.189113 
L 280.042334 130.953261 
L 285.215969 133.06058 
L 290.02371 135.492283 
L 294.423468 138.226918 
L 298.375594 141.240415 
L 301.843222 144.506161 
L 304.792634 147.995087 
L 307.193636 151.675789 
L 309.019932 155.514672 
L 310.249511 159.47613 
L 310.865013 163.522761 
L 310.854096 167.615623 
L 310.209766 171.714522 
L 308.930683 175.77835 
L 307.021418 179.765448 
L 304.492655 183.634024 
L 301.361323 187.342586 
L 297.65066 190.850412 
L 293.390177 194.118042 
L 288.615542 197.107773 
L 283.36835 199.784168 
L 277.695798 202.114544 
L 271.650253 204.069453 
L 265.288723 205.62312 
L 258.672224 206.753843 
L 251.865076 207.444339 
L 244.93411 207.682022 
L 237.947837 207.459213 
L 230.975561 206.773264 
L 224.086485 205.62661 
L 217.348811 204.026723 
L 210.828862 201.985992 
L 204.590249 199.521523 
L 198.693089 196.654859 
L 193.1933 193.411644 
L 188.141984 189.82122 
L 183.584908 185.916187 
L 179.562077 181.731929 
L 176.107427 177.306117 
L 173.248612 172.678201 
L 171.006896 167.888907 
L 169.397143 162.979742 
L 168.427891 157.992522 
L 168.101506 152.968928 
L 168.4144 147.950089 
L 169.357313 142.976209 
L 170.915625 138.08623 
L 173.069714 133.317537 
L 175.795334 128.7057 
L 179.063999 124.28426 
L 182.843381 120.08455 
L 187.097704 116.135546 
L 191.788123 112.463753 
L 196.873103 109.093117 
L 202.308773 106.044959 
L 208.049268 103.337924 
L 214.047055 100.987954 
L 220.253235 99.008265 
L 226.617839 97.409337 
L 233.090099 96.198908 
L 239.618721 95.381971 
L 246.152137 94.96078 
L 252.638761 94.934844 
L 259.027237 95.300939 
L 265.266697 96.053105 
L 271.307017 97.18265 
L 277.099087 98.678163 
L 282.595089 100.525519 
L 287.748796 102.707898 
L 292.515877 105.205813 
L 296.854229 107.997146 
L 300.724319 111.057203 
L 304.089545 114.358788 
L 306.91661 117.872293 
L 309.17591 121.56583 
L 310.841918 125.405376 
L 311.89358 129.354966 
L 312.314694 133.376911 
L 312.094274 137.432067 
L 311.226889 141.480132 
L 309.712967 145.479993 
L 307.55904 149.390104 
L 304.777943 153.168906 
L 301.388925 156.775277 
L 297.417694 160.169005 
L 292.896356 163.311285 
L 287.863261 166.165221 
L 282.362744 168.696329 
L 276.444756 170.873027 
L 270.164388 172.667106 
L 263.581298 174.054157 
L 256.759034 175.01396 
L 249.764279 175.530805 
L 242.666021 175.593754 
L 235.534679 175.196825 
L 228.441187 174.339087 
L 221.456064 173.024683 
L 214.648498 171.262761 
L 208.085458 169.067319 
L 208.085458 169.067319 
" clip-path="url(#pe3745af4a3)" style="fill: none; stroke: #ff7f0e; stroke-width: 1.5; stroke-linecap: square"/>
   </g>
   <g id="text_20">
    <!-- Trajectory with: 20seconds, 30pieces, Mellinger -->
    <g transform="translate(93.628125 35.472) scale(0.12 -0.12)">
     <defs>
      <path id="DejaVuSans-54" d="M -19 4666 
L 3928 4666 
L 3928 4134 
L 2272 4134 
L 2272 0 
L 1638 0 
L 1638 4134 
L -19 4134 
L -19 4666 
z
" transform="scale(0.015625)"/>
      <path id="DejaVuSans-72" d="M 2631 2963 
Q 2534 3019 2420 3045 
Q 2306 3072 2169 3072 
Q 1681 3072 1420 2755 
Q 1159 2438 1159 1844 
L 1159 0 
L 581 0 
L 581 3500 
L 1159 3500 
L 1159 2956 
Q 1341 3275 1631 3429 
Q 1922 3584 2338 3584 
Q 2397 3584 2469 3576 
Q 2541 3569 2628 3553 
L 2631 2963 
z
" transform="scale(0.015625)"/>
      <path id="DejaVuSans-61" d="M 2194 1759 
Q 1497 1759 1228 1600 
Q 959 1441 959 1056 
Q 959 750 1161 570 
Q 1363 391 1709 391 
Q 2188 391 2477 730 
Q 2766 1069 2766 1631 
L 2766 1759 
L 2194 1759 
z
M 3341 1997 
L 3341 0 
L 2766 0 
L 2766 531 
Q 2569 213 2275 61 
Q 1981 -91 1556 -91 
Q 1019 -91 701 211 
Q 384 513 384 1019 
Q 384 1609 779 1909 
Q 1175 2209 1959 2209 
L 2766 2209 
L 2766 2266 
Q 2766 2663 2505 2880 
Q 2244 3097 1772 3097 
Q 1472 3097 1187 3025 
Q 903 2953 641 2809 
L 641 3341 
Q 956 3463 1253 3523 
Q 1550 3584 1831 3584 
Q 2591 3584 2966 3190 
Q 3341 2797 3341 1997 
z
" transform="scale(0.015625)"/>
      <path id="DejaVuSans-6a" d="M 603 3500 
L 1178 3500 
L 1178 -63 
Q 1178 -731 923 -1031 
Q 669 -1331 103 -1331 
L -116 -1331 
L -116 -844 
L 38 -844 
Q 366 -844 484 -692 
Q 603 -541 603 -63 
L 603 3500 
z
M 603 4863 
L 1178 4863 
L 1178 4134 
L 603 4134 
L 603 4863 
z
" transform="scale(0.015625)"/>
      <path id="DejaVuSans-65" d="M 3597 1894 
L 3597 1613 
L 953 1613 
Q 991 1019 1311 708 
Q 1631 397 2203 397 
Q 2534 397 2845 478 
Q 3156 559 3463 722 
L 3463 178 
Q 3153 47 2828 -22 
Q 2503 -91 2169 -91 
Q 1331 -91 842 396 
Q 353 884 353 1716 
Q 353 2575 817 3079 
Q 1281 3584 2069 3584 
Q 2775 3584 3186 3129 
Q 3597 2675 3597 1894 
z
M 3022 2063 
Q 3016 2534 2758 2815 
Q 2500 3097 2075 3097 
Q 1594 3097 1305 2825 
Q 1016 2553 972 2059 
L 3022 2063 
z
" transform="scale(0.015625)"/>
      <path id="DejaVuSans-63" d="M 3122 3366 
L 3122 2828 
Q 2878 2963 2633 3030 
Q 2388 3097 2138 3097 
Q 1578 3097 1268 2742 
Q 959 2388 959 1747 
Q 959 1106 1268 751 
Q 1578 397 2138 397 
Q 2388 397 2633 464 
Q 2878 531 3122 666 
L 3122 134 
Q 2881 22 2623 -34 
Q 2366 -91 2075 -91 
Q 1284 -91 818 406 
Q 353 903 353 1747 
Q 353 2603 823 3093 
Q 1294 3584 2113 3584 
Q 2378 3584 2631 3529 
Q 2884 3475 3122 3366 
z
" transform="scale(0.015625)"/>
      <path id="DejaVuSans-74" d="M 1172 4494 
L 1172 3500 
L 2356 3500 
L 2356 3053 
L 1172 3053 
L 1172 1153 
Q 1172 725 1289 603 
Q 1406 481 1766 481 
L 2356 481 
L 2356 0 
L 1766 0 
Q 1100 0 847 248 
Q 594 497 594 1153 
L 594 3053 
L 172 3053 
L 172 3500 
L 594 3500 
L 594 4494 
L 1172 4494 
z
" transform="scale(0.015625)"/>
      <path id="DejaVuSans-6f" d="M 1959 3097 
Q 1497 3097 1228 2736 
Q 959 2375 959 1747 
Q 959 1119 1226 758 
Q 1494 397 1959 397 
Q 2419 397 2687 759 
Q 2956 1122 2956 1747 
Q 2956 2369 2687 2733 
Q 2419 3097 1959 3097 
z
M 1959 3584 
Q 2709 3584 3137 3096 
Q 3566 2609 3566 1747 
Q 3566 888 3137 398 
Q 2709 -91 1959 -91 
Q 1206 -91 779 398 
Q 353 888 353 1747 
Q 353 2609 779 3096 
Q 1206 3584 1959 3584 
z
" transform="scale(0.015625)"/>
      <path id="DejaVuSans-79" d="M 2059 -325 
Q 1816 -950 1584 -1140 
Q 1353 -1331 966 -1331 
L 506 -1331 
L 506 -850 
L 844 -850 
Q 1081 -850 1212 -737 
Q 1344 -625 1503 -206 
L 1606 56 
L 191 3500 
L 800 3500 
L 1894 763 
L 2988 3500 
L 3597 3500 
L 2059 -325 
z
" transform="scale(0.015625)"/>
      <path id="DejaVuSans-20" transform="scale(0.015625)"/>
      <path id="DejaVuSans-77" d="M 269 3500 
L 844 3500 
L 1563 769 
L 2278 3500 
L 2956 3500 
L 3675 769 
L 4391 3500 
L 4966 3500 
L 4050 0 
L 3372 0 
L 2619 2869 
L 1863 0 
L 1184 0 
L 269 3500 
z
" transform="scale(0.015625)"/>
      <path id="DejaVuSans-69" d="M 603 3500 
L 1178 3500 
L 1178 0 
L 603 0 
L 603 3500 
z
M 603 4863 
L 1178 4863 
L 1178 4134 
L 603 4134 
L 603 4863 
z
" transform="scale(0.015625)"/>
      <path id="DejaVuSans-68" d="M 3513 2113 
L 3513 0 
L 2938 0 
L 2938 2094 
Q 2938 2591 2744 2837 
Q 2550 3084 2163 3084 
Q 1697 3084 1428 2787 
Q 1159 2491 1159 1978 
L 1159 0 
L 581 0 
L 581 4863 
L 1159 4863 
L 1159 2956 
Q 1366 3272 1645 3428 
Q 1925 3584 2291 3584 
Q 2894 3584 3203 3211 
Q 3513 2838 3513 2113 
z
" transform="scale(0.015625)"/>
      <path id="DejaVuSans-3a" d="M 750 794 
L 1409 794 
L 1409 0 
L 750 0 
L 750 794 
z
M 750 3309 
L 1409 3309 
L 1409 2516 
L 750 2516 
L 750 3309 
z
" transform="scale(0.015625)"/>
      <path id="DejaVuSans-73" d="M 2834 3397 
L 2834 2853 
Q 2591 2978 2328 3040 
Q 2066 3103 1784 3103 
Q 1356 3103 1142 2972 
Q 928 2841 928 2578 
Q 928 2378 1081 2264 
Q 1234 2150 1697 2047 
L 1894 2003 
Q 2506 1872 2764 1633 
Q 3022 1394 3022 966 
Q 3022 478 2636 193 
Q 2250 -91 1575 -91 
Q 1294 -91 989 -36 
Q 684 19 347 128 
L 347 722 
Q 666 556 975 473 
Q 1284 391 1588 391 
Q 1994 391 2212 530 
Q 2431 669 2431 922 
Q 2431 1156 2273 1281 
Q 2116 1406 1581 1522 
L 1381 1569 
Q 847 1681 609 1914 
Q 372 2147 372 2553 
Q 372 3047 722 3315 
Q 1072 3584 1716 3584 
Q 2034 3584 2315 3537 
Q 2597 3491 2834 3397 
z
" transform="scale(0.015625)"/>
      <path id="DejaVuSans-6e" d="M 3513 2113 
L 3513 0 
L 2938 0 
L 2938 2094 
Q 2938 2591 2744 2837 
Q 2550 3084 2163 3084 
Q 1697 3084 1428 2787 
Q 1159 2491 1159 1978 
L 1159 0 
L 581 0 
L 581 3500 
L 1159 3500 
L 1159 2956 
Q 1366 3272 1645 3428 
Q 1925 3584 2291 3584 
Q 2894 3584 3203 3211 
Q 3513 2838 3513 2113 
z
" transform="scale(0.015625)"/>
      <path id="DejaVuSans-64" d="M 2906 2969 
L 2906 4863 
L 3481 4863 
L 3481 0 
L 2906 0 
L 2906 525 
Q 2725 213 2448 61 
Q 2172 -91 1784 -91 
Q 1150 -91 751 415 
Q 353 922 353 1747 
Q 353 2572 751 3078 
Q 1150 3584 1784 3584 
Q 2172 3584 2448 3432 
Q 2725 3281 2906 2969 
z
M 947 1747 
Q 947 1113 1208 752 
Q 1469 391 1925 391 
Q 2381 391 2643 752 
Q 2906 1113 2906 1747 
Q 2906 2381 2643 2742 
Q 2381 3103 1925 3103 
Q 1469 3103 1208 2742 
Q 947 2381 947 1747 
z
" transform="scale(0.015625)"/>
      <path id="DejaVuSans-2c" d="M 750 794 
L 1409 794 
L 1409 256 
L 897 -744 
L 494 -744 
L 750 256 
L 750 794 
z
" transform="scale(0.015625)"/>
      <path id="DejaVuSans-33" d="M 2597 2516 
Q 3050 2419 3304 2112 
Q 3559 1806 3559 1356 
Q 3559 666 3084 287 
Q 2609 -91 1734 -91 
Q 1441 -91 1130 -33 
Q 819 25 488 141 
L 488 750 
Q 750 597 1062 519 
Q 1375 441 1716 441 
Q 2309 441 2620 675 
Q 2931 909 2931 1356 
Q 2931 1769 2642 2001 
Q 2353 2234 1838 2234 
L 1294 2234 
L 1294 2753 
L 1863 2753 
Q 2328 2753 2575 2939 
Q 2822 3125 2822 3475 
Q 2822 3834 2567 4026 
Q 2313 4219 1838 4219 
Q 1578 4219 1281 4162 
Q 984 4106 628 3988 
L 628 4550 
Q 988 4650 1302 4700 
Q 1616 4750 1894 4750 
Q 2613 4750 3031 4423 
Q 3450 4097 3450 3541 
Q 3450 3153 3228 2886 
Q 3006 2619 2597 2516 
z
" transform="scale(0.015625)"/>
      <path id="DejaVuSans-70" d="M 1159 525 
L 1159 -1331 
L 581 -1331 
L 581 3500 
L 1159 3500 
L 1159 2969 
Q 1341 3281 1617 3432 
Q 1894 3584 2278 3584 
Q 2916 3584 3314 3078 
Q 3713 2572 3713 1747 
Q 3713 922 3314 415 
Q 2916 -91 2278 -91 
Q 1894 -91 1617 61 
Q 1341 213 1159 525 
z
M 3116 1747 
Q 3116 2381 2855 2742 
Q 2594 3103 2138 3103 
Q 1681 3103 1420 2742 
Q 1159 2381 1159 1747 
Q 1159 1113 1420 752 
Q 1681 391 2138 391 
Q 2594 391 2855 752 
Q 3116 1113 3116 1747 
z
" transform="scale(0.015625)"/>
      <path id="DejaVuSans-4d" d="M 628 4666 
L 1569 4666 
L 2759 1491 
L 3956 4666 
L 4897 4666 
L 4897 0 
L 4281 0 
L 4281 4097 
L 3078 897 
L 2444 897 
L 1241 4097 
L 1241 0 
L 628 0 
L 628 4666 
z
" transform="scale(0.015625)"/>
      <path id="DejaVuSans-6c" d="M 603 4863 
L 1178 4863 
L 1178 0 
L 603 0 
L 603 4863 
z
" transform="scale(0.015625)"/>
      <path id="DejaVuSans-67" d="M 2906 1791 
Q 2906 2416 2648 2759 
Q 2391 3103 1925 3103 
Q 1463 3103 1205 2759 
Q 947 2416 947 1791 
Q 947 1169 1205 825 
Q 1463 481 1925 481 
Q 2391 481 2648 825 
Q 2906 1169 2906 1791 
z
M 3481 434 
Q 3481 -459 3084 -895 
Q 2688 -1331 1869 -1331 
Q 1566 -1331 1297 -1286 
Q 1028 -1241 775 -1147 
L 775 -588 
Q 1028 -725 1275 -790 
Q 1522 -856 1778 -856 
Q 2344 -856 2625 -561 
Q 2906 -266 2906 331 
L 2906 616 
Q 2728 306 2450 153 
Q 2172 0 1784 0 
Q 1141 0 747 490 
Q 353 981 353 1791 
Q 353 2603 747 3093 
Q 1141 3584 1784 3584 
Q 2172 3584 2450 3431 
Q 2728 3278 2906 2969 
L 2906 3500 
L 3481 3500 
L 3481 434 
z
" transform="scale(0.015625)"/>
     </defs>
     <use xlink:href="#DejaVuSans-54"/>
     <use xlink:href="#DejaVuSans-72" x="46.333984"/>
     <use xlink:href="#DejaVuSans-61" x="87.447266"/>
     <use xlink:href="#DejaVuSans-6a" x="148.726562"/>
     <use xlink:href="#DejaVuSans-65" x="176.509766"/>
     <use xlink:href="#DejaVuSans-63" x="238.033203"/>
     <use xlink:href="#DejaVuSans-74" x="293.013672"/>
     <use xlink:href="#DejaVuSans-6f" x="332.222656"/>
     <use xlink:href="#DejaVuSans-72" x="393.404297"/>
     <use xlink:href="#DejaVuSans-79" x="434.517578"/>
     <use xlink:href="#DejaVuSans-20" x="493.697266"/>
     <use xlink:href="#DejaVuSans-77" x="525.484375"/>
     <use xlink:href="#DejaVuSans-69" x="607.271484"/>
     <use xlink:href="#DejaVuSans-74" x="635.054688"/>
     <use xlink:href="#DejaVuSans-68" x="674.263672"/>
     <use xlink:href="#DejaVuSans-3a" x="737.642578"/>
     <use xlink:href="#DejaVuSans-20" x="771.333984"/>
     <use xlink:href="#DejaVuSans-32" x="803.121094"/>
     <use xlink:href="#DejaVuSans-30" x="866.744141"/>
     <use xlink:href="#DejaVuSans-73" x="930.367188"/>
     <use xlink:href="#DejaVuSans-65" x="982.466797"/>
     <use xlink:href="#DejaVuSans-63" x="1043.990234"/>
     <use xlink:href="#DejaVuSans-6f" x="1098.970703"/>
     <use xlink:href="#DejaVuSans-6e" x="1160.152344"/>
     <use xlink:href="#DejaVuSans-64" x="1223.53125"/>
     <use xlink:href="#DejaVuSans-73" x="1287.007812"/>
     <use xlink:href="#DejaVuSans-2c" x="1339.107422"/>
     <use xlink:href="#DejaVuSans-20" x="1370.894531"/>
     <use xlink:href="#DejaVuSans-33" x="1402.681641"/>
     <use xlink:href="#DejaVuSans-30" x="1466.304688"/>
     <use xlink:href="#DejaVuSans-70" x="1529.927734"/>
     <use xlink:href="#DejaVuSans-69" x="1593.404297"/>
     <use xlink:href="#DejaVuSans-65" x="1621.1875"/>
     <use xlink:href="#DejaVuSans-63" x="1682.710938"/>
     <use xlink:href="#DejaVuSans-65" x="1737.691406"/>
     <use xlink:href="#DejaVuSans-73" x="1799.214844"/>
     <use xlink:href="#DejaVuSans-2c" x="1851.314453"/>
     <use xlink:href="#DejaVuSans-20" x="1883.101562"/>
     <use xlink:href="#DejaVuSans-4d" x="1914.888672"/>
     <use xlink:href="#DejaVuSans-65" x="2001.167969"/>
     <use xlink:href="#DejaVuSans-6c" x="2062.691406"/>
     <use xlink:href="#DejaVuSans-6c" x="2090.474609"/>
     <use xlink:href="#DejaVuSans-69" x="2118.257812"/>
     <use xlink:href="#DejaVuSans-6e" x="2146.041016"/>
     <use xlink:href="#DejaVuSans-67" x="2209.419922"/>
     <use xlink:href="#DejaVuSans-65" x="2272.896484"/>
     <use xlink:href="#DejaVuSans-72" x="2334.419922"/>
    </g>
   </g>
   <g id="legend_1">
    <g id="patch_6">
     <path d="M 211.183187 78.82825 
L 362.216 78.82825 
Q 364.216 78.82825 364.216 76.82825 
L 364.216 48.472 
Q 364.216 46.472 362.216 46.472 
L 211.183187 46.472 
Q 209.183187 46.472 209.183187 48.472 
L 209.183187 76.82825 
Q 209.183187 78.82825 211.183187 78.82825 
z
" style="fill: #ffffff; opacity: 0.8; stroke: #cccccc; stroke-linejoin: miter"/>
    </g>
    <g id="line2d_25">
     <path d="M 213.183187 54.570437 
L 223.183187 54.570437 
L 233.183187 54.570437 
" style="fill: none; stroke: #1f77b4; stroke-width: 1.5; stroke-linecap: square"/>
    </g>
    <g id="text_21">
     <!-- 3D input trajectory -->
     <g transform="translate(241.183187 58.070437) scale(0.1 -0.1)">
      <defs>
       <path id="DejaVuSans-44" d="M 1259 4147 
L 1259 519 
L 2022 519 
Q 2988 519 3436 956 
Q 3884 1394 3884 2338 
Q 3884 3275 3436 3711 
Q 2988 4147 2022 4147 
L 1259 4147 
z
M 628 4666 
L 1925 4666 
Q 3281 4666 3915 4102 
Q 4550 3538 4550 2338 
Q 4550 1131 3912 565 
Q 3275 0 1925 0 
L 628 0 
L 628 4666 
z
" transform="scale(0.015625)"/>
       <path id="DejaVuSans-75" d="M 544 1381 
L 544 3500 
L 1119 3500 
L 1119 1403 
Q 1119 906 1312 657 
Q 1506 409 1894 409 
Q 2359 409 2629 706 
Q 2900 1003 2900 1516 
L 2900 3500 
L 3475 3500 
L 3475 0 
L 2900 0 
L 2900 538 
Q 2691 219 2414 64 
Q 2138 -91 1772 -91 
Q 1169 -91 856 284 
Q 544 659 544 1381 
z
M 1991 3584 
L 1991 3584 
z
" transform="scale(0.015625)"/>
      </defs>
      <use xlink:href="#DejaVuSans-33"/>
      <use xlink:href="#DejaVuSans-44" x="63.623047"/>
      <use xlink:href="#DejaVuSans-20" x="140.625"/>
      <use xlink:href="#DejaVuSans-69" x="172.412109"/>
      <use xlink:href="#DejaVuSans-6e" x="200.195312"/>
      <use xlink:href="#DejaVuSans-70" x="263.574219"/>
      <use xlink:href="#DejaVuSans-75" x="327.050781"/>
      <use xlink:href="#DejaVuSans-74" x="390.429688"/>
      <use xlink:href="#DejaVuSans-20" x="429.638672"/>
      <use xlink:href="#DejaVuSans-74" x="461.425781"/>
      <use xlink:href="#DejaVuSans-72" x="500.634766"/>
      <use xlink:href="#DejaVuSans-61" x="541.748047"/>
      <use xlink:href="#DejaVuSans-6a" x="603.027344"/>
      <use xlink:href="#DejaVuSans-65" x="630.810547"/>
      <use xlink:href="#DejaVuSans-63" x="692.333984"/>
      <use xlink:href="#DejaVuSans-74" x="747.314453"/>
      <use xlink:href="#DejaVuSans-6f" x="786.523438"/>
      <use xlink:href="#DejaVuSans-72" x="847.705078"/>
      <use xlink:href="#DejaVuSans-79" x="888.818359"/>
     </g>
    </g>
    <g id="line2d_26">
     <path d="M 213.183187 69.248562 
L 223.183187 69.248562 
L 233.183187 69.248562 
" style="fill: none; stroke: #ff7f0e; stroke-width: 1.5; stroke-linecap: square"/>
    </g>
    <g id="text_22">
     <!-- 3D measured trajectory -->
     <g transform="translate(241.183187 72.748562) scale(0.1 -0.1)">
      <defs>
       <path id="DejaVuSans-6d" d="M 3328 2828 
Q 3544 3216 3844 3400 
Q 4144 3584 4550 3584 
Q 5097 3584 5394 3201 
Q 5691 2819 5691 2113 
L 5691 0 
L 5113 0 
L 5113 2094 
Q 5113 2597 4934 2840 
Q 4756 3084 4391 3084 
Q 3944 3084 3684 2787 
Q 3425 2491 3425 1978 
L 3425 0 
L 2847 0 
L 2847 2094 
Q 2847 2600 2669 2842 
Q 2491 3084 2119 3084 
Q 1678 3084 1418 2786 
Q 1159 2488 1159 1978 
L 1159 0 
L 581 0 
L 581 3500 
L 1159 3500 
L 1159 2956 
Q 1356 3278 1631 3431 
Q 1906 3584 2284 3584 
Q 2666 3584 2933 3390 
Q 3200 3197 3328 2828 
z
" transform="scale(0.015625)"/>
      </defs>
      <use xlink:href="#DejaVuSans-33"/>
      <use xlink:href="#DejaVuSans-44" x="63.623047"/>
      <use xlink:href="#DejaVuSans-20" x="140.625"/>
      <use xlink:href="#DejaVuSans-6d" x="172.412109"/>
      <use xlink:href="#DejaVuSans-65" x="269.824219"/>
      <use xlink:href="#DejaVuSans-61" x="331.347656"/>
      <use xlink:href="#DejaVuSans-73" x="392.626953"/>
      <use xlink:href="#DejaVuSans-75" x="444.726562"/>
      <use xlink:href="#DejaVuSans-72" x="508.105469"/>
      <use xlink:href="#DejaVuSans-65" x="546.96875"/>
      <use xlink:href="#DejaVuSans-64" x="608.492188"/>
      <use xlink:href="#DejaVuSans-20" x="671.96875"/>
      <use xlink:href="#DejaVuSans-74" x="703.755859"/>
      <use xlink:href="#DejaVuSans-72" x="742.964844"/>
      <use xlink:href="#DejaVuSans-61" x="784.078125"/>
      <use xlink:href="#DejaVuSans-6a" x="845.357422"/>
      <use xlink:href="#DejaVuSans-65" x="873.140625"/>
      <use xlink:href="#DejaVuSans-63" x="934.664062"/>
      <use xlink:href="#DejaVuSans-74" x="989.644531"/>
      <use xlink:href="#DejaVuSans-6f" x="1028.853516"/>
      <use xlink:href="#DejaVuSans-72" x="1090.035156"/>
      <use xlink:href="#DejaVuSans-79" x="1131.148438"/>
     </g>
    </g>
   </g>
  </g>
 </g>
 <defs>
  <clipPath id="pe3745af4a3">
   <rect x="103.104" y="41.472" width="266.112" height="266.112"/>
  </clipPath>
 </defs>
</svg>
