<?xml version="1.0" encoding="utf-8" standalone="no"?>
<!DOCTYPE svg PUBLIC "-//W3C//DTD SVG 1.1//EN"
  "http://www.w3.org/Graphics/SVG/1.1/DTD/svg11.dtd">
<svg xmlns:xlink="http://www.w3.org/1999/xlink" width="460.8pt" height="345.6pt" viewBox="0 0 460.8 345.6" xmlns="http://www.w3.org/2000/svg" version="1.1">
 <metadata>
  <rdf:RDF xmlns:dc="http://purl.org/dc/elements/1.1/" xmlns:cc="http://creativecommons.org/ns#" xmlns:rdf="http://www.w3.org/1999/02/22-rdf-syntax-ns#">
   <cc:Work>
    <dc:type rdf:resource="http://purl.org/dc/dcmitype/StillImage"/>
    <dc:date>2024-02-09T17:20:06.963433</dc:date>
    <dc:format>image/svg+xml</dc:format>
    <dc:creator>
     <cc:Agent>
      <dc:title>Matplotlib v3.8.2, https://matplotlib.org/</dc:title>
     </cc:Agent>
    </dc:creator>
   </cc:Work>
  </rdf:RDF>
 </metadata>
 <defs>
  <style type="text/css">*{stroke-linejoin: round; stroke-linecap: butt}</style>
 </defs>
 <g id="figure_1">
  <g id="patch_1">
   <path d="M 0 345.6 
L 460.8 345.6 
L 460.8 0 
L 0 0 
z
" style="fill: #ffffff"/>
  </g>
  <g id="patch_2">
   <path d="M 103.104 307.584 
L 369.216 307.584 
L 369.216 41.472 
L 103.104 41.472 
z
" style="fill: #ffffff"/>
  </g>
  <g id="pane3d_1">
   <g id="patch_3">
    <path d="M 356.77077 214.439877 
L 232.231601 147.544115 
L 231.826155 49.766582 
L 363.469947 114.381868 
" style="fill: #f2f2f2; opacity: 0.5; stroke: #f2f2f2; stroke-linejoin: miter"/>
   </g>
  </g>
  <g id="pane3d_2">
   <g id="patch_4">
    <path d="M 121.721691 224.885833 
L 232.231601 147.544115 
L 231.826155 49.766582 
L 114.901839 124.509011 
" style="fill: #e6e6e6; opacity: 0.5; stroke: #e6e6e6; stroke-linejoin: miter"/>
   </g>
  </g>
  <g id="pane3d_3">
   <g id="patch_5">
    <path d="M 248.304506 301.546684 
L 356.77077 214.439877 
L 232.231601 147.544115 
L 121.721691 224.885833 
" style="fill: #ececec; opacity: 0.5; stroke: #ececec; stroke-linejoin: miter"/>
   </g>
  </g>
  <g id="grid3d_1">
   <g id="Line3DCollection_1">
    <path d="M 263.72443 289.163291 
L 137.377678 213.928798 
L 131.519078 113.886646 
" style="fill: none; stroke: #b0b0b0; stroke-width: 0.8"/>
    <path d="M 280.046432 276.05546 
L 153.969164 202.317043 
L 149.110283 102.641685 
" style="fill: none; stroke: #b0b0b0; stroke-width: 0.8"/>
    <path d="M 296.035827 263.214738 
L 170.242145 190.928197 
L 166.344858 91.624695 
" style="fill: none; stroke: #b0b0b0; stroke-width: 0.8"/>
    <path d="M 311.70268 250.633042 
L 186.205704 179.755904 
L 183.233539 80.828814 
" style="fill: none; stroke: #b0b0b0; stroke-width: 0.8"/>
    <path d="M 327.056653 238.302613 
L 201.868585 168.794045 
L 199.786635 70.24745 
" style="fill: none; stroke: #b0b0b0; stroke-width: 0.8"/>
    <path d="M 342.107026 226.215998 
L 217.239202 158.03673 
L 216.014052 59.874274 
" style="fill: none; stroke: #b0b0b0; stroke-width: 0.8"/>
   </g>
  </g>
  <g id="grid3d_2">
   <g id="Line3DCollection_2">
    <path d="M 354.366205 109.913439 
L 348.183882 209.827461 
L 239.543762 296.241018 
" style="fill: none; stroke: #b0b0b0; stroke-width: 0.8"/>
    <path d="M 330.45749 98.178222 
L 325.614531 197.704417 
L 216.540798 282.310005 
" style="fill: none; stroke: #b0b0b0; stroke-width: 0.8"/>
    <path d="M 307.056206 86.69207 
L 303.498866 185.825067 
L 194.03298 268.678862 
" style="fill: none; stroke: #b0b0b0; stroke-width: 0.8"/>
    <path d="M 284.146369 75.447137 
L 281.823343 174.182139 
L 172.004491 255.338009 
" style="fill: none; stroke: #b0b0b0; stroke-width: 0.8"/>
    <path d="M 261.712659 64.435903 
L 260.574952 162.768643 
L 150.440181 242.278272 
" style="fill: none; stroke: #b0b0b0; stroke-width: 0.8"/>
    <path d="M 239.740384 53.651157 
L 239.741191 151.577864 
L 129.325532 229.490856 
" style="fill: none; stroke: #b0b0b0; stroke-width: 0.8"/>
   </g>
  </g>
  <g id="grid3d_3">
   <g id="Line3DCollection_3">
    <path d="M 121.474939 221.254054 
L 232.216879 143.993783 
L 357.013273 210.817892 
" style="fill: none; stroke: #b0b0b0; stroke-width: 0.8"/>
    <path d="M 120.449871 206.166765 
L 232.155763 129.254997 
L 358.020593 195.772687 
" style="fill: none; stroke: #b0b0b0; stroke-width: 0.8"/>
    <path d="M 119.406881 190.815686 
L 232.093648 114.275301 
L 359.045371 180.466745 
" style="fill: none; stroke: #b0b0b0; stroke-width: 0.8"/>
    <path d="M 118.345493 175.193837 
L 232.030509 99.048739 
L 360.088064 164.893229 
" style="fill: none; stroke: #b0b0b0; stroke-width: 0.8"/>
    <path d="M 117.265218 159.293992 
L 231.966321 83.569158 
L 361.149145 149.045059 
" style="fill: none; stroke: #b0b0b0; stroke-width: 0.8"/>
    <path d="M 116.165546 143.108662 
L 231.901058 67.830199 
L 362.229106 132.914906 
" style="fill: none; stroke: #b0b0b0; stroke-width: 0.8"/>
    <path d="M 115.045951 126.630089 
L 231.834691 51.825286 
L 363.328455 116.495176 
" style="fill: none; stroke: #b0b0b0; stroke-width: 0.8"/>
   </g>
  </g>
  <g id="axis3d_1">
   <g id="line2d_1">
    <path d="M 356.77077 214.439877 
L 248.304506 301.546684 
" style="fill: none; stroke: #000000; stroke-width: 0.8; stroke-linecap: square"/>
   </g>
   <g id="xtick_1">
    <g id="line2d_2">
     <path d="M 262.650726 288.523943 
L 265.875077 290.443916 
" style="fill: none; stroke: #000000; stroke-width: 0.8; stroke-linecap: square"/>
    </g>
    <g id="text_1">
     <!-- 1.0 -->
     <g transform="translate(266.804877 311.387866) scale(0.1 -0.1)">
      <defs>
       <path id="DejaVuSans-31" d="M 794 531 
L 1825 531 
L 1825 4091 
L 703 3866 
L 703 4441 
L 1819 4666 
L 2450 4666 
L 2450 531 
L 3481 531 
L 3481 0 
L 794 0 
L 794 531 
z
" transform="scale(0.015625)"/>
       <path id="DejaVuSans-2e" d="M 684 794 
L 1344 794 
L 1344 0 
L 684 0 
L 684 794 
z
" transform="scale(0.015625)"/>
       <path id="DejaVuSans-30" d="M 2034 4250 
Q 1547 4250 1301 3770 
Q 1056 3291 1056 2328 
Q 1056 1369 1301 889 
Q 1547 409 2034 409 
Q 2525 409 2770 889 
Q 3016 1369 3016 2328 
Q 3016 3291 2770 3770 
Q 2525 4250 2034 4250 
z
M 2034 4750 
Q 2819 4750 3233 4129 
Q 3647 3509 3647 2328 
Q 3647 1150 3233 529 
Q 2819 -91 2034 -91 
Q 1250 -91 836 529 
Q 422 1150 422 2328 
Q 422 3509 836 4129 
Q 1250 4750 2034 4750 
z
" transform="scale(0.015625)"/>
      </defs>
      <use xlink:href="#DejaVuSans-31"/>
      <use xlink:href="#DejaVuSans-2e" x="63.623047"/>
      <use xlink:href="#DejaVuSans-30" x="95.410156"/>
     </g>
    </g>
   </g>
   <g id="xtick_2">
    <g id="line2d_3">
     <path d="M 278.975664 275.429203 
L 282.191164 277.309843 
" style="fill: none; stroke: #000000; stroke-width: 0.8; stroke-linecap: square"/>
    </g>
    <g id="text_2">
     <!-- 1.2 -->
     <g transform="translate(283.020331 298.123741) scale(0.1 -0.1)">
      <defs>
       <path id="DejaVuSans-32" d="M 1228 531 
L 3431 531 
L 3431 0 
L 469 0 
L 469 531 
Q 828 903 1448 1529 
Q 2069 2156 2228 2338 
Q 2531 2678 2651 2914 
Q 2772 3150 2772 3378 
Q 2772 3750 2511 3984 
Q 2250 4219 1831 4219 
Q 1534 4219 1204 4116 
Q 875 4013 500 3803 
L 500 4441 
Q 881 4594 1212 4672 
Q 1544 4750 1819 4750 
Q 2544 4750 2975 4387 
Q 3406 4025 3406 3419 
Q 3406 3131 3298 2873 
Q 3191 2616 2906 2266 
Q 2828 2175 2409 1742 
Q 1991 1309 1228 531 
z
" transform="scale(0.015625)"/>
      </defs>
      <use xlink:href="#DejaVuSans-31"/>
      <use xlink:href="#DejaVuSans-2e" x="63.623047"/>
      <use xlink:href="#DejaVuSans-32" x="95.410156"/>
     </g>
    </g>
   </g>
   <g id="xtick_3">
    <g id="line2d_4">
     <path d="M 294.968099 262.601175 
L 298.174438 264.443677 
" style="fill: none; stroke: #000000; stroke-width: 0.8; stroke-linecap: square"/>
    </g>
    <g id="text_3">
     <!-- 1.4 -->
     <g transform="translate(298.905207 285.130025) scale(0.1 -0.1)">
      <defs>
       <path id="DejaVuSans-34" d="M 2419 4116 
L 825 1625 
L 2419 1625 
L 2419 4116 
z
M 2253 4666 
L 3047 4666 
L 3047 1625 
L 3713 1625 
L 3713 1100 
L 3047 1100 
L 3047 0 
L 2419 0 
L 2419 1100 
L 313 1100 
L 313 1709 
L 2253 4666 
z
" transform="scale(0.015625)"/>
      </defs>
      <use xlink:href="#DejaVuSans-31"/>
      <use xlink:href="#DejaVuSans-2e" x="63.623047"/>
      <use xlink:href="#DejaVuSans-34" x="95.410156"/>
     </g>
    </g>
   </g>
   <g id="xtick_4">
    <g id="line2d_5">
     <path d="M 310.638088 250.031791 
L 313.834979 251.837304 
" style="fill: none; stroke: #000000; stroke-width: 0.8; stroke-linecap: square"/>
    </g>
    <g id="text_4">
     <!-- 1.6 -->
     <g transform="translate(314.469514 272.398532) scale(0.1 -0.1)">
      <defs>
       <path id="DejaVuSans-36" d="M 2113 2584 
Q 1688 2584 1439 2293 
Q 1191 2003 1191 1497 
Q 1191 994 1439 701 
Q 1688 409 2113 409 
Q 2538 409 2786 701 
Q 3034 994 3034 1497 
Q 3034 2003 2786 2293 
Q 2538 2584 2113 2584 
z
M 3366 4563 
L 3366 3988 
Q 3128 4100 2886 4159 
Q 2644 4219 2406 4219 
Q 1781 4219 1451 3797 
Q 1122 3375 1075 2522 
Q 1259 2794 1537 2939 
Q 1816 3084 2150 3084 
Q 2853 3084 3261 2657 
Q 3669 2231 3669 1497 
Q 3669 778 3244 343 
Q 2819 -91 2113 -91 
Q 1303 -91 875 529 
Q 447 1150 447 2328 
Q 447 3434 972 4092 
Q 1497 4750 2381 4750 
Q 2619 4750 2861 4703 
Q 3103 4656 3366 4563 
z
" transform="scale(0.015625)"/>
      </defs>
      <use xlink:href="#DejaVuSans-31"/>
      <use xlink:href="#DejaVuSans-2e" x="63.623047"/>
      <use xlink:href="#DejaVuSans-36" x="95.410156"/>
     </g>
    </g>
   </g>
   <g id="xtick_5">
    <g id="line2d_6">
     <path d="M 325.995285 237.713306 
L 329.182464 239.482933 
" style="fill: none; stroke: #000000; stroke-width: 0.8; stroke-linecap: square"/>
    </g>
    <g id="text_5">
     <!-- 1.8 -->
     <g transform="translate(329.722859 259.921405) scale(0.1 -0.1)">
      <defs>
       <path id="DejaVuSans-38" d="M 2034 2216 
Q 1584 2216 1326 1975 
Q 1069 1734 1069 1313 
Q 1069 891 1326 650 
Q 1584 409 2034 409 
Q 2484 409 2743 651 
Q 3003 894 3003 1313 
Q 3003 1734 2745 1975 
Q 2488 2216 2034 2216 
z
M 1403 2484 
Q 997 2584 770 2862 
Q 544 3141 544 3541 
Q 544 4100 942 4425 
Q 1341 4750 2034 4750 
Q 2731 4750 3128 4425 
Q 3525 4100 3525 3541 
Q 3525 3141 3298 2862 
Q 3072 2584 2669 2484 
Q 3125 2378 3379 2068 
Q 3634 1759 3634 1313 
Q 3634 634 3220 271 
Q 2806 -91 2034 -91 
Q 1263 -91 848 271 
Q 434 634 434 1313 
Q 434 1759 690 2068 
Q 947 2378 1403 2484 
z
M 1172 3481 
Q 1172 3119 1398 2916 
Q 1625 2713 2034 2713 
Q 2441 2713 2670 2916 
Q 2900 3119 2900 3481 
Q 2900 3844 2670 4047 
Q 2441 4250 2034 4250 
Q 1625 4250 1398 4047 
Q 1172 3844 1172 3481 
z
" transform="scale(0.015625)"/>
      </defs>
      <use xlink:href="#DejaVuSans-31"/>
      <use xlink:href="#DejaVuSans-2e" x="63.623047"/>
      <use xlink:href="#DejaVuSans-38" x="95.410156"/>
     </g>
    </g>
   </g>
   <g id="xtick_6">
    <g id="line2d_7">
     <path d="M 341.048964 225.638284 
L 344.226187 227.373084 
" style="fill: none; stroke: #000000; stroke-width: 0.8; stroke-linecap: square"/>
    </g>
    <g id="text_6">
     <!-- 2.0 -->
     <g transform="translate(344.674468 247.691095) scale(0.1 -0.1)">
      <use xlink:href="#DejaVuSans-32"/>
      <use xlink:href="#DejaVuSans-2e" x="63.623047"/>
      <use xlink:href="#DejaVuSans-30" x="95.410156"/>
     </g>
    </g>
   </g>
  </g>
  <g id="axis3d_2">
   <g id="line2d_8">
    <path d="M 121.721691 224.885833 
L 248.304506 301.546684 
" style="fill: none; stroke: #000000; stroke-width: 0.8; stroke-linecap: square"/>
   </g>
   <g id="xtick_7">
    <g id="line2d_9">
     <path d="M 240.475243 295.500108 
L 237.677561 297.725415 
" style="fill: none; stroke: #000000; stroke-width: 0.8; stroke-linecap: square"/>
    </g>
    <g id="text_7">
     <!-- 1.0 -->
     <g transform="translate(221.915044 319.543016) scale(0.1 -0.1)">
      <use xlink:href="#DejaVuSans-31"/>
      <use xlink:href="#DejaVuSans-2e" x="63.623047"/>
      <use xlink:href="#DejaVuSans-30" x="95.410156"/>
     </g>
    </g>
   </g>
   <g id="xtick_8">
    <g id="line2d_10">
     <path d="M 217.475315 281.585125 
L 214.668548 283.76226 
" style="fill: none; stroke: #000000; stroke-width: 0.8; stroke-linecap: square"/>
    </g>
    <g id="text_8">
     <!-- 1.2 -->
     <g transform="translate(198.990037 305.424322) scale(0.1 -0.1)">
      <use xlink:href="#DejaVuSans-31"/>
      <use xlink:href="#DejaVuSans-2e" x="63.623047"/>
      <use xlink:href="#DejaVuSans-32" x="95.410156"/>
     </g>
    </g>
   </g>
   <g id="xtick_9">
    <g id="line2d_11">
     <path d="M 194.970189 267.969496 
L 192.155372 270.100007 
" style="fill: none; stroke: #000000; stroke-width: 0.8; stroke-linecap: square"/>
    </g>
    <g id="text_9">
     <!-- 1.4 -->
     <g transform="translate(176.55908 291.609896) scale(0.1 -0.1)">
      <use xlink:href="#DejaVuSans-31"/>
      <use xlink:href="#DejaVuSans-2e" x="63.623047"/>
      <use xlink:href="#DejaVuSans-34" x="95.410156"/>
     </g>
    </g>
   </g>
   <g id="xtick_10">
    <g id="line2d_12">
     <path d="M 172.944066 254.643666 
L 170.122179 256.729034 
" style="fill: none; stroke: #000000; stroke-width: 0.8; stroke-linecap: square"/>
    </g>
    <g id="text_10">
     <!-- 1.6 -->
     <g transform="translate(154.606375 278.090007) scale(0.1 -0.1)">
      <use xlink:href="#DejaVuSans-31"/>
      <use xlink:href="#DejaVuSans-2e" x="63.623047"/>
      <use xlink:href="#DejaVuSans-36" x="95.410156"/>
     </g>
    </g>
   </g>
   <g id="xtick_11">
    <g id="line2d_13">
     <path d="M 151.381814 241.598478 
L 148.553778 243.640123 
" style="fill: none; stroke: #000000; stroke-width: 0.8; stroke-linecap: square"/>
    </g>
    <g id="text_11">
     <!-- 1.8 -->
     <g transform="translate(133.116786 264.855336) scale(0.1 -0.1)">
      <use xlink:href="#DejaVuSans-31"/>
      <use xlink:href="#DejaVuSans-2e" x="63.623047"/>
      <use xlink:href="#DejaVuSans-38" x="95.410156"/>
     </g>
    </g>
   </g>
   <g id="xtick_12">
    <g id="line2d_14">
     <path d="M 130.268934 228.82516 
L 127.435618 230.824443 
" style="fill: none; stroke: #000000; stroke-width: 0.8; stroke-linecap: square"/>
    </g>
    <g id="text_12">
     <!-- 2.0 -->
     <g transform="translate(112.075812 251.896951) scale(0.1 -0.1)">
      <use xlink:href="#DejaVuSans-32"/>
      <use xlink:href="#DejaVuSans-2e" x="63.623047"/>
      <use xlink:href="#DejaVuSans-30" x="95.410156"/>
     </g>
    </g>
   </g>
  </g>
  <g id="axis3d_3">
   <g id="line2d_15">
    <path d="M 121.721691 224.885833 
L 114.901839 124.509011 
" style="fill: none; stroke: #000000; stroke-width: 0.8; stroke-linecap: square"/>
   </g>
   <g id="xtick_13">
    <g id="line2d_16">
     <path d="M 122.421026 220.594007 
L 119.579653 222.576321 
" style="fill: none; stroke: #000000; stroke-width: 0.8; stroke-linecap: square"/>
    </g>
    <g id="text_13">
     <!-- 0.2 -->
     <g transform="translate(93.795187 229.726602) scale(0.1 -0.1)">
      <use xlink:href="#DejaVuSans-30"/>
      <use xlink:href="#DejaVuSans-2e" x="63.623047"/>
      <use xlink:href="#DejaVuSans-32" x="95.410156"/>
     </g>
    </g>
   </g>
   <g id="xtick_14">
    <g id="line2d_17">
     <path d="M 121.404719 205.509333 
L 118.537007 207.483811 
" style="fill: none; stroke: #000000; stroke-width: 0.8; stroke-linecap: square"/>
    </g>
    <g id="text_14">
     <!-- 0.4 -->
     <g transform="translate(92.598273 214.635859) scale(0.1 -0.1)">
      <use xlink:href="#DejaVuSans-30"/>
      <use xlink:href="#DejaVuSans-2e" x="63.623047"/>
      <use xlink:href="#DejaVuSans-34" x="95.410156"/>
     </g>
    </g>
   </g>
   <g id="xtick_15">
    <g id="line2d_18">
     <path d="M 120.370652 190.161062 
L 117.476111 192.127125 
" style="fill: none; stroke: #000000; stroke-width: 0.8; stroke-linecap: square"/>
    </g>
    <g id="text_15">
     <!-- 0.6 -->
     <g transform="translate(91.380415 199.281071) scale(0.1 -0.1)">
      <use xlink:href="#DejaVuSans-30"/>
      <use xlink:href="#DejaVuSans-2e" x="63.623047"/>
      <use xlink:href="#DejaVuSans-36" x="95.410156"/>
     </g>
    </g>
   </g>
   <g id="xtick_16">
    <g id="line2d_19">
     <path d="M 119.318356 174.542224 
L 116.396481 176.499266 
" style="fill: none; stroke: #000000; stroke-width: 0.8; stroke-linecap: square"/>
    </g>
    <g id="text_16">
     <!-- 0.8 -->
     <g transform="translate(90.141061 183.655246) scale(0.1 -0.1)">
      <use xlink:href="#DejaVuSans-30"/>
      <use xlink:href="#DejaVuSans-2e" x="63.623047"/>
      <use xlink:href="#DejaVuSans-38" x="95.410156"/>
     </g>
    </g>
   </g>
   <g id="xtick_17">
    <g id="line2d_20">
     <path d="M 118.247344 158.645599 
L 115.297618 160.592987 
" style="fill: none; stroke: #000000; stroke-width: 0.8; stroke-linecap: square"/>
    </g>
    <g id="text_17">
     <!-- 1.0 -->
     <g transform="translate(88.879635 167.751145) scale(0.1 -0.1)">
      <use xlink:href="#DejaVuSans-31"/>
      <use xlink:href="#DejaVuSans-2e" x="63.623047"/>
      <use xlink:href="#DejaVuSans-30" x="95.410156"/>
     </g>
    </g>
   </g>
   <g id="xtick_18">
    <g id="line2d_21">
     <path d="M 117.157114 142.463711 
L 114.179001 144.400781 
" style="fill: none; stroke: #000000; stroke-width: 0.8; stroke-linecap: square"/>
    </g>
    <g id="text_18">
     <!-- 1.2 -->
     <g transform="translate(87.595543 151.561266) scale(0.1 -0.1)">
      <use xlink:href="#DejaVuSans-31"/>
      <use xlink:href="#DejaVuSans-2e" x="63.623047"/>
      <use xlink:href="#DejaVuSans-32" x="95.410156"/>
     </g>
    </g>
   </g>
   <g id="xtick_19">
    <g id="line2d_22">
     <path d="M 116.047142 125.988812 
L 113.040094 127.914868 
" style="fill: none; stroke: #000000; stroke-width: 0.8; stroke-linecap: square"/>
    </g>
    <g id="text_19">
     <!-- 1.4 -->
     <g transform="translate(86.288169 135.077838) scale(0.1 -0.1)">
      <use xlink:href="#DejaVuSans-31"/>
      <use xlink:href="#DejaVuSans-2e" x="63.623047"/>
      <use xlink:href="#DejaVuSans-34" x="95.410156"/>
     </g>
    </g>
   </g>
  </g>
  <g id="axes_1">
   <g id="line2d_23">
    <path d="M 193.19638 251.926821 
L 192.042974 253.224934 
L 191.435421 252.99502 
L 190.628148 252.931329 
L 189.241881 252.153014 
L 189.146261 249.805268 
L 186.241009 246.391345 
L 183.723154 240.949602 
L 180.604588 237.386488 
L 176.054691 235.500629 
L 170.527493 230.00848 
L 167.033019 228.50706 
L 164.462432 227.17216 
L 161.304277 224.541322 
L 159.784076 220.883441 
L 160.524706 214.944292 
L 164.635714 207.363233 
L 169.216806 199.440138 
L 176.363527 190.549229 
L 181.714754 183.714419 
L 187.045497 178.737982 
L 193.360587 174.462915 
L 205.535614 168.466452 
L 216.017743 163.109665 
L 219.584065 163.114565 
L 222.579782 162.761334 
L 225.888592 162.124058 
L 229.567356 162.838875 
L 233.112767 163.842456 
L 235.959637 163.971212 
L 240.542411 165.078811 
L 246.606512 166.034121 
L 252.589717 166.786857 
L 258.781351 166.059421 
L 264.189548 165.617889 
L 270.009461 167.086804 
L 276.473482 168.549964 
L 288.814574 169.285396 
L 294.500217 169.728251 
L 301.840747 169.794993 
L 305.124699 171.258681 
L 308.90113 173.522098 
L 311.467326 176.742348 
L 314.235933 179.070066 
L 314.113785 180.748472 
L 312.539548 185.083471 
L 308.734588 189.452125 
L 305.076788 194.009012 
L 301.027645 198.597407 
L 295.413098 200.741536 
L 293.220236 202.971315 
L 291.624466 206.566264 
L 290.254064 211.311043 
L 288.040163 215.001586 
L 286.437598 218.434767 
L 283.388268 221.70453 
L 280.63365 223.751893 
L 275.509026 225.869366 
L 271.181329 226.300514 
L 265.68739 227.475408 
L 260.959926 227.15455 
L 257.591744 226.609956 
L 252.362288 226.328607 
L 245.910785 225.627689 
L 239.155424 226.675954 
L 231.222707 227.174943 
L 224.255913 225.52083 
L 210.907419 219.572366 
L 205.350763 215.362285 
L 199.755222 210.654158 
L 196.357338 208.763497 
L 192.278419 205.934883 
L 188.550984 202.327986 
L 184.010143 199.117822 
L 181.473025 195.647305 
L 177.162587 192.164052 
L 170.409464 184.631551 
L 166.937407 181.310851 
L 167.711959 176.719703 
L 174.263916 165.529938 
L 178.461214 158.768215 
L 182.290023 153.085534 
L 187.598057 148.926145 
L 192.084354 144.453892 
L 193.931601 142.311961 
L 197.285929 139.335668 
L 199.968328 135.73204 
L 201.399009 132.70441 
L 203.301795 130.371253 
L 208.914068 129.92694 
L 214.63204 131.522622 
L 222.99233 133.683731 
L 231.017363 135.172208 
L 239.165562 137.062492 
L 246.334308 139.280888 
L 251.972528 139.975543 
L 257.022334 140.090368 
L 263.884548 141.60503 
L 268.875514 142.887471 
L 276.022771 145.396933 
L 282.540972 147.142558 
L 289.12572 148.513894 
L 292.919324 149.077731 
L 296.161872 150.22525 
L 298.569925 150.681936 
L 301.315561 152.830382 
L 302.120953 151.791143 
L 302.525007 150.232026 
L 304.609791 152.330232 
L 305.662821 157.276495 
L 306.016296 163.396447 
L 304.929573 170.864904 
L 303.430923 176.303864 
L 302.173281 181.290855 
L 301.174643 184.60998 
L 299.057034 188.8826 
L 296.187047 190.122589 
L 291.550668 192.264356 
L 285.96047 193.1127 
L 280.213515 194.178988 
L 274.186541 193.843573 
L 269.405785 192.458172 
L 262.291563 191.844549 
L 257.676714 191.086791 
L 253.910482 191.292474 
L 250.436573 191.829476 
L 245.475798 192.294282 
L 242.358887 192.447415 
L 238.132679 192.534656 
L 231.637182 191.056879 
L 224.387519 190.337852 
L 216.984648 186.814454 
L 207.871379 183.379479 
L 200.596145 179.519204 
L 194.888607 177.497131 
L 189.540189 174.427243 
L 183.566893 171.96073 
L 179.956591 169.12295 
L 177.573086 164.539886 
L 176.5518 159.850771 
L 174.888227 154.932623 
L 174.146619 149.786825 
L 173.705222 144.641391 
L 173.995938 140.952384 
L 172.959959 137.331403 
L 174.238341 132.791622 
L 174.952534 129.215028 
L 177.86354 126.290338 
L 181.230366 122.304192 
L 186.019817 119.610903 
L 190.688587 115.558625 
L 196.244132 111.936262 
L 204.623456 105.609098 
L 210.45924 101.019255 
L 214.264079 99.391127 
L 217.304238 99.355986 
L 220.202344 100.234608 
L 221.278585 99.463134 
L 224.093703 100.858309 
L 226.289815 101.815514 
L 231.314306 103.707288 
L 237.331387 104.094513 
L 243.820583 104.9898 
L 251.957542 108.716466 
L 259.739735 110.52062 
L 267.556723 109.092077 
L 274.746098 108.265846 
L 279.51582 108.328554 
L 285.21901 109.710191 
L 289.524943 111.90871 
L 292.980413 115.585163 
L 293.473385 118.713348 
L 296.704827 120.964821 
L 298.834006 126.048356 
L 301.613564 131.179949 
L 303.092399 136.298033 
L 302.394974 142.410635 
L 301.297726 146.444786 
L 301.620664 151.629564 
L 300.137466 154.868692 
L 298.259541 158.430202 
L 296.510679 159.792704 
L 293.663586 161.823709 
L 289.753552 162.247264 
L 286.318665 164.019086 
L 285.495653 165.333309 
L 283.747411 164.928087 
L 279.590322 165.514506 
L 277.012364 164.250332 
L 272.588165 162.768313 
L 268.765281 161.210842 
L 261.984472 159.586511 
L 261.984472 159.586511 
" clip-path="url(#p5217bbd889)" style="fill: none; stroke: #1f77b4; stroke-width: 1.5; stroke-linecap: square"/>
   </g>
   <g id="line2d_24">
    <path d="M 198.431667 246.682387 
L 193.433865 243.023752 
L 188.873974 239.137427 
L 184.791439 235.057683 
L 181.220345 230.820125 
L 178.189214 226.461256 
L 175.720887 222.018056 
L 173.832495 217.527582 
L 172.535491 213.026592 
L 171.835757 208.5512 
L 171.733763 204.13656 
L 172.224772 199.816588 
L 173.299088 195.623717 
L 174.942327 191.588678 
L 177.135709 187.74033 
L 179.856372 184.1055 
L 183.077677 180.708869 
L 186.76953 177.572869 
L 190.898693 174.717612 
L 195.429086 172.160827 
L 200.32209 169.917824 
L 205.53683 168.00146 
L 211.030454 166.422122 
L 216.758402 165.187715 
L 222.674665 164.303653 
L 228.732035 163.772859 
L 234.88236 163.595762 
L 241.076785 163.770301 
L 247.266005 164.29193 
L 253.400518 165.153622 
L 259.430881 166.34588 
L 265.30799 167.85675 
L 270.983354 169.671843 
L 276.409405 171.774362 
L 281.539806 174.145139 
L 286.329792 176.762693 
L 290.736522 179.603291 
L 294.719446 182.641045 
L 298.240696 185.848017 
L 301.265483 189.194355 
L 303.762504 192.648466 
L 305.704354 196.177201 
L 307.067932 199.746093 
L 307.83483 203.319612 
L 307.991716 206.861464 
L 307.530664 210.334919 
L 306.449461 213.703167 
L 304.751849 216.929707 
L 302.447712 219.978753 
L 299.553175 222.815661 
L 296.090637 225.40736 
L 292.088697 227.722787 
L 287.581992 229.733314 
L 282.610931 231.413157 
L 277.221328 232.739754 
L 271.463935 233.694109 
L 265.393888 234.261086 
L 259.07006 234.429651 
L 252.554349 234.193047 
L 245.910904 233.548905 
L 239.205307 232.499286 
L 232.503738 231.050645 
L 225.872127 229.213728 
L 219.375321 227.003402 
L 213.076282 224.438415 
L 207.035333 221.541112 
L 201.309462 218.337086 
L 195.951702 214.854806 
L 191.010596 211.125206 
L 186.529744 207.181255 
L 182.547452 203.057524 
L 179.096464 198.789746 
L 176.203794 194.414387 
L 173.890638 189.968234 
L 172.17237 185.488005 
L 171.058608 181.009982 
L 170.553345 176.569683 
L 170.655135 172.201558 
L 171.357318 167.938729 
L 172.648287 163.812752 
L 174.511779 159.853428 
L 176.927179 156.088629 
L 179.869841 152.544167 
L 183.311408 149.243684 
L 187.220137 146.208561 
L 191.561212 143.45786 
L 196.297051 141.008267 
L 201.38761 138.874064 
L 206.790663 137.067103 
L 212.462086 135.596791 
L 218.356117 134.470081 
L 224.42562 133.691472 
L 230.622335 133.263001 
L 236.897128 133.184253 
L 243.200235 133.452358 
L 249.481519 134.061997 
L 255.690719 135.005409 
L 261.777721 136.272401 
L 267.692831 137.850363 
L 273.387065 139.724286 
L 278.812462 141.876797 
L 283.922405 144.288194 
L 288.671966 146.936502 
L 293.018277 149.797547 
L 296.920903 152.845049 
L 300.342248 156.050732 
L 303.247962 159.384474 
L 305.607359 162.814472 
L 307.393841 166.307447 
L 308.585306 169.828882 
L 309.164551 173.343287 
L 309.119646 176.814507 
L 308.444274 180.206052 
L 307.138023 183.481468 
L 305.206626 186.604727 
L 302.662122 189.540635 
L 299.522946 192.255264 
L 295.813927 194.716387 
L 291.566192 196.893903 
L 286.816965 198.760267 
L 281.609264 200.290881 
L 275.991491 201.464471 
L 270.016931 202.263409 
L 263.743144 202.673993 
L 257.231287 202.686668 
L 250.545356 202.29618 
L 243.751376 201.501664 
L 236.916557 200.306659 
L 230.108428 198.71905 
L 223.393971 196.750941 
L 216.838776 194.418459 
L 210.506231 191.741501 
L 204.456772 188.743422 
L 198.747193 185.450681 
L 193.430042 181.892449 
L 188.553102 178.100196 
L 184.158963 174.107257 
L 180.284699 169.948392 
L 176.961628 165.659359 
L 174.215174 161.276481 
L 172.064813 156.836253 
L 170.524096 152.374953 
L 169.600747 147.928299 
L 169.296817 143.531124 
L 169.608897 139.217099 
L 170.528369 135.018476 
L 172.041685 130.965878 
L 174.130676 127.088114 
L 176.772873 123.412027 
L 179.941834 119.962373 
L 183.607471 116.761723 
L 187.736385 113.830387 
L 192.292177 111.186356 
L 197.235761 108.845267 
L 202.525663 106.820368 
L 208.118309 105.122507 
L 213.968297 103.760117 
L 220.028667 102.739214 
L 226.251156 102.063394 
L 232.586448 101.733833 
L 238.984428 101.749292 
L 245.394424 102.106119 
L 251.765465 102.798255 
L 258.046537 103.817238 
L 264.186852 105.152216 
L 270.136134 106.789962 
L 275.844913 108.714894 
L 281.264844 110.909103 
L 286.349044 113.352404 
L 291.052444 116.022382 
L 295.332171 118.894475 
L 299.147937 121.942069 
L 302.462454 125.136614 
L 305.241856 128.447778 
L 307.456126 131.843619 
L 309.07953 135.290799 
L 310.091035 138.754824 
L 310.474713 142.20032 
L 310.220122 145.591348 
L 309.322636 148.891743 
L 307.78374 152.065486 
L 305.611246 155.077099 
L 302.819447 157.892066 
L 299.429182 160.477254 
L 295.467806 162.801352 
L 290.969058 164.835297 
L 285.972829 166.552687 
L 280.524818 167.930174 
L 274.676077 168.947817 
L 268.482467 169.589398 
L 262.004007 169.842678 
L 255.304154 169.699595 
L 248.449001 169.156404 
L 241.506437 168.21373 
L 234.545267 166.876567 
L 227.634323 165.154192 
L 220.841581 163.060013 
L 214.233299 160.611356 
L 207.873216 157.829189 
L 201.82179 154.737791 
L 196.135529 151.36439 
L 196.135529 151.36439 
" clip-path="url(#p5217bbd889)" style="fill: none; stroke: #ff7f0e; stroke-width: 1.5; stroke-linecap: square"/>
   </g>
   <g id="text_20">
    <!-- Trajectory with: 20seconds, 30pieces, PID -->
    <g transform="translate(111.259688 35.472) scale(0.12 -0.12)">
     <defs>
      <path id="DejaVuSans-54" d="M -19 4666 
L 3928 4666 
L 3928 4134 
L 2272 4134 
L 2272 0 
L 1638 0 
L 1638 4134 
L -19 4134 
L -19 4666 
z
" transform="scale(0.015625)"/>
      <path id="DejaVuSans-72" d="M 2631 2963 
Q 2534 3019 2420 3045 
Q 2306 3072 2169 3072 
Q 1681 3072 1420 2755 
Q 1159 2438 1159 1844 
L 1159 0 
L 581 0 
L 581 3500 
L 1159 3500 
L 1159 2956 
Q 1341 3275 1631 3429 
Q 1922 3584 2338 3584 
Q 2397 3584 2469 3576 
Q 2541 3569 2628 3553 
L 2631 2963 
z
" transform="scale(0.015625)"/>
      <path id="DejaVuSans-61" d="M 2194 1759 
Q 1497 1759 1228 1600 
Q 959 1441 959 1056 
Q 959 750 1161 570 
Q 1363 391 1709 391 
Q 2188 391 2477 730 
Q 2766 1069 2766 1631 
L 2766 1759 
L 2194 1759 
z
M 3341 1997 
L 3341 0 
L 2766 0 
L 2766 531 
Q 2569 213 2275 61 
Q 1981 -91 1556 -91 
Q 1019 -91 701 211 
Q 384 513 384 1019 
Q 384 1609 779 1909 
Q 1175 2209 1959 2209 
L 2766 2209 
L 2766 2266 
Q 2766 2663 2505 2880 
Q 2244 3097 1772 3097 
Q 1472 3097 1187 3025 
Q 903 2953 641 2809 
L 641 3341 
Q 956 3463 1253 3523 
Q 1550 3584 1831 3584 
Q 2591 3584 2966 3190 
Q 3341 2797 3341 1997 
z
" transform="scale(0.015625)"/>
      <path id="DejaVuSans-6a" d="M 603 3500 
L 1178 3500 
L 1178 -63 
Q 1178 -731 923 -1031 
Q 669 -1331 103 -1331 
L -116 -1331 
L -116 -844 
L 38 -844 
Q 366 -844 484 -692 
Q 603 -541 603 -63 
L 603 3500 
z
M 603 4863 
L 1178 4863 
L 1178 4134 
L 603 4134 
L 603 4863 
z
" transform="scale(0.015625)"/>
      <path id="DejaVuSans-65" d="M 3597 1894 
L 3597 1613 
L 953 1613 
Q 991 1019 1311 708 
Q 1631 397 2203 397 
Q 2534 397 2845 478 
Q 3156 559 3463 722 
L 3463 178 
Q 3153 47 2828 -22 
Q 2503 -91 2169 -91 
Q 1331 -91 842 396 
Q 353 884 353 1716 
Q 353 2575 817 3079 
Q 1281 3584 2069 3584 
Q 2775 3584 3186 3129 
Q 3597 2675 3597 1894 
z
M 3022 2063 
Q 3016 2534 2758 2815 
Q 2500 3097 2075 3097 
Q 1594 3097 1305 2825 
Q 1016 2553 972 2059 
L 3022 2063 
z
" transform="scale(0.015625)"/>
      <path id="DejaVuSans-63" d="M 3122 3366 
L 3122 2828 
Q 2878 2963 2633 3030 
Q 2388 3097 2138 3097 
Q 1578 3097 1268 2742 
Q 959 2388 959 1747 
Q 959 1106 1268 751 
Q 1578 397 2138 397 
Q 2388 397 2633 464 
Q 2878 531 3122 666 
L 3122 134 
Q 2881 22 2623 -34 
Q 2366 -91 2075 -91 
Q 1284 -91 818 406 
Q 353 903 353 1747 
Q 353 2603 823 3093 
Q 1294 3584 2113 3584 
Q 2378 3584 2631 3529 
Q 2884 3475 3122 3366 
z
" transform="scale(0.015625)"/>
      <path id="DejaVuSans-74" d="M 1172 4494 
L 1172 3500 
L 2356 3500 
L 2356 3053 
L 1172 3053 
L 1172 1153 
Q 1172 725 1289 603 
Q 1406 481 1766 481 
L 2356 481 
L 2356 0 
L 1766 0 
Q 1100 0 847 248 
Q 594 497 594 1153 
L 594 3053 
L 172 3053 
L 172 3500 
L 594 3500 
L 594 4494 
L 1172 4494 
z
" transform="scale(0.015625)"/>
      <path id="DejaVuSans-6f" d="M 1959 3097 
Q 1497 3097 1228 2736 
Q 959 2375 959 1747 
Q 959 1119 1226 758 
Q 1494 397 1959 397 
Q 2419 397 2687 759 
Q 2956 1122 2956 1747 
Q 2956 2369 2687 2733 
Q 2419 3097 1959 3097 
z
M 1959 3584 
Q 2709 3584 3137 3096 
Q 3566 2609 3566 1747 
Q 3566 888 3137 398 
Q 2709 -91 1959 -91 
Q 1206 -91 779 398 
Q 353 888 353 1747 
Q 353 2609 779 3096 
Q 1206 3584 1959 3584 
z
" transform="scale(0.015625)"/>
      <path id="DejaVuSans-79" d="M 2059 -325 
Q 1816 -950 1584 -1140 
Q 1353 -1331 966 -1331 
L 506 -1331 
L 506 -850 
L 844 -850 
Q 1081 -850 1212 -737 
Q 1344 -625 1503 -206 
L 1606 56 
L 191 3500 
L 800 3500 
L 1894 763 
L 2988 3500 
L 3597 3500 
L 2059 -325 
z
" transform="scale(0.015625)"/>
      <path id="DejaVuSans-20" transform="scale(0.015625)"/>
      <path id="DejaVuSans-77" d="M 269 3500 
L 844 3500 
L 1563 769 
L 2278 3500 
L 2956 3500 
L 3675 769 
L 4391 3500 
L 4966 3500 
L 4050 0 
L 3372 0 
L 2619 2869 
L 1863 0 
L 1184 0 
L 269 3500 
z
" transform="scale(0.015625)"/>
      <path id="DejaVuSans-69" d="M 603 3500 
L 1178 3500 
L 1178 0 
L 603 0 
L 603 3500 
z
M 603 4863 
L 1178 4863 
L 1178 4134 
L 603 4134 
L 603 4863 
z
" transform="scale(0.015625)"/>
      <path id="DejaVuSans-68" d="M 3513 2113 
L 3513 0 
L 2938 0 
L 2938 2094 
Q 2938 2591 2744 2837 
Q 2550 3084 2163 3084 
Q 1697 3084 1428 2787 
Q 1159 2491 1159 1978 
L 1159 0 
L 581 0 
L 581 4863 
L 1159 4863 
L 1159 2956 
Q 1366 3272 1645 3428 
Q 1925 3584 2291 3584 
Q 2894 3584 3203 3211 
Q 3513 2838 3513 2113 
z
" transform="scale(0.015625)"/>
      <path id="DejaVuSans-3a" d="M 750 794 
L 1409 794 
L 1409 0 
L 750 0 
L 750 794 
z
M 750 3309 
L 1409 3309 
L 1409 2516 
L 750 2516 
L 750 3309 
z
" transform="scale(0.015625)"/>
      <path id="DejaVuSans-73" d="M 2834 3397 
L 2834 2853 
Q 2591 2978 2328 3040 
Q 2066 3103 1784 3103 
Q 1356 3103 1142 2972 
Q 928 2841 928 2578 
Q 928 2378 1081 2264 
Q 1234 2150 1697 2047 
L 1894 2003 
Q 2506 1872 2764 1633 
Q 3022 1394 3022 966 
Q 3022 478 2636 193 
Q 2250 -91 1575 -91 
Q 1294 -91 989 -36 
Q 684 19 347 128 
L 347 722 
Q 666 556 975 473 
Q 1284 391 1588 391 
Q 1994 391 2212 530 
Q 2431 669 2431 922 
Q 2431 1156 2273 1281 
Q 2116 1406 1581 1522 
L 1381 1569 
Q 847 1681 609 1914 
Q 372 2147 372 2553 
Q 372 3047 722 3315 
Q 1072 3584 1716 3584 
Q 2034 3584 2315 3537 
Q 2597 3491 2834 3397 
z
" transform="scale(0.015625)"/>
      <path id="DejaVuSans-6e" d="M 3513 2113 
L 3513 0 
L 2938 0 
L 2938 2094 
Q 2938 2591 2744 2837 
Q 2550 3084 2163 3084 
Q 1697 3084 1428 2787 
Q 1159 2491 1159 1978 
L 1159 0 
L 581 0 
L 581 3500 
L 1159 3500 
L 1159 2956 
Q 1366 3272 1645 3428 
Q 1925 3584 2291 3584 
Q 2894 3584 3203 3211 
Q 3513 2838 3513 2113 
z
" transform="scale(0.015625)"/>
      <path id="DejaVuSans-64" d="M 2906 2969 
L 2906 4863 
L 3481 4863 
L 3481 0 
L 2906 0 
L 2906 525 
Q 2725 213 2448 61 
Q 2172 -91 1784 -91 
Q 1150 -91 751 415 
Q 353 922 353 1747 
Q 353 2572 751 3078 
Q 1150 3584 1784 3584 
Q 2172 3584 2448 3432 
Q 2725 3281 2906 2969 
z
M 947 1747 
Q 947 1113 1208 752 
Q 1469 391 1925 391 
Q 2381 391 2643 752 
Q 2906 1113 2906 1747 
Q 2906 2381 2643 2742 
Q 2381 3103 1925 3103 
Q 1469 3103 1208 2742 
Q 947 2381 947 1747 
z
" transform="scale(0.015625)"/>
      <path id="DejaVuSans-2c" d="M 750 794 
L 1409 794 
L 1409 256 
L 897 -744 
L 494 -744 
L 750 256 
L 750 794 
z
" transform="scale(0.015625)"/>
      <path id="DejaVuSans-33" d="M 2597 2516 
Q 3050 2419 3304 2112 
Q 3559 1806 3559 1356 
Q 3559 666 3084 287 
Q 2609 -91 1734 -91 
Q 1441 -91 1130 -33 
Q 819 25 488 141 
L 488 750 
Q 750 597 1062 519 
Q 1375 441 1716 441 
Q 2309 441 2620 675 
Q 2931 909 2931 1356 
Q 2931 1769 2642 2001 
Q 2353 2234 1838 2234 
L 1294 2234 
L 1294 2753 
L 1863 2753 
Q 2328 2753 2575 2939 
Q 2822 3125 2822 3475 
Q 2822 3834 2567 4026 
Q 2313 4219 1838 4219 
Q 1578 4219 1281 4162 
Q 984 4106 628 3988 
L 628 4550 
Q 988 4650 1302 4700 
Q 1616 4750 1894 4750 
Q 2613 4750 3031 4423 
Q 3450 4097 3450 3541 
Q 3450 3153 3228 2886 
Q 3006 2619 2597 2516 
z
" transform="scale(0.015625)"/>
      <path id="DejaVuSans-70" d="M 1159 525 
L 1159 -1331 
L 581 -1331 
L 581 3500 
L 1159 3500 
L 1159 2969 
Q 1341 3281 1617 3432 
Q 1894 3584 2278 3584 
Q 2916 3584 3314 3078 
Q 3713 2572 3713 1747 
Q 3713 922 3314 415 
Q 2916 -91 2278 -91 
Q 1894 -91 1617 61 
Q 1341 213 1159 525 
z
M 3116 1747 
Q 3116 2381 2855 2742 
Q 2594 3103 2138 3103 
Q 1681 3103 1420 2742 
Q 1159 2381 1159 1747 
Q 1159 1113 1420 752 
Q 1681 391 2138 391 
Q 2594 391 2855 752 
Q 3116 1113 3116 1747 
z
" transform="scale(0.015625)"/>
      <path id="DejaVuSans-50" d="M 1259 4147 
L 1259 2394 
L 2053 2394 
Q 2494 2394 2734 2622 
Q 2975 2850 2975 3272 
Q 2975 3691 2734 3919 
Q 2494 4147 2053 4147 
L 1259 4147 
z
M 628 4666 
L 2053 4666 
Q 2838 4666 3239 4311 
Q 3641 3956 3641 3272 
Q 3641 2581 3239 2228 
Q 2838 1875 2053 1875 
L 1259 1875 
L 1259 0 
L 628 0 
L 628 4666 
z
" transform="scale(0.015625)"/>
      <path id="DejaVuSans-49" d="M 628 4666 
L 1259 4666 
L 1259 0 
L 628 0 
L 628 4666 
z
" transform="scale(0.015625)"/>
      <path id="DejaVuSans-44" d="M 1259 4147 
L 1259 519 
L 2022 519 
Q 2988 519 3436 956 
Q 3884 1394 3884 2338 
Q 3884 3275 3436 3711 
Q 2988 4147 2022 4147 
L 1259 4147 
z
M 628 4666 
L 1925 4666 
Q 3281 4666 3915 4102 
Q 4550 3538 4550 2338 
Q 4550 1131 3912 565 
Q 3275 0 1925 0 
L 628 0 
L 628 4666 
z
" transform="scale(0.015625)"/>
     </defs>
     <use xlink:href="#DejaVuSans-54"/>
     <use xlink:href="#DejaVuSans-72" x="46.333984"/>
     <use xlink:href="#DejaVuSans-61" x="87.447266"/>
     <use xlink:href="#DejaVuSans-6a" x="148.726562"/>
     <use xlink:href="#DejaVuSans-65" x="176.509766"/>
     <use xlink:href="#DejaVuSans-63" x="238.033203"/>
     <use xlink:href="#DejaVuSans-74" x="293.013672"/>
     <use xlink:href="#DejaVuSans-6f" x="332.222656"/>
     <use xlink:href="#DejaVuSans-72" x="393.404297"/>
     <use xlink:href="#DejaVuSans-79" x="434.517578"/>
     <use xlink:href="#DejaVuSans-20" x="493.697266"/>
     <use xlink:href="#DejaVuSans-77" x="525.484375"/>
     <use xlink:href="#DejaVuSans-69" x="607.271484"/>
     <use xlink:href="#DejaVuSans-74" x="635.054688"/>
     <use xlink:href="#DejaVuSans-68" x="674.263672"/>
     <use xlink:href="#DejaVuSans-3a" x="737.642578"/>
     <use xlink:href="#DejaVuSans-20" x="771.333984"/>
     <use xlink:href="#DejaVuSans-32" x="803.121094"/>
     <use xlink:href="#DejaVuSans-30" x="866.744141"/>
     <use xlink:href="#DejaVuSans-73" x="930.367188"/>
     <use xlink:href="#DejaVuSans-65" x="982.466797"/>
     <use xlink:href="#DejaVuSans-63" x="1043.990234"/>
     <use xlink:href="#DejaVuSans-6f" x="1098.970703"/>
     <use xlink:href="#DejaVuSans-6e" x="1160.152344"/>
     <use xlink:href="#DejaVuSans-64" x="1223.53125"/>
     <use xlink:href="#DejaVuSans-73" x="1287.007812"/>
     <use xlink:href="#DejaVuSans-2c" x="1339.107422"/>
     <use xlink:href="#DejaVuSans-20" x="1370.894531"/>
     <use xlink:href="#DejaVuSans-33" x="1402.681641"/>
     <use xlink:href="#DejaVuSans-30" x="1466.304688"/>
     <use xlink:href="#DejaVuSans-70" x="1529.927734"/>
     <use xlink:href="#DejaVuSans-69" x="1593.404297"/>
     <use xlink:href="#DejaVuSans-65" x="1621.1875"/>
     <use xlink:href="#DejaVuSans-63" x="1682.710938"/>
     <use xlink:href="#DejaVuSans-65" x="1737.691406"/>
     <use xlink:href="#DejaVuSans-73" x="1799.214844"/>
     <use xlink:href="#DejaVuSans-2c" x="1851.314453"/>
     <use xlink:href="#DejaVuSans-20" x="1883.101562"/>
     <use xlink:href="#DejaVuSans-50" x="1914.888672"/>
     <use xlink:href="#DejaVuSans-49" x="1975.191406"/>
     <use xlink:href="#DejaVuSans-44" x="2004.683594"/>
    </g>
   </g>
   <g id="legend_1">
    <g id="patch_6">
     <path d="M 211.183187 78.82825 
L 362.216 78.82825 
Q 364.216 78.82825 364.216 76.82825 
L 364.216 48.472 
Q 364.216 46.472 362.216 46.472 
L 211.183187 46.472 
Q 209.183187 46.472 209.183187 48.472 
L 209.183187 76.82825 
Q 209.183187 78.82825 211.183187 78.82825 
z
" style="fill: #ffffff; opacity: 0.8; stroke: #cccccc; stroke-linejoin: miter"/>
    </g>
    <g id="line2d_25">
     <path d="M 213.183187 54.570437 
L 223.183187 54.570437 
L 233.183187 54.570437 
" style="fill: none; stroke: #1f77b4; stroke-width: 1.5; stroke-linecap: square"/>
    </g>
    <g id="text_21">
     <!-- 3D input trajectory -->
     <g transform="translate(241.183187 58.070437) scale(0.1 -0.1)">
      <defs>
       <path id="DejaVuSans-75" d="M 544 1381 
L 544 3500 
L 1119 3500 
L 1119 1403 
Q 1119 906 1312 657 
Q 1506 409 1894 409 
Q 2359 409 2629 706 
Q 2900 1003 2900 1516 
L 2900 3500 
L 3475 3500 
L 3475 0 
L 2900 0 
L 2900 538 
Q 2691 219 2414 64 
Q 2138 -91 1772 -91 
Q 1169 -91 856 284 
Q 544 659 544 1381 
z
M 1991 3584 
L 1991 3584 
z
" transform="scale(0.015625)"/>
      </defs>
      <use xlink:href="#DejaVuSans-33"/>
      <use xlink:href="#DejaVuSans-44" x="63.623047"/>
      <use xlink:href="#DejaVuSans-20" x="140.625"/>
      <use xlink:href="#DejaVuSans-69" x="172.412109"/>
      <use xlink:href="#DejaVuSans-6e" x="200.195312"/>
      <use xlink:href="#DejaVuSans-70" x="263.574219"/>
      <use xlink:href="#DejaVuSans-75" x="327.050781"/>
      <use xlink:href="#DejaVuSans-74" x="390.429688"/>
      <use xlink:href="#DejaVuSans-20" x="429.638672"/>
      <use xlink:href="#DejaVuSans-74" x="461.425781"/>
      <use xlink:href="#DejaVuSans-72" x="500.634766"/>
      <use xlink:href="#DejaVuSans-61" x="541.748047"/>
      <use xlink:href="#DejaVuSans-6a" x="603.027344"/>
      <use xlink:href="#DejaVuSans-65" x="630.810547"/>
      <use xlink:href="#DejaVuSans-63" x="692.333984"/>
      <use xlink:href="#DejaVuSans-74" x="747.314453"/>
      <use xlink:href="#DejaVuSans-6f" x="786.523438"/>
      <use xlink:href="#DejaVuSans-72" x="847.705078"/>
      <use xlink:href="#DejaVuSans-79" x="888.818359"/>
     </g>
    </g>
    <g id="line2d_26">
     <path d="M 213.183187 69.248562 
L 223.183187 69.248562 
L 233.183187 69.248562 
" style="fill: none; stroke: #ff7f0e; stroke-width: 1.5; stroke-linecap: square"/>
    </g>
    <g id="text_22">
     <!-- 3D measured trajectory -->
     <g transform="translate(241.183187 72.748562) scale(0.1 -0.1)">
      <defs>
       <path id="DejaVuSans-6d" d="M 3328 2828 
Q 3544 3216 3844 3400 
Q 4144 3584 4550 3584 
Q 5097 3584 5394 3201 
Q 5691 2819 5691 2113 
L 5691 0 
L 5113 0 
L 5113 2094 
Q 5113 2597 4934 2840 
Q 4756 3084 4391 3084 
Q 3944 3084 3684 2787 
Q 3425 2491 3425 1978 
L 3425 0 
L 2847 0 
L 2847 2094 
Q 2847 2600 2669 2842 
Q 2491 3084 2119 3084 
Q 1678 3084 1418 2786 
Q 1159 2488 1159 1978 
L 1159 0 
L 581 0 
L 581 3500 
L 1159 3500 
L 1159 2956 
Q 1356 3278 1631 3431 
Q 1906 3584 2284 3584 
Q 2666 3584 2933 3390 
Q 3200 3197 3328 2828 
z
" transform="scale(0.015625)"/>
      </defs>
      <use xlink:href="#DejaVuSans-33"/>
      <use xlink:href="#DejaVuSans-44" x="63.623047"/>
      <use xlink:href="#DejaVuSans-20" x="140.625"/>
      <use xlink:href="#DejaVuSans-6d" x="172.412109"/>
      <use xlink:href="#DejaVuSans-65" x="269.824219"/>
      <use xlink:href="#DejaVuSans-61" x="331.347656"/>
      <use xlink:href="#DejaVuSans-73" x="392.626953"/>
      <use xlink:href="#DejaVuSans-75" x="444.726562"/>
      <use xlink:href="#DejaVuSans-72" x="508.105469"/>
      <use xlink:href="#DejaVuSans-65" x="546.96875"/>
      <use xlink:href="#DejaVuSans-64" x="608.492188"/>
      <use xlink:href="#DejaVuSans-20" x="671.96875"/>
      <use xlink:href="#DejaVuSans-74" x="703.755859"/>
      <use xlink:href="#DejaVuSans-72" x="742.964844"/>
      <use xlink:href="#DejaVuSans-61" x="784.078125"/>
      <use xlink:href="#DejaVuSans-6a" x="845.357422"/>
      <use xlink:href="#DejaVuSans-65" x="873.140625"/>
      <use xlink:href="#DejaVuSans-63" x="934.664062"/>
      <use xlink:href="#DejaVuSans-74" x="989.644531"/>
      <use xlink:href="#DejaVuSans-6f" x="1028.853516"/>
      <use xlink:href="#DejaVuSans-72" x="1090.035156"/>
      <use xlink:href="#DejaVuSans-79" x="1131.148438"/>
     </g>
    </g>
   </g>
  </g>
 </g>
 <defs>
  <clipPath id="p5217bbd889">
   <rect x="103.104" y="41.472" width="266.112" height="266.112"/>
  </clipPath>
 </defs>
</svg>
