<?xml version="1.0" encoding="utf-8" standalone="no"?>
<!DOCTYPE svg PUBLIC "-//W3C//DTD SVG 1.1//EN"
  "http://www.w3.org/Graphics/SVG/1.1/DTD/svg11.dtd">
<svg xmlns:xlink="http://www.w3.org/1999/xlink" width="1332pt" height="699.84pt" viewBox="0 0 1332 699.84" xmlns="http://www.w3.org/2000/svg" version="1.1">
 <metadata>
  <rdf:RDF xmlns:dc="http://purl.org/dc/elements/1.1/" xmlns:cc="http://creativecommons.org/ns#" xmlns:rdf="http://www.w3.org/1999/02/22-rdf-syntax-ns#">
   <cc:Work>
    <dc:type rdf:resource="http://purl.org/dc/dcmitype/StillImage"/>
    <dc:date>2024-02-05T21:27:08.558167</dc:date>
    <dc:format>image/svg+xml</dc:format>
    <dc:creator>
     <cc:Agent>
      <dc:title>Matplotlib v3.5.1, https://matplotlib.org/</dc:title>
     </cc:Agent>
    </dc:creator>
   </cc:Work>
  </rdf:RDF>
 </metadata>
 <defs>
  <style type="text/css">*{stroke-linejoin: round; stroke-linecap: butt}</style>
 </defs>
 <g id="figure_1">
  <g id="patch_1">
   <path d="M 0 699.84 
L 1332 699.84 
L 1332 0 
L 0 0 
z
" style="fill: #ffffff"/>
  </g>
  <g id="patch_2">
   <path d="M 597.96936 253.34208 
L 767.33064 253.34208 
L 767.33064 83.9808 
L 597.96936 83.9808 
z
" style="fill: #ffffff"/>
  </g>
  <g id="pane3d_1">
   <g id="patch_3">
    <path d="M 612.396276 193.760715 
L 700.249882 167.481228 
L 700.854034 98.734161 
L 609.37126 122.203588 
" style="fill: #f2f2f2; opacity: 0.5; stroke: #f2f2f2; stroke-linejoin: miter"/>
   </g>
  </g>
  <g id="pane3d_2">
   <g id="patch_4">
    <path d="M 700.249882 167.481228 
L 759.819632 210.140736 
L 763.047168 136.883382 
L 700.854034 98.734161 
" style="fill: #e6e6e6; opacity: 0.5; stroke: #e6e6e6; stroke-linejoin: miter"/>
   </g>
  </g>
  <g id="pane3d_3">
   <g id="patch_5">
    <path d="M 612.396276 193.760715 
L 667.277525 241.430732 
L 759.819632 210.140736 
L 700.249882 167.481228 
" style="fill: #ececec; opacity: 0.5; stroke: #ececec; stroke-linejoin: miter"/>
   </g>
  </g>
  <g id="axis3d_1">
   <g id="line2d_1">
    <path d="M 612.396276 193.760715 
L 667.277525 241.430732 
" style="fill: none; stroke: #000000; stroke-width: 0.8; stroke-linecap: square"/>
   </g>
   <g id="Line3DCollection_1">
    <path d="M 615.629757 196.569326 
L 703.775622 170.006105 
L 704.522942 100.984666 
" style="fill: none; stroke: #b0b0b0; stroke-width: 0.8"/>
    <path d="M 626.877811 206.339419 
L 716.024649 178.777965 
L 717.281164 108.81055 
" style="fill: none; stroke: #b0b0b0; stroke-width: 0.8"/>
    <path d="M 638.564439 216.490459 
L 728.725531 187.87341 
L 730.529414 116.937016 
" style="fill: none; stroke: #b0b0b0; stroke-width: 0.8"/>
    <path d="M 650.715802 227.045169 
L 741.903742 197.310682 
L 744.296477 125.381722 
" style="fill: none; stroke: #b0b0b0; stroke-width: 0.8"/>
    <path d="M 663.360182 238.028116 
L 755.586705 207.109422 
L 758.613438 134.163735 
" style="fill: none; stroke: #b0b0b0; stroke-width: 0.8"/>
   </g>
   <g id="xtick_1">
    <g id="line2d_2">
     <path d="M 616.373271 196.345264 
L 614.14077 197.01804 
" style="fill: none; stroke: #000000; stroke-width: 0.8; stroke-linecap: square"/>
    </g>
    <g id="text_1">
     <!-- 1.00 -->
     <g transform="translate(592.71624 216.835266)scale(0.1 -0.1)">
      <defs>
       <path id="DejaVuSans-31" d="M 794 531 
L 1825 531 
L 1825 4091 
L 703 3866 
L 703 4441 
L 1819 4666 
L 2450 4666 
L 2450 531 
L 3481 531 
L 3481 0 
L 794 0 
L 794 531 
z
" transform="scale(0.015625)"/>
       <path id="DejaVuSans-2e" d="M 684 794 
L 1344 794 
L 1344 0 
L 684 0 
L 684 794 
z
" transform="scale(0.015625)"/>
       <path id="DejaVuSans-30" d="M 2034 4250 
Q 1547 4250 1301 3770 
Q 1056 3291 1056 2328 
Q 1056 1369 1301 889 
Q 1547 409 2034 409 
Q 2525 409 2770 889 
Q 3016 1369 3016 2328 
Q 3016 3291 2770 3770 
Q 2525 4250 2034 4250 
z
M 2034 4750 
Q 2819 4750 3233 4129 
Q 3647 3509 3647 2328 
Q 3647 1150 3233 529 
Q 2819 -91 2034 -91 
Q 1250 -91 836 529 
Q 422 1150 422 2328 
Q 422 3509 836 4129 
Q 1250 4750 2034 4750 
z
" transform="scale(0.015625)"/>
      </defs>
      <use xlink:href="#DejaVuSans-31"/>
      <use xlink:href="#DejaVuSans-2e" x="63.623047"/>
      <use xlink:href="#DejaVuSans-30" x="95.410156"/>
      <use xlink:href="#DejaVuSans-30" x="159.033203"/>
     </g>
    </g>
   </g>
   <g id="xtick_2">
    <g id="line2d_3">
     <path d="M 627.63051 206.106708 
L 625.370393 206.805467 
" style="fill: none; stroke: #000000; stroke-width: 0.8; stroke-linecap: square"/>
    </g>
    <g id="text_2">
     <!-- 1.25 -->
     <g transform="translate(603.760425 226.867045)scale(0.1 -0.1)">
      <defs>
       <path id="DejaVuSans-32" d="M 1228 531 
L 3431 531 
L 3431 0 
L 469 0 
L 469 531 
Q 828 903 1448 1529 
Q 2069 2156 2228 2338 
Q 2531 2678 2651 2914 
Q 2772 3150 2772 3378 
Q 2772 3750 2511 3984 
Q 2250 4219 1831 4219 
Q 1534 4219 1204 4116 
Q 875 4013 500 3803 
L 500 4441 
Q 881 4594 1212 4672 
Q 1544 4750 1819 4750 
Q 2544 4750 2975 4387 
Q 3406 4025 3406 3419 
Q 3406 3131 3298 2873 
Q 3191 2616 2906 2266 
Q 2828 2175 2409 1742 
Q 1991 1309 1228 531 
z
" transform="scale(0.015625)"/>
       <path id="DejaVuSans-35" d="M 691 4666 
L 3169 4666 
L 3169 4134 
L 1269 4134 
L 1269 2991 
Q 1406 3038 1543 3061 
Q 1681 3084 1819 3084 
Q 2600 3084 3056 2656 
Q 3513 2228 3513 1497 
Q 3513 744 3044 326 
Q 2575 -91 1722 -91 
Q 1428 -91 1123 -41 
Q 819 9 494 109 
L 494 744 
Q 775 591 1075 516 
Q 1375 441 1709 441 
Q 2250 441 2565 725 
Q 2881 1009 2881 1497 
Q 2881 1984 2565 2268 
Q 2250 2553 1709 2553 
Q 1456 2553 1204 2497 
Q 953 2441 691 2322 
L 691 4666 
z
" transform="scale(0.015625)"/>
      </defs>
      <use xlink:href="#DejaVuSans-31"/>
      <use xlink:href="#DejaVuSans-2e" x="63.623047"/>
      <use xlink:href="#DejaVuSans-32" x="95.410156"/>
      <use xlink:href="#DejaVuSans-35" x="159.033203"/>
     </g>
    </g>
   </g>
   <g id="xtick_3">
    <g id="line2d_4">
     <path d="M 639.32648 216.248588 
L 637.038271 216.974864 
" style="fill: none; stroke: #000000; stroke-width: 0.8; stroke-linecap: square"/>
    </g>
    <g id="text_3">
     <!-- 1.50 -->
     <g transform="translate(615.236088 237.290747)scale(0.1 -0.1)">
      <use xlink:href="#DejaVuSans-31"/>
      <use xlink:href="#DejaVuSans-2e" x="63.623047"/>
      <use xlink:href="#DejaVuSans-35" x="95.410156"/>
      <use xlink:href="#DejaVuSans-30" x="159.033203"/>
     </g>
    </g>
   </g>
   <g id="xtick_4">
    <g id="line2d_5">
     <path d="M 651.487341 226.793586 
L 649.170569 227.549037 
" style="fill: none; stroke: #000000; stroke-width: 0.8; stroke-linecap: square"/>
    </g>
    <g id="text_4">
     <!-- 1.75 -->
     <g transform="translate(627.169018 248.1298)scale(0.1 -0.1)">
      <defs>
       <path id="DejaVuSans-37" d="M 525 4666 
L 3525 4666 
L 3525 4397 
L 1831 0 
L 1172 0 
L 2766 4134 
L 525 4134 
L 525 4666 
z
" transform="scale(0.015625)"/>
      </defs>
      <use xlink:href="#DejaVuSans-31"/>
      <use xlink:href="#DejaVuSans-2e" x="63.623047"/>
      <use xlink:href="#DejaVuSans-37" x="95.410156"/>
      <use xlink:href="#DejaVuSans-35" x="159.033203"/>
     </g>
    </g>
   </g>
   <g id="xtick_5">
    <g id="line2d_6">
     <path d="M 664.141371 237.766224 
L 661.795579 238.552645 
" style="fill: none; stroke: #000000; stroke-width: 0.8; stroke-linecap: square"/>
    </g>
    <g id="text_5">
     <!-- 2.00 -->
     <g transform="translate(639.587101 259.409533)scale(0.1 -0.1)">
      <use xlink:href="#DejaVuSans-32"/>
      <use xlink:href="#DejaVuSans-2e" x="63.623047"/>
      <use xlink:href="#DejaVuSans-30" x="95.410156"/>
      <use xlink:href="#DejaVuSans-30" x="159.033203"/>
     </g>
    </g>
   </g>
  </g>
  <g id="axis3d_2">
   <g id="line2d_7">
    <path d="M 759.819632 210.140736 
L 667.277525 241.430732 
" style="fill: none; stroke: #000000; stroke-width: 0.8; stroke-linecap: square"/>
   </g>
   <g id="Line3DCollection_2">
    <path d="M 615.83842 120.544472 
L 618.594458 191.906664 
L 673.835922 239.213231 
" style="fill: none; stroke: #b0b0b0; stroke-width: 0.8"/>
    <path d="M 636.355226 115.280993 
L 638.27043 186.021027 
L 694.625679 232.183875 
" style="fill: none; stroke: #b0b0b0; stroke-width: 0.8"/>
    <path d="M 656.38134 110.143398 
L 657.494159 180.270669 
L 714.894059 225.330805 
" style="fill: none; stroke: #b0b0b0; stroke-width: 0.8"/>
    <path d="M 675.934159 105.127225 
L 676.281058 174.650978 
L 734.660434 218.647471 
" style="fill: none; stroke: #b0b0b0; stroke-width: 0.8"/>
    <path d="M 695.030264 100.228219 
L 694.645851 169.157552 
L 753.943225 212.127645 
" style="fill: none; stroke: #b0b0b0; stroke-width: 0.8"/>
   </g>
   <g id="xtick_6">
    <g id="line2d_8">
     <path d="M 673.353055 238.799723 
L 674.803825 240.042104 
" style="fill: none; stroke: #000000; stroke-width: 0.8; stroke-linecap: square"/>
    </g>
    <g id="text_6">
     <!-- 1.00 -->
     <g transform="translate(670.693081 263.159957)scale(0.1 -0.1)">
      <use xlink:href="#DejaVuSans-31"/>
      <use xlink:href="#DejaVuSans-2e" x="63.623047"/>
      <use xlink:href="#DejaVuSans-30" x="95.410156"/>
      <use xlink:href="#DejaVuSans-30" x="159.033203"/>
     </g>
    </g>
   </g>
   <g id="xtick_7">
    <g id="line2d_9">
     <path d="M 694.133606 231.780798 
L 695.612006 232.991815 
" style="fill: none; stroke: #000000; stroke-width: 0.8; stroke-linecap: square"/>
    </g>
    <g id="text_7">
     <!-- 1.25 -->
     <g transform="translate(691.514935 255.876283)scale(0.1 -0.1)">
      <use xlink:href="#DejaVuSans-31"/>
      <use xlink:href="#DejaVuSans-2e" x="63.623047"/>
      <use xlink:href="#DejaVuSans-32" x="95.410156"/>
      <use xlink:href="#DejaVuSans-35" x="159.033203"/>
     </g>
    </g>
   </g>
   <g id="xtick_8">
    <g id="line2d_10">
     <path d="M 714.393391 224.93777 
L 715.897587 226.118596 
" style="fill: none; stroke: #000000; stroke-width: 0.8; stroke-linecap: square"/>
    </g>
    <g id="text_8">
     <!-- 1.50 -->
     <g transform="translate(711.81128 248.776437)scale(0.1 -0.1)">
      <use xlink:href="#DejaVuSans-31"/>
      <use xlink:href="#DejaVuSans-2e" x="63.623047"/>
      <use xlink:href="#DejaVuSans-35" x="95.410156"/>
      <use xlink:href="#DejaVuSans-30" x="159.033203"/>
     </g>
    </g>
   </g>
   <g id="xtick_9">
    <g id="line2d_11">
     <path d="M 734.151745 218.264107 
L 735.680013 219.415857 
" style="fill: none; stroke: #000000; stroke-width: 0.8; stroke-linecap: square"/>
    </g>
    <g id="text_9">
     <!-- 1.75 -->
     <g transform="translate(731.601762 241.853546)scale(0.1 -0.1)">
      <use xlink:href="#DejaVuSans-31"/>
      <use xlink:href="#DejaVuSans-2e" x="63.623047"/>
      <use xlink:href="#DejaVuSans-37" x="95.410156"/>
      <use xlink:href="#DejaVuSans-35" x="159.033203"/>
     </g>
    </g>
   </g>
   <g id="xtick_10">
    <g id="line2d_12">
     <path d="M 753.427054 211.753599 
L 754.977773 212.877334 
" style="fill: none; stroke: #000000; stroke-width: 0.8; stroke-linecap: square"/>
    </g>
    <g id="text_10">
     <!-- 2.00 -->
     <g transform="translate(750.905061 235.101077)scale(0.1 -0.1)">
      <use xlink:href="#DejaVuSans-32"/>
      <use xlink:href="#DejaVuSans-2e" x="63.623047"/>
      <use xlink:href="#DejaVuSans-30" x="95.410156"/>
      <use xlink:href="#DejaVuSans-30" x="159.033203"/>
     </g>
    </g>
   </g>
  </g>
  <g id="axis3d_3">
   <g id="line2d_13">
    <path d="M 759.819632 210.140736 
L 763.047168 136.883382 
" style="fill: none; stroke: #000000; stroke-width: 0.8; stroke-linecap: square"/>
   </g>
   <g id="Line3DCollection_3">
    <path d="M 759.977826 206.550124 
L 700.279593 164.10045 
L 612.247819 190.248948 
" style="fill: none; stroke: #b0b0b0; stroke-width: 0.8"/>
    <path d="M 760.619094 191.994855 
L 700.399926 150.407676 
L 611.64622 176.018038 
" style="fill: none; stroke: #b0b0b0; stroke-width: 0.8"/>
    <path d="M 761.271418 177.188669 
L 700.522161 136.498393 
L 611.034579 161.549608 
" style="fill: none; stroke: #b0b0b0; stroke-width: 0.8"/>
    <path d="M 761.935084 162.125022 
L 700.646344 122.367427 
L 610.412644 146.837662 
" style="fill: none; stroke: #b0b0b0; stroke-width: 0.8"/>
    <path d="M 762.610392 146.797139 
L 700.772523 108.009435 
L 609.780153 131.876 
" style="fill: none; stroke: #b0b0b0; stroke-width: 0.8"/>
   </g>
   <g id="xtick_11">
    <g id="line2d_14">
     <path d="M 759.458235 206.180658 
L 761.019222 207.290631 
" style="fill: none; stroke: #000000; stroke-width: 0.8; stroke-linecap: square"/>
    </g>
    <g id="text_11">
     <!-- 0.25 -->
     <g transform="translate(768.811189 216.351717)scale(0.1 -0.1)">
      <use xlink:href="#DejaVuSans-30"/>
      <use xlink:href="#DejaVuSans-2e" x="63.623047"/>
      <use xlink:href="#DejaVuSans-32" x="95.410156"/>
      <use xlink:href="#DejaVuSans-35" x="159.033203"/>
     </g>
    </g>
   </g>
   <g id="xtick_12">
    <g id="line2d_15">
     <path d="M 760.094608 191.632646 
L 761.670323 192.72083 
" style="fill: none; stroke: #000000; stroke-width: 0.8; stroke-linecap: square"/>
    </g>
    <g id="text_12">
     <!-- 0.50 -->
     <g transform="translate(769.626548 201.753265)scale(0.1 -0.1)">
      <use xlink:href="#DejaVuSans-30"/>
      <use xlink:href="#DejaVuSans-2e" x="63.623047"/>
      <use xlink:href="#DejaVuSans-35" x="95.410156"/>
      <use xlink:href="#DejaVuSans-30" x="159.033203"/>
     </g>
    </g>
   </g>
   <g id="xtick_13">
    <g id="line2d_16">
     <path d="M 760.741943 176.834024 
L 762.332664 177.899499 
" style="fill: none; stroke: #000000; stroke-width: 0.8; stroke-linecap: square"/>
    </g>
    <g id="text_13">
     <!-- 0.75 -->
     <g transform="translate(770.456023 186.90207)scale(0.1 -0.1)">
      <use xlink:href="#DejaVuSans-30"/>
      <use xlink:href="#DejaVuSans-2e" x="63.623047"/>
      <use xlink:href="#DejaVuSans-37" x="95.410156"/>
      <use xlink:href="#DejaVuSans-35" x="159.033203"/>
     </g>
    </g>
   </g>
   <g id="xtick_14">
    <g id="line2d_17">
     <path d="M 761.400527 161.778258 
L 763.006539 162.820067 
" style="fill: none; stroke: #000000; stroke-width: 0.8; stroke-linecap: square"/>
    </g>
    <g id="text_14">
     <!-- 1.00 -->
     <g transform="translate(771.299984 171.791509)scale(0.1 -0.1)">
      <use xlink:href="#DejaVuSans-31"/>
      <use xlink:href="#DejaVuSans-2e" x="63.623047"/>
      <use xlink:href="#DejaVuSans-30" x="95.410156"/>
      <use xlink:href="#DejaVuSans-30" x="159.033203"/>
     </g>
    </g>
   </g>
   <g id="xtick_15">
    <g id="line2d_18">
     <path d="M 762.070654 146.458589 
L 763.692252 147.475734 
" style="fill: none; stroke: #000000; stroke-width: 0.8; stroke-linecap: square"/>
    </g>
    <g id="text_15">
     <!-- 1.25 -->
     <g transform="translate(772.158814 156.414729)scale(0.1 -0.1)">
      <use xlink:href="#DejaVuSans-31"/>
      <use xlink:href="#DejaVuSans-2e" x="63.623047"/>
      <use xlink:href="#DejaVuSans-32" x="95.410156"/>
      <use xlink:href="#DejaVuSans-35" x="159.033203"/>
     </g>
    </g>
   </g>
  </g>
  <g id="axes_1">
   <g id="line2d_19">
    <path d="M 666.875933 180.167022 
L 671.443262 179.264935 
L 678.163148 178.132592 
L 684.629004 177.265235 
L 690.278838 176.733763 
L 694.979485 176.508147 
L 699.123521 176.531106 
L 702.694783 176.774759 
L 705.740722 177.195722 
L 708.667719 177.829136 
L 711.479893 178.678836 
L 714.359454 179.792363 
L 717.901997 181.420672 
L 723.510458 184.276092 
L 727.218983 186.368487 
L 729.269649 187.754439 
L 730.359154 188.652788 
L 729.967938 188.441064 
L 730.207914 188.679262 
L 731.0811 189.748793 
L 731.633872 190.79082 
L 731.943537 191.881048 
L 732.024043 193.010444 
L 731.8786 194.26431 
L 731.488859 195.630955 
L 730.800005 197.186904 
L 729.841613 198.802199 
L 728.549472 200.527592 
L 727.052232 202.14282 
L 725.439282 203.558843 
L 723.606767 204.861492 
L 721.634008 205.991607 
L 719.384193 207.030792 
L 716.661473 208.038382 
L 713.38344 209.001272 
L 709.494411 209.896654 
L 705.217128 210.650167 
L 700.668267 211.225988 
L 696.240886 211.565337 
L 692.091259 211.660007 
L 688.315694 211.518661 
L 684.936216 211.170809 
L 682.501072 210.779769 
L 681.669353 210.979238 
L 677.087731 210.124275 
L 670.822842 208.717446 
L 665.087559 207.208853 
L 660.578118 205.795627 
L 656.935573 204.427846 
L 653.76379 202.9958 
L 651.059442 201.523564 
L 648.788911 200.038944 
L 646.77612 198.462329 
L 645.011226 196.805806 
L 643.382174 194.966872 
L 641.910037 192.951918 
L 640.610408 190.773449 
L 639.554201 188.570746 
L 638.736121 186.360722 
L 638.197611 184.275741 
L 637.937974 182.439952 
L 637.907464 180.72843 
L 638.088836 179.138218 
L 638.495361 177.544511 
L 639.143711 175.945821 
L 640.038686 174.343246 
L 641.26118 172.61962 
L 641.753924 172.007237 
L 641.954931 172.245696 
L 643.825505 170.313963 
L 646.214715 168.172781 
L 648.745482 166.191879 
L 651.434754 164.366215 
L 654.183849 162.762405 
L 657.167941 161.274071 
L 660.592664 159.82617 
L 664.308731 158.503311 
L 668.488368 157.263018 
L 672.882966 156.198185 
L 677.40127 155.336257 
L 681.947454 154.70302 
L 686.226415 154.32963 
L 690.4051 154.186705 
L 694.463668 154.268681 
L 698.609006 154.578081 
L 703.063406 155.14526 
L 707.877631 155.989771 
L 712.482595 157.011504 
L 713.804079 157.355166 
L 713.80978 156.775534 
L 717.326341 157.66265 
L 720.010426 158.566569 
L 722.245674 159.544286 
L 724.204686 160.631168 
L 726.009091 161.882428 
L 727.644335 163.285915 
L 729.098166 164.822742 
L 730.347051 166.471986 
L 731.261351 168.049826 
L 731.83242 169.463346 
L 732.128218 170.794067 
L 732.170383 171.959788 
L 731.98884 173.128103 
L 731.565575 174.299646 
L 730.887373 175.473499 
L 729.947843 176.646383 
L 728.653668 177.894785 
L 726.961558 179.20362 
L 724.847343 180.546262 
L 722.314125 181.881083 
L 719.553007 183.087758 
L 716.634812 184.129142 
L 713.599084 184.980322 
L 711.142918 185.510047 
L 711.249792 185.682571 
L 707.581828 186.309646 
L 703.103129 186.835703 
L 697.960092 187.205283 
L 692.752457 187.353462 
L 687.686127 187.269357 
L 683.140203 186.978376 
L 678.70763 186.470711 
L 674.651432 185.788969 
L 670.533885 184.866234 
L 666.576976 183.751869 
L 662.56475 182.396103 
L 658.309611 180.719643 
L 654.037517 178.79103 
L 650.164282 176.796459 
L 647.059701 174.958067 
L 644.54615 173.216033 
L 642.595548 171.59527 
L 641.146359 170.121885 
L 639.946651 168.581694 
L 639.07044 167.100865 
L 638.409879 165.567355 
L 638.040674 164.388057 
L 638.261866 164.680166 
L 638.203696 164.429482 
L 637.86834 162.418231 
L 637.697095 160.047437 
L 637.738255 157.722821 
L 637.981967 155.689951 
L 638.431935 153.817492 
L 639.083688 152.096956 
L 639.9162 150.521429 
L 640.978473 148.976451 
L 642.375515 147.358402 
L 644.032944 145.784593 
L 646.066848 144.163281 
L 648.49176 142.5176 
L 651.302142 140.876731 
L 654.473142 139.27505 
L 658.14514 137.677994 
L 661.930672 136.274172 
L 665.987531 135.011972 
L 670.15161 133.952133 
L 674.675932 133.039202 
L 679.442813 132.304911 
L 684.466107 131.749092 
L 687.150871 131.543804 
L 687.832788 131.289711 
L 692.328441 131.06207 
L 696.409329 131.07121 
L 700.261883 131.299616 
L 704.094598 131.749455 
L 708.109077 132.445147 
L 712.48921 133.4285 
L 717.194867 134.711568 
L 721.305018 136.049798 
L 724.476311 137.297362 
L 726.896523 138.471039 
L 728.749434 139.60477 
L 730.10387 140.673848 
L 731.112782 141.729201 
L 731.868803 142.83627 
L 732.375864 143.987797 
L 732.648101 145.173044 
L 732.705868 146.464607 
L 732.542017 147.845141 
L 732.138865 149.371726 
L 731.482808 151.001629 
L 730.664416 152.473913 
L 730.564228 152.625383 
L 730.072543 152.650108 
L 729.051233 153.731767 
L 727.733413 154.802255 
L 725.970808 155.934697 
L 723.705485 157.113484 
L 720.915463 158.30527 
L 717.614083 159.460114 
L 714.036769 160.467593 
L 710.2648 161.293296 
L 706.359887 161.914426 
L 702.360727 162.321225 
L 698.284351 162.516351 
L 693.910321 162.507289 
L 688.988623 162.270407 
L 683.475491 161.779911 
L 677.113063 160.983534 
L 670.680225 159.951613 
L 665.295435 158.875473 
L 660.829393 157.765327 
L 657.295407 156.669894 
L 654.442353 155.571047 
L 653.037676 154.930463 
L 652.588707 154.426362 
L 650.500904 153.205677 
L 648.494351 151.771057 
L 646.585082 150.125826 
L 644.54794 148.063023 
L 642.032009 145.163768 
L 639.12322 141.465018 
L 637.520237 139.108175 
L 636.621893 137.422982 
L 636.087134 135.94441 
L 635.856092 134.658286 
L 635.854637 133.45379 
L 636.072454 132.217737 
L 636.520931 130.945922 
L 637.277571 129.51685 
L 638.306371 128.04868 
L 639.822819 126.300852 
L 641.763196 124.417198 
L 644.231119 122.329497 
L 647.399544 119.949982 
L 650.926942 117.577435 
L 653.698784 115.948802 
L 654.383736 115.731979 
L 654.408365 115.79777 
L 654.408365 115.79777 
" clip-path="url(#p5b9302c44b)" style="fill: none; stroke: #1f77b4; stroke-width: 1.5; stroke-linecap: square"/>
   </g>
  </g>
  <g id="axes_2">
   <g id="patch_6">
    <path d="M 166.5 345.72096 
L 1198.8 345.72096 
L 1198.8 268.73856 
L 166.5 268.73856 
z
" style="fill: #ffffff"/>
   </g>
   <g id="matplotlib.axis_1">
    <g id="xtick_16">
     <g id="line2d_20">
      <defs>
       <path id="mbaab776d6b" d="M 0 0 
L 0 3.5 
" style="stroke: #000000; stroke-width: 0.8"/>
      </defs>
      <g>
       <use xlink:href="#mbaab776d6b" x="213.422727" y="345.72096" style="stroke: #000000; stroke-width: 0.8"/>
      </g>
     </g>
     <g id="text_16">
      <!-- 0 -->
      <g transform="translate(210.241477 360.319397)scale(0.1 -0.1)">
       <use xlink:href="#DejaVuSans-30"/>
      </g>
     </g>
    </g>
    <g id="xtick_17">
     <g id="line2d_21">
      <g>
       <use xlink:href="#mbaab776d6b" x="330.758879" y="345.72096" style="stroke: #000000; stroke-width: 0.8"/>
      </g>
     </g>
     <g id="text_17">
      <!-- 5 -->
      <g transform="translate(327.577629 360.319397)scale(0.1 -0.1)">
       <use xlink:href="#DejaVuSans-35"/>
      </g>
     </g>
    </g>
    <g id="xtick_18">
     <g id="line2d_22">
      <g>
       <use xlink:href="#mbaab776d6b" x="448.095032" y="345.72096" style="stroke: #000000; stroke-width: 0.8"/>
      </g>
     </g>
     <g id="text_18">
      <!-- 10 -->
      <g transform="translate(441.732532 360.319397)scale(0.1 -0.1)">
       <use xlink:href="#DejaVuSans-31"/>
       <use xlink:href="#DejaVuSans-30" x="63.623047"/>
      </g>
     </g>
    </g>
    <g id="xtick_19">
     <g id="line2d_23">
      <g>
       <use xlink:href="#mbaab776d6b" x="565.431184" y="345.72096" style="stroke: #000000; stroke-width: 0.8"/>
      </g>
     </g>
     <g id="text_19">
      <!-- 15 -->
      <g transform="translate(559.068684 360.319397)scale(0.1 -0.1)">
       <use xlink:href="#DejaVuSans-31"/>
       <use xlink:href="#DejaVuSans-35" x="63.623047"/>
      </g>
     </g>
    </g>
    <g id="xtick_20">
     <g id="line2d_24">
      <g>
       <use xlink:href="#mbaab776d6b" x="682.767336" y="345.72096" style="stroke: #000000; stroke-width: 0.8"/>
      </g>
     </g>
     <g id="text_20">
      <!-- 20 -->
      <g transform="translate(676.404836 360.319397)scale(0.1 -0.1)">
       <use xlink:href="#DejaVuSans-32"/>
       <use xlink:href="#DejaVuSans-30" x="63.623047"/>
      </g>
     </g>
    </g>
    <g id="xtick_21">
     <g id="line2d_25">
      <g>
       <use xlink:href="#mbaab776d6b" x="800.103488" y="345.72096" style="stroke: #000000; stroke-width: 0.8"/>
      </g>
     </g>
     <g id="text_21">
      <!-- 25 -->
      <g transform="translate(793.740988 360.319397)scale(0.1 -0.1)">
       <use xlink:href="#DejaVuSans-32"/>
       <use xlink:href="#DejaVuSans-35" x="63.623047"/>
      </g>
     </g>
    </g>
    <g id="xtick_22">
     <g id="line2d_26">
      <g>
       <use xlink:href="#mbaab776d6b" x="917.439641" y="345.72096" style="stroke: #000000; stroke-width: 0.8"/>
      </g>
     </g>
     <g id="text_22">
      <!-- 30 -->
      <g transform="translate(911.077141 360.319397)scale(0.1 -0.1)">
       <defs>
        <path id="DejaVuSans-33" d="M 2597 2516 
Q 3050 2419 3304 2112 
Q 3559 1806 3559 1356 
Q 3559 666 3084 287 
Q 2609 -91 1734 -91 
Q 1441 -91 1130 -33 
Q 819 25 488 141 
L 488 750 
Q 750 597 1062 519 
Q 1375 441 1716 441 
Q 2309 441 2620 675 
Q 2931 909 2931 1356 
Q 2931 1769 2642 2001 
Q 2353 2234 1838 2234 
L 1294 2234 
L 1294 2753 
L 1863 2753 
Q 2328 2753 2575 2939 
Q 2822 3125 2822 3475 
Q 2822 3834 2567 4026 
Q 2313 4219 1838 4219 
Q 1578 4219 1281 4162 
Q 984 4106 628 3988 
L 628 4550 
Q 988 4650 1302 4700 
Q 1616 4750 1894 4750 
Q 2613 4750 3031 4423 
Q 3450 4097 3450 3541 
Q 3450 3153 3228 2886 
Q 3006 2619 2597 2516 
z
" transform="scale(0.015625)"/>
       </defs>
       <use xlink:href="#DejaVuSans-33"/>
       <use xlink:href="#DejaVuSans-30" x="63.623047"/>
      </g>
     </g>
    </g>
    <g id="xtick_23">
     <g id="line2d_27">
      <g>
       <use xlink:href="#mbaab776d6b" x="1034.775793" y="345.72096" style="stroke: #000000; stroke-width: 0.8"/>
      </g>
     </g>
     <g id="text_23">
      <!-- 35 -->
      <g transform="translate(1028.413293 360.319397)scale(0.1 -0.1)">
       <use xlink:href="#DejaVuSans-33"/>
       <use xlink:href="#DejaVuSans-35" x="63.623047"/>
      </g>
     </g>
    </g>
    <g id="xtick_24">
     <g id="line2d_28">
      <g>
       <use xlink:href="#mbaab776d6b" x="1152.111945" y="345.72096" style="stroke: #000000; stroke-width: 0.8"/>
      </g>
     </g>
     <g id="text_24">
      <!-- 40 -->
      <g transform="translate(1145.749445 360.319397)scale(0.1 -0.1)">
       <defs>
        <path id="DejaVuSans-34" d="M 2419 4116 
L 825 1625 
L 2419 1625 
L 2419 4116 
z
M 2253 4666 
L 3047 4666 
L 3047 1625 
L 3713 1625 
L 3713 1100 
L 3047 1100 
L 3047 0 
L 2419 0 
L 2419 1100 
L 313 1100 
L 313 1709 
L 2253 4666 
z
" transform="scale(0.015625)"/>
       </defs>
       <use xlink:href="#DejaVuSans-34"/>
       <use xlink:href="#DejaVuSans-30" x="63.623047"/>
      </g>
     </g>
    </g>
   </g>
   <g id="matplotlib.axis_2">
    <g id="ytick_1">
     <g id="line2d_29">
      <defs>
       <path id="m3a82e0a22e" d="M 0 0 
L -3.5 0 
" style="stroke: #000000; stroke-width: 0.8"/>
      </defs>
      <g>
       <use xlink:href="#m3a82e0a22e" x="166.5" y="342.22176" style="stroke: #000000; stroke-width: 0.8"/>
      </g>
     </g>
     <g id="text_25">
      <!-- 0.0 -->
      <g transform="translate(143.596875 346.020979)scale(0.1 -0.1)">
       <use xlink:href="#DejaVuSans-30"/>
       <use xlink:href="#DejaVuSans-2e" x="63.623047"/>
       <use xlink:href="#DejaVuSans-30" x="95.410156"/>
      </g>
     </g>
    </g>
    <g id="ytick_2">
     <g id="line2d_30">
      <g>
       <use xlink:href="#m3a82e0a22e" x="166.5" y="294.736982" style="stroke: #000000; stroke-width: 0.8"/>
      </g>
     </g>
     <g id="text_26">
      <!-- 0.2 -->
      <g transform="translate(143.596875 298.536201)scale(0.1 -0.1)">
       <use xlink:href="#DejaVuSans-30"/>
       <use xlink:href="#DejaVuSans-2e" x="63.623047"/>
       <use xlink:href="#DejaVuSans-32" x="95.410156"/>
      </g>
     </g>
    </g>
    <g id="text_27">
     <!-- velocity [m/s] -->
     <g transform="translate(137.517188 341.421947)rotate(-90)scale(0.1 -0.1)">
      <defs>
       <path id="DejaVuSans-76" d="M 191 3500 
L 800 3500 
L 1894 563 
L 2988 3500 
L 3597 3500 
L 2284 0 
L 1503 0 
L 191 3500 
z
" transform="scale(0.015625)"/>
       <path id="DejaVuSans-65" d="M 3597 1894 
L 3597 1613 
L 953 1613 
Q 991 1019 1311 708 
Q 1631 397 2203 397 
Q 2534 397 2845 478 
Q 3156 559 3463 722 
L 3463 178 
Q 3153 47 2828 -22 
Q 2503 -91 2169 -91 
Q 1331 -91 842 396 
Q 353 884 353 1716 
Q 353 2575 817 3079 
Q 1281 3584 2069 3584 
Q 2775 3584 3186 3129 
Q 3597 2675 3597 1894 
z
M 3022 2063 
Q 3016 2534 2758 2815 
Q 2500 3097 2075 3097 
Q 1594 3097 1305 2825 
Q 1016 2553 972 2059 
L 3022 2063 
z
" transform="scale(0.015625)"/>
       <path id="DejaVuSans-6c" d="M 603 4863 
L 1178 4863 
L 1178 0 
L 603 0 
L 603 4863 
z
" transform="scale(0.015625)"/>
       <path id="DejaVuSans-6f" d="M 1959 3097 
Q 1497 3097 1228 2736 
Q 959 2375 959 1747 
Q 959 1119 1226 758 
Q 1494 397 1959 397 
Q 2419 397 2687 759 
Q 2956 1122 2956 1747 
Q 2956 2369 2687 2733 
Q 2419 3097 1959 3097 
z
M 1959 3584 
Q 2709 3584 3137 3096 
Q 3566 2609 3566 1747 
Q 3566 888 3137 398 
Q 2709 -91 1959 -91 
Q 1206 -91 779 398 
Q 353 888 353 1747 
Q 353 2609 779 3096 
Q 1206 3584 1959 3584 
z
" transform="scale(0.015625)"/>
       <path id="DejaVuSans-63" d="M 3122 3366 
L 3122 2828 
Q 2878 2963 2633 3030 
Q 2388 3097 2138 3097 
Q 1578 3097 1268 2742 
Q 959 2388 959 1747 
Q 959 1106 1268 751 
Q 1578 397 2138 397 
Q 2388 397 2633 464 
Q 2878 531 3122 666 
L 3122 134 
Q 2881 22 2623 -34 
Q 2366 -91 2075 -91 
Q 1284 -91 818 406 
Q 353 903 353 1747 
Q 353 2603 823 3093 
Q 1294 3584 2113 3584 
Q 2378 3584 2631 3529 
Q 2884 3475 3122 3366 
z
" transform="scale(0.015625)"/>
       <path id="DejaVuSans-69" d="M 603 3500 
L 1178 3500 
L 1178 0 
L 603 0 
L 603 3500 
z
M 603 4863 
L 1178 4863 
L 1178 4134 
L 603 4134 
L 603 4863 
z
" transform="scale(0.015625)"/>
       <path id="DejaVuSans-74" d="M 1172 4494 
L 1172 3500 
L 2356 3500 
L 2356 3053 
L 1172 3053 
L 1172 1153 
Q 1172 725 1289 603 
Q 1406 481 1766 481 
L 2356 481 
L 2356 0 
L 1766 0 
Q 1100 0 847 248 
Q 594 497 594 1153 
L 594 3053 
L 172 3053 
L 172 3500 
L 594 3500 
L 594 4494 
L 1172 4494 
z
" transform="scale(0.015625)"/>
       <path id="DejaVuSans-79" d="M 2059 -325 
Q 1816 -950 1584 -1140 
Q 1353 -1331 966 -1331 
L 506 -1331 
L 506 -850 
L 844 -850 
Q 1081 -850 1212 -737 
Q 1344 -625 1503 -206 
L 1606 56 
L 191 3500 
L 800 3500 
L 1894 763 
L 2988 3500 
L 3597 3500 
L 2059 -325 
z
" transform="scale(0.015625)"/>
       <path id="DejaVuSans-20" transform="scale(0.015625)"/>
       <path id="DejaVuSans-5b" d="M 550 4863 
L 1875 4863 
L 1875 4416 
L 1125 4416 
L 1125 -397 
L 1875 -397 
L 1875 -844 
L 550 -844 
L 550 4863 
z
" transform="scale(0.015625)"/>
       <path id="DejaVuSans-6d" d="M 3328 2828 
Q 3544 3216 3844 3400 
Q 4144 3584 4550 3584 
Q 5097 3584 5394 3201 
Q 5691 2819 5691 2113 
L 5691 0 
L 5113 0 
L 5113 2094 
Q 5113 2597 4934 2840 
Q 4756 3084 4391 3084 
Q 3944 3084 3684 2787 
Q 3425 2491 3425 1978 
L 3425 0 
L 2847 0 
L 2847 2094 
Q 2847 2600 2669 2842 
Q 2491 3084 2119 3084 
Q 1678 3084 1418 2786 
Q 1159 2488 1159 1978 
L 1159 0 
L 581 0 
L 581 3500 
L 1159 3500 
L 1159 2956 
Q 1356 3278 1631 3431 
Q 1906 3584 2284 3584 
Q 2666 3584 2933 3390 
Q 3200 3197 3328 2828 
z
" transform="scale(0.015625)"/>
       <path id="DejaVuSans-2f" d="M 1625 4666 
L 2156 4666 
L 531 -594 
L 0 -594 
L 1625 4666 
z
" transform="scale(0.015625)"/>
       <path id="DejaVuSans-73" d="M 2834 3397 
L 2834 2853 
Q 2591 2978 2328 3040 
Q 2066 3103 1784 3103 
Q 1356 3103 1142 2972 
Q 928 2841 928 2578 
Q 928 2378 1081 2264 
Q 1234 2150 1697 2047 
L 1894 2003 
Q 2506 1872 2764 1633 
Q 3022 1394 3022 966 
Q 3022 478 2636 193 
Q 2250 -91 1575 -91 
Q 1294 -91 989 -36 
Q 684 19 347 128 
L 347 722 
Q 666 556 975 473 
Q 1284 391 1588 391 
Q 1994 391 2212 530 
Q 2431 669 2431 922 
Q 2431 1156 2273 1281 
Q 2116 1406 1581 1522 
L 1381 1569 
Q 847 1681 609 1914 
Q 372 2147 372 2553 
Q 372 3047 722 3315 
Q 1072 3584 1716 3584 
Q 2034 3584 2315 3537 
Q 2597 3491 2834 3397 
z
" transform="scale(0.015625)"/>
       <path id="DejaVuSans-5d" d="M 1947 4863 
L 1947 -844 
L 622 -844 
L 622 -397 
L 1369 -397 
L 1369 4416 
L 622 4416 
L 622 4863 
L 1947 4863 
z
" transform="scale(0.015625)"/>
      </defs>
      <use xlink:href="#DejaVuSans-76"/>
      <use xlink:href="#DejaVuSans-65" x="59.179688"/>
      <use xlink:href="#DejaVuSans-6c" x="120.703125"/>
      <use xlink:href="#DejaVuSans-6f" x="148.486328"/>
      <use xlink:href="#DejaVuSans-63" x="209.667969"/>
      <use xlink:href="#DejaVuSans-69" x="264.648438"/>
      <use xlink:href="#DejaVuSans-74" x="292.431641"/>
      <use xlink:href="#DejaVuSans-79" x="331.640625"/>
      <use xlink:href="#DejaVuSans-20" x="390.820312"/>
      <use xlink:href="#DejaVuSans-5b" x="422.607422"/>
      <use xlink:href="#DejaVuSans-6d" x="461.621094"/>
      <use xlink:href="#DejaVuSans-2f" x="559.033203"/>
      <use xlink:href="#DejaVuSans-73" x="592.724609"/>
      <use xlink:href="#DejaVuSans-5d" x="644.824219"/>
     </g>
    </g>
   </g>
   <g id="line2d_31">
    <path d="M 213.422727 342.22176 
L 213.892072 342.132816 
L 214.596089 341.684136 
L 215.300106 340.891038 
L 216.238795 339.360331 
L 217.177484 337.362546 
L 218.350846 334.322251 
L 219.758879 330.052954 
L 221.87093 322.802433 
L 229.380444 296.044802 
L 231.257822 290.392898 
L 233.135201 285.459482 
L 234.777907 281.789102 
L 236.185941 279.143456 
L 237.593975 276.96392 
L 238.767336 275.499723 
L 239.940698 274.347414 
L 241.114059 273.495511 
L 242.287421 272.929328 
L 243.460782 272.631371 
L 244.634144 272.581729 
L 245.807505 272.758453 
L 246.980867 273.137942 
L 248.388901 273.825882 
L 250.031607 274.892595 
L 252.143658 276.570799 
L 255.42907 279.535556 
L 259.418499 283.069912 
L 261.765222 284.851928 
L 263.877273 286.17697 
L 265.754651 287.110872 
L 267.63203 287.815915 
L 269.74408 288.354507 
L 271.856131 288.657171 
L 274.202854 288.766212 
L 277.018922 288.654169 
L 280.304334 288.281744 
L 284.293763 287.586079 
L 289.221882 286.480294 
L 304.240909 282.921731 
L 307.056977 282.412552 
L 307.291649 284.95524 
L 314.331818 284.675645 
L 318.790592 284.135377 
L 323.249366 283.658291 
L 326.065433 283.570354 
L 328.881501 283.713229 
L 331.697569 284.092555 
L 334.748309 284.734608 
L 338.737738 285.816569 
L 346.247252 287.889575 
L 349.297992 288.471977 
L 351.879387 288.747978 
L 354.22611 288.79018 
L 356.572833 288.613571 
L 358.919556 288.212492 
L 361.500951 287.525207 
L 364.317019 286.527614 
L 368.306448 284.844999 
L 372.999894 282.909127 
L 375.58129 282.098467 
L 377.69334 281.671309 
L 379.570719 281.516741 
L 381.448097 281.604804 
L 383.090803 281.896225 
L 384.73351 282.393149 
L 386.610888 283.207234 
L 388.488266 284.262123 
L 390.834989 285.853689 
L 398.109831 291.050119 
L 399.517865 291.698137 
L 400.691226 292.037852 
L 400.925899 292.07998 
L 401.160571 290.907035 
L 402.333932 290.810288 
L 403.741966 290.432748 
L 405.384672 289.737621 
L 407.731395 288.476204 
L 412.894186 285.629258 
L 415.240909 284.630538 
L 417.35296 283.980295 
L 419.465011 283.583052 
L 421.577061 283.432416 
L 423.689112 283.503949 
L 426.035835 283.79744 
L 429.086575 284.410923 
L 438.004123 286.366714 
L 441.054863 286.728028 
L 444.105603 286.856209 
L 447.391015 286.761108 
L 451.615116 286.398883 
L 460.767336 285.549861 
L 464.756765 285.455829 
L 468.511522 285.589999 
L 473.204968 285.998811 
L 479.541121 286.544319 
L 482.357188 286.554636 
L 484.938584 286.337124 
L 487.519979 285.883994 
L 491.274736 284.947614 
L 493.856131 284.385858 
L 494.79482 284.272028 
L 495.029493 283.82659 
L 496.672199 283.80651 
L 498.549577 284.035323 
L 500.661628 284.523253 
L 503.94704 285.541015 
L 509.109831 287.140237 
L 511.925899 287.767931 
L 514.507294 288.106836 
L 516.854017 288.196459 
L 519.20074 288.077496 
L 521.782135 287.725557 
L 524.832875 287.068158 
L 529.291649 285.837677 
L 534.689112 284.390963 
L 537.739852 283.805981 
L 540.55592 283.502087 
L 543.137315 283.451282 
L 545.71871 283.622343 
L 548.534778 284.041616 
L 551.82019 284.773303 
L 562.849789 287.481523 
L 565.431184 287.765431 
L 567.777907 287.80682 
L 570.12463 287.622193 
L 572.471353 287.209778 
L 575.052748 286.51298 
L 578.103488 285.427373 
L 586.551691 282.223742 
L 588.42907 281.829171 
L 588.663742 281.796514 
L 588.898414 283.65999 
L 590.541121 283.84998 
L 592.887844 284.36642 
L 598.754651 285.747501 
L 601.570719 286.119886 
L 604.386786 286.26207 
L 607.906871 286.197128 
L 621.752537 285.66189 
L 626.680655 285.856344 
L 638.883615 286.481547 
L 642.4037 286.349074 
L 645.689112 286.000356 
L 649.209197 285.398781 
L 655.780021 283.972639 
L 659.300106 283.348301 
L 661.881501 283.096384 
L 664.228224 283.079848 
L 666.574947 283.299163 
L 668.92167 283.764621 
L 671.268393 284.458123 
L 674.319133 285.608299 
L 678.777907 287.31533 
L 680.655285 287.788059 
L 682.063319 287.932935 
L 682.532664 287.928153 
L 682.767336 289.742807 
L 684.17537 289.666213 
L 685.583404 289.363559 
L 687.460782 288.705077 
L 690.042178 287.52422 
L 695.204968 285.10919 
L 697.551691 284.279365 
L 699.663742 283.76033 
L 701.775793 283.476537 
L 703.887844 283.425882 
L 705.999894 283.589703 
L 708.346617 283.984576 
L 711.397357 284.741346 
L 721.722939 287.533788 
L 724.539006 287.930168 
L 727.120402 288.06357 
L 729.701797 287.971027 
L 732.517865 287.630709 
L 735.568605 287.029682 
L 739.792706 285.944979 
L 746.598203 284.175079 
L 749.883615 283.569533 
L 752.699683 283.270402 
L 755.515751 283.197303 
L 758.56649 283.354954 
L 762.790592 283.832103 
L 767.249366 284.279928 
L 769.830761 284.313682 
L 772.177484 284.126 
L 774.758879 283.67916 
L 776.401586 283.296321 
L 776.636258 286.166127 
L 781.799049 285.847605 
L 785.788478 285.858448 
L 790.951268 286.129233 
L 798.460782 286.523294 
L 802.215539 286.476439 
L 805.735624 286.204144 
L 809.725053 285.65139 
L 820.519979 283.979366 
L 823.570719 283.830659 
L 826.386786 283.922144 
L 829.202854 284.246915 
L 832.018922 284.79099 
L 835.539006 285.715063 
L 845.395243 288.489226 
L 847.976638 288.884114 
L 850.323362 289.003215 
L 852.435412 288.88431 
L 854.547463 288.539071 
L 856.659514 287.973803 
L 859.006237 287.122055 
L 862.526321 285.573454 
L 865.811734 284.187234 
L 867.689112 283.62901 
L 869.097146 283.419756 
L 870.270507 283.433865 
L 870.50518 282.189771 
L 871.678541 282.338291 
L 873.086575 282.731626 
L 874.963953 283.497233 
L 882.942812 287.071822 
L 885.054863 287.647698 
L 887.166913 287.996114 
L 889.278964 288.125968 
L 891.625687 288.044722 
L 894.441755 287.700495 
L 898.196512 286.979075 
L 906.644715 285.2705 
L 910.164799 284.841186 
L 913.450211 284.669618 
L 916.970296 284.718991 
L 921.42907 285.022744 
L 928.938584 285.549585 
L 932.69334 285.555534 
L 936.448097 285.332693 
L 947.712368 284.462231 
L 950.528436 284.584516 
L 953.344503 284.936444 
L 956.395243 285.547367 
L 963.435412 287.068542 
L 964.139429 287.131487 
L 964.374101 288.470223 
L 966.016808 288.517171 
L 967.894186 288.321634 
L 970.006237 287.841786 
L 972.587632 286.990881 
L 981.739852 283.715219 
L 984.086575 283.227546 
L 986.433298 282.974737 
L 988.780021 282.963182 
L 991.126744 283.17993 
L 993.70814 283.647474 
L 996.758879 284.435842 
L 1001.92167 286.050955 
L 1006.380444 287.355813 
L 1009.431184 288.022623 
L 1012.012579 288.377625 
L 1014.593975 288.512903 
L 1017.17537 288.421553 
L 1019.756765 288.115629 
L 1022.807505 287.519308 
L 1026.796934 286.482061 
L 1033.837104 284.615572 
L 1036.653171 284.113642 
L 1039.234567 283.882142 
L 1041.58129 283.901429 
L 1043.928013 284.159891 
L 1046.274736 284.658069 
L 1048.856131 285.454469 
L 1052.141543 286.729136 
L 1056.600317 288.462571 
L 1058.008351 288.873329 
L 1058.243023 286.936522 
L 1059.885729 286.920106 
L 1061.763108 286.658409 
L 1064.109831 286.064667 
L 1070.680655 284.221519 
L 1072.792706 283.931227 
L 1074.904757 283.875984 
L 1077.016808 284.061394 
L 1079.128858 284.471382 
L 1081.475581 285.152047 
L 1084.291649 286.203043 
L 1093.913214 290.023486 
L 1095.790592 290.441987 
L 1097.433298 290.613287 
L 1099.076004 290.562824 
L 1100.484038 290.317996 
L 1101.892072 289.870552 
L 1103.300106 289.211788 
L 1104.942812 288.176063 
L 1106.585518 286.867779 
L 1108.462896 285.082023 
L 1110.809619 282.528796 
L 1116.911099 275.715821 
L 1118.553805 274.260521 
L 1119.961839 273.275813 
L 1121.135201 272.682787 
L 1122.308562 272.329127 
L 1123.481924 272.243319 
L 1124.420613 272.385192 
L 1125.359302 272.727426 
L 1126.297992 273.280881 
L 1127.236681 274.054994 
L 1128.410042 275.344734 
L 1129.583404 277.002859 
L 1130.756765 279.036071 
L 1132.164799 281.972634 
L 1133.572833 285.442302 
L 1135.215539 290.133456 
L 1137.092918 296.264974 
L 1139.204968 303.970197 
L 1142.490381 316.936192 
L 1145.541121 328.696784 
L 1147.183827 334.174035 
L 1148.357188 337.314003 
L 1149.061205 338.672204 
L 1149.53055 339.246928 
L 1149.999894 339.506483 
L 1150.469239 339.491331 
L 1151.877273 338.928795 
L 1151.877273 338.928795 
" clip-path="url(#pa8b0e38a42)" style="fill: none; stroke: #1f77b4; stroke-width: 1.5; stroke-linecap: square"/>
   </g>
   <g id="patch_7">
    <path d="M 166.5 345.72096 
L 166.5 268.73856 
" style="fill: none; stroke: #000000; stroke-width: 0.8; stroke-linejoin: miter; stroke-linecap: square"/>
   </g>
   <g id="patch_8">
    <path d="M 1198.8 345.72096 
L 1198.8 268.73856 
" style="fill: none; stroke: #000000; stroke-width: 0.8; stroke-linejoin: miter; stroke-linecap: square"/>
   </g>
   <g id="patch_9">
    <path d="M 166.5 345.72096 
L 1198.8 345.72096 
" style="fill: none; stroke: #000000; stroke-width: 0.8; stroke-linejoin: miter; stroke-linecap: square"/>
   </g>
   <g id="patch_10">
    <path d="M 166.5 268.73856 
L 1198.8 268.73856 
" style="fill: none; stroke: #000000; stroke-width: 0.8; stroke-linejoin: miter; stroke-linecap: square"/>
   </g>
  </g>
  <g id="axes_3">
   <g id="patch_11">
    <path d="M 166.5 438.09984 
L 1198.8 438.09984 
L 1198.8 361.11744 
L 166.5 361.11744 
z
" style="fill: #ffffff"/>
   </g>
   <g id="matplotlib.axis_3">
    <g id="xtick_25">
     <g id="line2d_32">
      <g>
       <use xlink:href="#mbaab776d6b" x="213.422727" y="438.09984" style="stroke: #000000; stroke-width: 0.8"/>
      </g>
     </g>
     <g id="text_28">
      <!-- 0 -->
      <g transform="translate(210.241477 452.698278)scale(0.1 -0.1)">
       <use xlink:href="#DejaVuSans-30"/>
      </g>
     </g>
    </g>
    <g id="xtick_26">
     <g id="line2d_33">
      <g>
       <use xlink:href="#mbaab776d6b" x="330.758879" y="438.09984" style="stroke: #000000; stroke-width: 0.8"/>
      </g>
     </g>
     <g id="text_29">
      <!-- 5 -->
      <g transform="translate(327.577629 452.698278)scale(0.1 -0.1)">
       <use xlink:href="#DejaVuSans-35"/>
      </g>
     </g>
    </g>
    <g id="xtick_27">
     <g id="line2d_34">
      <g>
       <use xlink:href="#mbaab776d6b" x="448.095032" y="438.09984" style="stroke: #000000; stroke-width: 0.8"/>
      </g>
     </g>
     <g id="text_30">
      <!-- 10 -->
      <g transform="translate(441.732532 452.698278)scale(0.1 -0.1)">
       <use xlink:href="#DejaVuSans-31"/>
       <use xlink:href="#DejaVuSans-30" x="63.623047"/>
      </g>
     </g>
    </g>
    <g id="xtick_28">
     <g id="line2d_35">
      <g>
       <use xlink:href="#mbaab776d6b" x="565.431184" y="438.09984" style="stroke: #000000; stroke-width: 0.8"/>
      </g>
     </g>
     <g id="text_31">
      <!-- 15 -->
      <g transform="translate(559.068684 452.698278)scale(0.1 -0.1)">
       <use xlink:href="#DejaVuSans-31"/>
       <use xlink:href="#DejaVuSans-35" x="63.623047"/>
      </g>
     </g>
    </g>
    <g id="xtick_29">
     <g id="line2d_36">
      <g>
       <use xlink:href="#mbaab776d6b" x="682.767336" y="438.09984" style="stroke: #000000; stroke-width: 0.8"/>
      </g>
     </g>
     <g id="text_32">
      <!-- 20 -->
      <g transform="translate(676.404836 452.698278)scale(0.1 -0.1)">
       <use xlink:href="#DejaVuSans-32"/>
       <use xlink:href="#DejaVuSans-30" x="63.623047"/>
      </g>
     </g>
    </g>
    <g id="xtick_30">
     <g id="line2d_37">
      <g>
       <use xlink:href="#mbaab776d6b" x="800.103488" y="438.09984" style="stroke: #000000; stroke-width: 0.8"/>
      </g>
     </g>
     <g id="text_33">
      <!-- 25 -->
      <g transform="translate(793.740988 452.698278)scale(0.1 -0.1)">
       <use xlink:href="#DejaVuSans-32"/>
       <use xlink:href="#DejaVuSans-35" x="63.623047"/>
      </g>
     </g>
    </g>
    <g id="xtick_31">
     <g id="line2d_38">
      <g>
       <use xlink:href="#mbaab776d6b" x="917.439641" y="438.09984" style="stroke: #000000; stroke-width: 0.8"/>
      </g>
     </g>
     <g id="text_34">
      <!-- 30 -->
      <g transform="translate(911.077141 452.698278)scale(0.1 -0.1)">
       <use xlink:href="#DejaVuSans-33"/>
       <use xlink:href="#DejaVuSans-30" x="63.623047"/>
      </g>
     </g>
    </g>
    <g id="xtick_32">
     <g id="line2d_39">
      <g>
       <use xlink:href="#mbaab776d6b" x="1034.775793" y="438.09984" style="stroke: #000000; stroke-width: 0.8"/>
      </g>
     </g>
     <g id="text_35">
      <!-- 35 -->
      <g transform="translate(1028.413293 452.698278)scale(0.1 -0.1)">
       <use xlink:href="#DejaVuSans-33"/>
       <use xlink:href="#DejaVuSans-35" x="63.623047"/>
      </g>
     </g>
    </g>
    <g id="xtick_33">
     <g id="line2d_40">
      <g>
       <use xlink:href="#mbaab776d6b" x="1152.111945" y="438.09984" style="stroke: #000000; stroke-width: 0.8"/>
      </g>
     </g>
     <g id="text_36">
      <!-- 40 -->
      <g transform="translate(1145.749445 452.698278)scale(0.1 -0.1)">
       <use xlink:href="#DejaVuSans-34"/>
       <use xlink:href="#DejaVuSans-30" x="63.623047"/>
      </g>
     </g>
    </g>
   </g>
   <g id="matplotlib.axis_4">
    <g id="ytick_3">
     <g id="line2d_41">
      <g>
       <use xlink:href="#m3a82e0a22e" x="166.5" y="434.60064" style="stroke: #000000; stroke-width: 0.8"/>
      </g>
     </g>
     <g id="text_37">
      <!-- 0.0 -->
      <g transform="translate(143.596875 438.399859)scale(0.1 -0.1)">
       <use xlink:href="#DejaVuSans-30"/>
       <use xlink:href="#DejaVuSans-2e" x="63.623047"/>
       <use xlink:href="#DejaVuSans-30" x="95.410156"/>
      </g>
     </g>
    </g>
    <g id="ytick_4">
     <g id="line2d_42">
      <g>
       <use xlink:href="#m3a82e0a22e" x="166.5" y="399.415934" style="stroke: #000000; stroke-width: 0.8"/>
      </g>
     </g>
     <g id="text_38">
      <!-- 0.2 -->
      <g transform="translate(143.596875 403.215153)scale(0.1 -0.1)">
       <use xlink:href="#DejaVuSans-30"/>
       <use xlink:href="#DejaVuSans-2e" x="63.623047"/>
       <use xlink:href="#DejaVuSans-32" x="95.410156"/>
      </g>
     </g>
    </g>
    <g id="ytick_5">
     <g id="line2d_43">
      <g>
       <use xlink:href="#m3a82e0a22e" x="166.5" y="364.231229" style="stroke: #000000; stroke-width: 0.8"/>
      </g>
     </g>
     <g id="text_39">
      <!-- 0.4 -->
      <g transform="translate(143.596875 368.030447)scale(0.1 -0.1)">
       <use xlink:href="#DejaVuSans-30"/>
       <use xlink:href="#DejaVuSans-2e" x="63.623047"/>
       <use xlink:href="#DejaVuSans-34" x="95.410156"/>
      </g>
     </g>
    </g>
    <g id="text_40">
     <!-- acceleration [m/s^2] -->
     <g transform="translate(137.517188 452.431296)rotate(-90)scale(0.1 -0.1)">
      <defs>
       <path id="DejaVuSans-61" d="M 2194 1759 
Q 1497 1759 1228 1600 
Q 959 1441 959 1056 
Q 959 750 1161 570 
Q 1363 391 1709 391 
Q 2188 391 2477 730 
Q 2766 1069 2766 1631 
L 2766 1759 
L 2194 1759 
z
M 3341 1997 
L 3341 0 
L 2766 0 
L 2766 531 
Q 2569 213 2275 61 
Q 1981 -91 1556 -91 
Q 1019 -91 701 211 
Q 384 513 384 1019 
Q 384 1609 779 1909 
Q 1175 2209 1959 2209 
L 2766 2209 
L 2766 2266 
Q 2766 2663 2505 2880 
Q 2244 3097 1772 3097 
Q 1472 3097 1187 3025 
Q 903 2953 641 2809 
L 641 3341 
Q 956 3463 1253 3523 
Q 1550 3584 1831 3584 
Q 2591 3584 2966 3190 
Q 3341 2797 3341 1997 
z
" transform="scale(0.015625)"/>
       <path id="DejaVuSans-72" d="M 2631 2963 
Q 2534 3019 2420 3045 
Q 2306 3072 2169 3072 
Q 1681 3072 1420 2755 
Q 1159 2438 1159 1844 
L 1159 0 
L 581 0 
L 581 3500 
L 1159 3500 
L 1159 2956 
Q 1341 3275 1631 3429 
Q 1922 3584 2338 3584 
Q 2397 3584 2469 3576 
Q 2541 3569 2628 3553 
L 2631 2963 
z
" transform="scale(0.015625)"/>
       <path id="DejaVuSans-6e" d="M 3513 2113 
L 3513 0 
L 2938 0 
L 2938 2094 
Q 2938 2591 2744 2837 
Q 2550 3084 2163 3084 
Q 1697 3084 1428 2787 
Q 1159 2491 1159 1978 
L 1159 0 
L 581 0 
L 581 3500 
L 1159 3500 
L 1159 2956 
Q 1366 3272 1645 3428 
Q 1925 3584 2291 3584 
Q 2894 3584 3203 3211 
Q 3513 2838 3513 2113 
z
" transform="scale(0.015625)"/>
       <path id="DejaVuSans-5e" d="M 2988 4666 
L 4684 2925 
L 4056 2925 
L 2681 4159 
L 1306 2925 
L 678 2925 
L 2375 4666 
L 2988 4666 
z
" transform="scale(0.015625)"/>
      </defs>
      <use xlink:href="#DejaVuSans-61"/>
      <use xlink:href="#DejaVuSans-63" x="61.279297"/>
      <use xlink:href="#DejaVuSans-63" x="116.259766"/>
      <use xlink:href="#DejaVuSans-65" x="171.240234"/>
      <use xlink:href="#DejaVuSans-6c" x="232.763672"/>
      <use xlink:href="#DejaVuSans-65" x="260.546875"/>
      <use xlink:href="#DejaVuSans-72" x="322.070312"/>
      <use xlink:href="#DejaVuSans-61" x="363.183594"/>
      <use xlink:href="#DejaVuSans-74" x="424.462891"/>
      <use xlink:href="#DejaVuSans-69" x="463.671875"/>
      <use xlink:href="#DejaVuSans-6f" x="491.455078"/>
      <use xlink:href="#DejaVuSans-6e" x="552.636719"/>
      <use xlink:href="#DejaVuSans-20" x="616.015625"/>
      <use xlink:href="#DejaVuSans-5b" x="647.802734"/>
      <use xlink:href="#DejaVuSans-6d" x="686.816406"/>
      <use xlink:href="#DejaVuSans-2f" x="784.228516"/>
      <use xlink:href="#DejaVuSans-73" x="817.919922"/>
      <use xlink:href="#DejaVuSans-5e" x="870.019531"/>
      <use xlink:href="#DejaVuSans-32" x="953.808594"/>
      <use xlink:href="#DejaVuSans-5d" x="1017.431641"/>
     </g>
    </g>
   </g>
   <g id="line2d_44">
    <path d="M 213.422727 434.60064 
L 214.596089 419.111698 
L 215.76945 406.182527 
L 216.942812 395.592488 
L 218.116173 387.131306 
L 219.054863 381.760272 
L 219.993552 377.525416 
L 220.932241 374.332669 
L 221.636258 372.567551 
L 222.340275 371.301049 
L 223.044292 370.497584 
L 223.513636 370.202111 
L 223.982981 370.087135 
L 224.452326 370.14291 
L 225.156342 370.525907 
L 225.860359 371.240265 
L 226.564376 372.255518 
L 227.503066 374.026225 
L 228.676427 376.814726 
L 230.084461 380.836144 
L 231.961839 386.993634 
L 237.359302 405.295576 
L 238.532664 408.394494 
L 239.471353 410.367084 
L 240.410042 411.788062 
L 241.114059 412.452716 
L 241.818076 412.764241 
L 242.522093 412.736074 
L 243.22611 412.400648 
L 243.930127 411.804105 
L 244.868816 410.69396 
L 246.27685 408.60175 
L 250.500951 401.979062 
L 251.908985 400.222788 
L 253.317019 398.832301 
L 254.490381 397.978226 
L 255.663742 397.41126 
L 256.837104 397.13317 
L 257.775793 397.116146 
L 258.949154 397.344679 
L 260.122516 397.839478 
L 261.295877 398.585254 
L 262.703911 399.785781 
L 264.111945 401.285704 
L 265.754651 403.360742 
L 267.866702 406.436736 
L 270.68277 410.998472 
L 276.314905 420.226047 
L 278.426956 423.20134 
L 280.069662 425.152989 
L 281.477696 426.503765 
L 282.651057 427.366426 
L 283.824419 427.971075 
L 284.99778 428.315889 
L 286.171142 428.416611 
L 287.344503 428.300233 
L 288.752537 427.910409 
L 290.160571 427.271009 
L 291.568605 426.383914 
L 292.976638 425.23869 
L 294.384672 423.82727 
L 296.027378 421.850618 
L 297.904757 419.200559 
L 300.25148 415.446432 
L 306.35296 405.428237 
L 307.056977 404.44581 
L 307.291649 402.942554 
L 308.230338 401.736429 
L 309.169027 400.878929 
L 310.107717 400.351128 
L 311.046406 400.128183 
L 311.985095 400.182246 
L 312.923784 400.484159 
L 313.862474 401.004467 
L 315.035835 401.917663 
L 316.443869 403.326288 
L 318.321247 405.587136 
L 321.371987 409.725304 
L 324.6574 414.091594 
L 326.534778 416.259977 
L 328.177484 417.855637 
L 329.82019 419.123095 
L 331.228224 419.936019 
L 332.636258 420.504878 
L 334.044292 420.852945 
L 335.686998 421.023904 
L 337.564376 420.977696 
L 339.676427 420.701664 
L 342.257822 420.129527 
L 345.07389 419.258378 
L 347.889958 418.139006 
L 350.940698 416.67657 
L 359.858245 412.196181 
L 361.970296 411.482405 
L 363.847674 411.071905 
L 365.725053 410.904429 
L 367.367759 410.970557 
L 369.245137 411.288679 
L 371.122516 411.843908 
L 373.469239 412.792494 
L 378.162685 414.784146 
L 379.805391 415.176705 
L 381.213425 415.255608 
L 382.386786 415.105574 
L 383.560148 414.750482 
L 384.968182 414.070473 
L 386.610888 412.997194 
L 392.008351 409.174412 
L 393.181712 408.713469 
L 394.120402 408.545278 
L 395.059091 408.592244 
L 395.99778 408.886326 
L 396.936469 409.4558 
L 397.875159 410.322254 
L 398.813848 411.495084 
L 399.987209 413.368112 
L 400.925899 415.112644 
L 401.160571 414.319946 
L 401.864588 415.152689 
L 402.568605 415.709139 
L 403.507294 416.144525 
L 404.680655 416.401336 
L 408.904757 417.062192 
L 411.25148 417.797145 
L 414.067548 418.659033 
L 415.475581 418.882045 
L 416.883615 418.872238 
L 418.056977 418.661798 
L 419.465011 418.169551 
L 421.107717 417.311731 
L 423.219767 415.904959 
L 428.851903 411.973026 
L 430.729281 410.970263 
L 432.60666 410.226303 
L 434.249366 409.809281 
L 435.892072 409.617751 
L 437.534778 409.649207 
L 439.177484 409.893645 
L 441.054863 410.412707 
L 442.932241 411.156194 
L 445.278964 412.340913 
L 448.329704 414.168454 
L 455.369873 418.519199 
L 457.716596 419.661436 
L 459.593975 420.353397 
L 461.471353 420.798257 
L 463.114059 420.952416 
L 464.756765 420.863966 
L 466.399471 420.518831 
L 468.042178 419.912935 
L 469.684884 419.053317 
L 471.562262 417.783989 
L 473.674313 416.043788 
L 476.255708 413.594278 
L 481.887844 408.103828 
L 483.53055 406.818214 
L 484.938584 405.96936 
L 486.111945 405.496894 
L 487.285307 405.287165 
L 488.223996 405.341226 
L 489.162685 405.62036 
L 490.101374 406.150591 
L 491.040063 406.957411 
L 491.978753 408.064422 
L 492.917442 409.490852 
L 494.090803 411.73693 
L 494.79482 413.323733 
L 495.264165 414.896834 
L 496.202854 416.824058 
L 497.141543 418.271883 
L 498.080233 419.308385 
L 499.018922 420.007912 
L 499.957611 420.444257 
L 501.130973 420.719249 
L 502.539006 420.782434 
L 504.181712 420.625507 
L 506.293763 420.185276 
L 508.640486 419.446927 
L 511.221882 418.376475 
L 515.211311 416.416817 
L 518.966068 414.656073 
L 521.312791 413.78448 
L 523.424841 413.215729 
L 525.536892 412.871793 
L 527.648943 412.748985 
L 529.995666 412.840971 
L 532.811734 413.183432 
L 540.321247 414.228175 
L 542.902643 414.280862 
L 545.484038 414.100412 
L 548.534778 413.65118 
L 555.105603 412.60177 
L 557.686998 412.473748 
L 560.033721 412.59989 
L 562.145772 412.928542 
L 564.492495 413.521351 
L 567.308562 414.484903 
L 575.522093 417.507233 
L 577.868816 418.052718 
L 579.980867 418.338558 
L 581.858245 418.378532 
L 583.266279 418.202867 
L 584.439641 417.841545 
L 585.37833 417.347165 
L 586.317019 416.605478 
L 587.255708 415.54741 
L 588.194397 414.100364 
L 588.663742 413.208754 
L 588.898414 414.727691 
L 590.306448 411.945819 
L 591.47981 410.07715 
L 592.653171 408.641056 
L 593.59186 407.792094 
L 594.53055 407.19153 
L 595.469239 406.819081 
L 596.407928 406.65307 
L 597.58129 406.702286 
L 598.754651 406.99716 
L 600.162685 407.617866 
L 601.805391 408.626495 
L 603.917442 410.226607 
L 612.365645 417.008812 
L 614.477696 418.244868 
L 616.355074 419.079762 
L 617.99778 419.591463 
L 619.640486 419.895103 
L 621.283192 419.99424 
L 623.160571 419.86945 
L 625.037949 419.511625 
L 627.15 418.86546 
L 629.496723 417.900637 
L 632.547463 416.376196 
L 640.760994 412.102631 
L 643.107717 411.201009 
L 645.219767 410.626045 
L 647.097146 410.33751 
L 648.974524 410.279675 
L 650.851903 410.462955 
L 652.729281 410.885973 
L 654.60666 411.533247 
L 656.71871 412.488784 
L 659.76945 414.138227 
L 663.289535 416.010733 
L 665.166913 416.77305 
L 666.809619 417.208458 
L 668.452326 417.394194 
L 670.095032 417.339823 
L 671.97241 417.051824 
L 678.07389 415.915883 
L 680.889958 415.503284 
L 681.828647 415.155074 
L 682.532664 414.727763 
L 683.002008 414.184731 
L 685.583404 412.357635 
L 686.756765 411.815472 
L 687.930127 411.521604 
L 689.103488 411.469907 
L 690.27685 411.634361 
L 691.684884 412.064377 
L 693.562262 412.908649 
L 698.725053 415.412208 
L 700.367759 415.890394 
L 702.010465 416.114716 
L 703.653171 416.085971 
L 705.53055 415.790646 
L 707.877273 415.16024 
L 713.978753 413.392771 
L 716.325476 413.001817 
L 718.672199 412.853013 
L 721.018922 412.944167 
L 723.600317 413.287458 
L 726.651057 413.941278 
L 731.109831 415.158502 
L 738.619345 417.213907 
L 742.139429 417.960149 
L 744.720825 418.303037 
L 746.832875 418.367331 
L 748.710254 418.190964 
L 750.35296 417.809611 
L 751.995666 417.186108 
L 753.638372 416.308656 
L 755.281078 415.186915 
L 757.158457 413.647996 
L 759.974524 411.005518 
L 763.729281 407.495114 
L 765.371987 406.24051 
L 766.780021 405.431404 
L 767.953383 405.008748 
L 768.892072 404.872651 
L 769.830761 404.946602 
L 770.76945 405.260113 
L 771.70814 405.843949 
L 772.646829 406.730005 
L 773.585518 407.95105 
L 774.524207 409.540205 
L 775.462896 411.529863 
L 778.748309 419.210972 
L 779.686998 420.746926 
L 780.625687 421.922171 
L 781.564376 422.777266 
L 782.503066 423.351988 
L 783.441755 423.683959 
L 784.380444 423.807281 
L 785.553805 423.713003 
L 786.727167 423.387923 
L 788.135201 422.750087 
L 789.777907 421.739876 
L 791.889958 420.150514 
L 796.583404 416.203231 
L 799.399471 414.026345 
L 801.511522 412.656833 
L 803.388901 411.683803 
L 805.266279 410.967283 
L 806.908985 410.559823 
L 808.551691 410.356791 
L 810.42907 410.36488 
L 812.306448 410.607886 
L 814.418499 411.122246 
L 816.999894 412.014313 
L 821.223996 413.775816 
L 824.74408 415.153711 
L 827.325476 415.927438 
L 829.672199 416.397135 
L 832.018922 416.645583 
L 834.834989 416.71108 
L 839.528436 416.54227 
L 853.608774 415.79803 
L 859.240909 415.259519 
L 861.35296 415.307827 
L 863.230338 415.576937 
L 865.577061 416.179112 
L 867.45444 416.608752 
L 868.393129 416.622729 
L 869.097146 416.453151 
L 869.801163 416.062231 
L 870.270507 415.646869 
L 870.50518 414.364972 
L 872.147886 412.59324 
L 873.790592 410.919632 
L 874.963953 409.996925 
L 876.137315 409.351024 
L 877.310677 408.982651 
L 878.484038 408.873054 
L 879.6574 408.993531 
L 881.065433 409.394807 
L 882.70814 410.141111 
L 884.82019 411.399488 
L 889.044292 414.292997 
L 892.095032 416.240422 
L 894.441755 417.498853 
L 896.788478 418.50441 
L 898.900529 419.183976 
L 901.012579 419.646018 
L 903.12463 419.880382 
L 905.002008 419.882272 
L 906.879387 419.673467 
L 908.756765 419.2428 
L 910.634144 418.590635 
L 912.746195 417.613082 
L 915.32759 416.137327 
L 919.551691 413.385099 
L 923.071776 411.18925 
L 925.418499 409.977695 
L 927.295877 409.233636 
L 929.173256 408.736825 
L 930.815962 408.532656 
L 932.458668 408.562309 
L 934.101374 408.837203 
L 935.74408 409.361824 
L 937.386786 410.132912 
L 939.029493 411.138551 
L 940.906871 412.546873 
L 943.253594 414.620204 
L 950.763108 421.601863 
L 952.405814 422.658519 
L 953.813848 423.299212 
L 955.221882 423.68456 
L 956.629915 423.829979 
L 958.037949 423.755868 
L 959.445983 423.453354 
L 960.619345 422.974215 
L 961.558034 422.378028 
L 962.496723 421.519037 
L 963.435412 420.315472 
L 964.139429 419.135219 
L 964.374101 416.273339 
L 965.782135 413.646252 
L 966.955497 411.876561 
L 968.128858 410.511048 
L 969.30222 409.533045 
L 970.240909 409.00832 
L 971.179598 408.691276 
L 972.35296 408.554614 
L 973.526321 408.666665 
L 974.934355 409.069496 
L 976.577061 409.818635 
L 978.689112 411.055762 
L 983.61723 414.046948 
L 985.494609 414.896284 
L 987.137315 415.421282 
L 988.780021 415.73104 
L 990.6574 415.839639 
L 992.76945 415.708985 
L 995.585518 415.275264 
L 1002.391015 414.117045 
L 1005.441755 413.865419 
L 1008.492495 413.834846 
L 1011.777907 414.022421 
L 1015.532664 414.460599 
L 1019.756765 415.184743 
L 1023.746195 416.087528 
L 1027.970296 417.280035 
L 1034.775793 419.260788 
L 1036.653171 419.55675 
L 1038.295877 419.600051 
L 1039.703911 419.428361 
L 1041.111945 419.032868 
L 1042.519979 418.398872 
L 1043.928013 417.52872 
L 1045.570719 416.240715 
L 1047.448097 414.473561 
L 1050.029493 411.710683 
L 1054.957611 406.373574 
L 1056.834989 404.668656 
L 1058.008351 403.771621 
L 1058.243023 402.051194 
L 1058.94704 401.655288 
L 1059.651057 401.547265 
L 1060.355074 401.699326 
L 1061.059091 402.084579 
L 1061.99778 402.916387 
L 1062.936469 404.058377 
L 1064.109831 405.838453 
L 1065.752537 408.811213 
L 1068.333932 414.076438 
L 1071.384672 420.233955 
L 1073.027378 423.110522 
L 1074.435412 425.136937 
L 1075.608774 426.416039 
L 1076.547463 427.125186 
L 1077.486152 427.541414 
L 1078.424841 427.682586 
L 1079.363531 427.593859 
L 1080.536892 427.247009 
L 1082.179598 426.489588 
L 1084.291649 425.240793 
L 1086.169027 423.88937 
L 1087.811734 422.463255 
L 1089.45444 420.7615 
L 1091.331818 418.462377 
L 1093.443869 415.473845 
L 1096.259937 411.0553 
L 1100.71871 404.06621 
L 1102.596089 401.524487 
L 1104.238795 399.66142 
L 1105.646829 398.403383 
L 1106.82019 397.633355 
L 1107.993552 397.145132 
L 1108.932241 396.973565 
L 1109.87093 397.008221 
L 1110.809619 397.25798 
L 1111.748309 397.729783 
L 1112.686998 398.428297 
L 1113.860359 399.622962 
L 1115.033721 401.17116 
L 1116.441755 403.474615 
L 1117.849789 406.211398 
L 1119.961839 410.873748 
L 1122.07389 415.428004 
L 1123.012579 416.969265 
L 1123.716596 417.721267 
L 1124.185941 417.967503 
L 1124.655285 417.977401 
L 1125.12463 417.734083 
L 1125.593975 417.233182 
L 1126.297992 416.019347 
L 1127.002008 414.311634 
L 1127.940698 411.41763 
L 1129.348732 406.153839 
L 1131.460782 397.162772 
L 1135.450211 380.069833 
L 1137.092918 374.051033 
L 1138.266279 370.437628 
L 1139.439641 367.56234 
L 1140.37833 365.898002 
L 1141.082347 365.075489 
L 1141.786364 364.65879 
L 1142.255708 364.625267 
L 1142.725053 364.800733 
L 1143.194397 365.197126 
L 1143.663742 365.826663 
L 1144.367759 367.235534 
L 1145.071776 369.240555 
L 1145.775793 371.886567 
L 1146.714482 376.491868 
L 1147.653171 382.432635 
L 1148.59186 389.826032 
L 1149.53055 398.790473 
L 1150.703911 412.367093 
L 1151.877273 428.285882 
L 1151.877273 428.285882 
" clip-path="url(#p2c431ed21f)" style="fill: none; stroke: #1f77b4; stroke-width: 1.5; stroke-linecap: square"/>
   </g>
   <g id="patch_12">
    <path d="M 166.5 438.09984 
L 166.5 361.11744 
" style="fill: none; stroke: #000000; stroke-width: 0.8; stroke-linejoin: miter; stroke-linecap: square"/>
   </g>
   <g id="patch_13">
    <path d="M 1198.8 438.09984 
L 1198.8 361.11744 
" style="fill: none; stroke: #000000; stroke-width: 0.8; stroke-linejoin: miter; stroke-linecap: square"/>
   </g>
   <g id="patch_14">
    <path d="M 166.5 438.09984 
L 1198.8 438.09984 
" style="fill: none; stroke: #000000; stroke-width: 0.8; stroke-linejoin: miter; stroke-linecap: square"/>
   </g>
   <g id="patch_15">
    <path d="M 166.5 361.11744 
L 1198.8 361.11744 
" style="fill: none; stroke: #000000; stroke-width: 0.8; stroke-linejoin: miter; stroke-linecap: square"/>
   </g>
  </g>
  <g id="axes_4">
   <g id="patch_16">
    <path d="M 166.5 530.47872 
L 1198.8 530.47872 
L 1198.8 453.49632 
L 166.5 453.49632 
z
" style="fill: #ffffff"/>
   </g>
   <g id="matplotlib.axis_5">
    <g id="xtick_34">
     <g id="line2d_45">
      <g>
       <use xlink:href="#mbaab776d6b" x="213.422727" y="530.47872" style="stroke: #000000; stroke-width: 0.8"/>
      </g>
     </g>
     <g id="text_41">
      <!-- 0 -->
      <g transform="translate(210.241477 545.077157)scale(0.1 -0.1)">
       <use xlink:href="#DejaVuSans-30"/>
      </g>
     </g>
    </g>
    <g id="xtick_35">
     <g id="line2d_46">
      <g>
       <use xlink:href="#mbaab776d6b" x="330.758879" y="530.47872" style="stroke: #000000; stroke-width: 0.8"/>
      </g>
     </g>
     <g id="text_42">
      <!-- 5 -->
      <g transform="translate(327.577629 545.077157)scale(0.1 -0.1)">
       <use xlink:href="#DejaVuSans-35"/>
      </g>
     </g>
    </g>
    <g id="xtick_36">
     <g id="line2d_47">
      <g>
       <use xlink:href="#mbaab776d6b" x="448.095032" y="530.47872" style="stroke: #000000; stroke-width: 0.8"/>
      </g>
     </g>
     <g id="text_43">
      <!-- 10 -->
      <g transform="translate(441.732532 545.077157)scale(0.1 -0.1)">
       <use xlink:href="#DejaVuSans-31"/>
       <use xlink:href="#DejaVuSans-30" x="63.623047"/>
      </g>
     </g>
    </g>
    <g id="xtick_37">
     <g id="line2d_48">
      <g>
       <use xlink:href="#mbaab776d6b" x="565.431184" y="530.47872" style="stroke: #000000; stroke-width: 0.8"/>
      </g>
     </g>
     <g id="text_44">
      <!-- 15 -->
      <g transform="translate(559.068684 545.077157)scale(0.1 -0.1)">
       <use xlink:href="#DejaVuSans-31"/>
       <use xlink:href="#DejaVuSans-35" x="63.623047"/>
      </g>
     </g>
    </g>
    <g id="xtick_38">
     <g id="line2d_49">
      <g>
       <use xlink:href="#mbaab776d6b" x="682.767336" y="530.47872" style="stroke: #000000; stroke-width: 0.8"/>
      </g>
     </g>
     <g id="text_45">
      <!-- 20 -->
      <g transform="translate(676.404836 545.077157)scale(0.1 -0.1)">
       <use xlink:href="#DejaVuSans-32"/>
       <use xlink:href="#DejaVuSans-30" x="63.623047"/>
      </g>
     </g>
    </g>
    <g id="xtick_39">
     <g id="line2d_50">
      <g>
       <use xlink:href="#mbaab776d6b" x="800.103488" y="530.47872" style="stroke: #000000; stroke-width: 0.8"/>
      </g>
     </g>
     <g id="text_46">
      <!-- 25 -->
      <g transform="translate(793.740988 545.077157)scale(0.1 -0.1)">
       <use xlink:href="#DejaVuSans-32"/>
       <use xlink:href="#DejaVuSans-35" x="63.623047"/>
      </g>
     </g>
    </g>
    <g id="xtick_40">
     <g id="line2d_51">
      <g>
       <use xlink:href="#mbaab776d6b" x="917.439641" y="530.47872" style="stroke: #000000; stroke-width: 0.8"/>
      </g>
     </g>
     <g id="text_47">
      <!-- 30 -->
      <g transform="translate(911.077141 545.077157)scale(0.1 -0.1)">
       <use xlink:href="#DejaVuSans-33"/>
       <use xlink:href="#DejaVuSans-30" x="63.623047"/>
      </g>
     </g>
    </g>
    <g id="xtick_41">
     <g id="line2d_52">
      <g>
       <use xlink:href="#mbaab776d6b" x="1034.775793" y="530.47872" style="stroke: #000000; stroke-width: 0.8"/>
      </g>
     </g>
     <g id="text_48">
      <!-- 35 -->
      <g transform="translate(1028.413293 545.077157)scale(0.1 -0.1)">
       <use xlink:href="#DejaVuSans-33"/>
       <use xlink:href="#DejaVuSans-35" x="63.623047"/>
      </g>
     </g>
    </g>
    <g id="xtick_42">
     <g id="line2d_53">
      <g>
       <use xlink:href="#mbaab776d6b" x="1152.111945" y="530.47872" style="stroke: #000000; stroke-width: 0.8"/>
      </g>
     </g>
     <g id="text_49">
      <!-- 40 -->
      <g transform="translate(1145.749445 545.077157)scale(0.1 -0.1)">
       <use xlink:href="#DejaVuSans-34"/>
       <use xlink:href="#DejaVuSans-30" x="63.623047"/>
      </g>
     </g>
    </g>
   </g>
   <g id="matplotlib.axis_6">
    <g id="ytick_6">
     <g id="line2d_54">
      <g>
       <use xlink:href="#m3a82e0a22e" x="166.5" y="514.907931" style="stroke: #000000; stroke-width: 0.8"/>
      </g>
     </g>
     <g id="text_50">
      <!-- 0.2 -->
      <g transform="translate(143.596875 518.70715)scale(0.1 -0.1)">
       <use xlink:href="#DejaVuSans-30"/>
       <use xlink:href="#DejaVuSans-2e" x="63.623047"/>
       <use xlink:href="#DejaVuSans-32" x="95.410156"/>
      </g>
     </g>
    </g>
    <g id="ytick_7">
     <g id="line2d_55">
      <g>
       <use xlink:href="#m3a82e0a22e" x="166.5" y="486.832967" style="stroke: #000000; stroke-width: 0.8"/>
      </g>
     </g>
     <g id="text_51">
      <!-- 0.4 -->
      <g transform="translate(143.596875 490.632185)scale(0.1 -0.1)">
       <use xlink:href="#DejaVuSans-30"/>
       <use xlink:href="#DejaVuSans-2e" x="63.623047"/>
       <use xlink:href="#DejaVuSans-34" x="95.410156"/>
      </g>
     </g>
    </g>
    <g id="ytick_8">
     <g id="line2d_56">
      <g>
       <use xlink:href="#m3a82e0a22e" x="166.5" y="458.758002" style="stroke: #000000; stroke-width: 0.8"/>
      </g>
     </g>
     <g id="text_52">
      <!-- 0.6 -->
      <g transform="translate(143.596875 462.55722)scale(0.1 -0.1)">
       <defs>
        <path id="DejaVuSans-36" d="M 2113 2584 
Q 1688 2584 1439 2293 
Q 1191 2003 1191 1497 
Q 1191 994 1439 701 
Q 1688 409 2113 409 
Q 2538 409 2786 701 
Q 3034 994 3034 1497 
Q 3034 2003 2786 2293 
Q 2538 2584 2113 2584 
z
M 3366 4563 
L 3366 3988 
Q 3128 4100 2886 4159 
Q 2644 4219 2406 4219 
Q 1781 4219 1451 3797 
Q 1122 3375 1075 2522 
Q 1259 2794 1537 2939 
Q 1816 3084 2150 3084 
Q 2853 3084 3261 2657 
Q 3669 2231 3669 1497 
Q 3669 778 3244 343 
Q 2819 -91 2113 -91 
Q 1303 -91 875 529 
Q 447 1150 447 2328 
Q 447 3434 972 4092 
Q 1497 4750 2381 4750 
Q 2619 4750 2861 4703 
Q 3103 4656 3366 4563 
z
" transform="scale(0.015625)"/>
       </defs>
       <use xlink:href="#DejaVuSans-30"/>
       <use xlink:href="#DejaVuSans-2e" x="63.623047"/>
       <use xlink:href="#DejaVuSans-36" x="95.410156"/>
      </g>
     </g>
    </g>
    <g id="text_53">
     <!-- omega [rad/s] -->
     <g transform="translate(137.517188 527.305489)rotate(-90)scale(0.1 -0.1)">
      <defs>
       <path id="DejaVuSans-67" d="M 2906 1791 
Q 2906 2416 2648 2759 
Q 2391 3103 1925 3103 
Q 1463 3103 1205 2759 
Q 947 2416 947 1791 
Q 947 1169 1205 825 
Q 1463 481 1925 481 
Q 2391 481 2648 825 
Q 2906 1169 2906 1791 
z
M 3481 434 
Q 3481 -459 3084 -895 
Q 2688 -1331 1869 -1331 
Q 1566 -1331 1297 -1286 
Q 1028 -1241 775 -1147 
L 775 -588 
Q 1028 -725 1275 -790 
Q 1522 -856 1778 -856 
Q 2344 -856 2625 -561 
Q 2906 -266 2906 331 
L 2906 616 
Q 2728 306 2450 153 
Q 2172 0 1784 0 
Q 1141 0 747 490 
Q 353 981 353 1791 
Q 353 2603 747 3093 
Q 1141 3584 1784 3584 
Q 2172 3584 2450 3431 
Q 2728 3278 2906 2969 
L 2906 3500 
L 3481 3500 
L 3481 434 
z
" transform="scale(0.015625)"/>
       <path id="DejaVuSans-64" d="M 2906 2969 
L 2906 4863 
L 3481 4863 
L 3481 0 
L 2906 0 
L 2906 525 
Q 2725 213 2448 61 
Q 2172 -91 1784 -91 
Q 1150 -91 751 415 
Q 353 922 353 1747 
Q 353 2572 751 3078 
Q 1150 3584 1784 3584 
Q 2172 3584 2448 3432 
Q 2725 3281 2906 2969 
z
M 947 1747 
Q 947 1113 1208 752 
Q 1469 391 1925 391 
Q 2381 391 2643 752 
Q 2906 1113 2906 1747 
Q 2906 2381 2643 2742 
Q 2381 3103 1925 3103 
Q 1469 3103 1208 2742 
Q 947 2381 947 1747 
z
" transform="scale(0.015625)"/>
      </defs>
      <use xlink:href="#DejaVuSans-6f"/>
      <use xlink:href="#DejaVuSans-6d" x="61.181641"/>
      <use xlink:href="#DejaVuSans-65" x="158.59375"/>
      <use xlink:href="#DejaVuSans-67" x="220.117188"/>
      <use xlink:href="#DejaVuSans-61" x="283.59375"/>
      <use xlink:href="#DejaVuSans-20" x="344.873047"/>
      <use xlink:href="#DejaVuSans-5b" x="376.660156"/>
      <use xlink:href="#DejaVuSans-72" x="415.673828"/>
      <use xlink:href="#DejaVuSans-61" x="456.787109"/>
      <use xlink:href="#DejaVuSans-64" x="518.066406"/>
      <use xlink:href="#DejaVuSans-2f" x="581.542969"/>
      <use xlink:href="#DejaVuSans-73" x="615.234375"/>
      <use xlink:href="#DejaVuSans-5d" x="667.333984"/>
     </g>
    </g>
   </g>
   <g id="line2d_57">
    <path d="M 213.422727 515.644739 
L 215.065433 521.611496 
L 216.004123 524.418614 
L 216.70814 525.986971 
L 217.177484 526.663252 
L 217.646829 526.974445 
L 218.116173 526.880552 
L 218.585518 526.372199 
L 219.054863 525.472547 
L 219.758879 523.495319 
L 220.697569 519.987174 
L 222.105603 513.629325 
L 228.676427 482.389972 
L 230.319133 476.02239 
L 231.961839 470.56919 
L 233.369873 466.672128 
L 234.543235 463.98641 
L 235.716596 461.811537 
L 236.889958 460.139299 
L 237.828647 459.153462 
L 238.767336 458.469203 
L 239.706025 458.073778 
L 240.644715 457.952512 
L 241.583404 458.089052 
L 242.522093 458.465612 
L 243.460782 459.063205 
L 244.634144 460.090533 
L 246.042178 461.680685 
L 247.684884 463.936873 
L 249.796934 467.292579 
L 253.786364 474.219491 
L 256.602431 478.897104 
L 258.714482 481.974906 
L 260.357188 484.003971 
L 261.765222 485.442519 
L 263.173256 486.575822 
L 264.346617 487.273796 
L 265.519979 487.740838 
L 266.69334 487.974447 
L 267.866702 487.975812 
L 269.040063 487.749708 
L 270.213425 487.304377 
L 271.621459 486.497118 
L 273.029493 485.417006 
L 274.672199 483.855258 
L 276.549577 481.747947 
L 279.130973 478.478128 
L 284.293763 471.838103 
L 286.171142 469.807698 
L 287.813848 468.359045 
L 289.221882 467.420692 
L 290.395243 466.883787 
L 291.568605 466.590221 
L 292.741966 466.554435 
L 293.915328 466.785441 
L 295.088689 467.285992 
L 296.262051 468.051724 
L 297.435412 469.070244 
L 298.843446 470.595385 
L 300.486152 472.719217 
L 303.067548 476.487537 
L 305.414271 479.796717 
L 306.822304 481.38456 
L 307.056977 481.600474 
L 307.291649 482.724568 
L 308.230338 483.445846 
L 309.169027 483.902636 
L 310.107717 484.130114 
L 311.046406 484.160931 
L 312.219767 483.968547 
L 313.627801 483.468675 
L 315.270507 482.615847 
L 317.61723 481.096173 
L 323.953383 476.829547 
L 326.300106 475.593003 
L 328.412156 474.735891 
L 330.524207 474.139466 
L 332.401586 473.827993 
L 334.513636 473.710728 
L 336.625687 473.816213 
L 338.97241 474.154207 
L 341.788478 474.793096 
L 346.012579 476.018447 
L 351.644715 477.636607 
L 354.695455 478.293005 
L 357.511522 478.676583 
L 360.092918 478.811029 
L 362.674313 478.728958 
L 365.490381 478.40305 
L 368.541121 477.810267 
L 372.53055 476.776759 
L 380.040063 474.779458 
L 382.856131 474.280466 
L 385.437526 474.04044 
L 388.018922 474.037811 
L 390.600317 474.268155 
L 393.885729 474.814146 
L 398.109831 475.523972 
L 399.987209 475.603994 
L 400.925899 475.529983 
L 401.160571 477.531047 
L 402.568605 477.717017 
L 404.445983 477.712766 
L 406.792706 477.450851 
L 416.883615 476.021646 
L 419.934355 475.971577 
L 422.985095 476.141116 
L 426.739852 476.586432 
L 434.249366 477.790788 
L 438.70814 478.36552 
L 442.228224 478.604063 
L 445.513636 478.607998 
L 448.799049 478.388176 
L 452.319133 477.921102 
L 456.543235 477.115831 
L 467.338161 474.911713 
L 470.388901 474.587623 
L 473.204968 474.522505 
L 475.786364 474.694218 
L 478.367759 475.100623 
L 480.949154 475.731855 
L 483.999894 476.71128 
L 490.570719 478.918434 
L 492.448097 479.257287 
L 493.856131 479.307824 
L 494.79482 479.212439 
L 495.029493 479.464907 
L 496.437526 479.335659 
L 498.080233 478.924532 
L 500.192283 478.137642 
L 507.701797 475.097179 
L 510.04852 474.499421 
L 512.160571 474.184852 
L 514.272622 474.086682 
L 516.619345 474.217757 
L 518.966068 474.570921 
L 521.782135 475.22569 
L 525.771564 476.415905 
L 532.342389 478.392691 
L 535.393129 479.066967 
L 538.209197 479.456401 
L 540.790592 479.585096 
L 543.371987 479.484078 
L 545.953383 479.158976 
L 548.76945 478.574647 
L 552.054863 477.654861 
L 563.553805 474.176108 
L 566.135201 473.776678 
L 568.481924 473.657189 
L 570.593975 473.775829 
L 572.706025 474.12079 
L 574.818076 474.688595 
L 577.164799 475.553413 
L 580.215539 476.938578 
L 584.439641 478.87222 
L 586.317019 479.478064 
L 587.725053 479.710615 
L 588.663742 479.719894 
L 588.898414 480.481729 
L 590.071776 480.493222 
L 591.47981 480.262646 
L 593.122516 479.745968 
L 595.234567 478.836681 
L 602.74408 475.389617 
L 605.090803 474.658374 
L 607.202854 474.220348 
L 609.314905 473.997309 
L 611.426956 473.980818 
L 613.773679 474.18079 
L 616.355074 474.621363 
L 619.640486 475.42013 
L 630.904757 478.378759 
L 633.955497 478.823908 
L 636.771564 479.005348 
L 639.587632 478.956166 
L 642.4037 478.688044 
L 645.689112 478.142796 
L 650.147886 477.15256 
L 656.014693 475.874219 
L 659.065433 475.452315 
L 661.646829 475.326842 
L 663.993552 475.441203 
L 666.340275 475.797133 
L 668.686998 476.399298 
L 671.033721 477.228343 
L 674.084461 478.558536 
L 679.012579 480.742935 
L 680.889958 481.300085 
L 682.297992 481.494524 
L 682.532664 481.502751 
L 682.767336 479.677595 
L 683.940698 479.593051 
L 685.348732 479.27434 
L 687.22611 478.594752 
L 690.27685 477.190829 
L 694.266279 475.401551 
L 696.613002 474.589923 
L 698.725053 474.07824 
L 700.837104 473.792488 
L 702.949154 473.732159 
L 705.061205 473.882587 
L 707.407928 474.265657 
L 710.223996 474.96167 
L 714.213425 476.214491 
L 720.549577 478.224702 
L 723.600317 478.954656 
L 726.416385 479.393205 
L 728.99778 479.562367 
L 731.579175 479.495112 
L 734.160571 479.194886 
L 736.976638 478.62518 
L 740.027378 477.77606 
L 744.486152 476.278479 
L 749.883615 474.505974 
L 752.699683 473.807155 
L 755.046406 473.42874 
L 757.393129 473.27971 
L 759.50518 473.364276 
L 761.61723 473.663079 
L 763.963953 474.233821 
L 766.545349 475.100224 
L 773.350846 477.545145 
L 774.993552 477.804368 
L 776.401586 477.774322 
L 776.636258 479.965293 
L 777.809619 480.040979 
L 779.217653 479.906555 
L 780.860359 479.519787 
L 783.207082 478.700309 
L 790.951268 475.767418 
L 793.532664 475.138967 
L 795.879387 474.797214 
L 798.22611 474.674705 
L 800.807505 474.772522 
L 803.623573 475.111149 
L 807.143658 475.774052 
L 818.173256 478.046225 
L 821.458668 478.393454 
L 824.509408 478.4864 
L 827.560148 478.349363 
L 830.84556 477.964077 
L 834.600317 477.288113 
L 845.864588 475.083731 
L 848.680655 474.851252 
L 851.262051 474.85366 
L 853.843446 475.085188 
L 856.424841 475.543408 
L 859.475581 476.326566 
L 866.046406 478.124107 
L 867.923784 478.33119 
L 869.331818 478.270371 
L 870.270507 478.0924 
L 870.50518 479.292358 
L 871.678541 479.162859 
L 873.086575 478.793656 
L 874.963953 478.06158 
L 882.942812 474.630354 
L 885.054863 474.10524 
L 887.166913 473.828763 
L 889.278964 473.802942 
L 891.391015 474.011864 
L 893.737738 474.483009 
L 896.553805 475.305003 
L 900.543235 476.740554 
L 905.940698 478.653703 
L 908.756765 479.419127 
L 911.338161 479.889955 
L 913.684884 480.091274 
L 916.031607 480.060095 
L 918.37833 479.794747 
L 920.725053 479.307727 
L 923.306448 478.547784 
L 926.59186 477.32482 
L 935.74408 473.725356 
L 938.090803 473.119883 
L 940.202854 472.802886 
L 942.080233 472.73891 
L 943.957611 472.904962 
L 945.834989 473.316713 
L 947.712368 473.979455 
L 949.589746 474.885683 
L 951.701797 476.166949 
L 954.283192 478.019773 
L 959.680655 482.007513 
L 961.323362 482.889854 
L 962.496723 483.302322 
L 963.670085 483.469512 
L 964.139429 483.453704 
L 964.374101 482.590104 
L 965.312791 482.434051 
L 966.486152 481.988001 
L 967.894186 481.177448 
L 969.771564 479.802393 
L 975.873044 475.09499 
L 977.750423 474.012703 
L 979.393129 473.298218 
L 981.035835 472.817195 
L 982.678541 472.572226 
L 984.321247 472.555354 
L 985.963953 472.749972 
L 987.841332 473.200962 
L 989.953383 473.947416 
L 992.534778 475.103327 
L 1001.452326 479.314236 
L 1003.799049 480.04638 
L 1005.911099 480.460669 
L 1007.788478 480.611538 
L 1009.665856 480.548211 
L 1011.543235 480.271096 
L 1013.655285 479.716291 
L 1015.767336 478.931143 
L 1018.348732 477.720106 
L 1022.103488 475.667938 
L 1026.562262 473.280017 
L 1028.908985 472.28042 
L 1030.786364 471.705429 
L 1032.42907 471.410276 
L 1034.071776 471.340992 
L 1035.714482 471.522334 
L 1037.122516 471.890924 
L 1038.53055 472.462987 
L 1040.173256 473.388048 
L 1041.815962 474.580493 
L 1043.69334 476.239159 
L 1046.040063 478.661829 
L 1051.906871 484.972083 
L 1053.314905 486.091448 
L 1054.488266 486.746048 
L 1055.426956 487.031397 
L 1056.365645 487.056561 
L 1057.069662 486.87538 
L 1057.773679 486.498131 
L 1058.008351 486.324765 
L 1058.243023 486.85141 
L 1058.94704 486.15879 
L 1059.885729 484.919896 
L 1061.059091 482.995109 
L 1062.936469 479.413838 
L 1066.691226 472.156796 
L 1068.333932 469.49821 
L 1069.741966 467.631934 
L 1070.915328 466.408729 
L 1072.088689 465.506899 
L 1073.027378 465.022483 
L 1073.966068 464.749047 
L 1074.904757 464.683409 
L 1075.843446 464.819503 
L 1076.782135 465.148697 
L 1077.955497 465.814953 
L 1079.128858 466.740242 
L 1080.536892 468.15078 
L 1082.179598 470.138007 
L 1084.291649 473.082072 
L 1091.801163 483.977259 
L 1093.443869 485.845128 
L 1094.851903 487.162791 
L 1096.259937 488.179161 
L 1097.433298 488.773909 
L 1098.60666 489.124676 
L 1099.780021 489.221619 
L 1100.953383 489.058765 
L 1102.126744 488.634143 
L 1103.300106 487.949898 
L 1104.473467 487.01239 
L 1105.881501 485.568368 
L 1107.289535 483.80178 
L 1108.932241 481.380771 
L 1111.044292 477.809882 
L 1114.095032 472.105597 
L 1117.849789 465.132491 
L 1119.727167 462.088994 
L 1121.135201 460.158599 
L 1122.308562 458.84636 
L 1123.481924 457.852729 
L 1124.420613 457.317 
L 1125.359302 457.035002 
L 1126.297992 457.026926 
L 1127.236681 457.311396 
L 1128.17537 457.905191 
L 1129.114059 458.822961 
L 1130.052748 460.076918 
L 1130.991438 461.676528 
L 1132.164799 464.171526 
L 1133.338161 467.221185 
L 1134.746195 471.605595 
L 1136.154228 476.752447 
L 1137.796934 483.644984 
L 1139.674313 492.509566 
L 1142.959725 509.387171 
L 1144.837104 518.433366 
L 1145.775793 522.102176 
L 1146.47981 524.146215 
L 1146.949154 525.05276 
L 1147.418499 525.532039 
L 1147.887844 525.558999 
L 1148.357188 525.144369 
L 1148.826533 524.331812 
L 1149.53055 522.507303 
L 1150.469239 519.282521 
L 1151.877273 513.47437 
L 1151.877273 513.47437 
" clip-path="url(#p82f56d38f0)" style="fill: none; stroke: #1f77b4; stroke-width: 1.5; stroke-linecap: square"/>
   </g>
   <g id="patch_17">
    <path d="M 166.5 530.47872 
L 166.5 453.49632 
" style="fill: none; stroke: #000000; stroke-width: 0.8; stroke-linejoin: miter; stroke-linecap: square"/>
   </g>
   <g id="patch_18">
    <path d="M 1198.8 530.47872 
L 1198.8 453.49632 
" style="fill: none; stroke: #000000; stroke-width: 0.8; stroke-linejoin: miter; stroke-linecap: square"/>
   </g>
   <g id="patch_19">
    <path d="M 166.5 530.47872 
L 1198.8 530.47872 
" style="fill: none; stroke: #000000; stroke-width: 0.8; stroke-linejoin: miter; stroke-linecap: square"/>
   </g>
   <g id="patch_20">
    <path d="M 166.5 453.49632 
L 1198.8 453.49632 
" style="fill: none; stroke: #000000; stroke-width: 0.8; stroke-linejoin: miter; stroke-linecap: square"/>
   </g>
  </g>
  <g id="axes_5">
   <g id="patch_21">
    <path d="M 166.5 622.8576 
L 1198.8 622.8576 
L 1198.8 545.8752 
L 166.5 545.8752 
z
" style="fill: #ffffff"/>
   </g>
   <g id="matplotlib.axis_7">
    <g id="xtick_43">
     <g id="line2d_58">
      <g>
       <use xlink:href="#mbaab776d6b" x="213.422727" y="622.8576" style="stroke: #000000; stroke-width: 0.8"/>
      </g>
     </g>
     <g id="text_54">
      <!-- 0 -->
      <g transform="translate(210.241477 637.456038)scale(0.1 -0.1)">
       <use xlink:href="#DejaVuSans-30"/>
      </g>
     </g>
    </g>
    <g id="xtick_44">
     <g id="line2d_59">
      <g>
       <use xlink:href="#mbaab776d6b" x="330.758879" y="622.8576" style="stroke: #000000; stroke-width: 0.8"/>
      </g>
     </g>
     <g id="text_55">
      <!-- 5 -->
      <g transform="translate(327.577629 637.456038)scale(0.1 -0.1)">
       <use xlink:href="#DejaVuSans-35"/>
      </g>
     </g>
    </g>
    <g id="xtick_45">
     <g id="line2d_60">
      <g>
       <use xlink:href="#mbaab776d6b" x="448.095032" y="622.8576" style="stroke: #000000; stroke-width: 0.8"/>
      </g>
     </g>
     <g id="text_56">
      <!-- 10 -->
      <g transform="translate(441.732532 637.456038)scale(0.1 -0.1)">
       <use xlink:href="#DejaVuSans-31"/>
       <use xlink:href="#DejaVuSans-30" x="63.623047"/>
      </g>
     </g>
    </g>
    <g id="xtick_46">
     <g id="line2d_61">
      <g>
       <use xlink:href="#mbaab776d6b" x="565.431184" y="622.8576" style="stroke: #000000; stroke-width: 0.8"/>
      </g>
     </g>
     <g id="text_57">
      <!-- 15 -->
      <g transform="translate(559.068684 637.456038)scale(0.1 -0.1)">
       <use xlink:href="#DejaVuSans-31"/>
       <use xlink:href="#DejaVuSans-35" x="63.623047"/>
      </g>
     </g>
    </g>
    <g id="xtick_47">
     <g id="line2d_62">
      <g>
       <use xlink:href="#mbaab776d6b" x="682.767336" y="622.8576" style="stroke: #000000; stroke-width: 0.8"/>
      </g>
     </g>
     <g id="text_58">
      <!-- 20 -->
      <g transform="translate(676.404836 637.456038)scale(0.1 -0.1)">
       <use xlink:href="#DejaVuSans-32"/>
       <use xlink:href="#DejaVuSans-30" x="63.623047"/>
      </g>
     </g>
    </g>
    <g id="xtick_48">
     <g id="line2d_63">
      <g>
       <use xlink:href="#mbaab776d6b" x="800.103488" y="622.8576" style="stroke: #000000; stroke-width: 0.8"/>
      </g>
     </g>
     <g id="text_59">
      <!-- 25 -->
      <g transform="translate(793.740988 637.456038)scale(0.1 -0.1)">
       <use xlink:href="#DejaVuSans-32"/>
       <use xlink:href="#DejaVuSans-35" x="63.623047"/>
      </g>
     </g>
    </g>
    <g id="xtick_49">
     <g id="line2d_64">
      <g>
       <use xlink:href="#mbaab776d6b" x="917.439641" y="622.8576" style="stroke: #000000; stroke-width: 0.8"/>
      </g>
     </g>
     <g id="text_60">
      <!-- 30 -->
      <g transform="translate(911.077141 637.456038)scale(0.1 -0.1)">
       <use xlink:href="#DejaVuSans-33"/>
       <use xlink:href="#DejaVuSans-30" x="63.623047"/>
      </g>
     </g>
    </g>
    <g id="xtick_50">
     <g id="line2d_65">
      <g>
       <use xlink:href="#mbaab776d6b" x="1034.775793" y="622.8576" style="stroke: #000000; stroke-width: 0.8"/>
      </g>
     </g>
     <g id="text_61">
      <!-- 35 -->
      <g transform="translate(1028.413293 637.456038)scale(0.1 -0.1)">
       <use xlink:href="#DejaVuSans-33"/>
       <use xlink:href="#DejaVuSans-35" x="63.623047"/>
      </g>
     </g>
    </g>
    <g id="xtick_51">
     <g id="line2d_66">
      <g>
       <use xlink:href="#mbaab776d6b" x="1152.111945" y="622.8576" style="stroke: #000000; stroke-width: 0.8"/>
      </g>
     </g>
     <g id="text_62">
      <!-- 40 -->
      <g transform="translate(1145.749445 637.456038)scale(0.1 -0.1)">
       <use xlink:href="#DejaVuSans-34"/>
       <use xlink:href="#DejaVuSans-30" x="63.623047"/>
      </g>
     </g>
    </g>
   </g>
   <g id="matplotlib.axis_8">
    <g id="ytick_9">
     <g id="line2d_67">
      <g>
       <use xlink:href="#m3a82e0a22e" x="166.5" y="614.557638" style="stroke: #000000; stroke-width: 0.8"/>
      </g>
     </g>
     <g id="text_63">
      <!-- 1000 -->
      <g transform="translate(125.670312 618.356857)scale(0.1 -0.1)">
       <defs>
        <path id="DejaVuSans-2212" d="M 678 2272 
L 4684 2272 
L 4684 1741 
L 678 1741 
L 678 2272 
z
" transform="scale(0.015625)"/>
       </defs>
       <use xlink:href="#DejaVuSans-2212"/>
       <use xlink:href="#DejaVuSans-31" x="83.789062"/>
       <use xlink:href="#DejaVuSans-30" x="147.412109"/>
       <use xlink:href="#DejaVuSans-30" x="211.035156"/>
       <use xlink:href="#DejaVuSans-30" x="274.658203"/>
      </g>
     </g>
    </g>
    <g id="ytick_10">
     <g id="line2d_68">
      <g>
       <use xlink:href="#m3a82e0a22e" x="166.5" y="581.722432" style="stroke: #000000; stroke-width: 0.8"/>
      </g>
     </g>
     <g id="text_64">
      <!-- 500 -->
      <g transform="translate(132.032813 585.52165)scale(0.1 -0.1)">
       <use xlink:href="#DejaVuSans-2212"/>
       <use xlink:href="#DejaVuSans-35" x="83.789062"/>
       <use xlink:href="#DejaVuSans-30" x="147.412109"/>
       <use xlink:href="#DejaVuSans-30" x="211.035156"/>
      </g>
     </g>
    </g>
    <g id="ytick_11">
     <g id="line2d_69">
      <g>
       <use xlink:href="#m3a82e0a22e" x="166.5" y="548.887225" style="stroke: #000000; stroke-width: 0.8"/>
      </g>
     </g>
     <g id="text_65">
      <!-- 0 -->
      <g transform="translate(153.1375 552.686444)scale(0.1 -0.1)">
       <use xlink:href="#DejaVuSans-30"/>
      </g>
     </g>
    </g>
    <g id="text_66">
     <!-- yaw [deg] -->
     <g transform="translate(119.590625 609.394525)rotate(-90)scale(0.1 -0.1)">
      <defs>
       <path id="DejaVuSans-77" d="M 269 3500 
L 844 3500 
L 1563 769 
L 2278 3500 
L 2956 3500 
L 3675 769 
L 4391 3500 
L 4966 3500 
L 4050 0 
L 3372 0 
L 2619 2869 
L 1863 0 
L 1184 0 
L 269 3500 
z
" transform="scale(0.015625)"/>
      </defs>
      <use xlink:href="#DejaVuSans-79"/>
      <use xlink:href="#DejaVuSans-61" x="59.179688"/>
      <use xlink:href="#DejaVuSans-77" x="120.458984"/>
      <use xlink:href="#DejaVuSans-20" x="202.246094"/>
      <use xlink:href="#DejaVuSans-5b" x="234.033203"/>
      <use xlink:href="#DejaVuSans-64" x="273.046875"/>
      <use xlink:href="#DejaVuSans-65" x="336.523438"/>
      <use xlink:href="#DejaVuSans-67" x="398.046875"/>
      <use xlink:href="#DejaVuSans-5d" x="461.523438"/>
     </g>
    </g>
   </g>
   <g id="line2d_70">
    <path d="M 213.422727 549.3744 
L 222.105603 549.483997 
L 228.441755 549.807822 
L 236.185941 550.446222 
L 257.775793 552.349957 
L 296.496723 555.208942 
L 308.230338 556.098449 
L 331.697569 557.80191 
L 367.837104 560.541645 
L 461.706025 567.626252 
L 589.367759 577.289251 
L 613.069662 579.086565 
L 644.046406 581.411547 
L 701.306448 585.744605 
L 732.517865 588.100627 
L 760.209197 590.222267 
L 780.860359 591.751396 
L 808.786364 593.886593 
L 916.970296 602.032677 
L 942.314905 603.9676 
L 962.966068 605.514993 
L 979.862474 606.771959 
L 1009.665856 609.038506 
L 1031.959725 610.738177 
L 1052.376216 612.295061 
L 1070.680655 613.60491 
L 1091.801163 615.336896 
L 1120.196512 617.354136 
L 1139.674313 619.062378 
L 1145.775793 619.304837 
L 1151.877273 619.3584 
L 1151.877273 619.3584 
" clip-path="url(#p0edb323221)" style="fill: none; stroke: #1f77b4; stroke-width: 1.5; stroke-linecap: square"/>
   </g>
   <g id="patch_22">
    <path d="M 166.5 622.8576 
L 166.5 545.8752 
" style="fill: none; stroke: #000000; stroke-width: 0.8; stroke-linejoin: miter; stroke-linecap: square"/>
   </g>
   <g id="patch_23">
    <path d="M 1198.8 622.8576 
L 1198.8 545.8752 
" style="fill: none; stroke: #000000; stroke-width: 0.8; stroke-linejoin: miter; stroke-linecap: square"/>
   </g>
   <g id="patch_24">
    <path d="M 166.5 622.8576 
L 1198.8 622.8576 
" style="fill: none; stroke: #000000; stroke-width: 0.8; stroke-linejoin: miter; stroke-linecap: square"/>
   </g>
   <g id="patch_25">
    <path d="M 166.5 545.8752 
L 1198.8 545.8752 
" style="fill: none; stroke: #000000; stroke-width: 0.8; stroke-linejoin: miter; stroke-linecap: square"/>
   </g>
  </g>
 </g>
 <defs>
  <clipPath id="p5b9302c44b">
   <rect x="597.96936" y="83.9808" width="169.36128" height="169.36128"/>
  </clipPath>
  <clipPath id="pa8b0e38a42">
   <rect x="166.5" y="268.73856" width="1032.3" height="76.9824"/>
  </clipPath>
  <clipPath id="p2c431ed21f">
   <rect x="166.5" y="361.11744" width="1032.3" height="76.9824"/>
  </clipPath>
  <clipPath id="p82f56d38f0">
   <rect x="166.5" y="453.49632" width="1032.3" height="76.9824"/>
  </clipPath>
  <clipPath id="p0edb323221">
   <rect x="166.5" y="545.8752" width="1032.3" height="76.9824"/>
  </clipPath>
 </defs>
</svg>
